<?xml version="1.0" encoding="UTF-8" standalone="no"?>
<!-- Created with Inkscape (http://www.inkscape.org/) -->

<svg
   version="1.1"
   id="svg1"
   width="70.00045mm"
   height="76.480003mm"
   viewBox="0 0 264.56862 289.05827"
   sodipodi:docname="tractor.svg"
   inkscape:version="1.3.2 (091e20e, 2023-11-25, custom)"
   xmlns:inkscape="http://www.inkscape.org/namespaces/inkscape"
   xmlns:sodipodi="http://sodipodi.sourceforge.net/DTD/sodipodi-0.dtd"
   xmlns:xlink="http://www.w3.org/1999/xlink"
   xmlns="http://www.w3.org/2000/svg"
   xmlns:svg="http://www.w3.org/2000/svg"
   xmlns:inkstitch="http://inkstitch.org/namespace">
  <sodipodi:namedview
     id="namedview1"
     pagecolor="#ffffff"
     bordercolor="#000000"
     borderopacity="0.25"
     inkscape:showpageshadow="2"
     inkscape:pageopacity="0.0"
     inkscape:pagecheckerboard="0"
     inkscape:deskcolor="#d1d1d1"
     inkscape:zoom="1.8684896"
     inkscape:cx="206.85156"
     inkscape:cy="99.278046"
     inkscape:window-width="1858"
     inkscape:window-height="1057"
     inkscape:window-x="54"
     inkscape:window-y="-8"
     inkscape:window-maximized="1"
     inkscape:current-layer="g1"
     inkscape:document-units="mm" />
  <metadata
     id="metadata13">
    <inkstitch:min_stitch_len_mm>0</inkstitch:min_stitch_len_mm>
    <inkstitch:collapse_len_mm>3</inkstitch:collapse_len_mm>
    <inkstitch:inkstitch_svg_version>1</inkstitch:inkstitch_svg_version>
  </metadata>
  <defs
     id="defs1">
    <symbol
       id="inkstitch_trim">
      <title
         id="inkstitch_title9282">Trim the thread after sewing this object.</title>
      <path
         id="inkstitch_circle13405"
         d="m 9.2465284,-8.6e-6 c 1.8e-6,2.452339 -0.9741847,4.804237 -2.7082493,6.538304 C 4.8042146,8.2723614 2.4523174,9.2465504 -2.1625959e-5,9.2465514 -2.4523623,9.2465534 -4.8042621,8.2723654 -6.5383288,6.5382984 -8.2723956,4.8042314 -9.2465834,2.4523324 -9.2465816,-8.6e-6 c 6e-7,-2.452339 0.9741895,-4.804237 2.708256,-6.538301 1.7340665,-1.734065 4.0859648,-2.708252 6.538303974041,-2.70825 C 5.1067066,-9.2465576 9.2465271,-5.1067366 9.2465284,-8.6e-6 c 0,0 0,0 0,0"
         style="opacity:1;vector-effect:none;fill:#fafafa;fill-opacity:1;fill-rule:evenodd;stroke:#003399;stroke-width:1.06500006;stroke-linecap:round;stroke-linejoin:miter;stroke-miterlimit:4;stroke-dasharray:3.19500017, 3.19500017;stroke-dashoffset:0;stroke-opacity:1"
         inkscape:connector-curvature="0" />
      <path
         style="color:#000000;font-style:normal;font-variant:normal;font-weight:normal;font-stretch:normal;font-size:medium;line-height:normal;font-family:sans-serif;font-variant-ligatures:normal;font-variant-position:normal;font-variant-caps:normal;font-variant-numeric:normal;font-variant-alternates:normal;font-feature-settings:normal;text-indent:0;text-align:start;text-decoration:none;text-decoration-line:none;text-decoration-style:solid;text-decoration-color:#000000;letter-spacing:normal;word-spacing:normal;text-transform:none;writing-mode:lr-tb;direction:ltr;text-orientation:mixed;dominant-baseline:auto;baseline-shift:baseline;text-anchor:start;white-space:normal;shape-padding:0;clip-rule:nonzero;display:inline;overflow:visible;visibility:visible;opacity:1;isolation:auto;mix-blend-mode:normal;color-interpolation:sRGB;color-interpolation-filters:linearRGB;solid-color:#000000;solid-opacity:1;vector-effect:none;fill:#050505;fill-opacity:1;fill-rule:evenodd;stroke:none;stroke-width:1.41421342;stroke-linecap:butt;stroke-linejoin:miter;stroke-miterlimit:4;stroke-dasharray:none;stroke-dashoffset:0;stroke-opacity:1;color-rendering:auto;image-rendering:auto;shape-rendering:auto;text-rendering:auto;enable-background:accumulate"
         d="m -3.0000256,-5.9834096 c -1.30575,0 -2.375,1.06924 -2.375,2.375 0,1.30575 1.06925,2.375 2.375,2.375 0.58687,0 1.11944,-0.22369 1.53516,-0.58007 0,0 0.61717997,1.62109 0.61717997,1.62109 0,0 -2.29881997,6.01758 -2.29881997,6.01758 0.98655,-0.12511 1.23728,-0.26171 1.67382,-0.97461 0,0 1.33007997,-3.18945 1.33007997,-3.18945 0,0 1.23633003,3.25 1.23633003,3.25 0.23227,0.77906 0.84315,0.79218 1.57813,1.07226 0,0 -2.05469003,-6.14258 -2.05469003,-6.14258 0,0 0.73047003,-1.75 0.73047003,-1.75 0.42849,0.41682 1.01136,0.67578 1.65234,0.67578 1.30575,0 2.375,-1.06925 2.375,-2.375 0,-1.30576 -1.06925,-2.375 -2.375,-2.375 -1.06233,0 -1.95701,0.71265 -2.25781003,1.67969 0,0 -0.0117,-0.0156 -0.0117,-0.0156 0,0 -0.80274,2.10156 -0.80274,2.10156 0,0 -0.59179,-1.76562 -0.59179,-1.76562 -0.18242,-1.12808 -1.15864997,-2 -2.33593997,-2 0,0 -2e-5,-3e-5 -2e-5,-3e-5 m 0,1 c 0.76531,0 1.375,0.60968 1.375,1.375 0,0.76531 -0.60969,1.375 -1.375,1.375 -0.76531,0 -1.375,-0.60969 -1.375,-1.375 0,-0.76532 0.60969,-1.375 1.375,-1.375 0,0 0,0 0,0 m 6,0 c 0.76531,0 1.375,0.60968 1.375,1.375 0,0.76531 -0.60969,1.375 -1.375,1.375 -0.76531,0 -1.375,-0.60969 -1.375,-1.375 0,-0.76532 0.60969,-1.375 1.375,-1.375 0,0 0,0 0,0"
         id="inkstitch_path13416"
         inkscape:connector-curvature="0" />
    </symbol>
  </defs>
  <g
     inkscape:groupmode="layer"
     inkscape:label="Image"
     id="g1">
    <path
       style="fill:#000000;stroke-width:1.26993"
       d="m 46.472508,250.913 c -4.033288,-0.42722 -7.12984,-1.09398 -10.465957,-2.25357 -6.570647,-2.28387 -7.630595,-2.69393 -8.611891,-3.33166 -2.028324,-1.31819 -5.952478,-5.02693 -8.555827,-8.08616 -1.4528,-1.70721 -3.157024,-3.67794 -3.787166,-4.3794 -2.863241,-3.18732 -7.0784242,-11.58068 -8.4977698,-16.92092 -2.1763751,-8.18856 -2.7881003,-12.73421 -2.5156414,-18.69337 0.5680078,-12.42337 4.1768356,-23.46418 11.0678192,-33.86076 1.158986,-1.74859 2.107248,-3.35866 2.107248,-3.57791 0,-0.21926 -1.054608,-1.62398 -2.343574,-3.12161 -3.633246,-4.2214 -4.352723,-5.56586 -3.91444,-7.31475 0.298603,-1.19153 0.960853,-1.88646 3.61656,-3.79505 1.788061,-1.28504 4.34824,-2.89373 5.689286,-3.57487 3.457956,-1.75636 6.889768,-3.75318 8.075457,-4.69877 0.991231,-0.79051 1.025129,-0.99775 1.428737,-8.73409 0.22738,-4.3584 0.783326,-13.04472 1.235437,-19.30293 0.452113,-6.25822 1.014419,-14.121623 1.249572,-17.474237 0.235152,-3.352615 0.688094,-9.282055 1.006536,-13.176534 0.321069,-3.926581 0.42762,-7.351351 0.239189,-7.688056 -0.420527,-0.751442 -1.399204,-0.881755 -7.545643,-1.004721 -2.682092,-0.05365 -5.105118,-0.240446 -5.384502,-0.415085 -1.489318,-0.930947 0.219734,-17.711805 1.807963,-17.752039 5.795655,-0.146816 10.419913,-0.432949 13.329602,-0.824789 2.116984,-0.285089 5.711282,-0.404529 8.533929,-0.283586 2.682091,0.114916 6.522359,0.02347 8.533928,-0.203228 2.011569,-0.226696 6.949056,-0.467167 10.972194,-0.534378 21.129514,-0.352992 46.881806,-0.993034 47.952556,-1.191802 0.67052,-0.124466 3.87074,-0.281011 7.1116,-0.347864 3.24087,-0.06685 8.8723,-0.448731 12.5143,-0.848618 6.26083,-0.68743 6.66389,-0.689002 7.39336,-0.02884 1.09597,0.99184 1.30092,2.408353 0.88559,6.120707 -0.1999,1.786666 -0.21504,4.341625 -0.0336,5.677688 0.29519,2.174337 0.22654,2.605415 -0.65426,4.108698 -0.98483,1.680809 -1.96249,2.391139 -2.68038,1.94746 -0.43544,-0.269123 -7.44176,0.652992 -8.11284,1.067748 -0.29078,0.179709 -0.0217,1.101694 0.79167,2.713054 0.67767,1.342461 1.71441,4.156606 2.30387,6.253658 0.58945,2.097052 1.88958,6.281565 2.88915,9.298918 1.57222,4.745894 3.28934,11.14802 6.04925,22.553956 1.31703,5.44289 3.56995,12.19545 4.28363,12.83907 0.50697,0.4572 1.90699,0.72016 4.75926,0.89393 2.22256,0.13541 5.20918,0.43043 6.63694,0.6556 1.42775,0.22518 5.15609,0.61424 8.2852,0.86459 3.1291,0.25034 6.7865,0.63054 8.12755,0.84489 7.89327,1.2616 13.01919,1.98572 14.05662,1.98572 1.11551,0 1.18428,-0.0979 1.21315,-1.7271 0.0169,-0.94991 0.0668,-7.39608 0.111,-14.32481 0.0858,-13.45391 0.33639,-15.539948 2.09397,-17.436401 0.50876,-0.548962 1.63111,-1.19346 2.49413,-1.432218 2.79739,-0.773913 2.74031,-0.641154 3.28094,-7.631604 0.84769,-10.960812 1.19841,-13.659291 2.06549,-15.892597 1.25362,-3.228886 1.9067,-4.020992 4.88379,-5.923514 7.49006,-4.786557 11.52485,-4.052286 12.47291,2.269887 l 0.28424,1.895401 -1.65264,0.843112 c -1.0648,0.543217 -2.27216,1.728382 -3.39433,3.331938 -0.95793,1.368853 -1.97342,2.802585 -2.25665,3.186071 -0.86273,1.168127 -2.16307,8.908694 -2.23184,13.285434 l -0.0649,4.129189 1.63597,1.774827 c 2.68565,2.913575 2.9551,5.606076 2.68892,26.868155 -0.0609,4.87373 -0.0148,9.01688 0.10274,9.20702 0.29211,0.47263 2.42411,0.74394 13.01365,1.65602 7.94512,0.68433 15.56865,2.27663 17.18884,3.59019 0.60398,0.48967 1.6636,1.25135 2.35468,1.69263 2.53083,1.61602 2.82461,3.56678 3.44343,22.86438 0.55894,17.43096 0.47638,20.18507 -0.64226,21.42614 l -0.80668,0.89495 1.8287,1.47408 c 7.09569,5.7197 11.09432,10.81985 13.26841,16.92359 1.0992,3.08595 1.15586,3.58116 1.11592,9.75307 -0.0292,4.5166 -0.24638,7.34733 -0.71116,9.27029 -0.368,1.52255 -0.66909,3.27501 -0.66909,3.89437 0,1.59292 -2.90586,6.91934 -6.12002,11.21799 -5.55888,7.43445 -9.88303,11.01372 -17.0435,14.10761 -7.79283,3.36712 -12.0647,4.18493 -21.7412,4.16216 -6.38297,-0.015 -7.68501,-0.13218 -10.22105,-0.91966 -5.59546,-1.73747 -10.9774,-4.35066 -13.54961,-6.57901 -4.27573,-3.70413 -9.04034,-11.98452 -11.22242,-19.50339 -2.13753,-7.36533 -2.5464,-13.28553 -1.31946,-19.10457 0.6087,-2.88695 3.96815,-9.70471 6.20749,-12.59771 3.16196,-4.08492 7.3327,-9.02963 8.62102,-10.22081 2.47206,-2.28567 7.62803,-5.64258 11.8229,-7.69754 4.26462,-2.08914 4.50794,-2.15507 9.37764,-2.54113 4.19816,-0.33281 5.63104,-0.28372 8.94031,0.30638 8.47023,1.51038 12.43421,2.66806 16.21467,4.73551 1.6099,0.88041 3.02714,1.60076 3.14942,1.60076 0.1223,0 0.22233,-4.46236 0.22233,-9.91635 v -9.91635 l -2.50103,-0.29028 c -2.64488,-0.30697 -14.33965,-0.003 -24.52308,0.63711 -3.35261,0.21078 -7.83293,0.48215 -9.95625,0.60305 -2.12332,0.1209 -5.23211,0.29972 -6.90842,0.39737 -9.41229,0.54838 -18.28516,0.80101 -26.21135,0.7463 -8.60531,-0.0594 -9.12155,-0.10921 -13.77757,-1.32971 -6.70838,-1.75849 -9.43263,-3.14165 -12.19082,-6.18954 -3.42834,-3.78844 -4.08973,-6.66882 -4.48631,-19.53796 -0.1359,-4.41056 -0.35354,-8.29653 -0.48362,-8.63552 -0.18671,-0.48655 -1.01891,-0.6205 -3.95203,-0.63612 -2.04353,-0.0114 -9.01875,-0.1129 -15.50046,-0.22667 -6.48173,-0.11379 -12.88217,-0.20657 -14.22322,-0.20615 -1.34105,4.3e-4 -6.0366,-0.1822 -10.434567,-0.40582 -16.684788,-0.84838 -51.031729,-1.07012 -55.601786,-0.35896 -1.4528,0.22607 -4.004005,0.59264 -5.669345,0.81458 -1.665339,0.22196 -3.153649,0.54054 -3.307354,0.70795 -0.153706,0.16743 -0.407841,2.72744 -0.564748,5.68892 -0.231682,4.3728 -0.18292,5.38443 0.259522,5.3841 0.299644,-2.2e-4 3.104986,-0.8599 6.234093,-1.91041 l 5.689286,-1.91 7.832446,0.0307 c 4.307845,0.0169 9.611072,0.24148 11.784949,0.49908 2.173878,0.25761 5.598332,0.66753 7.609901,0.91093 5.019613,0.60738 13.918134,3.1892 18.083803,5.24684 5.140329,2.53908 8.012634,4.60756 13.51254,9.73099 2.59476,2.41714 6.39996,6.88485 6.39996,7.51422 0,0.14364 0.43913,0.8433 0.97583,1.55479 3.01469,3.99642 6.82955,11.75661 8.2273,16.73596 1.20481,4.29201 1.44008,6.40107 1.79064,16.05192 0.1989,5.47593 0.48411,12.17283 0.63379,14.882 l 0.27215,4.92575 3.70161,0.17326 c 2.0359,0.0952 12.47937,0.15484 23.20773,0.13233 14.88874,-0.0312 19.96931,-0.16906 21.46281,-0.58217 1.45968,-0.40373 2.07385,-0.42405 2.41795,-0.08 0.25369,0.2537 1.14974,0.46127 1.99119,0.46127 1.09487,0 1.64916,0.22275 1.94917,0.78331 1.03363,1.93137 -1.03657,3.04007 -5.13367,2.74936 -4.57216,-0.32442 -17.70565,-0.27209 -19.23707,0.0767 -0.7844,0.17862 -3.61888,0.17637 -6.29885,-0.005 -2.67999,-0.18137 -9.55419,-0.26884 -15.27603,-0.19436 l -10.40333,0.1354 -1.57373,1.06937 c -2.67121,1.81515 -5.04481,2.38582 -9.10662,2.18947 -2.03792,-0.0985 -3.89892,-0.39705 -4.24011,-0.68022 -0.66273,-0.55002 -1.45642,-0.27137 -1.45642,0.51132 0,0.99729 -3.1747,6.67925 -5.714333,10.22732 -3.124839,4.36565 -7.354684,8.71389 -10.663706,10.96219 -4.881536,3.31674 -7.845357,5.15162 -9.586807,5.93512 -0.981957,0.44178 -2.591236,1.34713 -3.576176,2.01184 -0.984939,0.66474 -2.010219,1.20766 -2.278399,1.2065 -0.26818,-0.001 -2.224863,0.53642 -4.348186,1.1946 -9.199349,2.85163 -14.579333,3.58855 -21.131633,2.89452 z m 15.03597,-3.93098 c 5.152858,-1.50119 7.323573,-2.27908 8.207163,-2.9411 1.2315,-0.92266 3.023935,-1.6851 3.961581,-1.6851 2.365609,0 12.884102,-6.69313 16.887252,-10.74569 2.563628,-2.59528 5.913009,-7.01682 7.506661,-9.90958 0.329034,-0.59726 0.985694,-1.72596 1.459246,-2.50824 2.836019,-4.68494 4.226789,-11.16573 4.525839,-21.08994 0.33824,-11.22472 -0.70078,-19.03454 -3.25946,-24.49964 -2.914109,-6.2243 -8.099517,-11.43281 -16.12476,-16.19664 -9.764725,-5.79638 -16.158978,-7.81537 -26.82092,-8.46871 -10.952839,-0.67116 -20.606371,1.31317 -31.530478,6.48125 -3.061086,1.44816 -5.383155,3.87589 -8.884424,9.28868 -4.501653,6.95933 -7.117025,13.086 -9.0055282,21.09596 -1.2336191,5.23233 -1.8348753,17.15596 -0.9936331,19.70495 0.2697089,0.81722 0.653513,2.53892 0.8528982,3.82598 1.1594022,7.48413 5.5462801,17.08749 10.3163151,22.58354 1.587875,1.82956 3.473862,4.07848 4.191082,4.9976 1.802856,2.31034 7.783051,6.19687 11.687058,7.59541 1.788061,0.64054 5.536894,1.69444 8.33074,2.342 4.675144,1.08362 5.532843,1.16158 10.769005,0.97892 3.438563,-0.12001 6.573499,-0.4561 7.924363,-0.84965 z M 50.147735,224.85328 c -3.67616,-0.65572 -6.648218,-1.9504 -10.519012,-4.58231 -2.32638,-1.58178 -4.325677,-3.33558 -5.439728,-4.77177 -1.870145,-2.41092 -4.780669,-8.63499 -5.544462,-11.85667 -1.536646,-6.48156 0.709092,-15.01637 6.053655,-23.00657 3.560908,-5.32361 9.202668,-10.19505 12.794914,-11.0479 1.114981,-0.2647 3.237778,-0.84982 4.717329,-1.30025 2.617902,-0.79699 2.770574,-0.79995 5.689286,-0.11036 8.182541,1.93329 13.697006,4.5627 16.671704,7.94943 4.962309,5.64965 6.342012,7.79728 7.30311,11.36795 1.070882,3.97853 1.145236,11.7009 0.158827,16.49559 -0.707658,3.43977 -2.865439,7.96752 -5.209271,10.9308 -2.56761,3.2462 -9.801088,7.94721 -14.462449,9.39909 -2.38666,0.74337 -9.33448,1.04652 -12.213903,0.53294 z m 12.579875,-3.41199 c 1.005785,-0.35413 2.420089,-0.92079 3.142899,-1.25921 2.20869,-1.03416 7.282423,-5.3087 8.996579,-7.57949 6.402127,-8.48107 6.379715,-24.09043 -0.0455,-31.69115 -3.087903,-3.65284 -5.333044,-5.5611 -8.23339,-6.998 -3.220606,-1.59555 -5.571923,-2.07722 -12.742655,-2.61035 -4.826988,-0.35888 -5.08439,-0.3376 -6.645657,0.54921 -6.395329,3.63262 -13.215533,13.36121 -15.294458,21.81658 -1.482284,6.02871 0.449371,14.1872 4.717054,19.92281 2.406381,3.23409 7.207853,6.40493 12.288292,8.11503 1.842587,0.62023 3.091416,0.71952 7.111608,0.5654 2.943814,-0.1129 5.6013,-0.44213 6.705228,-0.83083 z m 162.15396,25.61331 c 10.33375,-2.65775 14.8679,-4.97267 20.29858,-10.36347 5.78194,-5.73949 10.98318,-13.72147 10.98318,-16.85512 0,-0.5498 0.26372,-2.15394 0.58603,-3.56473 1.4542,-6.36502 1.23054,-12.58879 -0.66171,-18.41379 -1.5065,-4.63757 -5.48766,-9.64893 -11.48565,-14.45781 -6.5997,-5.2913 -7.90838,-5.9068 -16.79394,-7.8986 -4.1379,-0.92754 -6.41742,-1.13308 -12.54377,-1.13102 l -5.341,0.001 -4.00568,2.13876 c -5.73138,3.06018 -8.11822,4.71744 -11.12556,7.72487 -4.87474,4.87487 -8.83239,10.11978 -11.19868,14.84114 -2.02953,4.04942 -2.28098,4.84824 -2.67159,8.4873 -0.71264,6.63919 0.55348,13.98001 3.51828,20.3986 0.78097,1.69075 1.41995,3.2081 1.41995,3.37189 0,0.93231 4.33621,6.72015 6.66265,8.89308 3.28973,3.07267 6.97149,4.99844 12.54306,6.56072 3.65055,1.02362 4.885,1.17228 10.06279,1.21182 5.02727,0.0384 6.47248,-0.10172 9.75306,-0.94544 z m -14.52221,-13.99116 c -4.88532,-1.68796 -10.10884,-6.34517 -12.36725,-11.02649 -1.80887,-3.74948 -2.46434,-6.46613 -2.47975,-10.27731 -0.0263,-6.51958 3.40665,-13.45016 8.76655,-17.69799 3.95886,-3.13748 6.76889,-4.34852 12.40951,-5.34812 4.40457,-0.78054 5.11704,-0.71048 12.71098,1.24997 1.03491,0.26717 2.57108,1.44925 5.11341,3.93475 5.79586,5.66628 7.64271,10.36667 7.25138,18.45532 -0.32977,6.81584 -1.26503,9.91652 -4.14662,13.74716 -2.23916,2.97664 -2.7467,3.39501 -5.91977,4.87988 -5.71278,2.67333 -16.56389,3.73249 -21.33844,2.08283 z m 13.49695,-2.61604 c 1.11754,-0.33641 3.08289,-0.91262 4.36745,-1.28045 3.2845,-0.94053 6.62843,-4.07782 8.33544,-7.82036 1.63081,-3.57547 2.41352,-10.39952 1.68061,-14.65251 -1.31971,-7.65831 -6.54868,-13.27996 -14.66042,-15.76138 -2.25348,-0.68934 -2.40442,-0.68429 -6.29885,0.21113 -7.67806,1.76534 -12.75081,5.22054 -16.06098,10.9396 -3.66502,6.33216 -3.50104,14.54334 0.41135,20.59656 2.65499,4.10779 6.08086,6.62831 11.05002,8.12985 2.27693,0.68803 8.33895,0.49141 11.17538,-0.36244 z M 115.95568,212.22556 c 1.36962,-0.47744 2.43845,-2.79585 2.50231,-5.42777 0.12172,-5.01698 -0.92187,-24.72967 -1.43065,-27.0241 -1.63046,-7.35277 -3.13265,-11.12686 -6.86725,-17.2533 -3.73295,-6.12371 -6.29796,-9.43271 -10.02661,-12.93485 -7.176078,-6.74018 -13.510431,-10.14743 -23.182655,-12.46997 -8.552037,-2.05355 -26.04446,-3.19011 -32.510205,-2.11233 -2.985898,0.49771 -10.372402,2.69173 -11.175382,3.31943 -0.223508,0.17471 -1.993693,0.9716 -3.933744,1.77085 -1.940052,0.79926 -4.50023,2.03103 -5.689286,2.73726 -1.189057,0.70624 -3.25914,1.93535 -4.600186,2.73135 -2.886332,1.71323 -5.486097,3.72138 -5.486097,4.23766 0,0.5793 5.437481,7.58096 5.904648,7.60319 0.230203,0.0114 1.012015,-0.60925 1.737361,-1.37825 0.725344,-0.76901 1.725651,-1.52476 2.222903,-1.67943 0.497252,-0.15468 1.616398,-0.92053 2.486993,-1.70188 1.819351,-1.63285 5.838368,-3.56796 8.187264,-3.94209 0.884624,-0.14089 2.797063,-0.44001 4.249863,-0.66472 1.4528,-0.22468 4.195848,-0.70281 6.095663,-1.06248 3.790566,-0.71763 12.147404,-0.91469 17.212889,-0.4059 8.427944,0.84655 19.37851,4.72918 26.066322,9.24208 0.894031,0.6033 2.53986,1.56302 3.657398,2.13274 1.117539,0.56972 2.679072,1.64582 3.470076,2.39134 1.730897,1.63136 6.678305,7.59674 8.269685,9.97123 2.2341,3.33348 3.46708,9.49796 4.2337,21.16708 0.39908,6.07453 -0.0791,12.70255 -1.41466,19.60858 -0.17989,0.93017 -0.0252,1.07726 1.56107,1.48452 1.93383,0.49651 6.5963,0.30896 8.45858,-0.34024 z m 74.17129,-54.59666 c 6.48172,-0.33018 14.528,-0.79081 17.88062,-1.02362 7.24077,-0.50283 16.39394,-1.10863 24.78903,-1.64064 3.35261,-0.21246 6.90148,-0.52345 7.88636,-0.69111 l 1.7907,-0.30482 -0.0847,-3.45421 c -0.0918,-3.74536 -0.7059,-10.43872 -1.10282,-12.02015 -0.13582,-0.54117 -0.47677,-0.98393 -0.75765,-0.98393 -0.2809,0 -0.97568,-0.36574 -1.54396,-0.81276 -0.56829,-0.44701 -1.40542,-0.81275 -1.86028,-0.81275 -0.45486,0 -1.43179,-0.3448 -2.17097,-0.76623 -2.07706,-1.18418 -8.74048,-2.41552 -16.78631,-3.10196 -4.02314,-0.34324 -8.68632,-0.79793 -10.36263,-1.01042 -1.67631,-0.21249 -6.15662,-0.67591 -9.95625,-1.02983 -3.79963,-0.3539 -7.18273,-0.72128 -7.51799,-0.81637 -0.5818,-0.16504 -8.3079,-1.37009 -19.70931,-3.07408 -4.77887,-0.71422 -10.80291,-1.25904 -19.9125,-1.80088 -1.78806,-0.10629 -3.76087,-0.27978 -4.38402,-0.3854 -0.76754,-0.13009 -1.20875,0.005 -1.36783,0.41992 -0.45988,1.19844 0.71974,18.19693 1.48609,21.41472 1.10077,4.62193 2.79301,6.54531 7.87213,8.94736 7.25579,3.43144 14.53888,4.03081 35.81225,2.94716 z m 15.71347,-32.10662 c 0.14911,-1.11754 0.4062,-7.15673 0.57128,-13.42042 0.42138,-15.987924 -0.14188,-18.546167 -4.19213,-19.040007 -5.18433,-0.632114 -8.054,-0.68534 -9.02796,-0.167446 -1.85882,0.988416 -2.09959,2.933583 -2.29135,18.512083 l -0.17639,14.33064 0.92067,0.39994 c 0.99799,0.43354 10.71847,1.55895 12.70563,1.47103 1.14587,-0.0507 1.23542,-0.17605 1.49025,-2.08582 z m -71.70678,-4.91089 5.77607,-0.27149 -0.22438,-1.87896 c -0.12344,-1.03343 -0.50508,-2.88475 -0.84815,-4.11404 -0.34309,-1.2293 -0.8544,-3.24086 -1.13626,-4.47016 -1.2124,-5.28772 -5.04714,-19.862273 -5.66691,-21.538007 -1.66655,-4.506077 -3.14081,-8.929561 -3.72454,-11.175382 -0.76812,-2.95527 -3.01858,-7.924011 -3.92648,-8.669151 -0.36294,-0.297881 -1.99445,-0.823307 -3.62557,-1.167616 -3.08818,-0.651874 -10.7774,-0.476241 -32.139768,0.734118 -4.199848,0.237956 -10.341148,0.30745 -13.647335,0.154429 l -6.011246,-0.278218 -0.476333,4.003652 c -0.91189,7.664585 -1.535443,17.965784 -1.89047,31.230945 -0.100363,3.75002 -0.967933,14.31083 -1.256364,15.29359 -0.315695,1.07565 1.241038,1.22258 14.469713,1.36572 6.822577,0.0738 13.080617,0.26104 13.906757,0.41602 1.661219,0.31165 30.435796,0.9825 33.019676,0.76982 0.89403,-0.0736 4.22474,-0.25596 7.40159,-0.40527 z m -90.912172,-0.5307 c 1.899815,-0.22042 6.82613,-0.50287 10.947368,-0.62765 4.713988,-0.14274 7.594307,-0.39055 7.765875,-0.66815 0.590484,-0.95542 1.200844,-7.54803 1.596022,-17.23889 0.775526,-19.018077 1.24958,-28.849088 1.49717,-31.048605 l 0.247174,-2.195803 -9.096511,0.251798 c -5.003082,0.138488 -10.285166,0.442814 -11.737966,0.676281 -1.452799,0.233466 -3.555803,0.523292 -4.673342,0.644059 -1.117538,0.12077 -2.192526,0.380006 -2.388862,0.576087 -0.196335,0.196082 -0.515137,2.152582 -0.708448,4.347779 -0.193312,2.195195 -0.541859,5.819964 -0.77455,8.05504 -0.23269,2.235077 -0.595796,7.721174 -0.806903,12.191327 -0.211107,4.470153 -0.579401,9.956247 -0.818433,12.191327 -0.598287,5.59431 -1.056613,12.64559 -0.860244,13.2347 0.17204,0.51611 2.961885,0.40542 9.81165,-0.3893 z m -6.70523,-52.934616 c 0.670523,-0.03703 6.248055,-0.421332 12.394515,-0.854016 7.600828,-0.535066 16.244753,-0.812458 27.024108,-0.867232 8.7168,-0.04429 20.694778,-0.295164 26.617729,-0.557494 5.92295,-0.262329 14.42641,-0.574727 18.89656,-0.694216 9.58614,-0.256241 14.29668,-0.826267 14.78715,-1.789402 0.58947,-1.15754 0.24579,-11.410363 -0.40298,-12.022054 -0.46924,-0.442416 -1.76183,-0.432101 -7.47576,0.05966 -8.66247,0.74552 -12.52238,0.873714 -33.932519,1.126958 -9.499075,0.112363 -20.379836,0.39116 -24.179466,0.619561 -8.585368,0.51608 -17.09222,0.794918 -25.804975,0.84584 -6.443555,0.03765 -14.531666,0.496578 -18.208535,1.033151 -1.149724,0.167782 -1.940587,0.552112 -2.305014,1.120155 -0.78272,1.220049 -1.681489,10.150823 -1.140943,11.33719 0.409904,0.899642 0.534996,0.91538 6.464494,0.813307 3.325577,-0.05725 6.595113,-0.13438 7.265636,-0.171404 z M 146.62467,204.5305 c -0.14909,-0.24122 -0.1554,-1.56703 -0.014,-2.94624 0.14138,-1.37921 0.42527,-6.30182 0.63088,-10.93915 0.39074,-8.81264 0.76026,-10.58058 2.25149,-10.77217 1.69636,-0.21792 1.88555,0.32608 1.46131,4.20188 -0.21814,1.99278 -0.61388,7.28063 -0.87944,11.75078 -0.26557,4.47015 -0.66552,8.35614 -0.8888,8.63552 -0.49808,0.62323 -2.19078,0.66909 -2.56142,0.0693 z m -11.34124,-0.34598 c -0.12856,-0.208 0.0597,-5.46551 0.41826,-11.68336 0.70047,-12.14561 0.74219,-12.3211 2.92881,-12.3211 0.97043,0 0.97325,0.0133 0.75364,3.55581 -1.07231,17.29753 -1.32469,19.61839 -2.20951,20.31887 -0.75966,0.60141 -1.56554,0.65671 -1.8912,0.12978 z m 21.45069,-2.16166 c 0.13503,-1.39693 0.44161,-6.38013 0.6813,-11.07379 0.23969,-4.69366 0.52236,-8.94012 0.62816,-9.43656 0.25632,-1.20276 1.56895,-1.89551 2.57322,-1.35804 1.11761,0.59814 1.25712,1.28765 0.84674,4.18544 -0.20271,1.43136 -0.65311,6.33846 -1.00091,10.90466 -0.34778,4.56621 -0.71318,8.53079 -0.81199,8.81017 -0.0996,0.28145 -0.84463,0.50798 -1.67085,0.50798 h -1.4912 z"
       id="path1"
       sodipodi:nodetypes="csssssssssssssssssssssssssssssssssssssssssscscssssssscsssscsccssssscsssssssssssssssssssscscssssssscssssssssscssssssssssccssssssscscssssssssssccssssssssssssssssssscsssssssscssssssssssssscssssscssssssccsssssssssccsscsssssssssssssssssssssssssssssscssssssssssssssssssscssssssssssscscssssssssscssssccsssssssscsssssssssssscssssssssssssssssssssssssssscssssssccsssssssssssssscs" />
    <path
       style="fill:#000000;fill-opacity:1;stroke:none;stroke-width:6.42195"
       d="m 41.404821,246.01871 c -3.364295,-0.90566 -6.988934,-1.98662 -8.054752,-2.40216 -8.889747,-3.46579 -18.641744,-15.31021 -22.987694,-27.92002 -5.2360712,-15.19248 -2.9798368,-33.44789 5.97694,-48.35997 4.844357,-8.06535 7.698969,-10.72096 14.337597,-13.33813 9.313315,-3.67161 13.800877,-4.51222 23.981198,-4.49214 10.321088,0.0203 16.441853,1.32268 23.991294,5.10464 14.864025,7.44623 22.274286,15.98145 24.299526,27.98846 1.12091,6.64552 0.48769,24.70523 -1.04121,29.69583 -3.963832,12.93858 -15.41273,24.77644 -29.041684,30.02835 -11.78696,4.54211 -12.416999,4.71005 -18.848951,5.02437 -5.413657,0.26455 -7.514038,0.0432 -12.612264,-1.32923 z m 26.16675,-23.65581 c 2.42977,-1.36734 5.70476,-3.5931 7.277755,-4.94611 3.417704,-2.93972 6.691592,-9.26524 7.751407,-14.97658 0.967367,-5.21314 0.324902,-13.8488 -1.304171,-17.52998 -1.939882,-4.38349 -7.637522,-10.7899 -11.400293,-12.81845 -3.932693,-2.12015 -11.858785,-4.65385 -14.558502,-4.65385 -3.636379,0 -10.749124,2.71601 -14.147417,5.40221 -4.466328,3.53043 -9.938532,11.82077 -11.759294,17.81523 -4.213293,13.87136 2.585049,27.77164 16.279979,33.28701 2.538408,1.02231 4.591857,1.23979 10.306387,1.09164 6.797345,-0.17622 7.34627,-0.30313 11.554149,-2.67112 z"
       id="path10" />
    <g
       id="command_group9"
       inkscape:label="Ink/Stitch Command: Trim thread after sewing this object">
      <path
         id="command_connector9"
         d="m 54.511625,119.55018 0.394354,29.95685"
         style="fill:none;stroke:#000000;stroke-width:1px;stroke-opacity:0.5"
         inkscape:connection-start="#command_use731"
         inkscape:connection-end="#path10"
         inkscape:label="connector"
         inkscape:connector-type="polyline"
         inkscape:connector-curvature="0" />
      <use
         id="command_use731"
         xlink:href="#inkstitch_trim"
         height="100%"
         width="100%"
         x="54.50904549994781"
         y="119.51433273693785"
         inkscape:label="command marker" />
    </g>
    <path
       style="fill:#000000;fill-opacity:1;stroke:none;stroke-width:6.42195"
       d="m 205.20188,246.40955 c -2.24286,-0.66697 -5.73854,-2.11634 -7.76815,-3.22082 -11.31163,-6.15558 -19.19853,-26.52446 -15.3232,-39.57408 2.47937,-8.349 13.28511,-20.88231 22.2541,-25.81197 5.22183,-2.87011 5.29979,-2.88851 12.22166,-2.88377 8.10585,0.005 16.64366,1.79251 21.69195,4.54013 5.58805,3.0414 13.80942,11.22832 16.24622,16.17813 2.73794,5.56157 3.33672,12.92345 1.73097,21.28207 -1.2305,6.40526 -2.86309,9.536 -8.41658,16.14 -7.84119,9.32445 -17.67861,13.85305 -31.08282,14.30879 -5.77276,0.19626 -8.40539,-0.0221 -11.55415,-0.95848 z m 24.02241,-14.04136 c 4.64354,-1.44903 8.99283,-5.42319 11.01365,-10.06365 1.26695,-2.90937 1.55777,-4.84468 1.6062,-10.68899 0.0537,-6.47799 -0.11353,-7.48811 -1.81317,-10.9489 -4.89648,-9.9705 -14.36615,-14.40808 -25.29875,-11.85525 -5.96536,1.39294 -9.55278,3.48461 -13.49307,7.86713 -7.72968,8.59728 -7.90788,21.60109 -0.4127,30.11606 2.84568,3.23289 6.17875,5.60046 9.31247,6.61494 2.8049,0.90802 14.96456,0.24457 19.08537,-1.04134 z"
       id="path11" />
    <g
       id="command_group10"
       inkscape:label="Ink/Stitch Command: Trim thread after sewing this object">
      <path
         id="command_connector10"
         d="m 211.72878,145.03 3.34163,29.88961"
         style="fill:none;stroke:#000000;stroke-width:1px;stroke-opacity:0.5"
         inkscape:connection-start="#command_use1606"
         inkscape:connection-end="#path11"
         inkscape:label="connector"
         inkscape:connector-type="polyline"
         inkscape:connector-curvature="0" />
      <use
         id="command_use1606"
         xlink:href="#inkstitch_trim"
         height="100%"
         width="100%"
         x="211.7261922561499"
         y="144.9941540171859"
         inkscape:label="command marker" />
    </g>
    <path
       id="path6"
       style="stroke:#000000;stroke-width:1px;fill:none"
       d="M47.15532138980289,249.73492837926418 44.3178242844607,249.36951788269798 41.75552774400444,248.89855554602752 39.327722360735024,248.29530037827766 36.90577647847488,247.53100059107442 30.577152205325664,245.2739692039369 28.5252978911645,244.30045490537228 26.828644517463243,243.0098279152707 24.64846422768546,241.05880156059345 22.346628439590866,238.77297529773608 20.22564441130684,236.43613411079883 16.463051431342855,232.0851889015534 15.378453621700544,230.7180576855198 14.222687327181854,228.98081771801526 11.813023521494094,224.6453472997955 9.670925988302955,219.9177431452092 8.181294564324796,215.5691806721406 6.85246850046863,210.1166119829986 6.041008362295952,205.5563944898295 5.682578648032863,201.43230649008984 5.709872656109699,197.242040368387 6.059897212038185,192.72377395177529 6.692990926991472,188.32436747940613 7.611307916998392,184.03872444730047 8.817513633371114,179.85648454893436 10.314841826969626,175.76755879711223 12.106790154913725,171.76166312441737 14.197221129135402,167.8288917422265 16.605975020618256,163.9340773185234 18.119219280555885,161.53181985037222 19.055593511334212,159.6932588809247 17.984447407922875,158.01060723038867 16.285652555737986,155.9165456888337 14.112409138834185,153.27852903223305 12.944228889643709,151.53567356968887 12.555846951541836,150.44652865154893 12.613505349981644,149.56514949915132 12.811838118537933,149.0485850591332 13.255010363518796,148.46328803024778 14.18498562552931,147.63343120733424 15.765259457429105,146.45017293076845 18.723438854946956,144.47245574168994 21.35530448724517,142.93777428781712 26.266483323546133,140.27277328077366 29.600302740247713,138.1322050252107 30.46540862777123,137.22937004561973 30.926949010820955,135.71054492333585 31.180055488701345,133.12092487349247 31.4352228059273,128.58465048504382 32.67007247161874,109.29034935838419 33.919174114450335,91.82311830271215 34.92617493042814,78.63996186772633 35.24042909391831,73.39039006422888 35.15389024257166,70.36721883494717 34.098983700724446,69.38819868119462 32.57220778411016,69.0091649423898 26.53957001696489,68.73749243753831 23.000261310267675,68.57772958104809 21.856420418549057,68.41623038413226 21.812528815946788,68.24422619074598 21.669633210769444,66.26677727419386 21.735599034273857,63.497667815468134 21.982215413062328,60.360012119269314 22.370246569991256,57.26508817623561 22.85445918238238,54.62628413921912 23.37019448696898,52.877130391981396 23.40288084840939,52.81751611684675 30.733474498636138,52.514247117492445 36.334049235075476,52.00841464420759 40.28419049177772,51.718154664296506 44.7708614487672,51.728550560900004 49.32299531657905,51.7552484069289 53.38088017326296,51.523022796154166 58.09902701255633,51.196959432786045 64.3121883647839,50.990567581441326 95.81019298667754,50.33677371250889 112.28033099845842,49.79825259022169 119.40110217660757,49.449903935505716 125.52870221039221,49.14948417221852 131.9592736249454,48.598306673838096 137.61655655391343,48.08874928924658 138.2818704327178,48.16571559333369 138.47747258974007,48.29019579866957 138.8852403633736,48.81773878240088 139.1354955335695,49.6657781348284 139.19434781396876,51.154714516434694 139.00754777545598,53.48531394981694 138.84391893179188,56.56518150909592 138.97443450810118,59.32638227920805 139.11567344706512,60.628543468192305 139.0911031100831,61.35736203978536 138.91354007605298,61.941957424371125 138.47902719714003,62.76006238691889 137.8436599415873,63.69210187525664 137.36030898562194,64.16704375518468 137.22192244669196,64.22946411061923 136.88755039740587,64.16106461562639 135.35474599436688,64.15541643078213 132.65500536658084,64.44740323836771 129.92017604203255,64.8704041812337 127.828014254519,65.40373337272003 127.37104747164413,66.50521288201499 127.54527049878394,67.50639988865962 128.40501530307876,69.51632804331055 129.57100275100902,72.31459952277795 130.67326006490651,75.67398188685343 133.55719338228485,84.95593105097139 136.1276888395492,93.70580111418951 139.59425198125652,107.46665817339625 140.7267651078113,111.70809404963983 141.98504449958932,115.76312326927085 143.14998653053928,118.965683297031 144.1268500941735,120.84700408272593 145.1079993022199,121.3904803334806 146.27300298025355,121.69305784909581 149.62002481260248,122.04294902711467 152.72896268023675,122.35004856998358 156.25713385382033,122.69855979815917 164.53922901727688,123.5627358311829 172.64010863580222,124.40486857416838 182.23239475743674,125.86979741838788 186.81026931833912,126.40365854435136 187.8398656093674,126.33964219465012 188.81485230742805,125.76265928699642 189.13543115237604,124.68699460232659 189.18785231373408,123.5695715837127 189.29899551080308,109.22619155043529 189.41475844974173,101.12318432021715 189.71342221002075,96.28933248965299 189.95340435988092,94.83879818017718 190.25662307252782,93.84108330448993 190.6226275361572,93.14076069277199 191.05490923871616,92.59826946124058 191.94638807912182,91.93218066691486 193.1584890906709,91.40531771544943 194.89867122988815,90.82852181712774 195.72330789052876,90.21876784467607 196.28266397943253,89.33313358399124 196.60528236536425,88.24379244024358 196.81338575703063,86.88054071464718 197.16362159202532,82.81375104639736 198.18492609414247,71.6405503250881 198.6365246497065,68.9643467752893 199.16628118909549,67.21111597279015 199.97247710830655,65.34614746713328 199.97725767876287,65.33508860026521 200.77671906615268,64.08783175291053 201.92418830705256,62.9912178328438  M46.86567861019711,251.98407162073582 43.967775715539304,251.610882117302 41.276672255995564,251.11624445397246 38.712477639264975,250.47909962172236 36.18342352152513,249.68099940892557 29.708047794674343,247.3716307960631 27.34010210883551,246.24814509462774 25.383755482536756,244.75997208472927 23.09233577231454,242.70939843940653 20.70697156040913,240.34062470226394 18.528155588693153,237.94006588920115 14.71634856865714,233.53221109844657 13.542946378299462,232.05314231448023 12.284512672818153,230.16158228198475 9.785776478505909,225.66585270020448 7.560674011697046,220.7550568547908 6.002505435675204,216.20641932785944 4.632331499531375,210.58418801700142 3.790591637704054,205.85380551017047 3.414221351967143,201.52329350991016 3.442727343890297,197.14695963161302 3.8047027879618156,192.4744260482247 4.45940907300853,187.92483252059384 5.410492083001614,183.4862755526995 6.66068636662888,179.15151545106562 8.212558173030374,174.91364120288776 10.068209845086272,170.76533687558262 12.2295788708646,166.69910825777353 14.682224979381644,162.73332268147672 16.14538071944412,160.4105801496278 16.447006488665792,159.81834111907528 16.141352592077126,159.3381927696113 14.529947444262021,157.35185431116628 12.290990861165824,154.63407096776695 10.903171110356297,152.56352643031113 10.262353048458166,150.7664713484511 10.37309465001836,149.0736505008487 10.809961881462073,147.9358149408668 11.5803896364812,146.9183119697522 12.747814374470693,145.87656879266575 14.454540542570896,144.59862706923158 17.520961145053036,142.54854425831007 20.24309551275482,140.96122571218288 25.111516676453874,138.31942671922633 28.14889725975229,136.36919497478928 28.453191372228773,136.05162995438027 28.691850989179045,135.26625507666418 28.91854451129865,132.9468751265075 29.171577194072697,128.4485495149562 30.40752752838125,109.13705064161582 31.65762588554962,91.6558816972886 32.66362506957185,78.48583813227367 32.9707709060817,73.35500993577111 32.915695524177494,71.43099190891336 32.24479221588983,71.26443505761019 26.437370194839346,71.00290486364852 22.790138689732316,70.83827041895191 20.452418041110263,70.50820702455904 19.812759486549822,69.57904101208128 19.565271184053216,68.60917380925402 19.39996678923056,66.32162272580615 19.470000965726143,63.38173218453186 19.72558458693767,60.12998788073068 20.128153430008737,56.919111823764396 20.645540817617615,54.09951586078088 21.264205513031015,52.0012696080186 21.755159739656364,51.10585393448389 22.551891421571312,50.58306551853568 30.584525501363856,50.250752882507555 36.148950764924535,49.748185355792415 40.20360950822227,49.4502453357035 44.780138551232795,49.4608494391 49.26480468342095,49.4871515930711 53.23791982673703,49.25977720384583 57.98317298744368,48.93184056721395 64.25101163521609,48.72363241855869 95.74960701332246,48.069826287491104 112.18786900154157,47.53234740977831 119.29023724407001,47.184899028039226 125.37629778960779,46.88651582778148 131.76072637505462,46.339293326161915 137.64544344608657,45.80925071075341 139.05992956728218,45.97288440666632 140.02932741025992,46.58980420133043 140.93975963662638,47.76766121759912 141.3903044664305,49.29442186517159 141.46565218603126,51.2006854835653 141.27045222454404,53.636086050183046 141.1144810682081,56.57181849090408 141.23636549189882,59.15041772079196 141.38752655293487,60.544056531807705 141.3474968899169,61.731437960214656 141.019459923947,62.811442575628874 140.42317280285997,63.93413761308111 139.5919400584127,65.1534981247434 138.66129101437804,66.06795624481533 137.48587755330806,66.59813588938076 136.65384960259414,66.42793538437361 135.47285400563314,66.42358356921788 132.95039463341914,66.69639676163229 130.37462395796746,67.09479581876631 129.88866468191347,67.2186754677208 130.49418469692125,68.63427195668945 131.698197248991,71.52380047722205 132.83353993509348,74.98401811314656 135.72800661771512,84.2998689490286 138.3159111604508,93.10899888581048 141.78934801874348,106.89714182660374 142.90603489218867,111.07930595036017 144.13475550041068,115.03907673072915 145.23061346946074,118.051716702969 145.82414990582652,119.19479591727406 145.95580069778012,119.2677196665194 146.67819701974642,119.4553421509042 149.84937518739753,119.78685097288533 153.05239477585675,120.10324386759588 156.48626614617967,120.44244020184082 164.77435512006915,121.30724164512856 172.9286913641978,122.15493142583162 182.53500524256327,123.62200258161214 186.8717306816609,124.12774145564863 186.89151430906404,124.12651138555103 186.92054768626593,123.5076284162873 187.03140448919692,109.20120844956472 187.14804155025826,101.03701567978285 187.45717778997923,96.03366751034702 187.7403956401191,94.32180181982281 188.14857692747216,92.97871669551006 188.7135724638428,91.897639307228 189.46349076128382,90.95653053875942 190.8004119208782,89.95761933308515 192.34811090932908,89.28488228455058 193.84152877011186,88.78987818287227 194.03309210947123,88.64823215532392 194.1975360205675,88.38786641600876 194.38691763463578,87.74840755975642 194.5604142429694,86.61185928535282 194.90477840797467,82.61324895360264 195.93447390585752,71.3482496749119 196.42427535029347,68.4456532247107 197.03311881090454,66.43068402720984 197.9200838244148,64.3788728279731 197.96874232123716,64.2663113997348 199.0138809338473,62.63576824708948 200.35741169294747,61.3517821671562  M19.475243102561205,234.70167970206666 16.90230407081847,236.92669561772078  M7.5665446174180016,210.6523140713841 4.261696454745435,211.45772682746573  M8.263524881482262,183.82313011991198 4.995167946539393,182.8804986798517  M26.21596283808964,140.944581211451 24.518092708372347,137.99704866564372  M33.70955840450303,102.70243814078809 30.316647953049173,102.45980723922254  M26.92877060394028,68.18751589449853 26.775614497790926,71.58564100890037  M22.752918177234964,58.77012148718176 19.37776745060265,58.346956438421024  M88.4189671127514,51.05724223852704 88.34837693255261,47.65639997337583  M99.63100956299152,50.7790772626992 99.5198482918199,47.37931929222972  M138.56238358482025,51.94343736839405 141.9530845552775,52.21520567949661  M135.20710452919593,92.58352389284236 138.47076035589748,91.62474251483356  M160.26821163223417,123.68709338527584 160.62122458040358,120.30388589172715  M189.96406632701277,102.36066101421362 186.56283861249344,102.31206965732038  M198.68374451400092,72.4115467964213 195.296291654835,72.10191118330846  "
       inkstitch:satin_column="true" />
    <path
       id="path14"
       style="stroke:#000000;stroke-width:1px;fill:none"
       d="M201.78565063985826,63.10413187667119 203.59138002531503,61.855594507587504 206.14424073966723,60.374501379260806 208.32500656609255,59.42116573426378 210.10290341173499,58.98079925431111 211.4537621248241,58.99778819205212 212.44254378422903,59.382030871309055 213.2328843359608,60.151395971407055 213.88276577573913,61.44845987191606 214.34217899042957,63.38278302979618 214.49829895522566,64.42361940431073 213.52412143429143,64.92058138646092 212.58512750160517,65.51972282361244 211.5991522651816,66.37891496955783 209.79405976523077,68.54624427827872 207.45340710702854,71.85091474226535 207.03323340628012,72.74698940688968 206.63274896366903,74.10264527334913 205.9050801383004,77.67268724616444 205.333014134003,81.8352871375268 205.0719487642899,85.66176828385566 204.99946004471812,90.27379325852174 206.91619989765073,92.35315138259557 207.7209945103864,93.35647694492415 208.31080024606212,94.47839280398476 208.76728304506253,96.03227598640271 209.0992548182964,98.28649893543219 209.30646054787817,101.45426169457188 209.40107315007197,105.73253458790934 209.33134929405418,118.47691671157732 209.31578439624445,124.86344532964236 209.46290062571154,128.40705460980965 210.88250093320048,129.10866680672444 213.06473408990598,129.47652833693255 223.4630909767839,130.4721967831048 229.22993746532524,131.13218098742013 234.31062527775632,132.01323422932373 238.1782029130454,132.99919621961197 239.40819433827804,133.4606332181619 240.15587193080947,133.8893618889448 242.44779012771116,135.53683321865805 243.16146569833188,136.0872172638765 243.64605172143578,136.72828946800368 244.0728536357159,137.8086779997654 244.4427531433659,139.6066003442952 244.74470518320456,142.30336453783167 244.99288214330622,146.06439783952342 245.43524965341402,157.52932203819972 245.72748003218288,168.03584252078184 245.74251406063303,174.22471902198137 245.45988808837498,177.26693784865623 245.2673785689438,177.8586701895439 245.02732858615028,178.22161904703637 243.4751766661771,179.94366685709707 246.22741004391236,182.16206900003016 248.71553627097163,184.25586150569345 250.91464857808666,186.295246955831 252.84872562789275,188.30513764037124 254.53456204845273,190.3038527194285 255.9896213123189,192.31063443476393 257.23190045856705,194.34601955897259 258.27899910322003,196.43214153739433 259.15105813435014,198.59949737143285 259.7608888167329,200.45437929319326 260.0738721717688,202.06916804996058 260.1958660443073,204.30120762093222 260.19872648389224,207.94451992947918 260.00927688338976,213.47207180095484 259.5038755206658,217.03929571881278 259.0290709098224,219.33585911264908 258.83025945329547,220.96328011938448 258.7200124310565,221.6044270551188 258.40035411650325,222.5102826862556 257.0990416598953,225.18344675218452 255.19008545656737,228.39068083420813 252.91808502658637,231.67487209669645 250.91959693205277,234.24205562875642 248.99286768109425,236.48748976395004 247.09847729894096,238.4432972108487 245.1881143438156,240.15319595437776 243.21055682828617,241.66191972885548 241.11217553021612,243.01381263053634 238.83859401138963,244.25107977218636 236.34375767396807,245.41035374859226 231.09569615626947,247.45480980293343 228.74739639498634,248.159377092536 226.41084450698511,248.69178543318503 223.98382169760157,249.07113211714577 221.36338391391712,249.31622653186065 215.047566163214,249.4816563541995 208.59101830776038,249.31406513308417 206.82480950898957,249.0575899588394 205.17597320255393,248.6160488736706 201.22865071978578,247.11243224090344 197.61564440733395,245.33078314834492 191.8610534179921,242.1446226289579 190.8429674349304,241.48361839569267 189.79308422562252,240.54689838847614 187.4535056901435,237.74900241681607 185.0884747158537,234.08715082887207 182.85411878013372,229.8481216858461 180.90793761213084,225.3373053503827 179.40010897919552,220.85929783999956 178.46970310591377,216.70329049715227 178.26886478680825,214.88946063343232 178.2464478915932,212.0472257379434 171.9099706929913,212.19046959966897 167.20725553583705,212.01718072932186 161.13794912391646,211.97678233247458 155.62636388472154,212.0635480043329 152.5956582639589,212.2697314735642 150.21570083780543,212.39904516132165 146.40302268748724,212.26324140366845 139.88562291502768,212.0695440376761 131.08269916538575,212.0683407264228 120.33128104677482,212.20827151888864 118.51123880627195,213.44487792870547 116.66189768610839,214.50619746875685 114.81098395997161,215.14949185555366 112.68439250599752,215.45866051673906 110.06104626445766,215.46246122845125 107.45774135172212,215.20669263636447 106.1818106289294,214.85464651295746 105.51409159001824,214.5094652590093 104.38204237442277,214.55310762493534 103.45113705029812,215.27540822385083 103.2272279402854,216.08801656502865 102.73114728050909,217.49541508421487 101.41326583487748,220.0340526830493 99.59914506332845,223.09700975010517 97.67452462299133,225.99192577770788 95.20697249773194,229.16415695457766 92.52035717252558,232.13768665880627 89.81340237906832,234.70969319839634 87.27073542758394,236.694540047744 81.37280352160788,240.56416577278736 77.79067696928664,242.56292086334938 74.19694135233193,244.5847425930972 72.85048098871235,245.40036478353124 72.12556752517727,245.69486087809238 67.83917084148774,246.87248138274617 61.61992134313948,248.61358120796967 56.415878004650956,249.61959211556294 54.06645635329231,249.86928816974728 51.7875185116269,249.9660246341363 48.99128385668235,249.82452545779543 47.06780384026041,249.7271906945807  M200.49594936014176,61.238868123328814 202.37561997468495,59.9392054924125 205.11775926033278,58.3482986207392 207.59299343390745,57.266234265736216 209.840296588265,56.70960074568889 211.89263787517592,56.735411807947884 213.69385621577095,57.43536912869095 215.0889156640392,58.793404028592946 216.02823422426087,60.66814012808395 216.57062100957043,62.95181697020382 216.98310104477434,65.70178059568929 214.65187856570856,66.89101861353907 213.94747249839483,67.34047717638755 213.22564773481838,67.96948503044217 211.59334023476924,69.92935572172127 209.42079289297143,72.99668525773465 209.1593665937199,73.55421059311031 208.835251036331,74.65135472665087 208.1417198616996,78.05391275383555 207.590185865997,82.0671128624732 207.33845123571007,85.75683171614433 207.28113995528187,89.40320674147826 208.63640010234926,90.87344861740442 209.6266054896136,92.10792305507586 210.42299975393786,93.62280719601524 210.98771695493747,95.5451240135973 211.3561451817036,98.04690106456782 211.57253945212184,101.35513830542813 211.66892684992803,105.71366541209066 211.59905070594584,118.48588328842267 211.58361560375556,124.81915467035765 211.67174750661945,126.94200019187804 213.36166591009422,127.22687166306747 223.70010902321613,128.21680321689522 229.55286253467477,128.88661901257987 234.78517472224368,129.7939657706763 238.85859708695463,130.832403780388 240.376805661722,131.4019667818381 241.38492806919052,131.9800381110552 243.80240987228885,133.71776678134194 244.78713430166812,134.47718273612347 245.64154827856422,135.60751053199633 246.25434636428412,137.1587220002346 246.68484685663407,139.2511996557048 247.00409481679546,142.10243546216833 247.2577178566938,145.94600216047658 247.70175034658598,157.4540779618003 247.99511996781712,168.00155747921815 248.01048593936696,174.32708097801864 247.69451191162503,177.72826215134378 247.3286214310562,178.8529298104561 246.82527141384972,179.6139809529636 246.76402333382285,179.68193314290292 247.66918995608762,180.41153099996984 250.21746372902837,182.55593849430656 252.50395142191337,184.67635304416902 254.53427437210723,186.78626235962878 256.3216379515471,188.90534728057125 257.878378687681,191.05236556523582 259.21649954143294,193.24478044102742 260.34780089678,195.49865846260565 261.28234186564987,197.82130262856714 261.95991118326714,199.88222070680672 262.32972782823117,201.7902319500394 262.4635339556927,204.2383923790678 262.4664735161078,207.98248007052084 262.27152311661024,213.67052819904518 261.73912447933424,217.42830428118722 261.26872909017766,219.70354088735093 261.07454054670455,221.2931198806155 260.92238756894346,222.1779729448812 260.49584588349677,223.38671731374438 259.09635834010464,226.26155324781547 257.09911454343245,229.61711916579216 254.74671497341365,233.01752790330357 252.67580306794721,235.6777443712436 250.66933231890573,238.01611023604997 248.67112270105906,240.0791027891513 246.6342856561844,241.90220404562226 244.51444317171385,243.51948027114452 242.26982446978388,244.96558736946366 239.85940598861035,246.27732022781362 237.23404232603195,247.49724625140774 231.83430384373054,249.6007901970666 229.32580360501365,250.35342290746402 226.83835549301486,250.920214566815 224.26477830239844,251.32246788285423 221.49881608608285,251.58117346813935 215.047833836786,251.75014364580053 208.3979816922396,251.5775348669158 206.36699049101043,251.28261004116058 204.4772267974461,250.77655112632942 200.32154928021424,249.19356775909654 196.56435559266606,247.3408168516551 190.69294658200786,244.0899773710421 189.46263256506964,243.29118160430735 188.1597157743775,242.12870161152384 185.62429430985654,239.09659758318392 183.1291252841463,235.23324917112794 180.80688121986628,230.82747831415386 178.78866238786915,226.14969464961732 177.21309102080448,221.47050216000042 176.22949689408625,217.0769095028477 176.00213521319176,215.0235393665677 175.99695210840682,214.36637426205658 171.89382930700873,214.45913040033105 167.15794446416297,214.28461927067815 161.14825087608355,214.24461766752543 155.72123611527846,214.3300519956671 152.73414173604107,214.5332685264358 150.2368991621946,214.66895483867833 146.3289773125128,214.52975859633156 139.8517770849723,214.33725596232387 131.09730083461426,214.3360592735772 121.04211895322518,214.46692848111138 119.71456119372804,215.36892207129455 117.6067023138916,216.57860253124312 115.3512160400284,217.36250814444634 112.85000749400248,217.72613948326094 109.95155373554233,217.73033877154873 107.04225864827788,217.44450736363555 105.3505893710706,216.97775348704255 105.32309047164746,216.96353777050322 104.81705271949092,218.39918491578516 103.39673416512252,221.13514731695068 101.52025493667156,224.30339024989482 99.51627537700867,227.3176742222921 96.94562750226807,230.62244304542236 94.14504282747443,233.72211334119373 91.29559762093169,236.42950680160368 88.59266457241607,238.53945995225598 82.54879647839213,242.50483422721265 78.89912303071335,244.54127913665062 75.34065864766806,246.5432574069028 73.87111901128765,247.43343521646875 72.85523247482271,247.8461391219076 68.44522915851226,249.05771861725384 62.14167865686053,250.8224187920303 56.751521995349044,251.86440788443704 54.23454364670769,252.1319118302527 51.778281488373096,252.23617536586372 45.876641734999694,251.93753191593504 45.876641735,250.8595  M205.13144925779488,79.13796434218675 208.50134926562185,79.60108962029959  M208.75195982565367,102.02252805146148 212.15270314071188,101.94732172815011  M232.0964702234678,132.20466301445396 232.67767064603765,128.8531085758712  M244.79504602301412,155.64118597345868 248.19409158111088,155.51003575438864  M258.2274517265369,197.82281458217022 261.38315914054664,196.55308161688055  M259.63068071874784,206.5224990355006 263.0322544653585,206.51982838984318  M248.84751206525968,235.78629190230333 251.42689192739502,238.00383798137136  M233.80572947278677,245.79064942436003 235.04047614619833,248.96020960496526  M220.47792280568845,248.77229578402077 220.5669894954144,252.1727043198824  M198.17232567683925,244.97334577369492 196.6280384332161,248.0041687634391  M185.18521054472077,233.05483242809154 182.17605754051627,234.64093119023286  M146.53400948185862,211.7006353858791 146.4281291621806,215.10056192095075  M117.43729369407282,213.4075500691236 119.13042022229988,216.3578099975694  M82.17960297649446,239.35676667295303 84.04559820356897,242.20084348248446  M69.99438595276067,245.69243413927126 70.89552552413201,248.97247355349907  "
       inkstitch:satin_column="true" />
    <g
       id="command_group1"
       inkscape:label="Ink/Stitch Command: Trim thread after sewing this object">
      <path
         id="command_connector1"
         d="m 112.30248,18.689169 4.58047,29.73175"
         style="fill:none;stroke:#000000;stroke-width:1px;stroke-opacity:0.5"
         inkscape:connection-start="#command_use8716"
         inkscape:connection-end="#path1"
         inkscape:label="connector"
         inkscape:connector-type="polyline"
         inkscape:connector-curvature="0" />
      <use
         id="command_use8716"
         xlink:href="#inkstitch_trim"
         height="100%"
         width="100%"
         x="112.29990065747997"
         y="18.653321839334208"
         inkscape:label="command marker" />
    </g>
    <path
       style="fill:#ffcc00;stroke-width:6.42195"
       d="m 176.15687,209.87005 c -0.2513,-0.25129 -12.55198,-0.40472 -27.33486,-0.34097 l -26.87797,0.11595 -0.009,-2.58293 c -0.0321,-8.97721 -1.48837,-29.0349 -2.34569,-32.30815 -1.93297,-7.38013 -6.59381,-16.13516 -12.50473,-23.48921 -2.96788,-3.69248 -11.455008,-10.54846 -15.756295,-12.72809 -8.426983,-4.27028 -24.067474,-7.12046 -39.073813,-7.12046 -6.996126,0 -8.98287,0.25519 -13.22825,1.69914 -2.747622,0.93453 -5.247953,1.69914 -5.556289,1.69914 -0.308338,0 -0.560613,-2.13015 -0.560613,-4.73367 0,-3.87262 0.223792,-4.85345 1.230299,-5.39211 0.676664,-0.36215 5.184454,-1.03022 10.017311,-1.4846 8.399054,-0.78969 38.806223,-0.37885 84.99862,1.14845 l 12.30873,0.40697 0.46775,9.61516 c 0.55415,11.39088 1.05983,13.97411 3.38778,17.30591 2.28396,3.26883 5.40055,5.32179 10.71096,7.05549 5.70385,1.86216 21.93812,2.34072 41.96416,1.23705 22.99101,-1.26708 38.21287,-1.82398 41.35985,-1.51319 l 2.88853,0.28528 v 9.40808 9.40809 l -4.24785,-1.97054 c -6.30041,-2.92268 -17.27692,-4.97577 -23.61805,-4.4176 -9.35916,0.82381 -18.87995,6.51155 -26.48092,15.81974 -5.31359,6.50706 -10.19348,15.41987 -10.26825,18.75431 -0.0575,2.56258 -0.83959,4.75438 -1.47118,4.12278 z M 148.90759,204.971 c 0.77609,-0.49366 2.26164,-14.99951 2.26164,-22.08412 0,-3.01526 -0.13196,-3.29036 -1.48347,-3.09251 -2.01062,0.29437 -2.37116,2.01076 -2.95183,14.05242 -0.54292,11.25864 -0.26596,12.67603 2.17366,11.12421 z m -11.06192,-1.23345 c 0.55025,-1.43394 1.75625,-15.21842 1.76361,-20.1578 0.004,-2.86912 -0.24309,-3.90801 -0.93046,-3.90801 -1.94841,0 -2.59479,2.17263 -3.17631,10.67647 -0.91775,13.42067 -0.87119,14.47079 0.64159,14.47079 0.70763,0 1.47334,-0.48666 1.70157,-1.08145 z m 22.15909,0.65914 c 0,-0.23229 0.4717,-5.59286 1.04821,-11.91242 0.57652,-6.31954 0.86431,-11.78762 0.63954,-12.15131 -0.76243,-1.23365 -3.07174,-0.68514 -3.65442,0.868 -0.31552,0.84107 -0.78544,5.96397 -1.04424,11.38424 -0.25879,5.42025 -0.62535,10.39023 -0.81458,11.0444 -0.27452,0.94903 0.0773,1.1894 1.74072,1.1894 1.14663,0 2.08477,-0.19004 2.08477,-0.42231 z"
       id="path2" />
    <g
       id="command_group2"
       inkscape:label="Ink/Stitch Command: Trim thread after sewing this object">
      <path
         id="command_connector2"
         d="m 137.85191,94.659443 -0.11515,29.976817"
         style="fill:none;stroke:#000000;stroke-width:1px;stroke-opacity:0.5"
         inkscape:connection-start="#command_use7210"
         inkscape:connection-end="#path2"
         inkscape:label="connector"
         inkscape:connector-type="polyline"
         inkscape:connector-curvature="0" />
      <use
         id="command_use7210"
         xlink:href="#inkstitch_trim"
         height="100%"
         width="100%"
         x="137.84933931590172"
         y="94.62359252536953"
         inkscape:label="command marker" />
    </g>
    <path
       style="fill:#ffcc00;stroke-width:6.42195"
       d="m 164.08269,157.14889 c -2.77134,-0.38019 -6.31747,-1.55208 -9.51518,-3.14447 -7.02107,-3.49634 -7.83426,-5.21631 -8.86718,-18.75488 -0.4238,-5.55478 -0.51358,-10.32495 -0.19953,-10.6004 0.88579,-0.77687 20.17671,1.04087 35.23347,3.31997 7.47621,1.13166 20.01586,2.68939 27.86589,3.46165 16.36894,1.61029 21.68584,2.42408 26.18109,4.00713 6.10492,2.14992 6.20344,2.29832 6.95758,10.48015 0.37031,4.01756 0.5217,7.45625 0.33641,7.64154 -0.7827,0.78272 -59.1542,4.42947 -68.47736,4.27814 -2.80358,-0.0455 -7.08542,-0.35548 -9.51519,-0.68883 z"
       id="path3" />
    <g
       id="command_group3"
       inkscape:label="Ink/Stitch Command: Trim thread after sewing this object">
      <path
         id="command_connector3"
         d="m 173.33284,96.727856 14.82682,32.287954"
         style="fill:none;stroke:#000000;stroke-width:1px;stroke-opacity:0.5"
         inkscape:connection-start="#command_use999"
         inkscape:connection-end="#path3"
         inkscape:label="connector"
         inkscape:connector-type="polyline"
         inkscape:connector-curvature="0" />
      <use
         id="command_use999"
         xlink:href="#inkstitch_trim"
         height="100%"
         width="100%"
         x="173.33026040140936"
         y="96.692005731544"
         inkscape:label="command marker" />
    </g>
    <path
       style="fill:#ffcc00;stroke-width:6.42195"
       d="m 106.67182,211.64799 c -0.21999,-0.35597 -0.0874,-2.57335 0.29459,-4.92751 1.3971,-8.60945 0.56245,-24.31606 -1.7177,-32.32389 -1.26943,-4.45818 -8.121001,-13.12948 -12.914335,-16.34428 -5.511499,-3.69646 -16.558285,-8.72688 -22.723836,-10.34783 -7.481962,-1.96706 -19.675345,-2.11196 -29.904857,-0.35541 -8.016717,1.3766 -10.978369,2.56749 -16.155614,6.4962 -1.970089,1.49499 -3.816337,2.71816 -4.102772,2.71816 -0.286435,0 -1.658943,-1.5245 -3.050015,-3.38779 l -2.529221,-3.38779 3.233716,-2.38558 c 4.327007,-3.19213 15.626911,-8.68281 21.924251,-10.65312 9.400615,-2.94125 31.189409,-1.7193 43.360675,2.43175 12.41496,4.23415 22.929548,14.22975 30.328928,28.83194 3.38215,6.67445 4.46631,12.76139 4.933,27.69605 0.41752,13.3613 0.39496,13.69021 -1.03718,15.12235 -1.1703,1.17029 -2.27395,1.46398 -5.50179,1.46398 -2.22081,0 -4.21783,-0.29126 -4.43784,-0.64723 z"
       id="path4" />
    <g
       id="command_group4"
       inkscape:label="Ink/Stitch Command: Trim thread after sewing this object">
      <path
         id="command_connector4"
         d="m 66.902177,105.8365 -0.454305,30.04829"
         style="fill:none;stroke:#000000;stroke-width:1px;stroke-opacity:0.5"
         inkscape:connection-start="#command_use3266"
         inkscape:connection-end="#path4"
         inkscape:label="connector"
         inkscape:connector-type="polyline"
         inkscape:connector-curvature="0" />
      <use
         id="command_use3266"
         xlink:href="#inkstitch_trim"
         height="100%"
         width="100%"
         x="66.89960042010658"
         y="105.80065441568871"
         inkscape:label="command marker" />
    </g>
    <path
       style="fill:#ffcc00;stroke-width:6.42195"
       d="m 23.205223,66.435909 c -0.58411,-0.586667 0.07185,-7.934667 0.910209,-10.196032 0.330625,-0.891822 1.386388,-1.611541 2.793539,-1.90437 2.533931,-0.527315 28.343264,-1.439156 68.528488,-2.421105 14.765521,-0.360805 29.806161,-0.862961 33.423631,-1.115904 l 6.57723,-0.459895 0.43181,2.308143 c 0.23749,1.269478 0.3362,3.969678 0.21933,6.000442 -0.19906,3.459164 -0.34121,3.726576 -2.25144,4.235168 -1.12144,0.298578 -11.6731,0.856298 -23.44813,1.239379 -11.77504,0.383079 -31.807895,1.042215 -44.517458,1.464744 -12.709564,0.42253 -27.390131,0.905949 -32.62348,1.074265 -5.233351,0.168315 -9.753028,0.06714 -10.043729,-0.224835 z"
       id="path5" />
    <g
       id="command_group5"
       inkscape:label="Ink/Stitch Command: Trim thread after sewing this object">
      <path
         id="command_connector5"
         d="m 71.243638,22.628683 6.884755,29.727853"
         style="fill:none;stroke:#000000;stroke-width:1px;stroke-opacity:0.5"
         inkscape:connection-start="#command_use324"
         inkscape:connection-end="#path5"
         inkscape:label="connector"
         inkscape:connector-type="polyline"
         inkscape:connector-curvature="0" />
      <use
         id="command_use324"
         xlink:href="#inkstitch_trim"
         height="100%"
         width="100%"
         x="71.2410614519068"
         y="22.592836488112788"
         inkscape:label="command marker" />
    </g>
    <path
       style="fill:#ffcc00;fill-opacity:1;stroke-width:6.42195"
       d="m 45.404378,219.79926 c -9.439466,-4.66942 -15.249192,-15.79912 -13.210171,-25.30674 1.535488,-7.15974 7.469257,-16.48001 13.300435,-20.89123 3.038602,-2.29866 5.453935,-2.54558 13.509801,-1.38112 11.72847,1.69532 19.245868,10.14819 19.957927,22.44149 0.542765,9.37056 -2.002477,16.06672 -8.108247,21.33166 -5.121332,4.41605 -7.634953,5.36976 -14.836701,5.62927 -6.054329,0.21817 -6.715763,0.10451 -10.613044,-1.82333 z"
       id="path7" />
    <g
       id="command_group6"
       inkscape:label="Ink/Stitch Command: Trim thread after sewing this object">
      <path
         id="command_connector6"
         d="m 48.398572,141.74511 3.80722,29.79608"
         style="fill:none;stroke:#000000;stroke-width:1px;stroke-opacity:0.5"
         inkscape:connection-start="#command_use7825"
         inkscape:connection-end="#path7"
         inkscape:label="connector"
         inkscape:connector-type="polyline"
         inkscape:connector-curvature="0" />
      <use
         id="command_use7825"
         xlink:href="#inkstitch_trim"
         height="100%"
         width="100%"
         x="48.39599208491971"
         y="141.7092598680443"
         inkscape:label="command marker" />
    </g>
    <path
       style="fill:#ffcc00;fill-opacity:1;stroke-width:6.42195"
       d="m 209.89074,229.35021 c -9.29471,-4.22111 -13.42993,-15.79873 -9.02083,-25.25612 3.05105,-6.54445 8.57852,-10.69961 16.76476,-12.60256 3.35541,-0.77999 4.07496,-0.72734 7.53247,0.55121 5.57449,2.06137 10.46166,7.11262 11.99815,12.40095 2.29542,7.90045 -0.23199,18.64586 -5.22132,22.19857 -5.32353,3.79068 -16.61586,5.17729 -22.05323,2.70795 z"
       id="path8" />
    <g
       id="command_group7"
       inkscape:label="Ink/Stitch Command: Trim thread after sewing this object">
      <path
         id="command_connector7"
         d="m 213.88884,161.68335 2.85658,30.02646"
         style="fill:none;stroke:#000000;stroke-width:1px;stroke-opacity:0.5"
         inkscape:connection-start="#command_use7245"
         inkscape:connection-end="#path8"
         inkscape:label="connector"
         inkscape:connector-type="polyline"
         inkscape:connector-curvature="0" />
      <use
         id="command_use7245"
         xlink:href="#inkstitch_trim"
         height="100%"
         width="100%"
         x="213.88625378121657"
         y="161.64751277323697"
         inkscape:label="command marker" />
    </g>
    <path
       style="fill:#ffcc00;fill-opacity:1;stroke-width:6.42195"
       d="m 199.76462,127.01289 c -0.3738,-0.13766 -2.43826,-0.44863 -4.58767,-0.69103 l -3.90802,-0.44075 0.0163,-13.3743 c 0.0165,-13.585685 0.52829,-18.188258 2.14351,-19.275527 0.4943,-0.332731 2.88672,-0.416453 5.31649,-0.18605 6.75668,0.640704 7.05098,1.124708 7.31695,12.033647 0.12077,4.95334 -0.0234,11.91159 -0.32031,15.4628 l -0.53991,6.45673 -2.3788,0.13239 c -1.30834,0.0728 -2.68464,0.0197 -3.05846,-0.11798 z"
       id="path9" />
    <g
       id="command_group8"
       inkscape:label="Ink/Stitch Command: Trim thread after sewing this object">
      <path
         id="command_connector8"
         d="m 194.2199,63.033562 2.84147,29.900389"
         style="fill:none;stroke:#000000;stroke-width:1px;stroke-opacity:0.5"
         inkscape:connection-start="#command_use8908"
         inkscape:connection-end="#path9"
         inkscape:label="connector"
         inkscape:connector-type="polyline"
         inkscape:connector-curvature="0" />
      <use
         id="command_use8908"
         xlink:href="#inkstitch_trim"
         height="100%"
         width="100%"
         x="194.21732041774928"
         y="62.99771675363634"
         inkscape:label="command marker" />
    </g>
    <path
       style="fill:#1fe0e0;fill-opacity:1;stroke:none;stroke-width:6.42195"
       d="m 86.262107,119.81148 c -21.691919,-0.91859 -20.410092,-0.7712 -20.249325,-2.32826 0.0772,-0.74762 0.453796,-7.93498 0.836896,-15.97191 0.3831,-8.036927 1.051168,-18.828598 1.484596,-23.981488 l 0.788053,-9.368891 7.210579,0.193537 c 3.965817,0.106446 15.330065,-0.07998 25.253884,-0.414288 20.75373,-0.699132 22.13395,-0.499632 24.02843,3.473131 3.43708,7.207633 14.70747,47.286439 13.60729,48.389079 -0.63372,0.63513 -38.02527,0.64156 -52.960403,0.009 z"
       id="path12" />
    <g
       id="command_group11"
       inkscape:label="Ink/Stitch Command: Trim thread after sewing this object">
      <path
         id="command_connector11"
         d="M 83.1727,38.36253 93.601221,68.171055"
         style="fill:none;stroke:#000000;stroke-width:1px;stroke-opacity:0.5"
         inkscape:connection-start="#command_use9929"
         inkscape:connection-end="#path12"
         inkscape:label="connector"
         inkscape:connector-type="polyline"
         inkscape:connector-curvature="0" />
      <use
         id="command_use9929"
         xlink:href="#inkstitch_trim"
         height="100%"
         width="100%"
         x="83.17012220483524"
         y="38.326684664044016"
         inkscape:label="command marker" />
    </g>
    <path
       style="fill:#1fe0e0;fill-opacity:1;stroke:none;stroke-width:6.42195"
       d="m 33.832315,116.33245 c 0.249119,-2.43156 0.905899,-11.11934 1.459508,-19.306174 1.43022,-21.150231 1.785485,-24.611821 2.638376,-25.707465 0.967884,-1.243368 10.71654,-2.426529 20.014265,-2.429064 l 7.024461,-0.0019 -0.408245,4.927505 c -0.224533,2.710128 -0.707584,11.809019 -1.073447,20.219761 -0.942928,21.676757 -1.196689,23.765647 -2.966551,24.419767 -0.794645,0.29369 -5.420795,0.72462 -10.280334,0.95763 -4.85954,0.23301 -10.641254,0.63005 -12.848254,0.88231 l -4.012727,0.45865 z"
       id="path13" />
    <g
       id="command_group12"
       inkscape:label="Ink/Stitch Command: Trim thread after sewing this object">
      <path
         id="command_connector12"
         d="m 42.660817,39.748825 3.516919,29.736436"
         style="fill:none;stroke:#000000;stroke-width:1px;stroke-opacity:0.5"
         inkscape:connection-start="#command_use3574"
         inkscape:connection-end="#path13"
         inkscape:label="connector"
         inkscape:connector-type="polyline"
         inkscape:connector-curvature="0" />
      <use
         id="command_use3574"
         xlink:href="#inkstitch_trim"
         height="100%"
         width="100%"
         x="42.658238075624574"
         y="39.71298013797264"
         inkscape:label="command marker" />
    </g>
  </g>
</svg>
