<?xml version="1.0" encoding="UTF-8" standalone="no"?>
<!-- Created with Inkscape (http://www.inkscape.org/) -->

<svg
   version="1.1"
   id="svg1"
   width="50mm"
   height="50mm"
   viewBox="0 0 188.97638 188.97638"
   sodipodi:docname="dino-2.svg"
   inkscape:version="1.3.2 (1:1.3.2+202311252150+091e20ef0f)"
   xmlns:inkscape="http://www.inkscape.org/namespaces/inkscape"
   xmlns:sodipodi="http://sodipodi.sourceforge.net/DTD/sodipodi-0.dtd"
   xmlns="http://www.w3.org/2000/svg"
   xmlns:svg="http://www.w3.org/2000/svg"
   xmlns:inkstitch="http://inkstitch.org/namespace">
  <metadata
     id="metadata17">
    <inkstitch:min_stitch_len_mm>0</inkstitch:min_stitch_len_mm>
    <inkstitch:collapse_len_mm>3</inkstitch:collapse_len_mm>
    <inkstitch:inkstitch_svg_version>1</inkstitch:inkstitch_svg_version>
  </metadata>
  <defs
     id="defs1" />
  <sodipodi:namedview
     id="namedview1"
     pagecolor="#ffffff"
     bordercolor="#666666"
     borderopacity="1.0"
     inkscape:showpageshadow="2"
     inkscape:pageopacity="0.0"
     inkscape:pagecheckerboard="0"
     inkscape:deskcolor="#d1d1d1"
     inkscape:zoom="2.72"
     inkscape:cx="107.53676"
     inkscape:cy="114.70588"
     inkscape:window-width="1848"
     inkscape:window-height="1016"
     inkscape:window-x="72"
     inkscape:window-y="27"
     inkscape:window-maximized="1"
     inkscape:current-layer="g1"
     inkscape:document-units="mm" />
  <g
     inkscape:groupmode="layer"
     inkscape:label="Image"
     id="g1">
    <path
       style="fill:#000000;stroke-width:0.379937"
       d="m 78.104323,176.6982 c -4.267128,-1.06169 -7.16417,-2.71499 -8.152671,-4.65261 -0.408439,-0.80061 -0.928657,-2.97312 -1.156037,-4.8278 -1.002449,-8.17671 -2.2508,-8.93568 -5.591053,-3.39921 -3.028386,5.01954 -5.54193,6.31806 -10.705144,5.53038 -3.16435,-0.48274 -7.151024,-2.4409 -8.227662,-4.04122 -2.729769,-4.05755 -3.679288,-22.50932 -1.717549,-33.3768 0.927899,-5.14032 0.938283,-5.20722 1.739517,-11.20814 0.32086,-2.4031 1.000503,-6.16448 1.510317,-8.35861 2.099604,-9.03623 3.427981,-18.71612 3.118743,-22.72625 C 48.609602,85.576661 46.490963,75.434405 45.36752,72.618317 44.858017,71.341166 43.943562,69.819508 43.335397,69.236848 L 42.22965,68.17747 39.08049,68.832261 C 34.755148,69.731609 28.497055,70.015882 25.264928,69.459829 18.096242,68.226527 14.097389,64.261658 14.08867,58.378548 c -0.0021,-1.377306 0.250895,-3.343479 0.562081,-4.369275 0.311186,-1.025795 0.567643,-1.990432 0.569905,-2.143634 0.0023,-0.153206 -0.826894,-0.699659 -1.842569,-1.214341 C 10.871339,49.381033 7.3885289,46.128252 6.877613,44.580161 6.4327988,43.232362 6.947366,41.09883 8.397937,38.276492 9.900484,35.353025 15.04986,31.535241 32.486339,20.417188 c 7.372003,-4.700623 12.142208,-6.054586 15.413001,-4.374786 1.534455,0.788059 7.565824,6.544786 10.35779,9.886141 1.047642,1.253791 3.05614,3.561908 4.463332,5.129148 3.311693,3.688362 7.911323,9.602076 9.160844,11.778043 1.909924,3.326021 2.114383,6.55455 0.564856,8.919427 -0.747962,1.141536 -3.169445,2.563734 -5.929914,3.482794 -1.149309,0.382646 -2.149634,0.729426 -2.222943,0.770626 -0.07331,0.0412 0.713009,1.582171 1.747372,3.424375 1.79201,3.19158 2.944978,5.634692 5.883953,12.467952 0.719004,1.671723 2.382703,6.287956 3.697106,10.258296 6.665377,20.133716 11.311891,23.792706 33.067504,26.039626 2.19414,0.22661 5.27163,0.67243 6.83887,0.99072 7.5219,1.52759 18.01132,6.04288 23.74605,10.22176 9.06172,6.60324 11.42335,8.1657 15.58081,10.30824 2.50572,1.29131 5.92362,2.88398 7.59534,3.53926 6.44343,2.52569 16.15048,5.70096 17.4283,5.70096 0.33065,0 0.89247,0.44455 1.24848,0.98789 0.56471,0.86186 0.58705,1.21327 0.17512,2.75454 -0.25969,0.97166 -0.84623,2.17572 -1.30342,2.67568 -1.35514,1.48194 -7.01833,4.9826 -9.71982,6.00825 -3.2617,1.23834 -11.88051,2.65084 -19.15521,3.13926 -9.86314,0.6622 -10.79346,0.87428 -13.54876,3.08849 -2.50948,2.01668 -6.08954,8.21794 -6.08954,10.5481 0,1.164 -2.17076,3.78132 -3.84424,4.63506 -3.71779,1.89668 -7.06612,2.31917 -10.43978,1.3173 -2.46726,-0.73269 -4.07181,-2.42814 -6.22393,-6.5765 l -1.71836,-3.31227 -5.31912,0.0246 c -6.303835,0.0291 -6.93439,0.26206 -9.438345,3.48698 -3.223118,4.15115 -7.017461,7.25093 -10.06085,8.21918 -2.034053,0.64714 -5.21873,1.02001 -6.336512,0.7419 z m 5.985845,-2.40208 c 2.423257,-0.90665 6.12407,-3.79589 7.551265,-5.89529 0.56671,-0.83364 1.566487,-3.06996 2.221726,-4.96962 1.508589,-4.37369 2.825903,-6.02623 5.417181,-6.79576 2.43984,-0.72456 3.45729,-0.7254 5.8836,-0.005 2.93982,0.87303 5.61575,3.46085 6.40591,6.19499 2.38219,8.24291 3.89506,9.92344 8.99096,9.98733 2.39034,0.03 5.35698,-0.74925 7.03266,-1.8472 0.99856,-0.65428 2.37224,-3.08861 2.37224,-4.20389 0,-0.39792 0.7009,-2.58462 1.55755,-4.85934 0.85666,-2.27471 1.90146,-5.24716 2.32179,-6.60543 1.03386,-3.34081 1.6014,-4.3584 3.6557,-6.55462 2.04493,-2.18619 3.44154,-2.96137 7.09253,-3.93667 2.32618,-0.62139 4.18358,-0.71291 14.81754,-0.73004 7.76048,-0.0125 13.29767,-0.19281 15.30894,-0.49849 1.73303,-0.2634 3.4798,-0.37454 3.8817,-0.24698 0.56026,0.17782 0.78757,0.006 0.97433,-0.73865 0.31018,-1.23585 -0.0232,-2.11208 -0.80355,-2.11208 -1.57579,0 -16.84156,-5.45811 -21.45107,-7.66959 -6.37239,-3.05725 -8.67351,-4.47057 -16.01523,-9.83634 -8.23502,-6.01864 -16.24307,-9.8228 -25.18033,-11.96171 -1.26897,-0.3037 -5.36907,-0.89359 -9.11133,-1.31088 C 85.880909,107.34452 80.822065,103.20823 74.018645,82.722575 69.35082,68.667368 64.61349,58.918149 60.155113,54.192038 l -2.47445,-2.623046 -6.315425,0.241511 c -7.16871,0.274139 -12.681497,-0.136937 -21.132962,-1.575836 -3.134479,-0.533659 -7.008954,-1.073135 -8.60994,-1.198837 l -2.91089,-0.228548 -0.941093,1.858424 c -4.772422,9.424328 -1.391165,15.938331 8.965261,17.271606 3.828951,0.492934 9.102399,0.0378 13.683697,-1.18103 5.124413,-1.363309 9.098822,-0.66535 11.844167,2.079998 2.889701,2.889702 5.217236,8.577045 6.074339,14.842672 0.425967,3.113906 1.011301,22.946728 0.796143,26.975518 -0.222958,4.17483 0.47877,14.01891 1.323233,18.56272 0.771716,4.15237 2.676393,9.91724 4.726308,14.30506 3.462096,7.41057 4.176168,9.77287 4.535455,15.00427 0.474697,6.91183 1.044747,11.32527 1.618098,12.52759 0.709483,1.48781 2.106944,2.27661 5.817427,3.28367 3.238988,0.8791 4.494904,0.87155 6.935687,-0.0417 z M 29.915663,58.539793 c -0.426665,-0.426662 -0.280982,-3.746349 0.184851,-4.212182 0.301446,-0.301446 0.657048,-0.320982 1.139811,-0.06262 0.712712,0.381434 0.979181,2.602944 0.471049,3.927111 -0.23238,0.605582 -1.326059,0.817339 -1.795711,0.347688 z M 58.202267,167.16758 c 1.292204,-0.86069 2.612302,-2.47939 3.948551,-4.84169 0.591011,-1.04483 1.309046,-2.17729 1.595637,-2.51658 0.467991,-0.55405 0.140253,-0.74162 -3.217382,-1.8413 -4.558278,-1.49293 -7.172156,-3.22481 -10.099691,-6.69177 -3.624146,-4.29194 -5.474302,-7.93496 -6.26959,-12.34504 l -0.303171,-1.68115 -0.44823,2.01337 c -0.613015,2.75357 -0.562419,8.86983 0.1237,14.95257 0.998949,8.85615 1.658223,10.51118 4.83627,12.14092 3.023845,1.55067 8.095247,1.96873 9.833906,0.81067 z m 45.666773,-4.81337 c 2.88648,-0.0768 5.3531,-0.2446 5.48139,-0.37289 0.3956,-0.39561 -1.85516,-2.46339 -3.60165,-3.30885 -1.30964,-0.63399 -2.16737,-0.76945 -4.09502,-0.6467 -2.75464,0.1754 -3.877015,0.92917 -5.186566,3.48324 l -0.749996,1.46273 1.451861,-0.23895 c 0.798521,-0.13142 3.813511,-0.30178 6.699981,-0.37858 z m -35.956026,-5.82236 c -0.306788,-2.89848 -1.725503,-6.96119 -4.212444,-12.06299 -4.953181,-10.16114 -6.294274,-18.62686 -6.314316,-39.85942 -0.01732,-18.376153 -0.86265,-25.451262 -3.658219,-30.618879 -2.37481,-4.389848 -4.610298,-6.07122 -8.079559,-6.07687 l -1.301025,-0.0023 0.822529,0.875542 c 1.421511,1.513129 2.762452,5.533226 4.141844,12.417109 0.994173,4.961436 1.332834,7.620488 1.331352,10.453408 -0.0023,4.4378 -1.290897,14.02512 -2.578795,19.18681 -2.10183,8.42381 -3.0832,17.63231 -2.557811,24.0008 0.431859,5.23475 1.191645,7.59001 3.888171,12.05291 3.21579,5.32231 6.669469,7.86949 13.65913,10.07396 1.752585,0.55275 3.462301,1.16615 3.799369,1.36313 1.133044,0.66214 1.29209,0.39149 1.059774,-1.80339 z m 72.904586,-2.59071 c 0.9493,-0.2857 4.54277,-0.69718 7.98547,-0.91441 9.22719,-0.58221 17.06772,-1.79387 20.85425,-3.22277 1.26028,-0.47559 3.65919,-1.7584 5.33091,-2.85069 l 3.0395,-1.986 -2.46959,0.23833 c -8.67358,0.83706 -10.75715,0.90617 -15.78159,0.52348 -9.70261,-0.73901 -17.29934,0.57709 -20.53228,3.55711 -1.69949,1.56653 -3.32135,4.44415 -3.77663,6.70076 l -0.25417,1.25979 1.93906,-1.39307 c 1.06648,-0.76619 2.71576,-1.62683 3.66507,-1.91253 z M 66.113553,53.553923 67.80051,52.935629 64.593805,52.461027 c -1.763686,-0.261036 -3.351773,-0.481851 -3.529078,-0.490708 -0.177305,-0.0089 0.164638,0.567732 0.759874,1.281303 1.163507,1.394813 1.284813,1.403362 4.288952,0.302301 z M 58.91751,50.270499 c 2.194135,0.01429 5.280143,0.164615 6.857792,0.334041 3.246683,0.348664 4.993728,-0.22158 5.747541,-1.876015 0.650346,-1.427358 -0.558207,-4.504501 -3.045194,-7.753486 -1.183252,-1.5458 -2.879678,-3.757724 -3.769836,-4.915396 -0.890158,-1.157671 -2.431638,-2.970418 -3.425511,-4.028326 -0.993873,-1.057908 -2.795705,-3.063211 -4.004068,-4.456227 -2.118292,-2.441995 -2.240518,-2.520281 -3.410845,-2.184637 -0.667603,0.191466 -1.727866,0.342061 -2.356141,0.334656 -3.155722,-0.0372 -5.215804,-3.416172 -4.012438,-6.581266 0.461692,-1.214339 -0.08631,-1.689249 -2.29736,-1.990948 -2.985603,-0.407386 -6.652496,1.421349 -19.338448,9.644377 -2.403101,1.557688 -4.414092,2.87064 -4.468867,2.917668 -0.05478,0.04703 0.260169,0.89881 0.699874,1.892842 1.032315,2.333713 0.739806,4.074831 -0.97219,5.786827 -1.101312,1.101311 -1.50985,1.26182 -3.211701,1.26182 -2.123997,0 -4.09677,-0.662417 -4.916508,-1.650864 -0.286793,-0.345815 -0.634984,-0.628758 -0.773758,-0.628758 -0.585306,0 -3.106136,3.908343 -3.520795,5.458706 -0.380815,1.423821 -0.357024,1.826516 0.15398,2.606408 0.927919,1.416185 5.546045,2.640349 11.310912,2.998276 5.410518,0.335925 9.926098,0.87308 13.831887,1.645382 1.482453,0.293128 4.490569,0.731108 6.684705,0.97328 2.194135,0.242176 4.073765,0.524438 4.176956,0.627249 0.103194,0.102811 2.411311,0.04551 5.129148,-0.127336 2.71784,-0.172848 6.736729,-0.30257 8.930865,-0.288273 z m 3.57937,-4.165898 c -1.216432,-0.538636 -2.439559,-2.54916 -2.439559,-4.010044 0,-1.108131 0.973265,-2.912983 1.726737,-3.202119 1.001445,-0.384291 2.978044,-0.246857 3.609814,0.250994 2.009475,1.583508 2.49573,4.483092 1.027392,6.126402 -1.081274,1.210118 -2.429192,1.496838 -3.924384,0.834767 z m 2.564688,-1.618037 c 1.500458,-1.357894 0.409306,-4.310388 -1.592992,-4.310388 -1.97221,0 -2.550277,2.415267 -0.958934,4.006606 1.096506,1.096509 1.608615,1.15747 2.551926,0.303782 z m -38.904062,1.176357 c -1.28943,-0.699749 -1.814252,-1.650769 -1.814252,-3.287575 0,-1.581651 0.766709,-2.712313 2.258159,-3.33009 2.675975,-1.108424 5.340579,0.633362 5.340579,3.491005 0,2.963344 -3.048769,4.611278 -5.784486,3.12666 z m 3.857226,-1.928583 c 1.000868,-1.272397 0.988744,-1.491719 -0.145124,-2.625588 -1.639041,-1.639044 -4.006606,-0.820986 -4.006606,1.384388 0,2.137851 2.79026,2.972026 4.15173,1.2412 z m 7.79814,-3.043735 c -1.982894,-2.13958 -0.444784,-5.437455 2.291768,-4.913804 2.419503,0.462988 3.789196,3.816577 2.160716,5.290333 -1.106543,1.001407 -3.351389,0.811572 -4.452484,-0.376529 z m 3.549283,-1.48523 c 0.152127,-1.06336 -1.165756,-2.207411 -2.174135,-1.887367 -0.887225,0.281598 -1.067441,1.665981 -0.314847,2.418576 0.731793,0.731792 2.357946,0.384735 2.488982,-0.531209 z m 8.23064,1.40278 c -1.612418,-0.983284 -2.453329,-2.422922 -2.453329,-4.2001 0,-1.977556 0.574738,-3.17748 1.895695,-3.957791 4.204454,-2.483632 9.510258,2.734979 6.863241,6.750453 -1.413198,2.14379 -4.110761,2.745895 -6.305607,1.407438 z m 4.553961,-2.036264 c 1.456675,-2.079691 -0.04136,-4.85464 -2.620747,-4.85464 -2.767548,0 -3.757702,2.586979 -1.756209,4.588467 1.415466,1.41547 3.483854,1.541252 4.376956,0.266173 z M 32.891835,32.974841 c -1.324544,-0.547869 -2.525331,-2.172419 -2.723403,-3.684507 -0.328881,-2.51074 2.156408,-5.320302 5.049505,-5.708346 2.872376,-0.385268 5.837096,1.840121 5.84112,4.384479 0.0054,3.421989 -4.831498,6.388122 -8.167222,5.008374 z m 4.452997,-2.159185 c 2.033008,-1.034056 2.443834,-3.388236 0.814881,-4.669569 -1.276003,-1.003706 -2.93083,-1.002323 -4.558779,0.0038 -2.198851,1.358962 -2.215842,4.159291 -0.03096,5.103681 1.263943,0.546327 2.009938,0.459785 3.774867,-0.437919 z M 16.497306,49.496799 c 0.266505,-0.694505 0.07214,-0.809022 -1.937427,-1.141547 -1.990949,-0.329447 -2.045703,-0.06614 -0.189968,0.91354 1.737136,0.917069 1.858006,0.930021 2.127395,0.228007 z m 3.257553,-13.343733 c 0.771131,-0.648864 1.167056,-1.327708 1.163363,-1.994669 -0.0079,-1.424706 -0.868486,-2.920787 -1.642889,-2.856046 -0.673069,0.05627 -5.543919,3.551114 -5.560849,3.989926 -0.01545,0.400423 3.151074,1.843781 4.045708,1.844104 0.454139,1.67e-4 1.351742,-0.442327 1.994667,-0.983315 z M 53.598393,23.540958 c 0,-0.163863 -0.934378,-1.220707 -2.0764,-2.348542 -2.057678,-2.032113 -2.079513,-2.042275 -2.421091,-1.12683 -0.349025,0.935392 -0.02245,2.335159 0.766617,3.285932 0.432521,0.521152 3.730874,0.688632 3.730874,0.18944 z"
       id="path1" />
    <path
       style="fill:#ff7d5f;fill-opacity:1;stroke-width:0;stroke-linejoin:bevel;stroke-miterlimit:0"
       d="M 40.915707,49.933225 C 39.611934,49.757562 36.322874,49.256398 33.606682,48.819528 30.890494,48.382657 25.733896,47.756631 22.147576,47.428358 16.0261,46.868027 11.927743,46.116691 10.330783,45.262023 8.24249,44.144404 8.310076,42.225096 10.557919,38.811785 l 1.425147,-2.16406 1.354814,0.919402 c 1.510718,1.025202 4.298547,1.582133 5.903407,1.179339 1.369775,-0.343794 3.175775,-2.295674 3.503125,-3.786098 0.156427,-0.712214 -0.0038,-1.963282 -0.406294,-3.175562 -0.365423,-1.100194 -0.601846,-2.057673 -0.525384,-2.127734 0.07646,-0.07006 3.104081,-2.014619 6.728044,-4.321242 11.08089,-7.052903 14.487433,-8.594338 17.342537,-7.84736 l 1.353704,0.354169 -0.133548,2.195587 c -0.252597,4.152812 1.789753,6.141216 5.837457,5.68327 l 2.215959,-0.250709 3.967252,4.454152 c 7.480513,8.398596 11.281006,13.64399 12.097525,16.696867 0.445362,1.665157 0.416703,1.85451 -0.405005,2.67626 -0.879216,0.87925 -0.96058,0.884516 -14.207372,0.919432 -7.327699,0.0193 -14.389812,-0.108605 -15.69358,-0.284273 z M 31.1368,45.048707 c 2.06281,-2.398154 0.332646,-6.523224 -2.734566,-6.519778 -2.925616,0.0034 -4.710203,2.26523 -4.073672,5.163328 0.598082,2.72306 4.896148,3.579393 6.808238,1.35645 z m 35.147432,0.491456 c 1.155464,-1.262416 1.425401,-2.471068 0.904436,-4.049618 -0.963706,-2.920051 -4.627381,-4.039132 -6.292633,-1.922105 -1.384634,1.760275 -0.793529,5.355633 1.057794,6.433924 1.259038,0.733328 3.450226,0.49945 4.330403,-0.462201 z M 42.467813,41.067269 c 1.662629,-1.662631 -0.37461,-5.437087 -2.934636,-5.437087 -2.578176,0 -3.701626,3.182644 -1.796087,5.088183 1.149928,1.149928 3.738765,1.340862 4.730723,0.348904 z m 12.80633,-0.958205 c 2.184413,-2.184417 1.906812,-5.032541 -0.704692,-7.229982 -1.009006,-0.849019 -1.67437,-1.06803 -3.244771,-1.06803 -1.656658,0 -2.161875,0.186386 -3.130346,1.154857 -0.9436,0.943603 -1.154856,1.489223 -1.154856,2.982736 0,3.484291 1.7726,5.299162 5.204452,5.328565 1.535621,0.01315 2.045447,-0.18338 3.030213,-1.168146 z m -17.290318,-7.52378 c 4.995127,-2.548324 3.611087,-9.059865 -1.927496,-9.068357 -5.391947,-0.0082 -8.099738,6.347283 -3.944323,9.25785 1.225863,0.858627 3.992332,0.76935 5.871819,-0.189493 z"
       id="path2" />
    <path
       style="fill:#fdf5e2;fill-opacity:1;stroke-width:0;stroke-linejoin:bevel;stroke-miterlimit:0"
       d="m 78.843604,174.58392 c -3.38197,-0.8493 -5.814801,-1.91429 -6.65562,-2.91356 -1.051951,-1.25017 -1.5305,-3.84943 -2.21857,-12.05018 -0.503872,-6.0054 -1.09823,-8.24289 -3.823065,-14.39206 C 60.509715,132.50787 59.299065,125.72882 59.275787,106.7564 59.259867,93.78242 58.69647,83.887439 57.745747,79.884393 56.233905,73.518725 53.595593,69.044672 50.319629,67.29118 47.304575,65.677337 45.395214,65.591824 39.268125,66.796221 34.648906,67.704217 33.201574,67.827282 29.102173,67.660619 23.58115,67.43616 21.445802,66.812011 18.981034,64.702259 15.282406,61.53637 14.913409,57.740246 17.694461,51.466398 c 0.990671,-2.234882 1.03336,-2.271694 2.63215,-2.269905 0.893828,0.0011 4.025268,0.362715 6.958757,0.80381 11.421518,1.717408 14.419118,1.975677 22.483569,1.937171 l 8.06307,-0.0385 2.319272,2.682221 c 4.731016,5.47138 8.526802,13.307263 13.753879,28.393011 5.472653,15.794504 9.732368,21.281034 18.735345,24.131164 4.102551,1.29878 5.431657,1.54927 15.516067,2.92416 14.5732,1.98692 21.63865,4.98074 36.18019,15.33053 7.99507,5.69041 17.40473,10.0363 31.0262,14.32959 3.87802,1.22229 4.06448,1.33132 3.95083,2.30995 -0.11241,0.96788 -0.27879,1.04205 -2.88486,1.28613 -1.52107,0.14246 -8.72144,0.38103 -16.00083,0.53017 -16.87046,0.34563 -18.72273,0.71267 -22.64946,4.48813 -1.0492,1.00879 -2.14708,2.28853 -2.43972,2.84387 -0.6537,1.24052 -5.18588,13.94615 -5.55883,15.58376 -0.83138,3.65064 -3.36799,5.37452 -8.30754,5.64581 -5.44898,0.29927 -6.87104,-0.94826 -9.28477,-8.14517 -1.02335,-3.05131 -1.46916,-3.81954 -3.10372,-5.34848 -2.54084,-2.37665 -5.59158,-3.33169 -8.62173,-2.69902 -3.759496,0.78495 -4.873212,2.1007 -7.422517,8.76898 -1.307796,3.42084 -4.125104,6.54748 -7.58017,8.41243 -1.987176,1.07262 -4.991706,1.62561 -6.616039,1.21771 z M 31.552257,58.597635 c 0.677955,-0.677956 0.598237,-3.672026 -0.113495,-4.262714 -1.131695,-0.939223 -1.782903,-0.17566 -1.782903,2.090531 0,1.165726 0.118525,2.238029 0.263391,2.382892 0.404659,0.404663 1.108443,0.313854 1.633007,-0.210709 z"
       id="path4" />
    <path
       style="fill:#fdf5e2;fill-opacity:1;stroke-width:0;stroke-linejoin:bevel;stroke-miterlimit:0"
       d="m 51.886037,167.32314 c -3.559127,-0.74579 -5.902001,-2.51833 -6.78714,-5.13493 -1.254266,-3.70779 -2.361951,-17.78073 -1.694796,-21.53198 0.370264,-2.08189 0.399694,-2.05289 1.4034,1.38278 1.524888,5.2197 6.935087,11.89545 11.602072,14.31603 1.473954,0.76449 3.611205,1.69214 4.749451,2.06145 1.138245,0.36931 2.15496,0.8097 2.259367,0.97863 0.287505,0.4652 -3.78418,6.39915 -4.990867,7.27354 -1.21796,0.88256 -4.08439,1.16935 -6.541487,0.65448 z"
       id="path5" />
    <path
       style="fill:#fdf5e2;fill-opacity:1;stroke-width:0;stroke-linejoin:bevel;stroke-miterlimit:0"
       d="m 17.111882,36.979539 c -1.38591,-0.403652 -3.317464,-1.385748 -3.317464,-1.686756 0,-0.249038 1.564796,-1.503878 3.532087,-2.832449 1.261199,-0.851727 1.883722,-1.173804 2.143003,-1.108728 0.302475,0.07591 0.652021,0.430776 0.912388,0.926248 0.323493,0.615616 0.468944,1.174465 0.473443,1.819051 0.0047,0.681451 -0.215386,1.137743 -0.847336,1.756334 -0.499271,0.488717 -1.006,0.822392 -1.65279,1.088352 -0.476802,0.196059 -0.679246,0.202237 -1.243331,0.03796 z"
       id="path6" />
    <path
       style="fill:#fdf5e2;fill-opacity:1;stroke-width:0;stroke-linejoin:bevel;stroke-miterlimit:0"
       d="M 27.647011,44.585427 C 26.969903,44.4427 26.400453,44.00809 26.106826,43.409941 25.940475,43.07106 25.912618,42.930153 25.916011,42.444715 c 0.0034,-0.494765 0.03317,-0.62774 0.229349,-1.026225 0.238106,-0.48366 0.563195,-0.798597 1.034974,-1.002646 0.388569,-0.168061 1.148926,-0.150922 1.632931,0.03682 0.810728,0.314455 1.882758,1.430432 1.882758,1.959946 0,0.307008 -0.371187,0.929827 -0.875443,1.468916 -0.532379,0.569157 -1.43148,0.860333 -2.173569,0.703913 z"
       id="path7" />
    <path
       style="fill:#fdf5e2;fill-opacity:1;stroke-width:0;stroke-linejoin:bevel;stroke-miterlimit:0"
       d="m 34.048408,31.396401 c -1.219879,-0.406696 -1.893533,-1.14513 -2.060516,-2.258649 -0.172282,-1.148861 0.721086,-2.529647 2.060516,-3.184722 0.752169,-0.367867 1.285186,-0.504997 1.962872,-0.504997 1.974669,0 3.465868,1.605647 3.038925,3.272164 -0.283893,1.108139 -1.032862,1.818849 -2.608928,2.475646 -0.606539,0.252769 -0.754957,0.286568 -1.34525,0.30637 -0.503637,0.01691 -0.75604,-0.0086 -1.047619,-0.105812 z"
       id="path8" />
    <path
       style="fill:#fdf5e2;fill-opacity:1;stroke-width:0;stroke-linejoin:bevel;stroke-miterlimit:0"
       d="m 50.80072,23.666372 c -0.798281,-0.159019 -1.004173,-0.323802 -1.386404,-1.109598 -0.430754,-0.885542 -0.51972,-1.659622 -0.279961,-2.435878 0.184866,-0.598526 0.281028,-0.67666 0.61625,-0.500724 0.303403,0.159238 3.055274,2.891541 3.494686,3.469832 0.167458,0.22039 0.287943,0.443777 0.267742,0.496421 -0.02021,0.05264 -0.137644,0.115896 -0.260986,0.140566 -0.379895,0.07598 -1.962002,0.03685 -2.451327,-0.06062 z"
       id="path9" />
    <path
       style="fill:#fdf5e2;fill-opacity:1;stroke-width:0;stroke-linejoin:bevel;stroke-miterlimit:0"
       d="m 51.621775,39.342674 c -0.804155,-0.200792 -1.73133,-0.846681 -2.241297,-1.561335 -0.965423,-1.352921 -0.776165,-2.849747 0.453535,-3.58695 0.493325,-0.295751 0.743369,-0.366328 1.465204,-0.41358 1.359851,-0.08902 2.474996,0.536326 3.057245,1.714434 0.25294,0.511783 0.260219,0.548101 0.260219,1.298385 0,0.718499 -0.01497,0.803502 -0.216693,1.229157 -0.438911,0.926218 -1.024697,1.332139 -1.973624,1.367628 -0.293421,0.01098 -0.65549,-0.01052 -0.804589,-0.04774 z"
       id="path10" />
    <path
       style="fill:#fdf5e2;fill-opacity:1;stroke-width:0;stroke-linejoin:bevel;stroke-miterlimit:0"
       d="m 39.530951,40.053684 c -0.669704,-0.173866 -1.081141,-0.755614 -1.082148,-1.5301 -0.0011,-0.951575 0.818772,-1.454908 1.73097,-1.062494 0.398325,0.171355 0.876875,0.641394 1.032699,1.014329 0.13914,0.333007 0.124391,0.794342 -0.0337,1.053573 -0.24164,0.396274 -1.095381,0.668119 -1.647836,0.524692 z"
       id="path11" />
    <path
       style="fill:#fdf5e2;fill-opacity:1;stroke-width:0;stroke-linejoin:bevel;stroke-miterlimit:0"
       d="m 63.30814,44.80236 c -0.367832,-0.238407 -1.103044,-0.989781 -1.306542,-1.335262 -0.391468,-0.6646 -0.469131,-1.692463 -0.17186,-2.274606 0.185268,-0.362817 0.619099,-0.75528 0.966711,-0.874535 0.45589,-0.156405 1.070924,-0.115729 1.511826,0.09998 0.962369,0.470845 1.57118,1.705902 1.374783,2.78895 -0.102849,0.567185 -0.262408,0.861568 -0.677348,1.249696 -0.651535,0.609434 -1.137923,0.708506 -1.69757,0.345773 z"
       id="path12" />
    <path
       style="fill:#fdf5e2;fill-opacity:1;stroke-width:0;stroke-linejoin:bevel;stroke-miterlimit:0"
       d="m 62.839496,54.176947 c -0.45382,-0.223699 -1.910346,-2.003882 -1.756376,-2.146662 0.06899,-0.06397 6.500743,0.88219 6.434444,0.946559 -0.08434,0.08188 -2.884017,1.079105 -3.372005,1.20108 -0.575657,0.143886 -1.012843,0.143563 -1.306063,-0.0011 z"
       id="path13" />
    <path
       style="fill:#fdf5e2;fill-opacity:1;stroke-width:0;stroke-linejoin:bevel;stroke-miterlimit:0"
       d="m 15.662674,49.880331 c -0.284288,-0.106341 -1.483962,-0.722063 -1.950243,-1.000944 -0.208346,-0.124612 -0.4504,-0.292768 -0.537896,-0.37368 -0.140723,-0.130132 -0.153497,-0.15384 -0.110678,-0.205435 0.101163,-0.121895 1.390796,0.01292 2.572655,0.268896 0.580032,0.125638 0.848946,0.254813 0.920106,0.441977 0.06009,0.158058 -0.114324,0.677766 -0.29286,0.872628 -0.09485,0.103525 -0.318547,0.102245 -0.601084,-0.0034 z"
       id="path14" />
    <path
       style="fill:#ead9b5;fill-opacity:1;stroke-width:0;stroke-linejoin:bevel;stroke-miterlimit:0"
       d="m 62.477758,156.62213 c -5.169098,-1.92318 -7.979085,-3.59586 -10.056968,-5.98654 -2.072297,-2.38425 -4.36038,-6.15613 -5.367843,-8.84881 -2.207179,-5.89922 -1.893541,-17.56082 0.784836,-29.1814 2.533244,-10.99091 3.356446,-21.57472 2.197129,-28.248381 C 48.989728,78.340349 47.514016,72.87667 46.273389,70.430347 L 45.12131,68.158625 h 1.195688 c 4.150161,0 8.26607,5.61079 9.564083,13.037717 0.889485,5.089441 1.033888,7.573468 1.43542,24.692638 0.553451,23.59601 1.240103,27.69485 6.618589,39.50823 2.060732,4.52622 3.356506,8.2989 3.833422,11.16108 0.352107,2.11315 0.221579,2.11473 -5.290754,0.0638 z"
       id="path15" />
    <path
       style="fill:#ead9b5;fill-opacity:1;stroke-width:0;stroke-linejoin:bevel;stroke-miterlimit:0"
       d="m 96.424766,162.34189 c 0,-0.10611 0.27531,-0.72531 0.611801,-1.37602 1.840343,-3.55883 7.960073,-3.68198 11.186143,-0.2251 l 0.93319,0.99995 -1.32827,0.20338 c -1.92661,0.295 -11.402864,0.62558 -11.402864,0.39779 z"
       id="path16" />
    <path
       style="fill:#ead9b5;fill-opacity:1;stroke-width:0;stroke-linejoin:bevel;stroke-miterlimit:0"
       d="m 135.76833,155.60987 c 0.14585,-0.61917 0.72582,-1.9896 1.28882,-3.04539 2.96016,-5.55124 8.61118,-7.12691 24.04802,-6.70528 4.44766,0.12148 9.51325,0.0326 11.75197,-0.20613 2.16413,-0.2308 3.98287,-0.37155 4.04164,-0.31278 0.0588,0.0588 -1.29222,0.95265 -3.00221,1.98639 -5.19998,3.14352 -9.27658,4.07154 -23.74062,5.40445 -9.13186,0.84153 -10.74124,1.21921 -13.46756,3.16052 l -1.18525,0.84397 z"
       id="path17" />
  </g>
</svg>
