<?xml version="1.0" encoding="UTF-8" standalone="no"?>
<!-- Created with Inkscape (http://www.inkscape.org/) -->

<svg
   version="1.1"
   id="svg1"
   width="65.346001mm"
   height="100.00071mm"
   viewBox="0 0 246.97702 377.95544"
   sodipodi:docname="10-con-estrellas.svg"
   inkscape:version="1.3.2 (1:1.3.2+202404261509+091e20ef0f)"
   xmlns:inkscape="http://www.inkscape.org/namespaces/inkscape"
   xmlns:sodipodi="http://sodipodi.sourceforge.net/DTD/sodipodi-0.dtd"
   xmlns="http://www.w3.org/2000/svg"
   xmlns:svg="http://www.w3.org/2000/svg">
  <defs
     id="defs1" />
  <sodipodi:namedview
     id="namedview1"
     pagecolor="#ffffff"
     bordercolor="#000000"
     borderopacity="0.25"
     inkscape:showpageshadow="2"
     inkscape:pageopacity="0.0"
     inkscape:pagecheckerboard="0"
     inkscape:deskcolor="#d1d1d1"
     inkscape:zoom="0.78755604"
     inkscape:cx="156.81424"
     inkscape:cy="313.62848"
     inkscape:window-width="1286"
     inkscape:window-height="699"
     inkscape:window-x="80"
     inkscape:window-y="32"
     inkscape:window-maximized="1"
     inkscape:current-layer="g1"
     inkscape:document-units="mm" />
  <g
     inkscape:groupmode="layer"
     inkscape:label="Image"
     id="g1"
     transform="translate(-17.333333,66.312357)">
    <path
       style="fill:#000000;stroke-width:1.38661"
       d="M 52.460733,209.18493 V 113.5626 L 63.033518,102.87833 73.606304,92.194055 H 45.469819 c -15.475067,0 -28.136486,-0.638161 -28.136486,-1.418137 0,-0.779976 8.957207,-10.34757 19.904904,-21.261322 L 57.14314,49.671414 H 74.214445 91.285752 V 177.23934 304.80727 H 71.873243 52.460733 Z m 100.987387,80.09885 -14.0933,-15.52348 v -74.14384 -74.14381 h 10.16847 c 5.59264,0 10.13574,-0.62398 10.09576,-1.38661 -0.0399,-0.76264 -4.60839,-5.96242 -10.15203,-11.55507 -9.95805,-10.04611 -10.07953,-10.30241 -10.09576,-21.302138 l -0.0165,-11.13368 15.29131,-15.211869 15.2913,-15.211869 28.61795,0.01456 28.61795,0.01456 14.32833,15.561759 14.32828,15.561762 -0.0538,96.738905 -0.0538,96.73893 -14.79396,15.25269 -14.79395,15.25269 h -29.2965 -29.29649 z M 216.56113,177.70154 217.0418,92.194055 H 197.61082 178.17984 V 176.9312 c 0,46.60544 0.58276,85.31991 1.29502,86.03217 0.71226,0.71227 9.2399,1.05892 18.95031,0.77034 l 17.65529,-0.52468 z"
       id="path1" />
    <path
       d="M 52.268851,9.7046826 44.188049,5.4534789 36.542893,9.5309684 c -4.204832,2.2426256 -7.818932,3.9037146 -8.031328,3.6913166 -0.212396,-0.212397 0.298804,-4.1670008 1.136006,-8.7880114 l 1.522195,-8.4018411 -6.585339,-6.6761205 -6.585348,-6.676128 7.829801,-0.997817 c 4.30639,-0.548808 8.545959,-1.376473 9.421277,-1.839261 0.88382,-0.467293 3.237611,-4.283585 5.293565,-8.58269 l 3.702084,-7.741257 4.13894,8.270944 4.138932,8.270944 9.174393,1.354091 9.174387,1.354094 -6.617984,6.648794 -6.61799,6.648793 1.601734,8.7691243 c 0.880955,4.8230187 1.491423,8.8480547 1.356593,8.9445257 -0.134833,0.09648 -3.881512,-1.737633 -8.32596,-4.0757864 z m 61.117499,3.2597654 c 0.005,-0.797226 1.05104,-7.3660839 2.32453,-14.5974615 l 2.31544,-13.1479655 -10.51083,-10.530979 -10.510821,-10.53098 6.831571,-0.938898 c 3.75738,-0.516395 10.34027,-1.477782 14.62866,-2.136408 l 7.79709,-1.197511 6.51292,-13.098305 6.51294,-13.098297 6.48504,12.980444 c 3.56677,7.139241 6.53289,13.037003 6.59138,13.106124 0.14854,0.175564 27.56361,4.132011 28.63162,4.132011 0.4789,0 -3.90011,4.789902 -9.73116,10.644227 l -10.60192,10.644226 2.52999,14.51485434 c 1.39149,7.98317006 2.46385,14.51485466 2.38301,14.51485466 -0.0808,0 -6.01187,-3.112078 -13.1801,-6.9157209 l -13.03313,-6.91572744 -12.025,6.26247424 c -6.61375,3.4443631 -12.46045,6.5990941 -12.99266,7.0105121 -0.69629,0.538257 -0.96511,0.341536 -0.95857,-0.701474 z m 135.06615,0.613355 c -0.42045,-0.38755 -4.04131,-2.380018 -8.04635,-4.4277039 l -7.28188,-3.7230642 -7.66995,4.0907122 c -4.21846,2.2498949 -7.84396,3.9166959 -8.05665,3.7040039 -0.2127,-0.21269 0.30909,-4.1673029 1.15951,-8.7880196 l 1.54625,-8.4012989 -6.57377,-6.6408735 -6.57378,-6.640883 9.07356,-1.290707 c 4.99045,-0.709898 9.15994,-1.379245 9.26553,-1.487445 0.10566,-0.108197 1.91094,-3.854472 4.0119,-8.325046 l 3.81993,-8.128318 4.12503,8.23733 4.12505,8.237331 5.47796,0.832851 c 3.01287,0.458066 7.16786,1.06347 9.23328,1.345337 l 3.75532,0.512479 -6.59796,6.673976 -6.59797,6.6739685 1.48069,8.5153821 c 1.54571,8.8893524 1.59276,10.1992034 0.3243,9.0299884 z"
       style="fill:#000000;stroke-width:0.774125"
       id="path1-3" />
  </g>
</svg>
