<?xml version="1.0" encoding="UTF-8" standalone="no"?>
<svg
   version="1.0"
   width="57.897999mm"
   height="69.999626mm"
   viewBox="0 0 164.12031 198.42415"
   preserveAspectRatio="xMidYMid"
   id="svg55"
   sodipodi:docname="11_boca_escudo.svg"
   inkscape:version="1.3.2 (1:1.3.2+202311252150+091e20ef0f)"
   xmlns:inkscape="http://www.inkscape.org/namespaces/inkscape"
   xmlns:sodipodi="http://sodipodi.sourceforge.net/DTD/sodipodi-0.dtd"
   xmlns="http://www.w3.org/2000/svg"
   xmlns:svg="http://www.w3.org/2000/svg"
   xmlns:inkstitch="http://inkstitch.org/namespace">
  <sodipodi:namedview
     id="namedview55"
     pagecolor="#ffffff"
     bordercolor="#666666"
     borderopacity="1.0"
     inkscape:showpageshadow="2"
     inkscape:pageopacity="0.0"
     inkscape:pagecheckerboard="0"
     inkscape:deskcolor="#d1d1d1"
     inkscape:document-units="pt"
     inkscape:zoom="2.0745763"
     inkscape:cx="59.289216"
     inkscape:cy="166.29902"
     inkscape:window-width="1848"
     inkscape:window-height="1016"
     inkscape:window-x="72"
     inkscape:window-y="27"
     inkscape:window-maximized="1"
     inkscape:current-layer="svg55" />
  <metadata
     id="metadata55">
    <inkstitch:min_stitch_len_mm>0</inkstitch:min_stitch_len_mm>
    <inkstitch:collapse_len_mm>3</inkstitch:collapse_len_mm>
    <inkstitch:inkstitch_svg_version>1</inkstitch:inkstitch_svg_version>
  </metadata>
  <defs
     id="defs55" />
  <g
     transform="matrix(0.0175183 0 0 -0.0175183 -3.2774 202.836)"
     fill="#000000"
     stroke="none"
     id="g55">
    <path
       d="m 2827,11170 c -3,-11 -14,-20 -24,-20 -11,0 -34,-16 -53,-35 -19,-19 -40,-35 -47,-35 -7,0 -26,-13 -43,-30 -17,-16 -37,-30 -46,-30 -8,0 -36,-22 -63,-50 -27,-27 -55,-50 -63,-50 -7,0 -38,-25 -68,-55 -30,-30 -61,-55 -69,-55 -8,0 -31,-18 -52,-40 -21,-22 -45,-40 -54,-40 -9,0 -33,-18 -54,-40 -21,-22 -44,-40 -52,-40 -8,0 -39,-25 -69,-55 -30,-30 -61,-55 -70,-55 -8,0 -31,-18 -50,-40 -19,-22 -42,-40 -50,-40 -9,0 -35,-18 -59,-40 -23,-22 -48,-40 -54,-40 -7,-1 -34,-23 -62,-50 -27,-28 -55,-50 -62,-50 -7,0 -37,-25 -68,-55 -30,-30 -62,-55 -70,-55 -8,0 -32,-18 -52,-40 -21,-22 -45,-40 -53,-40 -8,0 -32,-18 -54,-40 -21,-22 -45,-40 -53,-40 -8,0 -24,-11 -37,-25 -13,-14 -30,-25 -39,-25 -8,0 -39,-25 -69,-55 -29,-30 -60,-55 -68,-55 -8,0 -37,-23 -63,-50 -27,-28 -55,-50 -62,-50 -8,0 -39,-25 -70,-55 -30,-30 -61,-55 -68,-55 -8,0 -38,-25 -68,-55 -30,-30 -60,-55 -67,-55 -7,0 -32,-18 -54,-40 -23,-22 -48,-40 -55,-40 -25,0 -73,-59 -73,-90 0,-16 -5,-32 -10,-35 -14,-9 -14,-1175 0,-1175 6,0 10,-33 10,-79 0,-51 4,-81 11,-83 9,-3 11,-49 10,-156 -2,-130 0,-153 13,-158 13,-5 16,-25 16,-109 0,-82 3,-104 15,-109 12,-4 15,-28 15,-129 0,-95 3,-127 14,-136 9,-8 12,-24 9,-49 -4,-27 -1,-42 11,-51 13,-11 16,-34 16,-111 0,-78 3,-99 15,-104 11,-4 15,-22 15,-71 0,-37 4,-65 10,-65 6,0 10,-27 10,-60 0,-45 4,-62 15,-66 10,-4 15,-20 15,-44 0,-24 5,-40 15,-44 11,-4 15,-23 15,-81 0,-43 4,-75 10,-75 6,0 10,-23 10,-50 0,-36 4,-52 15,-56 11,-5 15,-22 15,-69 0,-47 4,-64 15,-69 8,-3 15,-15 15,-26 0,-11 5,-20 10,-20 6,0 10,-23 10,-50 0,-36 4,-52 15,-56 9,-4 15,-19 15,-39 0,-18 7,-38 15,-45 8,-7 15,-28 15,-46 0,-19 5,-34 10,-34 6,0 10,-22 10,-49 0,-34 4,-51 15,-55 9,-3 15,-18 15,-40 0,-21 6,-36 15,-40 9,-3 15,-18 15,-40 0,-19 5,-38 10,-41 6,-3 10,-21 10,-40 0,-20 6,-35 15,-39 9,-3 15,-18 15,-40 0,-22 6,-36 16,-40 12,-4 15,-15 12,-37 -3,-20 0,-33 9,-36 7,-3 13,-16 13,-29 0,-14 7,-27 15,-30 9,-4 15,-19 15,-39 0,-18 7,-38 15,-45 8,-7 15,-21 15,-31 0,-11 5,-19 10,-19 6,0 10,-16 10,-35 0,-22 6,-38 15,-41 10,-4 15,-20 15,-44 0,-24 5,-40 15,-44 9,-3 15,-18 15,-38 0,-24 7,-39 25,-52 18,-13 25,-28 25,-51 0,-18 7,-38 15,-45 8,-7 13,-16 10,-20 -3,-5 2,-15 10,-23 8,-9 15,-28 15,-43 0,-17 11,-38 31,-56 23,-22 29,-36 25,-53 -4,-14 0,-27 9,-35 8,-7 15,-21 15,-32 0,-10 7,-21 15,-24 8,-4 15,-15 15,-26 0,-11 7,-26 16,-35 8,-9 13,-21 10,-28 -3,-8 2,-16 10,-19 8,-3 14,-15 14,-26 0,-11 7,-23 15,-26 8,-4 15,-17 15,-29 0,-13 5,-25 10,-27 6,-2 12,-13 13,-26 0,-12 7,-22 14,-22 7,0 13,-11 13,-25 0,-14 7,-28 15,-31 8,-4 15,-15 15,-26 0,-12 11,-31 25,-44 14,-13 25,-29 25,-37 0,-8 7,-20 15,-27 8,-7 15,-21 15,-31 0,-11 5,-19 10,-19 6,0 10,-8 10,-19 0,-10 7,-24 15,-31 8,-7 15,-20 15,-29 0,-10 11,-28 25,-41 14,-13 25,-32 25,-42 0,-10 7,-21 15,-24 8,-4 15,-15 15,-26 0,-10 11,-29 25,-42 14,-13 25,-30 25,-38 0,-9 7,-21 15,-28 8,-7 15,-20 15,-30 0,-9 11,-26 25,-36 14,-10 25,-27 25,-36 0,-10 18,-35 40,-57 29,-28 40,-47 40,-68 0,-22 9,-37 30,-53 17,-13 30,-32 30,-44 0,-12 11,-30 25,-40 14,-10 25,-27 25,-37 0,-10 11,-26 25,-37 14,-11 25,-28 25,-38 0,-10 11,-28 25,-40 14,-12 28,-32 30,-43 2,-12 23,-39 46,-60 23,-22 39,-43 36,-48 -3,-5 19,-33 49,-62 30,-29 54,-59 54,-67 0,-8 18,-32 40,-54 22,-22 40,-47 40,-55 0,-8 25,-39 55,-68 30,-29 55,-60 55,-68 0,-9 29,-44 65,-78 36,-35 65,-69 65,-78 0,-8 36,-50 80,-94 44,-43 80,-85 80,-93 0,-18 697,-716 715,-716 8,0 57,-43 108,-95 52,-52 100,-95 108,-95 8,0 50,-36 94,-80 44,-44 86,-80 93,-80 8,0 32,-18 53,-40 22,-22 48,-40 59,-40 15,0 20,-7 20,-25 0,-19 5,-25 20,-25 12,0 31,-11 44,-25 13,-14 30,-25 37,-25 8,0 39,-25 69,-55 30,-30 62,-55 71,-55 10,0 26,-11 37,-25 11,-14 27,-25 35,-25 8,0 32,-18 53,-40 22,-22 47,-40 57,-40 10,0 20,-7 23,-15 4,-8 15,-15 26,-15 11,0 38,-18 59,-40 22,-22 45,-40 51,-40 7,0 30,-16 50,-35 36,-34 38,-35 124,-35 86,0 87,0 121,35 19,19 41,35 49,35 8,0 26,12 40,27 14,15 32,28 40,28 8,0 27,12 43,28 16,15 36,27 44,27 9,0 24,11 35,25 11,14 27,25 36,25 10,0 27,11 40,25 13,14 30,25 38,25 8,0 46,31 84,70 38,38 75,70 83,70 7,0 31,18 52,40 22,22 46,40 54,40 9,0 37,22 64,50 27,27 55,50 63,50 7,0 38,25 68,55 30,30 60,55 67,55 7,0 49,36 94,80 44,44 86,80 94,80 21,0 795,779 795,801 0,14 7,19 25,19 19,0 25,5 25,21 0,13 31,51 80,99 44,43 80,85 80,92 0,8 18,32 40,53 22,21 40,45 40,53 0,7 32,44 70,83 38,38 70,77 70,87 0,9 11,26 25,36 14,10 25,26 25,35 0,9 18,34 40,56 21,22 39,46 40,53 0,6 18,30 40,52 22,22 40,47 40,55 0,9 18,33 40,54 22,21 40,45 40,53 0,9 7,21 15,28 8,7 12,17 9,22 -4,5 12,27 35,48 23,22 41,48 41,60 0,11 7,23 15,26 8,4 15,15 15,25 0,11 18,35 40,55 22,20 40,44 40,54 0,9 11,26 25,36 14,10 25,29 25,42 0,12 7,25 15,28 8,4 15,14 15,23 0,10 11,28 25,41 14,13 25,32 25,42 0,10 7,21 15,24 8,4 15,16 15,29 0,13 7,25 15,29 8,3 15,14 15,24 0,10 11,29 25,42 14,13 25,32 25,42 0,10 7,21 15,24 8,4 15,17 15,30 0,13 5,24 10,24 6,0 10,8 10,18 0,10 14,31 30,47 17,16 30,37 30,47 0,10 5,18 10,18 6,0 10,11 10,24 0,13 7,26 15,30 8,3 15,14 15,24 0,11 7,25 15,32 9,7 14,19 11,27 -3,8 1,16 9,19 8,4 15,16 15,29 0,13 7,25 15,29 8,3 15,14 15,24 0,11 7,25 15,32 8,7 15,21 15,31 0,11 5,19 10,19 6,0 10,11 10,24 0,13 7,26 15,30 9,3 15,18 15,36 0,20 9,39 25,54 14,13 25,32 25,44 0,11 7,22 15,26 9,3 15,19 15,41 0,19 5,35 10,35 6,0 10,9 10,19 0,11 7,26 15,35 8,8 15,21 15,29 0,8 7,20 15,27 8,7 15,27 15,45 0,20 6,35 15,39 8,3 12,12 9,21 -4,8 1,17 10,21 11,4 16,18 16,44 0,24 5,40 15,44 8,3 15,15 15,26 0,11 5,20 10,20 6,0 10,11 10,25 0,14 7,28 15,31 9,4 15,19 15,40 0,22 6,37 15,40 10,4 15,20 15,44 0,22 5,40 13,43 9,3 12,16 9,36 -3,22 0,33 12,37 10,4 16,18 16,40 0,22 6,37 15,40 9,4 15,19 15,39 0,18 6,38 14,44 7,6 11,22 9,34 -3,14 2,31 11,40 9,8 16,30 16,47 0,18 6,33 15,36 9,4 15,19 15,39 0,19 5,37 10,40 5,3 10,21 10,40 0,20 6,35 15,39 11,4 15,20 15,55 0,34 4,51 15,55 11,4 15,20 15,56 0,27 5,50 10,50 6,0 10,22 10,49 0,34 4,51 15,55 9,3 15,18 15,36 0,17 7,38 15,46 10,10 15,35 15,75 0,33 4,59 10,59 6,0 10,16 10,35 0,22 6,38 15,41 11,5 15,23 15,79 0,52 4,76 15,85 10,8 15,31 15,71 0,33 4,59 10,59 6,0 10,28 10,64 0,48 4,65 15,70 10,4 15,19 15,49 0,28 6,49 16,57 12,11 15,33 13,109 -1,64 2,96 10,99 7,2 11,35 11,93 0,70 3,91 15,95 12,5 15,28 15,118 0,74 4,116 12,124 8,8 11,43 9,108 -2,89 -1,96 18,101 l 21,5 v 769 c 0,642 -2,769 -14,769 -7,0 -22,11 -32,25 -10,14 -27,25 -36,25 -10,0 -35,18 -57,40 -21,22 -45,40 -52,40 -8,0 -38,25 -68,55 -30,30 -61,55 -69,55 -8,0 -32,18 -53,40 -22,22 -47,40 -57,40 -19,0 -47,36 -47,60 0,8 -11,17 -25,18 -14,2 -29,10 -33,18 -4,8 -15,14 -24,14 -8,0 -44,29 -79,65 -36,37 -73,65 -84,65 -11,0 -20,4 -20,9 0,5 -13,13 -28,19 -16,5 -55,37 -88,71 -34,33 -67,61 -76,61 -8,0 -31,18 -51,40 -19,22 -44,40 -54,40 -10,0 -34,18 -53,40 -19,22 -42,40 -50,40 -9,0 -38,23 -65,50 -27,28 -56,50 -65,50 -8,0 -32,18 -53,40 -20,22 -45,40 -55,40 -9,0 -33,18 -52,40 -19,22 -42,40 -51,40 -8,0 -40,25 -71,55 -30,30 -62,55 -70,55 -8,0 -31,18 -51,40 -19,22 -43,40 -52,40 -9,0 -33,18 -54,40 -21,22 -44,40 -52,40 -8,0 -33,18 -54,40 -21,22 -45,40 -52,40 -8,0 -42,29 -78,65 -35,36 -72,65 -83,65 -11,0 -22,7 -26,15 -3,8 -14,15 -23,15 -21,0 -133,108 -133,128 0,8 -18,12 -55,12 -40,0 -55,-4 -55,-14 0,-7 -11,-22 -25,-32 -14,-10 -25,-27 -25,-36 0,-22 -275,-298 -297,-298 -8,0 -24,-11 -35,-25 -11,-14 -28,-25 -38,-25 -9,0 -23,-7 -30,-15 -7,-8 -19,-15 -27,-15 -8,0 -24,-11 -37,-25 -13,-14 -30,-25 -38,-25 -9,0 -21,-7 -28,-15 -7,-8 -20,-15 -30,-15 -10,0 -23,-7 -30,-15 -7,-8 -21,-15 -31,-15 -11,0 -19,-4 -19,-10 0,-5 -8,-10 -19,-10 -10,0 -24,-7 -31,-15 -7,-8 -20,-15 -30,-15 -10,0 -23,-7 -30,-15 -7,-8 -21,-15 -31,-15 -11,0 -19,-4 -19,-10 0,-5 -16,-10 -35,-10 -22,0 -38,-6 -41,-15 -4,-9 -19,-15 -39,-15 -18,0 -38,-7 -45,-15 -7,-8 -21,-15 -31,-15 -11,0 -19,-4 -19,-10 0,-6 -28,-10 -64,-10 -48,0 -65,-4 -70,-15 -3,-9 -18,-15 -39,-15 -19,0 -40,-7 -47,-15 -9,-11 -32,-15 -81,-15 -37,0 -71,-4 -74,-10 -3,-5 -39,-10 -80,-10 -55,0 -74,-4 -79,-15 -5,-13 -60,-15 -411,-15 -351,0 -406,2 -411,15 -5,11 -24,15 -79,15 -41,0 -77,5 -80,10 -3,6 -44,10 -89,10 -62,0 -87,4 -96,15 -7,8 -27,15 -45,15 -20,0 -35,6 -39,15 -3,9 -19,15 -41,15 -19,0 -35,5 -35,10 0,6 -23,10 -50,10 -36,0 -52,4 -56,15 -4,8 -14,15 -24,15 -10,0 -23,7 -30,15 -7,8 -28,15 -46,15 -19,0 -34,5 -34,10 0,6 -15,10 -32,10 -23,0 -42,10 -62,30 -19,19 -40,30 -57,30 -15,0 -31,5 -34,10 -3,6 -14,10 -23,10 -10,0 -29,12 -42,28 -14,15 -33,28 -44,30 -10,2 -28,14 -41,28 -12,13 -29,24 -37,24 -9,0 -21,7 -28,15 -7,8 -19,15 -27,15 -9,0 -33,18 -54,40 -22,22 -46,40 -54,40 -22,0 -265,247 -265,269 0,16 -21,31 -62,45 -10,3 -18,12 -18,21 0,23 -47,19 -53,-5 z m 13,-540 c 0,-5 7,-10 15,-10 9,0 20,-11 25,-25 5,-14 16,-25 25,-25 8,0 32,-15 53,-34 41,-37 139,-106 151,-106 4,0 18,-11 31,-25 13,-14 30,-25 37,-25 8,0 24,-9 36,-20 12,-12 44,-32 72,-46 27,-13 57,-28 65,-33 8,-4 24,-12 35,-18 11,-5 34,-17 50,-26 53,-28 183,-87 193,-87 5,0 15,-6 21,-14 7,-8 30,-17 52,-21 21,-4 41,-11 45,-16 3,-5 22,-9 43,-9 20,0 46,-7 57,-15 10,-8 31,-15 45,-15 14,0 29,-3 33,-7 12,-13 88,-35 146,-43 51,-7 103,-22 142,-41 9,-4 62,-11 117,-15 56,-4 104,-11 107,-15 3,-5 58,-9 123,-9 73,0 121,-4 128,-11 15,-15 453,-15 481,0 12,6 68,11 126,11 58,0 106,4 106,9 0,5 44,12 98,16 53,3 104,10 113,15 9,5 33,12 53,15 20,4 39,11 42,16 3,5 37,9 75,9 53,0 71,4 75,15 4,8 17,15 30,15 13,0 24,5 24,10 0,6 15,10 34,10 18,0 39,7 46,15 7,8 25,15 41,15 15,0 31,5 34,10 3,6 19,10 34,10 16,0 34,7 41,15 7,8 19,15 27,15 7,0 25,7 38,16 13,9 28,13 33,10 5,-3 18,1 28,9 10,8 26,15 35,15 9,0 22,7 29,15 7,8 23,15 35,15 13,0 37,11 53,25 17,14 37,25 45,25 9,0 18,4 22,9 3,6 29,21 58,35 29,13 61,34 71,45 11,12 26,21 34,21 8,0 44,22 81,49 36,26 74,52 83,57 9,5 50,42 92,82 41,39 84,72 94,72 28,0 75,-26 118,-65 21,-19 42,-35 47,-35 5,0 29,-18 54,-40 25,-22 51,-40 57,-40 6,-1 29,-19 51,-40 22,-22 45,-40 50,-40 6,0 37,-25 70,-55 33,-30 65,-55 70,-55 6,0 33,-22 60,-50 27,-27 55,-50 62,-50 7,0 28,-13 46,-30 19,-16 39,-30 43,-30 5,0 34,-23 64,-50 30,-28 59,-50 65,-50 6,0 24,-13 40,-30 16,-16 36,-30 45,-30 9,0 23,-11 30,-25 7,-14 18,-25 23,-25 6,0 36,-25 68,-55 32,-30 64,-55 72,-55 7,0 24,-11 37,-25 13,-14 28,-25 34,-25 6,0 37,-25 70,-55 32,-30 64,-55 70,-55 7,0 23,-12 37,-26 13,-15 40,-37 59,-49 19,-13 47,-35 62,-49 15,-14 30,-26 33,-26 9,0 50,-33 97,-76 20,-19 42,-34 48,-34 6,0 23,-12 38,-26 15,-14 43,-36 62,-49 19,-12 57,-44 83,-70 40,-39 50,-55 55,-93 10,-74 6,-675 -7,-902 -14,-264 -35,-551 -43,-570 -9,-25 -38,-291 -38,-352 0,-31 -4,-59 -9,-62 -5,-3 -12,-34 -16,-68 -4,-34 -11,-69 -15,-78 -8,-14 -25,-126 -36,-235 -3,-27 -9,-59 -15,-70 -12,-26 -29,-104 -38,-177 -4,-32 -12,-63 -19,-70 -7,-7 -12,-36 -12,-64 0,-29 -4,-55 -9,-58 -5,-3 -12,-23 -16,-43 -4,-21 -10,-42 -15,-48 -4,-5 -16,-50 -25,-100 -9,-49 -23,-100 -31,-112 -8,-12 -14,-40 -14,-62 0,-22 -4,-43 -10,-46 -5,-3 -10,-19 -10,-34 0,-16 -7,-34 -15,-41 -8,-7 -15,-25 -15,-41 0,-15 -4,-30 -9,-33 -5,-3 -12,-23 -16,-43 -4,-21 -10,-42 -13,-48 -7,-10 -10,-25 -15,-60 -2,-12 -7,-27 -12,-35 -15,-23 -45,-112 -45,-132 0,-18 -3,-26 -34,-85 -9,-17 -16,-39 -16,-50 0,-10 -7,-27 -15,-37 -8,-11 -15,-32 -15,-47 0,-15 -4,-31 -10,-34 -5,-3 -10,-14 -10,-24 0,-10 -13,-43 -30,-74 -16,-31 -30,-66 -30,-77 0,-12 -9,-30 -20,-42 -10,-11 -22,-34 -25,-49 -4,-16 -17,-50 -31,-75 -13,-25 -24,-52 -24,-60 0,-9 -11,-30 -25,-48 -14,-18 -25,-42 -25,-53 0,-10 -7,-28 -15,-39 -8,-10 -15,-26 -15,-35 0,-9 -7,-22 -15,-29 -8,-7 -15,-21 -15,-30 0,-10 -3,-20 -7,-22 -8,-3 -30,-45 -59,-115 -10,-24 -21,-43 -26,-43 -4,0 -8,-8 -8,-19 0,-10 -7,-24 -15,-31 -8,-7 -15,-20 -15,-30 0,-10 -7,-23 -15,-30 -8,-7 -15,-21 -15,-30 0,-10 -3,-20 -8,-22 -6,-3 -29,-46 -46,-88 -3,-8 -15,-28 -25,-45 -11,-16 -20,-37 -20,-46 -1,-9 -7,-19 -15,-22 -7,-3 -23,-25 -35,-50 -12,-24 -30,-52 -41,-62 -11,-10 -20,-26 -20,-35 0,-10 -7,-23 -15,-30 -8,-7 -15,-18 -15,-25 0,-7 -11,-23 -25,-36 -13,-13 -25,-29 -25,-36 0,-15 -31,-72 -52,-97 -10,-11 -27,-37 -38,-58 -11,-22 -25,-45 -30,-51 -37,-44 -70,-91 -70,-100 0,-6 -14,-26 -31,-43 -33,-34 -51,-62 -70,-107 -6,-15 -14,-27 -18,-27 -4,0 -17,-17 -29,-37 -11,-21 -41,-60 -66,-88 -25,-27 -46,-55 -46,-61 0,-6 -11,-21 -25,-34 -14,-13 -25,-29 -25,-35 0,-6 -25,-39 -55,-72 -30,-34 -55,-64 -55,-67 0,-3 -8,-14 -17,-24 -30,-31 -88,-104 -92,-116 -4,-11 -82,-97 -113,-125 -10,-8 -18,-21 -18,-27 0,-7 -51,-65 -112,-129 -62,-65 -117,-125 -122,-134 -5,-8 -84,-91 -175,-184 -91,-92 -167,-172 -169,-177 -2,-6 -8,-10 -14,-10 -5,0 -47,-37 -93,-82 -101,-100 -288,-269 -332,-300 -49,-35 -133,-105 -185,-154 -26,-24 -53,-44 -60,-44 -8,0 -36,-23 -63,-51 -28,-28 -63,-56 -80,-64 -16,-7 -44,-27 -62,-44 -18,-17 -34,-31 -36,-31 -11,0 -124,-81 -146,-104 -14,-14 -30,-26 -37,-26 -7,0 -19,-6 -26,-13 -65,-63 -141,-63 -206,0 -7,7 -18,13 -24,13 -6,0 -37,25 -70,55 -32,30 -65,55 -72,55 -7,0 -23,11 -36,25 -13,14 -28,25 -34,25 -6,0 -34,22 -62,48 -29,26 -63,54 -77,62 -71,43 -137,92 -177,134 -24,25 -49,46 -55,46 -5,0 -28,18 -50,41 -22,23 -59,55 -82,72 -24,17 -43,34 -43,39 0,4 -5,8 -12,8 -6,0 -62,51 -125,112 -62,62 -121,117 -131,122 -9,5 -42,35 -73,65 -31,31 -76,75 -100,98 -86,83 -194,195 -199,208 -3,8 -58,69 -124,137 -147,153 -162,169 -172,190 -5,9 -35,43 -66,76 -32,33 -58,64 -58,69 -1,4 -25,35 -55,68 -30,33 -55,64 -55,70 0,6 -14,24 -31,41 -17,16 -39,45 -49,64 -10,19 -39,58 -64,85 -25,28 -46,56 -46,63 0,6 -4,12 -10,12 -5,0 -10,6 -10,14 0,8 -7,16 -15,20 -8,3 -15,11 -15,19 0,7 -11,24 -25,37 -14,13 -25,29 -25,36 0,6 -7,14 -15,18 -8,3 -15,11 -15,18 0,7 -18,32 -40,56 -22,24 -40,48 -40,55 -1,7 -14,30 -30,52 -17,22 -36,54 -44,71 -8,17 -22,37 -31,44 -9,7 -27,37 -40,65 -14,29 -34,60 -45,70 -11,10 -20,26 -20,35 0,9 -11,27 -25,40 -14,13 -25,29 -25,36 0,6 -7,17 -15,24 -8,7 -15,20 -15,30 0,9 -9,25 -20,35 -19,17 -60,92 -60,111 0,5 -11,21 -25,36 -13,14 -27,39 -31,55 -4,15 -18,41 -31,56 -12,16 -23,35 -23,43 0,8 -4,14 -10,14 -5,0 -10,8 -10,19 0,10 -7,24 -15,31 -8,7 -15,19 -15,26 0,8 -11,32 -25,54 -14,22 -25,46 -25,54 0,7 -7,19 -15,26 -8,7 -15,19 -15,26 0,8 -11,32 -25,54 -14,22 -25,46 -25,54 0,7 -7,19 -15,26 -8,7 -15,18 -15,25 0,6 -11,33 -25,59 -14,26 -25,58 -25,71 0,13 -4,26 -9,30 -11,6 -71,127 -71,142 0,6 -7,16 -15,23 -8,7 -15,29 -15,50 0,25 -8,46 -25,66 -14,16 -25,41 -25,55 0,15 -7,32 -15,39 -8,7 -15,21 -15,31 0,10 -4,20 -9,23 -5,3 -12,27 -16,52 -4,26 -18,65 -32,86 -13,22 -22,45 -20,52 3,7 -1,26 -8,42 -28,60 -45,107 -45,124 0,10 -6,31 -14,47 -8,15 -20,48 -26,73 -7,25 -17,59 -24,75 -25,58 -37,100 -42,140 -3,22 -9,44 -13,50 -12,15 -39,114 -44,160 -3,22 -14,60 -25,85 -11,25 -23,67 -26,94 -3,27 -10,54 -15,60 -5,6 -11,31 -14,56 -10,85 -29,175 -38,185 -5,5 -9,23 -9,40 0,16 -7,43 -15,59 -9,18 -15,57 -15,105 -1,51 -5,82 -15,95 -8,11 -15,41 -15,67 0,26 -4,50 -9,53 -4,3 -11,40 -15,83 -3,42 -11,82 -16,87 -6,6 -10,40 -10,77 0,37 -4,70 -9,73 -4,3 -11,74 -15,158 -4,84 -11,157 -16,163 -5,6 -12,62 -16,125 -3,63 -10,120 -15,126 -5,6 -10,275 -11,598 l -3,588 60,54 c 33,30 64,54 70,54 6,0 29,18 50,40 21,22 43,40 48,40 5,0 18,11 29,25 11,14 25,25 31,25 7,0 26,13 44,28 18,15 59,47 93,72 33,24 60,48 60,52 0,5 5,8 11,8 6,0 31,18 56,40 25,22 50,40 54,40 9,0 45,28 81,63 10,9 20,17 23,17 10,0 95,64 95,72 0,4 5,8 12,8 6,0 37,25 69,55 32,30 64,55 71,55 8,0 36,23 63,50 27,28 53,50 59,50 5,0 30,17 55,38 50,41 73,58 158,118 32,23 67,51 77,63 11,11 24,21 29,21 5,0 32,20 58,45 26,25 54,45 61,45 8,0 36,23 63,50 27,28 56,50 65,50 9,0 34,18 55,40 21,22 44,40 50,40 5,0 28,18 50,40 22,21 48,39 57,40 9,0 20,5 23,10 3,6 15,10 26,10 10,0 19,-4 19,-10 z"
       id="path1" />
    <path
       d="m 6970,10276 c 0,-13 -7,-26 -15,-30 -8,-3 -15,-13 -16,-23 0,-10 -10,-36 -22,-58 l -22,-40 -73,-3 c -71,-3 -113,-21 -111,-47 0,-5 29,-35 64,-65 69,-60 74,-73 50,-140 -27,-76 -14,-161 16,-111 7,10 17,17 23,15 6,-2 24,8 41,23 24,23 39,28 82,28 43,0 57,-5 80,-27 16,-16 36,-28 45,-28 9,0 19,-8 22,-17 13,-34 28,4 22,54 -4,26 -9,75 -12,108 l -5,60 48,23 c 28,14 56,36 66,54 17,29 16,30 -5,49 -18,14 -39,18 -91,19 -43,0 -73,5 -80,13 -18,19 -47,77 -47,92 0,7 -7,18 -15,25 -8,7 -15,21 -15,31 0,11 -7,19 -15,19 -9,0 -15,-9 -15,-24 z"
       id="path2" />
    <path
       d="m 2820,10258 c -8,-13 -27,-49 -42,-80 l -28,-58 h -59 c -33,0 -63,-4 -66,-10 -3,-5 -14,-10 -23,-10 -9,0 -24,-4 -32,-10 -12,-8 -12,-11 1,-27 9,-10 19,-26 22,-35 4,-10 13,-18 21,-18 22,0 86,-59 86,-79 0,-9 -9,-33 -20,-55 -16,-29 -20,-47 -14,-82 7,-49 10,-50 50,-30 15,8 31,13 34,11 4,-2 20,9 35,25 32,33 88,42 99,15 3,-8 15,-15 26,-15 11,0 23,-7 26,-15 4,-8 14,-15 24,-15 10,0 23,-7 30,-15 28,-33 41,25 19,82 -6,15 -13,47 -16,70 -4,41 -2,44 64,107 54,52 65,68 53,75 -8,5 -17,8 -21,5 -4,-2 -12,3 -19,11 -8,10 -31,15 -68,15 -47,0 -60,4 -84,27 -17,17 -28,37 -28,54 0,15 -7,34 -15,43 -8,8 -15,19 -15,25 0,19 -25,12 -40,-11 z"
       id="path3" />
    <path
       d="m 1998,9699 c -10,-10 -18,-27 -18,-36 0,-10 -7,-31 -15,-47 -8,-15 -15,-33 -15,-38 0,-26 -35,-42 -96,-43 -59,-1 -114,-18 -114,-36 0,-4 29,-35 65,-70 62,-60 65,-64 65,-110 0,-26 -4,-50 -9,-53 -15,-10 -24,-87 -12,-99 8,-8 14,-8 19,-2 4,6 25,19 47,29 22,11 53,31 68,45 23,22 31,24 47,13 11,-7 26,-12 33,-12 7,0 24,-11 37,-25 13,-14 28,-25 33,-25 6,0 19,-7 29,-17 10,-9 21,-13 26,-9 13,14 5,110 -12,141 -14,27 -14,31 -1,41 8,6 15,18 15,27 0,8 25,39 55,68 52,50 70,88 43,90 -7,1 -46,0 -86,-1 -84,-2 -104,10 -117,70 -4,18 -16,43 -27,54 -10,11 -21,31 -24,43 -7,27 -13,28 -36,2 z"
       id="path4" />
    <path
       d="m 3163,9703 c -13,-8 -23,-26 -23,-39 0,-12 -4,-26 -10,-29 -5,-3 -10,-16 -10,-28 0,-13 -7,-33 -16,-45 -13,-20 -24,-22 -93,-22 -65,0 -81,-3 -96,-20 -16,-18 -17,-23 -4,-46 7,-14 35,-40 62,-58 l 49,-31 -7,-80 c -5,-54 -12,-83 -22,-91 -18,-13 -12,-41 12,-50 8,-4 30,5 50,20 63,48 112,65 153,53 21,-6 47,-21 59,-33 13,-14 36,-24 60,-26 35,-3 38,-1 41,24 2,15 -4,38 -13,51 -24,37 -24,120 -1,146 11,12 26,21 33,21 16,0 83,59 83,72 0,4 -9,17 -20,28 -17,17 -34,20 -102,20 h -83 l -18,36 c -9,19 -15,39 -12,44 3,4 -2,13 -10,20 -8,7 -15,21 -15,30 0,23 -10,50 -19,49 -3,0 -16,-7 -28,-16 z"
       id="path5" />
    <path
       d="m 4319,9718 c 0,-2 -3,-14 -5,-28 -3,-14 -9,-26 -14,-28 -6,-2 -10,-10 -10,-17 0,-7 -7,-26 -15,-41 -8,-16 -15,-37 -15,-46 0,-20 3,-19 -95,-21 -57,-2 -75,-6 -94,-24 l -23,-21 39,-36 c 21,-19 43,-36 48,-36 6,-1 20,-16 32,-35 17,-26 20,-44 16,-72 -3,-21 -10,-43 -15,-49 -13,-17 -19,-77 -8,-94 8,-12 11,-12 28,3 10,9 24,17 32,17 7,0 20,8 29,18 26,28 68,52 94,52 13,0 36,-13 52,-30 15,-16 45,-38 66,-48 32,-16 39,-17 44,-5 10,28 5,89 -10,109 -32,42 -20,77 51,143 62,59 65,64 49,81 -12,13 -35,19 -89,22 -73,3 -106,19 -106,50 0,8 -5,19 -11,25 -6,6 -13,25 -15,42 -6,34 -49,88 -55,69 z"
       id="path6" />
    <path
       d="m 6625,9690 c -4,-16 -11,-30 -16,-30 -5,0 -9,-15 -9,-34 0,-18 -7,-39 -15,-46 -8,-7 -15,-18 -15,-25 0,-15 -118,-32 -146,-21 -10,4 -26,-3 -41,-18 l -24,-24 47,-44 c 89,-81 92,-86 87,-132 -3,-22 -9,-45 -14,-50 -11,-12 -12,-109 -1,-104 4,2 21,10 37,18 17,8 41,25 55,37 14,13 30,23 37,23 7,0 13,5 13,10 0,6 9,10 20,10 11,0 20,-5 20,-11 0,-5 4,-8 9,-4 6,3 25,-8 44,-25 22,-19 46,-30 65,-30 17,0 32,-6 36,-15 3,-8 10,-15 16,-15 5,0 10,7 10,15 0,8 -4,15 -10,15 -5,0 -10,20 -10,44 0,26 -6,48 -15,56 -27,22 -18,73 18,108 18,18 40,32 49,32 23,0 48,38 48,71 0,27 0,27 -94,34 -94,7 -95,7 -106,39 -6,17 -18,44 -26,59 -8,16 -14,34 -14,41 0,13 -31,46 -42,46 -4,0 -9,-13 -13,-30 z"
       id="path7" />
    <path
       d="m 7788,9699 c -10,-10 -18,-29 -18,-42 0,-13 -7,-32 -15,-43 -8,-10 -15,-25 -15,-32 0,-31 -32,-46 -99,-47 -61,0 -111,-17 -111,-37 0,-5 29,-36 65,-69 54,-52 65,-67 65,-95 0,-18 -4,-36 -10,-39 -5,-3 -10,-16 -10,-28 0,-13 -7,-32 -15,-44 -14,-21 -14,-24 5,-43 20,-20 23,-20 39,-6 10,9 21,16 25,16 5,0 21,11 38,25 16,14 36,25 43,25 7,0 15,5 17,12 7,19 67,-10 114,-55 50,-47 78,-47 82,1 2,19 -3,44 -12,56 -8,13 -16,44 -19,71 -3,39 0,52 18,71 12,13 26,24 32,24 16,0 83,75 83,93 0,18 -15,20 -118,17 -54,-2 -92,17 -92,45 0,14 -30,78 -41,85 -4,3 -9,16 -10,29 -5,31 -19,34 -41,10 z"
       id="path8" />
    <path
       d="m 5466,9684 c -9,-8 -16,-24 -16,-34 0,-10 -4,-22 -10,-25 -5,-3 -10,-19 -10,-34 0,-16 -6,-33 -12,-39 -7,-6 -53,-13 -101,-15 -49,-3 -90,-7 -92,-9 -1,-2 -5,-13 -9,-24 -5,-18 5,-31 59,-73 36,-29 69,-59 72,-68 3,-8 -1,-28 -11,-43 -9,-16 -16,-44 -16,-63 0,-20 -4,-39 -10,-42 -13,-8 -13,-42 0,-50 11,-7 70,15 70,26 0,13 80,48 113,51 24,1 47,-7 81,-30 26,-18 53,-32 61,-32 7,0 15,-6 18,-12 2,-7 8,-10 13,-5 10,9 6,87 -5,102 -5,5 -11,28 -14,50 -6,39 -5,42 64,111 68,69 69,71 50,88 -14,13 -40,18 -101,21 -45,2 -83,5 -84,7 -2,1 -11,28 -20,58 -16,51 -49,100 -67,100 -4,0 -15,-7 -23,-16 z"
       id="path9" />
    <path
       d="m 1361,8957 c -11,-13 -21,-32 -21,-44 0,-11 -10,-40 -23,-64 l -24,-44 -94,-10 c -79,-8 -94,-13 -97,-29 -4,-18 61,-85 83,-86 30,-1 61,-119 35,-135 -13,-8 -13,-125 -1,-125 6,0 13,5 16,10 3,6 13,10 22,10 8,0 33,18 55,40 43,42 68,50 88,25 7,-8 19,-15 26,-15 8,0 33,-12 55,-26 71,-45 93,-21 64,69 -10,29 -17,62 -17,73 -1,25 32,73 48,74 7,0 29,15 49,33 l 38,34 -21,21 c -16,16 -40,23 -98,29 -52,6 -79,13 -84,23 -35,70 -60,127 -60,137 0,22 -17,22 -39,0 z"
       id="path10" />
    <path
       d="m 2380,8972 c 0,-6 -7,-18 -17,-27 -9,-9 -16,-30 -16,-46 0,-16 -4,-29 -9,-29 -4,0 -8,-6 -8,-14 0,-8 -8,-23 -17,-35 -15,-17 -35,-22 -108,-28 -118,-10 -122,-24 -30,-107 57,-52 65,-63 65,-96 0,-20 -4,-40 -9,-45 -13,-14 -22,-98 -13,-113 11,-16 64,9 112,55 19,18 40,33 46,33 17,0 77,-32 99,-52 23,-22 59,-33 81,-24 13,5 14,15 9,49 -4,23 -11,50 -16,59 -16,30 -10,94 9,111 10,10 24,17 30,17 22,0 84,67 80,86 -3,16 -18,21 -95,29 -90,10 -111,18 -117,46 -7,32 -29,79 -36,79 -5,0 -10,12 -12,27 -3,25 -28,47 -28,25 z"
       id="path11" />
    <path
       d="m 3378,8956 c -9,-13 -25,-49 -36,-80 -11,-32 -23,-61 -28,-66 -5,-5 -49,-13 -99,-17 -75,-7 -90,-11 -93,-26 -4,-20 60,-87 83,-87 13,0 28,-34 26,-57 -1,-6 3,-14 9,-18 12,-8 13,-48 1,-60 -5,-6 -11,-30 -13,-55 -3,-44 -2,-45 28,-48 29,-3 44,6 105,63 26,25 61,17 109,-25 43,-38 91,-52 104,-31 3,5 1,31 -5,57 -21,97 -22,113 -5,129 9,9 16,23 16,31 0,8 8,14 18,14 24,0 84,66 80,88 -3,14 -22,19 -97,27 -73,8 -96,14 -103,28 -4,9 -13,25 -18,35 -6,9 -13,24 -16,32 -3,8 -9,24 -14,35 -5,11 -11,28 -14,38 -7,23 -18,21 -38,-7 z"
       id="path12" />
    <path
       d="m 4393,8958 c -11,-13 -24,-40 -27,-60 -4,-21 -11,-38 -16,-38 -6,0 -10,-8 -10,-19 0,-33 -29,-46 -119,-51 -113,-7 -117,-20 -27,-102 59,-54 66,-65 66,-99 0,-21 -4,-40 -9,-43 -11,-7 -22,-73 -14,-92 3,-8 11,-14 18,-14 21,0 117,53 122,67 7,18 38,16 53,-2 7,-8 16,-15 21,-15 5,0 27,-12 48,-26 72,-47 113,-11 77,68 -22,48 -23,82 -3,102 9,10 17,24 17,32 0,8 6,14 13,14 24,0 89,66 85,86 -3,16 -17,21 -96,29 -73,8 -97,14 -108,29 -7,10 -11,22 -9,26 3,4 -2,13 -10,20 -8,7 -15,21 -15,31 0,11 -4,19 -10,19 -5,0 -10,8 -10,18 0,36 -15,44 -37,20 z"
       id="path13" />
    <path
       d="m 5398,8955 c -10,-13 -18,-31 -18,-40 0,-9 -7,-31 -16,-48 -9,-18 -20,-39 -24,-47 -5,-11 -32,-17 -91,-23 -100,-9 -109,-11 -109,-33 0,-20 63,-84 82,-84 36,0 65,-78 39,-105 -5,-6 -11,-36 -15,-68 -5,-47 -3,-59 9,-64 18,-6 78,22 115,55 37,33 69,28 120,-18 35,-32 52,-40 75,-38 29,3 30,4 27,48 -2,25 -8,49 -13,55 -25,25 7,135 40,135 21,0 83,68 79,87 -3,15 -20,20 -97,28 -66,7 -96,14 -101,25 -4,8 -16,33 -26,55 -11,22 -22,42 -26,43 -5,2 -8,12 -8,22 0,32 -23,40 -42,15 z"
       id="path14" />
    <path
       d="m 7413,8947 c -13,-18 -23,-39 -23,-47 0,-7 -7,-30 -17,-51 -18,-41 -18,-41 -150,-55 -57,-5 -63,-8 -63,-29 0,-24 52,-85 73,-85 7,-1 22,-9 35,-19 26,-23 29,-71 7,-124 -19,-46 -19,-86 0,-93 20,-8 111,37 128,64 11,17 42,15 57,-3 7,-8 17,-15 22,-15 5,0 34,-16 64,-35 30,-19 56,-35 59,-35 2,0 7,21 11,47 5,37 3,49 -10,58 -21,16 -21,84 1,123 9,16 34,36 55,45 21,9 38,24 38,32 0,8 5,15 10,15 19,0 10,15 -23,38 -27,17 -45,22 -88,20 -30,-1 -59,1 -66,5 -16,10 -42,64 -49,101 -3,17 -15,41 -27,53 l -22,23 z"
       id="path15" />
    <path
       d="m 6408,8953 c -23,-27 -48,-83 -48,-109 0,-32 -13,-38 -115,-49 -75,-8 -90,-13 -93,-29 -4,-21 55,-85 79,-86 9,0 23,-8 32,-18 22,-24 22,-119 2,-146 -20,-26 -19,-65 1,-73 17,-6 77,22 114,55 31,27 71,28 95,2 18,-20 93,-60 112,-60 20,0 25,38 9,72 -8,18 -17,49 -20,69 -6,34 -3,39 64,100 96,87 94,101 -20,112 -47,4 -90,9 -96,11 -14,5 -54,81 -54,101 0,8 -4,15 -9,15 -5,0 -12,11 -15,25 -8,29 -17,31 -38,8 z"
       id="path16" />
    <path
       d="m 8427,8952 c -10,-10 -17,-24 -17,-31 0,-7 -6,-27 -14,-44 -8,-18 -17,-41 -20,-51 -4,-10 -9,-16 -13,-13 -3,4 -15,1 -26,-5 -11,-5 -52,-13 -91,-17 -62,-5 -71,-9 -74,-27 -2,-16 15,-37 62,-79 72,-63 79,-82 51,-148 -32,-76 -10,-116 45,-83 16,9 37,16 49,16 11,0 24,6 28,13 22,34 40,38 74,18 68,-41 119,-63 133,-58 12,5 14,23 9,95 -7,103 0,142 25,142 25,1 85,64 80,86 -3,16 -16,20 -90,26 -48,3 -91,9 -97,12 -16,10 -51,85 -51,110 0,20 -27,56 -42,56 -3,0 -12,-8 -21,-18 z"
       id="path17" />
    <path
       d="m 1447,8224 c -4,-4 -7,-15 -7,-24 0,-9 -9,-25 -20,-35 -11,-10 -22,-32 -26,-49 -11,-58 -22,-65 -120,-68 -82,-3 -89,-5 -92,-24 -2,-16 12,-35 53,-70 70,-60 91,-96 71,-117 -12,-12 -20,-75 -17,-124 2,-28 80,-3 116,37 30,34 72,25 139,-28 19,-15 39,-22 60,-20 29,3 31,5 28,38 -1,19 -7,37 -12,38 -14,5 -12,114 3,133 7,9 21,19 32,23 32,10 85,64 85,85 0,25 -18,31 -103,31 -83,1 -107,14 -107,57 0,18 -9,38 -24,52 -14,13 -26,33 -28,44 -3,21 -19,32 -31,21 z"
       id="path18" />
    <path
       d="m 2418,8205 c -10,-13 -18,-32 -18,-43 0,-10 -10,-39 -23,-63 l -24,-44 -89,-5 c -83,-5 -89,-6 -92,-28 -3,-17 12,-37 62,-83 61,-57 64,-62 59,-97 -3,-20 -10,-41 -14,-46 -5,-6 -9,-29 -9,-53 0,-36 3,-43 20,-43 20,0 84,32 111,56 25,22 80,18 86,-6 3,-11 11,-20 18,-20 8,0 20,-6 28,-14 13,-13 43,-20 75,-17 15,1 17,117 2,126 -5,3 -10,19 -10,34 0,21 16,43 65,90 55,53 63,66 55,82 -9,16 -22,19 -85,19 -43,0 -75,4 -75,10 0,6 -9,10 -20,10 -15,0 -20,7 -20,25 0,14 -7,28 -15,31 -8,4 -15,18 -15,33 0,16 -10,37 -23,49 -28,27 -28,27 -49,-3 z"
       id="path19" />
    <path
       d="m 3410,8207 c 0,-14 -7,-30 -15,-37 -8,-7 -15,-18 -15,-25 0,-17 -28,-71 -43,-84 -7,-5 -51,-11 -97,-13 -107,-4 -114,-18 -44,-89 26,-26 50,-48 53,-47 34,3 46,-40 26,-89 -8,-18 -17,-53 -20,-78 l -7,-45 h 31 c 17,0 31,5 31,10 0,6 8,10 18,10 10,0 29,11 42,25 30,32 88,34 116,4 25,-27 92,-58 115,-52 11,3 19,7 19,9 0,18 -25,112 -32,121 -5,6 -8,27 -6,45 2,27 12,39 52,65 55,36 82,72 73,97 -5,13 -21,16 -81,16 -41,0 -78,5 -81,10 -3,6 -14,10 -24,10 -14,0 -21,10 -26,38 -4,20 -10,42 -15,47 -5,6 -10,24 -12,40 -2,24 -8,31 -30,33 -24,3 -28,0 -28,-21 z"
       id="path20" />
    <path
       d="m 4394,8213 c -3,-10 -12,-30 -20,-45 -8,-14 -14,-37 -14,-50 0,-15 -11,-32 -30,-46 -24,-18 -43,-22 -109,-22 -83,0 -103,-9 -77,-36 9,-8 16,-21 16,-27 0,-14 49,-57 65,-57 7,0 19,-7 26,-16 18,-22 13,-139 -7,-169 -9,-13 -13,-29 -9,-35 8,-12 55,-14 55,-1 0,5 17,11 38,14 22,4 42,15 50,27 21,34 65,25 139,-27 32,-24 77,-30 88,-14 3,5 1,12 -5,16 -5,3 -10,26 -10,50 0,31 -5,47 -17,54 -15,8 -16,13 -5,30 6,12 12,26 12,32 0,16 40,49 59,49 24,1 53,47 49,78 -3,26 -5,27 -73,30 -38,1 -84,9 -101,17 -27,13 -32,21 -37,61 -3,32 -13,54 -33,75 -32,33 -42,36 -50,12 z"
       id="path21" />
    <path
       d="m 5387,8223 c -4,-3 -7,-15 -7,-26 0,-10 -6,-31 -14,-45 -8,-15 -21,-44 -30,-64 l -17,-37 -102,-3 c -101,-3 -102,-3 -102,-28 0,-17 6,-26 20,-28 26,-5 135,-112 135,-133 0,-9 -7,-22 -15,-29 -8,-7 -15,-21 -15,-31 0,-10 -4,-21 -10,-24 -5,-3 -10,-22 -10,-41 0,-39 18,-44 66,-19 16,8 36,15 45,15 9,0 24,9 34,20 19,21 75,28 75,10 0,-5 6,-10 14,-10 8,0 28,-11 44,-25 18,-15 42,-25 61,-25 29,0 31,3 31,34 0,19 -4,38 -10,41 -5,3 -10,34 -10,69 0,65 17,96 51,96 8,0 30,15 47,33 l 32,33 -23,22 c -19,18 -35,22 -91,22 -50,0 -71,4 -85,18 -25,25 -61,90 -61,112 0,31 -11,50 -29,50 -10,0 -21,-3 -24,-7 z"
       id="path22" />
    <path
       d="m 6378,8211 c -10,-10 -18,-27 -18,-38 0,-12 -7,-23 -15,-27 -9,-3 -15,-18 -15,-39 0,-19 -6,-39 -13,-45 -7,-6 -53,-12 -102,-14 -117,-4 -120,-15 -31,-105 62,-62 79,-94 57,-108 -5,-3 -13,-30 -16,-60 -4,-30 -12,-55 -17,-55 -5,0 -6,-4 -3,-10 16,-26 103,-1 140,40 21,23 79,27 99,8 49,-48 69,-59 99,-56 37,3 47,31 26,70 -7,13 -14,46 -16,75 -4,49 -2,54 29,82 18,17 38,31 44,31 19,0 56,48 52,67 -3,15 -15,18 -90,21 -77,2 -89,5 -112,29 -14,14 -26,33 -26,42 0,9 -7,29 -15,45 -8,15 -15,37 -15,47 0,24 -19,24 -42,0 z"
       id="path23" />
    <path
       d="m 7362,8207 c -13,-14 -22,-36 -22,-54 0,-17 -4,-33 -8,-35 -5,-1 -15,-16 -23,-33 -14,-30 -15,-30 -107,-33 -113,-3 -123,-15 -66,-73 21,-21 46,-41 55,-44 16,-5 31,-49 30,-90 -1,-49 -14,-115 -22,-115 -5,0 -9,-7 -9,-15 0,-33 96,-8 144,37 11,10 27,18 37,18 19,0 71,-22 114,-50 39,-24 75,-26 76,-2 2,35 -3,77 -11,82 -4,3 -11,19 -14,37 -8,36 16,89 45,98 8,3 33,20 53,39 30,26 37,38 31,55 -6,19 -13,21 -94,21 -72,0 -91,3 -104,18 -10,10 -17,22 -17,27 0,16 -34,85 -42,85 -4,0 -8,11 -8,25 0,31 -10,32 -38,2 z"
       id="path24" />
    <path
       d="m 8354,8213 c -7,-21 -31,-72 -44,-93 -5,-8 -11,-23 -14,-32 -3,-10 -15,-18 -26,-18 -11,0 -20,-4 -20,-10 0,-5 -35,-10 -77,-12 -71,-3 -78,-5 -81,-24 -2,-15 16,-39 62,-84 63,-61 77,-85 57,-105 -5,-6 -12,-36 -16,-67 -6,-49 -5,-59 9,-64 17,-7 114,36 147,63 20,16 55,5 83,-26 11,-11 27,-21 38,-21 10,0 18,-4 18,-10 0,-5 11,-10 25,-10 24,0 25,3 25,61 0,40 -5,65 -15,75 -8,9 -15,20 -15,25 0,6 32,41 71,79 94,90 92,104 -16,108 -85,2 -125,16 -125,41 0,9 -7,25 -15,35 -8,11 -15,30 -15,43 0,20 -31,63 -45,63 -3,0 -8,-8 -11,-17 z"
       id="path25" />
    <path
       d="m 2115,7420 c -3,-5 -19,-10 -34,-10 -21,0 -48,-19 -112,-80 -46,-44 -87,-80 -92,-80 -15,0 -107,-92 -122,-123 -13,-26 -15,-109 -15,-572 v -543 l 40,-43 c 22,-24 76,-80 120,-125 44,-45 80,-85 80,-89 0,-14 80,-85 95,-85 8,0 15,-4 15,-10 0,-6 133,-10 379,-10 h 379 l 34,33 c 18,19 47,49 64,68 38,42 114,109 123,109 14,0 50,46 75,96 24,48 26,62 26,191 0,123 -2,142 -18,157 -17,14 -47,16 -272,14 -213,-3 -254,-5 -260,-18 -4,-8 -12,-25 -18,-37 -7,-13 -12,-52 -12,-87 0,-84 -14,-96 -120,-96 -82,0 -120,16 -120,50 0,10 -4,22 -10,25 -13,8 -14,737 -1,751 5,5 11,23 13,39 l 3,30 104,-2 c 92,-2 106,-5 127,-24 24,-22 34,-79 14,-79 -16,0 -11,-41 11,-87 l 21,-43 h 254 254 l 15,36 c 18,43 21,276 5,321 -15,38 -277,301 -319,319 -27,11 -100,14 -377,14 -218,0 -345,-4 -349,-10 z"
       id="path26" />
    <path
       d="m 3705,7420 c -3,-5 -14,-10 -23,-10 -10,0 -25,-9 -35,-20 -15,-17 -17,-44 -17,-185 0,-98 4,-166 10,-170 6,-3 10,-14 10,-23 0,-9 12,-28 26,-43 20,-21 23,-31 15,-45 -5,-11 -12,-30 -15,-44 -3,-14 -14,-35 -24,-46 -11,-11 -22,-37 -26,-57 -4,-20 -11,-37 -16,-37 -6,0 -10,-8 -10,-17 0,-10 -7,-27 -15,-37 -8,-11 -15,-28 -15,-37 0,-10 -17,-53 -39,-96 -48,-97 -71,-148 -71,-160 0,-5 -25,-57 -55,-116 -30,-59 -54,-113 -52,-118 1,-6 -6,-16 -16,-22 -10,-7 -34,-26 -52,-43 l -33,-31 -2,-190 c 0,-104 2,-197 6,-206 6,-15 37,-17 344,-17 h 338 l 16,25 c 13,20 16,55 16,194 0,102 -4,172 -10,176 -5,3 -10,15 -10,26 0,11 -7,22 -15,25 -20,8 -19,27 4,48 16,14 43,16 222,14 l 204,-3 3,-34 c 2,-23 -2,-37 -12,-43 -14,-8 -16,-36 -16,-197 0,-183 1,-188 23,-209 23,-22 29,-22 338,-22 h 316 l 21,23 c 21,22 22,32 22,196 0,170 0,174 -24,196 -13,12 -26,31 -28,41 -2,10 -12,20 -23,22 -24,4 -54,40 -55,64 0,9 -11,38 -24,65 -13,26 -39,80 -57,118 -18,39 -36,72 -41,73 -4,2 -8,17 -8,33 0,16 -11,46 -24,67 -13,21 -27,53 -31,71 -4,19 -18,46 -30,59 -13,14 -21,31 -18,39 3,8 -4,27 -16,43 -11,16 -21,36 -21,44 0,8 -4,18 -10,21 -5,3 -10,14 -10,24 0,10 -7,24 -15,31 -11,9 -15,27 -13,54 2,33 7,42 24,44 13,2 24,12 26,26 7,37 10,350 3,377 -11,46 -48,49 -519,49 -279,0 -437,-4 -441,-10 z m 475,-815 c 0,-13 7,-25 15,-29 8,-3 15,-15 15,-26 0,-11 5,-20 10,-20 6,0 10,-11 10,-25 0,-26 -1,-26 -72,-23 -70,3 -73,4 -76,29 -2,14 4,31 12,39 9,7 16,17 16,23 0,6 8,27 17,49 16,36 18,37 35,21 10,-9 18,-26 18,-38 z"
       id="path27" />
    <path
       d="m 5203,7417 c -22,-7 -33,-19 -37,-36 -7,-38 -1,-375 8,-389 4,-7 23,-12 42,-12 20,0 44,-5 55,-10 18,-10 19,-26 19,-424 v -413 l -26,-27 c -15,-14 -34,-26 -44,-26 -9,0 -25,-9 -36,-21 -16,-18 -18,-39 -19,-191 -1,-153 1,-172 18,-194 l 18,-24 h 532 532 l 26,24 c 14,13 35,27 47,30 11,4 24,17 28,29 4,12 24,40 45,62 21,22 39,46 39,53 0,6 6,12 13,12 15,0 87,71 87,86 0,5 5,15 12,22 30,30 38,89 38,294 0,127 -4,209 -10,213 -5,3 -10,15 -10,25 0,10 -13,30 -30,43 -35,30 -38,47 -9,73 12,10 30,38 41,60 17,37 19,59 15,210 -2,93 -8,186 -13,207 -7,30 -34,64 -123,153 -63,63 -120,125 -125,137 -6,12 -27,26 -46,31 -49,14 -1045,17 -1087,3 z m 792,-457 c 11,-9 15,-35 15,-98 0,-103 -7,-111 -99,-112 -91,0 -101,11 -101,116 0,71 3,85 20,97 24,17 144,15 165,-3 z m -22,-664 c 15,-12 17,-27 15,-102 -3,-84 -4,-89 -25,-92 -13,-2 -23,-8 -23,-13 0,-5 -15,-9 -32,-9 -36,1 -78,29 -78,54 0,8 -4,18 -10,21 -5,3 -10,17 -10,30 0,13 5,27 10,30 6,3 10,19 10,35 0,21 7,33 28,43 35,19 92,20 115,3 z"
       id="path28" />
    <path
       d="m 7295,7420 c -3,-5 -17,-10 -29,-10 -33,0 -36,-17 -36,-226 0,-207 -1,-205 79,-206 86,0 80,29 82,-430 2,-439 3,-429 -51,-451 -52,-21 -65,-18 -110,28 -34,35 -41,48 -32,57 14,14 16,111 3,136 -5,9 -12,24 -14,33 -3,9 -20,19 -37,23 -41,8 -395,6 -435,-3 l -30,-6 -5,-200 c -3,-110 -2,-216 2,-235 5,-26 27,-53 85,-107 43,-41 89,-84 103,-97 14,-13 41,-35 61,-49 l 35,-27 h 353 l 352,-1 33,29 c 63,55 168,172 187,207 11,19 19,45 19,58 0,13 4,27 10,33 6,6 11,195 12,504 l 3,494 66,2 c 37,1 71,4 76,7 14,9 24,208 16,322 l -6,96 -35,15 c -28,11 -102,14 -393,14 -228,0 -360,-4 -364,-10 z"
       id="path29" />
    <path
       d="m 4900,5392 c 0,-9 -11,-29 -25,-44 -15,-16 -25,-39 -25,-56 0,-47 -26,-62 -107,-62 -60,0 -72,-3 -92,-24 -15,-16 -19,-26 -11,-31 6,-4 15,-18 20,-31 5,-13 18,-24 28,-24 10,0 33,-15 51,-34 33,-34 33,-35 17,-67 -17,-34 -22,-154 -7,-163 5,-3 14,1 21,9 7,8 18,15 25,15 7,0 24,12 38,26 36,36 98,44 128,15 13,-11 29,-21 36,-21 7,0 13,-4 13,-10 0,-5 8,-10 19,-10 10,0 24,-7 31,-15 7,-8 16,-12 21,-9 12,7 12,87 0,100 -5,5 -12,30 -15,55 l -7,46 70,64 71,64 -25,23 c -22,20 -35,23 -90,21 -60,-2 -68,0 -95,26 -21,20 -30,38 -30,61 0,17 -7,37 -15,44 -8,7 -15,21 -15,31 0,11 -7,19 -15,19 -8,0 -15,-8 -15,-18 z"
       id="path30" />
    <path
       d="m 5818,5391 c -10,-10 -18,-31 -18,-48 0,-17 -7,-36 -15,-43 -8,-7 -15,-20 -15,-29 0,-31 -23,-41 -88,-41 -68,0 -122,-22 -122,-49 0,-16 58,-71 75,-71 6,0 21,-10 33,-23 23,-24 31,-90 12,-102 -5,-3 -10,-19 -10,-35 0,-16 -4,-32 -10,-35 -16,-10 -12,-55 5,-62 9,-3 24,2 34,11 10,9 21,16 26,16 5,0 21,12 36,26 16,15 43,28 65,31 34,4 43,1 68,-26 17,-17 36,-31 45,-31 8,0 22,-7 32,-16 10,-9 25,-14 34,-11 20,8 20,75 0,113 -29,57 -21,83 52,156 l 66,67 -24,20 c -19,16 -39,20 -90,21 -58,0 -68,3 -92,28 -15,15 -27,35 -27,44 0,8 -7,21 -15,28 -8,7 -15,28 -15,46 0,38 -15,43 -42,15 z"
       id="path31" />
    <path
       d="m 2117,5384 c -4,-4 -7,-15 -7,-24 0,-10 -7,-23 -15,-30 -8,-7 -15,-26 -15,-42 0,-47 -18,-57 -116,-60 l -89,-3 -3,-29 c -3,-22 5,-37 34,-67 21,-22 43,-39 49,-39 5,0 18,-14 27,-31 16,-27 16,-33 3,-52 -8,-12 -15,-34 -15,-49 0,-15 -4,-30 -10,-33 -16,-10 -12,-65 6,-72 8,-3 25,4 37,15 37,35 113,70 146,68 18,-1 43,-14 59,-29 15,-15 34,-27 41,-27 8,0 19,-7 26,-17 14,-19 42,-12 52,13 4,10 0,22 -10,29 -13,9 -17,29 -17,82 v 71 l 55,53 c 30,30 55,63 55,74 0,40 -13,46 -98,44 -93,-2 -112,7 -112,56 0,18 -6,38 -14,45 -8,6 -16,21 -18,33 -3,22 -36,35 -51,21 z"
       id="path32" />
    <path
       d="m 3039,5372 c -9,-10 -19,-32 -23,-48 -4,-16 -14,-44 -24,-61 -16,-32 -18,-33 -87,-34 -38,-1 -74,-1 -79,0 -10,2 -46,-29 -46,-39 0,-4 34,-41 75,-81 l 76,-74 -26,-49 c -19,-35 -25,-61 -23,-90 4,-50 22,-56 60,-21 15,14 32,25 38,25 6,0 24,10 40,21 36,27 86,20 120,-16 13,-14 29,-25 36,-25 6,0 17,-7 24,-15 14,-17 29,-19 49,-6 11,7 11,14 -3,41 -9,18 -16,43 -16,56 0,13 -4,26 -10,29 -31,19 17,116 68,136 12,5 22,17 22,28 0,10 7,22 16,25 14,5 13,10 -8,31 -20,22 -32,25 -93,25 -73,0 -95,10 -95,41 0,9 -6,22 -14,29 -8,6 -16,28 -18,48 -4,43 -33,55 -59,24 z"
       id="path33" />
    <path
       d="m 3961,5364 c -12,-15 -21,-36 -21,-48 0,-11 -13,-35 -28,-53 -25,-30 -32,-32 -97,-34 -68,-2 -105,-17 -105,-43 0,-6 29,-38 65,-70 l 65,-60 -6,-55 c -4,-31 -10,-60 -15,-65 -10,-12 -12,-70 -2,-79 3,-4 13,-1 21,5 8,7 19,13 26,14 20,3 86,46 86,56 0,19 77,1 113,-26 19,-14 39,-26 44,-26 6,0 16,-7 23,-15 7,-8 16,-12 21,-9 11,7 12,121 1,126 -5,2 -12,20 -15,40 -5,33 -2,40 29,68 19,16 40,30 47,30 10,0 35,32 55,71 6,13 -57,32 -122,38 l -69,6 -24,44 c -13,24 -23,49 -23,55 -1,12 -35,56 -43,56 -3,0 -15,-12 -26,-26 z"
       id="path34" />
    <path
       d="m 6734,5373 c -3,-10 -12,-30 -20,-45 -8,-14 -14,-37 -14,-50 0,-39 -18,-48 -95,-48 -62,0 -74,-3 -93,-23 -12,-13 -22,-28 -22,-34 0,-15 79,-83 96,-83 21,0 19,-158 -2,-188 -28,-41 5,-71 40,-37 8,8 20,15 26,15 7,0 28,14 47,30 20,18 44,30 61,29 25,0 84,-30 145,-72 14,-10 31,-16 37,-12 12,8 13,57 1,71 -5,5 -11,39 -15,75 -6,59 -4,68 17,92 12,15 27,27 33,27 5,0 25,15 43,34 32,33 32,34 15,55 -16,18 -29,21 -101,21 h -82 l -16,38 c -9,20 -21,44 -26,52 -10,16 -14,26 -23,53 -3,9 -15,17 -26,17 -11,0 -23,-8 -26,-17 z"
       id="path35" />
    <path
       d="m 7664,5373 c -4,-10 -12,-32 -20,-50 -8,-17 -14,-40 -14,-50 0,-34 -21,-43 -104,-43 -66,-1 -85,-4 -105,-21 l -24,-20 48,-49 c 27,-28 56,-50 65,-50 9,0 21,-5 28,-12 15,-15 16,-64 2,-73 -5,-3 -10,-16 -10,-29 0,-12 -7,-31 -15,-42 -19,-25 -19,-73 0,-80 8,-4 25,1 38,10 111,81 151,90 201,45 19,-16 39,-29 46,-29 6,0 18,-7 27,-15 8,-9 23,-15 32,-13 21,4 25,92 5,109 -8,6 -14,18 -14,25 0,8 -6,23 -12,34 -15,24 -3,49 32,66 26,14 110,94 110,106 0,4 -8,8 -19,8 -10,0 -24,6 -30,14 -7,9 -36,14 -82,15 -76,1 -99,13 -99,51 0,12 -6,34 -14,48 -8,15 -17,35 -20,45 -3,9 -15,17 -26,17 -11,0 -23,-8 -26,-17 z"
       id="path36" />
    <path
       d="m 2421,4724 c -12,-15 -21,-37 -21,-50 0,-12 -4,-26 -10,-29 -5,-3 -10,-17 -10,-31 0,-19 -5,-24 -24,-24 -13,0 -26,-5 -28,-11 -2,-7 -36,-14 -80,-17 -113,-7 -112,-33 5,-119 l 48,-36 -6,-51 c -4,-28 -12,-56 -17,-63 -5,-6 -8,-27 -6,-45 3,-30 6,-33 35,-32 22,1 44,13 70,38 37,35 75,46 88,26 3,-5 14,-10 25,-10 10,0 20,-7 24,-15 3,-8 13,-15 21,-15 9,0 23,-7 32,-15 8,-9 23,-15 32,-13 24,5 27,91 5,139 l -16,38 71,69 c 80,78 85,102 22,102 -67,1 -129,8 -141,15 -6,4 -22,31 -36,60 -13,30 -29,57 -34,60 -6,3 -10,15 -10,25 0,30 -17,32 -39,4 z"
       id="path37" />
    <path
       d="m 3432,4727 c -12,-13 -22,-35 -22,-50 0,-14 -4,-29 -10,-32 -5,-3 -10,-14 -10,-24 0,-34 -32,-48 -123,-56 -60,-5 -90,-11 -94,-20 -7,-20 25,-58 80,-96 40,-27 47,-37 47,-65 0,-18 -4,-36 -10,-39 -13,-8 -13,-122 0,-130 10,-6 56,17 107,53 42,30 57,28 114,-14 30,-22 62,-37 82,-38 30,-1 32,1 35,38 2,21 -4,53 -12,71 -22,45 -20,81 4,105 11,11 23,20 26,20 18,0 84,68 84,87 0,20 -6,22 -91,29 l -90,7 -25,38 c -13,21 -24,45 -24,53 0,7 -7,19 -15,26 -8,7 -15,23 -15,36 0,30 -11,30 -38,1 z"
       id="path38" />
    <path
       d="m 4438,4725 c -10,-13 -18,-30 -18,-38 0,-8 -7,-20 -15,-27 -8,-7 -15,-21 -15,-31 0,-11 -4,-19 -10,-19 -5,0 -10,-8 -10,-19 0,-22 -40,-31 -142,-31 -62,0 -68,-2 -68,-21 0,-21 35,-58 55,-59 6,0 31,-20 55,-45 33,-34 41,-47 32,-57 -6,-8 -12,-38 -13,-68 -2,-30 -7,-60 -12,-67 -5,-7 -6,-17 -2,-23 11,-18 41,-11 80,20 31,25 47,30 89,30 50,0 67,-7 120,-44 38,-27 78,-15 75,22 -2,15 -7,32 -12,39 -4,6 -12,35 -17,65 -7,47 -6,56 13,76 11,12 25,22 31,22 6,0 28,17 50,36 37,35 38,37 19,55 -13,14 -37,20 -88,23 -57,4 -74,9 -97,31 -15,15 -28,34 -28,42 0,8 -6,29 -14,46 -8,18 -16,40 -20,50 -7,23 -18,21 -38,-8 z"
       id="path39" />
    <path
       d="m 6355,4730 c -10,-11 -20,-40 -22,-63 -3,-30 -13,-51 -33,-71 -27,-27 -36,-30 -114,-34 -78,-4 -86,-6 -86,-25 0,-18 65,-87 83,-87 16,0 47,-42 47,-65 0,-13 -7,-42 -16,-64 -8,-21 -14,-54 -12,-73 3,-31 5,-33 36,-30 19,1 41,9 49,17 21,22 69,45 76,38 4,-3 13,0 21,6 12,10 21,8 49,-13 19,-14 38,-26 42,-26 5,0 16,-7 26,-16 10,-9 25,-14 33,-11 22,9 30,64 13,90 -8,12 -16,37 -19,55 -4,30 1,39 65,102 44,43 68,73 64,83 -4,10 -29,16 -91,19 -48,3 -93,11 -100,17 -8,7 -17,30 -21,52 -4,21 -11,39 -16,39 -5,0 -9,8 -9,18 0,10 -10,28 -23,40 l -24,22 z"
       id="path40" />
    <path
       d="m 7361,4727 c -11,-13 -21,-35 -21,-50 0,-14 -4,-29 -10,-32 -5,-3 -10,-15 -10,-26 0,-11 -10,-23 -24,-29 -13,-5 -27,-14 -31,-19 -3,-6 -39,-11 -81,-11 -104,0 -107,-14 -21,-96 60,-56 83,-94 58,-94 -4,0 -9,-34 -10,-75 -1,-60 1,-77 14,-81 9,-4 24,1 34,10 10,9 23,16 29,16 6,0 23,10 39,23 39,32 59,38 73,21 7,-8 17,-14 22,-14 6,0 26,-14 45,-31 24,-21 43,-29 61,-27 24,3 27,8 30,49 2,32 -2,50 -13,59 -24,20 -20,88 8,111 12,10 27,18 33,19 12,0 74,62 74,74 0,23 -35,38 -100,41 -79,3 -110,21 -110,63 0,13 -11,37 -25,54 -14,16 -25,36 -25,43 0,24 -17,25 -39,2 z"
       id="path41" />
    <path
       d="m 5346,4703 c -14,-15 -26,-37 -26,-47 0,-11 -5,-35 -12,-53 -12,-33 -12,-33 -79,-33 -92,0 -121,-12 -117,-47 2,-17 12,-32 26,-39 13,-6 36,-24 53,-40 23,-22 29,-36 29,-72 0,-24 -7,-59 -16,-77 -19,-42 -15,-79 10,-83 23,-5 96,30 121,58 21,23 67,26 85,5 26,-31 101,-67 127,-60 23,5 24,7 10,23 -10,11 -16,43 -18,94 -3,74 -2,78 26,109 17,17 40,35 52,40 24,9 41,55 26,70 -5,5 -47,12 -94,16 -46,3 -89,10 -95,15 -6,4 -14,30 -18,57 -6,44 -19,66 -53,85 -7,3 -23,-6 -37,-21 z"
       id="path42" />
    <path
       d="m 4900,4087 c 0,-14 -7,-27 -15,-31 -8,-3 -15,-14 -15,-25 0,-11 -4,-22 -9,-25 -4,-3 -11,-24 -15,-46 -6,-38 -8,-40 -41,-40 -18,0 -37,-4 -40,-10 -3,-5 -33,-10 -65,-10 -32,0 -62,-5 -66,-11 -8,-14 26,-60 54,-75 45,-23 82,-58 82,-78 0,-12 -7,-34 -15,-50 -15,-28 -21,-117 -8,-129 3,-4 13,-1 21,5 8,7 21,13 30,15 9,1 18,7 20,12 2,6 10,11 17,11 7,0 15,7 19,15 4,11 20,15 58,15 42,0 57,-5 79,-26 14,-14 33,-26 42,-28 8,-1 22,-8 31,-15 13,-11 17,-11 21,1 10,24 -2,169 -14,181 -12,12 13,47 34,47 21,0 65,41 65,60 0,10 7,21 16,24 36,14 -3,26 -82,26 -78,0 -85,2 -94,23 -6,12 -14,29 -18,37 -23,40 -32,61 -32,74 0,8 -6,16 -14,19 -8,3 -16,16 -18,28 -4,32 -28,37 -28,6 z"
       id="path43" />
    <path
       d="m 2842,4003 c -12,-15 -22,-37 -22,-49 0,-24 -28,-85 -44,-96 -6,-4 -40,-8 -76,-8 -83,0 -110,-8 -110,-30 0,-21 73,-90 95,-90 8,0 15,-8 15,-19 0,-10 6,-24 14,-30 14,-12 12,-40 -6,-78 -6,-12 -11,-39 -12,-60 -1,-36 1,-38 33,-41 28,-3 40,3 72,34 47,46 83,49 129,11 17,-15 38,-27 46,-27 8,0 14,-5 14,-11 0,-6 12,-9 27,-7 23,3 27,8 30,44 3,28 -1,45 -12,54 -31,26 -5,122 37,136 10,3 26,16 37,30 10,13 24,24 31,24 6,0 10,11 8,28 -3,27 -4,27 -88,30 -94,3 -120,17 -120,62 0,15 -7,33 -15,40 -8,7 -15,19 -15,26 0,14 -30,54 -40,54 -4,0 -16,-12 -28,-27 z"
       id="path44" />
    <path
       d="m 3890,4010 c 0,-12 -5,-26 -11,-33 -6,-7 -23,-37 -38,-67 l -27,-55 -88,-5 c -78,-4 -90,-8 -96,-25 -6,-15 1,-28 29,-52 20,-18 41,-33 46,-33 6,0 20,-9 33,-19 17,-15 22,-30 22,-68 0,-28 -6,-58 -15,-69 -8,-10 -15,-34 -15,-51 0,-31 2,-33 33,-33 21,0 41,8 52,20 10,12 34,30 52,41 37,23 63,19 103,-15 35,-30 67,-46 90,-46 17,0 20,7 20,49 0,28 -4,53 -10,56 -25,16 0,125 29,125 14,0 91,74 91,88 0,23 -30,32 -106,32 -89,0 -100,5 -110,59 -4,17 -11,34 -15,37 -5,3 -9,14 -9,25 0,20 -33,59 -50,59 -5,0 -10,-9 -10,-20 z"
       id="path45" />
    <path
       d="m 6937,4012 c -9,-10 -20,-34 -24,-52 -16,-80 -52,-110 -137,-110 -47,-1 -96,-23 -96,-45 0,-10 60,-59 94,-75 27,-13 31,-21 34,-63 2,-31 -2,-55 -12,-69 -20,-29 -20,-72 -1,-92 16,-15 45,-12 45,5 0,5 6,9 14,9 7,0 31,14 52,31 44,35 73,33 115,-7 14,-13 33,-24 42,-24 9,0 17,-5 17,-11 0,-6 12,-9 28,-7 24,3 27,7 26,41 -1,21 -7,49 -13,61 -7,12 -11,42 -9,67 3,38 7,46 34,59 76,37 118,99 78,114 -9,3 -42,6 -74,6 -32,0 -70,6 -85,14 -26,14 -55,56 -55,81 0,7 -6,18 -14,25 -8,6 -16,21 -18,32 -4,29 -21,33 -41,10 z"
       id="path46" />
    <path
       d="m 5881,3989 c -11,-12 -23,-43 -27,-68 -10,-67 -16,-71 -104,-71 -134,0 -141,-17 -45,-104 51,-46 65,-65 65,-87 0,-15 -4,-31 -10,-34 -5,-3 -10,-26 -10,-50 0,-30 -5,-45 -16,-49 -8,-3 -12,-10 -9,-16 10,-15 71,-12 85,5 7,8 17,15 23,15 6,0 20,9 31,19 29,27 70,36 87,19 43,-40 91,-68 118,-68 28,0 31,3 31,33 0,18 -4,37 -10,43 -5,5 -12,34 -16,64 l -6,55 48,48 c 27,26 56,47 66,47 23,0 23,14 1,40 -14,17 -30,20 -88,20 -65,0 -74,2 -97,28 -16,17 -28,43 -31,71 -8,63 -47,81 -86,40 z"
       id="path47" />
    <path
       d="m 4424,3403 c -3,-10 -10,-27 -15,-38 -5,-11 -14,-38 -21,-60 -13,-39 -14,-40 -63,-43 -27,-2 -52,-7 -55,-12 -3,-5 -27,-10 -53,-11 -27,-2 -51,-7 -54,-12 -7,-12 57,-77 76,-77 9,0 29,-19 45,-41 23,-33 27,-45 19,-62 -16,-34 -43,-120 -43,-135 0,-38 91,-8 145,48 35,37 52,38 87,5 15,-14 31,-25 37,-25 5,0 23,-12 40,-26 l 30,-25 22,20 c 21,19 21,21 5,55 -9,19 -16,59 -16,91 0,47 4,60 23,76 12,10 27,18 33,19 19,0 56,48 52,67 -2,11 -13,19 -31,21 -15,2 -27,8 -27,13 0,5 -26,9 -58,9 -66,0 -92,18 -92,62 0,14 -7,31 -15,38 -8,7 -15,23 -15,36 0,19 -5,24 -25,24 -16,0 -28,-7 -31,-17 z"
       id="path48" />
    <path
       d="m 5348,3400 c -10,-11 -21,-39 -24,-62 -10,-63 -27,-78 -90,-78 -29,0 -56,-4 -59,-10 -3,-5 -21,-10 -40,-10 -43,0 -48,-8 -27,-53 12,-27 22,-37 39,-37 13,0 23,-4 23,-8 0,-5 11,-14 25,-20 20,-9 25,-19 25,-49 -1,-21 -5,-58 -11,-83 -22,-97 -22,-100 -5,-100 9,0 16,5 16,10 0,6 10,10 23,10 24,0 55,18 97,57 27,25 36,28 45,13 3,-5 14,-10 23,-10 10,0 23,-9 30,-20 15,-25 97,-64 117,-56 21,8 18,33 -10,91 -26,52 -32,95 -15,95 6,0 10,8 10,18 0,22 30,52 52,52 22,0 60,45 56,67 -2,14 -14,19 -53,21 -28,2 -54,7 -59,13 -6,5 -22,9 -36,9 -33,0 -60,28 -60,62 0,14 -6,31 -14,38 -8,6 -16,21 -18,33 -4,29 -38,33 -60,7 z"
       id="path49" />
    <path
       d="m 3432,3297 c -12,-13 -22,-31 -22,-40 0,-9 -4,-19 -10,-22 -5,-3 -10,-15 -10,-25 0,-36 -47,-60 -116,-60 -72,0 -113,-22 -92,-48 7,-8 17,-24 23,-35 6,-12 19,-23 29,-25 36,-7 65,-53 66,-104 0,-26 -4,-50 -10,-53 -5,-3 -10,-13 -10,-22 0,-9 -7,-24 -16,-34 -9,-10 -14,-25 -11,-34 8,-19 53,-20 61,0 3,8 15,15 26,15 11,0 20,4 20,8 0,12 73,42 102,42 13,0 35,-11 48,-25 14,-15 35,-25 52,-25 16,0 31,-7 34,-15 4,-8 12,-15 20,-15 19,0 19,86 -1,124 -29,54 -20,78 50,142 70,63 79,84 40,84 -14,0 -25,5 -25,10 0,6 -31,10 -74,10 h -74 l -7,30 c -6,29 -49,117 -64,133 -4,4 -17,-3 -29,-16 z"
       id="path50" />
    <path
       d="m 6353,3291 c -13,-16 -23,-38 -23,-47 0,-10 -8,-35 -17,-55 l -18,-38 -67,-1 c -37,0 -70,-4 -73,-10 -3,-5 -17,-10 -31,-10 -39,0 -28,-24 42,-89 l 67,-61 -13,-53 c -7,-28 -13,-72 -14,-97 -1,-36 3,-45 17,-48 10,-2 28,7 40,20 53,57 128,78 157,43 7,-8 21,-15 31,-15 10,0 20,-4 24,-9 10,-17 65,-40 71,-30 9,16 7,99 -4,112 -5,7 -13,26 -16,44 -8,36 6,55 71,96 21,13 44,32 52,41 17,20 7,46 -17,46 -10,0 -23,5 -30,12 -7,7 -31,11 -53,9 -79,-4 -96,5 -103,53 -5,28 -18,57 -39,81 l -32,37 z"
       id="path51" />
    <path
       d="m 4888,2755 c -10,-13 -18,-31 -18,-39 0,-8 -4,-17 -9,-20 -5,-3 -12,-21 -15,-40 -9,-49 -28,-60 -96,-57 -48,2 -65,-2 -90,-20 l -30,-23 71,-65 c 68,-62 70,-66 64,-100 -4,-20 -11,-40 -16,-45 -10,-11 -12,-109 -2,-119 3,-4 17,2 29,14 77,73 174,87 224,34 16,-17 34,-25 57,-25 32,0 33,1 33,41 0,22 -4,48 -9,57 -4,9 -11,34 -15,54 -7,40 0,50 88,118 45,34 45,35 26,53 -14,12 -41,19 -92,22 -75,5 -108,22 -108,56 0,10 -4,21 -10,24 -5,3 -10,15 -10,26 0,11 -7,22 -15,25 -8,4 -15,17 -15,30 0,31 -20,30 -42,-1 z"
       id="path52" />
    <path
       d="m 4056,2643 c -3,-3 -6,-14 -6,-23 0,-10 -7,-23 -15,-30 -8,-7 -15,-21 -15,-31 0,-11 -4,-19 -10,-19 -5,0 -10,-8 -10,-18 0,-10 -10,-28 -23,-40 -19,-18 -36,-22 -88,-22 -45,0 -71,-6 -87,-18 l -22,-17 70,-68 c 38,-37 70,-75 70,-85 0,-9 -7,-30 -15,-46 -20,-39 -20,-136 0,-136 8,0 15,5 15,10 0,6 5,10 10,10 6,0 29,14 52,30 30,22 52,30 83,30 32,0 52,-7 80,-30 21,-16 44,-30 51,-30 8,0 14,-4 14,-10 0,-5 7,-10 15,-10 23,0 20,96 -4,146 -19,38 -19,39 0,65 10,15 35,34 54,44 20,9 39,24 42,33 3,9 12,24 20,33 23,27 -23,49 -100,49 -73,0 -95,16 -118,85 -8,22 -20,44 -26,48 -7,4 -13,17 -13,27 0,20 -13,33 -24,23 z"
       id="path53" />
    <path
       d="m 5729,2587 c -14,-18 -29,-45 -33,-62 -14,-56 -30,-65 -123,-65 -90,0 -111,-13 -81,-48 8,-9 18,-25 21,-35 4,-9 17,-22 29,-27 63,-26 88,-73 64,-122 -18,-36 -22,-138 -5,-138 6,0 20,11 31,25 11,14 28,25 38,25 9,0 23,7 30,15 7,9 29,15 55,15 26,0 48,-6 55,-15 7,-8 18,-15 25,-15 7,0 18,-7 25,-15 7,-8 21,-15 31,-15 11,0 19,-4 19,-10 0,-5 7,-10 15,-10 11,0 15,12 15,49 0,27 -4,51 -9,53 -4,2 -11,24 -15,49 l -7,47 70,68 c 38,37 67,72 65,76 -3,4 -16,8 -29,8 -13,0 -27,5 -30,10 -3,6 -30,10 -59,10 -42,0 -56,4 -72,23 -24,28 -44,63 -44,79 -1,16 -35,58 -47,57 -4,0 -20,-15 -34,-32 z"
       id="path54" />
    <path
       d="m 4892,1965 c -12,-12 -22,-28 -22,-34 0,-6 -4,-19 -9,-29 -6,-9 -12,-29 -15,-44 -7,-33 -57,-50 -121,-41 -44,6 -95,-16 -95,-41 0,-16 52,-66 68,-66 7,0 12,-4 12,-8 0,-4 14,-16 30,-26 29,-17 31,-20 24,-64 -3,-26 -10,-51 -15,-56 -5,-6 -9,-32 -9,-58 0,-41 3,-48 19,-48 11,0 26,6 33,13 30,31 99,67 127,67 16,0 34,-7 41,-15 7,-8 17,-15 23,-15 5,0 25,-12 44,-26 45,-34 63,-26 63,29 0,24 -4,47 -9,53 -5,5 -12,30 -15,56 -7,44 -5,48 21,65 15,10 34,23 41,30 7,7 18,13 23,13 5,0 11,11 15,24 3,14 12,27 21,30 21,8 6,26 -23,26 -13,0 -24,5 -24,10 0,6 -26,10 -58,10 -48,0 -62,4 -80,23 -12,13 -22,31 -22,40 0,9 -4,19 -10,22 -5,3 -10,14 -10,23 0,9 -11,27 -23,39 l -23,21 z"
       id="path55" />
  </g>
</svg>
