<?xml version="1.0" encoding="UTF-8" standalone="no"?>
<!-- Created with Inkscape (http://www.inkscape.org/) -->

<svg
   width="60.494999mm"
   height="70mm"
   viewBox="0 0 60.494999 70"
   version="1.1"
   id="svg1"
   inkscape:version="1.3.2 (1:1.3.2+202311252150+091e20ef0f)"
   sodipodi:docname="Escudo_Boca_Jrs.svg"
   xmlns:inkscape="http://www.inkscape.org/namespaces/inkscape"
   xmlns:sodipodi="http://sodipodi.sourceforge.net/DTD/sodipodi-0.dtd"
   xmlns="http://www.w3.org/2000/svg"
   xmlns:svg="http://www.w3.org/2000/svg"
   xmlns:inkstitch="http://inkstitch.org/namespace">
  <sodipodi:namedview
     id="namedview1"
     pagecolor="#ffffff"
     bordercolor="#666666"
     borderopacity="1.0"
     inkscape:showpageshadow="2"
     inkscape:pageopacity="0.0"
     inkscape:pagecheckerboard="0"
     inkscape:deskcolor="#d1d1d1"
     inkscape:document-units="mm"
     inkscape:zoom="2.0560856"
     inkscape:cx="168.28093"
     inkscape:cy="169.74002"
     inkscape:window-width="1848"
     inkscape:window-height="1016"
     inkscape:window-x="72"
     inkscape:window-y="27"
     inkscape:window-maximized="1"
     inkscape:current-layer="svg1" />
  <metadata
     id="metadata1">
    <inkstitch:min_stitch_len_mm>0</inkstitch:min_stitch_len_mm>
    <inkstitch:collapse_len_mm>3</inkstitch:collapse_len_mm>
    <inkstitch:inkstitch_svg_version>1</inkstitch:inkstitch_svg_version>
  </metadata>
  <defs
     id="defs1" />
  <g
     inkscape:label="Capa 1"
     inkscape:groupmode="layer"
     id="layer1" />
  <path
     fill-rule="evenodd"
     clip-rule="evenodd"
     fill="#005eac"
     d="M 30.074787,10.568541 C 25.717034,10.561541 21.378683,8.9866786 17.395394,6.0495522 L 5.4607853,15.084141 C 4.3100826,34.016018 12.018604,53.405236 30.074787,65.28748 48.1304,53.400156 55.838927,34.009802 54.688217,15.078113 L 42.754179,6.0431482 C 38.771267,8.9804626 34.431597,10.555733 30.074787,10.568541 Z"
     id="path104"
     inkscape:label="path104"
     style="stroke-width:0.188362" />
  <path
     style="fill:#ffd800;fill-opacity:1;stroke:#ffd800;stroke-width:0.0854385;stroke-linejoin:bevel;stroke-miterlimit:0;stroke-dasharray:none;stroke-opacity:1"
     d="M 28.49217,67.221917 C 20.242155,61.84505 13.923736,54.733156 9.2883023,45.606377 7.9269763,42.926045 7.4152693,41.734108 6.5395383,39.203593 3.6008186,30.711862 2.3301266,22.779593 2.7752756,15.705277 2.8511556,14.499378 2.9469596,13.4236 2.9881716,13.31466 3.0453716,13.16346 9.9454563,7.7958772 16.251844,2.9968375 l 0.416582,-0.317011 0.890103,0.6789087 c 2.197307,1.675952 4.861067,2.876594 8.410795,3.791014 5.122904,1.3196757 11.564817,-0.189786 16.738667,-3.922185 0.4198,-0.3028417 0.810684,-0.5337157 0.868635,-0.5130547 0.293176,0.104528 13.594731,10.3269935 13.704531,10.5321625 0.19232,0.359362 0.26401,6.520803 0.10079,8.663643 -0.61802,8.114008 -3.34654,18.077202 -6.639597,24.244499 -4.284661,8.024382 -9.222522,13.856619 -16.031416,18.935116 -1.341349,1.00045 -4.480316,3.161847 -4.59193,3.161847 -0.02567,0 -0.757744,-0.46344 -1.626834,-1.02986 z m 3.081175,-2.890677 c 3.509597,-2.43005 7.325189,-5.805477 10.005887,-8.851614 3.711114,-4.21704 7.111308,-9.691542 8.885318,-14.305869 2.402397,-6.248778 3.832447,-12.211405 4.360467,-18.180957 0.21401,-2.419495 0.31434,-5.879193 0.2057,-7.093035 l -0.0878,-0.980806 -6.082057,-4.58115 -6.08205,-4.5811488 -1.038706,0.717691 C 37.029818,9.7289013 30.766737,11.081449 25.998663,9.8738043 22.520931,8.9929736 19.889517,7.7669092 17.744567,6.0279422 L 17.393353,5.7431872 11.41502,10.271544 c -3.2880817,2.490597 -6.0432457,4.620425 -6.1225867,4.732951 -0.208431,0.29561 -0.189705,6.062946 0.02762,8.506624 0.62579,7.036585 2.586658,14.366387 5.3621847,20.044052 4.330874,8.859315 10.119126,15.626632 17.925146,20.957149 1.540021,1.05164 1.151326,1.07537 2.965961,-0.18108 z"
     id="path167" />
  <g
     id="g154"
     transform="matrix(0.188362 0 0 0.188362 2.88739 2.83478)">
    <g
       id="g153">
      <polygon
         fill-rule="evenodd"
         clip-rule="evenodd"
         fill="#ffd800"
         points="135.119,193.957 142.58,193.939 144.842,186.963 147.086,193.957 154.466,193.957 148.456,198.303 150.793,205.273 144.781,201.037 138.891,205.273 141.165,198.346 "
         id="polygon104" />
      <polygon
         fill-rule="evenodd"
         clip-rule="evenodd"
         fill="#ffd800"
         points="165.977,193.957 173.437,193.939 175.7,186.963 177.943,193.957 185.322,193.957 179.313,198.303 181.649,205.273 175.638,201.037 169.748,205.273 172.021,198.346 "
         id="polygon105" />
      <polygon
         fill-rule="evenodd"
         clip-rule="evenodd"
         fill="#ffd800"
         points="196.834,193.957 204.292,193.939 206.556,186.963 208.8,193.957 216.179,193.957 210.169,198.303 212.505,205.273 206.495,201.037 200.606,205.273 202.88,198.346 "
         id="polygon106" />
      <polygon
         fill-rule="evenodd"
         clip-rule="evenodd"
         fill="#ffd800"
         points="227.69,193.957 235.149,193.939 237.413,186.963 239.655,193.957 247.036,193.957 241.026,198.303 243.362,205.273 237.353,201.037 231.464,205.273 233.735,198.346 "
         id="polygon107" />
      <polygon
         fill-rule="evenodd"
         clip-rule="evenodd"
         fill="#ffd800"
         points="104.263,193.957 111.722,193.939 113.986,186.963 116.229,193.957 123.608,193.957 117.598,198.303 119.935,205.273 113.923,201.037 108.035,205.273 110.308,198.346 "
         id="polygon108" />
      <polygon
         fill-rule="evenodd"
         clip-rule="evenodd"
         fill="#ffd800"
         points="73.406,193.957 80.866,193.939 83.128,186.963 85.373,193.957 92.751,193.957 86.742,198.303 89.078,205.273 83.066,201.037 77.177,205.273 79.451,198.346 "
         id="polygon109" />
      <polygon
         fill-rule="evenodd"
         clip-rule="evenodd"
         fill="#ffd800"
         points="42.548,193.957 50.008,193.939 52.272,186.963 54.515,193.957 61.894,193.957 55.884,198.303 58.222,205.273 52.21,201.037 46.321,205.273 48.593,198.346 "
         id="polygon110" />
      <polygon
         fill-rule="evenodd"
         clip-rule="evenodd"
         fill="#ffd800"
         points="151.548,216.242 159.008,216.225 161.271,209.248 163.515,216.242 170.895,216.242 164.885,220.59 167.221,227.559 161.209,223.322 155.32,227.559 157.594,220.631 "
         id="polygon111" />
      <polygon
         fill-rule="evenodd"
         clip-rule="evenodd"
         fill="#ffd800"
         points="184.405,216.242 191.865,216.225 194.129,209.248 196.371,216.242 203.751,216.242 197.74,220.59 200.077,227.559 194.066,223.322 188.178,227.559 190.451,220.631 "
         id="polygon112" />
      <polygon
         fill-rule="evenodd"
         clip-rule="evenodd"
         fill="#ffd800"
         points="216.261,216.242 223.722,216.225 225.985,209.248 228.228,216.242 235.606,216.242 229.597,220.59 231.935,227.559 225.925,223.322 220.034,227.559 222.308,220.631 "
         id="polygon113" />
      <polygon
         fill-rule="evenodd"
         clip-rule="evenodd"
         fill="#ffd800"
         points="118.691,216.242 126.15,216.225 128.414,209.248 130.658,216.242 138.037,216.242 132.027,220.59 134.364,227.559 128.352,223.322 122.462,227.559 124.736,220.631 "
         id="polygon114" />
      <polygon
         fill-rule="evenodd"
         clip-rule="evenodd"
         fill="#ffd800"
         points="85.833,216.242 93.294,216.225 95.557,209.248 97.8,216.242 105.179,216.242 99.169,220.59 101.507,227.559 95.495,223.322 89.606,227.559 91.879,220.631 "
         id="polygon115" />
      <polygon
         fill-rule="evenodd"
         clip-rule="evenodd"
         fill="#ffd800"
         points="53.977,216.242 61.437,216.225 63.701,209.248 65.943,216.242 73.323,216.242 67.313,220.59 69.65,227.559 63.638,223.322 57.75,227.559 60.023,220.631 "
         id="polygon116" />
      <polygon
         fill-rule="evenodd"
         clip-rule="evenodd"
         fill="#ffd800"
         points="169.977,238.527 177.438,238.51 179.701,231.533 181.945,238.527 189.324,238.527 183.314,242.875 185.651,249.844 179.638,245.607 173.748,249.844 176.021,242.916 "
         id="polygon117" />
      <polygon
         fill-rule="evenodd"
         clip-rule="evenodd"
         fill="#ffd800"
         points="203.833,238.527 211.292,238.51 213.556,231.533 215.8,238.527 223.179,238.527 217.169,242.875 219.505,249.844 213.493,245.607 207.604,249.844 209.878,242.916 "
         id="polygon118" />
      <polygon
         fill-rule="evenodd"
         clip-rule="evenodd"
         fill="#ffd800"
         points="135.119,238.527 142.58,238.51 144.842,231.533 147.086,238.527 154.466,238.527 148.456,242.875 150.793,249.844 144.781,245.607 138.891,249.844 141.165,242.916 "
         id="polygon119" />
      <polygon
         fill-rule="evenodd"
         clip-rule="evenodd"
         fill="#ffd800"
         points="100.263,238.527 107.722,238.51 109.986,231.533 112.229,238.527 119.608,238.527 113.598,242.875 115.935,249.844 109.923,245.607 104.035,249.844 106.308,242.916 "
         id="polygon120" />
      <polygon
         fill-rule="evenodd"
         clip-rule="evenodd"
         fill="#ffd800"
         points="66.406,238.527 73.866,238.51 76.128,231.533 78.373,238.527 85.751,238.527 79.742,242.875 82.078,249.844 76.066,245.607 70.177,249.844 72.451,242.916 "
         id="polygon121" />
      <polygon
         fill-rule="evenodd"
         clip-rule="evenodd"
         fill="#ffd800"
         points="183.407,261.824 190.867,261.805 193.13,254.828 195.373,261.824 202.751,261.824 196.742,266.17 199.079,273.139 193.066,268.902 187.178,273.139 189.451,266.211 "
         id="polygon122" />
      <polygon
         fill-rule="evenodd"
         clip-rule="evenodd"
         fill="#ffd800"
         points="151.547,258.824 159.007,258.805 161.271,251.828 163.514,258.824 170.895,258.824 164.885,263.17 167.221,270.139 161.209,265.902 155.318,270.139 157.592,263.211 "
         id="polygon123" />
      <polygon
         fill-rule="evenodd"
         clip-rule="evenodd"
         fill="#ffd800"
         points="118.691,258.824 126.15,258.805 128.414,251.828 130.656,258.824 138.036,258.824 132.026,263.17 134.363,270.139 128.351,265.902 122.462,270.139 124.736,263.211 "
         id="polygon124" />
      <polygon
         fill-rule="evenodd"
         clip-rule="evenodd"
         fill="#ffd800"
         points="86.833,261.824 94.292,261.805 96.556,254.828 98.8,261.824 106.179,261.824 100.169,266.17 102.506,273.139 96.494,268.902 90.605,273.139 92.878,266.211 "
         id="polygon125" />
      <polygon
         fill-rule="evenodd"
         clip-rule="evenodd"
         fill="#ffd800"
         points="164.548,284.1 172.008,284.082 174.271,277.104 176.515,284.1 183.895,284.1 177.885,288.445 180.221,295.414 174.207,291.18 168.32,295.414 170.592,288.486 "
         id="polygon126" />
      <polygon
         fill-rule="evenodd"
         clip-rule="evenodd"
         fill="#ffd800"
         points="135.119,280.1 142.58,280.082 144.842,273.104 147.086,280.1 154.466,280.1 148.456,284.445 150.793,291.414 144.781,287.18 138.891,291.414 141.165,284.486 "
         id="polygon127" />
      <polygon
         fill-rule="evenodd"
         clip-rule="evenodd"
         fill="#ffd800"
         points="105.691,284.1 113.151,284.082 115.414,277.104 117.658,284.1 125.037,284.1 119.027,288.445 121.364,295.414 115.352,291.18 109.462,295.414 111.736,288.486 "
         id="polygon128" />
      <polygon
         fill-rule="evenodd"
         clip-rule="evenodd"
         fill="#ffd800"
         points="135.119,306.68 142.58,306.662 144.842,299.686 147.086,306.68 154.466,306.68 148.456,311.025 150.793,317.996 144.781,313.76 138.891,317.996 141.165,311.068 "
         id="polygon129" />
      <polygon
         fill-rule="evenodd"
         clip-rule="evenodd"
         fill="#ffd800"
         points="118.519,103.102 125.978,103.082 128.242,96.105 130.485,103.102 137.865,103.102 131.855,107.447 134.191,114.417 128.179,110.182 122.291,114.417 124.564,107.489 "
         id="polygon130" />
      <polygon
         fill-rule="evenodd"
         clip-rule="evenodd"
         fill="#ffd800"
         points="150.805,103.102 158.264,103.082 160.527,96.105 162.771,103.102 170.15,103.102 164.141,107.447 166.478,114.417 160.466,110.182 154.576,114.417 156.85,107.489 "
         id="polygon131" />
      <polygon
         fill-rule="evenodd"
         clip-rule="evenodd"
         fill="#ffd800"
         points="182.662,103.102 190.122,103.082 192.385,96.105 194.629,103.102 202.007,103.102 195.998,107.447 198.335,114.417 192.325,110.182 186.436,114.417 188.709,107.489 "
         id="polygon132" />
      <polygon
         fill-rule="evenodd"
         clip-rule="evenodd"
         fill="#ffd800"
         points="213.519,103.102 220.978,103.082 223.241,96.105 225.485,103.102 232.864,103.102 226.854,107.447 229.19,114.417 223.181,110.182 217.292,114.417 219.565,107.489 "
         id="polygon133" />
      <polygon
         fill-rule="evenodd"
         clip-rule="evenodd"
         fill="#ffd800"
         points="246.376,103.102 253.835,103.082 256.099,96.105 258.343,103.102 265.722,103.102 259.712,107.447 262.048,114.417 256.038,110.182 250.149,114.417 252.423,107.489 "
         id="polygon134" />
      <polygon
         fill-rule="evenodd"
         clip-rule="evenodd"
         fill="#ffd800"
         points="86.662,103.102 94.123,103.082 96.384,96.105 98.628,103.102 106.007,103.102 99.998,107.447 102.335,114.417 96.323,110.182 90.433,114.417 92.707,107.489 "
         id="polygon135" />
      <polygon
         fill-rule="evenodd"
         clip-rule="evenodd"
         fill="#ffd800"
         points="55.805,103.102 63.265,103.082 65.528,96.105 67.771,103.102 75.151,103.102 69.14,107.447 71.478,114.417 65.466,110.182 59.577,114.417 61.849,107.489 "
         id="polygon136" />
      <polygon
         fill-rule="evenodd"
         clip-rule="evenodd"
         fill="#ffd800"
         points="22.949,103.102 30.408,103.082 32.671,96.105 34.915,103.102 42.294,103.102 36.284,107.447 38.621,114.417 32.609,110.182 26.72,114.417 28.994,107.489 "
         id="polygon137" />
      <polygon
         fill-rule="evenodd"
         clip-rule="evenodd"
         fill="#ffd800"
         points="117.519,77.387 124.978,77.369 127.242,70.392 129.485,77.387 136.865,77.387 130.855,81.732 133.191,88.702 127.179,84.467 121.291,88.702 123.564,81.774 "
         id="polygon138" />
      <polygon
         fill-rule="evenodd"
         clip-rule="evenodd"
         fill="#ffd800"
         points="151.805,77.387 159.264,77.369 161.527,70.392 163.771,77.387 171.15,77.387 165.141,81.732 167.478,88.702 161.466,84.467 155.576,88.702 157.85,81.774 "
         id="polygon139" />
      <polygon
         fill-rule="evenodd"
         clip-rule="evenodd"
         fill="#ffd800"
         points="184.377,77.387 191.836,77.369 194.1,70.392 196.343,77.387 203.722,77.387 197.713,81.732 200.048,88.702 194.039,84.467 188.15,88.702 190.424,81.774 "
         id="polygon140" />
      <polygon
         fill-rule="evenodd"
         clip-rule="evenodd"
         fill="#ffd800"
         points="216.946,77.387 224.407,77.369 226.669,70.392 228.913,77.387 236.294,77.387 230.282,81.732 232.62,88.702 226.61,84.467 220.72,88.702 222.993,81.774 "
         id="polygon141" />
      <polygon
         fill-rule="evenodd"
         clip-rule="evenodd"
         fill="#ffd800"
         points="250.804,77.387 258.263,77.369 260.526,70.392 262.771,77.387 270.149,77.387 264.14,81.732 266.478,88.702 260.468,84.467 254.577,88.702 256.851,81.774 "
         id="polygon142" />
      <polygon
         fill-rule="evenodd"
         clip-rule="evenodd"
         fill="#ffd800"
         points="84.948,77.387 92.408,77.369 94.67,70.392 96.914,77.387 104.293,77.387 98.283,81.732 100.621,88.702 94.609,84.467 88.719,88.702 90.992,81.774 "
         id="polygon143" />
      <polygon
         fill-rule="evenodd"
         clip-rule="evenodd"
         fill="#ffd800"
         points="52.376,77.387 59.836,77.369 62.099,70.392 64.343,77.387 71.722,77.387 65.712,81.732 68.049,88.702 62.037,84.467 56.148,88.702 58.421,81.774 "
         id="polygon144" />
      <polygon
         fill-rule="evenodd"
         clip-rule="evenodd"
         fill="#ffd800"
         points="18.519,77.387 25.979,77.369 28.243,70.392 30.486,77.387 37.865,77.387 31.855,81.732 34.193,88.702 28.181,84.467 22.292,88.702 24.564,81.774 "
         id="polygon145" />
      <polygon
         fill-rule="evenodd"
         clip-rule="evenodd"
         fill="#ffd800"
         points="115.662,53.388 123.122,53.369 125.384,46.393 127.628,53.388 135.007,53.388 128.998,57.733 131.333,64.703 125.323,60.467 119.433,64.703 121.707,57.775 "
         id="polygon146" />
      <polygon
         fill-rule="evenodd"
         clip-rule="evenodd"
         fill="#ffd800"
         points="153.662,53.388 161.121,53.369 163.385,46.393 165.629,53.388 173.008,53.388 166.998,57.733 169.336,64.703 163.322,60.467 157.434,64.703 159.707,57.775 "
         id="polygon147" />
      <polygon
         fill-rule="evenodd"
         clip-rule="evenodd"
         fill="#ffd800"
         points="191.52,53.388 198.979,53.369 201.241,46.393 203.485,53.388 210.864,53.388 204.854,57.733 207.192,64.703 201.181,60.467 195.293,64.703 197.566,57.775 "
         id="polygon148" />
      <polygon
         fill-rule="evenodd"
         clip-rule="evenodd"
         fill="#ffd800"
         points="229.519,53.388 236.978,53.369 239.241,46.393 241.485,53.388 248.864,53.388 242.854,57.733 245.192,64.703 239.181,60.467 233.292,64.703 235.565,57.775 "
         id="polygon149" />
      <polygon
         fill-rule="evenodd"
         clip-rule="evenodd"
         fill="#ffd800"
         points="77.804,53.388 85.265,53.369 87.529,46.393 89.771,53.388 97.15,53.388 91.14,57.733 93.478,64.703 87.466,60.467 81.576,64.703 83.85,57.775 "
         id="polygon150" />
      <polygon
         fill-rule="evenodd"
         clip-rule="evenodd"
         fill="#ffd800"
         points="39.805,53.388 47.265,53.369 49.529,46.393 51.771,53.388 59.15,53.388 53.14,57.733 55.478,64.703 49.466,60.467 43.577,64.703 45.851,57.775 "
         id="polygon151" />
      <polygon
         fill-rule="evenodd"
         clip-rule="evenodd"
         fill="#ffd800"
         points="203.519,33.816 210.978,33.798 213.241,26.82 215.485,33.816 222.864,33.816 216.854,38.162 219.19,45.131 213.181,40.896 207.292,45.131 209.565,38.204 "
         id="polygon152" />
      <polygon
         fill-rule="evenodd"
         clip-rule="evenodd"
         fill="#ffd800"
         points="65.805,33.816 73.265,33.798 75.529,26.82 77.771,33.816 85.15,33.816 79.141,38.162 81.478,45.131 75.466,40.896 69.578,45.131 71.85,38.204 "
         id="polygon153" />
    </g>
  </g>
  <g
     id="g159"
     transform="matrix(0.188362 0 0 0.188362 2.88739 2.83478)">
    <polygon
       fill-rule="evenodd"
       clip-rule="evenodd"
       fill="#ffd800"
       points="85.441,143.744 68.014,143.744 68.014,135.554 58.538,135.554 58.538,165.727 68.014,165.727 67.994,157.656 85.441,157.658 85.444,169.396 75.919,179.521 50.619,179.521 41.111,169.406 41.111,131.778 50.612,121.68 75.93,121.68 85.444,131.792 "
       id="polygon155" />
    <polygon
       fill-rule="evenodd"
       clip-rule="evenodd"
       fill="#ffd800"
       points="204.68,170.955 204.698,155.916 221.102,155.906 221.119,165.727 227.787,165.699 227.813,135.554 224.896,135.554 224.896,121.68 247.516,121.68 247.559,135.554 244.635,135.554 244.649,171.021 237.227,179.521 213.923,179.521 "
       id="polygon156" />
    <g
       id="g158">
      <g
         id="g157">
        <g
           id="g156">
          <path
             fill-rule="evenodd"
             clip-rule="evenodd"
             fill="#ffd800"
             d="m 127.611,163.262 1.017,2.465 h -2.775 l 0.019,13.795 h 22.423 v -13.795 h -2.448 L 132.77,135.554 h 2.97 l -0.016,-13.874 h -32.333 l -0.02,13.874 h 2.973 l -13.08,30.173 h -2.442 v 13.795 h 22.468 l -0.029,-13.795 h -2.776 l 1.018,-2.465 z m -11.616,-11.116 3.575,-6.838 3.45,6.84 z"
             id="path156" />
        </g>
      </g>
    </g>
    <path
       fill-rule="evenodd"
       clip-rule="evenodd"
       fill="#ffd800"
       d="m 153.064,121.68 h 36.168 l 9.911,9.974 v 14.427 l -3.959,2.922 3.959,2.828 v 17.49 l -9.963,10.201 h -36.116 v -13.795 h 4.621 l 0.028,-30.189 -4.649,0.017 z m 28.012,21.834 -7.187,-0.008 v -7.952 h 7.187 v 7.999 z m 0,14.117 v 8.096 h -7.187 v -8.104 z"
       id="path158" />
  </g>
</svg>
