<?xml version="1.0" encoding="UTF-8" standalone="no"?>
<!-- Created with Inkscape (http://www.inkscape.org/) -->

<svg
   version="1.1"
   id="svg1"
   width="60mm"
   height="59.170509mm"
   viewBox="0 0 226.77165 223.63657"
   sodipodi:docname="1club-san-martin-escudo.svg"
   inkscape:version="1.3.2 (1:1.3.2+202311252150+091e20ef0f)"
   xmlns:inkscape="http://www.inkscape.org/namespaces/inkscape"
   xmlns:sodipodi="http://sodipodi.sourceforge.net/DTD/sodipodi-0.dtd"
   xmlns="http://www.w3.org/2000/svg"
   xmlns:svg="http://www.w3.org/2000/svg"
   xmlns:inkstitch="http://inkstitch.org/namespace">
  <metadata
     id="metadata6">
    <inkstitch:min_stitch_len_mm>0</inkstitch:min_stitch_len_mm>
    <inkstitch:collapse_len_mm>3</inkstitch:collapse_len_mm>
    <inkstitch:inkstitch_svg_version>1</inkstitch:inkstitch_svg_version>
  </metadata>
  <defs
     id="defs1" />
  <sodipodi:namedview
     id="namedview1"
     pagecolor="#ffffff"
     bordercolor="#666666"
     borderopacity="1.0"
     inkscape:showpageshadow="2"
     inkscape:pageopacity="0.0"
     inkscape:pagecheckerboard="0"
     inkscape:deskcolor="#d1d1d1"
     inkscape:zoom="2"
     inkscape:cx="121.25"
     inkscape:cy="120"
     inkscape:window-width="1848"
     inkscape:window-height="1016"
     inkscape:window-x="72"
     inkscape:window-y="27"
     inkscape:window-maximized="1"
     inkscape:current-layer="g1"
     inkscape:document-units="mm" />
  <g
     inkscape:groupmode="layer"
     inkscape:label="Image"
     id="g1">
    <path
       style="fill:#000000;fill-opacity:1;stroke-width:0.150525;stroke-linejoin:bevel;stroke-miterlimit:0;stroke-dasharray:none"
       d="m 117.20114,173.35832 c -3.23985,-0.20862 -7.50731,-0.78829 -9.70453,-1.31818 -2.41965,-0.58355 -6.32365,-2.17107 -9.616125,-3.91029 -10.400749,-5.4941 -18.26337,-14.03795 -22.920971,-24.90688 -2.619373,-6.11254 -3.667375,-11.52828 -3.674784,-18.99015 -0.0092,-9.22708 1.910327,-18.11174 5.490413,-25.41328 2.144127,-4.372922 4.577662,-7.668763 9.006351,-12.197689 6.580455,-6.729399 13.830016,-11.869299 19.119696,-13.555769 2.26128,-0.720948 2.25867,-0.665532 -0.085,1.806318 -1.12868,1.190374 -2.34553,2.541329 -2.70412,3.00212 -2.23177,2.867827 -3.21262,5.452982 -2.72029,7.169641 0.11542,0.402384 0.0892,0.50965 -0.1934,0.792269 -0.42954,0.429536 -1.03221,0.579378 -3.371348,0.838208 -3.029308,0.335202 -3.643071,0.568111 -4.919268,1.866744 -1.559469,1.586881 -4.61599,6.158343 -6.366776,9.522418 -3.381951,6.4983 -5.378666,13.45081 -6.091952,21.21204 -0.216681,2.35781 -0.177155,7.71242 0.07466,10.11027 0.772439,7.35551 2.910433,13.85885 6.155592,18.72403 4.353179,6.52635 10.741866,12.31616 17.113402,15.5092 3.7204,1.86444 6.05752,2.71297 7.47242,2.71297 1.42787,0 1.85772,-0.42192 1.9561,-1.91999 0.0953,-1.4509 0.15036,-1.63343 0.42505,-1.40863 0.12559,0.10278 0.68053,0.88207 1.23321,1.73176 1.63403,2.51214 3.59189,4.19884 6.403,5.51617 1.39372,0.65312 3.57385,1.24713 4.57721,1.24713 1.30013,0 2.60094,0.54353 2.4525,1.02476 -0.10042,0.32549 -1.04385,0.63694 -2.36816,0.7818 -1.23307,0.13488 -5.01041,0.16458 -6.74282,0.053 z"
       id="path2" />
    <path
       style="fill:#000000;fill-opacity:1;stroke-width:0.150525;stroke-linejoin:bevel;stroke-miterlimit:0;stroke-dasharray:none"
       d="m 127.98394,167.41281 c -1.35578,-0.75982 -2.59931,-1.75996 -4.5516,-3.66071 -2.16054,-2.10351 -4.04956,-4.38659 -4.62539,-5.59029 -1.6842,-3.52058 -4.14158,-15.10018 -4.46628,-21.04585 -0.14341,-2.62616 -0.32522,-3.76316 -0.644,-4.02773 -0.2837,-0.23545 -1.20873,0.42259 -3.40738,2.42399 -3.35809,3.05681 -5.04569,5.09329 -5.72939,6.91383 -0.45966,1.22396 -0.3557,2.57562 0.30293,3.93868 0.52016,1.07648 0.87765,1.57762 2.9009,4.06654 2.10034,2.58374 2.38526,3.58882 2.11284,7.45322 -0.0974,1.38237 -0.21807,2.55821 -0.26805,2.61297 -0.12294,0.13469 -6.51448,-5.87803 -8.1953,-7.70959 -7.097418,-7.73391 -10.954368,-16.17329 -12.092955,-26.46054 -0.24616,-2.22419 -0.244359,-9.13335 0.0029,-11.17068 1.837218,-15.13648 9.773895,-28.268298 21.557125,-35.667837 2.33774,-1.468041 5.62185,-3.044369 8.34551,-4.005743 1.61894,-0.571438 2.01464,-0.604503 1.87727,-0.156871 -0.16903,0.550841 -1.25138,1.944981 -2.69101,3.466203 l -1.39724,1.476427 0.47109,12.417101 c 1.01787,26.83009 1.42441,34.9989 2.23364,44.88188 0.67985,8.30295 1.44519,12.3106 3.49772,18.31544 1.56832,4.58828 3.00324,7.47731 4.87772,9.8207 1.01086,1.26374 1.32405,1.74048 1.32405,2.0155 0,0.27991 -0.62795,0.14572 -1.43513,-0.30666 z m -26.12381,-31.8925 c 1.34966,-0.91665 3.87153,-2.85062 8.03719,-6.16354 l 3.5876,-2.85319 -0.066,-1.13537 c -0.0363,-0.62446 -0.1909,-4.77982 -0.34351,-9.23413 -0.58096,-16.95542 -1.10196,-28.062684 -1.33395,-28.438047 -0.0398,-0.06433 -0.25918,-0.116998 -0.4876,-0.116998 -1.36904,0 -4.63219,2.779872 -7.00371,5.966436 -3.07431,4.13089 -5.40485,9.548289 -6.659079,15.479219 -0.771921,3.65022 -0.906094,5.05675 -0.911279,9.55297 -0.0051,4.30232 0.06983,5.1969 0.695046,8.31389 0.667072,3.32564 2.857952,9.27992 3.414542,9.27992 0.0616,0 0.54345,-0.29301 1.07077,-0.65116 z"
       id="path3" />
    <path
       style="fill:#000000;fill-opacity:1;stroke-width:0.150525;stroke-linejoin:bevel;stroke-miterlimit:0;stroke-dasharray:none"
       d="m 132.72559,167.03505 c -1.05366,-0.33667 -1.74698,-0.80217 -3.00417,-2.01702 -3.19538,-3.08775 -4.85703,-6.96958 -4.15552,-9.70784 0.26963,-1.05253 0.70071,-1.67417 1.90799,-2.75151 2.27134,-2.02688 7.269,-5.77236 7.70506,-5.77453 0.24553,-0.001 0.0482,0.46686 -0.87876,2.08489 -2.27359,3.96845 -2.74752,5.50302 -2.87059,9.29471 -0.0846,2.60731 0.0607,3.43056 0.68787,3.89616 0.35989,0.26717 0.58019,0.29286 2.51341,0.29286 2.03601,0 2.14997,-0.0152 2.91182,-0.38936 2.01423,-0.98914 2.90046,-3.98089 2.90415,-9.80388 0.005,-7.95225 -1.81171,-18.01329 -4.56262,-25.2676 -1.28541,-3.38969 -4.08906,-8.4729 -8.05139,-14.59775 -4.26035,-6.58553 -5.10109,-7.99792 -6.52474,-10.96123 -1.92648,-4.009912 -2.63241,-7.135542 -2.63808,-11.680426 -0.009,-7.096507 2.80553,-12.278931 7.06441,-13.008444 1.65127,-0.282843 3.53295,0.282368 5.3145,1.59636 1.17729,0.868318 3.33341,3.114972 3.68351,3.83817 0.38441,0.794085 0.31387,1.050826 -0.61481,2.237956 -1.11238,1.421965 -2.13698,3.046062 -3.64385,5.775893 -0.74187,1.343972 -1.41569,2.506419 -1.49737,2.583218 -0.3588,0.33736 0.51746,-3.469774 1.49149,-6.480168 0.44178,-1.365378 0.50818,-1.73654 0.4647,-2.597576 -0.0422,-0.835541 -0.11969,-1.104064 -0.46046,-1.595816 -0.92906,-1.340629 -2.483,-1.889082 -3.65636,-1.290481 -1.4565,0.743052 -2.60962,2.837388 -3.21898,5.846421 -0.33993,1.678568 -0.34315,6.652973 -0.005,8.491389 0.6527,3.553844 2.01513,6.263714 7.04847,14.019464 4.13754,6.37544 5.39797,8.50584 7.40197,12.51089 3.98649,7.9671 6.10632,14.96496 7.10618,23.45842 0.35703,3.03291 0.36278,10.65718 0.01,12.88325 -0.72423,4.56614 -2.19364,7.09107 -4.89078,8.40394 -1.47641,0.71866 -2.84967,0.9863 -5.01218,0.97684 -1.2722,-0.006 -1.92672,-0.0747 -2.52907,-0.26717 z"
       id="path4" />
    <path
       style="fill:#000000;fill-opacity:1;stroke-width:0.150525;stroke-linejoin:bevel;stroke-miterlimit:0;stroke-dasharray:none"
       d="m 145.33728,165.43628 c 0,-0.032 0.31466,-0.70749 0.69927,-1.50106 1.57676,-3.25338 2.14595,-7.44704 2.14787,-15.82508 0.002,-10.55663 -1.06347,-18.36418 -3.54573,-25.97182 -2.7378,-8.39083 -6.03454,-15.31216 -11.07333,-23.24786 l -1.72817,-2.721739 1.53068,-2.514511 c 2.83512,-4.657345 3.65399,-5.7959 4.16854,-5.7959 0.25495,0 0.26708,0.107046 0.23315,2.059594 -0.0313,1.795385 0.005,2.202891 0.28356,3.176659 0.65394,2.287201 2.03033,4.736037 3.36014,5.978257 0.89673,0.83768 1.34736,0.85671 1.73046,0.0731 0.94867,-1.940471 0.35598,-11.877269 -1.03556,-17.361663 -0.15589,-0.614386 -0.74107,-2.091009 -1.30041,-3.281386 -1.12328,-2.390571 -1.27877,-2.792668 -1.07989,-2.792668 0.46205,0 4.89134,3.608266 8.67606,7.067841 6.88292,6.291594 10.17154,10.402433 13.32198,16.652686 2.84386,5.64204 4.58759,11.52922 5.42299,18.30914 0.27257,2.21207 0.23118,9.23923 -0.0675,11.44994 -0.53959,3.99469 -1.07505,6.13571 -1.08083,4.32166 -0.005,-1.6146 -0.61196,-3.40081 -1.68863,-4.97064 -0.21848,-0.31855 -1.0644,-1.28514 -1.87983,-2.14798 -2.11008,-2.23276 -2.39041,-2.79306 -1.65383,-3.30548 0.7699,-0.53559 1.33805,-1.07734 1.5406,-1.46903 0.78365,-1.51542 0.41339,-4.5382 -1.27895,-10.44124 -1.18146,-4.12106 -2.57517,-7.62408 -4.83322,-12.14811 -2.33987,-4.687955 -4.44868,-7.967047 -6.1648,-9.585951 -0.86329,-0.814385 -1.00617,-0.89797 -1.46906,-0.85943 -0.44138,0.03674 -0.55163,0.120441 -0.79202,0.601223 -0.23296,0.465891 -0.27621,0.813298 -0.26086,2.0945 0.0442,3.691163 1.33337,8.650018 4.06565,15.638948 1.3949,3.56802 2.47526,6.77442 2.62293,7.78457 0.19286,1.31921 -0.49977,0.70322 -2.23733,-1.98978 -1.25111,-1.93907 -2.55873,-3.4733 -3.84129,-4.50702 -1.20929,-0.97466 -2.05499,-1.39279 -2.69242,-1.33119 -0.38859,0.0375 -0.45502,0.10171 -0.49141,0.47467 -0.0595,0.60945 0.91843,3.48067 2.87298,8.43548 2.53948,6.43763 3.5007,9.51105 4.43241,14.17223 1.02517,5.12881 1.21022,7.72314 1.16537,16.33767 -0.0405,7.77103 0.004,8.31491 0.74666,9.05719 0.40168,0.40169 0.40977,0.43403 0.21169,0.84666 -0.59913,1.24817 -3.54229,4.46394 -6.99421,7.64205 -1.57728,1.45218 -2.04375,1.81633 -2.04375,1.59548 z"
       id="path5" />
    <path
       style="fill:#6f272a;fill-opacity:1;stroke-width:0.425749;stroke-linejoin:bevel;stroke-miterlimit:0;stroke-dasharray:none"
       d="M 109.86673,216.31671 C 91.945499,215.10043 70.657845,204.74075 56.201262,190.20029 50.62471,184.59138 46.5951,178.92617 42.057596,170.31577 36.843362,160.4212 35.898052,158.27629 34.437028,153.0248 31.824029,143.63263 25.375,110.16062 25.375,105.99069 c 0,-2.89475 0.441884,-4.07018 2.612417,-6.9491 5.294454,-7.022384 7.599786,-17.531025 6.522944,-29.734228 C 33.632937,59.364064 32.775725,56.59286 28.94281,51.308531 25.579577,46.671748 25.43632,45.691664 26.229057,32.742664 l 0.468718,-7.656301 2.399421,-1.53062 c 1.319682,-0.841841 6.042771,-3.334538 10.495753,-5.539327 4.452983,-2.204789 10.584474,-5.460146 13.625535,-7.234128 3.041062,-1.773982 6.795621,-3.8883857 8.343463,-4.6986758 l 2.81426,-1.4732545 3.381723,2.2043187 c 4.550126,2.9659226 18.079497,9.5597466 20.75425,10.1150246 1.182766,0.245541 3.233794,0.852881 4.557845,1.349646 4.61284,1.730672 14.212145,3.192551 23.650145,3.601681 6.29586,0.272922 12.56302,-0.369848 18.14138,-1.860608 4.69733,-1.255314 19.97177,-9.030983 29.34683,-14.9394192 0.70464,-0.4440808 1.20861,-0.2700128 4.19708,1.4496304 1.86795,1.0748713 4.70595,2.9790558 6.30666,4.2315208 3.41787,2.674299 7.38652,4.725729 12.58953,6.507631 2.06357,0.706725 6.50668,2.562863 9.87357,4.124751 l 6.12162,2.839797 0.25437,3.540472 c 0.39987,5.565216 0.35821,17.192362 -0.0682,19.040547 -0.21283,0.922387 -1.18101,2.915864 -2.15151,4.429949 -3.75122,5.852276 -6.63001,12.526061 -7.75556,17.979381 -1.06777,5.173371 -0.97419,7.860099 0.40215,11.54584 3.77227,10.101901 5.30013,13.779756 6.37098,15.336173 2.4105,3.503547 2.4777,3.950947 2.65949,17.705167 0.18379,13.90587 0.1831,13.91399 -2.47496,28.67988 -0.958,5.32186 -1.93778,10.91677 -2.17729,12.43313 -0.77644,4.91574 -8.29892,21.22898 -10.65747,23.11175 -0.13605,0.10859 -1.1161,1.44154 -2.17787,2.96207 -6.4775,9.27621 -18.81969,21.06192 -27.15332,25.92902 -5.93889,3.4685 -15.90673,7.26191 -22.15048,8.4297 -6.36619,1.19069 -17.15423,1.58343 -26.35042,0.9593 z m 74.0779,-38.10785 c 0.50959,-0.11535 1.841,-1.95053 3.75196,-5.17159 1.62914,-2.74602 3.02131,-5.14383 3.09372,-5.32845 0.0724,-0.18461 -8.63609,-0.34024 -19.35221,-0.34582 l -19.48386,-0.0101 5.13426,-4.88182 5.13426,-4.88181 13.42807,-0.20051 c 11.07178,-0.1653 14.01713,-0.32911 16.78508,-0.93344 3.25089,-0.70976 3.36075,-0.77039 3.47522,-1.91776 0.065,-0.65166 0.727,-5.18363 1.47106,-10.07105 0.74407,-4.88742 1.64155,-11.64095 1.99438,-15.00784 1.06477,-10.16032 0.37008,-27.05764 -1.21804,-29.62728 -0.14999,-0.24272 -5.46891,-0.38843 -14.1779,-0.38843 h -13.93786 l -2.80308,-5.232995 -2.80308,-5.232995 14.987,-0.103412 c 11.78188,-0.08133 14.98701,-0.210498 14.98701,-0.60401 0,-0.275323 -0.77088,-2.805774 -1.71307,-5.623247 l -1.71306,-5.122679 -18.72524,-0.214464 c -11.69843,-0.133987 -19.16985,-0.372551 -19.91006,-0.635738 -0.65166,-0.231699 -3.60875,-1.66909 -6.57131,-3.194205 -9.46221,-4.871094 -14.10911,-5.995263 -24.82666,-6.006019 -8.02309,-0.0079 -13.26423,0.464491 -17.25043,1.555292 -3.70263,1.013203 -10.252662,3.931883 -13.838116,6.16624 -2.061903,1.284917 -3.536418,1.888955 -5.331731,2.184142 -1.647333,0.270868 -9.862616,0.313079 -24.436655,0.125561 l -21.955042,-0.282464 -1.039822,3.310356 c -1.111167,3.537498 -1.825502,6.455079 -1.841192,7.520066 -0.0088,0.599034 1.590489,0.668708 18.651403,0.812537 13.167382,0.110995 18.985689,0.294975 19.763771,0.624892 l 1.102716,0.467571 -1.300188,1.307293 c -0.715099,0.719014 -2.099943,2.851154 -3.077427,4.738094 l -1.777244,3.430794 -13.230592,0.0111 c -14.422476,0.012 -21.889657,0.44634 -23.691919,1.37832 -1.383523,0.71545 -1.973997,2.49386 -1.977176,5.95492 -0.0028,3.10137 4.005477,24.3944 7.373542,39.16973 l 2.633319,11.55199 h 18.377174 18.377173 l 5.038475,4.98535 5.038475,4.98534 -20.52132,-0.16328 c -11.286726,-0.0898 -20.521319,-0.0976 -20.521319,-0.0174 0,0.0802 1.521419,2.68757 3.380927,5.79405 l 3.380931,5.64816 65.437897,-0.17207 c 35.99084,-0.0947 65.79334,-0.25255 66.22778,-0.3509 z"
       id="path6" />
    <path
       style="fill:#b3b3b3;fill-opacity:1;stroke-width:0.539;stroke-linejoin:bevel;stroke-miterlimit:0;stroke-dasharray:none"
       d="M 51.856502,177.45719 C 51.430657,176.79324 49.939691,174.3375 48.543245,172 l -2.538994,-4.25 20.357814,-0.1307 20.357815,-0.1307 -4.97556,-4.9943 L 76.768761,157.5 H 58.418074 c -17.042506,0 -18.369588,-0.0624 -18.615823,-0.875 -0.496592,-1.63884 -3.745342,-16.34988 -5.500399,-24.90698 -4.268165,-20.81022 -5.049178,-28.18498 -3.182569,-30.05159 1.31418,-1.31418 4.490063,-1.60594 21.478726,-1.973168 l 16.348009,-0.353384 1.578009,-2.960647 c 0.867905,-1.628356 2.259994,-3.737385 3.093531,-4.686732 0.833537,-0.949347 1.355673,-1.885935 1.160301,-2.081307 -0.505622,-0.505621 -13.552432,-1.019889 -27.123351,-1.069124 -7.01786,-0.02546 -11.715532,-0.236299 -11.899564,-0.534069 -0.16724,-0.2706 0.30491,-2.758193 1.049223,-5.527984 L 38.157464,77.44403 61.703732,77.597015 85.25,77.75 93,73.900797 c 9.12783,-4.533532 11.82253,-5.296895 20.92696,-5.928261 14.6553,-1.016303 21.45748,0.370986 34.57304,7.051092 l 4.25,2.164639 19,0.280866 19,0.280867 1.59248,4.5 c 0.87586,2.475 1.60711,4.89375 1.625,5.375 0.0303,0.814294 -0.99081,0.875 -14.71748,0.875 -10.30609,0 -14.75,0.164092 -14.75,0.544647 0,0.299556 1.17474,2.743354 2.61054,5.430663 l 2.61054,4.886015 13.92094,0.250817 c 7.65652,0.13795 14.11486,0.450398 14.35188,0.694338 1.55741,1.60288 2.00978,21.56933 0.73506,32.44352 -0.74241,6.33332 -2.48727,18.62883 -3.03143,21.36166 -0.20736,1.04143 -0.70342,1.48997 -2.10933,1.90728 -1.01101,0.30009 -8.58636,0.75826 -16.83411,1.01817 l -14.9959,0.47255 -4.88955,4.87017 -4.88955,4.87017 18.71942,0.25 c 10.29568,0.1375 18.88044,0.41131 19.07725,0.60847 0.39351,0.39419 -3.16075,6.63609 -4.9194,8.63933 l -1.10636,1.26024 -65.55962,0.32817 -65.559614,0.32818 z m 74.082558,-4.40895 c 1.07868,-0.68322 0.27483,-1.38623 -2.00127,-1.75019 -3.83739,-0.61363 -6.84822,-2.29179 -9.63323,-5.36932 -1.45769,-1.6108 -2.7826,-2.92873 -2.94424,-2.92873 -0.16165,0 -0.3651,0.61875 -0.45211,1.375 -0.21329,1.85367 -1.70445,2.01011 -5.52851,0.58001 C 96.491075,161.63088 86.73077,152.44809 82.51874,143.44673 79.70035,137.42365 78.851611,133.10152 78.79816,124.5 78.72599,112.88612 80.94405,104.4428 86.46641,95.30989 90.484665,88.664479 91.684975,87.549885 95.463465,86.955322 99.425755,86.331838 99.5,86.285767 99.5,84.450572 c 0,-2.101752 1.52517,-4.843316 4.74362,-8.52684 3.30428,-3.781771 2.81095,-4.24546 -2.0812,-1.956148 -4.677965,2.189085 -9.14697,5.504404 -14.845885,11.013379 -7.093685,6.857262 -10.488398,11.94144 -13.100964,19.621007 -2.216993,6.51678 -2.908939,11.16357 -2.925762,19.64803 -0.0135,6.8101 0.154925,8.63213 1.132389,12.25 2.403416,8.89572 6.738107,16.26941 13.531437,23.01818 6.77626,6.73181 15.864715,11.73151 24.005075,13.20556 4.27404,0.77394 14.92917,0.99031 15.98035,0.3245 z m 3.56094,-5.3602 c 0,-0.17157 -0.88505,-1.63732 -1.96678,-3.25723 -3.66024,-5.48124 -6.23212,-14.10251 -7.26352,-24.3482 -0.92867,-9.22519 -1.56294,-20.70011 -2.34328,-42.393421 l -0.61371,-17.060811 2.14578,-2.689189 c 1.95337,-2.448057 2.05303,-2.703306 1.11152,-2.846621 -1.31345,-0.199932 -8.54692,3.222559 -11.8035,5.584777 -6.36648,4.618049 -11.4044,10.801793 -14.98803,18.396896 -3.25482,6.898219 -4.31348,11.400419 -4.6266,19.675759 -0.42676,11.27854 1.716745,19.62657 7.15197,27.85384 2.47004,3.73888 12.05062,13.89616 13.10719,13.89616 0.39867,0 0.58896,-1.19062 0.58896,-3.68512 0,-3.63623 -0.0334,-3.73075 -2.5161,-7.125 -2.76434,-3.77928 -3.25763,-5.0312 -2.76142,-7.00825 0.39184,-1.56121 7.96146,-9.43598 8.65708,-9.00607 0.26399,0.16316 0.63426,2.04665 0.82282,4.18554 0.44822,5.08446 2.52936,15.38534 3.78611,18.73987 1.10369,2.94599 4.44072,7.03561 7.88984,9.66921 2.0791,1.58751 3.62167,2.19142 3.62167,1.41786 z m 10.71714,-1.18062 c 4.05768,-1.98124 5.25268,-5.38486 5.26904,-15.00742 0.0244,-14.33538 -3.50824,-24.82532 -13.97955,-41.51169 C 124.12191,98.220519 123.79294,97.411239 123.78789,91 c -0.005,-5.864889 0.73417,-8.336179 2.92034,-9.768615 1.19956,-0.785977 1.381,-0.78793 2.54177,-0.02736 1.55208,1.016964 1.60208,2.633536 0.23986,7.755945 -0.54263,2.040481 -0.8855,3.811063 -0.76194,3.934627 0.12357,0.123563 0.85408,-0.84875 1.62337,-2.160696 0.76929,-1.311945 2.12996,-3.498887 3.02371,-4.859871 0.89375,-1.360983 1.625,-2.855059 1.625,-3.320167 0,-0.916349 -3.57111,-4.589954 -5.34213,-5.495463 -1.66816,-0.852915 -4.72981,-0.663234 -6.4754,0.401175 -3.85781,2.352371 -5.80033,11.410999 -3.97425,18.533198 1.07873,4.207307 2.67908,7.352047 8.26678,16.244437 5.88808,9.37043 8.70023,15.28136 10.2348,21.51279 1.82523,7.41169 2.39765,12.36661 2.20919,19.12274 -0.14547,5.21446 -0.3153,6.25409 -1.2199,7.46755 -0.89975,1.20693 -1.45121,1.4311 -3.83378,1.55843 -2.46358,0.13166 -2.82144,0.0272 -3.11906,-0.91053 -0.63748,-2.00851 0.32226,-6.90937 2.06534,-10.54657 0.9438,-1.96938 1.6066,-3.6901 1.47288,-3.82381 -0.32196,-0.32197 -6.63916,4.3876 -8.49281,6.33152 -1.1462,1.20202 -1.45778,1.98644 -1.45575,3.66501 0.004,3.30969 2.81101,8.0751 5.847,9.92636 2.11804,1.29151 6.35292,1.27591 9.03423,-0.0333 z m 10.16329,-5.28895 c 3.77275,-3.82404 4.18628,-4.42507 3.87016,-5.625 -0.19466,-0.73891 -0.53487,-6.29347 -0.75601,-12.34347 -0.22115,-6.05 -0.52882,-11.45 -0.6837,-12 -0.15489,-0.55 -0.65431,-2.575 -1.10982,-4.5 -0.45551,-1.925 -2.15759,-7.07326 -3.7824,-11.44057 -1.62481,-4.36731 -2.85461,-8.04015 -2.73289,-8.16187 0.66004,-0.66004 3.68685,1.8419 5.90315,4.8795 1.39367,1.91012 2.74918,3.47294 3.01224,3.47294 0.68165,0 0.0482,-2.51507 -1.95183,-7.75 C 149.455,100.69792 148,95.155412 148,91.944066 c 0,-3.448696 0.68669,-3.804981 2.70669,-1.404344 4.72612,5.616671 10.68,19.816318 11.60347,27.673568 0.26904,2.28916 0.15628,2.74987 -1.01328,4.1398 l -1.31601,1.56399 2.05988,2.38 c 2.12325,2.45322 3.14394,4.34896 3.74357,6.95292 l 0.34541,1.5 0.51888,-1.5 c 0.28538,-0.825 0.5339,-5.325 0.55226,-10 0.0306,-7.79236 -0.0808,-8.91086 -1.3379,-13.43521 -2.73538,-9.844431 -6.83298,-16.853337 -14.08162,-24.086437 -5.09017,-5.079272 -11.65188,-10.524492 -12.11924,-10.057134 -0.1694,0.169401 0.27068,1.606428 0.97795,3.193392 0.70728,1.586964 1.55379,4.347889 1.88113,6.135389 0.67278,3.673701 0.92361,13.714782 0.35687,14.285794 -0.5944,0.598886 -2.25164,-1.211605 -3.61694,-3.951394 C 138.38959,93.58547 138,91.984435 138,90.151828 138,88.693322 137.78581,87.5 137.52402,87.5 c -0.51369,0 -2.58435,2.889002 -4.6588,6.5 l -1.29258,2.25 2.52054,4 c 5.84296,9.27257 10.94265,21.99282 12.6287,31.5 1.85974,10.48658 1.48897,26.60465 -0.72748,31.625 -0.57852,1.31037 -0.72731,2.125 -0.38812,2.125 0.30253,0 2.4509,-1.92669 4.77415,-4.28153 z"
       id="path7" />
    <path
       style="fill:#b3b3b3;fill-opacity:1;stroke-width:0.539;stroke-linejoin:bevel;stroke-miterlimit:0;stroke-dasharray:none"
       d="m 99.305247,132.37206 c -1.926048,-5.39098 -2.279575,-7.53909 -2.293024,-13.93295 -0.02265,-10.7668 3.670987,-21.056993 9.803587,-27.31207 C 108.50201,89.407168 110.23198,88 110.66018,88 c 0.54098,0 0.85952,0.648429 1.04392,2.125 0.33572,2.688337 1.30201,27.29726 1.28105,32.625 l -0.0157,4 -5.53607,4.25 c -3.04483,2.3375 -5.82811,4.41743 -6.18505,4.62206 -0.46866,0.26867 -1.00857,-0.63441 -1.943053,-3.25 z"
       id="path8" />
  </g>
</svg>
