<?xml version="1.0" encoding="UTF-8" standalone="no"?>
<svg
   version="1.1"
   width="60.924999mm"
   height="60.924999mm"
   id="svg139"
   sodipodi:docname="1corazon-con-patita-perro.svg"
   inkscape:version="1.3.2 (1:1.3.2+202311252150+091e20ef0f)"
   xmlns:inkscape="http://www.inkscape.org/namespaces/inkscape"
   xmlns:sodipodi="http://sodipodi.sourceforge.net/DTD/sodipodi-0.dtd"
   xmlns="http://www.w3.org/2000/svg"
   xmlns:svg="http://www.w3.org/2000/svg"
   xmlns:inkstitch="http://inkstitch.org/namespace">
  <metadata
     id="metadata139">
    <inkstitch:min_stitch_len_mm>0</inkstitch:min_stitch_len_mm>
    <inkstitch:collapse_len_mm>3</inkstitch:collapse_len_mm>
    <inkstitch:inkstitch_svg_version>1</inkstitch:inkstitch_svg_version>
  </metadata>
  <defs
     id="defs139" />
  <sodipodi:namedview
     id="namedview139"
     pagecolor="#ffffff"
     bordercolor="#666666"
     borderopacity="1.0"
     inkscape:showpageshadow="2"
     inkscape:pageopacity="0.0"
     inkscape:pagecheckerboard="0"
     inkscape:deskcolor="#d1d1d1"
     inkscape:zoom="2.6666667"
     inkscape:cx="153.375"
     inkscape:cy="96.75"
     inkscape:window-width="1848"
     inkscape:window-height="1016"
     inkscape:window-x="72"
     inkscape:window-y="27"
     inkscape:window-maximized="1"
     inkscape:current-layer="svg139"
     inkscape:document-units="mm" />
  <path
     d="m 184.84941,24.247801 c 0.25225,0.11873 0.50451,0.237461 0.7644,0.359789 5.39301,2.562705 13.00326,6.607588 15.57225,12.27991 0.39643,0.91935 0.39643,0.91935 1.68638,1.19193 0.53938,0.641808 0.53938,0.641808 1.07241,1.466991 0.1964,0.303105 0.3928,0.606215 0.59515,0.918508 0.2018,0.319313 0.4036,0.638631 0.61152,0.967623 0.20018,0.306349 0.40036,0.612699 0.60661,0.928328 1.36192,2.126031 2.43939,4.284435 3.40142,6.616196 0.21612,0.508422 0.43224,1.016843 0.6549,1.540668 1.746,4.417189 2.80074,8.858177 3.5365,13.548381 0.0444,0.28126 0.0889,0.562516 0.13467,0.852301 0.38948,2.903607 0.3478,5.827068 0.33911,8.750781 -0.002,0.901172 0,1.802261 0.003,2.703434 0.001,2.774054 -0.0271,5.489119 -0.47642,8.231357 -0.56105,-0.328107 -1.11942,-0.660783 -1.67657,-0.995458 -0.31121,-0.184783 -0.62242,-0.369565 -0.94306,-0.559947 -0.36308,-0.267445 -0.36308,-0.267445 -0.7335,-0.540297 0,-0.276632 0,-0.553265 0,-0.83828 -0.2896,-0.1059 -0.5792,-0.211796 -0.87757,-0.320906 -1.39183,-0.591152 -2.64114,-1.319056 -3.94254,-2.089151 -3.14453,-1.833503 -6.38761,-3.561267 -9.8498,-4.715327 -0.0205,-0.476542 -0.0411,-0.953088 -0.0622,-1.444069 -0.47793,-10.279293 -2.12264,-18.970467 -8.892,-27.003437 -0.68589,-0.892312 -0.68589,-0.892312 -1.10503,-2.149733 -0.76652,-0.435868 -0.76652,-0.435868 -1.67656,-0.83828 -0.63448,-0.445974 -1.26272,-0.900884 -1.88613,-1.362206 -2.32245,-1.644212 -4.75159,-2.903481 -7.33495,-4.086618 -0.2734,-0.129133 -0.54678,-0.258261 -0.82846,-0.391305 -0.83203,-0.353704 -1.65498,-0.617632 -2.52467,-0.866115 -0.40414,-0.116706 -0.80828,-0.233411 -1.22467,-0.35365 -8.49176,-2.002422 -18.51132,-1.697225 -26.85772,0.77279 -0.30216,0.08516 -0.60433,0.17033 -0.91564,0.258073 -8.40851,2.381354 -16.08064,6.318527 -22.92296,11.741456 -1.30982,0.993819 -1.30982,0.993819 -2.56724,1.412959 -0.13831,0.414949 -0.27663,0.829898 -0.41914,1.257421 -0.75969,0.733495 -0.75969,0.733495 -1.67656,1.257421 -1.54073,-0.174484 -2.52488,-0.947266 -3.74607,-1.859935 -0.40738,-0.303106 -0.81477,-0.606215 -1.23449,-0.918508 -1.55104,-1.179792 -3.09258,-2.371592 -4.63357,-3.564432 -1.7157,-1.322212 -3.45421,-2.609299 -5.212957,-3.873669 -0.351176,-0.254381 -0.351176,-0.254381 -0.709449,-0.513895 -9.236531,-6.589489 -20.998441,-8.208921 -32.039668,-6.377362 -4.716418,0.887312 -8.911148,2.366914 -13.199133,4.533593 -0.339848,0.162631 -0.679695,0.325261 -1.029841,0.492817 -2.18981,1.056774 -4.189994,2.234667 -6.174133,3.641281 -0.759691,0.476445 -0.759691,0.476445 -1.597972,0.476445 0,0.276632 0,0.553265 0,0.83828 -0.618148,0.52984 -1.260426,1.031672 -1.912327,1.519384 -2.007275,1.569684 -3.614016,3.213732 -5.213057,5.18686 -0.261506,0.299325 -0.523008,0.59865 -0.792435,0.907045 -8.379687,9.864273 -10.964051,22.309649 -9.988967,34.972015 1.16269,8.747838 4.655361,20.314432 11.200542,26.572842 0.599928,0.71968 1.193037,1.44507 1.781346,2.17429 2.323433,2.84893 4.569472,5.57815 7.382435,7.95711 0.952823,0.81521 1.864118,1.66681 2.781716,2.52139 1.869685,1.68884 3.831089,3.22652 5.841768,4.74153 0.439263,0.33243 0.439263,0.33243 0.887399,0.67158 0.277174,0.2063 0.554347,0.41259 0.839916,0.62513 0.247695,0.18451 0.495386,0.36903 0.750588,0.55913 0.746652,0.52629 0.746652,0.52629 1.949266,0.86857 0,0.27663 0,0.55326 0,0.83828 0.319858,0.11238 0.639713,0.22476 0.969262,0.34055 1.128271,0.49854 1.533349,0.90464 2.38386,1.75515 0.415489,0.23287 0.830979,0.46574 1.259059,0.70566 1.991998,1.11884 3.824286,2.44918 5.682951,3.7739 2.438135,1.7252 4.880675,3.4204 7.413544,5.00349 3.01783,1.91176 5.843192,4.04607 8.679967,6.21445 0.849652,0.64455 1.705716,1.27936 2.564782,1.9113 3.320027,2.44741 6.509127,4.99231 9.612391,7.70989 0.778322,0.67556 1.569987,1.33643 2.380587,1.97291 0.89265,0.72952 1.5957,1.45209 2.32983,2.33638 1.07557,1.26647 2.19979,2.41999 3.40551,3.56269 1.55138,1.52734 2.8252,3.14142 4.06042,4.9249 0.16527,0.2381 0.33053,0.4762 0.5008,0.72152 1.14957,1.70633 1.14957,1.70633 1.14957,2.6578 0.27663,0 0.55326,0 0.83828,0 0.74606,1.32515 1.4868,2.65321 2.22668,3.98183 0.20937,0.37172 0.41873,0.74345 0.63444,1.12644 3.00684,5.41629 3.00684,5.41629 3.00684,8.30421 0.27664,0 0.55327,0 0.83828,0 0.0432,-0.48032 0.0864,-0.96064 0.13098,-1.45553 0.24491,-1.93583 0.82215,-3.62931 1.54558,-5.43408 0.12832,-0.32422 0.25664,-0.64843 0.38885,-0.98246 2.36109,-5.80552 5.4425,-11.45458 9.25138,-16.43806 1.45359,0.16151 2.11704,0.77786 3.09443,1.819 0.88814,0.91174 1.82779,1.75644 2.77353,2.60817 0.51869,0.46762 0.51869,0.46762 1.04785,0.9447 1.02523,0.89547 2.07425,1.74972 3.14356,2.59179 -0.61307,1.40626 -1.40024,2.33254 -2.46245,3.43172 -6.74202,7.42052 -11.31141,16.47471 -15.4208,25.54668 -0.9764,2.12728 -2.07251,3.94723 -3.49291,5.81025 -0.55326,-0.13832 -1.10653,-0.27664 -1.67656,-0.41914 -0.0331,-0.24999 -0.0663,-0.49998 -0.10049,-0.75755 -0.48873,-3.00978 -1.58733,-5.33628 -3.09545,-7.96581 -0.22656,-0.4035 -0.45311,-0.80701 -0.68653,-1.22273 -0.65486,-1.15964 -1.31837,-2.3138 -1.98549,-3.4664 -0.24891,-0.43501 -0.24891,-0.43501 -0.50285,-0.87881 -1.91494,-3.32964 -4.12065,-6.27183 -6.62254,-9.18056 -0.22422,-0.27555 -0.44844,-0.5511 -0.67946,-0.83501 -1.30605,-1.59274 -2.72979,-2.9426 -4.29946,-4.2749 -0.908944,-0.77502 -1.788376,-1.57677 -2.670385,-2.38222 -8.075617,-7.16608 -17.735337,-12.53203 -27.047645,-17.89369 -2.787781,-1.60555 -5.535376,-3.25775 -8.238726,-5.00185 -1.507651,-0.96769 -3.027902,-1.85914 -4.610542,-2.69821 -2.166503,-1.15609 -4.178854,-2.48769 -6.208515,-3.86723 -1.330025,-0.88794 -2.683416,-1.68069 -4.086618,-2.44607 0,-0.27664 0,-0.55327 0,-0.83828 -0.311212,-0.11671 -0.622423,-0.23341 -0.943066,-0.35365 -6.598789,-2.77449 -12.527964,-8.90989 -17.499105,-13.89712 -0.286357,-0.27177 -0.572718,-0.54354 -0.867751,-0.82355 C 18.723084,122.6136 11.887414,109.65857 9.4079015,96.402142 9.2901315,95.807194 9.1567359,95.215108 9.0071825,94.627343 8.1155998,90.923237 8.187759,87.13498 8.1817946,83.346577 c -8.382e-4,-0.371706 -0.00168,-0.743417 -0.00251,-1.126389 0.00993,-6.482843 0.6694718,-12.382225 2.7269684,-18.573203 0.125621,-0.379628 0.251237,-0.759252 0.380663,-1.150385 2.101218,-6.124083 6.289925,-17.007362 12.288505,-20.322367 0.245298,-0.106437 0.490592,-0.212877 0.743321,-0.322541 0.294031,-0.551308 0.572235,-1.111216 0.83828,-1.676561 0.838281,-0.943066 0.838281,-0.943066 1.676561,-1.676561 0.276633,0 0.553265,0 0.838281,0 0.163712,-0.370373 0.163712,-0.370373 0.330726,-0.748233 2.410023,-4.408085 8.564897,-7.16213 12.66258,-9.730274 0.369564,-0.235029 0.739128,-0.470059 1.119892,-0.712211 1.262501,-0.70539 2.571069,-1.262045 3.909791,-1.80263 0.421839,-0.171713 0.421839,-0.171713 0.852196,-0.346896 13.509351,-5.406824 28.556038,-6.764564 42.31925,-1.329665 4.024946,1.80531 8.018283,3.74492 11.316781,6.706244 0.419,0.360649 0.419,0.360649 0.84647,0.728583 0.53985,0.473993 1.07836,0.949533 1.61598,1.426062 0.58521,0.512055 1.17892,1.014596 1.78135,1.506285 2.73786,2.28807 4.80548,4.963074 6.94774,7.790522 0.85001,1.09863 1.74362,2.157525 2.64009,3.218457 0.25286,-0.369024 0.50572,-0.738047 0.76624,-1.118254 0.33833,-0.491752 0.6767,-0.983479 1.01511,-1.475176 0.2488,-0.363487 0.2488,-0.363487 0.50264,-0.734313 1.45713,-2.114039 2.92068,-4.09298 4.86759,-5.788558 0.28149,-0.248537 0.56299,-0.497075 0.85302,-0.75314 0.79735,-0.609065 0.79735,-0.609065 2.05477,-1.028206 0,-0.276632 0,-0.553265 0,-0.83828 15.96092,-13.176257 41.82915,-18.405822 60.77533,-9.221086 z"
     fill="#ec1c25"
     id="path2"
     style="stroke-width:0.41914" />
  <path
     d="m 191.87001,125.91551 c 0.88012,0.61241 1.75222,1.23017 2.61963,1.85993 0.25732,0.18553 0.51463,0.37105 0.77975,0.5622 3.88686,2.81686 7.59177,5.80155 11.19542,8.9714 0.4929,0.43262 0.98994,0.86052 1.48807,1.2871 0.83155,0.71352 1.64872,1.44066 2.46409,2.17265 0.22969,0.2041 0.45939,0.4082 0.69604,0.61848 9.69493,8.65195 9.69493,8.65195 10.39808,14.40017 0.031,3.94379 -0.30695,6.91027 -2.90779,10.02989 -3.4501,3.35709 -8.34292,4.38526 -12.95896,4.36168 -1.25977,-0.0586 -2.33906,-0.1968 -3.55778,-0.48954 -6.38262,-1.41836 -12.04331,-0.12985 -17.60389,3.22214 -1.89622,1.37313 -3.40264,3.11301 -4.93145,4.87415 -3.13837,3.56962 -7.17613,6.2216 -12.03882,6.66367 -3.37035,0.12786 -6.12719,-0.73753 -8.81832,-2.78499 -1.29425,-1.27209 -2.02397,-2.7929 -2.76534,-4.43045 -0.13454,-0.2696 -0.26907,-0.53921 -0.40769,-0.81699 -2.2665,-5.36584 -0.72071,-12.35777 0.3117,-17.8636 0.20099,-1.07258 0.3924,-2.14653 0.58226,-3.22112 4.28107,-23.86227 4.28107,-23.86227 12.20582,-29.49372 1.05575,-0.66987 2.12336,-1.26379 3.23524,-1.83538 0.50166,-0.26177 0.50166,-0.26177 1.01346,-0.52884 6.54324,-2.89119 13.24273,-1.25088 19.00048,2.44117 z"
     fill="#020202"
     id="path3"
     style="stroke-width:0.41914" />
  <path
     d="m 151.31819,84.184858 c 6.13892,3.376983 10.04303,8.855172 12.32207,15.419772 1.6076,5.59809 2.37777,13.1182 -0.167,18.53059 -1.701,2.86432 -3.96324,5.11594 -7.12538,6.2871 -3.99193,0.7343 -7.18657,-0.82636 -10.47851,-2.93398 -6.08229,-4.78857 -9.30801,-12.62476 -10.47851,-20.11873 -0.54117,-5.220742 -0.044,-10.419892 3.12882,-14.738675 3.42146,-4.091828 8.18483,-4.739219 12.79851,-2.446077 z"
     fill="#030303"
     id="path4"
     style="stroke-width:0.41914" />
  <path
     d="m 182.33457,74.125491 c 6.59745,4.07077 10.55522,10.985155 12.31225,18.389779 1.03372,5.92043 0.89985,12.34449 -2.59343,17.42052 -1.68908,2.05776 -3.77637,3.8303 -6.51141,4.1079 -4.71188,0.12881 -7.66878,-1.32803 -11.06066,-4.53922 -5.94695,-5.88701 -9.0306,-13.97398 -9.12193,-22.280846 0.0544,-4.496612 0.98978,-8.377972 3.96055,-11.876733 4.03679,-3.767668 8.30671,-3.49117 13.01463,-1.2214 z"
     fill="#030303"
     id="path5"
     style="stroke-width:0.41914" />
  <path
     d="m 141.1524,122.39866 c 5.94111,3.33786 10.35633,8.55186 12.5431,15.01046 0.20277,1.24555 0.22604,2.4651 0.24232,3.72642 0.0108,0.50032 0.0216,1.00063 0.0327,1.51611 -0.24878,2.65976 -1.47738,4.38784 -3.49064,6.08081 -2.77158,1.60751 -5.60005,1.71882 -8.70371,0.98236 -6.48119,-2.14806 -11.68851,-6.64087 -14.76814,-12.71829 -0.46222,-0.96971 -0.86449,-1.93201 -1.25742,-2.93398 -0.21882,-0.48546 -0.21882,-0.48546 -0.44207,-0.98073 -0.93134,-2.62085 -0.74694,-5.63749 0.25869,-8.21416 3.04191,-5.98606 10.49745,-4.902 15.58514,-2.469 z"
     fill="#030303"
     id="path6"
     style="stroke-width:0.41914" />
  <path
     d="m 212.21305,94.610971 c 3.51973,2.061655 5.79816,5.241669 6.83518,9.187929 0.3546,1.91928 0.37055,3.84937 0.38025,5.79634 0.003,0.39955 0.005,0.7991 0.008,1.21075 -0.097,5.47177 -1.82413,11.07161 -5.64018,15.10952 -2.45734,2.23016 -4.81317,3.00311 -8.11102,2.89469 -2.73379,-0.47271 -4.33708,-2.36616 -5.87779,-4.54506 -3.08786,-4.99261 -3.51284,-11.05544 -2.48864,-16.76561 1.18263,-4.90298 3.42577,-9.47598 7.64931,-12.417026 2.17036,-1.305814 4.89086,-1.37291 7.24491,-0.471533 z"
     fill="#030303"
     id="path7"
     style="stroke-width:0.41914" />
</svg>
