<?xml version="1.0" encoding="UTF-8" standalone="no"?>
<svg
   viewBox="0 0 226.77165 226.77165"
   width="60mm"
   height="60mm"
   version="1.1"
   id="svg35"
   sodipodi:docname="1inter-miami-7mil-puntadas-logo.svg"
   inkscape:export-filename="Inter_Miami_CF_logo.png"
   inkscape:export-xdpi="96"
   inkscape:export-ydpi="96"
   inkscape:version="1.3.2 (1:1.3.2+202311252150+091e20ef0f)"
   xmlns:inkscape="http://www.inkscape.org/namespaces/inkscape"
   xmlns:sodipodi="http://sodipodi.sourceforge.net/DTD/sodipodi-0.dtd"
   xmlns="http://www.w3.org/2000/svg"
   xmlns:svg="http://www.w3.org/2000/svg"
   xmlns:inkstitch="http://inkstitch.org/namespace">
  <sodipodi:namedview
     id="namedview35"
     pagecolor="#ffffff"
     bordercolor="#666666"
     borderopacity="1.0"
     inkscape:showpageshadow="2"
     inkscape:pageopacity="0.0"
     inkscape:pagecheckerboard="0"
     inkscape:deskcolor="#d1d1d1"
     inkscape:zoom="3.264"
     inkscape:cx="87.928922"
     inkscape:cy="128.06373"
     inkscape:window-width="1848"
     inkscape:window-height="1016"
     inkscape:window-x="72"
     inkscape:window-y="27"
     inkscape:window-maximized="1"
     inkscape:current-layer="g35"
     inkscape:document-units="mm" />
  <metadata
     id="metadata37">
    <inkstitch:min_stitch_len_mm>0</inkstitch:min_stitch_len_mm>
    <inkstitch:collapse_len_mm>3</inkstitch:collapse_len_mm>
    <inkstitch:inkstitch_svg_version>1</inkstitch:inkstitch_svg_version>
  </metadata>
  <defs
     id="defs35">
    <inkscape:path-effect
       effect="bend_path"
       id="path-effect61"
       is_visible="true"
       lpeversion="1"
       bendpath="m 149.92542,187.24371 c -16.61442,-24.88629 -26.8202,-51.26675 -27.78515,-75.88078 -0.68838,-17.559501 4.80625,-34.896925 9.29571,-47.070579 18.7408,-50.8177 85.45656,-74.1385096 109.21294,-72.2988964 19.80661,1.5337563 58.33037,6.4894166 80.58479,30.8219994 10.14353,11.090751 25.30818,31.271987 31.71408,56.717804 4.91492,19.523281 -1.76128,87.841412 -20.22395,109.173602"
       prop_scale="1"
       scale_y_rel="false"
       vertical="false"
       hide_knot="false"
       bendpath-nodetypes="csssssc" />
    <inkscape:path-effect
       effect="bend_path"
       id="path-effect9"
       is_visible="true"
       lpeversion="1"
       bendpath="M -4.0442786,-14.955572 C 36.17431,-3.9097387 57.156845,-4.1785223 93.150322,-16.425327"
       prop_scale="1"
       scale_y_rel="false"
       vertical="false"
       hide_knot="false"
       bendpath-nodetypes="cc" />
  </defs>
  <style
     id="style1">
		tspan { white-space:pre }
		.shp0 { fill: #f6b4cd } 
		.shp1 { fill: #000100 } 
		.shp2 { fill: #ffffff } 
	</style>
  <g
     id="g35">
    <path
       class="shp1"
       d="m 90.252642,89.873123 v 0.63596 h 2.40948 v -1.27192 h -2.40948 m 45.439868,0.63596 v 0.63596 h 2.40949 v -1.27192 h -2.40949"
       id="path24"
       style="fill:#000100;stroke-width:0.89572" />
    <path
       class="shp1"
       d="m 110.72455,34.468379 c -1.00761,0.0461 -2.64748,0.164644 -3.65511,0.256845 -1.00103,0.0922 -2.79895,0.302946 -3.99098,0.474177 -1.19203,0.171226 -3.121656,0.493935 -4.280759,0.731023 -1.16568,0.230501 -2.963601,0.632235 -3.990986,0.895661 -1.033962,0.263433 -2.772613,0.750786 -3.865857,1.086656 -1.093244,0.335876 -2.805547,0.908843 -3.813172,1.277645 -1.001035,0.368802 -2.693583,1.040556 -3.753895,1.48839 -1.0669,0.447834 -2.825303,1.257881 -3.918547,1.797916 -1.093236,0.540034 -2.502593,1.264469 -3.128249,1.606933 -0.632234,0.349045 -1.784746,1.007625 -2.56187,1.475214 -0.777123,0.46101 -2.324781,1.448878 -3.444361,2.193069 -1.119589,0.75078 -2.766035,1.90988 -3.655115,2.581626 -0.88908,0.671755 -2.252338,1.751823 -3.029461,2.397226 -0.770534,0.64541 -2.061348,1.771579 -2.871403,2.502603 -0.803467,0.731023 -2.14038,2.028423 -2.976772,2.877983 -0.829811,0.849568 -1.916469,1.9955 -2.410402,2.542115 -0.493934,0.546622 -1.422526,1.62669 -2.067936,2.397225 -0.651991,0.777123 -1.705715,2.114036 -2.351126,2.97678 -0.645403,0.856147 -1.718891,2.364293 -2.377469,3.338993 -0.665167,0.974693 -1.672791,2.548695 -2.23917,3.490462 -0.572958,0.948356 -1.369836,2.337958 -1.778159,3.082149 -0.401733,0.744199 -0.968111,1.824267 -1.257889,2.397226 -0.289769,0.572966 -0.862735,1.797923 -1.277637,2.713346 -0.421489,0.922012 -1.080068,2.46967 -1.462045,3.44437 -0.388566,0.974692 -0.974701,2.548695 -1.297402,3.49705 -0.329288,0.941769 -0.796879,2.42357 -1.053724,3.286306 -0.250257,0.856155 -0.64541,2.311614 -0.875912,3.233621 -0.223913,0.91543 -0.533446,2.232581 -0.678334,2.917508 -0.138301,0.691502 -0.381978,1.982315 -0.533447,2.871403 -0.151477,0.88908 -0.362221,2.29843 -0.46759,3.12825 -0.111964,0.83638 -0.283189,2.3577 -0.381977,3.39167 -0.151476,1.50815 -0.184401,2.8714 -0.184401,6.83605 0,3.96465 0.03294,5.3279 0.184401,6.83604 0.09879,1.03398 0.270013,2.55529 0.381977,3.39169 0.105369,0.8298 0.316113,2.23917 0.46759,3.12824 0.151469,0.88908 0.395146,2.1799 0.533447,2.87141 0.144888,0.68493 0.454421,2.00208 0.678334,2.9175 0.230502,0.922 0.625655,2.37747 0.875912,3.23361 0.256845,0.86275 0.724436,2.34455 1.053724,3.28632 0.322701,0.94836 0.895667,2.49601 1.271057,3.44436 0.37539,0.94836 1.033969,2.49601 1.462046,3.44437 0.428078,0.94836 1.014212,2.19307 1.303981,2.76603 0.289778,0.57296 0.856156,1.65303 1.257889,2.39723 0.408323,0.74419 1.205201,2.13379 1.778159,3.08215 0.566379,0.94176 1.574003,2.51576 2.23917,3.49046 0.658578,0.9747 1.732066,2.48284 2.377469,3.33899 0.645411,0.86274 1.699135,2.19966 2.351126,2.97678 0.64541,0.77054 1.574002,1.85061 2.067936,2.39722 0.493933,0.54663 1.580591,1.69255 2.410402,2.54212 0.836392,0.84957 2.173305,2.14698 2.976772,2.87798 0.810055,0.73103 2.100869,1.85721 2.871403,2.5092 0.777123,0.6454 2.140381,1.71888 3.029461,2.39063 0.88908,0.67175 2.535526,1.83085 3.655115,2.57504 1.11958,0.75079 2.667238,1.73865 3.444361,2.19966 0.777124,0.46759 1.929636,1.12617 2.56187,1.47521 0.625656,0.34247 2.035013,1.0669 3.128249,1.60694 1.093244,0.54003 2.851647,1.35008 3.918547,1.79792 1.060312,0.44783 2.75286,1.11958 3.753895,1.48838 1.007625,0.36881 2.719928,0.94177 3.813172,1.27764 1.093244,0.33589 2.924088,0.84957 4.070014,1.13276 1.152518,0.28978 2.937261,0.6915 3.971232,0.89566 1.033966,0.20417 2.864816,0.50712 4.070026,0.68493 1.20519,0.17123 2.97018,0.38197 3.91195,0.4676 0.94835,0.0856 2.87798,0.21073 4.28075,0.27659 1.40937,0.0658 3.5234,0.0856 4.70226,0.0461 1.17227,-0.033 2.84506,-0.11196 3.70121,-0.16465 0.86274,-0.0593 2.226,-0.17781 3.02946,-0.26342 0.80346,-0.0856 2.14697,-0.25026 2.97678,-0.36881 0.8298,-0.11854 2.26552,-0.35563 3.18751,-0.52687 0.91543,-0.17122 2.37089,-0.47418 3.23363,-0.67174 0.86274,-0.19758 2.27209,-0.54663 3.13484,-0.78372 0.85615,-0.2305 2.50258,-0.73101 3.64852,-1.10641 1.15251,-0.37539 2.89116,-0.98786 3.86585,-1.36326 0.97471,-0.3688 2.64091,-1.06689 3.7078,-1.53449 1.06031,-0.47416 2.46967,-1.13274 3.12825,-1.46203 0.66517,-0.32929 1.76499,-0.90885 2.4565,-1.27765 0.69151,-0.37539 1.98233,-1.11958 2.8714,-1.64644 0.88908,-0.52688 2.43674,-1.51473 3.44436,-2.18648 1.00763,-0.67176 2.62773,-1.82427 3.60243,-2.55529 0.9747,-0.73761 2.38406,-1.85061 3.12825,-2.46967 0.7442,-0.62565 1.89672,-1.62011 2.56187,-2.21941 0.65858,-0.59931 1.9955,-1.89013 2.97678,-2.8714 0.97469,-0.98787 2.3116,-2.39723 2.96361,-3.14142 0.65199,-0.7442 1.61351,-1.87037 2.13379,-2.5026 0.51368,-0.62565 1.53449,-1.94281 2.25892,-2.91751 0.73103,-0.97469 1.69914,-2.33794 2.16013,-3.02945 0.46102,-0.68493 1.26448,-1.92964 1.77817,-2.75945 0.51369,-0.8364 1.29082,-2.14696 1.72547,-2.92409 0.42808,-0.77712 1.17228,-2.18648 1.64645,-3.12825 0.47418,-0.94835 1.15911,-2.37747 1.51474,-3.18094 0.3622,-0.80346 0.96811,-2.25892 1.35667,-3.2402 0.38856,-0.9747 1.04714,-2.80555 1.46863,-4.06344 0.42149,-1.26447 1.00104,-3.18751 1.29739,-4.28075 0.28978,-1.09325 0.69151,-2.75945 0.89567,-3.70122 0.20416,-0.94835 0.53346,-2.66066 0.72444,-3.81316 0.19098,-1.14593 0.44784,-2.90435 0.55979,-3.91196 0.11196,-1.00104 0.27001,-2.52895 0.34247,-3.39168 0.079,-0.94176 0.13171,-3.23362 0.13171,-5.78891 0,-2.55529 -0.0527,-4.84714 -0.13171,-5.78891 -0.0724,-0.86273 -0.23051,-2.39064 -0.34247,-3.39167 -0.11855,-1.00763 -0.34903,-2.64749 -0.51369,-3.65512 -0.16464,-1.001031 -0.44125,-2.528933 -0.61906,-3.391669 -0.17782,-0.856152 -0.55979,-2.463093 -0.84298,-3.569503 -0.2832,-1.106409 -0.77712,-2.845059 -1.09983,-3.859271 -0.32271,-1.020793 -0.86933,-2.627726 -1.21178,-3.576075 -0.34905,-0.948355 -1.01422,-2.614559 -1.47522,-3.701215 -0.46759,-1.093243 -1.2974,-2.897747 -1.85061,-4.017328 -0.5532,-1.119588 -1.37643,-2.69359 -1.82426,-3.497058 -0.44784,-0.803459 -1.23813,-2.14038 -1.75182,-2.976772 -0.51369,-0.829811 -1.31715,-2.074524 -1.77817,-2.759446 -0.46099,-0.691504 -1.4291,-2.054761 -2.16013,-3.029462 -0.72443,-0.974692 -1.74524,-2.291848 -2.25892,-2.917502 -0.52028,-0.632236 -1.4818,-1.758404 -2.13379,-2.502595 -0.65201,-0.744199 -1.98892,-2.153557 -2.96361,-3.141425 -0.98128,-0.98128 -2.3182,-2.272093 -2.97678,-2.871403 -0.66515,-0.599302 -1.81767,-1.593759 -2.56187,-2.219405 -0.74419,-0.619067 -2.08111,-1.679379 -2.97019,-2.351126 -0.88908,-0.671754 -2.20625,-1.620103 -2.92409,-2.114037 -0.71785,-0.493934 -1.82426,-1.224956 -2.4565,-1.62669 -0.63224,-0.401733 -1.8506,-1.139344 -2.71333,-1.639867 -0.86275,-0.507101 -2.36432,-1.330325 -3.33901,-1.837427 -0.97469,-0.50711 -2.60138,-1.290821 -3.60243,-1.745235 -1.00761,-0.461009 -2.60138,-1.139344 -3.54972,-1.514733 -0.94837,-0.37539 -2.56847,-0.974692 -3.60243,-1.323746 -1.03397,-0.349045 -2.60797,-0.849559 -3.49705,-1.106413 -0.88909,-0.256844 -2.25235,-0.632234 -3.02947,-0.823223 -0.77712,-0.197568 -2.35113,-0.540033 -3.49706,-0.770534 -1.14591,-0.230502 -2.71992,-0.513691 -3.49704,-0.625647 -0.77712,-0.118545 -2.0416,-0.289777 -2.81872,-0.381978 -0.77712,-0.0922 -2.27867,-0.230501 -3.33899,-0.309534 -1.0669,-0.07903 -3.22704,-0.171224 -4.80763,-0.197568 -1.57399,-0.02633 -3.68804,-0.0066 -4.69567,0.0461 z"
       id="path2"
       style="fill:#000000;stroke:#000000;stroke-width:0.658579;stroke-opacity:1" />
    <path
       class="shp0"
       d="m 114.07879,86.326073 c -0.0448,0.0806 -0.43891,1.45107 -0.88677,3.05441 -0.44786,1.59438 -0.85989,2.94692 -0.91363,3.00962 -0.0448,0.0537 -1.17339,-0.91364 -2.49906,-2.14973 -1.33462,-1.23609 -2.43636,-2.1766 -2.46323,-2.08703 -0.0179,0.0896 0.3135,1.50481 0.74345,3.14398 0.4389,1.63917 0.7524,3.00962 0.71657,3.04545 -0.0448,0.0448 -1.45106,-0.29559 -3.12606,-0.74345 -1.67499,-0.44786 -3.07232,-0.77032 -3.10815,-0.70762 -0.0358,0.0537 0.95842,1.00321 2.19452,2.09598 1.24505,1.083827 2.26617,2.015367 2.26617,2.051197 0.009,0.0448 -1.3615,0.64492 -3.04545,1.35254 -1.68395,0.69866 -3.09023,1.35254 -3.12606,1.45107 -0.0537,0.14331 0.63596,0.17914 3.19772,0.17914 h 3.26042 c 0,-0.82406 0.0985,-1.41524 0.22393,-1.84518 0.1254,-0.42995 0.42995,-1.15548 0.68075,-1.62126 0.25976,-0.47473 0.80614,-1.164427 1.29879,-1.612287 0.46578,-0.42995 1.15548,-0.93155 1.52272,-1.11069 0.37621,-0.18811 1.048,-0.43891 1.49586,-0.55535 0.44786,-0.11644 1.13756,-0.21497 1.52272,-0.21497 0.39412,0 1.06591,0.0717 1.49585,0.14331 0.42995,0.0806 1.19131,0.34933 1.70187,0.60013 0.55535,0.27768 1.26297,0.79719 1.78248,1.31671 0.53744,0.53743 1.02112,1.200267 1.2988,1.773527 0.24184,0.51056 0.51952,1.34358 0.60909,1.84518 0.0896,0.51056 0.13436,1.05695 0.0896,1.20922 -0.0358,0.15228 -0.45682,0.65388 -0.93155,1.10174 -0.48369,0.45682 -1.24505,0.99425 -1.74665,1.22714 -0.49265,0.23288 -1.30775,0.52847 -1.80936,0.65387 -0.53743,0.14332 -1.49585,0.2508 -2.27513,0.2508 -0.74344,0.009 -1.72874,-0.0717 -2.20347,-0.17018 -0.46577,-0.0985 -1.36149,-0.42099 -1.9885,-0.71658 -0.7524,-0.35829 -1.40628,-0.80615 -1.95267,-1.33462 -0.44786,-0.43891 -0.84197,-0.75241 -0.8778,-0.68971 -0.0358,0.0538 0.0269,0.51952 0.1254,1.03008 0.10749,0.5016 0.39412,1.33462 0.65388,1.83623 0.25975,0.51056 0.82406,1.28983 1.26296,1.72874 0.51952,0.52847 1.14652,0.96737 1.85414,1.30775 0.66283,0.3135 1.45107,0.5643 2.06016,0.64492 0.60013,0.0896 1.33462,0.0896 1.84518,0.0179 0.46577,-0.0627 1.20026,-0.2508 1.63021,-0.41203 0.42995,-0.15227 1.16444,-0.57326 1.63917,-0.91364 0.46577,-0.34933 1.12861,-1.01216 1.46002,-1.46898 0.34038,-0.45681 0.74345,-1.18235 0.90468,-1.61229 0.16123,-0.42995 0.33142,-1.14652 0.3762,-1.59438 l 0.0985,-0.81511 c 5.75948,0 6.44023,-0.0358 6.38648,-0.17914 -0.0448,-0.0985 -1.45106,-0.73449 -3.12606,-1.41524 -1.675,-0.68971 -3.0544,-1.28984 -3.0544,-1.35254 0,-0.0537 1.02112,-1.01216 2.27512,-2.122847 1.25401,-1.11965 2.23035,-2.0512 2.16765,-2.08703 -0.0627,-0.0358 -1.46003,0.30454 -3.11711,0.74345 -1.65708,0.44786 -3.0544,0.77927 -3.09919,0.73449 -0.0537,-0.0358 0.26872,-1.44211 0.70762,-3.11711 0.4389,-1.68395 0.77928,-3.09919 0.76136,-3.16189 -0.0269,-0.0627 -1.14652,0.91363 -2.49906,2.16764 -1.34358,1.24505 -2.47218,2.24826 -2.49906,2.23034 -0.0358,-0.0179 -0.42098,-1.34358 -0.86884,-2.93796 -0.44786,-1.60334 -0.8599,-3.00962 -0.9226,-3.12606 -0.0537,-0.11644 -0.13435,-0.15227 -0.17018,-0.0717 z"
       id="path22"
       style="fill:#f6b4cd;stroke-width:0.89572" />
    <path
       class="shp0"
       d="m 133.21137,121.80554 -0.99425,1.00321 0.0627,6.23421 c -3.02754,3.02753 -3.95013,3.86055 -4.01283,3.79785 -0.0627,-0.0627 -0.10749,-1.41524 -0.10749,-3.01858 l 0.009,-2.91109 -1.99745,1.9885 0.009,6.24317 -12.00264,11.99369 -12.00265,-11.99369 0.009,-6.09985 -1.99746,-1.9885 c 0.009,4.39798 -0.0358,5.72365 -0.0985,5.78635 -0.0627,0.0627 -0.985288,-0.77032 -2.060148,-1.84518 l -1.95267,-1.95267 v -6.09986 l -1.9885,-1.98849 v 8.93928 l 6.099848,6.09985 v 31.71745 l -6.171508,0.0717 v 1.98849 l 8.160008,0.0717 v -31.86076 l 10.57845,10.5695 -5.32058,5.32058 c 5.11457,5.11456 6.66416,6.60145 6.74478,6.60145 0.0806,0 1.63021,-1.48689 3.43956,-3.29625 l 3.30521,-3.3052 -5.32058,-5.32058 c 7.90921,-7.91817 10.29182,-10.22017 10.39035,-10.22017 0.15228,0 0.1881,3.06337 0.1881,15.75572 v 15.75571 h 8.08836 v -2.13181 h -6.09986 v -31.71745 l 6.09986,-6.09985 -0.0717,-9.0826"
       id="path28"
       style="fill:#f6b4cd;stroke-width:0.89572" />
    <path
       style="fill:#f6b4cd;fill-opacity:1;stroke-width:0;stroke-linejoin:bevel;stroke-miterlimit:0"
       d="m 110.38084,192.39929 c -6.68186,-3.43317 -11.819048,-6.80984 -17.257448,-11.34329 -2.24257,-1.8694 -8.9055,-8.52981 -10.79892,-10.79482 -11.54807,-13.8145 -18.44898,-29.79799 -20.65184,-47.83262 -0.23517,-1.92532 -0.36128,-5.37112 -0.4758,-13.00115 -0.19175,-12.77478 -0.23338,-50.788077 -0.0602,-54.963837 l 0.12676,-3.05624 h 52.944468 52.94449 v 32.32099 c 0,20.653537 -0.0737,33.349807 -0.20392,35.171037 -1.53761,21.48953 -10.91761,41.91348 -26.23834,57.13111 -7.08308,7.0354 -14.61239,12.42068 -23.80233,17.02442 l -2.65874,1.3319 z m 6.15116,-1.29105 c 3.84116,-1.92552 5.69972,-3.00559 9.48237,-5.51052 14.43774,-9.56085 25.70753,-23.17828 32.46432,-39.22698 2.95733,-7.02427 5.10113,-15.04478 6.16608,-23.06896 0.39096,-2.94583 0.42098,-4.31152 0.58633,-26.68148 0.0959,-12.967197 0.15257,-28.030097 0.12604,-33.473117 l -0.0483,-9.89641 H 114.17746 63.046042 l 0.054,32.30885 c 0.0322,19.255167 0.13159,33.171237 0.24598,34.443347 1.74364,19.39068 9.4938,36.98089 22.8021,51.75296 4.91773,5.45862 11.70343,11.07405 18.520988,15.3268 1.60246,0.9996 9.23274,5.1935 9.46278,5.20109 0.0283,8.9e-4 1.10833,-0.52808 2.40003,-1.17558 z"
       id="path38" />
    <path
       id="path1"
       style="stroke:#f6b4cd;stroke-width:1px;fill:none"
       d="M110.55232210947759,32.01774810105724 106.83824425365472,32.278691766996694 102.72657686093801,32.76724138678828 98.321633419118,33.51944042808206 94.2049036419433,34.44335795787796 90.21781704754072,35.564049223198936 86.28407768550032,36.882138697362116 82.40814906320631,38.41892235207386 78.38117351345552,40.26654633535792 75.15211238771279,41.92525687910704 72.49177379406885,43.457140049154084 68.95163798862751,45.71126188375427 65.1936250995885,48.36547672133993 62.06600254007506,50.84050463509235 59.10284815784932,53.4230741680582 56.04202507394915,56.38220570298036 53.55511899042776,59.00509511781943 51.414774748059116,61.48627564773195 48.992724442385494,64.55277758288389 46.54540642781983,67.98997571977073 44.242862418807974,71.57911452338584 42.41125568822923,74.75406433778873 41.105887322155056,77.2417255566082 39.78535852089818,80.04597600385739 38.28263124113107,83.58632746926769 36.946287815613864,87.18839822106068 35.8585665044558,90.5808045462564 34.956275753064524,93.91145223312722 34.25547298443054,96.92574101020175 33.704110657829055,99.89383584447903 33.2235226964946,103.10892408367158 32.82931570615389,106.60900745837985 32.67270449379929,109.23345400957596 32.63662535753892,113.6559 32.67270451767987,118.07834891761706 32.82931603378641,120.70269545060236 33.22352269649458,124.20277591632824 33.70410952189083,127.41785655620106 34.25547294103146,130.38606063955748 34.95627601041861,133.400247392661 35.85856357579139,136.73098631976825 36.94563511412453,140.1213661208731 38.25540640160006,143.6707329544309 39.75928212472454,147.21354776923835 41.10612893450191,150.07043295010047 42.411253167563835,152.55773267497474 44.24286374180439,155.7325861426463 46.54539714577419,159.3218112438238 48.99273609112086,162.75903877747928 51.41477214881066,165.82541966082616 53.55511731058054,168.30670475986912 56.04202774489609,170.92949558922257 59.101679063025024,173.88759707188012 62.06600505604855,176.47800132823406 65.19615556680968,178.94810689733208 68.95151930829147,181.59366983077365 72.49032296068054,183.85372452814622 75.15211238771302,185.3864431208931 78.3811504682475,187.04514182673378 82.40812497448582,188.89286809688548 86.28410462788585,190.42967198514052 90.22084506285069,191.74866379771555 94.41092981863322,192.91478394584206 98.50763643838961,193.83879183245463 102.70227432222187,194.54466590779535 106.73894198231322,195.02716738986555 111.15348471018784,195.31241571806657 115.92301644513019,195.3591748387056  M110.89667789052243,36.91905189894277 107.30055574634528,37.1717082330033 103.430423139062,37.63155861321172 99.27376658088201,38.341359571917934 95.4084963580567,39.20884204212204 91.66398295245928,40.261350776801066 87.97132231449969,41.498661302637885 84.3394509367937,42.93867764792614 80.52922648654449,44.686853664642086 77.5018876122872,46.241943120892955 75.03842620593116,47.660459950845905 71.6899620113725,49.79253811624574 68.1375749004115,52.30152327866007 65.20639745992494,54.62109536490766 62.42675184215068,57.0437258319418 59.533974926050846,59.84039429701964 57.200081009572244,62.301904882180565 55.20462525194088,64.61512435226805 52.92427555761451,67.50222241711612 50.61679357218017,70.74302428022928 48.44093758119203,74.13468547661415 46.71634431177077,77.12413566221126 45.50591267784495,79.43087444339179 44.27104147910182,82.0532239961426 42.84976875886893,85.40167253073231 41.59131218438613,88.79380177893933 40.5716334955442,91.9739954537436 39.72192424693548,95.11054776687277 39.066127015569464,97.93125898979825 38.55068934217095,100.70596415552096 38.096077303505396,103.74727591632842 37.726284293846106,107.03059254162015 37.58489550620071,109.39994599042403 37.55017464246109,113.6559 37.58489548232013,117.91185108238292 37.726283966213586,120.28110454939764 38.09607730350542,123.56442408367177 38.550690478109175,126.60574344379893 39.06612705896855,129.3805393604425 39.72192398958139,132.20115260733903 40.571636424208606,135.33781368023176 41.59196488587547,138.52003387912688 42.82419359839994,141.85926704556908 44.244517875275456,145.20525223076163 45.50567106549809,147.88036704989955 46.716346832436166,150.18766732502527 48.44093625819561,153.1770138573537 50.61680285422581,156.56878875617622 52.92426390887914,159.80956122252073 55.204627851189336,162.69658033917383 57.20008268941946,165.00989524013087 59.533972255103905,167.47130441077744 62.42792093697498,170.26920292811985 65.20639494395131,172.69719867176582 68.13504443319032,175.0082931026679 71.69008069170854,177.51273016922636 75.03987703931948,179.65207547185383 77.50188761228699,181.06975687910693 80.52924953175251,182.62485817326623 84.33947502551419,184.37313190311454 87.97129537211416,185.81312801485947 91.66095493714931,187.04933620228445 95.61087018136679,188.14861605415794 99.4565635616104,189.01600816754538 103.40192567777812,189.67993409220466 107.18925801768678,190.13263261013446 111.33611528981216,190.40058428193345 115.97118355486982,190.44602516129441  M105.3661526705702,31.216619038462724 106.2357506552169,38.5352158265832  M95.26007076519862,32.94764524519691 96.87399098052323,40.138842721316976  M80.51247379721478,37.9372157159063 83.58590034639941,44.63588042230533  M67.03979373560061,45.55773610625481 71.29159772230632,51.577721360441274  M57.03820431300984,53.71059229139153 62.16087242215154,59.009302610475935  M46.88810380853184,65.3908626614462 52.89183999314828,69.66558036294605  M41.36229528200607,74.11693884434794 47.84416253134347,77.62456718326246  M35.28115616727823,88.35854419042299 42.29930401357256,90.60880204443514  M32.73569148378117,98.38147176035612 39.98180638334037,99.72753210981115  M31.409633181133007,113.82691165036816 38.779466601911025,113.76678717970633  M32.7871832865123,129.20747204662973 40.03330660340255,127.86145701015785  M35.367230083463205,139.22170480906325 42.38537792975749,136.971446955051  M44.18177210757395,157.91225390150723 50.385114566163395,153.93273107289443  M53.641406195127715,170.18294065946597 58.98953382145129,165.1118864796584  M63.127330467097885,178.88027551983498 67.692943840608,173.09466974985594  M76.16511615343678,187.28773577437508 79.53267659950522,180.73200574301595  M88.04137385799957,192.31389711337104 90.3827705994281,185.32562687666606  M100.57437520380434,195.43220013863427 101.79741649983033,188.16430982643195  "
       inkstitch:satin_column="true" />
    <path
       id="path3"
       style="stroke:#f6b4cd;stroke-width:1px;fill:none"
       d="M116.05624632171656,195.35686710775994 119.80934237079624,195.18995918338985 122.93531512811488,194.91817135560385 126.00599982937058,194.5377270656777 129.29247397520862,193.9944834882395 132.62369950171413,193.30240119336494 135.86528188699646,192.49200559704434 139.6243331555247,191.35208115590424 143.60373793145035,189.94885691561302 147.42303395527793,188.36821347514606 150.64827951265204,186.86075502318113 153.19569860197979,185.5358689541703 156.15875784628201,183.83681029088982 159.70306753501632,181.58699066963538 163.40837767358184,178.95869314657398 166.63016110739747,176.4151907502263 169.28397518977516,174.11607490416918 172.349739247232,171.1588608103162 175.39545414582895,167.9304194611286 177.60692252273464,165.3367271000619 179.93094622469093,162.33511607236807 182.1527955117388,159.21915809851774 183.98834336086955,156.3706058602345 185.76874303464962,153.35347071905787 187.4659914974451,150.12875018084767 189.0271483230896,146.8502899268749 190.4301648615011,143.49947236384617 191.94146390219956,139.3178274967087 193.27783973399605,134.90852888165452 194.20433088564954,131.08009408149834 194.9505836689052,127.15186228537671 195.525540058216,123.13394625289408 195.88277996182143,119.59638462641766 196.01792857819055,113.6559 195.88278004429017,107.71541899851242 195.52584977641763,104.18081932101394 194.998487645516,100.42850994850357 194.3590334690104,96.92530088622915 193.48871898528574,93.23970645076209 192.35689633444707,89.26839709865594 191.1051141482314,85.57400221863126 189.58205190900952,81.75297736957822 187.67927390249884,77.62240885906525 185.7981001479968,74.01608677986938 183.9891235809106,70.94240646293034 182.1527968978577,68.0925422922513 179.9309344860439,64.97666876649035 177.60692252273452,61.97507289993797 175.3954668169783,59.38139540006665 172.3497533024259,56.15285274722336 169.2839751897753,53.19562509583095 166.63135728446875,50.89754555057473 163.5764477450303,48.47939262546065 160.5680509874409,46.304449653078066 158.02722625575726,44.6219096200922 155.22787539435993,42.93000106681558 151.78931391615242,41.037813926935826 148.07653168524425,39.23908559172304 144.41494708724332,37.67664307810443 140.70079333422987,36.31187921988105 137.10205360510156,35.17332280562135 133.9664850702336,34.321169384232036 130.36340011513948,33.52731820528376 126.76703918231809,32.88394291229747 123.84528895242276,32.48799123505184 120.39173589703749,32.16776960404036 115.45858504566775,31.965111876037724 110.70038259796063,32.01182549335556  M115.83795367828345,190.44833289224007 119.48725762920377,190.28604081661015 122.42028487188513,190.03102864439617 125.30300017062942,189.67387293432228 128.39172602479135,189.1633165117605 131.5277004982859,188.51179880663508 134.55571811300354,187.75479440295567 138.0936668444753,186.68191884409575 141.84606206854963,185.35874308438696 145.4423660447221,183.87038652485396 148.47352048734797,182.45364497681885 150.83910139802023,181.22333104582972 153.618842153718,179.6293897091102 156.9633324649837,177.5064093303646 160.46282232641815,175.02410685342602 163.4976388926025,172.62820924977373 165.96742481022483,170.48852509583082 168.85526075276798,167.7029391896838 171.73674585417106,164.6485805388714 173.7928774772654,162.2370728999381 175.98665377530907,159.40368392763196 178.0852044882612,156.46064190148226 179.80585663913044,153.7903941397655 181.4764569653504,150.95932928094211 183.07220850255493,147.92744981915232 184.54045167691044,144.84411007312508 185.8508351384989,141.71452763615383 187.27673609780047,137.7691725032913 188.53516026600394,133.61707111834548 189.40006911435046,130.04310591850162 190.1026163310948,126.3449377146233 190.647259941784,122.53885374710592 190.97502003817857,119.29321537358234 191.10327142180944,113.6559 190.97501995570983,108.01858100148759 190.64695022358237,104.76978067898607 190.146912354484,101.21189005149643 189.5481665309896,97.93169911377085 188.73268101471427,94.4782935492379 187.6647036655529,90.73100290134406 186.49308585176863,87.27319778136871 185.0655480909905,83.69182263042177 183.26712609750115,79.78779114093476 181.4998998520032,76.39991322013061 179.8050764190894,73.52019353706967 178.0852031021423,70.85105770774871 175.9866655139561,67.90813123350966 173.7928774772655,65.07472710006203 171.7367331830217,62.66320459993335 168.85524669757407,59.60874725277663 165.96742481022468,56.82317490416905 163.49644271553123,54.68245444942527 160.61095225496973,52.398407374539346 157.7711490125591,50.34535034692193 155.39897374424274,48.774490379907796 152.77172460564006,47.186598933184435 149.53228608384757,45.40398607306417 146.04006831475576,43.71211440827695 142.60225291275668,42.24515692189557 139.11160666577015,40.96252078011895 135.71614639489843,39.888277194378645 132.79291492976643,39.09383061576796 129.4017998848605,38.34668179471623 126.0041608176819,37.73885708770252 123.28831104757724,37.370808764948166 120.06386410296251,37.07183039595963 115.38181495433219,36.879488123962275 110.74861740203939,36.92497450664445  M121.27714137665436,196.2953218488893 120.63875795636832,188.9529430646878  M134.2202791268019,194.16940682148976 132.4327724900061,187.01938027430828  M146.624136064975,190.02822837115718 143.80580016734274,183.21830602430873  M158.2979721262364,183.93382273974407 154.3482203267469,177.711482317972  M168.81114254659798,176.15091643009282 163.98527953038297,170.5805389069157  M179.64877214079587,164.70598871523313 173.8212602328814,160.1939864362993  M189.2992201567905,149.13601660592505 182.64505550481118,145.96739665611446  M193.9557635665933,136.90667345926263 186.902518200207,134.76896688362163  M196.9307600187387,121.44432432127938 189.59797610511887,120.70382470740562  M197.1853014276715,110.9618224390036 189.81712932890315,111.12945156809697  M195.23407432113993,95.28606452528648 188.06126745843937,96.97984766145974  M191.32493189619385,82.80803859266705 184.47868661403982,85.53695506969102  M184.0869676115115,68.82646262824727 177.8916430776959,72.81845630593409  M174.35795064264306,56.49155620934452 168.9969346980729,61.54898318796255  M162.48741448708466,46.1763323912897 158.16941743130366,52.14901696593915  M153.59285550865533,40.62823003604482 150.0396660358035,47.085234308306376  M139.0735166489477,34.508691548047494 136.8504046994915,41.535485472887885  M128.86802885797815,32.01195442130976 127.57015473719295,39.266854997374544  M118.40231578765656,30.856660150832337 118.0998023007275,38.22052769392509  "
       inkstitch:satin_column="true" />
    <path
       class="shp2"
       d="m 90.064532,90.491173 c -0.3135,0.15227 -0.69866,0.44786 -0.84197,0.67179 -0.15228,0.22393 -0.27768,0.42099 -0.27768,0.42995 -0.009,0.0179 -2.85734,0.54638 -6.33274,1.17339 -3.47539,0.627 -6.45814,1.17339 -6.63728,1.20922 -0.17019,0.0448 -0.3135,0.13436 -0.3135,0.21497 0,0.0896 3.03649,0.14332 8.84075,0.14332 8.12418,0 8.87659,0.0179 9.32445,0.2508 0.27767,0.13436 0.61805,0.46577 0.77032,0.74345 0.16123,0.26871 0.28663,0.716567 0.28663,0.994247 0,0.26871 -0.1254,0.70762 -0.27768,0.97633 -0.15227,0.25976 -0.5016,0.60013 -0.77031,0.74345 -0.42099,0.22393 -0.82407,0.26872 -2.69612,0.25976 -1.51377,0 -2.46323,0.0717 -3.01858,0.21497 -0.44786,0.11644 -1.15548,0.38516 -1.56751,0.59118 -0.40307,0.20601 -1.12861,0.74344 -1.59438,1.1913 -0.46577,0.44786 -1.05695,1.18235 -1.30775,1.64813 -0.2508,0.45682 -0.55535,1.27192 -0.68971,1.81831 -0.15227,0.66283 -0.20601,1.32567 -0.16123,1.9885 0.0448,0.54639 0.20602,1.37941 0.37621,1.84518 0.16123,0.46578 0.5016,1.17339 0.7524,1.55855 0.25976,0.41204 6.7179,6.98662 15.08393,15.3616 8.043558,8.05252 14.680848,14.61815 14.734588,14.58232 0.0627,-0.0358 0.10749,-1.23609 0.10749,-2.66029 v -2.58863 L 92.339662,112.35569 h 3.12607 c 14.089668,14.08072 18.227898,18.16521 18.281638,18.16521 0.0627,0 0.10749,-1.03904 0.10749,-2.31096 v -2.302 l -13.5612,-13.55225 h 3.12606 c 7.92712,7.91817 10.27391,10.22017 10.32765,10.22017 0.0627,0 0.0717,-0.46577 0.0269,-1.03008 -0.0448,-0.5643 -0.19706,-1.54064 -0.34933,-2.16764 -0.14331,-0.627 -0.46577,-1.6123 -0.70762,-2.19451 -0.24184,-0.59118 -0.79719,-1.6123 -1.23609,-2.27513 -0.4389,-0.66284 -1.28088,-1.69291 -1.87206,-2.28409 -0.59117,-0.59117 -1.58542,-1.40628 -2.21242,-1.81831 -0.62701,-0.40307 -1.4869,-0.90468 -1.91684,-1.10174 -0.42995,-0.20601 -1.13757,-0.49264 -1.56751,-0.64491 -0.42995,-0.14332 -1.19131,-0.36725 -1.70187,-0.49265 -0.73449,-0.17914 -2.18556,-0.24185 -7.192628,-0.3135 l -6.27004,-0.0806 c -0.94051,-0.66283 -1.3615,-1.13756 -1.54064,-1.49585 -0.21498,-0.41203 -0.34038,-0.87781 -0.33142,-1.30775 0,-0.3762 0.0985,-0.91364 0.22393,-1.20922 0.11644,-0.29559 0.35829,-0.68075 0.52848,-0.86885 0.17018,-0.17915 0.55534,-0.44786 0.84197,-0.60013 0.44786,-0.22393 0.85094,-0.26872 2.4901,-0.26872 1.07487,0 2.33783,-0.0627 2.80361,-0.14331 0.46577,-0.0717 1.29879,-0.35829 1.84518,-0.62701 0.62701,-0.30454 1.24505,-0.74345 1.66604,-1.20026 0.3762,-0.40308 0.88676,-1.15548 1.13756,-1.68396 0.42995,-0.89572 0.46578,-1.05695 0.46578,-2.44531 0,-1.397327 -0.0358,-1.558557 -0.47473,-2.490097 -0.25976,-0.54639 -0.64492,-1.16444 -0.85094,-1.37941 -0.20601,-0.21498 -0.34933,-0.41203 -0.3135,-0.44786 0.0448,-0.0358 1.19131,-0.38516 2.56176,-0.77032 1.361498,-0.38516 2.499058,-0.77928 2.516968,-0.8599 0.0269,-0.11644 -1.64812,-0.15227 -5.822178,-0.15227 -5.44597,0 -5.89383,0.0179 -6.43127,0.26872 z m 37.423188,-0.0806 c 0.11644,0.10749 1.3167,0.51056 2.66028,0.88677 l 2.44532,0.6897 c -0.55535,0.66284 -0.90468,1.2361 -1.12861,1.71083 -0.23289,0.46577 -0.47473,1.22713 -0.55534,1.70187 -0.0896,0.5643 -0.0896,1.164427 0,1.773517 0.0806,0.5016 0.29558,1.25401 0.49264,1.66604 0.1881,0.41203 0.64492,1.07486 1.02112,1.46898 0.36725,0.40308 0.93155,0.89572 1.24505,1.09278 0.30455,0.19706 0.91364,0.48369 1.34358,0.63596 0.62701,0.22393 1.31671,0.29559 3.42165,0.36725 2.51698,0.0806 2.66029,0.10748 3.19772,0.44786 0.35829,0.24184 0.68971,0.63596 0.94947,1.13756 0.21497,0.4389 0.38516,1.00321 0.38516,1.30775 0,0.28663 -0.0985,0.77032 -0.22393,1.06591 -0.11645,0.28663 -0.39412,0.70762 -0.60014,0.93155 -0.21497,0.22393 -0.57326,0.51056 -0.80614,0.63596 -0.37621,0.20601 -1.21818,0.2508 -6.67312,0.32246 -5.92966,0.0716 -6.31482,0.0985 -7.46135,0.40307 -0.66283,0.17915 -1.74665,0.5643 -2.40948,0.85094 -0.66283,0.28663 -1.65708,0.80614 -2.20347,1.15547 -0.54639,0.35829 -1.40628,1.03008 -1.90789,1.4869 -0.5016,0.46577 -1.28983,1.32566 -1.75561,1.90788 -0.46577,0.58222 -1.15548,1.70187 -1.53168,2.48115 -0.3762,0.77927 -0.8151,1.96162 -0.98529,2.62446 -0.16123,0.66283 -0.33142,1.75561 -0.3762,2.41844 l -0.0806,1.20027 10.47993,-10.42619 h 3.10814 l -13.55224,13.55225 v 4.82793 l 18.38913,-18.38018 h 3.11711 l -21.5152,21.49728 0.0806,5.32954 c 29.299,-29.31692 29.72894,-29.76478 30.22159,-30.80381 0.30454,-0.62701 0.57326,-1.46003 0.66283,-2.0512 0.10749,-0.70762 0.10749,-1.28984 0,-1.9885 -0.0896,-0.627 -0.34933,-1.41524 -0.70762,-2.13181 -0.34037,-0.70762 -0.8151,-1.38837 -1.23609,-1.8004 -0.3762,-0.36724 -1.06591,-0.89572 -1.54064,-1.17339 -0.46577,-0.27768 -1.28088,-0.60014 -1.80935,-0.71658 -0.60909,-0.13436 -1.71083,-0.21497 -3.05441,-0.21497 -1.71082,0 -2.1766,-0.0448 -2.58863,-0.24185 -0.26871,-0.13435 -0.63596,-0.47473 -0.8151,-0.74344 -0.17915,-0.27768 -0.32246,-0.68971 -0.32246,-0.9226 0,-0.24184 0.11644,-0.653867 0.2508,-0.922587 0.13436,-0.26871 0.47473,-0.64492 0.74345,-0.82406 l 0.5016,-0.32246 c 16.16775,0.009 17.8517,-0.0179 17.69943,-0.17019 -0.0985,-0.0985 -3.09919,-0.70761 -6.67312,-1.35253 -3.56496,-0.64492 -6.48501,-1.18235 -6.49397,-1.20027 -0.009,-0.0179 -0.14331,-0.22393 -0.29558,-0.46577 -0.16123,-0.23289 -0.55535,-0.53744 -0.87781,-0.67179 -0.52847,-0.22393 -1.20026,-0.2508 -6.52084,-0.2508 -5.04291,0 -5.89384,0.0269 -5.71469,0.19705 z"
       id="path23"
       style="fill:#ffffff;stroke-width:0.89572"
       sodipodi:nodetypes="cccscssccscccccscccccccscccsscccssccsscccccccccccsccccscscccsccccccccccccccscccccsccssccccccccccccccccccsccssccscsccsc" />
    <g
       inkscape:label="Letras de Ink/Stitch"
       id="g9962"
       inkstitch:lettering="{&quot;text&quot;: &quot;MIAMI\n&quot;, &quot;back_and_forth&quot;: false, &quot;font&quot;: &quot;small_font&quot;, &quot;scale&quot;: 100, &quot;trim_option&quot;: 0, &quot;use_trim_symbols&quot;: false}"
       transform="matrix(0.89572 0 0 0.89572 78.4514 79.356)"
       style="fill:none;fill-opacity:1;stroke:#ffffff;stroke-opacity:1">
      <g
         inkscape:label="MIAMI"
         id="g6570"
         style="fill:none;fill-opacity:1;stroke:#ffffff;stroke-opacity:1">
        <g
           id="g2"
           inkscape:label="M"
           style="fill:none;fill-opacity:1;stroke:#ffffff;stroke-opacity:1">
          <path
             d="m 1.64488,-6.2982 v 0.26936 1.51181 1.37713 0 0.13468 1.51181 1.51181"
             style="font-style:normal;font-variant:normal;font-weight:normal;font-stretch:normal;font-size:106.667px;line-height:100%;font-family:sans-serif;-inkscape-font-specification:sans-serif;font-variant-ligatures:normal;font-variant-position:normal;font-variant-caps:normal;font-variant-numeric:normal;font-variant-alternates:normal;font-feature-settings:normal;text-indent:0;text-align:start;text-decoration:none;text-decoration-line:none;text-decoration-style:solid;text-decoration-color:#000000;letter-spacing:50px;word-spacing:0px;text-transform:none;writing-mode:lr-tb;direction:ltr;text-orientation:mixed;dominant-baseline:auto;baseline-shift:baseline;text-anchor:start;white-space:normal;shape-padding:0;fill:none;fill-opacity:1;stroke:#ffffff;stroke-width:0.5px;stroke-linecap:butt;stroke-linejoin:miter;stroke-miterlimit:4;stroke-dasharray:3, 1;stroke-dashoffset:0;stroke-opacity:1"
             inkstitch:running_stitch_length_mm="1.2"
             id="autosatinrun40"
             inkscape:label="AutoSatinar Puntada corriente 1" />
          <path
             d="m 2.91888,0.0184 v -16.6011 l 0.5722,-0.4827 v -1.794 M 0.37088,0.0184 V -18.9487 M 0,-8.6286 h 3.15167"
             style="font-style:normal;font-variant:normal;font-weight:normal;font-stretch:normal;font-size:106.667px;line-height:100%;font-family:sans-serif;-inkscape-font-specification:sans-serif;font-variant-ligatures:normal;font-variant-position:normal;font-variant-caps:normal;font-variant-numeric:normal;font-variant-alternates:normal;font-feature-settings:normal;text-indent:0;text-align:start;text-decoration:none;text-decoration-line:none;text-decoration-style:solid;text-decoration-color:#000000;letter-spacing:50px;word-spacing:0px;text-transform:none;writing-mode:lr-tb;direction:ltr;text-orientation:mixed;dominant-baseline:auto;baseline-shift:baseline;text-anchor:start;white-space:normal;shape-padding:0;fill:none;fill-opacity:1;stroke:#ffffff;stroke-width:1px;stroke-linecap:butt;stroke-linejoin:miter;stroke-miterlimit:4;stroke-dasharray:none;stroke-dashoffset:0;stroke-opacity:1"
             id="autosatin67"
             inkscape:connector-curvature="0"
             sodipodi:nodetypes="cccccccc"
             inkstitch:zigzag_underlay="False"
             inkstitch:contour_underlay="False"
             inkstitch:center_walk_underlay_stitch_length_mm="1.2"
             inkstitch:center_walk_underlay="True"
             inkstitch:pull_compensation_mm="0.2"
             inkstitch:satin_column="True"
             inkstitch:zigzag_spacing_mm="0.4"
             inkstitch:fill_underlay="False"
             inkstitch:reverse_rails="none"
             inkscape:label="AutoSatinado 2" />
          <path
             d="m 2.23042,-18.8351 v 1.794 l 0.68846,0.4584 5.00504,13.312 m -3.3491,-15.678 4.953,13.208 v 2.3245 m -5.0185,-7.5155 h 3.5638"
             style="font-style:normal;font-variant:normal;font-weight:normal;font-stretch:normal;font-size:106.667px;line-height:100%;font-family:sans-serif;-inkscape-font-specification:sans-serif;font-variant-ligatures:normal;font-variant-position:normal;font-variant-caps:normal;font-variant-numeric:normal;font-variant-alternates:normal;font-feature-settings:normal;text-indent:0;text-align:start;text-decoration:none;text-decoration-line:none;text-decoration-style:solid;text-decoration-color:#000000;letter-spacing:50px;word-spacing:0px;text-transform:none;writing-mode:lr-tb;direction:ltr;text-orientation:mixed;dominant-baseline:auto;baseline-shift:baseline;text-anchor:start;white-space:normal;shape-padding:0;fill:none;fill-opacity:1;stroke:#ffffff;stroke-width:1px;stroke-linecap:butt;stroke-linejoin:miter;stroke-miterlimit:4;stroke-dasharray:none;stroke-dashoffset:0;stroke-opacity:1"
             id="autosatin68"
             inkscape:connector-curvature="0"
             inkstitch:zigzag_underlay="False"
             inkstitch:contour_underlay="False"
             inkstitch:center_walk_underlay_stitch_length_mm="1.2"
             inkstitch:center_walk_underlay="True"
             inkstitch:pull_compensation_mm="0.2"
             inkstitch:satin_column="True"
             inkstitch:zigzag_spacing_mm="0.4"
             inkstitch:fill_underlay="False"
             inkstitch:reverse_rails="none"
             inkscape:label="AutoSatinado 3" />
          <path
             d="m 10.5629,-3.2707 5.005,-13.312 0.6026,-0.3857 v -1.8668 m -7.22448,15.419 v -2.3245 l 4.97898,-13.208 m -3.5002,8.017 h 3.4183"
             style="font-style:normal;font-variant:normal;font-weight:normal;font-stretch:normal;font-size:106.667px;line-height:100%;font-family:sans-serif;-inkscape-font-specification:sans-serif;font-variant-ligatures:normal;font-variant-position:normal;font-variant-caps:normal;font-variant-numeric:normal;font-variant-alternates:normal;font-feature-settings:normal;text-indent:0;text-align:start;text-decoration:none;text-decoration-line:none;text-decoration-style:solid;text-decoration-color:#000000;letter-spacing:50px;word-spacing:0px;text-transform:none;writing-mode:lr-tb;direction:ltr;text-orientation:mixed;dominant-baseline:auto;baseline-shift:baseline;text-anchor:start;white-space:normal;shape-padding:0;fill:none;fill-opacity:1;stroke:#ffffff;stroke-width:1px;stroke-linecap:butt;stroke-linejoin:miter;stroke-miterlimit:4;stroke-dasharray:none;stroke-dashoffset:0;stroke-opacity:1"
             id="autosatin69"
             inkscape:connector-curvature="0"
             inkstitch:zigzag_underlay="False"
             inkstitch:contour_underlay="False"
             inkstitch:center_walk_underlay_stitch_length_mm="1.2"
             inkstitch:center_walk_underlay="True"
             inkstitch:pull_compensation_mm="0.2"
             inkstitch:satin_column="True"
             inkstitch:zigzag_spacing_mm="0.4"
             inkstitch:fill_underlay="False"
             inkstitch:reverse_rails="none"
             inkscape:label="AutoSatinado 4" />
          <path
             d="m 14.9098,-18.7867 v 1.7941 l 0.658,0.4099 10e-5,14.06059 m 2.561,-16.42659 V -2.52211 M 15.2007,-8.4831 h 3.3942"
             style="font-style:normal;font-variant:normal;font-weight:normal;font-stretch:normal;font-size:106.667px;line-height:100%;font-family:sans-serif;-inkscape-font-specification:sans-serif;font-variant-ligatures:normal;font-variant-position:normal;font-variant-caps:normal;font-variant-numeric:normal;font-variant-alternates:normal;font-feature-settings:normal;text-indent:0;text-align:start;text-decoration:none;text-decoration-line:none;text-decoration-style:solid;text-decoration-color:#000000;letter-spacing:50px;word-spacing:0px;text-transform:none;writing-mode:lr-tb;direction:ltr;text-orientation:mixed;dominant-baseline:auto;baseline-shift:baseline;text-anchor:start;white-space:normal;shape-padding:0;fill:none;fill-opacity:1;stroke:#ffffff;stroke-width:1px;stroke-linecap:butt;stroke-linejoin:miter;stroke-miterlimit:4;stroke-dasharray:none;stroke-dashoffset:0;stroke-opacity:1"
             id="autosatin70"
             inkscape:connector-curvature="0"
             sodipodi:nodetypes="cccccccc"
             inkstitch:zigzag_underlay="False"
             inkstitch:contour_underlay="False"
             inkstitch:center_walk_underlay_stitch_length_mm="1.2"
             inkstitch:center_walk_underlay="True"
             inkstitch:pull_compensation_mm="0.2"
             inkstitch:satin_column="True"
             inkstitch:zigzag_spacing_mm="0.4"
             inkstitch:fill_underlay="False"
             inkstitch:reverse_rails="none"
             inkscape:label="AutoSatinado 5" />
          <path
             d="m 16.8484,-3.13604 v 0.61393 1.51181 1.0287"
             style="font-style:normal;font-variant:normal;font-weight:normal;font-stretch:normal;font-size:106.667px;line-height:100%;font-family:sans-serif;-inkscape-font-specification:sans-serif;font-variant-ligatures:normal;font-variant-position:normal;font-variant-caps:normal;font-variant-numeric:normal;font-variant-alternates:normal;font-feature-settings:normal;text-indent:0;text-align:start;text-decoration:none;text-decoration-line:none;text-decoration-style:solid;text-decoration-color:#000000;letter-spacing:50px;word-spacing:0px;text-transform:none;writing-mode:lr-tb;direction:ltr;text-orientation:mixed;dominant-baseline:auto;baseline-shift:baseline;text-anchor:start;white-space:normal;shape-padding:0;fill:none;fill-opacity:1;stroke:#ffffff;stroke-width:0.5px;stroke-linecap:butt;stroke-linejoin:miter;stroke-miterlimit:4;stroke-dasharray:3, 1;stroke-dashoffset:0;stroke-opacity:1"
             inkstitch:running_stitch_length_mm="1.2"
             id="autosatinrun41"
             inkscape:label="AutoSatinar Puntada corriente 6" />
          <path
             d="m 18.1289,0.0184 v -2.54051 m -2.561,2.54051 v -2.54051 m -0.1281,0.3 h 2.8172"
             style="font-style:normal;font-variant:normal;font-weight:normal;font-stretch:normal;font-size:106.667px;line-height:100%;font-family:sans-serif;-inkscape-font-specification:sans-serif;font-variant-ligatures:normal;font-variant-position:normal;font-variant-caps:normal;font-variant-numeric:normal;font-variant-alternates:normal;font-feature-settings:normal;text-indent:0;text-align:start;text-decoration:none;text-decoration-line:none;text-decoration-style:solid;text-decoration-color:#000000;letter-spacing:50px;word-spacing:0px;text-transform:none;writing-mode:lr-tb;direction:ltr;text-orientation:mixed;dominant-baseline:auto;baseline-shift:baseline;text-anchor:start;white-space:normal;shape-padding:0;fill:none;fill-opacity:1;stroke:#ffffff;stroke-width:1px;stroke-linecap:butt;stroke-linejoin:miter;stroke-miterlimit:4;stroke-dasharray:none;stroke-dashoffset:0;stroke-opacity:1"
             id="autosatin71"
             inkscape:connector-curvature="0"
             sodipodi:nodetypes="cccccccc"
             inkstitch:zigzag_underlay="False"
             inkstitch:contour_underlay="False"
             inkstitch:center_walk_underlay_stitch_length_mm="1.2"
             inkstitch:center_walk_underlay="True"
             inkstitch:pull_compensation_mm="0.2"
             inkstitch:satin_column="True"
             inkstitch:zigzag_spacing_mm="0.4"
             inkstitch:fill_underlay="False"
             inkstitch:reverse_rails="none"
             inkscape:label="AutoSatinado 7" />
        </g>
        <g
           id="g3"
           inkscape:label="I"
           transform="translate(24.5051, 0)"
           style="fill:none;fill-opacity:1;stroke:#ffffff;stroke-opacity:1">
          <path
             d="M 25.8181,-3.13297 V -2.34238 -0.830568 0.0349"
             style="font-style:normal;font-variant:normal;font-weight:normal;font-stretch:normal;font-size:106.667px;line-height:100%;font-family:sans-serif;-inkscape-font-specification:sans-serif;font-variant-ligatures:normal;font-variant-position:normal;font-variant-caps:normal;font-variant-numeric:normal;font-variant-alternates:normal;font-feature-settings:normal;text-indent:0;text-align:start;text-decoration:none;text-decoration-line:none;text-decoration-style:solid;text-decoration-color:#000000;letter-spacing:50px;word-spacing:0px;text-transform:none;writing-mode:lr-tb;direction:ltr;text-orientation:mixed;dominant-baseline:auto;baseline-shift:baseline;text-anchor:start;white-space:normal;shape-padding:0;fill:none;fill-opacity:1;stroke:#ffffff;stroke-width:0.5px;stroke-linecap:butt;stroke-linejoin:miter;stroke-miterlimit:4;stroke-dasharray:3, 1;stroke-dashoffset:0;stroke-opacity:1"
             inkstitch:running_stitch_length_mm="1.2"
             transform="translate(-24.5051, 0)"
             id="autosatinrun42"
             inkscape:label="AutoSatinar Puntada corriente 8" />
          <path
             id="autosatin72"
             style="font-style:normal;font-variant:normal;font-weight:normal;font-stretch:normal;font-size:106.667px;line-height:100%;font-family:sans-serif;-inkscape-font-specification:sans-serif;font-variant-ligatures:normal;font-variant-position:normal;font-variant-caps:normal;font-variant-numeric:normal;font-variant-alternates:normal;font-feature-settings:normal;text-indent:0;text-align:start;text-decoration:none;text-decoration-line:none;text-decoration-style:solid;text-decoration-color:#000000;letter-spacing:50px;word-spacing:0px;text-transform:none;writing-mode:lr-tb;direction:ltr;text-orientation:mixed;dominant-baseline:auto;baseline-shift:baseline;text-anchor:start;white-space:normal;shape-padding:0;fill:none;fill-opacity:1;stroke:#ffffff;stroke-width:1px;stroke-linecap:butt;stroke-linejoin:miter;stroke-miterlimit:4;stroke-dasharray:none;stroke-dashoffset:0;stroke-opacity:1"
             d="M 24.5051,0.0349 V -5.366 m 2.626,5.4009 V -5.366 m 0.1313,0.3 h -2.8886"
             inkscape:connector-curvature="0"
             sodipodi:nodetypes="cccc"
             inkstitch:zigzag_underlay="False"
             inkstitch:contour_underlay="False"
             inkstitch:center_walk_underlay_stitch_length_mm="1.2"
             inkstitch:center_walk_underlay="True"
             inkstitch:pull_compensation_mm="0.2"
             inkstitch:satin_column="True"
             inkstitch:zigzag_spacing_mm="0.4"
             inkstitch:fill_underlay="False"
             inkstitch:reverse_rails="none"
             transform="translate(-24.5051, 0)"
             inkscape:label="AutoSatinado 9" />
          <path
             d="m 25.8181,-6.30083 v -0.57698 -1.51181 -1.07908 0 -0.43273 -1.51177 -1.2234 0 -0.2885 -1.5118 -1.3675 0 -0.1443 -1.5118 -1.5118"
             style="font-style:normal;font-variant:normal;font-weight:normal;font-stretch:normal;font-size:106.667px;line-height:100%;font-family:sans-serif;-inkscape-font-specification:sans-serif;font-variant-ligatures:normal;font-variant-position:normal;font-variant-caps:normal;font-variant-numeric:normal;font-variant-alternates:normal;font-feature-settings:normal;text-indent:0;text-align:start;text-decoration:none;text-decoration-line:none;text-decoration-style:solid;text-decoration-color:#000000;letter-spacing:50px;word-spacing:0px;text-transform:none;writing-mode:lr-tb;direction:ltr;text-orientation:mixed;dominant-baseline:auto;baseline-shift:baseline;text-anchor:start;white-space:normal;shape-padding:0;fill:none;fill-opacity:1;stroke:#ffffff;stroke-width:0.5px;stroke-linecap:butt;stroke-linejoin:miter;stroke-miterlimit:4;stroke-dasharray:3, 1;stroke-dashoffset:0;stroke-opacity:1"
             inkstitch:running_stitch_length_mm="1.2"
             transform="translate(-24.5051, 0)"
             id="autosatinrun43"
             inkscape:label="AutoSatinar Puntada corriente 10" />
          <path
             id="autosatin73"
             style="font-style:normal;font-variant:normal;font-weight:normal;font-stretch:normal;font-size:106.667px;line-height:100%;font-family:sans-serif;-inkscape-font-specification:sans-serif;font-variant-ligatures:normal;font-variant-position:normal;font-variant-caps:normal;font-variant-numeric:normal;font-variant-alternates:normal;font-feature-settings:normal;text-indent:0;text-align:start;text-decoration:none;text-decoration-line:none;text-decoration-style:solid;text-decoration-color:#000000;letter-spacing:50px;word-spacing:0px;text-transform:none;writing-mode:lr-tb;direction:ltr;text-orientation:mixed;dominant-baseline:auto;baseline-shift:baseline;text-anchor:start;white-space:normal;shape-padding:0;fill:none;fill-opacity:1;stroke:#ffffff;stroke-width:1px;stroke-linecap:butt;stroke-linejoin:miter;stroke-miterlimit:4;stroke-dasharray:none;stroke-dashoffset:0;stroke-opacity:1"
             d="M 27.1311,-18.9723 V -5.366 m -2.626,-13.6063 V -5.366 m 2.7573,-13.4063 h -2.8886"
             inkscape:connector-curvature="0"
             sodipodi:nodetypes="cccc"
             inkstitch:zigzag_underlay="False"
             inkstitch:contour_underlay="False"
             inkstitch:center_walk_underlay_stitch_length_mm="1.2"
             inkstitch:center_walk_underlay="True"
             inkstitch:pull_compensation_mm="0.2"
             inkstitch:satin_column="True"
             inkstitch:zigzag_spacing_mm="0.4"
             inkstitch:fill_underlay="False"
             inkstitch:reverse_rails="none"
             transform="translate(-24.5051, 0)"
             inkscape:label="AutoSatinado 11" />
        </g>
        <g
           id="g4"
           inkscape:label="A"
           transform="translate(32.998, 0)"
           style="fill:none;fill-opacity:1;stroke:#ffffff;stroke-opacity:1">
          <path
             d="m 37.9315,-5.8276 h 1.3953 1.2524 v 0 h 0.1169 1.3693 1.1614 v 0 h 0.2078 1.3693 1.0706"
             style="font-style:normal;font-variant:normal;font-weight:normal;font-stretch:normal;font-size:106.667px;line-height:100%;font-family:sans-serif;-inkscape-font-specification:sans-serif;font-variant-ligatures:normal;font-variant-position:normal;font-variant-caps:normal;font-variant-numeric:normal;font-variant-alternates:normal;font-feature-settings:normal;text-indent:0;text-align:start;text-decoration:none;text-decoration-line:none;text-decoration-style:solid;text-decoration-color:#000000;letter-spacing:50px;word-spacing:0px;text-transform:none;writing-mode:lr-tb;direction:ltr;text-orientation:mixed;dominant-baseline:auto;baseline-shift:baseline;text-anchor:start;white-space:normal;shape-padding:0;fill:none;fill-opacity:1;stroke:#ffffff;stroke-width:0.5px;stroke-linecap:butt;stroke-linejoin:miter;stroke-miterlimit:4;stroke-dasharray:3, 1;stroke-dashoffset:0;stroke-opacity:1"
             inkstitch:running_stitch_length_mm="1.2"
             transform="translate(-32.998, 0)"
             id="autosatinrun44"
             inkscape:label="AutoSatinar Puntada corriente 12" />
          <path
             inkscape:connector-curvature="0"
             id="autosatin74"
             style="font-style:normal;font-variant:normal;font-weight:normal;font-stretch:normal;font-size:106.667px;line-height:100%;font-family:sans-serif;-inkscape-font-specification:sans-serif;font-variant-ligatures:normal;font-variant-position:normal;font-variant-caps:normal;font-variant-numeric:normal;font-variant-alternates:normal;font-feature-settings:normal;text-indent:0;text-align:start;text-decoration:none;text-decoration-line:none;text-decoration-style:solid;text-decoration-color:#000000;letter-spacing:50px;word-spacing:0px;text-transform:none;writing-mode:lr-tb;direction:ltr;text-orientation:mixed;dominant-baseline:auto;baseline-shift:baseline;text-anchor:start;white-space:normal;shape-padding:0;fill:none;fill-opacity:1;stroke:#ffffff;stroke-width:1px;stroke-linecap:butt;stroke-linejoin:miter;stroke-miterlimit:4;stroke-dasharray:none;stroke-dashoffset:0;stroke-opacity:1"
             d="m 45.465,-7.1939 h -7.137 m 7.956,2.7326 h -8.749 m 0.1604,0.13663 0.8723,-3.00586"
             inkstitch:zigzag_underlay="False"
             inkstitch:contour_underlay="False"
             inkstitch:center_walk_underlay="True"
             inkstitch:pull_compensation_mm="0.2"
             inkstitch:satin_column="True"
             inkstitch:zigzag_spacing_mm="0.4"
             inkstitch:center_walk_underlay_stitch_length_mm="1.2"
             inkstitch:fill_underlay="False"
             inkstitch:reverse_rails="none"
             transform="translate(-32.998, 0)"
             inkscape:label="AutoSatinado 13" />
          <path
             d="m 36.7739,-6.26742 -0.0928,0.24457 -0.5701,1.51007 -0.5302,1.39124 v 0 l -0.046,0.12046 -0.5761,1.51173 -0.5762,1.51175"
             style="font-style:normal;font-variant:normal;font-weight:normal;font-stretch:normal;font-size:106.667px;line-height:100%;font-family:sans-serif;-inkscape-font-specification:sans-serif;font-variant-ligatures:normal;font-variant-position:normal;font-variant-caps:normal;font-variant-numeric:normal;font-variant-alternates:normal;font-feature-settings:normal;text-indent:0;text-align:start;text-decoration:none;text-decoration-line:none;text-decoration-style:solid;text-decoration-color:#000000;letter-spacing:50px;word-spacing:0px;text-transform:none;writing-mode:lr-tb;direction:ltr;text-orientation:mixed;dominant-baseline:auto;baseline-shift:baseline;text-anchor:start;white-space:normal;shape-padding:0;fill:none;fill-opacity:1;stroke:#ffffff;stroke-width:0.5px;stroke-linecap:butt;stroke-linejoin:miter;stroke-miterlimit:4;stroke-dasharray:3, 1;stroke-dashoffset:0;stroke-opacity:1"
             inkstitch:running_stitch_length_mm="1.2"
             transform="translate(-32.998, 0)"
             id="autosatinrun45"
             inkscape:label="AutoSatinar Puntada corriente 14" />
          <path
             sodipodi:nodetypes="ccccccccc"
             inkscape:connector-curvature="0"
             id="autosatin75"
             style="font-style:normal;font-variant:normal;font-weight:normal;font-stretch:normal;font-size:106.667px;line-height:100%;font-family:sans-serif;-inkscape-font-specification:sans-serif;font-variant-ligatures:normal;font-variant-position:normal;font-variant-caps:normal;font-variant-numeric:normal;font-variant-alternates:normal;font-feature-settings:normal;text-indent:0;text-align:start;text-decoration:none;text-decoration-line:none;text-decoration-style:solid;text-decoration-color:#000000;letter-spacing:50px;word-spacing:0px;text-transform:none;writing-mode:lr-tb;direction:ltr;text-orientation:mixed;dominant-baseline:auto;baseline-shift:baseline;text-anchor:start;white-space:normal;shape-padding:0;fill:none;fill-opacity:1;stroke:#ffffff;stroke-width:1px;stroke-linecap:butt;stroke-linejoin:miter;stroke-miterlimit:4;stroke-dasharray:none;stroke-dashoffset:0;stroke-opacity:1"
             d="m 35.767,0.0224 1.768,-4.758 0.793,-2.184 3.8421,-10.1975 v -1.7903 m -9.1721,18.9298 7.41,-18.967 m -4.3878,8.9706 h 4.1143"
             inkstitch:zigzag_spacing_mm="0.4"
             inkstitch:satin_column="True"
             inkstitch:pull_compensation_mm="0.2"
             inkstitch:center_walk_underlay="True"
             inkstitch:center_walk_underlay_stitch_length_mm="1.2"
             inkstitch:contour_underlay="False"
             inkstitch:zigzag_underlay="False"
             inkstitch:fill_underlay="False"
             inkstitch:reverse_rails="none"
             transform="translate(-32.998, 0)"
             inkscape:label="AutoSatinado 15" />
          <path
             sodipodi:nodetypes="ccccccc"
             inkscape:connector-curvature="0"
             id="autosatin76"
             style="font-style:normal;font-variant:normal;font-weight:normal;font-stretch:normal;font-size:106.667px;line-height:100%;font-family:sans-serif;-inkscape-font-specification:sans-serif;font-variant-ligatures:normal;font-variant-position:normal;font-variant-caps:normal;font-variant-numeric:normal;font-variant-alternates:normal;font-feature-settings:normal;text-indent:0;text-align:start;text-decoration:none;text-decoration-line:none;text-decoration-style:solid;text-decoration-color:#000000;letter-spacing:50px;word-spacing:0px;text-transform:none;writing-mode:lr-tb;direction:ltr;text-orientation:mixed;dominant-baseline:auto;baseline-shift:baseline;text-anchor:start;white-space:normal;shape-padding:0;fill:none;fill-opacity:1;stroke:#ffffff;stroke-width:1px;stroke-linecap:butt;stroke-linejoin:miter;stroke-miterlimit:4;stroke-dasharray:none;stroke-dashoffset:0;stroke-opacity:1"
             d="m 43.385,-18.9446 7.3061,18.9557 m -9.0817,-18.8842 v 1.723 L 48.0991,-2e-4 m -4.8103,-10.0081 h 4.4914"
             inkstitch:zigzag_spacing_mm="0.4"
             inkstitch:satin_column="True"
             inkstitch:pull_compensation_mm="0.2"
             inkstitch:center_walk_underlay="True"
             inkstitch:center_walk_underlay_stitch_length_mm="1.2"
             inkstitch:contour_underlay="False"
             inkstitch:zigzag_underlay="False"
             inkstitch:fill_underlay="False"
             inkstitch:reverse_rails="none"
             transform="translate(-32.998, 0)"
             inkscape:label="AutoSatinado 16" />
        </g>
        <g
           id="g5"
           inkscape:label="M"
           transform="translate(56.2399, 0)"
           style="fill:none;fill-opacity:1;stroke:#ffffff;stroke-opacity:1">
          <path
             d="m 59.1588,0.0184 v -16.6011 l 0.5722,-0.4827 v -1.794 M 56.6108,0.0184 v -18.9671 m -0.3709,10.3201 h 3.1517"
             style="font-style:normal;font-variant:normal;font-weight:normal;font-stretch:normal;font-size:106.667px;line-height:100%;font-family:sans-serif;-inkscape-font-specification:sans-serif;font-variant-ligatures:normal;font-variant-position:normal;font-variant-caps:normal;font-variant-numeric:normal;font-variant-alternates:normal;font-feature-settings:normal;text-indent:0;text-align:start;text-decoration:none;text-decoration-line:none;text-decoration-style:solid;text-decoration-color:#000000;letter-spacing:50px;word-spacing:0px;text-transform:none;writing-mode:lr-tb;direction:ltr;text-orientation:mixed;dominant-baseline:auto;baseline-shift:baseline;text-anchor:start;white-space:normal;shape-padding:0;fill:none;fill-opacity:1;stroke:#ffffff;stroke-width:1px;stroke-linecap:butt;stroke-linejoin:miter;stroke-miterlimit:4;stroke-dasharray:none;stroke-dashoffset:0;stroke-opacity:1"
             id="autosatin77"
             inkscape:connector-curvature="0"
             sodipodi:nodetypes="cccccccc"
             inkstitch:zigzag_underlay="False"
             inkstitch:contour_underlay="False"
             inkstitch:center_walk_underlay_stitch_length_mm="1.2"
             inkstitch:center_walk_underlay="True"
             inkstitch:pull_compensation_mm="0.2"
             inkstitch:satin_column="True"
             inkstitch:zigzag_spacing_mm="0.4"
             inkstitch:fill_underlay="False"
             inkstitch:reverse_rails="none"
             transform="translate(-56.2399, 0)"
             inkscape:label="AutoSatinado 17" />
          <path
             d="m 58.4703,-18.8351 v 1.794 l 0.6885,0.4584 5.005,13.312 m -3.3491,-15.678 4.953,13.208 v 2.3245 m -5.0185,-7.5155 h 3.5638"
             style="font-style:normal;font-variant:normal;font-weight:normal;font-stretch:normal;font-size:106.667px;line-height:100%;font-family:sans-serif;-inkscape-font-specification:sans-serif;font-variant-ligatures:normal;font-variant-position:normal;font-variant-caps:normal;font-variant-numeric:normal;font-variant-alternates:normal;font-feature-settings:normal;text-indent:0;text-align:start;text-decoration:none;text-decoration-line:none;text-decoration-style:solid;text-decoration-color:#000000;letter-spacing:50px;word-spacing:0px;text-transform:none;writing-mode:lr-tb;direction:ltr;text-orientation:mixed;dominant-baseline:auto;baseline-shift:baseline;text-anchor:start;white-space:normal;shape-padding:0;fill:none;fill-opacity:1;stroke:#ffffff;stroke-width:1px;stroke-linecap:butt;stroke-linejoin:miter;stroke-miterlimit:4;stroke-dasharray:none;stroke-dashoffset:0;stroke-opacity:1"
             id="autosatin78"
             inkscape:connector-curvature="0"
             inkstitch:zigzag_underlay="False"
             inkstitch:contour_underlay="False"
             inkstitch:center_walk_underlay_stitch_length_mm="1.2"
             inkstitch:center_walk_underlay="True"
             inkstitch:pull_compensation_mm="0.2"
             inkstitch:satin_column="True"
             inkstitch:zigzag_spacing_mm="0.4"
             inkstitch:fill_underlay="False"
             inkstitch:reverse_rails="none"
             transform="translate(-56.2399, 0)"
             inkscape:label="AutoSatinado 18" />
          <path
             d="m 66.8028,-3.2707 5.005,-13.312 0.6026,-0.3857 v -1.8668 m -7.2245,15.419 v -2.3245 l 4.979,-13.208 m -3.5002,8.017 h 3.4183"
             style="font-style:normal;font-variant:normal;font-weight:normal;font-stretch:normal;font-size:106.667px;line-height:100%;font-family:sans-serif;-inkscape-font-specification:sans-serif;font-variant-ligatures:normal;font-variant-position:normal;font-variant-caps:normal;font-variant-numeric:normal;font-variant-alternates:normal;font-feature-settings:normal;text-indent:0;text-align:start;text-decoration:none;text-decoration-line:none;text-decoration-style:solid;text-decoration-color:#000000;letter-spacing:50px;word-spacing:0px;text-transform:none;writing-mode:lr-tb;direction:ltr;text-orientation:mixed;dominant-baseline:auto;baseline-shift:baseline;text-anchor:start;white-space:normal;shape-padding:0;fill:none;fill-opacity:1;stroke:#ffffff;stroke-width:1px;stroke-linecap:butt;stroke-linejoin:miter;stroke-miterlimit:4;stroke-dasharray:none;stroke-dashoffset:0;stroke-opacity:1"
             id="autosatin79"
             inkscape:connector-curvature="0"
             inkstitch:zigzag_underlay="False"
             inkstitch:contour_underlay="False"
             inkstitch:center_walk_underlay_stitch_length_mm="1.2"
             inkstitch:center_walk_underlay="True"
             inkstitch:pull_compensation_mm="0.2"
             inkstitch:satin_column="True"
             inkstitch:zigzag_spacing_mm="0.4"
             inkstitch:fill_underlay="False"
             inkstitch:reverse_rails="none"
             transform="translate(-56.2399, 0)"
             inkscape:label="AutoSatinado 19" />
          <path
             d="m 71.1497,-18.7867 v 1.7941 l 0.658,0.4099 1e-4,14.06059 m 2.561,-16.42659 V -2.52211 M 71.4406,-8.4831 h 3.3942"
             style="font-style:normal;font-variant:normal;font-weight:normal;font-stretch:normal;font-size:106.667px;line-height:100%;font-family:sans-serif;-inkscape-font-specification:sans-serif;font-variant-ligatures:normal;font-variant-position:normal;font-variant-caps:normal;font-variant-numeric:normal;font-variant-alternates:normal;font-feature-settings:normal;text-indent:0;text-align:start;text-decoration:none;text-decoration-line:none;text-decoration-style:solid;text-decoration-color:#000000;letter-spacing:50px;word-spacing:0px;text-transform:none;writing-mode:lr-tb;direction:ltr;text-orientation:mixed;dominant-baseline:auto;baseline-shift:baseline;text-anchor:start;white-space:normal;shape-padding:0;fill:none;fill-opacity:1;stroke:#ffffff;stroke-width:1px;stroke-linecap:butt;stroke-linejoin:miter;stroke-miterlimit:4;stroke-dasharray:none;stroke-dashoffset:0;stroke-opacity:1"
             id="autosatin80"
             inkscape:connector-curvature="0"
             sodipodi:nodetypes="cccccccc"
             inkstitch:zigzag_underlay="False"
             inkstitch:contour_underlay="False"
             inkstitch:center_walk_underlay_stitch_length_mm="1.2"
             inkstitch:center_walk_underlay="True"
             inkstitch:pull_compensation_mm="0.2"
             inkstitch:satin_column="True"
             inkstitch:zigzag_spacing_mm="0.4"
             inkstitch:fill_underlay="False"
             inkstitch:reverse_rails="none"
             transform="translate(-56.2399, 0)"
             inkscape:label="AutoSatinado 20" />
          <path
             d="m 73.0883,-3.13604 v 0.61393 1.51181 1.0287"
             style="font-style:normal;font-variant:normal;font-weight:normal;font-stretch:normal;font-size:106.667px;line-height:100%;font-family:sans-serif;-inkscape-font-specification:sans-serif;font-variant-ligatures:normal;font-variant-position:normal;font-variant-caps:normal;font-variant-numeric:normal;font-variant-alternates:normal;font-feature-settings:normal;text-indent:0;text-align:start;text-decoration:none;text-decoration-line:none;text-decoration-style:solid;text-decoration-color:#000000;letter-spacing:50px;word-spacing:0px;text-transform:none;writing-mode:lr-tb;direction:ltr;text-orientation:mixed;dominant-baseline:auto;baseline-shift:baseline;text-anchor:start;white-space:normal;shape-padding:0;fill:none;fill-opacity:1;stroke:#ffffff;stroke-width:0.5px;stroke-linecap:butt;stroke-linejoin:miter;stroke-miterlimit:4;stroke-dasharray:3, 1;stroke-dashoffset:0;stroke-opacity:1"
             inkstitch:running_stitch_length_mm="1.2"
             transform="translate(-56.2399, 0)"
             id="autosatinrun46"
             inkscape:label="AutoSatinar Puntada corriente 21" />
          <path
             d="m 74.3688,0.0184 v -2.54051 m -2.561,2.54051 v -2.54051 m -0.1281,0.3 h 2.8172"
             style="font-style:normal;font-variant:normal;font-weight:normal;font-stretch:normal;font-size:106.667px;line-height:100%;font-family:sans-serif;-inkscape-font-specification:sans-serif;font-variant-ligatures:normal;font-variant-position:normal;font-variant-caps:normal;font-variant-numeric:normal;font-variant-alternates:normal;font-feature-settings:normal;text-indent:0;text-align:start;text-decoration:none;text-decoration-line:none;text-decoration-style:solid;text-decoration-color:#000000;letter-spacing:50px;word-spacing:0px;text-transform:none;writing-mode:lr-tb;direction:ltr;text-orientation:mixed;dominant-baseline:auto;baseline-shift:baseline;text-anchor:start;white-space:normal;shape-padding:0;fill:none;fill-opacity:1;stroke:#ffffff;stroke-width:1px;stroke-linecap:butt;stroke-linejoin:miter;stroke-miterlimit:4;stroke-dasharray:none;stroke-dashoffset:0;stroke-opacity:1"
             id="autosatin81"
             inkscape:connector-curvature="0"
             sodipodi:nodetypes="cccccccc"
             inkstitch:zigzag_underlay="False"
             inkstitch:contour_underlay="False"
             inkstitch:center_walk_underlay_stitch_length_mm="1.2"
             inkstitch:center_walk_underlay="True"
             inkstitch:pull_compensation_mm="0.2"
             inkstitch:satin_column="True"
             inkstitch:zigzag_spacing_mm="0.4"
             inkstitch:fill_underlay="False"
             inkstitch:reverse_rails="none"
             transform="translate(-56.2399, 0)"
             inkscape:label="AutoSatinado 22" />
        </g>
        <g
           id="g6"
           inkscape:label="I"
           transform="translate(80.7449, 0)"
           style="fill:none;fill-opacity:1;stroke:#ffffff;stroke-opacity:1">
          <path
             d="m 82.0579,-3.13297 v -0.72122 -1.51181 -0.93483 0 -0.57698 -1.51181 -1.07908 0 -0.43273 -1.51177 -1.2234 0 -0.2885 -1.5118 -1.3675 0 -0.1443 -1.5118 -1.5118"
             style="font-style:normal;font-variant:normal;font-weight:normal;font-stretch:normal;font-size:106.667px;line-height:100%;font-family:sans-serif;-inkscape-font-specification:sans-serif;font-variant-ligatures:normal;font-variant-position:normal;font-variant-caps:normal;font-variant-numeric:normal;font-variant-alternates:normal;font-feature-settings:normal;text-indent:0;text-align:start;text-decoration:none;text-decoration-line:none;text-decoration-style:solid;text-decoration-color:#000000;letter-spacing:50px;word-spacing:0px;text-transform:none;writing-mode:lr-tb;direction:ltr;text-orientation:mixed;dominant-baseline:auto;baseline-shift:baseline;text-anchor:start;white-space:normal;shape-padding:0;fill:none;fill-opacity:1;stroke:#ffffff;stroke-width:0.5px;stroke-linecap:butt;stroke-linejoin:miter;stroke-miterlimit:4;stroke-dasharray:3, 1;stroke-dashoffset:0;stroke-opacity:1"
             inkstitch:running_stitch_length_mm="1.2"
             transform="translate(-80.7449, 0)"
             id="autosatinrun47"
             inkscape:label="AutoSatinar Puntada corriente 23" />
          <path
             id="autosatin82"
             style="font-style:normal;font-variant:normal;font-weight:normal;font-stretch:normal;font-size:106.667px;line-height:100%;font-family:sans-serif;-inkscape-font-specification:sans-serif;font-variant-ligatures:normal;font-variant-position:normal;font-variant-caps:normal;font-variant-numeric:normal;font-variant-alternates:normal;font-feature-settings:normal;text-indent:0;text-align:start;text-decoration:none;text-decoration-line:none;text-decoration-style:solid;text-decoration-color:#000000;letter-spacing:50px;word-spacing:0px;text-transform:none;writing-mode:lr-tb;direction:ltr;text-orientation:mixed;dominant-baseline:auto;baseline-shift:baseline;text-anchor:start;white-space:normal;shape-padding:0;fill:none;fill-opacity:1;stroke:#ffffff;stroke-width:1px;stroke-linecap:butt;stroke-linejoin:miter;stroke-miterlimit:4;stroke-dasharray:none;stroke-dashoffset:0;stroke-opacity:1"
             d="M 83.3709,-18.9723 V 0.0349 m -2.626,-19.0072 V 0.0349"
             inkscape:connector-curvature="0"
             sodipodi:nodetypes="cccc"
             inkstitch:zigzag_underlay="False"
             inkstitch:contour_underlay="False"
             inkstitch:center_walk_underlay_stitch_length_mm="1.2"
             inkstitch:center_walk_underlay="True"
             inkstitch:pull_compensation_mm="0.2"
             inkstitch:satin_column="True"
             inkstitch:zigzag_spacing_mm="0.4"
             inkstitch:fill_underlay="False"
             inkstitch:reverse_rails="none"
             transform="translate(-80.7449, 0)"
             inkscape:label="AutoSatinado 24" />
        </g>
      </g>
    </g>
  </g>
</svg>
