<?xml version="1.0" encoding="UTF-8" standalone="no"?>
<svg
   version="1.1"
   width="57.592999mm"
   height="70.000008mm"
   id="svg17"
   sodipodi:docname="1inter-miami-logo.svg"
   inkscape:version="1.3.2 (1:1.3.2+202311252150+091e20ef0f)"
   xmlns:inkscape="http://www.inkscape.org/namespaces/inkscape"
   xmlns:sodipodi="http://sodipodi.sourceforge.net/DTD/sodipodi-0.dtd"
   xmlns="http://www.w3.org/2000/svg"
   xmlns:svg="http://www.w3.org/2000/svg"
   xmlns:inkstitch="http://inkstitch.org/namespace">
  <metadata
     id="metadata29">
    <inkstitch:min_stitch_len_mm>0</inkstitch:min_stitch_len_mm>
    <inkstitch:collapse_len_mm>3</inkstitch:collapse_len_mm>
    <inkstitch:inkstitch_svg_version>1</inkstitch:inkstitch_svg_version>
  </metadata>
  <defs
     id="defs17" />
  <sodipodi:namedview
     id="namedview17"
     pagecolor="#ffffff"
     bordercolor="#666666"
     borderopacity="1.0"
     inkscape:showpageshadow="2"
     inkscape:pageopacity="0.0"
     inkscape:pagecheckerboard="0"
     inkscape:deskcolor="#d1d1d1"
     inkscape:zoom="2.5251603"
     inkscape:cx="125.9326"
     inkscape:cy="157.21774"
     inkscape:window-width="1848"
     inkscape:window-height="1016"
     inkscape:window-x="72"
     inkscape:window-y="27"
     inkscape:window-maximized="1"
     inkscape:current-layer="svg17"
     inkscape:document-units="mm" />
  <path
     style="fill:#ff00ff;stroke-width:0;stroke-linejoin:bevel;stroke-miterlimit:0"
     d="m 106.17208,157.07301 c -0.2143,-0.15009 -0.38963,-0.41664 -0.38963,-0.59231 0,-0.19125 -0.216,-0.40887 -0.53833,-0.54239 -0.29608,-0.12264 -1.12392,-0.86194 -1.83965,-1.64287 -0.71573,-0.78094 -1.53826,-1.57766 -1.82783,-1.77049 -0.30139,-0.20072 -0.52671,-0.50538 -0.527,-0.7126 -3.1e-4,-0.23616 -0.20029,-0.45724 -0.57526,-0.63605 -0.84782,-0.4043 -1.70425,-1.1793 -1.70425,-1.54222 0,-0.17671 -0.2698,-0.47689 -0.60792,-0.67638 -0.334352,-0.19727 -0.656771,-0.55334 -0.716481,-0.79126 -0.06596,-0.26279 -0.322468,-0.52116 -0.65355,-0.65832 -0.814952,-0.33755 -1.703519,-1.18809 -1.703519,-1.63057 0,-0.27042 -0.185553,-0.47613 -0.613579,-0.68024 -0.382412,-0.18237 -0.61358,-0.41775 -0.61358,-0.62478 0,-0.19803 -0.196966,-0.41378 -0.487705,-0.5342 -0.612319,-0.25362 -3.894995,-3.58372 -3.894995,-3.95124 0,-0.15511 -0.150661,-0.27199 -0.350616,-0.27199 -0.194785,0 -0.350617,-0.11687 -0.350617,-0.26295 0,-0.14464 -0.118332,-0.26297 -0.262962,-0.26297 -0.144628,0 -0.26296,-0.15006 -0.26296,-0.33347 0,-0.2129 -0.190143,-0.39975 -0.525926,-0.5168 -0.289257,-0.10074 -0.525925,-0.30773 -0.525925,-0.45976 0,-0.15204 -0.206967,-0.3551 -0.45993,-0.45129 -0.252963,-0.0962 -0.624821,-0.39005 -0.826354,-0.65306 -0.65923,-0.86033 -2.52806,-2.74587 -3.25405,-3.28315 -0.42562,-0.31499 -0.71228,-0.67108 -0.714763,-0.88789 -0.0028,-0.24005 -0.214088,-0.46208 -0.627476,-0.65921 -0.395858,-0.18877 -0.690002,-0.4885 -0.806033,-0.82136 -0.128173,-0.36767 -0.297779,-0.5241 -0.568248,-0.5241 -0.496615,0 -1.683857,-1.21036 -1.683857,-1.71664 0,-0.27019 -0.105871,-0.38706 -0.350616,-0.38706 -0.221817,0 -0.350613,-0.11687 -0.350613,-0.31816 0,-0.19097 -0.245232,-0.43508 -0.613582,-0.61073 -0.382413,-0.18236 -0.613577,-0.41775 -0.613577,-0.62478 0,-0.20521 -0.204902,-0.41705 -0.53602,-0.55422 -0.294814,-0.1221 -0.921989,-0.66577 -1.393728,-1.20815 -0.471737,-0.54237 -1.374414,-1.41355 -2.005946,-1.93598 -0.737548,-0.61012 -1.14824,-1.07948 -1.14824,-1.31228 0,-0.2333 -0.185544,-0.44456 -0.52077,-0.59295 -0.840828,-0.37219 -2.284158,-1.76582 -2.284158,-2.2055 0,-0.27261 -0.184209,-0.47741 -0.613577,-0.68216 -0.391237,-0.18657 -0.61358,-0.41639 -0.61358,-0.63424 0,-0.18789 -0.149773,-0.38916 -0.332829,-0.44727 -0.738035,-0.23425 -1.770865,-1.14598 -1.770865,-1.56324 0,-0.2945 -0.149738,-0.47793 -0.512947,-0.62837 -0.282122,-0.11687 -1.194105,-0.95312 -2.026632,-1.85836 -0.832528,-0.90522 -1.745583,-1.78285 -2.02902,-1.95029 -0.317592,-0.1876 -0.515338,-0.44992 -0.515338,-0.68362 0,-0.24744 -0.167504,-0.44995 -0.482095,-0.5828 -0.711351,-0.30041 -1.427362,-0.97776 -2.794796,-2.64387 -3.176539,-3.87036 -4.01753,-6.0452 -3.864048,-9.992558 0.08698,-2.236863 0.463222,-3.540356 1.552613,-5.378952 0.776838,-1.311099 2.592391,-3.160234 3.984992,-4.058703 2.313153,-1.492389 4.064951,-1.881661 9.229237,-2.050851 5.293154,-0.173414 5.774683,-0.441937 5.781489,-3.224051 0.005,-2.070917 -0.112614,-2.40923 -0.918058,-2.639302 -1.110987,-0.317348 -9.406076,-0.518975 -21.573717,-0.524391 l -11.626351,-0.0051 0.05603,-0.383775 c 0.07045,-0.482709 0.794754,-0.685278 4.614028,-1.290454 1.54271,-0.24445 4.934922,-0.832153 7.538247,-1.30601 2.603322,-0.473857 6.024334,-1.062474 7.602247,-1.308036 3.251919,-0.506087 3.900517,-0.747494 5.348444,-1.990675 0.717383,-0.61594 1.289992,-0.946566 1.887687,-1.089948 1.000628,-0.240049 19.279403,-0.345633 20.354715,-0.117577 0.475891,0.100933 0.657403,0.230033 0.657403,0.467596 0,0.452906 -0.778579,0.722149 -5.259242,1.818701 -3.34531,0.818697 -3.775172,0.963898 -3.82293,1.291329 -0.04166,0.285589 0.08305,0.414077 0.552125,0.568885 0.495612,0.163567 0.718131,0.414001 1.222201,1.375525 0.878407,1.67558 1.172067,2.993029 1.172067,5.258302 0,1.441617 -0.08969,2.218821 -0.355278,3.078695 -0.707522,2.290694 -3.292627,5.360438 -5.322101,6.31986 -1.87252,0.885212 -4.646151,1.312871 -8.61023,1.327572 -2.871564,0.01065 -4.295048,0.174389 -4.295048,0.494061 0,0.144873 -0.435627,0.665961 -0.968063,1.157984 -0.852973,0.78822 -0.988854,1.009006 -1.142964,1.857127 -0.287652,1.583054 0.22121,4.315656 0.900544,4.835926 0.135458,0.1037 0.71962,0.37568 1.298136,0.60429 1.046755,0.41364 1.098999,0.41625 10.781449,0.54055 9.424226,0.12098 10.543711,0.18533 13.294946,0.7642 3.776381,0.79454 8.272421,2.98643 11.160528,5.44091 1.739197,1.47809 2.892577,2.69033 2.892577,3.04023 0,0.23122 0.13431,0.37296 0.38813,0.40959 0.83811,0.12096 2.56461,3.03809 4.14483,7.00321 0.92069,2.31021 1.31604,4.02787 1.56263,6.78909 0.25598,2.86647 0.69818,3.18912 -9.338785,-6.81409 -9.878302,-9.8451 -9.08003,-9.23226 -11.644645,-8.93976 -0.805437,0.0918 -1.512659,0.21701 -1.571598,0.2781 -0.05894,0.0611 4.093652,4.27708 9.227984,9.36885 6.103574,6.05298 9.335154,9.37858 9.335154,9.60677 0,0.2282 0.27278,0.50885 0.78821,0.8109 1.06019,0.62132 2.56656,2.12854 2.98825,2.98991 0.30166,0.61622 0.34975,1.15097 0.39663,4.41051 l 0.0533,3.70927 -0.55736,0.12243 c -0.56124,0.12326 -0.85536,-0.0722 -0.86149,-0.57248 -0.002,-0.12052 -0.16045,-0.21913 -0.3533,-0.21913 -0.19478,0 -0.35061,-0.11688 -0.35061,-0.26297 0,-0.14462 -0.14545,-0.26295 -0.32323,-0.26295 -0.18723,0 -0.80765,-0.57161 -1.47467,-1.35865 -0.6333,-0.74724 -2.72967,-2.92172 -4.6586,-4.83215 -1.928922,-1.91044 -3.550609,-3.58683 -3.603747,-3.7253 -0.05313,-0.13848 -0.242919,-0.25178 -0.421734,-0.25178 -0.180088,0 -0.657684,-0.40883 -1.070639,-0.91647 -0.711166,-0.87424 -13.781651,-14.45724 -16.108509,-16.74014 -0.670357,-0.6577 -1.570557,-1.31626 -2.269699,-1.66044 -1.016664,-0.50051 -1.36992,-0.57891 -2.881778,-0.63963 -1.152162,-0.0463 -1.723077,-0.007 -1.723077,0.11874 0,0.10336 1.538328,1.76271 3.418504,3.68744 2.089255,2.13873 3.418509,3.63315 3.418509,3.84325 0,0.22522 0.196482,0.42069 0.569752,0.56683 0.726716,0.2845 28.788468,28.2756 29.048998,28.97585 0.10977,0.29502 0.18361,2.24413 0.18361,4.84604 0,3.80723 -0.0347,4.36588 -0.2773,4.45896 -0.35146,0.13486 -0.28323,0.15031 -0.73553,-0.16651 z M 71.246762,75.915317 v -0.788888 h -1.928388 -1.928389 v 0.788888 0.788885 h 1.928389 1.928388 z"
     id="path18" />
  <path
     style="fill:#ff00ff;stroke-width:0;stroke-linejoin:bevel;stroke-miterlimit:0"
     d="m 107.21318,105.61185 c -4.33011,-0.54274 -8.53203,-3.80769 -10.005316,-7.774239 -0.954919,-2.570939 -1.037692,-4.225472 -0.200439,-4.006529 0.202583,0.05293 0.360241,0.238702 0.360241,0.424373 0,0.213302 0.124106,0.330165 0.350612,0.330165 0.227139,0 0.350612,0.116874 0.350612,0.331865 0,0.182518 0.11932,0.377648 0.26515,0.433607 0.14584,0.056 0.83611,0.47464 1.53395,0.930401 2.62168,1.712223 4.89741,2.337612 8.49286,2.333916 4.43371,-0.0041 7.63069,-1.139393 10.20294,-3.621745 0.88501,-0.854079 1.46909,-1.284472 1.74319,-1.284513 0.40648,-6.1e-5 0.41048,0.01771 0.28601,1.270917 -0.27875,2.806867 -1.30816,4.857045 -3.59081,7.151512 -1.20105,1.20724 -1.77921,1.63829 -2.98026,2.22191 -2.15601,1.04768 -4.71558,1.52073 -6.80874,1.25836 z"
     id="path19" />
  <path
     style="fill:#ff00ff;stroke-width:0;stroke-linejoin:bevel;stroke-miterlimit:0"
     d="m 84.898866,93.139332 c 0.106072,-0.294467 0.582269,-0.566953 1.878912,-1.0751 0.955254,-0.374362 3.044005,-1.254891 4.641667,-1.95674 1.597661,-0.701846 3.279448,-1.332255 3.7373,-1.400917 l 0.832462,-0.124833 -0.450274,-0.469984 c -0.247651,-0.258495 -0.450273,-0.643169 -0.450273,-0.854837 0,-0.211666 -0.09861,-0.385678 -0.219135,-0.386693 -0.551036,-0.0046 -6.617879,-5.258344 -6.617879,-5.730892 0,-0.218965 0.151211,-0.246001 0.832712,-0.148883 1.792894,0.255501 8.149177,1.809097 9.378982,2.292403 0.23374,0.09186 0.30679,0.03189 0.30679,-0.251864 0,-0.650011 -0.69033,-3.675619 -1.61406,-7.07417 -0.491726,-1.809142 -0.851027,-3.332371 -0.798445,-3.384948 0.234057,-0.23406 1.382828,0.46215 1.548971,0.938748 0.114154,0.327469 0.429214,0.625278 0.913344,0.863349 1.05456,0.518578 4.68488,3.884023 4.79935,4.449182 0.0682,0.336943 0.33654,0.573523 1.04374,0.920366 0.52354,0.256765 0.99944,0.466844 1.05756,0.466844 0.0581,0 0.0597,-0.229987 0.003,-0.511082 -0.15144,-0.75723 0.1676,-2.45898 0.92302,-4.923464 0.36944,-1.205245 0.80863,-2.808769 0.97597,-3.563388 0.32363,-1.459382 0.52462,-1.683079 1.27198,-1.415695 0.40392,0.14451 0.49072,0.376776 1.00903,2.700077 0.3119,1.398081 0.81301,3.246687 1.11355,4.10801 0.30055,0.861325 0.59686,1.946043 0.65847,2.410488 0.0616,0.46444 0.16542,0.844441 0.23069,0.844441 0.0652,0 0.38598,-0.197223 0.7127,-0.438273 0.32673,-0.241047 0.73649,-0.438269 0.9106,-0.438269 0.19037,0 0.31657,-0.128427 0.31657,-0.322176 0,-0.183325 0.66107,-0.915102 1.53393,-1.697967 0.84368,-0.756682 2.17113,-2.031698 2.9499,-2.833368 0.96595,-0.994365 1.54419,-1.457578 1.81949,-1.457578 0.38497,0 0.39809,0.04236 0.2852,0.920365 -0.19257,1.497567 -0.99377,4.634038 -2.50722,9.815062 -0.0772,0.264206 -0.0224,0.282396 0.413,0.137191 2.92807,-0.976493 9.05755,-2.63314 9.74244,-2.63314 0.46185,0 0.83973,0.04115 0.83973,0.09141 0,0.606133 -3.45315,3.993518 -4.41168,4.327668 -0.29146,0.101599 -0.49694,0.300608 -0.49694,0.481294 0,0.177414 -0.44273,0.618628 -1.04393,1.04034 -0.57416,0.402751 -1.20891,0.963982 -1.41056,1.247182 l -0.36665,0.514907 0.4902,0.110608 c 1.49357,0.337008 2.15458,0.572444 4.87292,1.735627 1.63912,0.701386 3.59076,1.502274 4.33697,1.779757 1.13887,0.423481 1.35703,0.567843 1.35863,0.89894 l 0.002,0.394448 h -5.77481 c -3.84505,0 -5.81285,-0.06153 -5.88862,-0.184125 -0.0626,-0.101251 -0.26659,-0.93207 -0.45334,-1.846225 -0.18675,-0.914158 -0.50166,-2.073801 -0.69979,-2.576982 -1.78415,-4.530947 -5.88786,-7.154791 -11.20064,-7.161522 -1.69605,-0.0023 -2.22014,0.06709 -3.30192,0.436223 -1.75464,0.598737 -3.01356,1.379832 -4.54315,2.818804 -1.02996,0.968946 -1.43348,1.507382 -1.98756,2.652097 -0.659972,1.363499 -1.562393,4.396932 -1.562393,5.251871 0,0.21837 -0.124787,0.44492 -0.277301,0.503448 -0.152514,0.05856 -2.87163,0.106401 -6.042477,0.106401 h -5.764592 z"
     id="path20" />
  <path
     style="fill:#ff00ff;stroke-width:0;stroke-linejoin:bevel;stroke-miterlimit:0"
     d="m 110.25706,156.95147 c -0.0684,-0.21695 -0.16649,-2.04267 -0.21805,-4.05716 -0.12783,-4.99481 -0.0672,-5.24264 1.67824,-6.85285 0.73333,-0.67654 2.20687,-2.07814 3.27453,-3.11464 1.06766,-1.03651 2.0676,-1.88456 2.2221,-1.88456 0.15449,0 0.49913,-0.37471 0.76587,-0.83272 0.69171,-1.18767 7.21815,-7.75739 7.82732,-7.87922 0.33473,-0.0669 0.61876,-0.33858 0.94867,-0.90722 0.62041,-1.06936 5.66937,-6.1563 6.11971,-6.16575 0.23386,-0.004 0.46594,-0.27049 0.73069,-0.83621 0.27051,-0.57801 0.8544,-1.23706 1.9284,-2.17662 2.34646,-2.05276 11.18531,-10.97241 11.02858,-11.12941 -0.0759,-0.076 -0.83742,-0.1656 -1.69229,-0.19911 -1.95805,-0.0768 -3.07717,0.26367 -4.16948,1.26832 -0.43113,0.39654 -3.59211,3.63987 -7.02437,7.20739 -7.42976,7.72255 -7.32998,7.62367 -7.70276,7.63432 -0.16187,0.004 -0.57041,0.4447 -0.90789,0.97792 -0.77025,1.21704 -2.65363,3.04575 -3.1368,3.04575 -0.25049,0 -0.47784,0.22984 -0.73702,0.74506 -0.43067,0.85616 -9.84624,10.38286 -10.42639,10.54945 -0.34391,0.0988 -0.37884,-0.0149 -0.6574,-2.1419 -0.16179,-1.23543 -0.29419,-2.92131 -0.29419,-3.74641 0,-1.3453 0.0581,-1.61287 0.56294,-2.59168 0.68533,-1.32883 2.06609,-2.86287 4.11823,-4.57542 0.84825,-0.70789 2.53515,-2.25792 3.74869,-3.44454 1.21352,-1.18662 2.33566,-2.15749 2.49363,-2.15749 0.15798,0 0.41613,-0.2564 0.57369,-0.56975 0.15756,-0.31338 2.84852,-3.14195 5.97993,-6.28574 l 5.69345,-5.71597 -0.67235,-0.11107 c -1.12844,-0.18643 -2.29754,-0.12897 -3.49498,0.17182 -1.11128,0.27915 -1.18434,0.33384 -2.75155,2.05986 -2.87539,3.1668 -15.10876,15.35949 -15.41073,15.35949 -0.57707,0 -0.57258,-1.3457 0.0156,-4.64347 0.83999,-4.71018 1.89736,-7.08783 4.74646,-10.67312 4.66007,-5.86421 10.54144,-8.85137 19.20316,-9.75335 0.9642,-0.10044 5.53974,-0.2293 10.16787,-0.28642 8.10106,-0.10003 8.4442,-0.11777 9.20368,-0.47637 0.43388,-0.20489 1.01494,-0.45907 1.29123,-0.56487 0.41065,-0.15724 0.59961,-0.44422 1.03506,-1.57207 0.51984,-1.346406 0.52804,-1.414508 0.33999,-2.819958 -0.10604,-0.79212 -0.37453,-1.819636 -0.59677,-2.283362 -0.39019,-0.814142 -0.44932,-0.857161 -1.71889,-1.25081 -1.0726,-0.332571 -1.97516,-0.439105 -4.89916,-0.578317 -5.9603,-0.283737 -7.78197,-0.883154 -10.28449,-3.384103 -1.13973,-1.139015 -1.56306,-1.716801 -2.13294,-2.911174 -0.90023,-1.886716 -1.34801,-3.872842 -1.20895,-5.362114 0.14936,-1.599496 0.88525,-3.639289 1.8805,-5.212566 0.47702,-0.754057 0.8673,-1.396109 0.8673,-1.426782 0,-0.03067 -0.29583,-0.108989 -0.6574,-0.174029 -0.36157,-0.06504 -2.37635,-0.604704 -4.47727,-1.199249 -3.44288,-0.974309 -3.81487,-1.115948 -3.76914,-1.4352 0.0503,-0.351015 0.14794,-0.354207 10.8322,-0.354207 12.15878,0 10.70533,-0.162537 12.80138,1.431575 1.26264,0.960282 2.45057,1.330716 6.04424,1.884785 1.63912,0.252719 4.59744,0.771835 6.57404,1.153591 1.97661,0.381757 5.0927,0.934442 6.92468,1.228195 4.5506,0.729675 4.99628,0.839395 4.99628,1.23008 0,0.21749 -0.18154,0.359219 -0.56976,0.444785 -0.31335,0.06907 -7.39361,0.13451 -15.73389,0.145412 l -15.16414,0.01981 -1.00826,0.495105 c -0.75404,0.370271 -1.1187,0.683566 -1.44629,1.242559 -0.51556,0.879726 -0.53361,1.155612 -0.15086,2.307021 0.63527,1.911113 0.98479,2.044374 5.76095,2.1964 4.33277,0.137914 5.72398,0.373783 7.79034,1.320787 2.60263,1.192785 4.53959,3.148404 5.88021,5.936851 1.00157,2.083236 1.2311,3.113414 1.21089,5.434553 -0.0147,1.690472 -0.0853,2.122842 -0.57137,3.504372 -0.30503,0.8668 -0.84173,2.01068 -1.19267,2.54196 -0.95047,1.43887 -3.47142,4.38598 -4.35031,5.08574 -0.42387,0.33745 -0.81991,0.75162 -0.88009,0.92036 -0.0602,0.16872 -0.25409,0.30679 -0.43091,0.30679 -0.18184,0 -0.47941,0.26766 -0.6851,0.61628 -0.19997,0.33894 -0.56419,0.69253 -0.80935,0.78573 -0.24516,0.0932 -0.52805,0.38782 -0.62865,0.65472 -0.24904,0.66062 -1.20717,1.62473 -1.61467,1.62473 -0.18521,0 -0.37328,0.15541 -0.42432,0.35061 -0.0504,0.19285 -0.20084,0.35062 -0.33422,0.35062 -0.13339,0 -0.2425,0.15778 -0.2425,0.35062 0,0.22968 -0.1169,0.35061 -0.33882,0.35061 -0.18635,0 -0.38727,0.15272 -0.44652,0.33937 -0.0592,0.18666 -0.558,0.7586 -1.10834,1.27098 -0.55036,0.5124 -1.34788,1.3458 -1.77228,1.852 -0.42441,0.5062 -0.91707,0.92037 -1.09482,0.92037 -0.17774,0 -0.32318,0.11832 -0.32318,0.26296 0,0.14462 -0.11831,0.26296 -0.26296,0.26296 -0.14608,0 -0.26297,0.15582 -0.26297,0.35061 0,0.23263 -0.11686,0.35062 -0.34726,0.35062 -0.22422,0 -0.38626,0.15529 -0.45729,0.43827 -0.0693,0.2759 -0.23389,0.43827 -0.44443,0.43827 -0.20963,0 -0.44365,0.22901 -0.62705,0.61358 -0.17565,0.36834 -0.41975,0.61357 -0.61074,0.61357 -0.18867,0 -0.31814,0.12754 -0.31814,0.31338 0,0.39784 -1.57786,1.96563 -1.97824,1.96563 -0.16541,0 -0.30076,0.11834 -0.30076,0.26295 0,0.14464 -0.11084,0.26297 -0.2463,0.26297 -0.13547,0 -0.4431,0.33582 -0.68363,0.74623 -0.51593,0.88037 -1.81772,2.21713 -3.59031,3.68674 -0.70238,0.58233 -1.55715,1.44035 -1.89949,1.90672 -0.38586,0.52565 -0.75628,0.84794 -0.97455,0.84794 -0.20466,0 -0.39049,0.14682 -0.44379,0.35062 -0.0504,0.19284 -0.20083,0.35062 -0.3342,0.35062 -0.13339,0 -0.24251,0.11833 -0.24251,0.26295 0,0.14464 -0.1163,0.26297 -0.25847,0.26297 -0.14215,0 -0.38028,0.2356 -0.5292,0.52355 -0.42398,0.8199 -1.3195,1.75547 -1.6803,1.75547 -0.19416,0 -0.44525,0.23243 -0.61544,0.56973 -0.39806,0.78891 -1.12802,1.53396 -1.5029,1.53396 -0.17415,0 -0.44018,0.24531 -0.59892,0.55228 -0.37595,0.72701 -6.10655,6.46003 -6.45731,6.46003 -0.14945,0 -0.32123,0.19722 -0.38174,0.43828 -0.0688,0.27425 -0.23408,0.43826 -0.44161,0.43826 -0.20226,0 -0.3316,0.12288 -0.3316,0.31505 0,0.3968 -1.22835,1.61334 -1.629,1.61334 -0.16466,0 -0.29939,0.11834 -0.29939,0.26297 0,0.14463 -0.11085,0.26296 -0.24631,0.26296 -0.13547,0 -0.44453,0.33527 -0.68684,0.74505 -0.53673,0.90776 -1.65762,2.00466 -2.13474,2.08908 -0.1982,0.0351 -0.37393,0.22474 -0.40423,0.43629 -0.0295,0.20585 -0.484,0.7177 -1.01003,1.13745 -0.52604,0.41975 -1.00029,0.90136 -1.05388,1.07024 -0.0537,0.16888 -0.24461,0.30705 -0.42445,0.30705 -0.17984,0 -0.37552,0.15293 -0.43484,0.33983 -0.11253,0.35453 -1.22065,1.41325 -1.4792,1.41325 -0.0818,0 -0.20471,-0.17749 -0.27307,-0.39444 z m 39.5277,-81.036153 v -0.788888 h -1.92838 -1.92838 v 0.788888 0.788885 h 1.92838 1.92838 z"
     id="path21" />
  <path
     style="fill:#ff00ff;stroke-width:0;stroke-linejoin:bevel;stroke-miterlimit:0"
     d="m 74.095836,214.22704 c -0.52322,-0.36648 -0.818279,-1.43841 -0.66933,-2.43167 0.195441,-1.30332 0.317852,-1.33111 5.860314,-1.33111 h 4.726614 l 0.09366,-0.65742 c 0.05153,-0.36156 0.117619,-12.37235 0.14689,-26.69065 l 0.05323,-26.03325 -0.613578,-1.16914 c -0.526029,-1.00234 -1.2311,-1.76038 -4.941477,-5.31272 -3.164024,-3.02924 -4.436928,-4.36489 -4.733319,-4.96662 -0.401819,-0.81578 -0.405869,-0.8896 -0.456338,-8.31749 -0.04097,-6.03098 -0.0067,-7.4941 0.175308,-7.49277 0.511086,0.003 2.063387,1.08712 2.987024,2.08476 0.778414,0.84079 1.00859,1.22272 1.092182,1.81227 0.05825,0.41084 0.08295,2.71919 0.05485,5.12968 -0.0489,4.19727 -0.03516,4.41237 0.324733,5.08393 0.206684,0.38568 0.541959,0.85152 0.745057,1.0352 0.203099,0.18367 0.369274,0.47748 0.369274,0.6529 0,0.18168 0.242079,0.44412 0.562494,0.60981 0.309377,0.15999 1.372715,1.06925 2.362978,2.02055 1.7178,1.65024 2.383981,2.1136 2.045734,1.42288 -0.08263,-0.16874 -0.1726,-2.25927 -0.19993,-4.64566 l -0.0497,-4.33887 h 0.702718 c 0.631182,0 0.805259,0.10771 1.709985,1.05793 1.479813,1.55424 2.163079,2.79884 1.536519,2.79884 -0.216022,0 -0.256556,0.081 -0.153509,0.30679 0.07701,0.16874 0.196068,2.16067 0.264573,4.42653 0.07017,2.32122 0.210862,4.34122 0.322261,4.62707 0.108731,0.27904 0.432008,0.80315 0.718377,1.16473 0.28637,0.36157 0.520669,0.78605 0.520669,0.9433 0,0.15724 0.186863,0.35695 0.415247,0.44378 0.445519,0.16939 1.084511,0.88925 1.248785,1.40682 0.05539,0.17452 0.354473,0.4207 0.664629,0.54707 0.827616,0.33723 2.579964,2.0576 2.579964,2.53289 0,0.28142 0.135589,0.42662 0.478822,0.51277 0.616206,0.15465 7.935964,7.39486 7.935964,7.84972 0,0.18729 0.2403,0.44985 0.56975,0.62253 0.31336,0.16425 1.52027,1.22558 2.68202,2.3585 1.16177,1.13293 2.18937,2.05987 2.2836,2.05987 0.29787,0 3.99879,-3.56751 10.24328,-9.87399 4.0665,-4.10688 6.19505,-6.13491 6.50379,-6.19665 0.29136,-0.0584 0.55619,-0.29361 0.72531,-0.6445 0.44653,-0.92649 1.69564,-2.21812 2.1451,-2.21812 0.22253,0 0.46129,-0.13806 0.53055,-0.3068 0.0693,-0.16872 0.19258,-2.20012 0.27404,-4.51418 0.23391,-6.6447 0.2087,-6.42961 0.88485,-7.54887 0.78532,-1.30003 2.27266,-2.70665 2.86194,-2.70665 h 0.44876 v 4.64566 c 0,4.30848 0.0222,4.6455 0.30679,4.64328 0.68751,-0.005 1.07871,-0.23495 1.29395,-0.75936 0.34118,-0.8313 1.70465,-2.21849 2.18054,-2.21849 0.25479,0 0.44532,-0.13498 0.51923,-0.36784 0.0643,-0.20232 0.49422,-0.78467 0.95557,-1.2941 1.32678,-1.46508 1.41769,-2.03382 1.16348,-7.27877 -0.1065,-2.19705 -0.0912,-3.27981 0.0539,-3.81447 0.39066,-1.43971 3.29865,-4.70389 3.77035,-4.23218 0.30661,0.3066 0.44531,2.66395 0.4889,8.30961 0.0458,5.93854 0.0287,6.35248 -0.29052,7.01232 -0.20528,0.42429 -2.19577,2.57814 -5.04011,5.45374 -2.58547,2.61387 -4.70085,4.84247 -4.70085,4.95244 0,0.10996 -0.15777,0.19996 -0.35062,0.19996 -0.34912,0 -0.35061,0.11688 -0.35061,27.61719 0,27.24998 0.004,27.61477 0.3391,27.43571 0.43873,-0.23481 9.29036,-0.24419 9.905,-0.0102 0.43043,0.16365 0.44969,0.23039 0.44969,1.55834 0,1.10601 -0.0681,1.47132 -0.33577,1.80125 l -0.33577,0.41387 h -6.75545 c -5.31846,0 -6.80394,-0.0486 -6.98334,-0.22849 -0.18549,-0.18599 -0.21708,-5.20312 -0.1698,-26.96996 l 0.058,-26.74146 -0.40869,0.12621 c -0.86294,0.26645 -1.41426,0.65317 -1.69495,1.18886 -0.41193,0.78616 -3.18048,3.61865 -3.65284,3.7372 -0.21634,0.0543 -0.6293,0.4657 -0.91773,0.91425 -0.67494,1.04958 -5.99733,6.33773 -6.37879,6.33773 -0.15946,0 -0.42005,0.25164 -0.57909,0.5592 -0.15905,0.30758 -1.07864,1.37065 -2.04353,2.36238 l -1.75433,1.80315 0.3008,0.45907 c 0.42362,0.64653 6.71372,7.04381 7.46961,7.59687 0.5752,0.42087 0.61271,0.50234 0.47539,1.03228 -0.19698,0.76018 -2.48922,3.18054 -3.13435,3.30956 -0.31607,0.0633 -0.51485,0.23845 -0.58428,0.51502 -0.0594,0.2365 -0.23745,0.42159 -0.40865,0.42469 -0.17183,0.003 -0.53158,0.37895 -0.82937,0.86646 -0.28927,0.47353 -1.73534,2.08826 -3.21352,3.58832 -3.35801,3.4077 -3.14112,3.36173 -5.31187,1.12595 -0.85516,-0.88078 -1.55482,-1.70708 -1.55482,-1.83624 0,-0.12915 -0.25639,-0.36367 -0.56976,-0.52113 -0.77995,-0.39196 -2.23517,-1.83123 -2.23517,-2.21068 0,-0.18122 -0.27291,-0.44976 -0.65741,-0.64693 -0.77625,-0.39807 -1.38622,-1.02214 -1.47463,-1.50874 -0.0348,-0.19173 -0.22021,-0.3771 -0.41194,-0.41194 -0.48572,-0.0882 -1.13749,-0.72632 -1.13749,-1.11359 0,-0.19641 -0.24034,-0.43749 -0.613581,-0.61547 -0.445735,-0.21257 -0.613577,-0.40599 -0.613577,-0.70711 0,-0.93116 1.323108,-2.6761 2.029168,-2.6761 0.26624,0 0.45426,-0.17299 0.6182,-0.56878 0.3553,-0.85777 4.14505,-4.69047 4.6379,-4.69047 0.33429,0 0.43017,-0.13662 0.58446,-0.83271 l 0.18457,-0.83271 -1.13976,-1.05185 c -0.62687,-0.57852 -1.14111,-1.17018 -1.14275,-1.31481 -0.002,-0.14464 -0.33458,-0.42543 -0.73986,-0.62402 -0.53619,-0.26271 -0.78937,-0.52058 -0.92959,-0.94682 -0.13435,-0.4084 -0.39978,-0.6919 -0.87654,-0.93622 -0.92907,-0.47613 -3.050493,-2.619 -3.050493,-3.08132 0,-0.24358 -0.146139,-0.4021 -0.43827,-0.47541 -0.267121,-0.0671 -0.438268,-0.23488 -0.438268,-0.4298 0,-0.17588 -0.160184,-0.37064 -0.355961,-0.43278 -0.463193,-0.14701 -3.500819,-3.15249 -3.500819,-3.46376 0,-0.1313 -0.27611,-0.37039 -0.613577,-0.53132 -0.384569,-0.18339 -0.613577,-0.41742 -0.613577,-0.62705 0,-0.20985 -0.162027,-0.37511 -0.434926,-0.4436 -0.574174,-0.14411 -1.668772,-1.25116 -1.668772,-1.68777 0,-0.2279 -0.118851,-0.34478 -0.350616,-0.34478 -0.233745,0 -0.350617,-0.11687 -0.350617,-0.35061 0,-0.24018 -0.11687,-0.35062 -0.371051,-0.35062 -0.321919,0 -0.35248,0.0638 -0.230786,0.48211 0.07714,0.26514 0.16723,12.17738 0.200185,26.47163 0.05526,23.97268 0.03726,26.03375 -0.231947,26.55916 -0.160524,0.31331 -0.379464,0.6276 -0.486537,0.69844 -0.107067,0.0709 -3.115722,0.13 -6.685893,0.13148 -5.557183,0.002 -6.546541,-0.036 -6.875703,-0.26663 z M 109.98823,191.7832 c 0.6553,-0.63265 1.37721,-1.50042 1.60425,-1.92838 0.28918,-0.54513 0.5238,-0.77816 0.78344,-0.77816 0.77069,0 2.34366,-1.6032 2.34609,-2.39116 0.001,-0.43314 -3.92903,-4.50954 -4.53275,-4.70115 -0.21247,-0.0675 -0.37473,-0.26563 -0.37473,-0.45774 0,-0.22193 -0.12095,-0.3388 -0.35061,-0.3388 -0.24062,0 -0.35062,-0.11688 -0.35062,-0.37254 0,-0.32501 -0.0727,-0.3591 -0.56975,-0.2672 -0.41227,0.0762 -0.83626,0.40927 -1.53394,1.20497 -0.53031,0.60483 -1.78559,1.94542 -2.78951,2.9791 -1.38718,1.42829 -1.75832,1.90513 -1.5462,1.98653 0.15352,0.0589 0.36149,0.34337 0.46216,0.63216 0.23768,0.68182 4.91126,5.56329 5.33688,5.57426 0.17811,0.004 0.85999,-0.50925 1.51529,-1.14189 z"
     id="path22" />
  <path
     style="fill:#ff00ff;stroke-width:0;stroke-linejoin:bevel;stroke-miterlimit:0"
     d="m 104.99356,255.42627 c -1.54271,-0.83148 -3.75159,-1.98756 -4.90862,-2.56906 -1.15703,-0.58151 -2.734807,-1.43224 -3.506165,-1.89053 -0.771353,-0.45829 -2.230794,-1.29237 -3.243196,-1.8535 -5.078298,-2.81462 -13.095255,-8.36561 -18.582655,-12.86673 -1.205245,-0.98861 -3.236624,-2.63292 -4.514182,-3.65402 -1.277559,-1.02109 -2.322832,-1.98316 -2.322832,-2.13792 0,-0.15477 -0.493055,-0.60672 -1.095677,-1.00433 -1.431572,-0.94457 -8.896881,-8.46351 -8.896881,-8.96079 0,-0.20748 -0.240764,-0.52624 -0.569752,-0.75434 -0.313364,-0.21727 -1.454569,-1.2143 -2.53601,-2.21562 -1.629235,-1.50855 -2.072448,-2.03286 -2.585792,-3.05897 -0.340748,-0.68112 -0.619537,-1.34612 -0.619537,-1.47779 0,-0.13168 -0.177501,-0.24377 -0.394445,-0.24911 -0.445283,-0.0112 -0.283317,0.184 -3.531418,-4.25071 -3.965816,-5.41464 -7.293855,-10.45139 -7.293855,-11.03876 0,-0.36395 -0.101087,-0.53782 -0.350612,-0.60307 -0.226899,-0.0594 -0.350617,-0.23912 -0.350617,-0.50952 0,-0.2919 -0.09922,-0.41781 -0.329231,-0.41781 -0.240383,0 -0.662124,-0.60319 -1.562826,-2.23519 -0.678477,-1.22935 -1.721794,-3.10295 -2.31848,-4.16356 -4.375747,-7.77791 -9.416851,-19.85827 -12.436446,-29.80237 -2.559554,-8.42909 -4.196619,-15.7353 -5.165373,-23.05302 -1.114924,-8.42182 -1.036057,-6.26738 -1.108621,-30.28446 l -0.06634,-21.957332 h 1.676408 1.676407 l -0.0025,5.653684 c -0.0016,3.781907 -0.114537,7.24977 -0.34103,10.474648 -1.192942,16.98554 -1.001734,20.33422 2.077084,36.37643 0.481126,2.50691 1.045312,5.54412 1.253751,6.74936 0.588852,3.40488 1.816683,8.74707 2.719736,11.8333 0.830192,2.83723 1.040226,3.67394 1.221201,4.8648 0.06101,0.40144 0.196106,0.6574 0.34698,0.6574 0.14948,0 0.28964,0.25967 0.35483,0.6574 0.247766,1.51162 2.598153,7.91413 4.199249,11.43886 0.459881,1.0124 1.267236,2.86628 1.794124,4.11974 0.526886,1.25344 2.139416,4.5865 3.5834,7.40676 2.073645,4.05007 2.696746,5.12775 2.964791,5.12775 0.25097,0 0.341915,0.12559 0.349157,0.48211 0.01535,0.75473 0.601283,2.04205 1.016355,2.23292 0.229463,0.10549 0.376316,0.33427 0.376316,0.58617 0,0.26144 0.124886,0.44576 0.340174,0.50206 0.208445,0.0546 0.439562,0.38064 0.596828,0.84221 0.317943,0.9331 2.31196,4.09653 4.75205,7.53895 1.017058,1.43483 1.849193,2.66704 1.849193,2.73824 0,0.0712 0.166238,0.15467 0.369414,0.18548 0.263485,0.04 0.479996,0.33252 0.755024,1.02021 0.266661,0.66677 0.49414,0.98016 0.737449,1.01594 0.228235,0.0335 0.516613,0.38771 0.820847,1.00801 0.302039,0.61586 0.578898,0.95697 0.777695,0.95819 0.192933,10e-4 0.538795,0.40286 0.922275,1.07113 0.337467,0.58807 1.106631,1.66327 1.709254,2.38933 0.602619,0.72606 1.095673,1.38793 1.095673,1.47084 0,0.0829 0.150282,0.15074 0.333958,0.15074 0.206996,0 0.501252,0.28326 0.773995,0.74505 0.670342,1.13502 1.684905,2.23518 2.061251,2.23518 0.192942,0 0.336958,0.12069 0.336958,0.28238 0,0.57498 5.080634,5.92778 7.976516,8.40382 0.771357,0.65952 2.59987,2.3396 4.063363,3.73352 2.765979,2.63448 4.001567,3.59573 6.148333,4.78321 0.828177,0.45811 1.270982,0.81028 1.270982,1.01083 0,0.4557 0.419054,0.78449 4.688688,3.67868 2.144891,1.45393 4.393218,3.02939 4.996281,3.501 1.192664,0.9327 1.999602,1.37522 3.419309,1.87511 0.655102,0.23068 0.920369,0.41617 0.920369,0.6436 0,0.48529 2.246792,1.84783 4.188722,2.54019 0.976383,0.34812 1.831433,0.77063 2.034713,1.00542 0.29491,0.34064 2.86959,1.75564 6.83701,3.75753 0.6265,0.31612 1.16415,0.44397 1.88475,0.44816 0.94022,0.005 1.27119,-0.12648 4.90864,-1.95737 4.70168,-2.36659 6.86597,-3.59195 12.88495,-7.29516 2.98852,-1.8387 4.60183,-2.93181 4.60183,-3.11797 0,-0.18519 0.54303,-0.55767 1.53396,-1.0522 1.08571,-0.54182 1.54879,-0.8692 1.58477,-1.12037 0.0327,-0.22796 0.3461,-0.49256 0.87654,-0.73993 0.45413,-0.2118 1.31221,-0.76211 1.90681,-1.22292 2.49284,-1.9319 7.29273,-5.94201 9.08677,-7.59162 1.0606,-0.97523 2.22253,-1.98457 2.58204,-2.24299 0.37625,-0.27045 0.65526,-0.6191 0.65741,-0.82151 0.002,-0.22682 0.206,-0.44016 0.57349,-0.60099 0.86423,-0.37821 5.04012,-4.54054 5.04012,-5.02376 0,-0.29232 0.13103,-0.42327 0.50594,-0.50561 0.34705,-0.0762 0.8662,-0.54151 1.65302,-1.48149 0.63089,-0.75369 2.04017,-2.31039 3.1317,-3.45935 1.54568,-1.62698 2.11875,-2.36995 2.59108,-3.35929 0.43641,-0.91411 0.72035,-1.29888 1.01265,-1.37223 0.45083,-0.11316 0.74754,-0.55053 0.74754,-1.10195 0,-0.25817 0.11325,-0.36265 0.39445,-0.36387 0.30166,-10e-4 0.68308,-0.41993 1.6216,-1.77972 0.67494,-0.9779 1.95483,-2.80481 2.8442,-4.05981 0.88938,-1.25501 1.79139,-2.70245 2.00448,-3.21657 0.25888,-0.62458 0.48897,-0.93473 0.6935,-0.93473 0.20117,0 0.55998,-0.46565 1.04691,-1.35863 0.40745,-0.74726 1.31085,-2.22641 2.00755,-3.28703 1.68122,-2.55939 4.73785,-8.21842 4.99881,-9.25473 0.12758,-0.5067 0.30561,-0.82549 0.461,-0.82549 0.14303,0 0.4849,-0.51473 0.78594,-1.18333 0.29304,-0.65083 1.28439,-2.83999 2.203,-4.8648 1.75419,-3.86657 2.51456,-5.74249 4.37006,-10.78144 3.77153,-10.24227 7.13814,-24.84356 8.20542,-35.58754 0.61,-6.14082 0.65937,-7.94109 0.74403,-27.12893 l 0.086,-19.503012 h 1.92297 1.92292 l -0.0769,19.678332 c -0.0482,12.35901 -0.14942,20.4934 -0.27191,21.86968 -0.74312,8.35036 -1.42138,13.32322 -2.65813,19.48828 -1.56297,7.79129 -3.12923,13.4073 -6.06825,21.75809 -0.92371,2.62459 -1.8046,5.14672 -1.95752,5.60471 -0.19359,0.57973 -0.37339,0.83271 -0.59187,0.83271 -0.20101,0 -0.35008,0.17329 -0.4147,0.4821 -0.60707,2.90096 -2.26424,6.65614 -5.85873,13.276 -1.04817,1.93036 -2.24568,4.20002 -2.66114,5.04368 -0.53404,1.08449 -0.84829,1.53396 -1.07244,1.53396 -0.17438,0 -0.3607,0.13805 -0.41407,0.30678 -0.27866,0.88123 -0.77688,1.84541 -1.68718,3.26506 -0.55534,0.86611 -1.00972,1.67898 -1.00972,1.80638 0,0.1274 -0.15166,0.23163 -0.33703,0.23163 -0.22834,0 -0.40094,0.1937 -0.53526,0.6007 -0.25486,0.77225 -2.36685,3.96554 -3.35894,5.07868 -0.42078,0.47211 -1.19894,1.57655 -1.72924,2.45431 -0.67306,1.11402 -1.07813,1.61214 -1.3415,1.64969 -0.22968,0.0328 -0.46608,0.26811 -0.60424,0.60166 -0.25424,0.6138 -1.47333,2.19075 -4.10115,5.30502 -0.9763,1.15705 -1.99673,2.39954 -2.26761,2.76112 -0.27089,0.36156 -0.62301,0.6574 -0.78247,0.6574 -0.15947,0 -0.44594,0.29366 -0.6366,0.65258 -0.86265,1.62392 -3.49587,4.43135 -4.1564,4.43135 -0.14709,0 -0.3695,0.24637 -0.49423,0.5475 -0.14232,0.34359 -0.44587,0.63903 -0.8151,0.79329 -0.36901,0.15419 -0.69661,0.47289 -0.87882,0.85498 -0.17231,0.36135 -0.41854,0.60917 -0.60529,0.60917 -0.18958,0 -0.35855,0.17432 -0.4248,0.43826 -0.0688,0.27426 -0.23409,0.43828 -0.44161,0.43828 -0.21473,0 -0.33162,0.12357 -0.33162,0.35061 0,0.22954 -0.11686,0.35062 -0.33841,0.35062 -0.2162,0 -0.35866,0.1409 -0.39444,0.39016 -0.0348,0.24237 -0.81957,1.04804 -2.07208,2.12725 -3.47481,2.99411 -4.2663,3.61836 -4.58761,3.61836 -0.1716,0 -0.42603,0.21696 -0.5654,0.4821 -0.51499,0.97978 -2.30283,2.42574 -7.99508,6.4663 -1.4945,1.06085 -3.70339,2.58894 -4.90863,3.39576 -1.20524,0.80682 -2.66408,1.81491 -3.24186,2.24019 -1.5948,1.17386 -3.24162,2.08545 -4.53383,2.50965 -0.87829,0.28832 -1.16501,0.46219 -1.16501,0.70645 0,0.43498 -2.55625,1.73036 -3.41463,1.73036 -0.49271,0 -0.61746,0.0683 -0.61746,0.33767 0,0.26344 -0.9154,0.81111 -4.16357,2.49104 -3.89351,2.01371 -4.23748,2.15724 -5.30307,2.21288 -1.139,0.0595 -1.14077,0.0589 -3.94444,-1.45227 z"
     id="path23" />
  <path
     style="fill:#ff00ff;stroke-width:0;stroke-linejoin:bevel;stroke-miterlimit:0"
     d="m 67.360676,56.52447 c -1.195089,-0.34198 -1.151639,-0.09958 -1.292758,-7.212152 -0.0703,-3.543415 -0.19091,-6.44257 -0.268007,-6.44257 -0.459561,0 -1.010337,0.385677 -1.108327,0.776102 -0.07227,0.287949 -0.234512,0.451057 -0.44867,0.451057 -0.194362,0 -0.387495,0.165906 -0.459167,0.394442 -0.144178,0.459733 -3.323077,3.63764 -3.638772,3.63764 -0.117429,0 -0.365714,0.282637 -0.55175,0.628086 -0.195111,0.362298 -0.622534,0.773115 -1.010053,0.970814 -0.40949,0.208905 -0.784823,0.579726 -0.961246,0.94969 -0.569525,1.194307 -0.748869,1.069057 -5.702877,-3.982766 l -4.514184,-4.603315 v 6.691968 c 0,7.007708 -0.04548,7.461929 -0.766426,7.655405 -0.205194,0.05507 -1.737927,0.1012 -3.406084,0.102508 l -3.033009,0.0025 -0.297844,-0.657406 c -0.267938,-0.59144 -0.303222,-1.743276 -0.351412,-11.471637 -0.03679,-7.429121 0.0063,-11.036791 0.137924,-11.525332 0.299372,-1.111784 0.709623,-1.23941 3.984009,-1.23941 1.524029,0 3.026216,0.0732 3.33819,0.162678 0.603586,0.173105 4.076122,3.57593 4.076122,3.994291 0,0.124151 0.12325,0.22573 0.273885,0.22573 0.367695,0 3.758201,3.500461 3.758201,3.880082 0,0.187278 0.188765,0.340914 0.503911,0.410132 0.277146,0.06087 0.685344,0.303804 0.907098,0.539851 0.482675,0.513786 0.692689,0.544375 0.692689,0.100893 0,-0.40904 1.40312,-1.724893 1.99868,-1.874367 0.294934,-0.07403 0.615929,-0.419686 0.966358,-1.040611 0.291446,-0.516415 0.976514,-1.307608 1.540945,-1.779658 0.558921,-0.467444 1.341295,-1.18517 1.738613,-1.594955 0.397316,-0.409781 0.850927,-0.745059 1.008024,-0.745059 0.157093,0 0.285627,-0.08643 0.285627,-0.192071 0,-0.43014 0.783257,-1.246052 1.587328,-1.653507 0.807654,-0.409268 1.017512,-0.433423 3.765263,-0.433423 1.670642,0 3.05435,0.07728 3.249028,0.181474 0.330242,0.176742 0.339091,0.498601 0.339091,12.336281 v 12.1548 l -0.657407,0.112616 c -1.257506,0.215416 -5.03481,0.274745 -5.682993,0.08925 z"
     id="path24" />
  <path
     style="fill:#ff00ff;stroke-width:0;stroke-linejoin:bevel;stroke-miterlimit:0"
     d="m 16.82378,46.682699 c 0.06799,-20.754281 0.1595,-37.7745032 0.203345,-37.8227135 0.124992,-0.1374348 3.76338,-0.1969486 8.551889,-0.1398827 4.757109,0.056696 14.164672,0.052693 29.276447,-0.012449 5.303067,-0.022861 10.036383,-0.026526 10.518483,-0.00819 1.262921,0.048138 4.03206,0.045486 35.850496,-0.034368 4.53171,-0.011374 8.59448,-0.016237 9.02837,-0.010842 0.43388,0.00543 1.28194,0.00604 1.88456,0.00123 2.56138,-0.020117 13.40354,-0.022134 15.82156,-0.00287 3.78403,0.030017 15.45323,0.022943 29.89001,-0.018121 6.894,-0.019605 13.04731,-0.011251 13.67403,0.018581 2.69599,0.1283099 17.99823,0.1352583 24.0172,0.010954 1.78376,-0.036856 3.69681,-0.00215 4.25123,0.07709 l 1.00801,0.1440954 V 46.651498 84.417769 h -1.89951 -1.89951 l -0.11641,-14.857356 c -0.064,-8.171549 -0.11647,-24.297994 -0.11654,-35.836545 l -1.1e-4,-20.979187 -1.18332,-0.145435 c -1.65351,-0.203221 -49.6276,-0.156696 -57.12158,0.0554 -4.10562,0.116196 -9.00201,0.115007 -14.72588,-0.0036 -10.50741,-0.217682 -91.307093,-0.255649 -98.272923,-0.04618 l -5.024014,0.15108 -0.121106,0.813116 c -0.06661,0.447223 -0.155832,16.571127 -0.198276,35.83091 l -0.07716,35.017784 h -1.671454 -1.671454 z"
     id="path25" />
  <path
     style="fill:#ff00ff;stroke-width:0;stroke-linejoin:bevel;stroke-miterlimit:0"
     d="m 92.900697,56.588574 c -0.944295,-0.0728 -1.13607,-0.232003 -1.140208,-0.946574 -0.0036,-0.62279 2.016753,-4.761592 2.387934,-4.891794 0.187258,-0.06567 0.395439,-0.512587 0.573305,-1.230696 0.225811,-0.911703 0.351258,-1.137818 0.655282,-1.181162 0.29543,-0.04212 0.400045,-0.213929 0.488203,-0.801808 0.117308,-0.782266 5.994437,-13.026437 6.881167,-14.335926 0.99984,-1.476543 0.9209,-1.456208 5.88363,-1.515508 2.94619,-0.03521 4.55605,0.01187 4.87118,0.142384 0.8095,0.335304 2.7946,4.142013 2.93796,5.633935 0.0634,0.659464 0.15151,0.842548 0.42599,0.884753 0.26596,0.04089 1.0767,1.555446 3.50064,6.539614 3.70493,7.618197 4.9716,10.338439 5.12367,11.00338 0.16318,0.713536 -0.33976,0.829915 -3.58652,0.829915 -4.02105,0 -3.95825,0.03385 -5.34056,-2.878292 -0.59871,-1.261316 -1.14444,-2.470798 -1.21275,-2.687742 -0.15841,-0.503221 -0.36301,-0.495659 -1.57261,0.05812 -0.70143,0.321121 -1.07671,0.620881 -1.29216,1.032124 -0.44083,0.841376 -3.29833,3.775662 -3.66975,3.768343 -0.53029,-0.0105 -1.01756,-0.385663 -1.92703,-1.483906 -1.10669,-1.336394 -4.08689,-4.148609 -4.31563,-4.072367 -0.0953,0.03178 -0.74093,1.140135 -1.43462,2.463004 -1.9314,3.683138 -2.1206,3.817731 -5.298472,3.769115 -1.136026,-0.01737 -2.458418,-0.06189 -2.938651,-0.09891 z M 110.16407,46.301086 c 1.39727,-1.410436 1.73836,-1.900824 1.74795,-2.513034 0.003,-0.218077 -0.62536,-1.657793 -1.39728,-3.19937 -1.31912,-2.634349 -1.43348,-2.802868 -1.90212,-2.802868 -0.46482,0 -0.56574,0.141878 -1.48906,2.093596 -0.54474,1.151476 -1.19697,2.650792 -1.4494,3.331814 -0.3942,1.06346 -0.42512,1.279408 -0.21916,1.530045 0.35435,0.431239 3.15449,2.861798 3.29695,2.861798 0.0673,0 0.70273,-0.585891 1.41212,-1.301981 z"
     id="path26" />
  <path
     style="fill:#ff00ff;stroke-width:0;stroke-linejoin:bevel;stroke-miterlimit:0"
     d="M 80.53809,56.604273 C 80.393461,56.545837 80.137074,56.37776 79.968339,56.230768 79.681766,55.981123 79.661548,55.175098 79.661548,43.99923 V 32.034949 l 0.552085,-0.192458 c 0.318409,-0.111 1.833584,-0.192458 3.579765,-0.192458 h 3.027677 l 0.277017,1.217936 c 0.223961,0.984694 0.273659,2.302424 0.259508,6.880842 -0.02688,8.702823 -0.222209,16.405166 -0.420765,16.593539 -0.198494,0.188311 -5.993803,0.425533 -6.398745,0.261923 z"
     id="path27" />
  <path
     style="fill:#ff00ff;stroke-width:0;stroke-linejoin:bevel;stroke-miterlimit:0"
     d="m 157.60121,56.647629 c -0.20624,-0.05986 -0.56883,-0.30931 -0.80575,-0.554326 l -0.43076,-0.445488 0.0277,-6.593009 0.0277,-6.593012 -0.45162,0.557825 c -0.24837,0.306806 -0.95606,1.03198 -1.57263,1.6115 -0.61657,0.579521 -1.8219,1.735925 -2.67853,2.569789 -1.09858,1.069414 -1.67134,1.538882 -1.94392,1.593402 -0.29552,0.0591 -0.43726,0.189978 -0.60242,0.556247 -0.11879,0.26343 -0.58991,0.88372 -1.04692,1.378423 l -0.83095,0.899458 -0.52243,-0.235577 c -0.35863,-0.161721 -0.90631,-0.665936 -1.7469,-1.608248 -0.67346,-0.754967 -2.56701,-2.711015 -4.20787,-4.346775 l -2.9834,-2.974107 -0.002,0.742801 c -0.001,0.408538 -0.0572,3.415246 -0.1242,6.681566 l -0.12186,5.938767 -0.31597,0.41426 -0.31597,0.414261 h -3.01224 c -1.76748,0 -3.16523,-0.05332 -3.38242,-0.129038 l -0.37017,-0.129037 -0.0919,-6.905778 c -0.0506,-3.798177 -0.15914,-8.997628 -0.24125,-11.554334 -0.0889,-2.766486 -0.10493,-4.821319 -0.0398,-5.075268 0.15564,-0.606617 0.71821,-1.080618 1.48396,-1.250333 0.40719,-0.09025 1.51689,-0.127518 3.00134,-0.1008 3.29788,0.05935 2.97182,-0.123321 7.08129,3.967258 2.51298,2.501424 3.26393,3.320326 3.32028,3.620718 0.0569,0.30294 0.19808,0.454632 0.64318,0.690763 0.41966,0.222622 0.66862,0.476648 0.94215,0.961303 l 0.37176,0.658724 0.37763,-0.317764 c 1.26648,-1.065671 1.87493,-1.651484 2.75414,-2.651673 0.7732,-0.879587 1.05754,-1.122733 1.31297,-1.122733 0.27107,0 0.35023,-0.08076 0.46958,-0.479151 0.1095,-0.365564 0.3671,-0.664062 1.08661,-1.259205 0.51867,-0.429032 1.22105,-1.133831 1.56086,-1.566218 0.45344,-0.576985 0.69726,-0.786156 0.91639,-0.786156 0.22989,0 0.2986,-0.06634 0.2986,-0.288294 0,-0.36126 0.39475,-0.738039 1.11566,-1.064865 0.51338,-0.232746 0.80572,-0.253115 3.66935,-0.255619 1.85057,-0.0015 3.26204,0.04975 3.48295,0.126758 l 0.37144,0.129483 0.0809,1.687559 c 0.10415,2.17113 0.10616,21.57326 0.002,22.092511 -0.099,0.494868 -0.69018,0.819654 -1.79776,0.987625 -0.98079,0.148741 -4.2524,0.152736 -4.75861,0.0058 z"
     id="path28" />
  <path
     style="fill:#ff00ff;stroke-width:0;stroke-linejoin:bevel;stroke-miterlimit:0"
     d="m 170.7206,56.697839 c -0.17199,-0.03658 -0.37654,-0.270869 -0.55783,-0.638927 l -0.28626,-0.581158 -0.037,-11.15654 c -0.0249,-7.51641 0.005,-11.302728 0.0929,-11.604605 0.0714,-0.24644 0.24552,-0.595082 0.38685,-0.774759 l 0.25698,-0.326689 h 3.13281 c 3.5188,0 3.36519,-0.0396 3.71731,0.958375 0.15201,0.430867 0.18699,2.29012 0.22019,11.708209 l 0.0394,11.196009 -0.27586,0.443569 c -0.4615,0.742051 -0.65681,0.784961 -3.6909,0.810939 -1.49994,0.01284 -2.84936,-0.0025 -2.99871,-0.03443 z"
     id="path29" />
</svg>
