<?xml version="1.0" encoding="UTF-8" standalone="no"?>
<svg
   version="1.0"
   width="68.333336mm"
   height="40mm"
   viewBox="0 0 193.70079 113.38583"
   preserveAspectRatio="xMidYMid"
   id="svg36"
   sodipodi:docname="quiereme-lola-logo-simple.svg"
   inkscape:version="1.3.2 (1:1.3.2+202311252150+091e20ef0f)"
   xmlns:inkscape="http://www.inkscape.org/namespaces/inkscape"
   xmlns:sodipodi="http://sodipodi.sourceforge.net/DTD/sodipodi-0.dtd"
   xmlns="http://www.w3.org/2000/svg"
   xmlns:svg="http://www.w3.org/2000/svg"
   xmlns:inkstitch="http://inkstitch.org/namespace">
  <sodipodi:namedview
     id="namedview36"
     pagecolor="#ffffff"
     bordercolor="#666666"
     borderopacity="1.0"
     inkscape:showpageshadow="2"
     inkscape:pageopacity="0.0"
     inkscape:pagecheckerboard="0"
     inkscape:deskcolor="#d1d1d1"
     inkscape:document-units="pt"
     inkscape:zoom="2.8284271"
     inkscape:cx="116.31907"
     inkscape:cy="128.69343"
     inkscape:window-width="1848"
     inkscape:window-height="1016"
     inkscape:window-x="72"
     inkscape:window-y="27"
     inkscape:window-maximized="1"
     inkscape:current-layer="svg36" />
  <metadata
     id="metadata36">
    <inkstitch:min_stitch_len_mm>0</inkstitch:min_stitch_len_mm>
    <inkstitch:collapse_len_mm>3</inkstitch:collapse_len_mm>
    <inkstitch:inkstitch_svg_version>1</inkstitch:inkstitch_svg_version>
  </metadata>
  <defs
     id="defs36" />
  <g
     transform="matrix(0.0254491 0 0 -0.0254491 -8.80659 116.024)"
     fill="#000000"
     stroke="none"
     id="g36">
    <path
       d="m 980,4036 c -143,-39 -240,-141 -240,-253 0,-24 -4,-43 -10,-43 -6,0 -10,-35 -10,-84 0,-47 5,-88 10,-91 6,-3 10,-29 10,-56 0,-28 6,-62 14,-77 14,-27 55,-69 62,-64 12,7 24,0 24,-16 0,-21 81,-65 104,-56 8,3 17,1 21,-5 3,-6 24,-11 45,-11 41,0 70,-20 70,-48 0,-27 26,-92 43,-109 21,-21 132,-21 174,1 48,24 75,69 77,127 1,43 -3,54 -23,70 -37,30 -62,21 -91,-35 -14,-27 -35,-55 -47,-64 -23,-14 -23,-14 -23,27 0,48 17,85 53,119 13,13 38,53 55,90 26,55 32,83 35,157 7,167 -23,287 -91,359 -62,66 -162,90 -262,62 z m 147,-31 c 68,-17 122,-69 146,-138 33,-95 37,-116 37,-180 0,-103 -41,-247 -81,-283 -60,-55 -89,-166 -52,-206 16,-18 43,-25 43,-10 0,4 10,12 21,17 12,6 30,30 39,55 10,25 23,45 29,44 6,-1 16,-2 21,-2 31,-5 -10,-130 -49,-152 -29,-15 -88,-12 -122,5 -35,19 -49,50 -49,109 0,51 -17,70 -51,58 -13,-4 -31,-7 -39,-6 -8,1 -27,2 -42,3 -15,0 -33,7 -40,15 -8,7 -23,16 -33,20 -33,10 -107,89 -126,134 -25,58 -27,274 -3,342 27,79 121,156 221,179 55,13 66,13 130,-4 z"
       id="path1" />
    <path
       d="m 955,3941 c -92,-43 -135,-126 -135,-263 0,-89 13,-151 46,-225 27,-58 40,-71 57,-54 9,9 8,16 -1,31 -6,11 -12,39 -12,63 0,56 23,78 89,85 101,9 141,-20 141,-105 0,-29 4,-53 8,-53 15,0 40,34 66,90 22,48 26,68 25,155 0,121 -16,187 -56,234 -50,60 -151,78 -228,42 z m 181,-38 c 45,-34 51,-46 69,-140 19,-99 18,-157 -3,-212 -19,-50 -36,-58 -40,-20 -2,15 -14,37 -28,50 -36,34 -149,34 -213,1 -55,-29 -67,-20 -75,61 -11,100 37,210 114,263 50,35 129,34 176,-3 z"
       id="path2" />
    <path
       d="m 966,3511 c -39,-74 4,-141 88,-141 36,0 45,4 54,25 15,33 15,59 0,88 -6,12 -14,29 -18,37 -5,10 -25,16 -58,18 -48,3 -52,1 -66,-27 z m 99,-26 c 28,-29 29,-33 15,-69 -12,-32 -51,-35 -80,-6 -24,24 -26,57 -3,82 22,24 37,23 68,-7 z"
       id="path3" />
    <path
       d="m 2237,4009 c -26,-15 -38,-54 -27,-84 9,-22 15,-25 62,-25 88,1 110,34 59,89 -30,32 -62,39 -94,20 z m 81,-60 c 4,-31 -17,-43 -53,-29 -24,9 -33,38 -18,54 4,4 21,6 38,4 24,-2 31,-8 33,-29 z"
       id="path4" />
    <path
       d="m 3320,3854 c -20,-9 -74,-18 -125,-20 -62,-3 -95,-9 -105,-19 -19,-20 -5,-44 40,-67 60,-31 63,-38 67,-155 2,-59 0,-128 -4,-153 -8,-43 -10,-45 -44,-48 -37,-3 -59,-30 -59,-70 1,-40 14,-45 76,-30 35,9 97,15 152,13 91,-1 93,-1 99,23 8,33 -6,53 -46,67 -54,18 -58,32 -57,173 1,147 12,176 68,185 45,7 98,-16 98,-42 0,-15 -6,-21 -23,-21 -16,0 -28,-9 -35,-25 -18,-39 -14,-62 13,-84 25,-18 28,-19 72,-4 38,13 48,22 65,60 10,24 20,62 20,83 1,108 -157,185 -272,134 z m 135,-25 c 55,-15 115,-79 115,-123 0,-35 -12,-54 -50,-80 -34,-22 -67,-21 -75,4 -8,25 2,41 23,39 39,-3 43,1 40,38 -2,25 -11,42 -29,55 -34,26 -103,35 -135,17 -47,-25 -54,-55 -54,-226 0,-87 4,-163 8,-170 4,-6 23,-13 42,-15 67,-6 30,-23 -67,-31 -164,-13 -157,-14 -161,6 -3,15 2,18 25,16 58,-5 70,6 83,79 12,67 9,227 -5,290 -6,26 -15,36 -46,49 -57,22 -48,34 24,31 43,-2 61,-7 60,-15 -4,-18 13,-16 32,3 19,19 80,43 110,44 11,0 38,-5 60,-11 z"
       id="path5" />
    <path
       d="m 4835,3861 c -42,-11 -95,-40 -95,-51 0,-17 -17,-11 -63,20 -54,36 -112,40 -186,11 -33,-12 -53,-15 -59,-9 -6,6 -42,9 -81,6 -61,-3 -75,-8 -98,-30 -32,-32 -25,-53 20,-62 63,-12 72,-32 75,-178 5,-172 3,-178 -50,-176 -52,2 -71,-20 -62,-72 10,-54 22,-63 77,-50 40,8 131,18 226,24 33,1 37,21 15,62 -20,37 -40,48 -97,52 -16,2 -17,10 -11,95 4,50 7,108 8,127 3,70 36,108 104,117 32,4 42,0 75,-32 l 37,-36 v -118 c 0,-65 -3,-121 -7,-125 -4,-4 -8,-15 -8,-24 0,-12 -9,-17 -30,-17 -37,-1 -53,-36 -39,-87 l 10,-33 h 112 c 98,0 112,2 112,17 0,9 5,20 10,23 6,3 10,1 10,-4 0,-6 5,-11 10,-11 14,0 13,46 -2,73 -6,12 -22,30 -35,40 -19,15 -23,28 -23,71 0,28 -5,57 -12,64 -9,9 -9,12 0,12 7,0 12,10 11,23 -10,114 22,177 91,177 48,0 83,-28 98,-78 12,-40 17,-238 6,-266 -3,-8 -21,-18 -40,-22 -39,-7 -54,-28 -47,-65 4,-20 14,-28 51,-39 40,-12 49,-11 75,3 16,10 33,14 39,11 5,-3 29,-3 53,0 35,6 45,12 55,36 15,36 3,55 -40,63 -36,8 -46,37 -32,104 14,72 15,199 2,239 -24,70 -89,114 -179,120 -31,2 -69,0 -86,-5 z m 124,-31 c 42,-12 77,-44 98,-88 13,-28 15,-58 10,-179 l -6,-144 25,-24 c 14,-13 38,-25 52,-27 l 27,-3 -30,-16 c -33,-18 -157,-32 -193,-22 -30,8 -25,37 8,41 36,5 60,31 60,63 0,15 5,31 10,34 6,3 10,31 10,61 0,30 -4,54 -10,54 -5,0 -10,23 -10,50 0,63 -19,110 -56,139 -53,42 -158,14 -191,-50 -9,-17 -12,-71 -10,-184 l 2,-160 33,-3 c 36,-4 43,-25 13,-42 -11,-5 -58,-10 -105,-10 -86,0 -86,0 -86,26 0,23 3,25 24,20 18,-4 28,0 40,19 24,37 23,301 -1,343 -24,41 -63,62 -117,62 -36,0 -52,-6 -79,-30 -46,-40 -57,-89 -57,-248 0,-143 -1,-142 66,-142 27,0 34,-4 34,-19 0,-24 -18,-31 -88,-32 -31,0 -79,-4 -105,-8 -40,-7 -49,-5 -57,9 -11,21 12,61 24,42 4,-7 17,-12 28,-12 42,0 47,24 48,210 v 176 l -29,17 c -16,9 -39,17 -50,17 -51,0 -5,33 63,46 44,8 65,-7 58,-41 -6,-32 11,-33 26,-1 7,15 27,29 58,40 85,29 145,18 201,-36 31,-30 31,-30 42,-9 28,52 142,84 220,61 z"
       id="path6" />
    <path
       d="m 1485,3850 c -16,-4 -42,-11 -57,-14 -18,-4 -28,-13 -28,-24 0,-17 56,-62 77,-62 11,0 23,-100 23,-201 0,-72 31,-184 58,-210 27,-27 110,-69 140,-71 15,-1 57,6 94,16 54,15 73,16 99,7 26,-9 46,-8 98,5 36,9 67,17 68,18 1,0 4,13 8,27 5,22 1,28 -30,45 -20,10 -46,34 -57,53 -20,32 -21,42 -14,221 7,217 16,200 -99,200 -68,0 -75,-2 -94,-26 -12,-15 -21,-33 -21,-40 0,-21 30,-44 59,-44 15,0 32,-5 39,-12 15,-15 17,-244 2,-253 -5,-3 -10,-15 -10,-25 0,-62 -169,-76 -207,-18 -4,7 -8,103 -8,213 v 200 l -55,2 c -30,1 -68,-2 -85,-7 z m 103,-36 c 11,-3 13,-25 8,-102 -8,-155 -6,-275 6,-290 20,-24 91,-52 130,-52 21,0 56,9 78,20 60,31 70,61 70,220 0,147 -4,160 -51,160 -15,0 -33,7 -40,16 -22,26 14,44 88,44 h 63 l -1,-122 c 0,-68 -4,-158 -8,-201 -8,-91 -2,-104 59,-132 22,-10 39,-23 37,-29 -2,-6 -31,-12 -65,-14 -48,-2 -62,0 -62,11 0,36 -25,36 -94,1 -98,-49 -147,-43 -207,23 -58,64 -70,103 -74,227 -5,186 0,166 -45,184 -41,18 -49,39 -12,34 11,-2 23,2 27,8 6,10 54,7 93,-6 z"
       id="path7" />
    <path
       d="m 2173,3840 c -39,-17 -43,-23 -43,-55 0,-35 0,-35 45,-35 34,0 47,-5 55,-19 11,-22 14,-290 2,-307 -4,-7 -25,-20 -46,-30 -48,-23 -61,-43 -52,-78 l 7,-27 139,3 c 125,3 141,5 155,23 8,11 14,33 12,49 -2,25 -11,34 -50,55 l -49,25 7,138 c 4,76 4,169 0,208 l -7,70 -67,-1 c -42,0 -82,-7 -108,-19 z m 144,-202 c -2,-106 -1,-204 2,-218 5,-19 17,-27 46,-34 50,-12 49,-10 35,-35 -10,-20 -19,-21 -131,-21 -92,0 -120,3 -117,12 3,7 21,17 41,23 20,6 41,15 48,22 20,20 45,173 28,173 -5,0 -10,48 -11,108 l -3,107 -52,3 c -102,6 -46,49 66,51 l 53,1 z"
       id="path8" />
    <path
       d="m 2675,3838 c -93,-48 -139,-115 -157,-232 -15,-97 -1,-163 53,-246 30,-46 50,-66 82,-80 55,-25 142,-36 170,-22 12,6 34,13 50,16 31,7 98,70 121,113 8,16 16,53 18,83 l 3,55 -46,3 -47,3 -32,-58 c -41,-73 -78,-113 -103,-113 -11,0 -46,26 -79,57 -50,50 -58,63 -58,95 v 38 l 148,1 c 81,1 152,2 157,4 6,1 20,3 31,3 21,2 22,6 19,82 -3,67 -7,84 -30,114 -28,37 -84,79 -128,95 -46,18 -128,12 -172,-11 z m 173,-24 c 43,-17 97,-67 118,-106 8,-15 14,-50 14,-78 v -50 h -185 c -210,0 -200,5 -169,-85 31,-93 104,-165 167,-165 35,0 72,33 98,88 30,63 47,82 76,82 22,0 24,-3 18,-32 -39,-180 -239,-237 -365,-106 -50,53 -80,120 -80,180 0,107 37,193 102,239 67,48 142,60 206,33 z"
       id="path9" />
    <path
       d="m 2693,3757 c -32,-18 -73,-77 -73,-104 0,-26 -8,-24 150,-29 133,-3 150,1 150,38 0,22 -11,41 -39,69 -37,37 -41,39 -102,39 -35,-1 -74,-6 -86,-13 z m 171,-47 c 20,-23 34,-45 31,-51 -8,-12 -223,-10 -231,2 -21,34 50,87 117,88 42,1 50,-3 83,-39 z"
       id="path10" />
    <path
       d="m 3821,3832 c -100,-50 -149,-147 -152,-300 -1,-84 4,-103 49,-168 60,-90 97,-114 172,-114 129,0 208,51 267,170 28,59 30,66 16,83 -16,17 -88,24 -108,9 -6,-4 -23,-33 -38,-64 -33,-69 -51,-88 -84,-88 -33,0 -67,28 -114,95 -63,90 -58,95 99,95 59,0 134,4 167,8 65,8 72,16 74,93 2,65 -76,158 -164,195 -54,22 -122,17 -184,-14 z m 196,-27 c 72,-36 108,-90 108,-164 v -56 l -182,-3 -183,-2 v -31 c 0,-44 52,-140 99,-182 32,-29 49,-37 79,-37 51,0 64,12 107,98 33,65 39,72 66,72 35,0 37,-16 10,-76 -19,-41 -72,-97 -114,-121 -30,-17 -120,-16 -161,1 -49,21 -101,71 -125,121 -24,52 -29,181 -9,246 17,59 70,115 131,138 70,27 113,26 174,-4 z"
       id="path11" />
    <path
       d="m 3828,3741 c -37,-33 -75,-97 -64,-109 9,-8 303,-8 312,1 13,13 -20,79 -54,107 -32,26 -44,30 -99,30 -55,0 -66,-4 -95,-29 z m 156,-13 c 30,-14 49,-31 55,-50 l 10,-28 h -125 c -149,0 -153,4 -71,69 9,7 32,17 50,21 17,4 33,8 34,9 1,1 23,-9 47,-21 z"
       id="path12" />
    <path
       d="m 5414,3841 c -69,-27 -111,-67 -144,-135 -27,-57 -30,-74 -30,-157 0,-83 4,-100 29,-149 22,-44 42,-64 100,-104 65,-44 77,-49 123,-47 28,1 57,6 63,11 7,5 14,8 17,5 7,-8 47,15 93,52 57,46 77,88 73,154 l -3,54 -44,-4 c -51,-4 -56,-7 -97,-87 -54,-100 -93,-103 -168,-11 -36,44 -44,61 -38,75 5,9 8,22 6,27 -3,6 6,11 18,10 64,-1 276,17 298,26 36,14 52,55 39,101 -14,54 -82,133 -142,168 -60,35 -126,39 -193,11 z m 191,-46 c 60,-34 93,-88 97,-155 l 3,-55 -75,-6 c -41,-3 -125,-5 -187,-3 -78,1 -113,-1 -116,-9 -6,-17 30,-116 56,-154 31,-47 89,-83 132,-83 45,0 70,24 115,108 26,50 37,62 57,62 24,0 24,-2 18,-42 -16,-97 -102,-168 -201,-168 -99,0 -186,63 -228,164 -29,69 -12,202 34,266 72,100 198,133 295,75 z"
       id="path13" />
    <path
       d="m 5414,3751 c -31,-19 -66,-67 -78,-106 -6,-20 -2,-21 143,-23 171,-2 181,2 161,63 -18,56 -65,85 -136,85 -40,0 -69,-6 -90,-19 z m 161,-38 c 29,-15 40,-27 40,-44 v -24 l -120,4 c -66,2 -122,5 -123,6 -12,11 14,45 41,56 103,41 87,40 162,2 z"
       id="path14" />
    <path
       d="m 6567,3645 c -22,-7 -49,-23 -62,-35 -55,-51 -105,-194 -105,-299 0,-103 38,-230 83,-280 34,-37 108,-81 138,-81 40,0 100,28 137,63 73,69 140,252 128,352 -14,125 -53,194 -143,256 -35,24 -50,29 -76,24 -24,-5 -28,-4 -17,4 23,16 -36,13 -83,-4 z"
       id="path15" />
    <path
       d="m 7205,3394 c -79,-41 -133,-126 -155,-248 -13,-72 -9,-192 10,-258 13,-46 65,-116 108,-144 97,-66 251,-16 305,99 10,19 24,70 33,112 13,63 14,91 5,151 -20,132 -86,255 -155,288 -43,20 -112,20 -151,0 z"
       id="path16" />
    <path
       d="m 5915,3227 c -16,-8 -43,-29 -60,-46 -29,-31 -30,-36 -29,-120 1,-77 5,-95 30,-141 37,-68 126,-143 224,-188 67,-32 84,-35 160,-36 72,0 91,3 129,24 69,39 86,69 85,148 -2,131 -93,256 -239,328 -65,32 -83,36 -171,40 -72,3 -107,1 -129,-9 z"
       id="path17" />
    <path
       d="m 2470,2991 c -186,-51 -273,-132 -339,-313 -22,-61 -47,-271 -37,-314 3,-16 9,-75 12,-131 4,-89 9,-110 38,-170 57,-116 108,-172 211,-233 46,-26 90,-33 227,-34 78,0 100,3 116,17 10,9 28,17 39,17 11,0 26,7 33,15 7,8 46,40 86,71 53,40 81,69 98,103 14,26 31,53 40,60 9,7 13,18 10,23 -3,5 1,17 8,26 19,22 43,112 63,242 l 17,105 -31,93 c -44,133 -86,206 -164,285 -77,77 -185,137 -249,137 -20,0 -40,5 -43,10 -9,15 -61,11 -135,-9 z m 263,-79 c 123,-57 198,-146 249,-296 28,-80 32,-104 32,-196 -1,-156 -20,-233 -83,-339 -55,-93 -120,-154 -209,-198 -66,-33 -87,-38 -158,-42 -72,-3 -90,0 -139,23 -131,60 -208,146 -254,281 -21,62 -23,80 -19,268 3,197 4,204 33,276 89,222 336,323 548,223 z"
       id="path18" />
    <path
       d="m 2482,2861 c -101,-35 -183,-125 -223,-244 -21,-62 -24,-91 -24,-202 1,-143 16,-205 77,-309 42,-71 55,-84 120,-117 140,-71 339,-14 410,117 39,71 70,196 74,297 4,101 -17,172 -90,311 -48,92 -98,136 -155,136 -20,0 -49,7 -65,15 -36,19 -59,19 -124,-4 z m 159,-62 c 70,-16 139,-91 189,-207 34,-79 40,-103 40,-163 0,-70 -13,-149 -31,-181 -5,-10 -9,-26 -9,-36 0,-34 -51,-120 -87,-148 -48,-36 -124,-64 -177,-64 -57,0 -127,30 -155,66 -38,49 -70,98 -82,124 -53,118 -54,121 -54,240 0,115 1,117 40,198 24,49 45,80 53,77 6,-2 12,3 12,11 0,9 17,32 37,50 27,25 46,34 72,34 25,0 32,3 22,9 -17,11 63,4 130,-10 z"
       id="path19" />
    <path
       d="m 938,2948 c -24,-21 -54,-67 -46,-72 2,-1 25,-16 51,-35 26,-18 53,-34 60,-35 19,-3 70,-37 90,-60 16,-20 17,-45 12,-361 -4,-187 -8,-347 -11,-356 -5,-18 -70,-49 -103,-49 -36,0 -81,-52 -81,-93 0,-30 4,-37 33,-48 42,-16 872,-26 882,-10 3,6 15,11 26,11 16,0 19,5 14,20 -4,14 -2,20 8,20 9,0 14,12 15,35 1,20 5,52 10,73 7,30 9,170 3,265 -1,9 -9,25 -20,36 -22,22 -103,36 -129,22 -31,-16 -43,-84 -31,-170 9,-67 9,-77 -8,-99 -35,-47 -91,-62 -235,-62 -102,0 -117,2 -133,20 -10,11 -22,17 -26,14 -5,-3 -18,10 -29,28 -18,30 -20,50 -20,203 0,95 5,186 11,205 6,19 12,96 13,171 2,75 6,141 10,148 10,15 51,32 88,37 38,5 99,35 111,55 16,26 -9,75 -48,93 -40,19 -130,21 -238,4 -53,-8 -84,-8 -95,-2 -10,6 -48,11 -87,12 -60,2 -74,-1 -97,-20 z m 513,-45 c 10,-10 10,-16 1,-25 -19,-19 -85,-38 -109,-32 -13,4 -33,-1 -47,-10 -21,-13 -25,-25 -31,-103 -3,-48 -9,-95 -12,-103 -3,-8 -7,-67 -9,-130 -2,-63 -6,-183 -10,-265 -4,-83 -4,-172 0,-198 7,-42 11,-49 44,-63 20,-9 48,-16 62,-16 14,0 28,-5 32,-12 10,-15 255,-13 270,2 7,7 22,12 35,12 12,0 40,17 62,38 35,33 40,43 37,73 -19,170 -19,163 1,188 24,30 56,22 73,-19 9,-22 9,-41 1,-80 -6,-28 -11,-92 -11,-141 0,-101 -7,-122 -50,-144 -33,-17 -116,-20 -125,-5 -8,13 -387,12 -445,-1 -25,-6 -87,-13 -138,-16 -79,-4 -96,-2 -113,13 -10,9 -19,23 -19,29 0,15 46,37 112,55 72,19 77,34 86,289 9,264 8,443 -2,496 -10,50 -45,85 -116,115 -68,28 -83,39 -71,54 14,17 476,15 492,-1 z m 445,-870 c -10,-10 -19,5 -10,18 6,11 8,11 12,0 2,-7 1,-15 -2,-18 z"
       id="path20" />
    <path
       d="m 3208,2954 c -32,-17 -48,-43 -48,-77 0,-31 24,-50 80,-66 59,-17 107,-54 125,-98 18,-42 22,-387 5,-398 -6,-4 -10,-63 -10,-143 0,-75 -4,-143 -9,-150 -12,-20 -54,-39 -100,-47 -54,-9 -81,-43 -81,-101 0,-41 2,-45 37,-59 34,-14 53,-14 203,0 174,17 410,19 463,4 18,-5 69,-9 114,-9 80,0 82,1 122,38 l 40,37 v 85 c 0,47 5,115 12,151 8,50 8,81 -1,123 -13,63 -28,76 -87,76 -53,0 -83,-23 -83,-64 0,-17 -5,-37 -12,-44 -8,-8 -8,-15 0,-25 7,-8 11,-25 11,-38 -1,-13 1,-35 5,-49 11,-41 -23,-84 -80,-103 -63,-20 -128,-24 -236,-14 -126,12 -123,6 -122,236 0,102 3,215 7,251 3,36 7,116 7,178 0,132 7,144 94,162 31,6 69,22 85,36 27,22 28,27 18,56 -9,22 -24,37 -56,51 -39,17 -57,19 -135,12 -163,-13 -245,-15 -251,-5 -9,15 -86,11 -117,-6 z m 478,-44 c 14,0 27,-7 31,-15 9,-25 -27,-44 -83,-45 -41,0 -55,-5 -74,-25 -31,-33 -39,-121 -46,-516 l -6,-306 28,-20 c 59,-40 95,-48 224,-47 104,1 135,5 182,23 32,12 65,32 73,44 17,24 21,142 6,151 -11,7 -2,86 12,104 16,21 57,10 75,-20 13,-22 14,-33 5,-57 -6,-16 -11,-80 -12,-143 -2,-126 -8,-142 -66,-172 -33,-18 -39,-19 -68,-5 -43,19 -479,21 -499,2 -13,-14 -211,-19 -242,-7 -9,3 -16,17 -16,29 0,25 45,55 83,55 38,0 85,23 96,47 6,13 11,46 11,73 0,28 5,50 10,50 6,0 10,108 10,303 0,284 -1,306 -20,345 -20,42 -83,92 -115,92 -21,0 -75,28 -75,39 0,17 32,20 221,20 105,0 194,3 197,6 3,3 12,3 20,0 7,-3 25,-5 38,-5 z"
       id="path21" />
    <path
       d="m 4813,2917 c -17,-19 -39,-57 -48,-83 -10,-27 -22,-53 -27,-58 -4,-6 -8,-17 -8,-26 0,-9 -25,-67 -55,-128 -30,-62 -73,-161 -95,-220 -23,-59 -45,-116 -50,-127 -5,-11 -14,-38 -21,-60 -42,-143 -88,-215 -137,-215 -37,0 -102,-40 -103,-64 0,-12 -2,-32 -3,-44 -2,-13 5,-33 15,-45 19,-24 79,-28 157,-10 23,6 117,9 208,7 l 166,-3 24,29 24,28 -21,37 c -26,43 -56,58 -126,60 -28,0 -58,7 -67,14 -22,18 -20,54 4,76 11,10 20,24 20,30 0,7 14,15 30,19 18,3 30,12 30,21 0,8 6,15 14,15 8,0 21,8 28,18 11,16 27,18 120,17 114,-2 158,-17 158,-54 0,-10 7,-24 15,-31 17,-14 65,-108 65,-127 0,-10 -22,-13 -84,-13 -95,0 -123,-14 -128,-65 -3,-39 18,-69 59,-83 36,-12 125,-6 134,10 7,11 188,9 229,-2 24,-7 133,3 172,16 9,3 24,19 33,36 14,29 14,34 -3,62 -24,41 -78,76 -117,76 -45,0 -119,35 -139,65 -9,14 -16,45 -16,72 0,34 -7,59 -24,83 -12,19 -29,53 -37,75 -7,22 -20,51 -29,65 -19,30 -110,216 -110,225 0,3 -11,31 -25,61 -14,30 -25,72 -25,93 0,37 -46,137 -74,160 -7,6 -33,14 -58,17 -41,6 -46,4 -75,-29 z m 94,-27 c 14,-11 31,-20 38,-20 6,0 18,-19 25,-42 7,-24 19,-65 27,-93 9,-27 19,-54 24,-60 5,-5 9,-17 9,-27 0,-10 4,-26 9,-36 5,-9 13,-28 19,-42 12,-30 41,-94 111,-247 28,-62 51,-119 51,-127 0,-8 5,-18 10,-21 6,-3 10,-23 11,-43 1,-49 45,-120 89,-143 19,-11 53,-19 75,-19 71,0 86,-9 83,-43 -4,-42 -24,-45 -203,-35 -102,6 -157,6 -173,-1 -13,-6 -45,-11 -71,-11 -52,0 -78,18 -67,46 5,13 18,14 83,9 75,-7 79,-6 102,19 23,24 23,28 11,66 -7,22 -32,77 -54,122 -55,110 -69,117 -240,118 -148,0 -174,-10 -225,-83 -57,-84 -67,-114 -62,-190 2,-30 43,-41 179,-46 17,-1 22,-6 20,-18 -6,-33 -47,-43 -153,-37 -153,8 -165,8 -239,-5 -43,-7 -73,-8 -78,-3 -13,13 -6,43 12,52 27,14 65,29 87,35 33,9 66,54 97,131 16,38 32,77 37,86 5,10 9,25 9,34 0,8 11,40 25,70 14,30 25,59 25,64 0,5 11,33 24,62 13,29 41,93 62,143 21,49 48,105 61,124 13,18 23,44 23,56 0,40 30,109 62,142 18,18 34,33 36,33 2,0 15,-9 29,-20 z"
       id="path22" />
    <path
       d="m 4866,2808 c -14,-50 -50,-170 -61,-201 -8,-21 -12,-44 -9,-51 3,-7 -2,-19 -11,-26 -8,-7 -15,-21 -15,-32 0,-11 -13,-39 -30,-63 -32,-47 -36,-65 -20,-96 8,-14 21,-19 50,-19 21,0 42,5 45,10 4,6 50,10 112,9 58,0 109,3 115,9 10,10 -11,92 -24,92 -5,0 -8,11 -8,24 0,14 -4,27 -9,30 -4,3 -13,31 -20,63 -6,32 -23,90 -37,128 -14,39 -30,85 -36,103 -11,32 -35,43 -42,20 z m 74,-278 c 4,-19 17,-59 28,-88 15,-38 17,-54 9,-57 -7,-2 -58,-6 -114,-8 -93,-3 -103,-2 -103,14 0,10 8,24 18,31 36,27 73,115 76,178 1,42 7,67 21,82 l 19,23 19,-70 c 10,-39 22,-86 27,-105 z"
       id="path23" />
    <path
       d="m 6750,2710 c -8,-5 -33,-10 -56,-10 -52,0 -62,-11 -118,-130 -94,-199 -124,-349 -112,-555 9,-144 60,-298 118,-352 48,-45 178,-84 178,-53 0,6 13,10 28,10 61,0 214,111 337,244 63,69 95,96 112,96 12,0 23,5 23,10 0,6 9,10 20,10 11,0 28,4 38,9 9,5 35,17 57,27 92,39 200,137 235,211 26,55 26,132 0,182 -65,128 -307,254 -537,281 -54,6 -114,16 -134,21 -47,12 -170,11 -189,-1 z m 227,-220 c 109,-10 222,-38 254,-63 57,-44 76,-137 37,-181 -31,-34 -102,-58 -135,-45 -14,5 -50,9 -79,8 -52,-2 -54,-3 -60,-35 -3,-19 -4,-41 0,-49 3,-8 2,-15 -3,-15 -4,0 -13,-18 -20,-40 -6,-22 -26,-56 -42,-75 -27,-31 -37,-35 -78,-35 -53,0 -73,14 -112,77 -31,49 -31,134 0,253 12,47 24,114 26,150 2,36 4,67 4,69 1,2 22,1 49,-3 26,-3 97,-10 159,-16 z m -360,-668 c 37,-38 88,-72 106,-72 8,0 20,-7 27,-15 8,-9 21,-13 36,-9 19,5 24,2 24,-14 0,-44 -144,-31 -190,17 -21,22 -40,68 -40,96 0,32 4,31 37,-3 z"
       id="path24" />
    <path
       d="m 5915,2590 c -103,-15 -169,-67 -191,-151 -21,-81 -4,-131 68,-200 60,-59 180,-125 268,-150 93,-25 223,-7 289,42 54,40 66,149 26,234 -38,78 -200,205 -263,205 -11,0 -22,4 -24,9 -5,12 -116,20 -173,11 z"
       id="path25" />
    <path
       d="m 3729,1593 c -27,-66 -33,-80 -48,-111 -9,-19 -30,-50 -47,-70 -31,-36 -32,-36 -55,-19 -91,66 -132,90 -159,93 -17,2 -39,8 -50,14 -10,5 -47,10 -82,10 -37,0 -69,5 -76,12 -9,9 -12,9 -12,-1 0,-9 -8,-11 -22,-8 -26,7 -58,-8 -58,-28 0,-12 23,-15 128,-14 70,0 141,-3 157,-6 72,-18 189,-105 168,-126 -29,-28 -116,-59 -165,-59 -69,0 -88,18 -88,83 0,43 -2,47 -24,47 -24,0 -36,-21 -36,-67 0,-35 22,-73 42,-73 10,0 33,-7 50,-16 27,-14 40,-15 87,-4 31,6 77,23 103,36 26,13 54,24 63,24 8,0 31,-22 52,-50 34,-46 63,-64 63,-40 0,5 -20,34 -45,65 l -46,56 46,59 c 25,32 45,67 45,77 1,15 6,12 27,-12 14,-16 40,-46 57,-65 52,-57 52,-57 2,-110 -42,-45 -59,-80 -38,-80 10,0 42,33 42,43 0,13 48,57 63,57 8,0 41,-14 73,-31 56,-29 64,-31 147,-27 68,3 87,1 87,-9 0,-8 -7,-16 -15,-19 -22,-9 -56,-73 -71,-134 -16,-65 -18,-160 -4,-160 6,0 10,-12 10,-27 1,-62 109,-157 214,-188 30,-9 91,-15 150,-15 93,0 105,2 151,29 89,51 161,152 180,252 l 6,34 100,-3 c 109,-4 129,3 129,46 0,34 44,125 91,188 48,65 98,107 173,144 55,28 68,30 165,30 74,0 115,-5 135,-15 15,-8 34,-15 41,-15 23,0 83,-80 94,-127 12,-44 7,-103 -8,-103 -4,0 -12,20 -19,44 -12,45 -40,69 -109,93 -29,11 -32,10 -37,-13 -5,-20 -12,-24 -47,-24 -28,0 -51,8 -73,25 -18,14 -36,25 -39,25 -3,0 -7,-33 -9,-72 l -3,-73 -37,-3 c -25,-2 -50,-15 -81,-42 -50,-45 -64,-75 -39,-89 15,-8 14,-13 -6,-50 -31,-55 -39,-180 -13,-212 23,-29 60,-19 54,15 -5,26 25,92 53,117 35,30 114,69 141,69 15,0 40,4 57,9 17,5 56,17 87,25 30,9 76,29 101,46 45,30 46,32 53,97 4,37 9,77 11,90 7,35 -18,84 -66,131 -34,33 -39,42 -24,42 32,0 261,-84 406,-149 76,-33 144,-61 152,-61 8,0 18,-4 21,-10 3,-5 39,-10 80,-10 70,0 75,2 99,31 34,40 34,81 1,103 -24,16 -26,16 -34,-7 -18,-46 -59,-84 -99,-91 -31,-5 -55,1 -122,30 -46,20 -88,37 -94,38 -6,1 -27,11 -46,21 -83,45 -304,125 -347,125 -11,0 -24,5 -30,11 -16,16 -291,18 -323,3 -14,-7 -46,-22 -71,-33 -103,-44 -219,-187 -256,-312 -8,-28 -23,-54 -34,-60 -28,-15 -165,-7 -161,10 5,26 -40,187 -65,231 -33,59 -168,192 -190,188 -34,-6 -22,-28 47,-83 108,-86 158,-163 178,-277 9,-49 8,-62 -9,-97 -10,-22 -23,-43 -29,-46 -6,-4 -8,-9 -6,-13 2,-4 -17,-7 -42,-7 -43,1 -46,2 -54,34 -8,28 -11,31 -25,20 -12,-10 -14,-25 -9,-63 7,-58 18,-68 69,-60 52,8 48,-9 -13,-68 -79,-75 -100,-83 -215,-82 -146,0 -211,37 -203,116 2,28 7,34 31,36 36,4 34,15 -6,37 -31,16 -35,16 -65,1 -23,-12 -32,-24 -32,-41 0,-52 -40,-15 -65,60 -18,53 -16,95 9,180 26,84 103,145 183,145 48,0 118,-32 133,-59 10,-20 9,-21 -32,-20 -24,1 -53,-3 -65,-9 -12,-7 -40,-12 -62,-12 -21,0 -46,-3 -55,-6 -20,-8 -21,-46 -1,-84 15,-28 50,-42 110,-44 13,-1 22,-10 25,-26 3,-14 26,-64 53,-111 26,-47 47,-91 47,-98 0,-6 5,-11 10,-11 6,0 10,5 10,10 0,6 23,47 52,93 30,48 52,94 52,112 1,29 2,30 56,32 68,3 90,25 90,89 v 44 h -59 c -33,0 -63,5 -67,11 -4,7 -28,10 -64,7 -56,-4 -58,-3 -74,27 -10,17 -31,40 -48,50 -40,23 -160,33 -192,15 -18,-9 -29,-9 -42,-1 -17,9 -17,10 -2,11 39,0 44,130 5,130 -9,0 -17,-16 -21,-47 -9,-69 -26,-83 -103,-83 -55,0 -71,4 -109,30 -24,17 -44,37 -44,43 0,16 120,96 162,107 17,5 91,11 165,12 119,3 133,5 133,21 0,14 -9,17 -47,18 -27,1 -66,3 -87,4 -114,5 -254,-45 -327,-117 -17,-17 -34,-27 -37,-22 -4,6 -21,30 -38,54 -45,64 -74,125 -74,154 0,36 -18,42 -31,9 z"
       id="path26" />
    <path
       d="m 2518,1490 c -16,-22 -34,-32 -61,-37 -22,-3 -51,-17 -66,-29 l -26,-24 63,-60 c 62,-60 63,-60 122,-60 58,0 110,15 110,32 0,5 18,28 40,52 l 41,44 -30,21 c -16,12 -39,21 -51,21 -30,0 -60,18 -60,36 0,8 -12,19 -26,24 -33,13 -30,14 -56,-20 z"
       id="path27" />
    <path
       d="m 2984,1511 c -11,-11 -2,-50 15,-65 27,-24 66,-5 57,27 -3,12 -6,27 -6,34 0,11 -55,14 -66,4 z m 47,-38 c 13,-16 12,-17 -3,-4 -17,13 -22,21 -14,21 2,0 10,-8 17,-17 z"
       id="path28" />
    <path
       d="m 4430,1505 c -15,-19 -6,-61 16,-69 20,-8 54,20 54,44 0,36 -46,53 -70,25 z"
       id="path29" />
    <path
       d="m 4880,1480 c -26,-32 -36,-38 -58,-34 -19,3 -35,-3 -55,-21 l -28,-25 60,-67 c 61,-66 61,-66 118,-68 l 57,-2 63,62 c 35,34 63,69 63,78 0,21 -50,47 -89,47 -20,0 -34,7 -41,19 -13,24 -39,51 -50,51 -5,0 -22,-18 -40,-40 z"
       id="path30" />
    <path
       d="m 2862,1450 c -41,-34 -123,-143 -153,-202 -23,-46 -47,-146 -49,-201 0,-4 -39,-6 -86,-5 l -86,3 -46,105 c -39,90 -56,115 -113,173 -96,96 -172,130 -296,133 -94,2 -180,-6 -268,-25 -70,-15 -158,-43 -170,-53 -5,-4 -18,-8 -30,-8 -12,0 -25,-4 -30,-8 -6,-5 -26,-15 -45,-22 -19,-7 -82,-36 -140,-63 -168,-81 -201,-79 -268,9 -44,59 -59,57 -61,-6 -1,-48 1,-51 39,-75 39,-25 120,-36 120,-16 0,5 17,12 38,17 20,4 39,8 42,9 23,5 232,91 345,141 46,20 156,54 177,54 25,0 23,-8 -15,-45 -50,-48 -73,-155 -48,-217 5,-13 12,-35 15,-50 9,-41 76,-74 228,-114 160,-43 201,-66 234,-137 13,-29 24,-60 24,-69 0,-23 49,-17 63,7 19,34 14,127 -10,173 -15,31 -20,54 -16,78 6,35 -17,84 -38,84 -6,0 -22,9 -36,20 -16,12 -41,20 -64,20 h -38 l 6,85 c 3,47 4,85 1,85 -3,0 -22,-16 -42,-35 -32,-30 -44,-35 -87,-35 -46,0 -49,2 -49,25 0,29 -9,31 -53,9 -42,-22 -77,-54 -88,-81 -22,-57 -49,3 -29,63 14,41 75,114 96,114 7,0 17,8 22,17 9,14 29,17 143,17 128,1 137,0 193,-28 120,-59 215,-194 262,-373 2,-10 33,-13 109,-13 82,0 105,-3 105,-14 0,-28 72,-157 116,-205 67,-74 109,-91 230,-91 105,0 177,19 257,69 46,28 95,101 112,163 27,103 -17,259 -87,311 -43,32 -62,38 -131,42 -49,3 -64,0 -103,-23 -29,-18 -49,-38 -56,-59 -13,-36 -18,-37 -65,-24 -22,6 -43,5 -70,-4 -21,-8 -57,-14 -80,-15 -24,0 -43,-3 -44,-7 0,-5 -3,-21 -5,-37 -7,-42 37,-86 87,-86 43,0 61,-18 63,-61 1,-21 13,-43 37,-68 19,-21 40,-53 45,-72 11,-37 44,-54 44,-22 0,18 20,53 72,130 14,22 28,51 30,64 3,21 10,25 53,29 70,7 75,13 75,76 v 54 h -53 c -32,0 -61,6 -75,16 -15,10 -32,13 -51,9 -58,-12 -43,28 22,61 42,23 147,15 184,-12 16,-12 40,-45 55,-75 25,-48 28,-65 28,-154 0,-82 -4,-104 -19,-124 -18,-24 -41,-22 -41,4 0,16 -50,45 -77,45 -25,-1 -56,-26 -48,-39 3,-6 17,-11 31,-11 21,0 24,-4 24,-38 0,-71 -64,-108 -200,-114 -127,-6 -167,10 -250,106 -32,35 -32,37 -15,56 20,22 35,26 35,10 0,-5 -8,-10 -17,-10 -17,-1 -16,-2 1,-11 43,-26 94,33 81,93 -8,34 -22,36 -35,4 -7,-19 -18,-25 -50,-28 -40,-4 -42,-2 -71,46 -32,52 -34,82 -11,168 16,59 91,161 169,228 40,35 70,66 67,71 -9,15 -48,9 -72,-11 z"
       id="path31" />
    <path
       d="m 2537,1222 c -24,-26 -21,-51 6,-61 15,-6 27,-4 40,7 22,19 22,35 -1,55 -23,21 -25,21 -45,-1 z m 33,-32 c 0,-5 -5,-10 -11,-10 -5,0 -7,5 -4,10 3,6 8,10 11,10 2,0 4,-4 4,-10 z"
       id="path32" />
    <path
       d="m 4908,1222 c -21,-4 -27,-22 -17,-50 12,-32 37,-38 61,-15 34,35 6,76 -44,65 z"
       id="path33" />
    <path
       d="m 1482,1164 c -15,-10 -22,-25 -22,-49 0,-31 2,-33 39,-37 56,-5 61,-1 61,41 0,31 -5,40 -25,49 -32,15 -26,15 -53,-4 z m 48,-18 c 0,-2 -7,-7 -16,-10 -8,-3 -12,-2 -9,4 6,10 25,14 25,6 z"
       id="path34" />
    <path
       d="m 3695,1163 c -13,-12 -15,-26 -11,-56 6,-33 4,-38 -9,-34 -28,11 -64,-38 -105,-144 -12,-31 -34,-69 -50,-84 -24,-23 -34,-26 -64,-21 l -36,7 v -44 c 0,-49 3,-52 102,-77 38,-10 54,-10 79,0 34,14 45,8 72,-40 55,-102 67,-109 93,-57 9,17 30,51 46,74 l 29,42 30,-18 c 30,-18 32,-18 97,1 85,25 92,32 92,79 0,42 -2,44 -29,30 -10,-6 -27,-8 -39,-5 -29,8 -91,106 -102,162 -10,54 -57,102 -100,102 -22,1 -23,2 -7,11 19,11 22,41 7,70 -14,24 -72,26 -95,2 z"
       id="path35" />
    <path
       d="m 5937,1162 c -23,-25 -22,-79 1,-90 57,-28 102,21 71,76 -18,33 -49,39 -72,14 z"
       id="path36" />
  </g>
</svg>
