<?xml version="1.0" encoding="UTF-8" standalone="no"?>
<!-- Created with Inkscape (http://www.inkscape.org/) -->

<svg
   version="1.1"
   id="svg1"
   width="60mm"
   height="60mm"
   viewBox="0 0 226.77165 226.77165"
   sodipodi:docname="1sonic-cabeza.svg"
   inkscape:version="1.3.2 (1:1.3.2+202311252150+091e20ef0f)"
   xmlns:inkscape="http://www.inkscape.org/namespaces/inkscape"
   xmlns:sodipodi="http://sodipodi.sourceforge.net/DTD/sodipodi-0.dtd"
   xmlns:xlink="http://www.w3.org/1999/xlink"
   xmlns="http://www.w3.org/2000/svg"
   xmlns:svg="http://www.w3.org/2000/svg"
   xmlns:inkstitch="http://inkstitch.org/namespace">
  <sodipodi:namedview
     id="namedview1"
     pagecolor="#ff00e0"
     bordercolor="#666666"
     borderopacity="1.0"
     inkscape:showpageshadow="2"
     inkscape:pageopacity="0.0"
     inkscape:pagecheckerboard="0"
     inkscape:deskcolor="#d1d1d1"
     inkscape:zoom="2.1370338"
     inkscape:cx="90.312095"
     inkscape:cy="128.2151"
     inkscape:window-width="1848"
     inkscape:window-height="1016"
     inkscape:window-x="72"
     inkscape:window-y="27"
     inkscape:window-maximized="1"
     inkscape:current-layer="g1"
     inkscape:document-units="mm" />
  <metadata
     id="metadata5">
    <inkstitch:min_stitch_len_mm>0</inkstitch:min_stitch_len_mm>
    <inkstitch:collapse_len_mm>3</inkstitch:collapse_len_mm>
    <inkstitch:inkstitch_svg_version>1</inkstitch:inkstitch_svg_version>
  </metadata>
  <defs
     id="defs1">
    <symbol
       id="inkstitch_trim">
      <title
         id="inkstitch_title9282">Trim the thread after sewing this object.</title>
      <path
         id="inkstitch_circle13405"
         d="m 9.2465284,-8.6e-6 c 1.8e-6,2.452339 -0.9741847,4.804237 -2.7082493,6.538304 C 4.8042146,8.2723614 2.4523174,9.2465504 -2.1625959e-5,9.2465514 -2.4523623,9.2465534 -4.8042621,8.2723654 -6.5383288,6.5382984 -8.2723956,4.8042314 -9.2465834,2.4523324 -9.2465816,-8.6e-6 c 6e-7,-2.452339 0.9741895,-4.804237 2.708256,-6.538301 1.7340665,-1.734065 4.0859648,-2.708252 6.538303974041,-2.70825 C 5.1067066,-9.2465576 9.2465271,-5.1067366 9.2465284,-8.6e-6 c 0,0 0,0 0,0"
         style="opacity:1;vector-effect:none;fill:#fafafa;fill-opacity:1;fill-rule:evenodd;stroke:#003399;stroke-width:1.06500006;stroke-linecap:round;stroke-linejoin:miter;stroke-miterlimit:4;stroke-dasharray:3.19500017, 3.19500017;stroke-dashoffset:0;stroke-opacity:1"
         inkscape:connector-curvature="0" />
      <path
         style="color:#000000;font-style:normal;font-variant:normal;font-weight:normal;font-stretch:normal;font-size:medium;line-height:normal;font-family:sans-serif;font-variant-ligatures:normal;font-variant-position:normal;font-variant-caps:normal;font-variant-numeric:normal;font-variant-alternates:normal;font-feature-settings:normal;text-indent:0;text-align:start;text-decoration:none;text-decoration-line:none;text-decoration-style:solid;text-decoration-color:#000000;letter-spacing:normal;word-spacing:normal;text-transform:none;writing-mode:lr-tb;direction:ltr;text-orientation:mixed;dominant-baseline:auto;baseline-shift:baseline;text-anchor:start;white-space:normal;shape-padding:0;clip-rule:nonzero;display:inline;overflow:visible;visibility:visible;opacity:1;isolation:auto;mix-blend-mode:normal;color-interpolation:sRGB;color-interpolation-filters:linearRGB;solid-color:#000000;solid-opacity:1;vector-effect:none;fill:#050505;fill-opacity:1;fill-rule:evenodd;stroke:none;stroke-width:1.41421342;stroke-linecap:butt;stroke-linejoin:miter;stroke-miterlimit:4;stroke-dasharray:none;stroke-dashoffset:0;stroke-opacity:1;color-rendering:auto;image-rendering:auto;shape-rendering:auto;text-rendering:auto;enable-background:accumulate"
         d="m -3.0000256,-5.9834096 c -1.30575,0 -2.375,1.06924 -2.375,2.375 0,1.30575 1.06925,2.375 2.375,2.375 0.58687,0 1.11944,-0.22369 1.53516,-0.58007 0,0 0.61717997,1.62109 0.61717997,1.62109 0,0 -2.29881997,6.01758 -2.29881997,6.01758 0.98655,-0.12511 1.23728,-0.26171 1.67382,-0.97461 0,0 1.33007997,-3.18945 1.33007997,-3.18945 0,0 1.23633003,3.25 1.23633003,3.25 0.23227,0.77906 0.84315,0.79218 1.57813,1.07226 0,0 -2.05469003,-6.14258 -2.05469003,-6.14258 0,0 0.73047003,-1.75 0.73047003,-1.75 0.42849,0.41682 1.01136,0.67578 1.65234,0.67578 1.30575,0 2.375,-1.06925 2.375,-2.375 0,-1.30576 -1.06925,-2.375 -2.375,-2.375 -1.06233,0 -1.95701,0.71265 -2.25781003,1.67969 0,0 -0.0117,-0.0156 -0.0117,-0.0156 0,0 -0.80274,2.10156 -0.80274,2.10156 0,0 -0.59179,-1.76562 -0.59179,-1.76562 -0.18242,-1.12808 -1.15864997,-2 -2.33593997,-2 0,0 -2e-5,-3e-5 -2e-5,-3e-5 m 0,1 c 0.76531,0 1.375,0.60968 1.375,1.375 0,0.76531 -0.60969,1.375 -1.375,1.375 -0.76531,0 -1.375,-0.60969 -1.375,-1.375 0,-0.76532 0.60969,-1.375 1.375,-1.375 0,0 0,0 0,0 m 6,0 c 0.76531,0 1.375,0.60968 1.375,1.375 0,0.76531 -0.60969,1.375 -1.375,1.375 -0.76531,0 -1.375,-0.60969 -1.375,-1.375 0,-0.76532 0.60969,-1.375 1.375,-1.375 0,0 0,0 0,0"
         id="inkstitch_path13416"
         inkscape:connector-curvature="0" />
    </symbol>
  </defs>
  <g
     inkscape:groupmode="layer"
     inkscape:label="Image"
     id="g1">
    <path
       style="fill:#000000;stroke-width:0.278378"
       d="M 181.29127,202.61447 C 163.8746,188.62991 146.14875,183.1121 122.3946,184.28071 c -8.0416,0.39562 -8.14228,0.4142 -10.79003,1.99117 -5.02015,2.98996 -12.244267,5.50467 -19.672664,6.84805 -3.749765,0.67812 -4.619807,0.73058 -12.248636,0.73844 -8.843544,0.009 -10.902531,-0.1932 -16.916291,-1.66227 -15.207915,-3.71506 -31.061432,-14.97509 -39.752945,-28.23468 -3.05491,-4.66051 -5.335098,-9.92858 -5.843815,-13.50134 -0.173895,-1.22127 -0.428063,-1.63484 -2.073396,-3.37376 -4.111914,-4.34577 -4.900427,-8.70464 -2.016134,-11.14508 l 0.709042,-0.59993 -0.452105,-2.7406 c -0.671064,-4.06791 -0.98827,-7.23978 -1.176713,-11.76644 -0.12488,-2.99976 -0.386789,-5.03794 -1.004373,-7.81605 C 9.6714532,106.33782 9.2112109,102.52747 9.0534624,95.606936 8.9374452,90.517215 9.0057287,88.417641 9.3839162,85.446136 10.177998,79.206828 11.698302,73.923654 14.066537,69.173676 l 1.110344,-2.227025 -0.315235,-3.340537 C 14.175634,56.336468 13.922092,49.434974 14.069068,42.031812 14.2674,32.041825 15.019316,27.2305 16.506619,26.434519 c 3.207469,-1.716588 19.723498,4.34556 33.396932,12.258218 1.910144,1.105377 3.598259,2.012921 3.751367,2.01676 0.153109,0.0039 1.53108,-0.72211 3.06216,-1.61322 1.531079,-0.891114 5.038643,-2.711095 7.794586,-4.044405 26.382376,-12.763661 56.891646,-16.929617 88.385046,-12.068737 24.92625,3.847266 47.21855,13.287657 60.85863,25.77253 2.61944,2.397601 5.54972,5.476005 5.3625,5.633593 -0.0584,0.04924 -1.98539,0.620073 -4.282,1.268529 -14.42653,4.073366 -29.40898,11.183584 -39.24224,18.623181 -4.33661,3.28096 -5.83343,4.77513 -4.78363,4.77513 0.80829,0 9.96547,4.805331 13.12589,6.88795 11.56279,7.61952 20.40145,17.863942 26.8416,31.110652 3.22581,6.63515 6.19729,15.01293 8.04706,22.68782 1.32239,5.48675 1.31151,5.40702 0.70544,5.17009 -10.98596,-4.29489 -30.86532,-6.92874 -45.86593,-6.07687 -3.03178,0.17218 -5.58559,0.3863 -5.67513,0.47583 -0.0895,0.0895 0.28313,0.63025 0.82814,1.2016 2.42315,2.54021 6.24631,8.4615 8.57926,13.28745 3.70788,7.67019 6.12951,15.64443 7.52389,24.77564 1.02703,6.72563 1.04709,21.17309 0.036,25.95591 l -0.18524,0.87631 z m 1.03053,-12.03761 c -0.20397,-9.95682 -0.94707,-15.1279 -3.36543,-23.41919 -3.0267,-10.377 -8.76278,-20.62045 -15.58562,-27.83272 -1.0139,-1.07176 -1.84364,-2.03222 -1.84388,-2.13436 -5.6e-4,-0.25583 2.36126,-0.74796 5.84549,-1.218 10.66605,-1.43888 29.8541,-0.29136 42.53486,2.54376 1.72938,0.38665 3.63976,0.8778 4.24526,1.09143 0.60551,0.21363 1.10092,0.27482 1.10092,0.13597 0,-0.34049 -0.64706,-2.7184 -1.47746,-5.42961 -6.46605,-21.11121 -16.16379,-35.130614 -31.37947,-45.363221 -3.3741,-2.269099 -11.79777,-6.583152 -15.46497,-7.920138 -1.2,-0.437493 -2.22396,-0.921849 -2.27545,-1.076341 -0.12546,-0.376398 4.68637,-5.173241 6.76535,-6.744282 0.91175,-0.688986 1.82999,-1.416023 2.04054,-1.615637 0.87708,-0.831526 7.68846,-5.153716 11.30906,-7.176208 7.9032,-4.414798 20.43808,-9.687634 26.79389,-11.270936 0.80382,-0.20024 1.46148,-0.435122 1.46148,-0.521957 0,-0.312835 -3.47399,-3.26492 -6.60174,-5.609942 C 192.77946,36.785057 172.45571,29.238207 149.55617,25.89841 135.8661,23.901773 120.26481,23.902088 106.5943,25.899245 89.874305,28.341944 73.579594,33.785488 59.222481,41.724663 c -3.642982,2.01449 -13.176975,8.123182 -15.171607,9.720866 -0.38277,0.306594 -2.261822,1.79926 -4.17567,3.317037 -1.91385,1.517775 -4.819583,4.041256 -6.457184,5.607734 l -2.977456,2.848144 -0.919837,-0.494778 c -1.421025,-0.764364 -4.499214,-0.67434 -5.930642,0.173449 -5.315563,3.148239 -9.529539,12.1546 -11.012223,23.535977 -0.355522,2.729066 -0.371364,11.99297 -0.02547,14.893228 l 0.215804,1.80946 0.220334,-1.39189 c 1.767677,-11.166828 5.34639,-20.43568 9.43463,-24.435678 1.974915,-1.932283 3.288444,-2.538714 5.532358,-2.554181 1.676908,-0.01156 1.942135,0.06577 2.693985,0.78545 2.329769,2.230076 3.041689,6.955102 3.654626,24.25576 0.476493,13.449399 1.071265,19.670539 2.267486,23.717279 0.829567,2.80635 1.386059,3.2657 3.909172,3.22682 5.752173,-0.0886 11.715469,-5.88976 23.11873,-22.49005 1.998954,-2.90997 6.921022,-9.376699 9.005071,-11.831069 8.456074,-9.958659 15.850523,-14.580568 23.934965,-14.960587 6.943177,-0.32637 12.075247,1.844257 16.005327,6.769498 3.10251,3.888121 5.26045,9.278738 6.30368,15.746838 0.655,4.06109 0.65038,13.18596 -0.009,17.49828 -1.23281,8.06427 -3.60358,15.79277 -6.77854,22.0974 -1.29492,2.57134 -3.85255,6.68558 -4.8923,7.86979 -0.45947,0.52331 -0.78624,1.00064 -0.72616,1.06072 0.0601,0.0601 0.85971,-0.14929 1.77692,-0.4653 2.35454,-0.8112 6.6587,-0.98612 9.02798,-0.36691 5.45434,1.42551 9.57268,5.65348 11.06202,11.35651 0.58955,2.25753 0.58527,6.24069 -0.009,8.5178 -0.9151,3.50546 -4.14428,8.68399 -7.39473,11.85865 -0.77791,0.75978 -1.41448,1.44877 -1.41459,1.53108 -1.2e-4,0.0823 2.03552,0.0598 4.52364,-0.0501 17.56629,-0.77556 33.27322,2.71252 46.55894,10.33947 3.17819,1.82451 10.42744,6.71307 11.02815,7.43689 0.74915,0.90267 0.87502,-0.51022 0.71993,-8.08144 z M 139.03348,92.919327 c -0.6054,-0.605403 -0.35276,-1.586577 1.21186,-4.70633 5.33191,-10.631518 8.93351,-20.82415 10.95737,-31.009579 1.35279,-6.808184 1.83253,-13.148846 1.06765,-14.111038 -0.79371,-0.99844 -7.91821,-0.815431 -14.12769,0.362905 -7.60712,1.443554 -16.42686,4.13017 -25.81066,7.862285 -2.94243,1.17026 -5.585,2.127744 -5.87239,2.127744 -0.73907,0 -1.53041,-0.959288 -1.32507,-1.606289 0.32197,-1.014407 1.43058,-1.695381 5.44869,-3.34689 15.65126,-6.432931 29.70453,-9.867857 38.66328,-9.450148 6.14839,0.286674 6.57974,0.794419 6.56021,7.722252 -0.007,2.526282 -0.17001,5.532765 -0.36198,6.681075 -1.59407,9.535346 -4.54166,19.321449 -8.67825,28.812131 -1.80983,4.152327 -4.64324,9.859474 -5.21728,10.508773 -0.49294,0.557581 -2.01843,0.650422 -2.51574,0.153109 z m -16.27297,-6.457451 c -0.26891,-0.204106 -0.72969,-1.312469 -1.02395,-2.463024 -0.64939,-2.53906 -2.44382,-6.188454 -4.10449,-8.347418 -3.65872,-4.756558 -9.27194,-7.173703 -16.65917,-7.173703 -3.991907,0 -7.989816,0.938777 -11.128831,2.613238 -2.333122,1.244572 -3.5476,-0.456162 -1.535029,-2.149628 0.943869,-0.794215 4.279298,-2.227286 6.586434,-2.829869 6.169606,-1.611392 13.324746,-0.839179 18.889106,2.0386 2.36636,1.22383 6.21194,4.934626 7.74498,7.47351 2.09781,3.474211 3.79529,8.821072 3.25316,10.247003 -0.36467,0.959148 -1.21137,1.206721 -2.02221,0.591291 z m 9.47264,-3.856457 c -0.49872,-0.956925 -0.95535,-1.865134 -1.01476,-2.018241 -0.30667,-0.790444 -3.83516,-6.447835 -5.40181,-8.660998 -3.36585,-4.754845 -8.52761,-10.447334 -11.59309,-12.7851 -0.77727,-0.592759 -1.41323,-1.161694 -1.41323,-1.264302 0,-0.1026 2.47409,-1.193031 5.49797,-2.42317 15.83683,-6.442545 26.94991,-9.408761 28.23615,-7.536577 0.70296,1.023187 -0.36664,6.339782 -2.59631,12.905302 -3.17853,9.359609 -9.55644,23.522949 -10.59264,23.522949 -0.11855,0 -0.62358,-0.782939 -1.12228,-1.739863 z m 2.95185,-8.423107 c 3.15824,-7.413737 8.52523,-22.055686 8.52523,-23.258086 0,-1.057538 -8.76739,1.585865 -20.54778,6.195242 l -4.26266,1.667874 2.74139,2.826952 c 4.32534,4.460358 8.02797,9.490248 10.65555,14.475154 0.53588,1.016642 1.04454,1.849497 1.13036,1.850788 0.0859,0.0014 0.87688,-1.689775 1.75791,-3.757924 z M 85.111642,190.66758 c 13.114629,-0.99011 24.873748,-5.58936 32.405098,-12.67431 3.64515,-3.42909 6.34244,-7.43349 7.37615,-10.95063 0.54012,-1.83774 0.5732,-5.49599 0.0669,-7.39609 -1.53718,-5.76864 -6.46301,-9.35431 -12.34141,-8.98369 -2.85708,0.18013 -4.50459,0.7772 -11.81938,4.2834 -6.6063,3.16662 -11.726279,5.0112 -16.2441,5.8523 -3.879543,0.72226 -13.266537,0.72297 -17.259441,0.001 -5.849937,-1.05732 -9.687686,-2.46302 -15.750404,-5.76912 -4.476729,-2.44122 -6.410087,-3.21554 -8.86799,-3.55168 l -1.638826,-0.22413 0.04484,1.66773 c 0.04378,1.62808 0.02169,1.6815 -0.929484,2.24716 -0.858348,0.51047 -1.388523,0.57525 -4.45405,0.54423 -2.941381,-0.0297 -3.992039,-0.17059 -6.791184,-0.91032 -1.821302,-0.48131 -4.358023,-1.36556 -5.637156,-1.96498 -2.598996,-1.21793 -2.665259,-1.1739 -1.746229,1.16033 3.090509,7.84957 9.715564,16.30944 17.872184,22.8219 13.380472,10.68334 28.191669,15.16954 45.714496,13.84661 z M 83.934961,174.23 c -1.207284,-0.34885 -1.677841,-1.22387 -1.038226,-1.93064 0.408208,-0.45106 0.887899,-0.52344 3.453236,-0.52111 4.798729,0.004 9.27825,-1.18991 13.376521,-3.56628 1.779648,-1.03193 7.516208,-6.37847 7.516208,-7.0052 0,-0.18315 -0.55899,-0.30752 -1.3821,-0.30752 -1.10572,0 -1.44279,-0.11343 -1.68568,-0.56727 -0.38907,-0.72698 -0.11838,-1.57379 0.63134,-1.97504 0.92251,-0.4937 4.56262,-0.0851 6.05536,0.67979 1.39622,0.71539 3.34053,3.20062 3.34053,4.26987 0,0.37287 -0.2839,0.828 -0.67728,1.08575 -0.86359,0.56586 -1.54209,0.23677 -2.41122,-1.1695 l -0.63285,-1.02397 -0.43594,0.66822 c -1.10168,1.68867 -3.74857,4.46021 -5.61931,5.88394 -3.73656,2.84373 -7.659352,4.57605 -12.215266,5.39432 -2.371225,0.42589 -6.932859,0.47255 -8.275323,0.0846 z m -0.288764,-16.54404 c 5.249475,-0.90959 11.450403,-3.21279 14.055264,-5.22052 2.357429,-1.81702 5.829579,-5.54756 7.825679,-8.40806 3.53365,-5.06388 7.0322,-13.28343 8.76811,-20.59998 3.43012,-14.45726 1.96171,-28.274222 -3.88039,-36.51232 -5.57339,-7.85919 -16.594877,-8.337137 -26.277541,-1.139527 -2.642025,1.963949 -7.452388,6.876612 -10.699999,10.927553 -1.718436,2.143511 -5.476763,7.196234 -8.351832,11.228284 -2.87507,4.03204 -6.228312,8.58736 -7.451647,10.12292 -6.027476,7.56587 -10.708902,11.13249 -15.660561,11.93128 l -1.993076,0.32153 -0.334162,2.96283 c -0.563618,4.99731 -1.799895,8.5418 -3.469192,9.94642 l -0.802144,0.67497 1.693491,1.84814 c 0.931423,1.01648 1.693493,1.95531 1.693493,2.08626 0,0.13097 0.919489,0.23812 2.043307,0.23812 3.857404,0 5.823385,0.71374 14.659379,5.32197 5.058592,2.63822 9.862866,4.02975 16.229844,4.70091 2.977459,0.31385 8.88286,0.10105 11.951977,-0.43078 z m 8.349546,-11.26281 c -1.876632,-1.14419 -3.562309,-4.99654 -4.25286,-9.71925 -0.427243,-2.92193 -0.183532,-10.51733 0.425039,-13.2465 0.859988,-3.85667 2.379308,-7.67163 3.84451,-9.65342 1.738497,-2.35144 4.364799,-2.90155 6.192242,-1.29704 2.390346,2.09875 3.719696,6.41623 3.945536,12.81443 0.28313,8.02126 -1.07524,14.3744 -4.024117,18.82083 -1.787189,2.6948 -4.062838,3.54151 -6.13035,2.28095 z m 2.082099,-17.60697 c 1.896692,-2.07431 2.51556,-6.92703 1.197491,-9.38986 -1.410138,-2.63486 -4.194632,0.30363 -4.415556,4.65976 -0.126768,2.49963 0.0855,3.69689 0.821271,4.63226 0.700233,0.89021 1.6373,0.92846 2.396794,0.0979 z m -63.729436,18.28758 c 1.207412,-0.8457 0.620714,-2.3646 -1.750455,-4.53171 -1.796078,-1.64151 -5.419031,-3.52978 -7.660695,-3.99272 -1.25055,-0.25825 -1.69444,-0.24387 -2.366214,0.0767 -1.228688,0.58637 -1.235951,1.61855 -0.02303,3.2709 2.613597,3.56042 9.681344,6.66102 11.800386,5.17679 z m -0.246609,-8.84383 c -1.319515,-3.90854 -1.760471,-11.77333 -0.942773,-16.8151 0.406132,-2.50412 1.359669,-5.49758 2.167408,-6.80421 0.31953,-0.51688 0.35589,-1.18345 0.17961,-3.29266 -0.121565,-1.45453 -0.356737,-6.46533 -0.522602,-11.13513 -0.600507,-16.906528 -1.289609,-21.974638 -3.021397,-22.221308 -1.054084,-0.150138 -3.056961,1.25693 -4.418428,3.104049 -3.356933,4.554393 -5.777317,11.823875 -7.338321,22.040229 -1.180463,7.72583 -1.065704,20.74564 0.252469,28.64337 l 0.469557,2.8133 1.652545,0.20642 c 2.99258,0.37381 7.995048,2.41666 10.995349,4.49015 0.535878,0.37033 0.996373,0.65401 1.023326,0.6304 0.02695,-0.0237 -0.196583,-0.7704 -0.496743,-1.65951 z m 3.177761,-9.98843 c 0.795819,-1.06694 1.009234,-4.75744 0.348953,-6.03428 -0.641356,-1.24024 -1.512757,-1.09487 -2.199608,0.36697 -0.402537,0.85673 -0.49377,1.59059 -0.418656,3.36763 0.13414,3.17339 0.979006,4.02957 2.269311,2.29968 z M 22.465207,59.68731 c 2.025047,-1.000833 2.899468,-1.115466 6.586322,-0.863456 0.569795,0.03894 1.572973,-0.693117 4.593238,-3.351901 4.717159,-4.152585 8.924688,-7.453203 13.283518,-10.420331 l 3.294978,-2.242945 -1.624709,-0.985251 C 45.872428,40.170262 37.149445,35.742001 33.611697,34.215285 27.242314,31.466576 19.07041,29.041505 18.408336,29.703579 c -0.500348,0.500349 -0.831382,4.579607 -0.989142,12.189044 -0.147381,7.108774 0.199063,17.952299 0.644763,20.180803 l 0.166667,0.833332 1.113745,-1.113743 c 0.612556,-0.61256 2.016935,-1.560125 3.120838,-2.105705 z"
       id="path1"
       sodipodi:nodetypes="sssssssssscsssssscssssssssssssssssssssssscsssssssssssssssssssscsssscsssscsssssssssssssssssssssssssssssssssssssssssssssssssssssssssssssssssscsscscsssssscsscsssssssccsssssssssssscsssssssssssssscsscsssssssssssssssssssssssssssssssssscssssssssssssscssssscss" />
    <g
       id="command_group1"
       inkscape:label="Ink/Stich Instrucción: Trim thread after sewing this object">
      <path
         id="command_connector1"
         d="M 90.109758,-5.0830036 96.15082,24.260431"
         style="fill:none;stroke:#000000;stroke-width:1px;stroke-opacity:0.5"
         inkscape:connection-start="#command_use9088"
         inkscape:connection-end="#path1"
         inkscape:label="conector"
         inkscape:connector-type="polyline"
         inkscape:connector-curvature="0" />
      <use
         id="command_use9088"
         xlink:href="#inkstitch_trim"
         height="100%"
         width="100%"
         x="90.10717671257423"
         y="-5.118850505794854"
         inkscape:label="marcador de instrucción" />
    </g>
    <path
       id="path25"
       style="stroke:#000000;stroke-width:1px;fill:none"
       d="M183.5999566291421,199.62202061311177 180.26811216275772,197.05154849948846 176.85167602635468,194.63180681989564 173.39910138055112,192.40577592646042 169.90276023493806,190.37273727963955 166.3555219951536,188.53212385711618 162.7507121345473,186.88310056705822 159.081893265133,185.42455033029927 155.3434175275696,184.15536730760837 151.52955312364867,183.07357121463352 147.6344693797767,182.1768280800859 143.65252473013803,181.46259247072487 139.57774599861386,180.92745935487653 135.40323589655955,180.56788386679105 131.12223127999826,180.3802424306755 126.72729058824198,180.36060231656978 122.23137807094973,180.50446085333994 117.38012477081458,180.76866046679126 114.21442122778997,181.11459369924495 111.79866275875999,181.85031875233503 109.82531901931318,182.9370090910005 105.88932351286284,184.97044700486077 101.42320476491791,186.74244974238687 96.47533717704155,188.24468340632475 91.21535062341225,189.4075249573043 89.01592445867651,189.7709794502305 87.04811150609666,189.96384561489782 79.67078950500361,190.07860979755347 74.27940815728911,190.0304341520544 70.54496937525484,189.8175536431685 67.38988218490542,189.3574747516385 63.679961305528565,188.52739338432787 61.00732977352597,187.7944121199861 58.376880097976766,186.9186989380115 52.981021554468754,184.66215412105612 47.7153621961744,181.86523981179567 42.63734283678019,178.5737569708808 37.8478669238841,174.85672039414555 33.44589380525855,170.7863087283353 29.49419816035835,166.40190060537077 27.77203899778496,164.18349484078826 26.19257899269192,161.91225405295393 24.21173846156151,158.58965279027342 22.613210343862903,155.307928752032 21.4916266366877,152.3194252145446 20.86039043507914,149.64166717494626 20.61762391020052,148.47407579338721 19.905271777127496,146.92230934425723 17.979197355225082,144.64157532625381 16.732831785704803,143.17841141515694 15.933405854711893,141.97897361198184 15.437614207261944,140.94720349910438 15.207984033071753,140.14204316989318 15.170184543970365,139.6017373495843 15.22574429419123,139.2944477302062 15.326460392329011,139.08971075934707 15.711095655797877,138.66648940692676 17.86781155050477,136.8416461555379 17.075831901791815,132.0407184287901 16.330835555999627,126.50994612918218 15.930357075876856,120.55762091357238 15.59638544259785,116.35803810719824 14.868534101158346,112.30569662849085 13.945731086872016,107.78951114020094 13.361208331690278,103.9489576708855 13.012629969298487,100.06374157400361 12.832771382423573,95.52557056314552 12.813455421046527,89.88002437897747 13.138560697892757,85.90446452993154 13.824552100673372,81.69014330030821 14.769373505279006,77.80099688754237 15.975167307816221,74.21007404108353 17.488486502530293,70.78078114663236 19.041183292588784,67.66671796988501 18.62686894672906,63.27706207461388 18.19943785712975,57.960721663575455 17.930381040198057,52.73012785410941 17.814192403877456,47.47391461253315 17.84815971967525,42.1175527879234 18.096530757477325,35.757834401415096 18.547284114814616,31.337916011874626 18.802853055508336,30.019673426700535 20.43835687088442,30.23128303197015 23.802496514123803,31.098299518759987 27.983262310175178,32.50404343878154 32.709982987840476,34.369963542801116 37.760217300296404,36.61921122436178 42.926387752256915,39.175815250980264 48.08568591973449,42.00631082642562  M178.98264337085791,205.6069793868882 175.7730878372423,203.1308515005115 172.6171239736453,200.89559318010436 169.4490986194489,198.8530240735396 166.26003976506195,196.99866272036044 163.04047800484642,195.32807614288384 159.7802878654527,193.8366994329418 156.46890673486698,192.52024966970072 153.0955824724304,191.3750326923916 149.64904687635135,190.3974287853665 146.11833062022328,189.58457191991408 142.49247526986196,188.9342075292751 138.76085400138612,188.44414064512347 134.91316410344044,188.11271613320898 130.93976872000175,187.9385575693245 126.83130941175803,187.92019768343022 122.55782192905026,188.05693914666006 117.99667522918543,188.30533953320875 115.73937877221003,188.55200630075507 114.75473724124002,188.85188124766498 113.38388098068683,189.60679090899947 109.02567648713715,191.85835299513923 103.91939523508209,193.88435025761314 98.39206282295845,195.56251659367527 92.64844937658775,196.8322750426957 90.00187554132349,197.26962054976948 87.47628849390335,197.51715438510217 79.6958104949964,197.6381902024465 74.03039184271088,197.5875658479456 69.78303062474517,197.3454463568315 66.01731781509457,196.79632524836148 61.854038694471434,195.86480661567214 58.81227022647403,195.03058788001388 55.721119902023226,194.00150106198853 49.74297844553124,191.50144587894385 43.87943780382561,188.38696018820434 38.2564571632198,184.74224302911918 32.955533076115906,180.62827960585446 28.06130619474145,176.1026912716647 23.69340183964165,171.2564993946292 21.679361002215032,168.66210515921173 19.83542100730807,166.01054594704607 17.555661538438482,162.1865472097266 15.661389656137082,158.29767124796797 14.244973363312303,154.52357478545542 13.480009564920861,151.27853282505376 13.411366574014734,150.94839272593381 12.21440264477491,149.53102467374617 10.689768214295198,147.74118858484306 9.349594145288108,145.73042638801817 8.345185792738059,143.64019650089563 7.722415966928246,141.4565568301068 7.563615456029634,139.1866626504157 7.9756557058087685,136.9077522697938 9.014739607670984,134.79548924065293 9.737806408021502,133.9998853577049 9.59936809820818,133.1606815712099 8.80576444400037,127.26905387081781 8.391442924123147,121.11097908642762 8.09061455740215,117.32816189280177 7.444465898841654,113.73070337150914 6.501468913127982,109.11568885979906 5.853191668309722,104.85624232911451 5.466970030701516,100.55145842599636 5.27422861757642,95.68822943685447 5.253344578953475,89.58437562102253 5.629239302107251,84.98773547006846 6.410447899326634,80.1884566996918 7.500426494720991,75.70180311245765 8.919632692183784,71.47532595891644 10.644513497469726,67.5666188533676 11.312616707411216,66.226682030115 11.096331053270927,63.93513792538599 10.65596214287024,58.45787833642442 10.37561895980194,53.00787214589058 10.254607596122543,47.53348538746679 10.290040280324748,41.94604721207659 10.552469242522674,35.226365598584934 11.06171588518539,30.23288398812535 11.46152026945242,28.170664832505263 12.012905217964052,26.366886527338547 12.928665591489255,24.60452894334992 14.562589125975343,23.07857667374774 16.587636169439378,22.45472026441936 18.439218021878652,22.350561008824712 21.872043129115582,22.794716968029856 25.953103485876195,23.846500481240014 30.577337689824834,25.401356561218474 35.63681701215952,27.39863645719887 40.975582699703594,29.776388775638228 46.42221224774308,32.47178474901974 51.721514080265514,35.37908917357439  M172.49997346009974,189.696934532982 166.80037870101853,199.49887691152858  M132.82310668768366,178.56321561635016 132.3266000688315,189.8909221797958  M93.95737565298192,186.86594455601949 96.40493457864936,197.93720961993512  M81.06719707636184,188.16689438647742 81.24356266502265,199.50410524229332  M64.82797265251878,186.8477675660702 62.352220174959044,197.9127621200657  M55.73965599754456,183.7674535333462 51.36500476865024,194.22813618007757  M47.256084365870656,179.31551922343078 41.08885127360947,188.83017585390422  M36.811216362323734,171.3243022176865 29.113283458775598,179.64928172652404  M15.905421751731996,107.94063672249274 4.796378638830582,110.21057415021872  M14.830520399107133,88.40045744609306 3.529661036504934,87.47631867037809  M19.75917909503312,49.95123947188265 8.423365698888595,50.201817718911336  M34.99375670055365,37.45581545342153 39.60683772788602,27.098067713427092  "
       inkstitch:satin_column="true" />
    <path
       id="path26"
       style="stroke:#000000;stroke-width:1px;fill:none"
       d="M48.113880834382556,42.021623793128086 53.63685652385841,44.990924401059964 58.4682737782301,42.44568166226028 66.17135608193603,38.44876763599745 71.01320910947436,36.22634129390169 75.95886853192505,34.19407431551536 80.9909616795079,32.3583071348465 86.10519074707727,30.719979302365363 91.29752096375275,29.2796117958652 96.56338640319277,28.03791589631968 101.89875269038055,26.99577607753711 107.29923039754149,26.15372053680125 112.76034023769961,25.5126934888231 118.27785411332592,25.07334818322185 123.8474349841807,24.836550257821305 129.46454833839238,24.803166190548602 135.1248703251415,24.973877259284045 140.82392544267228,25.349560754807733 146.55718922751493,25.9310007035246 152.2974258265056,26.715854612226344 161.3125024508898,28.37949593846609 169.98610609182163,30.519349540010918 178.26705395097235,33.10778458032994 186.08125854367583,36.11167197846193 193.38810175600972,39.511561906511794 196.76922138772883,41.31891465700943 200.01751244467312,43.22336029828203 203.09378441545945,45.20351469548806 205.98897490640854,47.25406010446 208.69416703604907,49.369240665950336 211.19252054164272,51.536003413124895 212.1925591206731,52.515418774365 208.22479416654394,53.732927538309 202.66499829313224,55.70344777550298 197.1930147750996,57.89984044668029 191.87058110449803,60.292115174052654 186.75982741823518,62.85145527814489 181.92206605191208,65.5501091168184 177.41777247567018,68.36321382516681 173.33753509732358,71.24730228219963 170.45304887394673,73.50250765290994 168.4147651199638,75.2998846553404 166.53084216948312,77.72711852169361 167.16224748244278,82.01867018850906 169.62790460942276,82.6544459122665 171.19971191216615,83.28672002829688 174.73785122932222,85.06801500352763 178.79215389888896,87.27280431221475 181.8710047451932,89.11309218582822 185.85458627621136,91.93450788683444 189.60978224152083,95.00100613095083 193.1272765571941,98.30695392359556 196.41460399825024,101.86006003821949 199.47826409989165,105.66835974789873 202.32379645699504,109.74051806939629 204.9557356956143,114.0849171935028 207.3755443408265,118.70544809879591 209.6437899532225,123.7697313457759 211.75402099322014,129.27322241098665 213.6177017662021,134.97462827367937 214.82313875689033,139.42601692618172 210.69125839296726,138.3479166868802 204.80933946066463,137.15605606958835 198.6000227314282,136.196595070997 192.21005818656087,135.48650785091834 185.78866584481102,135.04545785915087 179.484341764431,134.89534019609036 173.45417735986717,135.06050198136407 162.49401064259757,135.9795947446191 164.89894228344778,141.71674285547198 165.9075195644692,142.92564338479443 167.832356497267,145.26142500900005 169.96645097499885,148.35459392739725 172.12273079259978,151.9101112250173 173.98901267482998,155.44221900706674 176.41745150882065,161.00114633245698 178.40712030409023,166.74110756424344 179.98756053050727,172.75986863959122 181.17318798419794,179.10051838146944 181.72650309118492,185.0234942746065 181.9216818671712,192.28556104851765 181.78929928632692,197.49441333722996  M51.69331916561744,35.36377620687192 53.6729434761416,36.42807559894004 54.965926221769905,35.746918337739714 62.85204391806391,31.65503236400258 67.99879089052573,29.29265870609828 73.22593146807495,27.14472568448464 78.5416383204921,25.205492865153502 83.94100925292273,23.47582069763463 89.41907903624725,21.956188204134804 94.97081359680723,20.647084103680328 100.59144730961944,19.549223922462886 106.2759696024585,18.66287946319875 112.01945976230039,17.9887065111769 117.81714588667408,17.527051816778155 123.6643650158193,17.278449742178694 129.55605166160763,17.243433809451403 135.48752967485848,17.422322740715956 141.45407455732774,17.815639245192273 147.45081077248506,18.423799296475394 153.49597417349443,19.25034538777365 162.9050975491102,20.986704061533914 172.02089390817838,23.23565045998909 180.75334604902764,25.96521541967006 189.0353414563242,29.148928021538097 196.76689824399025,32.746438093488194 200.46397861227118,34.72268534299057 203.9764875553269,36.78203970171796 207.32601558454056,38.93808530451193 210.50402509359145,41.18893989553999 213.50163296395095,43.53275933404967 216.3180794583573,45.97539658687509 220.21452493051126,49.791487915433834 221.74003931215765,51.475935712709685 225.01273809936313,56.58486575286486 215.92695451232382,59.27643896168304 210.59720583345606,60.911872461691004 205.33660170686775,62.77635222449702 200.15158522490054,64.85755955331966 195.11381889550222,67.12188482594722 190.2951725817648,69.53494472185513 185.7677339480879,72.0604908831816 181.60482752432983,74.66038617483318 177.84966490267644,77.31469771780039 177.1829050617407,77.83599692251346 178.2439487706778,78.37018499647236 182.53844610111105,80.70559568778525 186.0007952548068,82.77510781417179 190.43501372378864,85.91569211316556 194.5948177584792,89.31259386904918 198.4965234428059,92.97964607640444 202.14059600174977,96.91833996178052 205.52813590010834,101.12924025210125 208.66120354300497,105.6128819306037 211.54286430438572,110.36948280649719 214.1794556591735,115.40395190120408 216.62741004677753,120.8694686542241 218.87997900677988,126.74417758901335 220.8630982337979,132.81097172632062 222.49281800238262,138.82913455082044 223.71295970611362,144.19485483805235 223.30219197526412,149.48638581186947 218.5619395393957,148.57523891939852 213.93488434112055,147.00638218435873 208.98514160703274,145.71488331311977 203.4808605393354,144.59954393041167 197.6049772685718,143.69160492900298 191.53334181343914,143.01689214908166 185.439534155189,142.59834214084913 179.49785823556897,142.45685980390962 175.16289447481628,142.5755912854727 176.31454902500116,144.24480607260276 178.7018692074002,148.18128877498273 180.80358732517,152.15898099293327 183.46274849117935,158.24605366754304 185.64447969590978,164.54009243575658 187.3678394694927,171.10313136040878 188.66721201580205,178.05208161853056 189.27609690881505,184.56990572539348 189.48331813282877,192.28003895148237 189.29717417626537,199.60423801144498 189.0441311336955,202.75097506258408 188.67740222186947,205.203259931721 187.19708486638353,212.20381092261388 178.92492213595776,205.56154667706562  M84.38371771522547,33.255809889987994 80.92459446319715,22.457758161209753  M109.6877048474242,27.77609849105746 108.36585310676934,16.51483023273854  M127.03218256859373,26.70741955481943 126.96479540823566,15.369037228371248  M148.68467732082192,28.129235181659027 150.22069346386868,16.89517495312218  M157.30889282790977,29.562342528282674 159.3665699589051,18.412032235081302  M165.7744468941511,31.42672125625235 168.49034303190624,20.418208051508472  M174.10520270927955,33.78681681260184 177.48797894341365,22.96460448055663  M182.25330830595334,36.66473890025112 186.32176282588682,26.081207701765127  M190.15761178786298,40.092729226212185 194.94101168840646,29.81252785651256  M188.6580019376767,59.78742013263271 193.73505889678316,69.92580991819936  M193.54798991212957,101.54434560058972 201.87081461759058,93.84408302504973  M208.67220312477343,126.51422199474872 219.25920083727715,122.45479663571886  M197.45111197947026,134.1675257652751 196.19881619572791,145.43674091452638  M175.0627439775745,162.86296105317797 185.77595375958035,159.14939255686227  M177.58471918259508,171.04990171459903 188.55151667246392,168.1701781816361  M179.68040256777633,183.43806100403808 190.96983071583955,182.38342035442733  "
       inkstitch:satin_column="true" />
    <path
       style="fill:#124699;fill-opacity:1;stroke-width:0.561698;stroke-linejoin:bevel;stroke-miterlimit:0"
       d="m 176.49355,194.78172 c -9.05467,-6.22327 -18.04734,-10.06393 -29.17909,-12.46204 -4.03537,-0.86934 -7.70646,-1.18467 -16.27698,-1.39812 l -11.06644,-0.27562 2.47882,-2.71222 c 1.36335,-1.49171 3.28303,-4.2181 4.26597,-6.05864 1.54559,-2.89406 1.81655,-3.95331 2.00457,-7.83614 0.19472,-4.02087 0.0707,-4.81671 -1.18782,-7.62101 -3.08099,-6.86537 -9.95249,-10.48462 -17.21262,-9.06597 -1.43268,0.27996 -2.66991,0.44397 -2.74941,0.36446 -0.0795,-0.0795 0.68405,-1.37583 1.69677,-2.88074 4.10327,-6.09742 7.73918,-15.83621 9.39315,-25.15946 1.27944,-7.21218 0.89159,-19.942242 -0.76588,-25.137376 C 113.78041,81.643456 105.60899,75.732225 94.3139,77.480539 83.994458,79.077842 76.75819,85.633997 60.434803,108.17548 51.164464,120.97719 46.333149,125.59465 41.396712,126.37087 36.45878,127.14733 35.610142,123.74328 34.500118,98.707286 33.537194,76.989062 32.390814,73.586058 26.41511,74.707106 21.323285,75.662338 16.283365,84.612959 13.487867,97.665174 l -0.78119,3.647386 -0.03431,-7.29477 c -0.03964,-8.425481 1.037473,-14.638058 3.589707,-20.704811 3.591882,-8.538028 8.754239,-12.588111 13.088511,-10.268479 0.883617,0.472897 1.558553,0.05911 4.785505,-2.933871 16.446562,-15.254098 38.438966,-26.613012 61.854446,-31.947362 31.202034,-7.108232 68.090944,-3.025188 96.134664,10.640651 8.70673,4.242833 20.59352,12.506183 19.81114,13.772115 -0.13962,0.225918 -1.32321,0.680023 -2.63018,1.009124 -2.87455,0.723816 -10.79101,3.862841 -17.18096,6.812563 -10.01811,4.62455 -23.23719,13.587095 -26.69833,18.101485 l -1.28516,1.676235 2.268,0.907328 c 19.23944,7.696856 32.61027,19.988432 41.04272,37.729862 2.42972,5.11198 6.25805,15.46427 7.03329,19.01889 l 0.35076,1.60827 -5.2147,-1.17213 c -8.09204,-1.81891 -19.5927,-2.96237 -30.00191,-2.98298 -8.03569,-0.0159 -16.77049,0.72867 -18.1068,1.54347 -0.21502,0.1311 1.2206,2.1589 3.19025,4.50623 5.98447,7.13198 10.24639,14.71453 13.17555,23.44118 2.78083,8.2847 3.60279,13.29147 3.93092,23.944 0.16551,5.37337 0.20944,9.74134 0.0976,9.70657 -0.11182,-0.0348 -2.54806,-1.67474 -5.41386,-3.64441 z M 143.28528,90.240141 c 4.45836,-8.416348 9.24988,-21.803277 11.3771,-31.78628 1.61852,-7.595646 1.75225,-16.065767 0.28233,-17.881051 -2.7843,-3.438456 -17.96417,-1.665555 -34.72512,4.05564 -7.54319,2.574801 -15.37112,6.061686 -15.37112,6.846935 0,1.089761 0.66397,2.160635 1.33964,2.160635 0.3889,0 4.4085,-1.377415 8.93246,-3.060924 12.91561,-4.806325 21.95807,-7.144286 29.77872,-7.699412 2.54438,-0.180605 5.27704,-0.165005 6.07259,0.03466 l 1.44646,0.363039 -0.33048,5.05105 c -0.71648,10.950767 -5.24288,26.144209 -11.47453,38.515836 -1.04297,2.070553 -1.89628,4.356683 -1.89628,5.080288 0,1.100217 0.24406,1.315643 1.49057,1.315643 1.28322,0 1.71134,-0.416766 3.07766,-2.996066 z M 124.9128,85.929729 c 0.97721,-3.078907 -2.70014,-10.721345 -7.16628,-14.893317 -3.89164,-3.635301 -8.01059,-5.323884 -14.11213,-5.785346 -6.578969,-0.497564 -15.441214,2.016911 -16.265842,4.615091 -0.635354,2.001815 0.511944,2.196011 4.216928,0.713785 6.280863,-2.512741 14.483344,-2.30268 20.040264,0.513226 4.1865,2.121461 8.05003,7.207573 9.89378,13.024576 0.36334,1.146322 0.7609,2.260076 0.88347,2.475011 0.46018,0.806938 2.18815,0.350451 2.50981,-0.663026 z m 11.38934,-6.110691 c 5.19037,-10.356102 11.13546,-27.632586 10.66073,-30.980163 -0.15934,-1.123571 -0.38745,-1.191003 -3.81685,-1.128289 -4.45979,0.08155 -9.77619,1.618512 -21.4919,6.213259 -4.7804,1.874815 -8.77897,3.496076 -8.88571,3.602806 -0.10677,0.106728 1.76962,2.147317 4.16967,4.534637 6.11811,6.085682 10.10499,11.545689 15.11129,20.694844 0.48818,0.892177 1.13064,1.62214 1.42766,1.62214 0.29703,0 1.56833,-2.051655 2.82511,-4.559234 z"
       id="path2" />
    <g
       id="command_group2"
       inkscape:label="Ink/Stich Instrucción: Trim thread after sewing this object">
      <path
         id="command_connector2"
         d="M 88.031038,-0.72749156 94.716379,28.45981"
         style="fill:none;stroke:#000000;stroke-width:1px;stroke-opacity:0.5"
         inkscape:connection-start="#command_use2086"
         inkscape:connection-end="#path2"
         inkscape:label="conector"
         inkscape:connector-type="polyline"
         inkscape:connector-curvature="0" />
      <use
         id="command_use2086"
         xlink:href="#inkstitch_trim"
         height="100%"
         width="100%"
         x="88.02845856804022"
         y="-0.7633386059445569"
         inkscape:label="marcador de instrucción" />
    </g>
    <path
       style="fill:#124699;fill-opacity:1;stroke-width:0.561698;stroke-linejoin:bevel;stroke-miterlimit:0"
       d="m 18.147342,60.749521 c -0.412039,-1.535826 -0.395458,-25.66062 0.01971,-28.689652 0.330309,-2.409868 0.356462,-2.438057 1.953957,-2.105997 5.81572,1.208879 21.338672,7.786792 27.813794,11.786206 l 1.705041,1.053129 -4.570844,3.27877 c -2.513962,1.803325 -6.922122,5.260807 -9.79591,7.683292 -5.11395,4.310851 -5.295157,4.410875 -8.520775,4.703364 -2.394258,0.217105 -3.980662,0.724635 -5.799918,1.855549 -2.47864,1.540806 -2.507288,1.545252 -2.80506,0.435339 z"
       id="path3" />
    <g
       id="command_group3"
       inkscape:label="Ink/Stich Instrucción: Trim thread after sewing this object">
      <path
         id="command_connector3"
         d="M 17.670804,-0.10172232 29.284113,32.969512"
         style="fill:none;stroke:#000000;stroke-width:1px;stroke-opacity:0.5"
         inkscape:connection-start="#command_use408"
         inkscape:connection-end="#path3"
         inkscape:label="conector"
         inkscape:connector-type="polyline"
         inkscape:connector-curvature="0" />
      <use
         id="command_use408"
         xlink:href="#inkstitch_trim"
         height="100%"
         width="100%"
         x="17.66822451965854"
         y="-0.13756938544131453"
         inkscape:label="marcador de instrucción" />
    </g>
    <path
       style="fill:#f9d889;fill-opacity:1;stroke-width:0.561698;stroke-linejoin:bevel;stroke-miterlimit:0"
       d="m 70.567428,190.15278 c -5.276386,-0.74516 -11.494816,-2.51852 -16.412083,-4.6804 -10.101121,-4.44095 -21.323962,-13.68169 -27.368614,-22.53496 -2.670484,-3.9113 -5.629804,-9.63084 -5.203582,-10.05705 0.115741,-0.11575 1.956984,0.40176 4.091652,1.15 2.782876,0.97546 5.319902,1.43028 8.965168,1.6072 5.706028,0.27694 6.639777,-0.0889 6.639777,-2.60181 0,-1.5132 0.0554,-1.54764 1.953958,-1.21447 1.074676,0.18859 4.415943,1.59079 7.425034,3.11601 10.915834,5.53289 16.627518,6.85649 27.728172,6.4256 8.288544,-0.32175 10.721468,-0.99754 22.55365,-6.26469 7.01557,-3.12302 8.88737,-3.74499 11.81025,-3.92437 3.03375,-0.18619 3.80594,-0.0321 6.10077,1.21683 5.99068,3.26054 7.93076,10.6592 4.54636,17.338 -4.77713,9.4272 -16.18205,16.76373 -30.548619,19.65124 -4.745184,0.95373 -17.795893,1.40641 -22.281893,0.77287 z m 24.416684,-16.46325 c 4.604315,-1.35242 8.865918,-3.9027 12.385438,-7.41184 2.94285,-2.9342 3.37252,-3.19775 3.94243,-2.41834 0.87343,1.1945 2.61533,0.76827 2.8233,-0.69085 0.27634,-1.93886 -2.8381,-4.62902 -5.88875,-5.08649 -2.80882,-0.42121 -4.17964,0.1168 -4.17964,1.64039 0,0.66823 0.47278,1.06475 1.48546,1.24586 l 1.48548,0.26564 -3.31968,3.18491 c -4.980752,4.77855 -10.225735,6.97566 -16.652413,6.97566 -1.63583,0 -3.34513,0.14232 -3.798438,0.31627 -0.979916,0.37604 -1.100181,2.09081 -0.172881,2.46497 1.510659,0.60957 9.234455,0.29372 11.889694,-0.48618 z"
       id="path5" />
    <g
       id="command_group4"
       inkscape:label="Ink/Stich Instrucción: Trim thread after sewing this object">
      <path
         id="command_connector4"
         d="m 54.051317,123.8612 15.314347,37.32997"
         style="fill:none;stroke:#000000;stroke-width:1px;stroke-opacity:0.5"
         inkscape:connection-start="#command_use6210"
         inkscape:connection-end="#path5"
         inkscape:label="conector"
         inkscape:connector-type="polyline"
         inkscape:connector-curvature="0" />
      <use
         id="command_use6210"
         xlink:href="#inkstitch_trim"
         height="100%"
         width="100%"
         x="54.04873741269167"
         y="123.82535750844457"
         inkscape:label="marcador de instrucción" />
    </g>
    <path
       style="fill:#ffffff;stroke-width:0.356691;stroke-linejoin:bevel;stroke-miterlimit:0"
       d="m 26.592462,137.46894 c -2.862461,-1.46582 -5.114181,-2.2176 -8.927137,-2.98051 -0.629086,-0.12587 -0.755595,-0.56034 -1.270651,-4.36374 -0.765013,-5.6492 -1.027207,-16.28991 -0.544351,-22.0916 1.15575,-13.886773 5.582092,-26.271576 10.468922,-29.291802 3.204658,-1.980588 3.556198,0.02047 4.804565,27.348822 0.352717,7.72143 0.3429,8.0262 -0.299063,9.28455 -2.311325,4.53058 -2.893712,15.11597 -1.192791,21.68004 0.283484,1.094 0.469857,2.02101 0.414161,2.06002 -0.0557,0.039 -1.60984,-0.70159 -3.453655,-1.64578 z"
       id="path4" />
    <g
       id="command_group5"
       inkscape:label="Ink/Stich Instrucción: Trim thread after sewing this object">
      <path
         id="command_connector5"
         d="m 18.383314,49.680222 3.061009,35.405164"
         style="fill:none;stroke:#000000;stroke-width:1px;stroke-opacity:0.5"
         inkscape:connection-start="#command_use6140"
         inkscape:connection-end="#path4"
         inkscape:label="conector"
         inkscape:connector-type="polyline"
         inkscape:connector-curvature="0" />
      <use
         id="command_use6140"
         xlink:href="#inkstitch_trim"
         height="100%"
         width="100%"
         x="18.38073410545623"
         y="49.64437326358635"
         inkscape:label="marcador de instrucción" />
    </g>
    <path
       style="fill:#ffffff;stroke-width:0.356691;stroke-linejoin:bevel;stroke-miterlimit:0"
       d="m 69.485295,157.69633 c -5.697287,-0.89398 -8.809608,-1.96179 -16.047795,-5.50585 -7.091027,-3.472 -8.465892,-3.96032 -11.820007,-4.19818 l -2.555302,-0.18121 -1.704816,-1.96007 -1.704816,-1.96007 0.850834,-0.88849 c 1.611385,-1.6827 2.894896,-5.61605 3.377065,-10.34908 l 0.222204,-2.18118 1.967705,-0.36594 C 48.142612,128.97701 53.204363,124.51011 61.875,112.62903 73.779784,96.316318 76.940928,92.440512 82.163932,87.753242 c 9.543895,-8.564958 21.602658,-9.124787 27.644128,-1.283382 3.96794,5.150104 6.00076,12.595313 6.00076,21.97771 0,9.52943 -1.79428,17.86564 -5.81176,27.0014 -2.66613,6.06276 -5.4293,10.14783 -9.78183,14.46144 -3.662488,3.62974 -8.612237,5.98028 -15.588365,7.40263 -3.581643,0.73025 -11.631742,0.93403 -15.14157,0.38329 z m 25.90734,-10.90072 c 2.34006,-0.97774 4.617625,-4.82357 5.930375,-10.01386 0.64816,-2.56269 0.74348,-3.78881 0.74302,-9.55748 -4.3e-4,-5.37366 -0.11286,-7.01751 -0.59809,-8.74476 -0.81111,-2.88725 -1.955783,-5.0507 -3.247303,-6.13744 -0.932241,-0.78443 -1.29187,-0.88522 -2.682036,-0.75164 -1.255593,0.12064 -1.860241,0.39878 -2.774766,1.2764 -3.231715,3.10129 -5.405106,10.80278 -5.405678,19.15523 -5e-4,7.30502 2.119864,13.45541 5.083464,14.74525 1.313415,0.57163 1.643069,0.5748 2.951014,0.0283 z"
       id="path6" />
    <g
       id="command_group6"
       inkscape:label="Ink/Stich Instrucción: Trim thread after sewing this object">
      <path
         id="command_connector6"
         d="m 73.411203,57.491608 1.420712,37.965448"
         style="fill:none;stroke:#000000;stroke-width:1px;stroke-opacity:0.5"
         inkscape:connection-start="#command_use4671"
         inkscape:connection-end="#path6"
         inkscape:label="conector"
         inkscape:connector-type="polyline"
         inkscape:connector-curvature="0" />
      <use
         id="command_use4671"
         xlink:href="#inkstitch_trim"
         height="100%"
         width="100%"
         x="73.4086258928595"
         y="57.45576042766522"
         inkscape:label="marcador de instrucción" />
    </g>
    <path
       style="fill:#ffffff;stroke-width:0.0445864;stroke-linejoin:bevel;stroke-miterlimit:0"
       d="m 27.856158,147.38394 c -2.200115,-0.33983 -5.189797,-1.75791 -7.3225,-3.47325 -1.740897,-1.40021 -2.949927,-3.141 -2.86119,-4.11961 0.02644,-0.29155 0.193233,-0.61125 0.421343,-0.80757 0.197226,-0.16975 0.751477,-0.44626 1.014645,-0.50619 0.552097,-0.12574 1.670253,0.0266 2.77114,0.37748 2.023042,0.64485 4.589196,2.01702 6.224724,3.32849 0.544692,0.43677 1.549782,1.43387 1.923254,1.90796 0.625504,0.79404 0.941132,1.49748 0.900276,2.00647 -0.05086,0.63365 -0.559611,1.12481 -1.335281,1.28912 -0.361906,0.0767 -1.230726,0.0752 -1.736411,-0.003 z"
       id="path7" />
    <g
       id="command_group7"
       inkscape:label="Ink/Stich Instrucción: Trim thread after sewing this object">
      <path
         id="command_connector7"
         d="m 16.13519,108.67772 7.335571,30.78263"
         style="fill:none;stroke:#000000;stroke-width:1px;stroke-opacity:0.5"
         inkscape:connection-start="#command_use4338"
         inkscape:connection-end="#path7"
         inkscape:label="conector"
         inkscape:connector-type="polyline"
         inkscape:connector-curvature="0" />
      <use
         id="command_use4338"
         xlink:href="#inkstitch_trim"
         height="100%"
         width="100%"
         x="16.132611137248958"
         y="108.64186600300307"
         inkscape:label="marcador de instrucción" />
    </g>
    <path
       style="fill:#ffffff;stroke-width:0.0445864;stroke-linejoin:bevel;stroke-miterlimit:0"
       d="m 31.843203,129.03239 c -0.269923,-0.1814 -0.494617,-0.67081 -0.635868,-1.385 -0.115993,-0.58647 -0.149437,-1.01386 -0.172288,-2.20162 -0.03093,-1.60762 0.04046,-2.05761 0.46255,-2.9159 0.621896,-1.26456 1.378059,-1.45398 1.981321,-0.49632 0.33101,0.52546 0.467923,1.14013 0.506698,2.27482 0.04763,1.39368 -0.173463,2.86831 -0.546246,3.64336 -0.171299,0.35615 -0.640034,0.87744 -0.9476,1.05385 -0.257048,0.14743 -0.456793,0.15569 -0.648567,0.0268 z"
       id="path8" />
    <g
       id="command_group8"
       inkscape:label="Ink/Stich Instrucción: Trim thread after sewing this object">
      <path
         id="command_connector8"
         d="m 27.356729,91.959866 4.615605,29.837744"
         style="fill:none;stroke:#000000;stroke-width:1px;stroke-opacity:0.5"
         inkscape:connection-start="#command_use7943"
         inkscape:connection-end="#path8"
         inkscape:label="conector"
         inkscape:connector-type="polyline"
         inkscape:connector-curvature="0" />
      <use
         id="command_use7943"
         xlink:href="#inkstitch_trim"
         height="100%"
         width="100%"
         x="27.354148309281186"
         y="91.92401913698907"
         inkscape:label="marcador de instrucción" />
    </g>
    <path
       style="fill:#ffffff;stroke-width:0.126109;stroke-linejoin:bevel;stroke-miterlimit:0"
       d="m 133.2782,77.653472 c -0.0666,-0.08315 -0.63706,-1.072442 -1.26767,-2.198419 -3.03369,-5.41674 -5.843,-9.158026 -10.73495,-14.296252 -1.2178,-1.279106 -2.19411,-2.345722 -2.16958,-2.370256 0.0245,-0.02454 1.49189,-0.60721 3.26078,-1.294836 10.9411,-4.253159 18.17298,-6.609608 20.40637,-6.649256 l 0.82542,-0.01465 -0.0325,0.400805 c -0.0935,1.153392 -3.96832,11.893659 -7.07251,19.603558 -1.21093,3.007598 -2.8174,6.693622 -2.99439,6.870621 -0.0552,0.05518 -0.15408,0.03222 -0.22098,-0.05131 z"
       id="path9" />
    <g
       id="command_group9"
       inkscape:label="Ink/Stich Instrucción: Trim thread after sewing this object">
      <path
         id="command_connector9"
         d="m 125.43517,24.480046 4.484,30.163361"
         style="fill:none;stroke:#000000;stroke-width:1px;stroke-opacity:0.5"
         inkscape:connection-start="#command_use3333"
         inkscape:connection-end="#path9"
         inkscape:label="conector"
         inkscape:connector-type="polyline"
         inkscape:connector-curvature="0" />
      <use
         id="command_use3333"
         xlink:href="#inkstitch_trim"
         height="100%"
         width="100%"
         x="125.4325941787588"
         y="24.444198361586015"
         inkscape:label="marcador de instrucción" />
    </g>
    <path
       style="fill:#ffffff;stroke-width:0.0630547;stroke-linejoin:bevel;stroke-miterlimit:0"
       d="m 92.388571,129.24674 c -0.57048,-0.26734 -1.11462,-1.05145 -1.345098,-1.93827 -0.05017,-0.19303 -0.120957,-0.69983 -0.157315,-1.12622 -0.08193,-0.96085 0.01197,-2.74128 0.190479,-3.61166 0.464184,-2.26328 1.598884,-3.94243 2.772868,-4.10334 0.612194,-0.0839 1.23461,0.47789 1.611122,1.45422 0.315546,0.81824 0.412792,1.36885 0.449152,2.5431 0.03649,1.17853 -0.01999,1.81719 -0.254685,2.87981 -0.507621,2.29833 -1.68867,4.03942 -2.740092,4.03942 -0.128683,0 -0.365577,-0.0617 -0.526431,-0.13706 z"
       id="path10" />
    <g
       id="command_group10"
       inkscape:label="Ink/Stich Instrucción: Trim thread after sewing this object">
      <path
         id="command_connector10"
         d="m 91.101991,88.656514 1.954471,30.149116"
         style="fill:none;stroke:#000000;stroke-width:1px;stroke-opacity:0.5"
         inkscape:connection-start="#command_use7928"
         inkscape:connection-end="#path10"
         inkscape:label="conector"
         inkscape:connector-type="polyline"
         inkscape:connector-curvature="0" />
      <use
         id="command_use7928"
         xlink:href="#inkstitch_trim"
         height="100%"
         width="100%"
         x="91.09941055007965"
         y="88.62066316227917"
         inkscape:label="marcador de instrucción" />
    </g>
  </g>
</svg>
