<?xml version="1.0" encoding="UTF-8" standalone="no"?>
<!-- Created with Inkscape (http://www.inkscape.org/) -->

<svg
   version="1.1"
   id="svg1"
   width="59.266666mm"
   height="59.53125mm"
   viewBox="0 0 224 225"
   sodipodi:docname="1ying-yang-pata-perro.svg"
   inkscape:version="1.3.2 (1:1.3.2+202311252150+091e20ef0f)"
   xmlns:inkscape="http://www.inkscape.org/namespaces/inkscape"
   xmlns:sodipodi="http://sodipodi.sourceforge.net/DTD/sodipodi-0.dtd"
   xmlns="http://www.w3.org/2000/svg"
   xmlns:svg="http://www.w3.org/2000/svg"
   xmlns:inkstitch="http://inkstitch.org/namespace">
  <metadata
     id="metadata1">
    <inkstitch:min_stitch_len_mm>0</inkstitch:min_stitch_len_mm>
    <inkstitch:collapse_len_mm>3</inkstitch:collapse_len_mm>
    <inkstitch:inkstitch_svg_version>1</inkstitch:inkstitch_svg_version>
    <inkstitch:thread-palette />
  </metadata>
  <defs
     id="defs1" />
  <sodipodi:namedview
     id="namedview1"
     pagecolor="#ff00eb"
     bordercolor="#666666"
     borderopacity="1.0"
     inkscape:showpageshadow="2"
     inkscape:pageopacity="0.0"
     inkscape:pagecheckerboard="0"
     inkscape:deskcolor="#d1d1d1"
     inkscape:zoom="2.5644406"
     inkscape:cx="96.317302"
     inkscape:cy="126.34334"
     inkscape:window-width="1848"
     inkscape:window-height="1016"
     inkscape:window-x="72"
     inkscape:window-y="27"
     inkscape:window-maximized="1"
     inkscape:current-layer="g7"
     inkscape:document-units="mm" />
  <g
     inkscape:groupmode="layer"
     inkscape:label="Image"
     id="g1">
    <path
       style="fill:#000000"
       d="M 96.800718,223.18417 C 45.137382,215.35021 7.0869238,175.886 1.2109693,124.04281 -3.3683032,83.64017 14.947877,43.67292 48.760946,20.28526 68.984296,6.29727 86.789341,0.83391005 112.36706,0.76813005 c 15.54379,-0.04 21.78937,0.87215995 34.50832,5.03973995 39.71748,13.01412 69.32086,47.25244 75.84322,87.71782 7.11666,44.15248 -11.379,86.81118 -48.41788,111.67184 -23.4413,15.73389 -50.67447,22.05432 -77.500002,17.98664 z m 31.568502,-2.04631 c 9.41141,-2.76439 16.53862,-7.25869 24.0484,-15.16453 16.33138,-17.1927 20.36236,-40.60983 10.48176,-60.89149 C 152.69401,124.13352 133.35752,111.79845 110.64651,111.74886 95.622698,111.71606 78.223757,102.8625 68.794292,90.45212 59.115696,77.71384 55.236037,60.89325 58.277499,44.85569 61.566199,27.51444 76.079471,11.09104 94.271878,4.12399 l 3.52884,-1.35142 -5,0.57869 C 90.05072,3.66954 83.75072,5.29087 78.80072,6.95422 60.009512,13.26865 46.218758,21.95336 32.555096,36.07733 18.204219,50.91168 11.522538,62.81801 5.2500228,84.73324 c -3.026704,10.57486 -3.881044,36.29562 -1.582403,47.63988 5.05778,24.96117 15.3808302,43.52223 34.0019512,61.13622 16.294981,15.41366 35.614425,24.66244 59.631147,28.54716 7.051102,1.14052 25.961692,0.58137 31.068502,-0.91864 z m -14.50286,-24.80763 c -2.92353,-2.07855 -6.59215,-3.6724 -9.42602,-4.09517 -5.951762,-0.8879 -10.152252,-2.6787 -12.521511,-5.33828 -1.620272,-1.81882 -1.713701,-2.51855 -0.672061,-5.03329 1.47086,-3.55096 6.76345,-7.93149 14.088482,-11.66063 13.88086,-7.06669 21.19335,-1.20984 22.66945,18.1568 0.48343,6.34264 0.30962,7.35998 -1.5804,9.25 -3.05327,3.05327 -7.0344,2.64767 -12.55794,-1.27943 z m 18.99908,-9.82071 c -6.85713,-3.83744 0.0267,-17.77628 8.77895,-17.77628 5.32802,0 7.06168,1.92883 6.37958,7.09779 -0.45171,3.42309 -1.38466,5.1012 -4.19461,7.54495 -3.78331,3.29025 -8.35111,4.59574 -10.96392,3.13354 z M 95.549168,165.48324 c -4.287681,-4.59354 -4.105938,-12.9467 0.37202,-17.0989 5.080162,-4.71058 11.382582,-0.14891 11.375792,8.23376 -0.008,9.40577 -6.59981,14.38038 -11.747812,8.86514 z m 32.406542,-1.57874 c -3.9797,-4.39751 0.32833,-14.08006 8.02927,-18.0463 5.35814,-2.75961 9.72096,-0.28393 9.50747,5.39503 -0.35481,9.43786 -12.50943,18.20639 -17.53674,12.65127 z m -15.21527,-7.62292 c -2.01249,-3.07145 -2.07741,-10.41451 -0.12543,-14.18921 3.48887,-6.74673 9.13567,-8.66305 12.10834,-4.10913 3.49689,5.357 2.38443,13.13312 -2.64467,18.48635 -2.88591,3.07191 -7.25996,2.98385 -9.33824,-0.18801 z m 4.67351,-82.91326 c 3.06848,-2.62651 5.17284,-3.51087 9.58938,-4.02994 9.17162,-1.07795 14.88448,-5.81797 12.43487,-10.31736 -1.80525,-3.31583 -7.60155,-8.13814 -13.48903,-11.22237 -6.55065,-3.43164 -12.84192,-4.01905 -16.39449,-1.53074 -5.57462,3.90462 -9.46336,22.44442 -5.86094,27.9424 2.56293,3.91153 8.59959,3.54107 13.72021,-0.84199 z M 97.608908,63.80617 c 4.838802,-1.83971 3.998302,-9.76348 -1.58102,-14.9049 -3.00394,-2.76818 -10.002211,-4.01458 -12.2176,-2.17597 -3.894872,3.23246 -0.242361,13.26929 5.955122,16.36424 3.657748,1.82663 4.678638,1.91991 7.843498,0.71663 z M 133.39721,44.73324 c 1.78999,0 4.89606,-6.52916 4.89977,-10.29966 0.007,-7.55334 -5.12364,-12.81692 -10.08366,-10.34408 -3.60063,1.79511 -5.04848,5.42787 -4.60855,11.56318 0.31686,4.41899 0.90147,5.8606 3.16685,7.80919 1.52803,1.31436 3.43399,2.13811 4.23546,1.83056 0.80147,-0.30755 1.87702,-0.55919 2.39013,-0.55919 z m -30.34649,-3.7921 c 3.71177,-4.72183 -1.98837,-15.81134 -9.381352,-18.25125 -6.64276,-2.19231 -10.15716,1.53158 -8.218371,8.70825 2.476684,9.16776 13.286971,15.02936 17.599723,9.543 z m 14.0999,-6.27715 c 4.09465,-4.3951 3.42101,-13.07847 -1.46509,-18.88528 -6.72615,-7.99357 -14.24401,0.0473 -10.87605,11.63267 2.37993,8.18666 8.25455,11.63904 12.34114,7.25261 z"
       id="path1" />
    <g
       id="g7"
       inkscape:label="Blanco">
      <path
         style="fill:#ffffff;stroke-width:0;stroke-linejoin:bevel;stroke-miterlimit:0"
         d="M 102.75145,222.22128 C 91.165114,221.70262 76.469983,217.60716 63.717413,211.34269 51.569539,205.37527 41.253554,197.51436 31.065417,186.46146 16.949925,171.14786 8.3875688,154.10856 3.8451236,132.2924 3.1967216,129.1783 3.0152376,126.45428 2.8448518,117.27862 2.4459926,95.799146 4.0971298,85.716316 10.715477,69.215875 15.465156,57.374275 20.647496,49.358371 30.587131,38.478931 42.909163,24.991837 57.290354,15.178491 73.768412,9.0131715 82.314073,5.8157837 91.81182,3.2610828 94.003059,3.5704629 94.733506,3.6735947 94.313575,3.9546319 92.182334,4.7889753 86.944849,6.8393566 79.973714,11.390615 75.073226,15.959034 61.881071,28.257259 55.848679,43.260074 57.313384,60.128536 c 1.885546,21.715157 13.83556,38.684032 33.194437,47.135694 7.150643,3.12182 11.871169,4.17401 20.978449,4.67602 7.17374,0.39543 12.32935,1.25969 17.41695,2.9197 13.77857,4.49573 25.88907,15.03585 32.85586,28.59539 4.58655,8.92686 6.10126,15.00081 6.08917,24.41753 -0.009,7.16206 -0.60504,10.86131 -2.74737,17.05675 -3.79679,10.97999 -11.23879,20.88492 -21.38464,28.46186 -3.67816,2.74686 -10.58356,6.19908 -14.57804,7.28802 -4.92465,1.3425 -16.1658,1.99933 -26.38675,1.54178 z m 21.95398,-23.11771 c 0.57914,-0.30256 1.57942,-1.10535 2.22284,-1.78398 l 1.16984,-1.23387 -0.0468,-5.52755 c -0.093,-10.98237 -2.66782,-18.49537 -7.50352,-21.89403 -1.45398,-1.02189 -2.08373,-1.19679 -4.74431,-1.31762 -4.70336,-0.21359 -9.45774,1.55063 -16.214326,6.0167 -7.434585,4.91421 -10.590236,9.87374 -8.315299,13.06859 1.863428,2.61694 5.710095,4.475 12.012135,5.80224 4.75615,1.00166 6.5611,1.73004 10.30959,4.16036 1.54223,0.99991 3.50596,2.13844 4.36385,2.53008 1.87015,0.85374 5.28124,0.9443 6.74598,0.17908 z m 15.77296,-13.26071 c 2.60728,-1.31917 5.76205,-4.29282 6.73981,-6.35288 0.90414,-1.90492 1.23246,-6.70881 0.56814,-8.31263 -0.94591,-2.28364 -4.90499,-3.2749 -8.68776,-2.17523 -4.30176,1.25056 -8.53238,6.55373 -9.10844,11.41762 -0.28581,2.41326 0.76299,4.98407 2.48263,6.08539 1.63064,1.04432 5.21937,0.74744 8.00562,-0.66227 z M 102.4332,167.30999 c 3.02233,-1.37217 4.85258,-5.31424 4.89855,-10.55066 0.0333,-3.79851 -0.83591,-6.3256 -2.91488,-8.47403 -3.26518,-3.37429 -7.974894,-2.19639 -10.615352,2.65487 -1.591657,2.92433 -1.862056,7.6735 -0.623871,10.95745 1.287052,3.41355 4.258831,6.00003 7.039143,6.12649 0.32171,0.0146 1.31909,-0.30672 2.21641,-0.71412 z m 33.90543,-2.71373 c 7.19619,-3.4044 11.56802,-13.17558 8.02876,-17.94456 -2.53266,-3.41265 -8.17519,-2.31314 -13.07508,2.54783 -3.59688,3.56831 -5.48238,8.2987 -4.78644,12.00837 0.28746,1.53232 1.87364,3.63815 3.12023,4.14245 1.69727,0.68661 4.28063,0.3964 6.71253,-0.75409 z m -15.77628,-6.76656 c 1.79001,-1.09343 3.50487,-3.23739 4.86846,-6.08665 0.81209,-1.69687 1.08999,-2.95319 1.21933,-5.51233 0.1942,-3.84217 -0.2251,-5.73273 -1.83413,-8.2699 -2.93697,-4.63113 -8.95317,-2.70811 -12.20728,3.90192 -1.09531,2.22488 -1.27565,3.03577 -1.408,6.33101 -0.19591,4.87761 0.52699,7.58782 2.48171,9.30408 1.16714,1.02476 1.69264,1.21094 3.41319,1.20925 1.41939,-0.001 2.46652,-0.26641 3.46672,-0.87738 z"
         id="path2" />
      <path
         style="fill:#ffffff;stroke-width:0;stroke-linejoin:bevel;stroke-miterlimit:0"
         d="m 106.09622,75.959333 c -2.38038,-1.276989 -3.25084,-3.080405 -3.46607,-7.180978 -0.38905,-7.412379 2.41245,-17.426602 5.91408,-21.14041 2.03038,-2.153407 3.17758,-2.578037 6.88055,-2.546801 2.70049,0.02278 3.91134,0.250569 6.53574,1.229529 7.72216,2.880533 16.76,10.049183 17.75801,14.085314 0.30298,1.225352 -0.57783,3.286375 -1.94941,4.561457 -2.24566,2.087648 -5.8185,3.406639 -12.0107,4.434001 -3.45969,0.574005 -5.49386,1.47534 -8.2979,3.676783 -4.41491,3.466122 -8.39356,4.4748 -11.3643,2.881105 z"
         id="path3" />
      <path
         style="fill:#ffffff;stroke-width:0;stroke-linejoin:bevel;stroke-miterlimit:0"
         d="m 90.663048,63.216749 c -5.303209,-2.548037 -9.246612,-9.431183 -8.017745,-13.994845 0.657787,-2.442837 1.590872,-3.017824 4.842719,-2.984189 5.346397,0.0553 9.438663,2.613142 11.754873,7.347305 2.202955,4.502669 1.547755,8.220748 -1.740886,9.879113 -2.315021,1.167398 -4.022973,1.105616 -6.838961,-0.247384 z"
         id="path4" />
      <path
         style="fill:#ffffff;stroke-width:0;stroke-linejoin:bevel;stroke-miterlimit:0"
         d="m 95.691942,42.341321 c -5.006603,-1.567003 -9.424338,-7.009124 -10.365307,-12.768817 -0.789627,-4.833335 1.335656,-7.599759 5.555786,-7.231816 4.532954,0.395217 8.961019,3.878327 11.524479,9.065142 1.79763,3.63726 2.07353,7.159259 0.70678,9.022624 -1.64708,2.24556 -4.230984,2.911533 -7.421738,1.912867 z"
         id="path5" />
      <path
         style="fill:#ffffff;stroke-width:0;stroke-linejoin:bevel;stroke-miterlimit:0"
         d="m 110.55041,35.548874 c -1.68453,-1.027303 -3.66175,-3.408716 -4.54931,-5.47931 -2.70102,-6.301216 -2.369,-12.519405 0.8398,-15.728209 1.2328,-1.232799 1.7381,-1.473051 3.09809,-1.473051 2.05214,0 3.41369,0.703227 5.20897,2.690394 3.94263,4.364017 5.55435,11.464362 3.64142,16.042033 -1.69743,4.06197 -5.25603,5.767265 -8.23897,3.948143 z"
         id="path6" />
      <path
         style="fill:#ffffff;stroke-width:0;stroke-linejoin:bevel;stroke-miterlimit:0"
         d="m 128.87801,44.588028 c -3.68882,-1.938571 -5.01165,-4.671626 -5.04588,-10.425175 -0.0321,-5.387934 1.11786,-8.08951 4.08831,-9.60492 3.44087,-1.755399 6.78944,-0.342178 8.76712,3.700042 2.06872,4.228312 1.67149,9.275257 -1.0914,13.866525 -1.12778,1.874103 -1.46191,2.144152 -3.20861,2.593222 -2.3616,0.607157 -2.08819,0.61726 -3.50954,-0.129694 z"
         id="path7" />
    </g>
  </g>
</svg>
