<?xml version="1.0" encoding="UTF-8" standalone="no"?>
<!-- Created with Inkscape (http://www.inkscape.org/) -->

<svg
   version="1.1"
   id="svg1"
   width="64.440002mm"
   height="90mm"
   viewBox="0 0 243.55277 340.15748"
   sodipodi:docname="afa-escudo.svg"
   inkscape:version="1.3.2 (1:1.3.2+202311252150+091e20ef0f)"
   xml:space="preserve"
   xmlns:inkscape="http://www.inkscape.org/namespaces/inkscape"
   xmlns:sodipodi="http://sodipodi.sourceforge.net/DTD/sodipodi-0.dtd"
   xmlns="http://www.w3.org/2000/svg"
   xmlns:svg="http://www.w3.org/2000/svg"
   xmlns:inkstitch="http://inkstitch.org/namespace"><sodipodi:namedview
     id="namedview1"
     pagecolor="#ff00de"
     bordercolor="#666666"
     borderopacity="1.0"
     inkscape:showpageshadow="2"
     inkscape:pageopacity="0.0"
     inkscape:pagecheckerboard="0"
     inkscape:deskcolor="#d1d1d1"
     inkscape:zoom="1.4142136"
     inkscape:cx="43.84062"
     inkscape:cy="156.2706"
     inkscape:window-width="1848"
     inkscape:window-height="1016"
     inkscape:window-x="72"
     inkscape:window-y="27"
     inkscape:window-maximized="1"
     inkscape:current-layer="svg1"
     inkscape:document-units="mm" /><metadata
     id="metadata105"><inkstitch:min_stitch_len_mm>0</inkstitch:min_stitch_len_mm><inkstitch:collapse_len_mm>3</inkstitch:collapse_len_mm><inkstitch:inkstitch_svg_version>1</inkstitch:inkstitch_svg_version></metadata><defs
     id="defs1" /><g
     inkscape:groupmode="layer"
     inkscape:label="Image"
     id="g1"><g
       id="g5"
       inkscape:label="amarillo"
       transform="matrix(1.429428,0,0,1.429428,-2.2224629,-1.8133986)"><path
         style="fill:#cbaf7e;fill-opacity:1;stroke:#cbaf7e;stroke-width:0.0830956;stroke-linejoin:bevel;stroke-miterlimit:0;stroke-opacity:1"
         d="m 40.885855,38.763577 c -0.08159,-0.08159 0.02665,-0.668079 0.145185,-0.786609 0.162237,-0.162237 0.245084,-0.607759 0.303183,-1.630432 0.0448,-0.788545 0.08928,-1.03448 0.250868,-1.387463 0.170181,-0.371723 0.2036,-0.58035 0.250193,-1.561901 0.0469,-0.988176 0.0746,-1.15934 0.216788,-1.34011 0.114238,-0.145229 0.16302,-0.317302 0.16302,-0.575079 v -0.367844 l -1.151657,-1.163424 c -0.63341,-0.639883 -1.189395,-1.163426 -1.235519,-1.163426 -0.04612,0 -0.791639,-0.707654 -1.656695,-1.572566 -1.745577,-1.745284 -1.708086,-1.660368 -0.735281,-1.665418 0.780067,-0.0042 1.440679,-0.123684 1.667276,-0.301925 0.178581,-0.140473 0.309566,-0.160077 1.069467,-0.160077 0.956035,0 2.164052,-0.177923 2.34989,-0.346107 0.07393,-0.0669 0.398317,-0.128398 0.850291,-0.161184 0.81191,-0.05889 1.000552,-0.122645 1.000552,-0.338141 0,-0.08044 0.06941,-0.16829 0.154246,-0.195217 0.186802,-0.05929 0.270448,-0.209769 0.342759,-0.616637 0.03317,-0.186556 0.129463,-0.369222 0.24384,-0.462499 0.119492,-0.09745 0.206097,-0.26761 0.235395,-0.462499 0.02901,-0.193168 0.124279,-0.381671 0.254993,-0.504684 0.13671,-0.128656 0.227529,-0.314683 0.263424,-0.539583 0.03645,-0.228399 0.118769,-0.394806 0.246045,-0.497394 0.122247,-0.09853 0.207992,-0.265432 0.237619,-0.462498 0.02947,-0.196147 0.124491,-0.381811 0.261114,-0.510279 0.147028,-0.138243 0.231484,-0.313427 0.267768,-0.555379 0.03732,-0.248863 0.106527,-0.388501 0.233874,-0.47195 0.113924,-0.07465 0.198969,-0.225732 0.22975,-0.408158 0.07994,-0.473773 0.113369,-0.549322 0.264163,-0.597184 0.07909,-0.02509 0.185299,-0.15695 0.23604,-0.293005 l 0.09227,-0.24737 0.112362,0.423957 c 0.06409,0.241818 0.189271,0.49019 0.291368,0.578124 0.108295,0.09328 0.196443,0.275939 0.223167,0.462499 0.028,0.195481 0.115657,0.370466 0.2395,0.478092 0.12364,0.107446 0.225538,0.310587 0.277616,0.553408 0.05466,0.254835 0.14158,0.422501 0.258898,0.499373 0.122108,0.08001 0.190398,0.218448 0.221263,0.448552 0.03091,0.230547 0.108713,0.38794 0.25315,0.512177 0.138782,0.119378 0.230799,0.298658 0.275158,0.536111 0.03821,0.204514 0.14863,0.442331 0.258757,0.557278 0.105656,0.110289 0.192106,0.277778 0.192106,0.372212 0,0.264675 0.210197,0.706324 0.336164,0.706324 0.07223,0 0.132262,0.115301 0.166965,0.3207 0.09309,0.550947 0.267161,0.652419 1.23209,0.718189 0.643451,0.04385 0.884174,0.0916 1.038931,0.206004 0.231197,0.170934 1.169187,0.292933 2.274793,0.295873 0.487882,0.0013 0.762368,0.03869 0.924997,0.126026 0.419912,0.225484 0.991988,0.335531 1.749088,0.336457 0.749812,9.07e-4 1.009692,0.0918 0.651722,0.227893 -0.104915,0.03989 -0.213521,0.144265 -0.241349,0.231952 -0.02782,0.08768 -0.149749,0.210697 -0.270929,0.273359 -0.121181,0.06266 -0.243093,0.185678 -0.270921,0.273361 -0.02782,0.08768 -0.137704,0.192547 -0.24417,0.233024 -0.106471,0.04047 -0.21197,0.143941 -0.234451,0.229921 -0.02249,0.08598 -0.138072,0.206586 -0.25687,0.268016 -0.118796,0.06144 -0.238761,0.183434 -0.266591,0.271121 -0.02782,0.08768 -0.137704,0.192543 -0.244169,0.233021 -0.10647,0.04049 -0.211967,0.143942 -0.234451,0.229922 -0.02248,0.08598 -0.138074,0.206585 -0.256869,0.268017 -0.118796,0.06145 -0.238248,0.181828 -0.265454,0.267549 -0.02722,0.08572 -0.151074,0.208399 -0.275257,0.272615 -0.124179,0.06422 -0.225786,0.167008 -0.225786,0.228425 0,0.06143 -0.101612,0.164207 -0.225787,0.228425 -0.12418,0.06423 -0.248045,0.186893 -0.275251,0.272615 -0.02722,0.08572 -0.151073,0.208399 -0.275256,0.272615 -0.12418,0.06422 -0.225787,0.169704 -0.225787,0.234414 0,0.06472 -0.106539,0.154795 -0.236753,0.200187 -0.131452,0.04582 -0.267972,0.164644 -0.30695,0.267164 -0.03861,0.101558 -0.15567,0.217128 -0.260137,0.256848 -0.265018,0.100767 -0.309568,0.43172 -0.203856,1.51437 0.07523,0.770438 0.115173,0.932188 0.277984,1.125676 0.17457,0.207463 0.190259,0.290141 0.191659,1.010145 0.0022,1.112199 0.115288,1.836762 0.30743,1.969105 0.126125,0.08687 0.154522,0.197006 0.159027,0.616666 0.0029,0.280999 0.03027,0.783673 0.06057,1.117051 0.06442,0.70876 -0.01932,0.814608 -0.357779,0.452276 -0.137503,-0.147205 -0.325664,-0.248639 -0.52308,-0.281989 -0.212159,-0.03585 -0.331524,-0.104598 -0.382702,-0.220469 -0.05281,-0.119548 -0.187309,-0.193243 -0.463906,-0.254156 -0.229515,-0.05054 -0.470939,-0.1672 -0.587716,-0.283973 -0.124463,-0.124479 -0.325045,-0.217214 -0.539227,-0.249333 -0.244619,-0.03669 -0.361775,-0.09787 -0.414366,-0.216418 -0.04813,-0.10851 -0.204252,-0.201966 -0.454512,-0.272093 -0.213577,-0.05984 -0.44408,-0.186775 -0.524226,-0.288663 -0.100311,-0.127517 -0.254518,-0.196626 -0.516187,-0.23134 -0.283415,-0.03759 -0.391977,-0.09083 -0.451456,-0.221372 -0.0508,-0.11148 -0.200764,-0.206158 -0.426848,-0.269459 -0.191697,-0.05367 -0.426416,-0.180483 -0.521603,-0.281803 -0.14053,-0.149585 -0.250367,-0.184219 -0.584285,-0.184219 -0.351752,0 -0.446217,0.03344 -0.653203,0.231251 -0.133086,0.12719 -0.325275,0.231247 -0.427082,0.231247 -0.230463,0 -0.607473,0.189601 -0.662583,0.333221 -0.02271,0.05922 -0.201216,0.147936 -0.396644,0.197145 -0.197647,0.04978 -0.429072,0.174282 -0.521505,0.280591 -0.0914,0.105128 -0.237971,0.191254 -0.325717,0.191413 -0.08773,1.61e-4 -0.278152,0.0782 -0.423125,0.173438 -0.471209,0.309528 -0.581809,0.363564 -0.746506,0.364719 -0.08918,7.54e-4 -0.258223,0.09015 -0.375605,0.198933 -0.11739,0.108782 -0.339249,0.238867 -0.493027,0.289062 -0.15378,0.0502 -0.312298,0.165731 -0.35226,0.25674 -0.05421,0.123456 -0.165947,0.177854 -0.439941,0.214196 -0.341844,0.04534 -0.554917,0.165943 -0.617489,0.349494 -0.03317,0.09735 -0.471016,0.187773 -0.546016,0.112771 z"
         id="path10" /><path
         style="fill:#cbaf7e;fill-opacity:1;stroke:#cbaf7e;stroke-width:0.0830956;stroke-linejoin:bevel;stroke-miterlimit:0;stroke-opacity:1"
         d="m 100.07956,38.802067 c -0.1197,-0.03339 -0.2965,-0.145842 -0.39287,-0.249843 -0.10642,-0.114775 -0.30719,-0.211379 -0.51097,-0.245809 -0.21063,-0.03558 -0.38771,-0.122816 -0.47524,-0.234102 -0.0767,-0.09757 -0.24575,-0.200712 -0.37558,-0.229224 -0.12981,-0.02854 -0.346182,-0.147271 -0.480819,-0.263902 -0.134637,-0.116638 -0.36311,-0.23497 -0.507729,-0.262965 -0.144589,-0.028 -0.310972,-0.119521 -0.369726,-0.203403 -0.05867,-0.08387 -0.291714,-0.206256 -0.517684,-0.271946 -0.225981,-0.0657 -0.472676,-0.187745 -0.548226,-0.271226 -0.07561,-0.08348 -0.274271,-0.188646 -0.441605,-0.233703 -0.167323,-0.04505 -0.378605,-0.167485 -0.46952,-0.272066 -0.103253,-0.118755 -0.28106,-0.206732 -0.473629,-0.234317 -0.194317,-0.02785 -0.368036,-0.114421 -0.469785,-0.234146 -0.09351,-0.109995 -0.30443,-0.221974 -0.501031,-0.265967 -0.204624,-0.04578 -0.400873,-0.152414 -0.493757,-0.26827 -0.09258,-0.115416 -0.289249,-0.222586 -0.492082,-0.268088 -0.201644,-0.04525 -0.397498,-0.151569 -0.485679,-0.263678 -0.105382,-0.133897 -0.25498,-0.20209 -0.520931,-0.237368 -0.283411,-0.0376 -0.391978,-0.09083 -0.451458,-0.221372 -0.05258,-0.115388 -0.200964,-0.205072 -0.451583,-0.272902 -0.209044,-0.05658 -0.442232,-0.183877 -0.530041,-0.289342 -0.127853,-0.153586 -0.248692,-0.195617 -0.65521,-0.227913 -0.604115,-0.04801 -1.125573,0.07608 -1.191408,0.283504 -0.03381,0.106527 -0.148882,0.163573 -0.408425,0.202495 -0.24661,0.03697 -0.422939,0.120118 -0.555292,0.261797 -0.114308,0.122378 -0.320396,0.230915 -0.501949,0.264373 -0.185506,0.03418 -0.386105,0.141396 -0.504363,0.269577 -0.126751,0.137376 -0.310719,0.231095 -0.518995,0.264401 -0.217517,0.0348 -0.361619,0.111083 -0.442274,0.234179 -0.07983,0.121837 -0.224528,0.199358 -0.434929,0.233003 -0.388735,0.06217 -0.604317,0.172342 -0.604317,0.30886 0,0.05891 -0.152575,0.142181 -0.353019,0.192653 -0.194157,0.0489 -0.430834,0.17286 -0.525949,0.275492 -0.09512,0.102628 -0.323243,0.220369 -0.50695,0.261645 -0.186273,0.04186 -0.4153,0.162716 -0.517791,0.273243 -0.101081,0.10901 -0.260416,0.198324 -0.35409,0.198483 -0.191167,3.21e-4 -0.671358,0.268433 -0.671358,0.374844 0,0.03799 -0.154379,0.107933 -0.343069,0.155446 -0.188682,0.04752 -0.436559,0.173038 -0.550834,0.278944 -0.11428,0.10589 -0.273803,0.192555 -0.354509,0.192555 -0.18278,0 -0.541532,0.181636 -0.67399,0.341241 -0.05485,0.06608 -0.232334,0.155862 -0.394424,0.199508 -0.173075,0.04661 -0.313579,0.138839 -0.340446,0.22348 -0.04509,0.142062 -0.252149,0.234743 -0.529038,0.236799 -0.130642,0.0012 -0.139536,-0.06693 -0.115629,-0.88224 0.02183,-0.743714 0.0479,-0.89935 0.165036,-0.984876 0.19641,-0.143394 0.275282,-0.559577 0.332552,-1.754734 0.03084,-0.643713 0.08626,-1.084724 0.145331,-1.156247 0.230669,-0.279373 0.285982,-0.547432 0.351643,-1.704024 0.06013,-1.05901 0.09197,-1.258447 0.231074,-1.446583 0.183642,-0.248391 0.296989,-0.958093 0.300867,-1.883839 0.0018,-0.486432 0.0414,-0.684337 0.204776,-1.029696 0.12337,-0.260775 0.217616,-0.618888 0.241637,-0.918135 0.03759,-0.468231 0.02886,-0.500442 -0.191436,-0.706222 -0.12695,-0.118582 -0.255341,-0.292885 -0.285313,-0.387324 -0.02997,-0.09444 -0.134549,-0.1918 -0.232399,-0.216358 -0.09784,-0.02457 -0.216427,-0.129208 -0.263518,-0.232564 -0.04709,-0.103359 -0.170179,-0.226442 -0.273531,-0.273534 -0.103359,-0.0471 -0.208458,-0.167456 -0.233562,-0.26748 -0.02642,-0.105255 -0.122233,-0.201087 -0.227505,-0.227507 -0.100028,-0.0251 -0.22039,-0.130203 -0.267483,-0.23356 -0.04709,-0.103348 -0.17018,-0.226442 -0.273531,-0.273533 -0.103358,-0.04709 -0.207714,-0.16452 -0.23192,-0.260952 -0.02563,-0.102057 -0.136566,-0.2076 -0.265461,-0.252532 -0.137122,-0.04779 -0.23978,-0.15023 -0.269584,-0.268969 -0.0291,-0.115913 -0.121254,-0.210123 -0.232982,-0.238165 -0.109565,-0.0275 -0.203837,-0.12202 -0.231459,-0.232072 -0.02846,-0.113341 -0.134039,-0.216158 -0.271045,-0.263917 -0.123441,-0.04303 -0.246475,-0.147662 -0.273402,-0.232507 -0.02694,-0.08485 -0.15161,-0.190053 -0.277064,-0.233786 -0.125459,-0.04374 -0.228098,-0.13496 -0.228098,-0.202737 0,-0.06778 -0.102269,-0.181909 -0.227254,-0.253644 -0.124991,-0.07174 -0.263313,-0.209567 -0.307386,-0.306294 -0.04407,-0.09674 -0.167273,-0.209003 -0.273787,-0.249499 -0.106504,-0.0405 -0.193655,-0.128127 -0.193655,-0.194745 0,-0.06661 -0.102268,-0.179809 -0.22725,-0.251541 -0.124989,-0.07174 -0.263315,-0.209567 -0.307388,-0.306295 -0.04408,-0.09673 -0.167274,-0.209002 -0.273783,-0.249497 -0.106506,-0.0405 -0.193661,-0.12813 -0.193661,-0.194745 0,-0.0666 -0.102268,-0.179811 -0.227249,-0.251545 -0.12499,-0.07174 -0.263315,-0.209565 -0.307388,-0.306294 -0.04408,-0.09673 -0.167274,-0.209001 -0.273784,-0.249497 -0.106504,-0.0405 -0.193654,-0.127689 -0.193654,-0.193758 0,-0.06607 -0.117689,-0.189567 -0.261514,-0.27443 -0.143834,-0.08486 -0.279226,-0.222027 -0.300875,-0.304806 -0.02167,-0.08277 -0.129436,-0.184752 -0.239527,-0.226612 -0.110086,-0.04187 -0.200164,-0.130599 -0.200164,-0.197219 0,-0.06662 -0.103846,-0.180205 -0.230765,-0.252427 -0.240991,-0.137135 -0.299885,-0.245457 -0.135374,-0.249026 0.645907,-0.01407 1.565482,-0.165586 1.809164,-0.29823 0.246192,-0.13401 0.507836,-0.169213 1.688066,-0.227116 1.270042,-0.06233 1.435648,-0.08694 1.82595,-0.271585 0.361476,-0.171004 0.536457,-0.203269 1.108484,-0.204395 1.123119,-0.0022 2.112169,-0.132561 2.294045,-0.302349 0.13705,-0.12793 0.34952,-0.15762 1.594358,-0.222731 0.851542,-0.04454 1.510544,-0.114223 1.618746,-0.171161 0.250817,-0.131992 0.606458,-0.510514 0.606458,-0.645481 0,-0.06113 0.0683,-0.132802 0.151766,-0.159301 0.143242,-0.04545 0.309279,-0.443268 0.310302,-0.743455 2.38e-4,-0.06932 0.08328,-0.180311 0.184521,-0.246653 0.124181,-0.08137 0.215851,-0.253004 0.281688,-0.527438 0.05894,-0.245729 0.166526,-0.46104 0.271682,-0.543756 0.107547,-0.08459 0.19448,-0.262039 0.227439,-0.464235 0.03423,-0.209985 0.128911,-0.397676 0.264165,-0.52365 0.137461,-0.128043 0.229401,-0.312602 0.264243,-0.530484 0.03461,-0.216299 0.118113,-0.385019 0.236878,-0.47843 0.117005,-0.09205 0.202764,-0.262826 0.236795,-0.471597 0.03423,-0.209984 0.12891,-0.397675 0.264162,-0.5236494 0.137464,-0.1280444 0.229403,-0.3126028 0.264245,-0.5304846 0.03458,-0.2162997 0.118129,-0.3850169 0.236873,-0.4784297 0.117021,-0.092052 0.20277,-0.2628263 0.236799,-0.4715951 0.03418,-0.2098227 0.128911,-0.3976729 0.263856,-0.5233712 0.149071,-0.1388528 0.225332,-0.3042419 0.26131,-0.5667154 0.0362,-0.2641742 0.105657,-0.413798 0.241773,-0.5208623 0.137177,-0.1078986 0.204909,-0.2553235 0.240468,-0.5233642 0.0379,-0.2856748 0.09047,-0.391818 0.224307,-0.452795 0.12668,-0.057711 0.201017,-0.1926716 0.269991,-0.490122 0.05508,-0.2375533 0.163387,-0.46465 0.257087,-0.5390741 0.08906,-0.070731 0.201621,-0.2441674 0.250154,-0.3854157 L 89.214568,4.2363287 89.3178,4.575224 c 0.06097,0.1999101 0.15906,0.3534824 0.239311,0.3744684 0.144408,0.037768 0.179184,0.1150032 0.26204,0.5821608 0.03252,0.1831192 0.119547,0.3376727 0.231605,0.4110861 0.127457,0.083525 0.194663,0.2219839 0.231694,0.4773865 0.05791,0.3993795 0.138743,0.5928798 0.343526,0.8222439 0.07569,0.084795 0.176635,0.3011003 0.224294,0.4806898 0.04771,0.1795895 0.172171,0.4187922 0.276682,0.531567 0.104481,0.1127707 0.19003,0.2716321 0.19003,0.3530203 0,0.1765623 0.121984,0.4270913 0.311072,0.6388832 0.07569,0.084796 0.176635,0.3011023 0.224306,0.4806898 0.0477,0.1795875 0.17216,0.4187922 0.276681,0.5315662 0.104471,0.11277 0.190029,0.271633 0.190029,0.353021 0,0.17656 0.121972,0.427091 0.311073,0.638882 0.07569,0.0848 0.176634,0.301102 0.224295,0.480691 0.0477,0.179588 0.172159,0.418792 0.276681,0.531566 0.104481,0.112772 0.190029,0.281566 0.190029,0.375095 0,0.09353 0.086,0.287917 0.191049,0.431974 0.232386,0.318567 0.323967,0.505135 0.382387,0.778956 0.02446,0.11479 0.130957,0.301959 0.236582,0.415941 0.105583,0.113981 0.192061,0.273269 0.192061,0.353974 0,0.243751 0.197356,0.548783 0.596802,0.922427 0.422384,0.39508 0.318866,0.37423 2.447983,0.493092 0.466339,0.02604 0.917278,0.0911 1.002068,0.144593 0.32416,0.204502 0.73707,0.273741 2.0427,0.342548 1.1561,0.06094 1.39612,0.09554 1.67886,0.242116 0.27998,0.145138 0.53084,0.182544 1.6573,0.247121 0.83017,0.04759 1.37068,0.111637 1.443,0.170991 0.15383,0.126254 0.8179,0.260184 1.59947,0.322582 0.6364,0.05082 0.79655,0.125742 0.45299,0.211975 -0.10464,0.02627 -0.22295,0.14247 -0.27638,0.271439 -0.0539,0.130062 -0.17169,0.245176 -0.27836,0.271948 -0.10934,0.02744 -0.20394,0.121977 -0.23136,0.231275 -0.0264,0.105916 -0.12168,0.203746 -0.22267,0.229094 -0.0978,0.02457 -0.21783,0.144581 -0.26968,0.269766 -0.0531,0.127887 -0.17177,0.245187 -0.27442,0.27095 -0.0995,0.02498 -0.20391,0.117661 -0.23194,0.205958 -0.028,0.0883 -0.15194,0.19574 -0.27538,0.238772 -0.12844,0.04478 -0.24268,0.150888 -0.26708,0.248065 -0.0237,0.09421 -0.142,0.207335 -0.26584,0.254076 -0.13966,0.05272 -0.2421,0.159401 -0.27359,0.284976 -0.0294,0.117277 -0.10463,0.200717 -0.18078,0.200717 -0.16388,0 -0.31539,0.147418 -0.31539,0.30685 0,0.06701 -0.10251,0.160537 -0.22777,0.207823 -0.14395,0.05434 -0.24632,0.15984 -0.27815,0.286691 -0.0294,0.117276 -0.10463,0.200716 -0.18077,0.200716 -0.16388,0 -0.31539,0.147416 -0.31539,0.306849 0,0.06701 -0.10251,0.160539 -0.22777,0.207822 -0.13669,0.05159 -0.24639,0.16017 -0.27434,0.271509 -0.0279,0.11107 -0.13756,0.219877 -0.27327,0.271103 -0.14622,0.05518 -0.2267,0.140004 -0.2267,0.238893 0,0.100656 -0.0785,0.18069 -0.22854,0.23299 -0.1434,0.04998 -0.2464,0.150829 -0.27647,0.270652 -0.0293,0.116623 -0.12142,0.209429 -0.23669,0.238356 -0.10379,0.02606 -0.2216,0.13374 -0.26174,0.239313 -0.0401,0.105572 -0.15933,0.224774 -0.2649,0.264912 -0.10787,0.04099 -0.21343,0.1586 -0.24098,0.268406 -0.0313,0.125188 -0.10284,0.195436 -0.19862,0.195436 -0.17587,0 -1.66394,1.479615 -1.77084,1.760767 -0.0804,0.211195 -0.0172,1.227979 0.10003,1.61232 0.0422,0.138172 0.12778,0.302378 0.1903,0.364898 0.0841,0.0841 0.1309,0.429985 0.17988,1.328979 0.0678,1.244224 0.12483,1.530103 0.3412,1.709682 0.0903,0.07493 0.1242,0.240503 0.12565,0.613496 0.001,0.280981 0.0355,0.855467 0.0764,1.276639 0.0598,0.615224 0.1124,0.820612 0.2678,1.044763 0.16896,0.243817 0.19341,0.361106 0.19393,0.930062 0.001,1.079433 0.12562,1.941747 0.30154,2.086008 0.12576,0.103126 0.15447,0.232657 0.16701,0.753507 0.007,0.345938 10e-4,0.640414 -0.0149,0.654394 -0.0166,0.01391 -0.12811,-0.0018 -0.24779,-0.03533 z"
         id="path11" /><path
         style="fill:#cbaf7e;fill-opacity:1;stroke:#cbaf7e;stroke-width:0.166191;stroke-linejoin:bevel;stroke-miterlimit:0;stroke-opacity:1"
         d="m 123.3065,37.798356 c 0,-0.57861 0.0951,-1.193543 0.22261,-1.440225 0.12243,-0.236764 0.27036,-0.979101 0.32874,-1.649628 0.0584,-0.67053 0.16818,-1.297874 0.24404,-1.394099 0.0758,-0.09623 0.18016,-0.627597 0.23181,-1.180829 l 0.094,-1.005873 -2.81561,-2.788951 -2.81561,-2.788951 h 0.86443 c 0.47543,0 1.12599,-0.09852 1.44567,-0.218921 0.31969,-0.120402 1.19488,-0.251892 1.94488,-0.292188 0.75001,-0.04031 1.44029,-0.149907 1.53396,-0.243577 0.0936,-0.09367 0.4641,-0.17031 0.82319,-0.17031 0.87957,0 1.44377,-0.232107 1.44377,-0.593972 0,-0.161299 0.1041,-0.379635 0.23125,-0.48519 0.12714,-0.105551 0.23126,-0.271173 0.23126,-0.368036 0,-0.09686 0.13877,-0.43499 0.30833,-0.751394 0.16958,-0.316407 0.30834,-0.679595 0.30834,-0.80709 0,-0.127489 0.068,-0.231808 0.15122,-0.231808 0.083,0 0.19895,-0.190093 0.25725,-0.422429 0.0583,-0.232338 0.19839,-0.514791 0.31126,-0.627677 0.11297,-0.112884 0.20525,-0.325165 0.20525,-0.471732 0,-0.14657 0.074,-0.340459 0.16438,-0.430869 0.0904,-0.09042 0.35056,-0.538154 0.57812,-0.994991 0.39425,-0.791459 0.42647,-0.817866 0.68355,-0.560202 0.14837,0.148725 0.26979,0.400666 0.26979,0.559867 0,0.1592 0.0973,0.37017 0.21612,0.468822 0.1189,0.09865 0.26103,0.358337 0.31594,0.577081 0.0549,0.218742 0.20046,0.498352 0.32346,0.621354 0.12301,0.123001 0.22364,0.359609 0.22364,0.525795 0,0.166188 0.1041,0.342094 0.23125,0.390898 0.12713,0.04881 0.23126,0.256932 0.23126,0.462499 0,0.205567 0.1041,0.413691 0.23124,0.462499 0.12713,0.04881 0.23124,0.246258 0.23124,0.438783 0,0.192525 0.0973,0.43076 0.21612,0.52941 0.1189,0.09865 0.2594,0.351722 0.31227,0.562381 0.16088,0.641017 0.70506,1.050862 1.54849,1.166227 0.42637,0.0583 1.05269,0.18003 1.39186,0.270473 0.33917,0.09045 1.07108,0.166099 1.62646,0.168122 0.55538,0.002 1.08229,0.07618 1.17092,0.164811 0.0887,0.08862 0.6575,0.20275 1.26416,0.25361 0.60666,0.05085 1.10597,0.134438 1.10956,0.18574 0.004,0.0513 -1.26248,1.319009 -2.81353,2.817136 l -2.82007,2.723871 0.21467,0.513619 c 0.11804,0.28249 0.26048,1.079718 0.31648,1.771619 0.056,0.691901 0.1754,1.35096 0.26529,1.46458 0.09,0.113611 0.20646,0.791597 0.25899,1.506628 0.0525,0.715028 0.16609,1.370618 0.25234,1.456869 0.22559,0.225601 0.19336,0.865983 -0.0436,0.865983 -0.11025,0 -0.27062,-0.0702 -0.35642,-0.156003 -0.0857,-0.0858 -0.39451,-0.281501 -0.68602,-0.434895 -0.29153,-0.15339 -0.99536,-0.534124 -1.56408,-0.846079 -0.5687,-0.31195 -1.13526,-0.567185 -1.25901,-0.567185 -0.12372,0 -0.24813,-0.0586 -0.2764,-0.130232 -0.0521,-0.132219 -0.31479,-0.281206 -1.81596,-1.030169 l -0.8396,-0.418891 -0.69934,0.365685 c -0.38463,0.201131 -0.79224,0.452406 -0.90579,0.558396 -0.1135,0.105982 -0.34242,0.192705 -0.50861,0.192705 -0.16618,0 -0.34211,0.104068 -0.39091,0.231251 -0.0487,0.127191 -0.2151,0.231247 -0.36956,0.231247 -0.15446,0 -0.38488,0.104069 -0.51207,0.231253 -0.12713,0.127191 -0.32292,0.235859 -0.43497,0.241493 -0.11207,0.0056 -0.5506,0.214014 -0.97454,0.463069 -0.42397,0.249048 -0.96164,0.528728 -1.1948,0.6215 -0.23318,0.09277 -0.42396,0.231267 -0.42396,0.307764 0,0.0765 -0.0693,0.13908 -0.15415,0.13908 -0.0871,0 -0.15417,-0.439355 -0.15417,-1.009733 z"
         id="path12" /><path
         style="fill:#cbaf7e;fill-opacity:1;stroke:#cbaf7e;stroke-width:0.470058;stroke-linejoin:bevel;stroke-miterlimit:0;stroke-opacity:1"
         d="m 87.630117,214.92579 c -3.148679,-2.63708 -8.539212,-5.84926 -11.555265,-6.88576 -1.798698,-0.61813 -6.487999,-1.72949 -10.420667,-2.46973 -12.138357,-2.28469 -17.701731,-4.4768 -21.179962,-8.34543 -2.502452,-2.78333 -3.282403,-5.20394 -3.592788,-11.15042 l -0.25605,-4.90552 h 7.659972 c 4.212983,0 7.970351,-0.11905 8.349708,-0.26468 1.120484,-0.42996 0.789113,-1.35062 -0.585052,-1.62546 -3.224923,-0.64498 -4.250408,-4.33315 -2.246128,-8.07818 0.476807,-0.89092 0.80021,-0.93287 7.190893,-0.93287 h 6.691635 l 0.499178,1.98243 c 0.562411,2.23351 0.06778,4.939 -1.076655,5.88879 -1.194784,0.99157 -1.660599,2.22359 -0.99919,2.6427 0.665826,0.42192 13.574898,0.5181 15.088665,0.11252 1.31398,-0.35214 1.241702,-0.93094 -0.471523,-3.77604 -1.58713,-2.63568 -2.010462,-3.77131 -8.80209,-23.61233 -5.118853,-14.95418 -6.187979,-17.68576 -6.922095,-17.68576 -0.274784,0 -1.071186,1.52072 -1.769784,3.37937 -2.315979,6.16176 -7.570993,18.2739 -10.295043,23.72878 -3.84696,7.70349 -6.787229,12.41871 -9.32031,14.94666 l -2.208513,2.20404 -0.267911,-5.23258 C 40.99379,171.9684 40.846625,154.84809 40.814103,136.80116 l -0.05913,-32.8126 h 48.865385 48.865382 l -0.18084,40.87948 c -0.1541,34.83238 -0.28166,41.37814 -0.86236,44.25062 -1.19088,5.89086 -1.99898,7.73872 -4.46077,10.20053 -2.86996,2.86993 -5.91761,3.89105 -17.9609,6.01778 -11.98531,2.11649 -14.82778,3.20807 -21.826934,8.38203 -1.736415,1.28361 -3.404296,2.32678 -3.706406,2.31815 -0.302097,-0.009 -1.137944,-0.50869 -1.85742,-1.11129 z m 14.074663,-17.20747 c 2.70014,-1.34927 5.51165,-4.00863 5.20797,-4.92611 -0.0918,-0.27725 -1.52458,-0.71288 -3.18403,-0.96809 -1.65944,-0.2552 -3.40962,-0.71331 -3.88926,-1.01801 -0.47966,-0.30469 -1.80415,-1.86054 -2.943332,-3.45744 -1.588158,-2.22627 -2.071223,-3.28551 -2.071223,-4.5416 v -1.63814 l 5.995655,-0.0435 c 6.15513,-0.0447 7.997,-0.28482 8.02586,-1.04665 0.009,-0.23984 -0.73834,-0.68596 -1.66091,-0.99143 -3.21354,-1.06393 -4.06556,-3.67642 -2.3169,-7.1041 l 0.88673,-1.73811 6.6351,0.12031 6.63511,0.12031 0.38698,1.56569 c 0.57108,2.31069 -0.0449,5.54469 -1.294,6.79378 -1.42305,1.42307 -1.3368,1.72701 0.57999,2.04383 2.56098,0.4233 13.77141,0.31274 14.49208,-0.14293 0.5475,-0.34618 0.40276,-0.86744 -0.93651,-3.37269 -1.81492,-3.39497 -3.36738,-7.47125 -8.43565,-22.14934 -5.60522,-16.23316 -6.83204,-19.45116 -7.34976,-19.27859 -0.2634,0.0878 -3.92026,7.99339 -8.12639,17.56796 -9.16565,20.86423 -11.321707,25.03918 -12.930897,25.03918 -0.480111,0 -0.586488,-2.76805 -0.586488,-15.26167 v -15.26167 h 1.022543 c 1.34396,0 2.530892,1.3562 3.337932,3.81399 0.74913,2.28147 1.84437,3.23721 2.7133,2.36772 0.41651,-0.4168 0.55707,-2.85813 0.55707,-9.67694 0,-8.00141 -0.0909,-9.21038 -0.74121,-9.86047 -1.03826,-1.03789 -2.01578,-0.14487 -2.38776,2.18134 -0.32515,2.0334 -2.179305,4.19759 -3.596245,4.19759 -0.870068,0 -0.90563,-0.22118 -0.90563,-5.63143 v -5.6314 l 3.379375,-0.32238 c 4.73491,-0.45166 9.44692,0.3154 13.78311,2.24372 4.06486,1.80766 5.512,2.22201 5.512,1.57827 0,-0.67488 -3.22779,-10.05392 -4.27401,-12.41908 -0.50024,-1.13087 -1.18567,-2.05614 -1.52316,-2.05614 -0.33752,0 -1.57494,0.53961 -2.74983,1.19914 l -2.13618,1.19913 H 90.246403 c -20.54784,0 -18.89004,0.37242 -28.730988,-6.4543 -2.108683,-1.4628 -2.446427,-1.46829 -2.446427,-0.0398 0,1.84805 2.47432,6.48646 4.842188,9.07728 3.735319,4.08703 8.60878,5.91971 15.741803,5.91971 h 3.459098 l -0.141766,26.27186 c -0.160529,29.74936 -0.0051,28.41339 -3.56688,30.66671 -1.105476,0.6994 -2.103676,1.51582 -2.218221,1.81432 -0.2548,0.66401 1.446132,1.5558 4.297089,2.25298 3.006115,0.73509 4.245892,1.46023 7.429843,4.34565 1.535123,1.39122 3.444433,2.85135 4.24293,3.24482 2.348857,1.15743 5.481148,0.94005 8.549698,-0.59332 z"
         id="path13" /><path
         style="fill:#cbaf7e;fill-opacity:1;stroke-width:0.117515;stroke-linejoin:bevel;stroke-miterlimit:0"
         d="m 57.651833,165.29297 c -0.968274,-0.0479 -1.308144,-0.11506 -1.308144,-0.25839 0,-0.46445 5.001176,-11.33666 5.214821,-11.33666 0.132747,0 0.550081,0.99887 1.703396,4.07694 1.267735,3.38342 2.456809,6.7861 2.456809,7.03044 0,0.16692 -0.130743,0.23138 -0.681324,0.33582 -0.671926,0.12742 -5.762585,0.23213 -7.385558,0.15185 z"
         id="path14" /><path
         style="fill:#cbaf7e;fill-opacity:1;stroke-width:0.332382;stroke-linejoin:bevel;stroke-miterlimit:0"
         d="m 108.58362,165.16598 c -0.29676,-0.0775 -0.53956,-0.36399 -0.53956,-0.63655 0,-0.27254 1.07119,-2.82669 2.38046,-5.6759 1.69348,-3.68535 2.45485,-5.04743 2.63824,-4.71974 0.24949,0.44578 3.3448,8.88463 3.74036,10.19747 0.18159,0.60261 0.0475,0.66252 -1.89225,0.8457 -2.28846,0.21613 -5.47937,0.21059 -6.32725,-0.0114 z"
         id="path15" /><path
         style="fill:#cbaf7e;fill-opacity:1;stroke-width:0.332382;stroke-linejoin:bevel;stroke-miterlimit:0"
         d="m 40.827593,56.999699 v -2.620826 h 48.870672 48.870685 v 2.620826 2.620825 H 89.698265 40.827593 Z"
         id="path16" /></g><path
       style="fill:#9acff1;fill-opacity:1;stroke:#9acff1;stroke-width:0.237558;stroke-linejoin:bevel;stroke-miterlimit:0;stroke-opacity:1"
       d="m 200.58046,147.04152 c -0.0842,-0.21964 -15.39283,-0.27545 -75.52472,-0.27545 -41.480444,0 -75.468579,0.0496 -75.529182,0.1102 -0.06061,0.0606 -3.134753,0.0606 -6.831452,0 l -6.721267,-0.1102 V 115.14304 83.520029 l 6.687452,-0.11018 c 3.678097,-0.0606 6.733314,-0.0358 6.789364,0.05509 0.05606,0.0909 34.063612,0.165285 75.572355,0.165285 67.44273,0 75.48417,-0.03576 75.59945,-0.33618 0.0905,-0.235795 0.20899,-0.26979 0.39688,-0.113854 0.16148,0.13398 2.62487,0.245671 6.1997,0.281085 l 5.93182,0.05878 v 31.623025 31.623 l -5.83253,0.0586 c -3.44354,0.0347 -5.92124,0.14759 -6.04913,0.27549 -0.29492,0.29491 -0.56175,0.27208 -0.68874,-0.0586 z m 10.271,-25.51552 c 0.40636,-0.21747 0.42625,-0.52589 0.42625,-6.60333 0,-6.07744 -0.0203,-6.38586 -0.42625,-6.60334 -0.57419,-0.30728 -172.29235,-0.32038 -173.100319,-0.0131 l -0.56527,0.21493 v 6.38522 c 0,5.84867 0.03241,6.40408 0.385647,6.60983 0.543045,0.31629 172.689082,0.32613 173.279942,0.009 z"
       id="path9"
       inkscape:label="path9" /><g
       id="g4"
       inkscape:label="azul"
       style="stroke:#004996;stroke-opacity:1"><path
         style="fill:#004996;fill-opacity:1;stroke:#004996;stroke-width:0.950234;stroke-linejoin:bevel;stroke-miterlimit:0;stroke-opacity:1"
         d="m 128.77144,279.24486 c -1.89079,-1.37363 -4.0039,-3.18476 -4.69581,-4.02475 -1.64761,-2.0003 -5.40138,-3.9031 -10.95107,-5.5512 l -4.49054,-1.33353 3.94243,-3.36102 3.94241,-3.36099 0.26257,-39.18554 0.26257,-39.18551 -7.31439,-0.39798 c -12.326129,-0.67068 -19.545843,-5.10148 -24.640727,-15.12221 -1.442285,-2.83672 -2.420459,-5.35957 -2.173711,-5.60632 0.246749,-0.24673 3.408658,1.53116 7.026462,3.95091 8.598189,5.75082 12.377526,6.37237 38.746176,6.37237 19.74343,0 21.05155,-0.10331 24.87552,-1.96094 3.23599,-1.57218 4.17947,-1.72916 4.7588,-0.79178 1.25388,2.02881 6.47814,17.79075 6.04149,18.22748 -0.22948,0.22945 -2.6021,-0.58305 -5.27249,-1.8056 -6.51307,-2.98176 -14.01181,-4.2633 -20.73404,-3.54339 l -5.53088,0.59228 v 8.74463 c 0,9.10704 0.2416,9.61131 3.92717,8.19705 1.72284,-0.66111 4.00612,-4.84566 4.00612,-7.34197 0,-1.03204 0.57678,-1.80671 1.34518,-1.80671 1.15697,0 1.31112,1.85038 1.10184,13.22428 -0.24183,13.14309 -1.05607,16.18554 -2.88904,10.79512 -1.27298,-3.74371 -3.00152,-5.50839 -5.39551,-5.50839 h -2.09576 v 22.47767 c 0,18.91745 0.19991,22.47772 1.2622,22.47772 2.70117,0 6.63916,-7.5535 20.35376,-39.0407 5.23478,-12.0185 9.81168,-21.53846 10.17084,-21.15545 0.35916,0.38302 3.8841,10.01801 7.83317,21.4111 9.74302,28.10852 11.37847,32.45281 13.85451,36.80169 l 2.13294,3.74628 h -11.49638 c -11.28241,0 -11.46529,-0.031 -9.82663,-1.66971 2.02737,-2.02739 3.0276,-7.51098 2.02676,-11.11172 l -0.73503,-2.64441 -9.8174,-0.24889 -9.81738,-0.24888 -1.3596,2.62918 c -0.74779,1.44602 -1.3596,3.98862 -1.3596,5.65018 0,3.15008 1.24131,4.69572 5.19684,6.47082 1.92,0.86165 0.60066,1.04197 -8.06164,1.10187 l -10.35736,0.0717 v 3.04096 c 0,2.94271 3.55786,9.41019 6.5367,11.88242 0.71229,0.59116 3.20209,1.34763 5.53286,1.68102 5.50831,0.78794 5.49547,2.38832 -0.0491,6.09362 -5.74801,3.84149 -11.12416,3.96433 -16.07546,0.36734 z m 36.26905,-45.16763 c 0.53193,-0.86067 -4.35119,-15.39073 -5.66835,-16.8666 -0.7708,-0.86369 -8.26208,15.8512 -7.59089,16.9372 0.73301,1.18606 12.52137,1.1233 13.25924,-0.0708 z"
         id="path17" /><path
         style="fill:#004996;fill-opacity:1;stroke:#004996;stroke-width:0.0839898;stroke-linejoin:bevel;stroke-miterlimit:0;stroke-opacity:1"
         d="m 50.190422,77.060122 v -6.427765 h 39.657387 39.657401 v 2.493193 2.493194 H 92.691613 55.878022 v 3.934571 3.934578 h -2.843799 -2.843801 z"
         id="path19" /><path
         style="fill:#004996;fill-opacity:1;stroke:#004996;stroke-width:0.167979;stroke-linejoin:bevel;stroke-miterlimit:0;stroke-opacity:1"
         d="M 196.27609,79.51436 V 75.618744 H 162.92961 129.58312 V 73.12555 70.632357 h 35.76177 35.76176 v 6.214489 6.214487 l -0.69228,0.174317 c -0.38077,0.09587 -1.46765,0.17432 -2.41528,0.17432 h -1.723 z"
         id="path20" /><path
         d="m 56.379954,256.87902 c 6.875934,-7.01641 22.154345,-32.7707 32.975115,-61.06814 1.1192,-2.92682 1.191171,-3.03122 1.744388,-2.53058 0.317362,0.28721 1.27292,2.29204 2.123458,4.4552 1.631406,4.14909 1.966335,5.10899 9.528185,27.30671 7.96496,23.38109 8.30457,24.25389 10.92813,28.086 0.76348,1.11517 1.38811,2.23251 1.38811,2.48305 0,1.0564 -1.49865,1.20922 -11.90951,1.21425 -12.188965,0.005 -11.985172,0.0633 -9.614308,-2.71492 2.737883,-3.20844 3.308153,-6.35909 1.947438,-10.75896 l -0.698761,-2.25946 h -9.747741 -9.74777 l -1.001786,2.10359 c -1.258426,2.64254 -1.653162,4.74157 -1.272748,6.76786 0.549058,2.92459 2.229936,4.62055 5.057988,5.1033 1.400082,0.23903 1.90557,1.03526 0.929128,1.46356 -0.308386,0.13522 -5.660306,0.30871 -11.89317,0.38547 m 23.795073,-22.32982 c 0.512122,-0.10963 0.97457,-0.4248 1.027658,-0.70045 0.0942,-0.48914 -3.881754,-11.78692 -5.184635,-14.73232 -0.366205,-0.82789 -0.796763,-1.39322 -0.976456,-1.28219 -0.527931,0.32628 -7.484571,15.47 -7.484571,16.29297 0,0.18234 0.17532,0.40215 0.389563,0.48861 0.563151,0.22722 11.124151,0.16976 12.228441,-0.0666 z"
         style="fill:#004996;fill-opacity:1;stroke:#004996;stroke-width:0.335958;stroke-linejoin:bevel;stroke-miterlimit:0;stroke-opacity:1"
         id="path1-3"
         sodipodi:nodetypes="cssssssccscccsssscssscscss" /><path
         style="fill:#004996;fill-opacity:1;stroke:#004996;stroke-width:0;stroke-linejoin:bevel;stroke-miterlimit:0;stroke-dasharray:none;stroke-opacity:1"
         d="m 168.06223,290.26005 c 7.769,-1.515 10.43036,-2.15533 13.21111,-3.17856 5.05904,-1.86158 8.33414,-4.70738 10.58644,-9.1988 1.65705,-3.30436 3.01308,-9.3097 3.64238,-16.1307 0.72989,-7.91127 0.82424,-14.90768 0.90781,-67.32318 l 0.0769,-48.19993 1.84541,0.0834 c 1.01496,0.0457 1.87824,0.11264 1.91838,0.14846 0.0402,0.0359 0.0725,25.99109 0.0717,57.67828 l -0.001,57.61309 -1.21537,7.44493 -1.21537,7.44495 -2.02953,3.35007 -2.02953,3.35006 -2.73908,2.24649 c -4.82293,3.95562 -4.67096,3.85834 -6.85507,4.3887 l -1.89317,0.45971 -7.50591,-0.0173 c -5.32099,-0.0129 -7.29344,-0.0587 -6.77602,-0.1596 z"
         id="path3" /><path
         style="fill:#004996;fill-opacity:1;stroke:#004996;stroke-width:0;stroke-linejoin:bevel;stroke-miterlimit:0;stroke-dasharray:none;stroke-opacity:1"
         d="m 115.43899,305.21476 -10.23167,-6.33996 -4.83887,-1.19028 c -2.661374,-0.65465 -10.226135,-2.30752 -16.810579,-3.67308 -6.768638,-1.40374 -12.196954,-2.62914 -12.489966,-2.81948 -0.285038,-0.18516 -4.187823,-2.95795 -8.672857,-6.16171 l -8.154606,-5.82505 -1.704841,-5.02929 -1.704844,-5.0293 0.0017,-34.99255 c 9.65e-4,-19.2459 0.06352,-46.90704 0.139026,-61.46921 l 0.137269,-26.47667 h 2.339984 2.339986 l 7.31e-4,58.06287 c 4.67e-4,37.08062 0.07666,59.25313 0.210846,61.35666 0.24968,3.91409 0.732274,6.45221 1.642574,8.63886 2.255688,5.4184 6.730527,9.30309 14.042169,12.19031 5.023612,1.98372 9.859169,3.2105 21.309697,5.40626 8.125351,1.55811 10.552461,2.12081 13.459821,3.12044 4.46871,1.53648 7.69221,3.43182 14.90921,8.76635 2.28659,1.69017 4.28395,3.07302 4.43858,3.07299 0.37784,-4e-5 2.8289,-1.58535 5.96412,-3.85754 6.32185,-4.58161 10.03248,-6.63843 14.96158,-8.2933 3.60353,-1.20981 5.84867,-1.70062 14.62221,-3.19656 l 6.43528,-1.09726 6.8891,0.11936 6.88911,0.11935 -5.444,1.40998 c -3.02977,0.7847 -10.57439,2.43933 -17.0129,3.73115 l -11.56894,2.32118 -3.28306,1.72237 c -2.02691,1.06336 -6.1938,3.64452 -10.89034,6.74597 -4.18397,2.76298 -7.62674,5.01989 -7.65058,5.01537 -0.0238,-0.004 -4.64759,-2.86122 -10.27501,-6.34822 z"
         id="path4" /></g><path
       style="fill:#ffffff;stroke:#b3b3b3;stroke-width:0;stroke-linejoin:bevel;stroke-miterlimit:0;stroke-opacity:1"
       d="m 37.483871,114.96994 v -6.42309 h 86.711629 86.71162 v 6.42309 6.42308 H 124.1955 37.483871 Z"
       id="path1" /><path
       style="fill:#009982;fill-opacity:1;stroke:#009982;stroke-width:0;stroke-linejoin:bevel;stroke-miterlimit:0;stroke-opacity:1"
       d="m 101.57723,332.51271 c 0.3579,-2.61123 0.33982,-2.64529 -1.56084,-2.9418 -1.057619,-0.16496 -4.874158,-0.46308 -8.481206,-0.66246 -7.78304,-0.43023 -20.726269,-3.61894 -19.20494,-4.73136 1.642102,-1.20074 8.895622,-8.14202 8.684173,-8.31033 -0.942569,-0.75034 -10.391025,-6.31537 -10.722428,-6.31537 -0.234213,0 -0.74124,0.95564 -1.126728,2.12371 -0.807033,2.44531 -1.771097,2.91744 -7.043559,3.44949 -3.064861,0.30927 -4.806517,0.0895 -9.241188,-1.16671 -6.375157,-1.80575 -6.714709,-1.9977 -12.578737,-7.11202 -3.828568,-3.33908 -5.223152,-5.15954 -9.8812,-12.89882 l -5.423492,-9.01103 4.054964,0.41543 c 2.230232,0.22849 5.166139,0.56772 6.524236,0.75386 l 2.469277,0.33843 0.410946,-2.43237 0.410944,-2.43237 -10.183738,-11.3064 -10.183742,-11.3064 -0.0098,-7.64777 c -0.0073,-5.85983 0.298849,-8.93711 1.309759,-13.16268 0.725649,-3.0332 1.480995,-5.51489 1.678549,-5.51489 0.197558,0 1.913177,1.86551 3.812491,4.14564 5.037662,6.04769 4.660651,5.95247 7.133218,1.80177 l 2.151762,-3.61218 -5.846289,-5.61141 c -5.220973,-5.0112 -6.028062,-6.07472 -7.545785,-9.94316 l -1.699499,-4.33172 0.610757,-7.5727 c 0.600506,-7.44554 0.655643,-7.64885 3.284411,-12.10958 l 2.673658,-4.53689 1.083473,2.40272 c 1.19885,2.65858 1.765397,2.86364 3.719046,1.34611 l 1.326151,-1.0301 -4.427832,-8.19453 c -4.361162,-8.07111 -4.429119,-8.26414 -4.51331,-12.81842 -0.06861,-3.7116 0.314782,-5.9504 1.94317,-11.34703 l 2.028644,-6.72312 1.975776,4.78547 c 1.086679,2.63199 2.069345,4.78544 2.183708,4.78544 0.114368,0 1.565745,-2.01219 3.225295,-4.47155 1.659552,-2.45933 3.125177,-4.47154 3.256942,-4.47154 0.131765,0 1.124545,1.60976 2.20617,3.57723 1.081628,1.9675 2.144104,3.57723 2.361053,3.57723 0.216951,0 1.41747,-1.34146 2.667821,-2.98102 1.250349,-1.63954 2.440864,-2.98102 2.645588,-2.98102 0.204723,0 0.756266,1.81098 1.225649,4.02438 0.616389,2.90666 0.754894,6.09659 0.498677,11.48534 l -0.354747,7.46097 -3.006797,5.45025 -3.006803,5.45027 3.151391,3.11224 c 2.875318,2.83961 3.260617,3.54774 4.398204,8.08347 0.868249,3.46181 1.243531,6.83328 1.235987,11.1039 l -0.011,6.13268 -3.027767,5.36584 c -4.426916,7.84548 -4.511812,9.91638 -0.821815,20.04615 l 2.852109,7.82962 -0.643517,5.22656 c -0.487082,3.956 -1.164158,6.26041 -2.785208,9.47939 l -2.141694,4.25282 1.528919,2.6089 c 1.335124,2.27822 2.1117,2.84455 6.126754,4.46802 4.234093,1.71202 5.065042,2.35744 10.503339,8.15839 5.505565,5.87266 5.92418,6.49363 6.181308,9.16967 l 0.27581,2.87036 3.374572,0.94689 c 3.32637,0.93333 3.472261,0.92046 10.214354,-0.89988 9.512129,-2.56825 13.390677,-2.44405 21.422516,0.68604 4.4247,1.72439 7.57885,3.48837 11.68873,6.53715 3.09584,2.2965 5.85478,4.17548 6.13097,4.17548 0.2762,0 0.98778,-0.53659 1.58129,-1.19242 1.02429,-1.13181 4.45001,-1.70035 4.49051,-0.74525 0.0106,0.24593 0.39575,0.94452 0.85626,1.55243 0.78751,1.03953 1.1381,0.852 5.8951,-3.15385 6.26768,-5.27796 13.71384,-8.7496 21.18557,-9.87736 l 5.00194,-0.75497 8.66895,3.22237 c 4.76793,1.77232 8.84767,3.01577 9.06611,2.76323 0.21841,-0.25255 1.51732,-3.15279 2.88641,-6.44499 2.34382,-5.63599 2.82829,-6.32337 8.28967,-11.7615 5.29899,-5.27647 6.17395,-5.90264 10.12168,-7.24386 2.37671,-0.80747 4.57294,-1.62364 4.88047,-1.81373 0.30755,-0.19007 -0.62645,-2.5538 -2.07556,-5.25272 l -2.63474,-4.90712 -0.0105,-8.5299 -0.0105,-8.52989 2.97862,-7.19713 2.97862,-7.19716 -3.64082,-4.24587 -3.6408,-4.24587 0.33223,-13.71271 c 0.1917,-7.91275 0.62224,-14.53139 1.01786,-15.64824 0.65672,-1.85392 0.79003,-1.92096 3.16196,-1.58986 1.36194,0.19012 2.81167,0.449 3.22154,0.57533 1.27104,0.39172 0.86309,-0.66048 -2.87766,-7.42266 l -3.62291,-6.54912 0.21552,-8.23285 c 0.20574,-7.86058 0.30457,-8.42157 2.18571,-12.40631 l 1.97022,-4.17343 1.92367,3.78719 1.92369,3.78721 2.56456,-3.93626 c 1.41052,-2.16494 2.74622,-3.93624 2.96823,-3.93624 0.22201,0 1.4267,1.34146 2.67704,2.98101 1.25035,1.63957 2.44571,2.98013 2.65638,2.97903 0.21066,-0.001 1.49598,-1.62661 2.85629,-3.61225 l 2.47323,-3.61025 1.51149,4.65562 c 1.09962,3.38695 1.61975,6.61655 1.90869,11.8516 l 0.39714,7.19599 -4.01623,6.81487 c -4.91484,8.3396 -5.09208,8.54807 -8.01127,9.42269 -1.29263,0.38728 -2.5012,0.94846 -2.68579,1.2471 -0.30329,0.49078 4.72427,4.79632 5.58807,4.78548 0.19876,-0.001 1.82756,-2.54912 3.6195,-5.6592 2.47188,-4.29011 3.38186,-5.43352 3.77094,-4.73827 1.66222,2.97026 3.65942,10.55552 4.61922,17.54365 l 1.10371,8.03596 -4.17908,7.30616 c -3.77752,6.60415 -4.48609,7.48979 -7.37403,9.21715 -4.415,2.64074 -4.77231,4.53621 -1.78272,9.45759 1.18839,1.95631 2.34253,3.55219 2.56471,3.54641 0.22218,-0.005 2.25093,-2.82286 4.50828,-6.26017 2.25738,-3.43728 4.2873,-6.24964 4.51096,-6.24964 0.22367,0 1.1132,3.77064 1.97674,8.3792 l 1.57013,8.3792 -1.54329,6.90271 -1.54325,6.90274 -8.7271,8.517 c -6.98609,6.81792 -9.07222,9.23912 -10.45711,12.13662 -0.95149,1.99077 -1.6063,3.74332 -1.4551,3.89452 0.15119,0.15118 3.35148,-0.22487 7.11173,-0.83575 3.76026,-0.61086 6.93305,-1.01528 7.0507,-0.8987 0.11765,0.11649 -0.6001,2.63905 -1.595,5.60551 -1.60258,4.77839 -2.375,6.06852 -6.77216,11.31106 -4.92934,5.87706 -5.01044,5.93987 -11.86823,9.19198 -5.24199,2.48587 -8.04192,3.43754 -11.62599,3.95156 -2.59658,0.37239 -5.45267,0.82001 -6.34685,0.99468 -1.46766,0.2867 -1.75639,0.0379 -2.96912,-2.55872 -0.73886,-1.58199 -1.35212,-2.92444 -1.36284,-2.98327 -0.0114,-0.0589 -1.22338,0.15272 -2.6948,0.47008 -1.7586,0.37933 -3.67804,1.45059 -5.60138,3.12626 l -2.92602,2.54922 4.90184,3.79199 c 3.3489,2.5907 4.65363,3.92978 4.11842,4.22682 -0.43087,0.23915 -3.46631,1.36065 -6.74546,2.49225 -6.64726,2.29392 -12.55115,2.97061 -20.12194,2.30631 -2.67068,-0.2343 -4.62059,-0.17682 -4.62059,0.13623 0,0.29793 0.56718,1.45946 1.26041,2.58114 0.69323,1.12166 1.10054,2.1993 0.90511,2.3947 -0.81976,0.81976 -10.18789,-1.79967 -12.55577,-3.51074 -2.1357,-1.54326 -2.47539,-2.11893 -2.82026,-4.77932 -0.29388,-2.26714 -0.85051,-3.48313 -2.22247,-4.85509 l -1.83039,-1.83038 -1.68548,1.61479 c -1.37985,1.322 -2.23407,1.6148 -4.71062,1.6148 -2.79914,0 -3.08047,-0.13365 -3.76599,-1.78862 -0.40748,-0.98374 -0.95173,-1.78862 -1.20946,-1.78862 -0.25772,0 -1.8344,2.659 -3.50376,5.90886 l -3.03516,5.90887 -6.34004,2.12305 -6.34004,2.12302 z"
       id="path205" /></g></svg>
