<?xml version="1.0" encoding="UTF-8" standalone="no"?>
<!-- Created with Inkscape (http://www.inkscape.org/) -->

<svg
   version="1.1"
   id="svg1"
   width="60mm"
   height="60mm"
   viewBox="0 0 226.77165 226.77165"
   sodipodi:docname="arcoiris.svg"
   inkscape:version="1.3.2 (1:1.3.2+202311252150+091e20ef0f)"
   xmlns:inkscape="http://www.inkscape.org/namespaces/inkscape"
   xmlns:sodipodi="http://sodipodi.sourceforge.net/DTD/sodipodi-0.dtd"
   xmlns:xlink="http://www.w3.org/1999/xlink"
   xmlns="http://www.w3.org/2000/svg"
   xmlns:svg="http://www.w3.org/2000/svg"
   xmlns:inkstitch="http://inkstitch.org/namespace">
  <sodipodi:namedview
     id="namedview1"
     pagecolor="#ff00e8"
     bordercolor="#666666"
     borderopacity="1.0"
     inkscape:showpageshadow="2"
     inkscape:pageopacity="0.0"
     inkscape:pagecheckerboard="0"
     inkscape:deskcolor="#d1d1d1"
     inkscape:zoom="1.9233304"
     inkscape:cx="90.988005"
     inkscape:cy="109.70554"
     inkscape:window-width="1848"
     inkscape:window-height="1016"
     inkscape:window-x="72"
     inkscape:window-y="27"
     inkscape:window-maximized="1"
     inkscape:current-layer="g1"
     inkscape:document-units="mm" />
  <metadata
     id="metadata6">
    <inkstitch:min_stitch_len_mm>0</inkstitch:min_stitch_len_mm>
    <inkstitch:collapse_len_mm>3</inkstitch:collapse_len_mm>
    <inkstitch:inkstitch_svg_version>1</inkstitch:inkstitch_svg_version>
  </metadata>
  <defs
     id="defs1">
    <symbol
       id="inkstitch_trim">
      <title
         id="inkstitch_title9282">Trim the thread after sewing this object.</title>
      <path
         id="inkstitch_circle13405"
         d="m 9.2465284,-8.6e-6 c 1.8e-6,2.452339 -0.9741847,4.804237 -2.7082493,6.538304 C 4.8042146,8.2723614 2.4523174,9.2465504 -2.1625959e-5,9.2465514 -2.4523623,9.2465534 -4.8042621,8.2723654 -6.5383288,6.5382984 -8.2723956,4.8042314 -9.2465834,2.4523324 -9.2465816,-8.6e-6 c 6e-7,-2.452339 0.9741895,-4.804237 2.708256,-6.538301 1.7340665,-1.734065 4.0859648,-2.708252 6.538303974041,-2.70825 C 5.1067066,-9.2465576 9.2465271,-5.1067366 9.2465284,-8.6e-6 c 0,0 0,0 0,0"
         style="opacity:1;vector-effect:none;fill:#fafafa;fill-opacity:1;fill-rule:evenodd;stroke:#003399;stroke-width:1.06500006;stroke-linecap:round;stroke-linejoin:miter;stroke-miterlimit:4;stroke-dasharray:3.19500017, 3.19500017;stroke-dashoffset:0;stroke-opacity:1"
         inkscape:connector-curvature="0" />
      <path
         style="color:#000000;font-style:normal;font-variant:normal;font-weight:normal;font-stretch:normal;font-size:medium;line-height:normal;font-family:sans-serif;font-variant-ligatures:normal;font-variant-position:normal;font-variant-caps:normal;font-variant-numeric:normal;font-variant-alternates:normal;font-feature-settings:normal;text-indent:0;text-align:start;text-decoration:none;text-decoration-line:none;text-decoration-style:solid;text-decoration-color:#000000;letter-spacing:normal;word-spacing:normal;text-transform:none;writing-mode:lr-tb;direction:ltr;text-orientation:mixed;dominant-baseline:auto;baseline-shift:baseline;text-anchor:start;white-space:normal;shape-padding:0;clip-rule:nonzero;display:inline;overflow:visible;visibility:visible;opacity:1;isolation:auto;mix-blend-mode:normal;color-interpolation:sRGB;color-interpolation-filters:linearRGB;solid-color:#000000;solid-opacity:1;vector-effect:none;fill:#050505;fill-opacity:1;fill-rule:evenodd;stroke:none;stroke-width:1.41421342;stroke-linecap:butt;stroke-linejoin:miter;stroke-miterlimit:4;stroke-dasharray:none;stroke-dashoffset:0;stroke-opacity:1;color-rendering:auto;image-rendering:auto;shape-rendering:auto;text-rendering:auto;enable-background:accumulate"
         d="m -3.0000256,-5.9834096 c -1.30575,0 -2.375,1.06924 -2.375,2.375 0,1.30575 1.06925,2.375 2.375,2.375 0.58687,0 1.11944,-0.22369 1.53516,-0.58007 0,0 0.61717997,1.62109 0.61717997,1.62109 0,0 -2.29881997,6.01758 -2.29881997,6.01758 0.98655,-0.12511 1.23728,-0.26171 1.67382,-0.97461 0,0 1.33007997,-3.18945 1.33007997,-3.18945 0,0 1.23633003,3.25 1.23633003,3.25 0.23227,0.77906 0.84315,0.79218 1.57813,1.07226 0,0 -2.05469003,-6.14258 -2.05469003,-6.14258 0,0 0.73047003,-1.75 0.73047003,-1.75 0.42849,0.41682 1.01136,0.67578 1.65234,0.67578 1.30575,0 2.375,-1.06925 2.375,-2.375 0,-1.30576 -1.06925,-2.375 -2.375,-2.375 -1.06233,0 -1.95701,0.71265 -2.25781003,1.67969 0,0 -0.0117,-0.0156 -0.0117,-0.0156 0,0 -0.80274,2.10156 -0.80274,2.10156 0,0 -0.59179,-1.76562 -0.59179,-1.76562 -0.18242,-1.12808 -1.15864997,-2 -2.33593997,-2 0,0 -2e-5,-3e-5 -2e-5,-3e-5 m 0,1 c 0.76531,0 1.375,0.60968 1.375,1.375 0,0.76531 -0.60969,1.375 -1.375,1.375 -0.76531,0 -1.375,-0.60969 -1.375,-1.375 0,-0.76532 0.60969,-1.375 1.375,-1.375 0,0 0,0 0,0 m 6,0 c 0.76531,0 1.375,0.60968 1.375,1.375 0,0.76531 -0.60969,1.375 -1.375,1.375 -0.76531,0 -1.375,-0.60969 -1.375,-1.375 0,-0.76532 0.60969,-1.375 1.375,-1.375 0,0 0,0 0,0"
         id="inkstitch_path13416"
         inkscape:connector-curvature="0" />
    </symbol>
  </defs>
  <g
     inkscape:groupmode="layer"
     inkscape:label="Image"
     id="g1">
    <path
       style="fill:#000000;stroke-width:0.375716"
       d="m 123.43497,178.87212 c -6.39653,-0.90351 -13.04671,-5.2516 -16.04575,-10.4912 -1.72382,-3.01168 -2.26061,-5.32352 -2.11812,-9.12219 0.10982,-2.9278 0.30803,-3.83371 1.29114,-5.90094 1.88418,-3.96199 5.20172,-6.67262 9.6604,-7.89311 l 2.25699,-0.61782 0.51149,-2.03778 c 1.43194,-5.70476 5.43188,-10.75618 10.43543,-13.17864 1.64222,-0.79508 3.20613,-1.4456 3.47537,-1.4456 0.64638,0 0.61775,-1.08739 -0.10173,-3.86396 -2.13582,-8.2424 -9.37227,-13.79468 -17.97902,-13.79468 -2.95573,0 -6.09956,0.93334 -9.79626,2.90832 -1.89854,1.01429 -4.83407,4.33186 -6.089102,6.88155 -1.457255,2.96051 -1.967593,5.06961 -1.979604,8.18125 -0.0083,2.14985 0.113075,2.52972 1.260514,3.94502 7.103242,8.76139 4.253712,22.04471 -5.808937,27.07885 -6.293933,3.14872 -12.494177,2.7106 -18.512263,-1.30813 l -2.199974,-1.46909 -1.08291,0.77111 c -3.320511,2.3644 -12.852692,5.89533 -19.315074,7.15469 -7.272827,1.41731 -17.715276,1.30688 -23.694779,-0.25059 -12.622887,-3.28784 -20.8275317,-12.14822 -20.8275317,-22.4921 0,-4.76234 1.4333895,-8.5602 4.6193907,-12.23938 1.186774,-1.37048 4.586333,-3.80855 6.300606,-4.51863 0.790106,-0.32727 1.083923,-0.81517 1.434622,-2.38226 0.546056,-2.44003 2.230094,-6.04868 3.555258,-7.6184 0.685568,-0.81209 0.997329,-1.61465 0.997329,-2.56741 0,-2.59748 2.674099,-11.89514 5.130838,-17.839593 2.04616,-4.95099 5.106246,-10.725226 8.185638,-15.445913 1.540735,-2.361932 2.936683,-4.464227 3.102105,-4.671761 0.165423,-0.207534 1.305045,-1.644647 2.532494,-3.193584 5.612768,-7.082838 13.830801,-14.457344 22.189795,-19.912161 3.359274,-2.192154 13.622884,-7.285161 17.658638,-8.762562 20.742587,-7.593417 43.454197,-7.68109 63.660537,-0.245751 20.24289,7.448789 36.14841,20.358865 47.43642,38.502844 6.8822,11.062227 11.51755,24.100171 13.26815,37.319561 0.55698,4.20597 0.48736,4.80174 -0.6015,5.14733 -0.86964,0.27601 -0.90944,0.67631 -0.13149,1.32196 1.61448,1.33989 3.77468,6.31657 4.16118,9.58649 0.21084,1.78379 0.3279,1.95696 1.87928,2.77996 3.47381,1.84285 7.51992,6.73076 9.24473,11.16812 0.7276,1.87184 0.84801,2.88206 0.84247,7.06828 -0.006,4.63937 -0.0673,5.0315 -1.21901,7.81935 -1.4542,3.51994 -2.81481,5.56829 -5.24702,7.89924 -3.13434,3.00384 -6.9678,5.00764 -11.32572,5.92008 -3.33632,0.69855 -9.15261,0.26676 -12.54359,-0.93119 l -2.91455,-1.02965 -2.90904,1.15554 c -7.65882,3.04226 -16.2235,3.41757 -24.88841,1.09062 -3.42216,-0.91901 -9.32913,-3.81338 -12.18865,-5.97234 l -2.10265,-1.58752 -2.1774,2.07689 c -4.16137,3.96928 -8.82309,6.22398 -14.50125,7.01374 -3.22084,0.44798 -3.57191,0.44763 -6.78948,-0.007 z m 10.86818,-3.73425 c 3.69988,-1.40178 7.18569,-3.70474 9.28816,-6.1364 l 0.99483,-1.15059 -1.9494,-2.26831 c -3.5709,-4.1551 -5.89221,-7.95997 -7.56076,-12.39289 -0.93297,-2.47869 -0.92459,-3.36775 0.0353,-3.73606 0.92756,-0.35594 1.61065,0.16821 2.0711,1.58917 0.70296,2.16938 2.89231,6.40748 4.71796,9.13295 1.50744,2.25044 4.37539,5.33748 7.45908,8.02893 3.37544,2.94607 10.5409,6.22339 15.76728,7.21158 5.68932,1.07573 14.7979,0.28602 19.84383,-1.72045 l 1.04526,-0.41564 -2.64309,-2.49336 c -2.85984,-2.69782 -4.80581,-5.57939 -6.24103,-9.24164 -0.95324,-2.43237 -0.92315,-3.44862 0.11387,-3.84656 0.85409,-0.32775 1.67097,0.67937 2.7264,3.36136 4.13159,10.49882 15.92658,16.08386 26.46783,12.53277 8.97312,-3.02282 14.45726,-11.83022 13.04055,-20.94282 -0.59986,-3.85845 -2.5973,-7.75781 -5.28877,-10.32466 -2.84954,-2.71759 -3.62389,-3.10811 -4.16353,-2.09977 -0.29429,0.54988 -0.71298,0.7445 -1.42472,0.66228 l -1.00797,-0.11645 -0.0357,-3.57479 c -0.0196,-1.96615 -0.25103,-4.24863 -0.51432,-5.07217 -2.71769,-8.50065 -11.83732,-13.36597 -20.18402,-10.76819 -2.26734,0.70568 -6.50543,3.17002 -6.50543,3.78274 0,0.18966 0.59175,1.05312 1.31501,1.91879 1.40112,1.67704 1.63359,2.64931 0.79904,3.34192 -0.73863,0.61301 -1.38715,0.24871 -2.87279,-1.61378 -7.26717,-9.1105 -22.19531,-9.28638 -29.5198,-0.34781 l -1.39493,1.70233 1.76746,1.51077 c 1.2455,1.06463 1.73378,1.74559 1.65346,2.30592 -0.18509,1.29116 -1.34998,1.15423 -3.61943,-0.42547 -5.49954,-3.82808 -11.66757,-4.39026 -17.61787,-1.60577 -4.99801,2.33885 -8.6775,7.37738 -9.46902,12.96642 -0.42362,2.99137 -1.03556,3.87305 -2.24052,3.22816 -1.00579,-0.53827 -3.2975,0.0281 -5.62038,1.38889 -2.01539,1.18071 -4.39149,4.12208 -5.02474,6.22013 -0.73259,2.42715 -0.54245,6.85201 0.39857,9.27558 2.0407,5.25582 7.46318,9.55258 13.77358,10.91417 2.72469,0.58791 9.14519,0.15619 11.61961,-0.78128 z M 52.048991,161.63752 c 2.066436,-0.44786 5.025197,-1.24148 6.575025,-1.76359 3.402353,-1.14621 11.271471,-4.84054 11.271471,-5.29164 0,-0.17753 -0.190507,-0.51329 -0.423349,-0.74613 -0.59318,-0.59318 -0.08108,-2.35695 0.684329,-2.35695 0.34231,0 1.570866,0.9937 2.73013,2.20821 1.239332,1.2984 3.108446,2.7303 4.536553,3.47537 2.349331,1.2257 2.570181,1.26705 6.749533,1.2638 4.024768,-0.003 4.475146,-0.0795 6.575025,-1.11445 9.448022,-4.65672 11.509012,-17.09153 4.067738,-24.54242 -1.10457,-1.10601 -2.950394,-2.43904 -4.154803,-3.00055 -1.96163,-0.91454 -2.577128,-1.00969 -6.48796,-1.00294 -3.72306,0.006 -4.572114,0.12708 -6.138067,0.87222 -1.573614,0.74879 -1.787715,0.98279 -1.596458,1.74483 0.212874,0.84815 -0.54209,2.06158 -1.282652,2.06158 -0.636541,0 -1.502862,-1.19854 -1.502862,-2.07918 0,-1.90502 -1.618505,-5.22668 -3.533193,-7.25117 -2.284472,-2.4155 -4.585186,-3.65854 -7.69988,-4.16015 -4.435384,-0.7143 -8.261597,0.47904 -11.738264,3.66099 -1.165511,1.06671 -2.310374,1.93948 -2.544136,1.93948 -0.23376,0 -0.61989,-0.42769 -0.858059,-0.95042 -0.392455,-0.86134 -0.295475,-1.09131 1.03463,-2.45346 l 1.467673,-1.50303 -0.884998,-1.66824 c -1.899194,-3.58001 -6.082025,-6.56486 -10.28972,-7.3427 -2.689512,-0.49718 -6.449494,0.0826 -9.167961,1.41372 -3.447904,1.68827 -6.779568,5.9964 -7.465699,9.6538 l -0.268063,1.4289 1.211252,-0.26604 c 1.954399,-0.42926 4.443987,0.094 4.729655,0.99404 0.39108,1.23219 -0.397059,1.6067 -3.903003,1.85462 -4.305303,0.30444 -7.504123,1.7591 -10.018809,4.55604 -9.2816412,10.32342 -2.509497,25.69423 13.227421,30.02242 4.60632,1.26689 6.203856,1.41292 14.013888,1.28104 5.758249,-0.0972 8.130664,-0.29801 11.083613,-0.938 z m 94.789069,-33.84128 c 1.00731,-1.61295 -0.66424,-8.38061 -3.34581,-13.5463 -3.07566,-5.92489 -7.71629,-10.37329 -14.04583,-13.46397 -5.17894,-2.528863 -8.22829,-3.210546 -14.27719,-3.191689 -5.71451,0.01781 -9.0194,0.768677 -13.70447,3.113629 -3.891038,1.94752 -6.433074,3.87177 -9.599843,7.26681 -3.835414,4.11188 -6.941088,10.4209 -7.86793,15.98332 l -0.26607,1.59679 1.629817,0.005 c 2.026787,0.006 4.888136,0.75305 6.983766,1.82445 l 1.596791,0.81637 v -1.05585 c 0,-1.62307 1.040098,-5.28514 2.223069,-7.82717 3.07837,-6.61497 11.39306,-11.76401 19.0387,-11.79009 2.57961,-0.009 7.0658,1.18195 9.97656,2.64802 4.88595,2.46094 9.52143,8.65695 10.52244,14.0648 0.22951,1.23987 0.47448,2.46564 0.5444,2.72394 0.0847,0.31307 0.97655,0.47973 2.67499,0.49988 1.40134,0.0166 3.3087,0.24816 4.2386,0.51451 2.46472,0.70596 3.14452,0.67233 3.67801,-0.18191 z m -68.239322,-1.3576 2.128227,-0.69595 0.249121,-2.06644 c 0.351486,-2.91549 2.113578,-7.96745 3.917182,-11.23066 8.178835,-14.797732 25.182132,-21.472186 41.538542,-16.305487 2.821,0.891104 7.83274,3.439622 9.96536,5.067477 0.51661,0.39433 2.10455,1.84925 3.52874,3.23315 4.46723,4.34079 8.00353,10.6238 9.5134,16.9026 0.33339,1.38642 0.65599,2.58408 0.71689,2.66146 0.0609,0.0774 0.66734,-0.32791 1.34766,-0.90063 1.70952,-1.43914 5.63315,-3.19455 8.25336,-3.6925 2.63128,-0.50005 2.65427,-0.60618 1.11537,-5.15175 -4.18189,-12.35242 -14.10924,-23.544063 -25.55003,-28.803936 -12.37739,-5.690466 -24.83482,-6.391901 -37.624112,-2.118481 -3.237696,1.081847 -9.226461,4.20991 -12.423513,6.489073 -3.479322,2.480392 -8.706185,7.616734 -11.123675,10.931024 -2.272055,3.11491 -4.740604,7.6676 -6.287686,11.59624 -2.082963,5.28947 -2.08255,5.33526 0.05745,6.36186 2.858644,1.37136 6.614497,5.37597 7.402752,7.89304 0.149167,0.47632 0.468206,0.7895 0.708976,0.69595 0.240769,-0.0936 1.395464,-0.48326 2.565988,-0.86604 z m 100.511872,-3.95503 c 1.08822,-1.02233 1.08438,-1.55566 -0.0429,-5.95457 -1.45818,-5.69026 -2.76615,-9.26723 -5.10286,-13.95509 -4.45678,-8.94108 -9.94391,-15.814228 -17.46692,-21.878982 -23.7701,-19.162514 -56.995345,-19.739061 -81.530302,-1.414772 -2.093461,1.563533 -9.566592,8.81949 -11.28532,10.957357 -5.461294,6.793132 -10.005511,15.533737 -12.140936,23.352547 -0.731459,2.67821 -0.74447,2.95826 -0.189192,4.07134 0.63821,1.27932 0.582919,1.27678 3.514659,0.16127 0.929896,-0.35382 3.183589,-0.72449 5.008211,-0.82372 1.990861,-0.10826 3.364718,-0.34926 3.435593,-0.60266 2.293823,-8.20087 7.235691,-16.847648 12.974365,-22.701245 9.058983,-9.240393 20.265932,-14.587703 33.353982,-15.914596 11.22091,-1.137596 23.54828,2.108261 33.69726,8.872654 9.47156,6.312888 16.83996,16.024327 20.4904,27.006057 0.61869,1.86122 1.12489,3.68701 1.12489,4.05731 0,0.84531 1.09925,1.45115 2.63299,1.45115 1.67297,0 6.42235,1.66531 8.5377,2.99363 0.98533,0.61873 1.86514,1.12818 1.95514,1.13211 0.09,0.004 0.55495,-0.36048 1.03322,-0.80979 z m 24.73369,-4.08198 c -3.42803,-25.713832 -17.497,-48.663598 -38.58525,-62.941466 -1.65942,-1.123511 -3.08076,-2.042748 -3.15855,-2.042748 -0.0778,0 -1.20112,-0.648561 -2.49628,-1.441242 -3.326,-2.035631 -10.7648,-5.49087 -14.94131,-6.940078 -10.38933,-3.604995 -18.25967,-4.914677 -29.68154,-4.939225 -8.19685,-0.01762 -11.42872,0.28658 -18.410069,1.732849 -17.48958,3.623173 -34.077853,12.707403 -46.272251,25.340059 -2.35239,2.436933 -3.052247,3.240954 -6.327946,7.269759 -4.299585,5.288094 -9.325529,13.866615 -12.117254,20.68232 -2.372242,5.791582 -4.789954,13.456872 -4.789954,15.186432 0,0.56289 0.09968,0.56135 1.221077,-0.0188 1.712807,-0.88616 4.694662,-1.63212 6.545172,-1.63738 1.462941,-0.004 1.584126,-0.0855 1.825888,-1.22554 0.42225,-1.99112 3.871215,-10.395935 5.498759,-13.399981 2.933385,-5.414303 5.729376,-9.618578 9.513998,-14.305999 0.415755,-0.51493 2.193029,-2.439578 3.9495,-4.27699 11.839399,-12.384985 26.949062,-20.356165 44.260985,-23.350109 13.235255,-2.288916 25.873905,-1.289873 38.772185,3.064815 4.40504,1.487221 11.63104,4.717569 15.22286,6.805312 1.79686,1.044418 7.46519,4.89922 8.27883,5.630091 0.40686,0.365478 1.58336,1.338138 2.61444,2.161467 5.14424,4.107729 12.25873,12.235064 16.1112,18.404853 4.74974,7.606781 8.94321,17.918161 10.57988,26.014961 l 0.68974,3.41231 1.71199,0.23487 c 2.66271,0.3653 6.59895,1.892 8.56573,3.32227 0.98325,0.71502 1.82247,1.27475 1.86494,1.24384 0.0425,-0.0309 -0.15858,-1.82489 -0.44677,-3.98662 z m -17.54588,0.20323 2.74893,-0.74366 -0.23028,-1.31928 c -1.84562,-10.57354 -7.27825,-22.755465 -14.41151,-32.315817 -2.51089,-3.36523 -8.56965,-9.685541 -12.11875,-12.641895 -4.09889,-3.414341 -9.92732,-7.144537 -15.20331,-9.730138 -17.90109,-8.772758 -38.48299,-10.32035 -57.087223,-4.292491 -5.62206,1.821571 -6.576915,2.209084 -11.528524,4.678667 -11.973365,5.971637 -22.434395,15.299668 -29.712496,26.494444 -2.765523,4.253778 -6.261264,11.109798 -7.719549,15.13996 -1.853386,5.12208 -1.84676,5.01374 -0.324055,5.2994 1.572363,0.29498 4.414431,1.76491 6.300321,3.25856 l 1.376656,1.09034 1.197127,-3.47088 c 1.834556,-5.31899 5.207507,-11.995373 8.68172,-17.184507 2.374768,-3.546985 4.343465,-5.892912 8.043682,-9.584951 5.80019,-5.78737 10.213106,-9.023207 17.110092,-12.546228 20.087439,-10.260784 42.493939,-10.37614 62.540029,-0.321977 18.39693,9.227024 31.75181,26.516063 36.29268,46.983983 0.26548,1.19665 0.66558,2.12497 0.8891,2.06293 0.22354,-0.062 1.64345,-0.44745 3.15536,-0.85646 z"
       id="path1"
       sodipodi:nodetypes="ssssscssssssssssscsssssssssssssssssssssssssssscssscsssssscsssssssscssssssssscsssssssscsssssssssssssssssscsssssssssssssscsssscsssssssssssssscsscssssssssssscssssssssssssssssssssssssssssscssssssssssssssssssssssssssssssssscsssssscsssssssssscssssssss" />
    <g
       id="command_group3"
       inkscape:label="Ink/Stich Instrucci贸n: Trim thread after sewing this object">
      <path
         id="command_connector3"
         d="M 97.711336,8.2560056 102.68331,37.814207"
         style="fill:none;stroke:#000000;stroke-width:1px;stroke-opacity:0.5"
         inkscape:connection-start="#command_use974"
         inkscape:connection-end="#path1"
         inkscape:label="conector"
         inkscape:connector-type="polyline"
         inkscape:connector-curvature="0" />
      <use
         id="command_use974"
         xlink:href="#inkstitch_trim"
         height="100%"
         width="100%"
         x="97.70875908309132"
         y="8.220159022988973"
         inkscape:label="marcador de instrucci贸n" />
    </g>
    <path
       id="path16"
       style="stroke:#000000;stroke-width:1px;fill:none"
       d="M123.81649363700534,177.02124352973175 121.52138167735743,176.54818112706275 119.34092445367617,175.82627670479147 117.2074875609881,174.85658296928557 115.17382788995829,173.66909508518802 113.29156779979586,172.2965810993254 111.61054964049188,170.77520196430316 110.17803975335652,169.14391065217816 109.96270742201857,168.82328579211037 109.02591306188002,167.42842066077847 108.065382773973,165.50263850220992 107.47700895157004,163.68375348019944 107.18775883934903,161.71478914314 107.16146944101425,159.30394023387456 107.26250236761078,157.5864724971492 107.43871581184368,156.39646072565415 107.73945754208732,155.38970353029822 108.26263203575758,154.18631514419212 108.94783315388742,152.92207831656148 109.73349887599315,151.78685130270264 110.6257605733289,150.76312025872573 111.6248634871344,149.84864459467067 112.73227214731331,149.04235739626074 113.94997913919573,148.34503950128953 115.27990718039644,147.75925361780213 116.76501440304746,147.27550832678472 120.04365595368971,146.37805828248398 120.81124314626408,143.3200149178152 121.41965573358266,141.36282889643638 122.21620330750599,139.5271442627479 123.20000884581926,137.78591404972101 124.35279030278414,136.1639561826303 125.65497647473703,134.68533014093515 127.0858719937436,133.37348006719273 128.6244110364324,132.25032322490776 130.28159437599456,131.317647156349 132.38060902542486,130.36635351539925 133.70359382428433,129.90685756833057 134.9934192300097,129.13872690771416 135.28017214951038,127.25985743999973 134.6307824270653,123.83104280179397 133.499879978172,120.59044386041205 131.88114244034756,117.64101647175696 129.82856335997351,115.04013285529938 127.39170462941162,112.82828293994943 124.6210757102472,111.04437921852437 121.56751641623526,109.72598734270294 118.2831467709561,108.90968312360683 114.82349957780005,108.63047775602227 112.27882037718679,108.82962950318692 109.66732417056625,109.4230056571399 106.96562484778947,110.40284959478406 104.05194968382146,111.80554462997631 102.2156691918013,113.13926291867881 100.32339878735522,115.04304186827474 98.59397562998394,117.22840682577093 97.25587112186251,119.44219320328169 96.24181163145815,121.73954805703059 95.56284640797013,123.90568554883467 95.18401402593643,126.11462659760701 95.06528365810807,128.47264423154581 95.10258564416112,130.01167072153495 95.33869471714883,131.33491307475975 95.91335703866693,132.5190429082183 96.69278214882846,133.5599901639617 97.83332373457621,135.14778088868843 98.71344115940013,136.73557837950952 99.39237876738441,138.38387909970777 99.87436434699129,140.0776096176043 100.16288210345758,141.80112358386347 100.26099726450468,143.53794975740396 100.17200212156324,145.27102720400143 99.89915516175314,146.98254619976348 99.44611615477085,148.65479575697174 98.8169764483426,150.27002625095443 98.01587452491776,151.81090257638132 97.0471035196793,153.260398965255 95.91453374316208,154.6024000890948 94.62146625181502,155.82125473627127 93.17004179695971,156.90146747147827 91.56022420894678,157.82857585202973 91.4573782302152,157.8727842988029 89.4146374540016,158.7508584635921 87.30636357616282,159.35885883803064 85.23257799050273,159.6610897737052 83.18143451270586,159.66488638898417 81.13805996289531,159.37149735852265 79.08893012783398,158.775704893958 77.02506037936918,157.86789895602638 74.90182656195594,156.61272395827868 71.66105245432922,154.44862339395397 69.56802351776076,155.93900534333795 68.17219413763891,156.79827430570253 66.31544245708726,157.73392128921978 61.47376386313439,159.73458593511015 56.04754283907752,161.5369808467243 50.918180811996166,162.81676993983217 48.189076858401975,163.2555633053174 45.23908122386022,163.56107007126303 38.98679588455085,163.76848028977543 32.98662842821935,163.43215065394034 30.36403542366192,163.07227429972085 28.065930247734375,162.585603417845 25.880166407849135,161.94255946028318 23.790667916951932,161.17934763054683 21.816366920749715,160.30662404039668 19.96218433171248,159.33097126907654 18.23320455904998,158.2592175420732 16.634176021487157,157.0981460355211 15.169607246756629,155.85442862014693 13.843668861920596,154.53459288059676 12.660542622539772,153.14547755490383 11.623841273130283,151.69299717423448 10.736914434563628,150.18298942668403 10.003030057456069,148.62050250091488 9.42533414083011,147.01029607060107 9.007449062508323,145.3560774185915 8.753292687532163,143.66083005474732 8.668729095440456,141.9561593646384 8.9224436151003,138.80168541348417 9.223457697031593,137.42453300644254 9.660412344225554,136.06912342490554 10.230252709538064,134.75708083491108 10.922313866216607,133.50599704017668 12.816632435555842,130.94310084042542 13.871839575669695,129.93852939379664 15.4492708846555,128.71732203646542 17.120081033896394,127.60911842525043 18.60463929385855,126.8259361355787 19.42479816109785,126.35791946596161 20.252823469696885,125.39192684865513 20.93168355610282,123.3574350117082 21.51189001913801,121.42276825673348 22.328781005296683,119.45260313535792 23.32194685227617,117.5537423991457  M123.05350636299467,180.72295647026823 120.54261832264257,180.20541887293726 117.96107554632383,179.35072329520855 115.4681124390119,178.21761703071445 113.10217211004172,176.83610491481198 110.90343220020414,175.2328189006746 108.91365035950813,173.43199803569684 107.1767602466435,171.45408934782185 106.32661895157455,170.18824862582855 105.75248693811999,169.33337933922152 104.55661722602702,166.93576149779008 103.78359104842997,164.54604651980057 103.41124116065096,162.01141085686 103.38073055898576,159.21345976612545 103.49929763238922,157.1979275028508 103.73968418815633,155.57453927434585 104.18294245791269,154.09069646970175 104.86176796424243,152.52928485580787 105.7229668461126,150.9403216834385 106.74570112400684,149.46254869729734 107.91663942667108,148.11907974127428 109.22913651286561,146.9177554053293 110.6747278526867,145.86524260373926 112.24442086080427,144.96636049871046 113.92949281960355,144.2241463821979 115.68018559695254,143.65389167321527 116.9155440463103,143.31574171751603 117.17095685373593,142.2981850821848 117.87114426641733,140.0457711035636 118.827996692494,137.8406557372521 120.00579115418076,135.75608595027896 121.38620969721586,133.8138438173697 122.95202352526297,132.03586985906486 124.6871280062564,130.44511993280727 126.57618896356765,129.0660767750922 128.5714056240056,127.94315284365092 130.97759097457515,126.85264648460071 131.33295905730282,126.72922088373839 130.96961757293468,124.81075719820602 130.03512002182802,122.13295613958795 128.71925755965242,119.73538352824303 127.05603664002642,117.62786714470059 125.08289537058839,115.83691706005057 122.8369242897528,114.39082078147564 120.35448358376473,113.31901265729705 117.6712532290439,112.65211687639318 114.81890042219996,112.42192224397773 112.84797962281321,112.57617049681308 110.73447582943376,113.0563943428601 108.43337515221053,113.89095040521595 105.99785031617854,115.06345537002369 104.6823308081987,116.01893708132118 103.15460121264479,117.55595813172525 101.70542437001605,119.38719317422907 100.61572887813749,121.19000679671832 99.78498836854186,123.07205194296941 99.24515359202987,124.79431445116532 98.94738597406358,126.53057340239296 98.84711634189192,128.52195576845418 98.87401435583887,129.63172927846503 98.96750528285116,130.15568692524022 99.15564296133306,130.54335709178173 99.74061785117155,131.3246098360383 101.03187626542378,133.12221911131155 102.12495884059987,135.09422162049046 102.96882123261558,137.1429209002922 103.56723565300871,139.24579038239568 103.92471789654243,141.3812764161365 104.0460027354953,143.52825024259602 103.93619787843677,145.66657279599855 103.59984483824685,147.77645380023654 103.04128384522916,149.83820424302826 102.26462355165741,151.83217374904555 101.27352547508224,153.73849742361867 100.0718964803207,155.536401034745 98.6638662568379,157.20479991090522 97.05413374818498,158.72214526372875 95.24855820304029,160.06593252852173 93.25537579105321,161.21382414797026 92.55508715669903,161.51484391752797 90.68956254599838,162.31674153640793 88.10623642383717,163.06174116196934 85.51002200949728,163.4401102262948 82.91496548729413,163.44491361101583 80.33794003710469,163.07490264147734 77.79486987216603,162.335495106042 75.29633962063083,161.23650104397362 72.88917343804405,159.81347604172132 71.72994754567077,159.03937660604603 71.65717648223924,159.09119465666203 70.01660586236108,160.10112569429748 67.88975754291273,161.1728787107802 62.79283613686561,163.27901406488985 57.10225716092248,165.16921915327572 51.67701918800384,166.52283006016785 48.68412314159802,167.00403669468258 45.49671877613978,167.33412992873696 38.943604115449155,167.55151971022457 32.62337157178065,167.19724934605964 29.71476457633808,166.79812570027917 27.139669752265622,166.25279658215499 24.697233592150862,165.53424053971685 22.37673208304807,164.68665236945316 20.170433079250287,163.7113759596033 18.08421566828752,162.61362873092344 16.124395440950018,161.3987824579268 14.297223978512866,160.07205396447895 12.609192753243372,158.63857137985306 11.067131138079402,157.10360711940322 9.678257377460227,155.47292244509617 8.449958726869715,153.75200282576552 7.389885565436374,151.947210573316 6.505969942543931,150.0652974990851 5.805865859169887,148.1139039293989 5.297350937491679,146.1009225814085 4.987707312467835,144.03556994525263 4.881670904559543,141.89804063536158 5.1755563848997,138.24411458651585 5.570142302968408,136.43886699355747 6.119987655774446,134.73327657509444 6.835547290461935,133.08571916508893 7.735286133783394,131.4592029598233 9.972567564444157,128.4322991595746 11.405560424330305,127.06807060620336 13.2449291153445,125.64407796353457 15.18891896610361,124.35468157474956 16.78576070614145,123.5122638644213 16.921482700262263,123.43481526486397 17.32811644389718,122.2161649882918 17.946909980861985,120.15283174326653 18.901818994703316,117.84979686464209 19.972853147723832,115.80205760085428  M108.13283182744937,158.88156387126145 102.47332467415762,158.54863384959992  M127.577249643077,134.2026204746169 123.89113301047784,129.89525378621434  M108.92004034793109,108.68892325250583 110.85296426762145,114.01852630884811  M98.11499249350857,116.3110352917187 102.56062743267842,119.82915888322543  M98.61985636162075,148.09121432404964 104.09189178567411,149.57367576887344  M92.78104261172456,156.01313078441274 96.16583775274276,160.56110016324806  M85.78258546776078,158.62606866722726 86.60018375367858,164.2360951074812  M57.965639820330644,159.90421412062022 59.75276364276382,165.28446058902443  M46.968612009374475,162.43202148934805 47.552610490983874,168.07115346075656  M35.51244275252722,162.6273659549457 35.195157903586335,168.2877717656731  M24.684148090475595,160.4997608796522 22.739069104284077,165.82493987710947  M17.554171434407444,156.59846604853448 14.22314277040045,161.18596118826463  M9.714239857997697,143.71580098708077 4.076241669162851,144.31064553835367  M10.57077731117839,136.34492742053195 5.3707521615389515,134.08647616788082  "
       inkstitch:satin_column="true" />
    <path
       id="path17"
       style="stroke:#000000;stroke-width:1px;fill:none"
       d="M23.20468369578568,117.74844871885843 24.270001712356546,116.19877391302465 25.237295767746904,114.62343354152425 25.547206229636124,112.90904888790283 25.99318606763624,109.93001697133609 27.144349400423177,105.45541340806442 28.763172826239824,100.30524539516516 30.563501818753775,95.4765516717041 32.230823124187616,91.7322974202141 34.1889738990849,87.83698796869767 36.33853577287408,83.98126411991852 38.59041537728236,80.33493776257092 41.63122435768664,75.75544277702798 44.099826091425406,72.6424214554611 46.27953562286294,70.02786865176479 48.64910042270654,67.43539463813488 53.96224211731346,62.290527822469166 59.7873845634315,57.44073564100163 62.796006596187894,55.20919368148775 65.83016996603857,53.13875023443801 69.33890813271864,51.11045087360009 74.23924042364352,48.581651305493956 79.26721883419599,46.18384575400326 83.15571426794456,44.54224450832237 86.96500821462547,43.241248687608426 90.83693647454061,42.10460233855265 94.74114814162209,41.140358686953306 98.67131235986015,40.34862228362333 102.62083652044366,39.72938691229297 106.58313337924737,39.28265352176755 110.55191560493986,39.0085963958507 114.52057349549476,38.906996715980426 118.48269902348761,38.97792214266523 122.43170834480914,39.22142936492947 126.36115612768857,39.63736986475224 130.264650469358,40.22588555583001 134.13568592661727,40.98671859084346 137.96773706786672,41.9199899930115 141.7544892990098,43.02564608758707 145.49296471894755,44.30477862582094 149.1658208511346,45.73739457056068 152.73967234769603,47.29561972480185 156.21094583035227,48.97786508138643 159.57961746844487,50.783728679765744 162.8456804576096,52.71295806413904 166.00913370998796,54.765094488111686 169.06965995471674,56.94016329978457 172.02757402606022,59.237989517571364 174.88257698301257,61.65836951872352 177.63468598925195,64.20127790794113 180.28364947580494,66.86659241656967 182.82932279819326,69.65446364325018 185.27157281419696,72.56482464194261 187.60994580509703,75.59774057678023 189.8443195303249,78.7531658305957 191.9696929883885,82.02431191398998 194.3951272557848,86.17812418739732 196.60453279623366,90.48862435442882 198.59425581192292,94.9419352781482 200.3561432873225,99.5167260023553 201.88265214324574,104.19135299339061 203.16588908626605,108.94449635587145 204.19842513278257,113.75450289419103 204.9746447637349,118.61046613384747 205.25307237743857,121.00564417760917 205.2660160088716,121.87124227429244 204.45452783791276,122.25044845923236 203.47933795209883,123.76624977076531 204.03268706159372,125.3950267564532 204.7515684622408,126.13096069265049 205.268289833823,126.67737395469871 205.7659419209011,127.39722494412534 206.92034824251633,129.64923955444604 207.87008529776728,132.24703082270193 208.41634990708022,134.7528403321569 208.6048247456137,135.98079288418387 209.11136174959898,137.24313886365678 210.09572550253594,138.18071762432785 211.18086703357324,138.80776968282248 212.3850738638693,139.5600010059246 213.5465959814865,140.48629674053814 215.9750579699617,143.00944902716978 218.11556501045794,146.00923443279248 218.95758799130874,147.5238296950169 219.63707005045836,149.0443293481779 220.00584524254728,150.14024560875632 220.2114998142789,151.2300226383996 220.35158701658784,155.44508664772306 220.32179527680614,158.1234601564842 220.19087310069818,159.7221536644694 219.89254639208556,160.92784634797138 219.2803883782887,162.50966990545825 218.25089651337265,164.76562779582778 217.19013378203073,166.58978653092507 215.9751917753928,168.19400716108504 214.48278375324048,169.76024455535796 212.1905429243901,171.66867304583727 209.69368412982547,173.20835223865421 206.9817506473943,174.3909619619105 204.08942489468805,175.20138663373183 201.47608175759376,175.48861389265898 198.3382789441231,175.4212958985354 195.18271027802817,175.02092902861878 192.45694120123542,174.32196842360545 188.95304150912241,173.08403206643658 185.4225453515395,174.486473151206 182.62338570846285,175.46260908633502 179.78935870471918,176.18835138714314 176.88999433958347,176.67673632882148 173.93267102740867,176.92692677456876 170.9252957489415,176.9378775742972 167.8757922155173,176.70830606298873 164.79265354943226,176.23677958316537 161.7160943557054,175.5290884362626 158.94415603177174,174.5719271528922 155.72104829546612,173.12895509864413 152.59812367306662,171.46239713124154 150.09255931509816,169.8285157071653 146.76051366227685,167.31272378324883 143.44546211765464,170.47476592205007 141.93789165380008,171.81455378033752 140.41502340448443,172.97750854329252 138.845500085724,173.99114553134694 137.2203983885081,174.86170937470794 135.52987000259776,175.59478504649897 133.76359182221594,176.19470195751967 131.91101122477278,176.66456137566226 129.9681331237419,177.00535335218515 126.83050778017451,177.3148658639917 121.54523624000034,176.7822114167427 121.54523624000001,178.8721  M20.090116304214323,115.60735128114156 21.10019828764345,114.13802608697536 21.64450423225309,113.25156645847575 21.817793770363874,112.29295111209717 22.28421393236376,109.17738302866393 23.50885059957682,104.41718659193559 25.187227173760178,99.07755460483484 27.06309818124623,94.04624832829589 28.814176875812386,90.11390257978591 30.84842610091514,86.06721203130226 33.07846422712592,82.06713588008147 35.407384622717636,78.29606223742908 38.57077564231336,73.53195722297201 41.16717390857459,70.25777854453891 43.43166437713707,67.54153134823521 45.937099577293466,64.80040536186513 51.43495788268654,59.476672177530844 57.4506154365685,54.46826435899837 60.604193403812104,52.129206318512246 63.816430033961396,49.937249765562 67.52549186728133,47.793149126399925 72.55875957635648,45.19574869450605 77.717981165804,42.735354245996746 81.80828573205544,41.008555491677626 85.82139178537452,39.63795131239158 89.85106352545938,38.45499766144735 93.9144518583779,37.4514413130467 98.00508764013985,36.62737771637667 102.11616347955633,35.98281308770703 106.24106662075262,35.51774647823245 110.37328439506013,35.2324036041493 114.50602650450524,35.12660328401958 118.63290097651239,35.20047785733476 122.74709165519086,35.45417063507054 126.84204387231144,35.887630135247775 130.91114953064198,36.501114444169986 134.9477140733827,37.29448140915653 138.94506293213328,38.268010006988504 142.8965107009902,39.421753912412925 146.79203528105248,40.75462137417907 150.6083791488654,42.243205429439314 154.31972765230392,43.861380275198144 157.92865416964767,45.610334918613574 161.43438253155514,47.48967132023425 164.8361195423904,49.49904193586096 168.13326629001205,51.63790551188832 171.32474004528328,53.906036700215424 174.41002597393975,56.30281048242864 177.38822301698744,58.827630481276486 180.25871401074812,61.479922092058956 183.02075052419505,64.25900758343032 185.67367720180673,67.16433635674983 188.21702718580306,70.19517535805738 190.65005419490296,73.35085942321977 192.9724804696751,76.6306341694043 195.18810701161152,80.04068808601002 197.71127274421522,84.36187581260268 200.01406720376636,88.85457564557117 202.08554418807708,93.49086472185179 203.9184567126775,98.25007399764469 205.50594785675426,103.11144700660938 206.84051091373394,108.05470364412855 207.91477486721743,113.05909710580897 208.71955523626514,118.09373386615252 209.02932762256142,120.75855582239082 209.05836998310767,122.70074740457102 208.40763357343207,124.44498464098402 208.34452960163208,124.48081283016622 209.01605807909888,125.45217505587466 210.3900517574837,128.13256044555393 211.50811470223272,131.19076917729805 212.13425009291976,134.06295966784313 212.27457525438626,134.97720711581616 212.313038250401,135.0730611363432 212.37647449746405,135.13348237567217 213.1281329664268,135.56783031717754 214.57172613613068,136.46959899407543 216.09740401851352,137.68630325946185 218.89054203003826,140.58835097283023 221.31563498954205,143.9869655672075 222.34101200869128,145.83137030498312 223.16152994954166,147.66747065182207 223.67135475745275,149.18255439124366 223.97930018572112,150.8143773616004 224.13181298341217,155.40331335227697 224.09960472319386,158.29893984351577 223.93292689930183,160.3342463355306 223.50385360791446,162.0683536520286 222.76501162171127,163.97753009454172 221.61190348662734,166.5043722041722 220.34186621796925,168.68841346907496 218.8590082246072,170.64639283891495 217.06861624675952,172.52535544464203 214.40265707560994,174.7449269541627 211.44971587017451,176.5658477613458 208.2530493526057,177.9598380380895 204.81057510531193,178.9244133662682 201.64271824240626,179.272586107341 198.05912105587691,179.19570410146463 194.47268972197182,178.7406709713812 191.35585879876456,177.94143157639454 189.03075849087756,177.11996793356343 186.7430546484605,178.02872684879398 183.71641429153718,179.084190913665 180.57344129528082,179.88904861285687 177.36400566041655,180.42966367117853 174.0991289725913,180.70587322543122 170.7901042510585,180.7179224257028 167.4476077844827,180.46629393701127 164.08234645056774,179.95162041683463 160.6727056442946,179.16731156373737 157.55244396822826,178.08987284710784 154.0571517045339,176.52504490135587 150.67247632693338,174.71880286875844 147.91904068490183,172.9232842928347 147.04568633772314,172.26387621675116 146.00593788234534,173.2556340779499 144.34350834619994,174.73304621966247 142.59057659551559,176.07169145670747 140.766299914276,177.24985446865304 138.8674016114919,178.26709062529207 136.89172999740225,179.123814953501 134.83760817778406,179.82149804248036 132.7031887752272,180.36283862433774 130.48086687625812,180.75264664781483 126.8264922198255,181.11313413600828 123.24550778386632,180.75223928494066  M36.140017570291846,86.2778016616838 31.18825606739095,83.51719998163783  M45.4083036119041,72.54849478791637 41.05378340810388,68.91820314506178  M50.99658774690806,66.47752991487846 47.05280755478306,62.40475918554855  M57.16079036849937,60.857032236930635 53.53338226665171,56.50010968997918  M74.45674739096073,49.53235308307808 71.92982287559785,44.457363811055714  M102.04841767546982,40.775559979578375 101.17027247116091,35.17469177744816  M130.88597556994446,41.31096329019115 131.97932896240698,35.74810054007096  M165.25246707287943,55.40021024262023 168.40224576495052,50.68642643250982  M186.20123410185712,75.31810412472056 190.6910124783034,71.85649268669356  M196.74157248803402,93.11162042070703 201.91770827534964,90.79894190246145  M219.3887977412642,157.04976442133218 225.0577383437424,157.1128204524326  M217.5273083095701,164.07537106014843 222.6736436091775,166.45362600894993  M209.87197151157363,171.98832537222825 212.84764789219463,176.81390447688483  M170.1620824107089,175.93286608053955 169.73649335170316,181.58616048029785  M135.13706879144408,174.730303579925 136.96034634789672,180.09840590473405  "
       inkstitch:satin_column="true" />
    <path
       style="fill:#f3084c;fill-opacity:1;stroke-width:0.421166;stroke-linejoin:bevel;stroke-miterlimit:0"
       d="m 203.23257,121.44691 c -1.51513,-1.16612 -6.27928,-3.17515 -8.61147,-3.63144 l -2.36099,-0.46192 -0.6952,-3.3774 c -1.54841,-7.52241 -5.83087,-18.097346 -10.3496,-25.556955 -2.7783,-4.586448 -7.87973,-10.79193 -12.61035,-15.339428 C 161.50178,66.251515 155.36958,62.11082 146.58272,58.209519 136.85375,53.88992 128.8304,51.795455 118.83029,50.964857 104.95478,49.812368 88.56466,53.265536 75.733898,60.044658 57.659697,69.594144 43.635311,86.14844 37.014894,105.74831 l -0.873225,2.5852 -2.28146,0.23846 c -1.254805,0.13115 -3.206382,0.5899 -4.33684,1.01943 -1.130458,0.42955 -2.119664,0.7167 -2.198235,0.63813 -0.609133,-0.60913 3.729759,-13.041908 6.692859,-19.177891 4.484435,-9.286365 9.362411,-16.284965 16.436971,-23.582686 7.58845,-7.827822 14.886011,-13.090295 25.021671,-18.043817 13.408001,-6.552786 23.87382,-8.961819 38.951595,-8.965914 9.26988,-0.0026 14.83447,0.554771 21.21509,2.124679 25.22522,6.206478 46.45044,22.798569 58.41166,45.661326 4.90783,9.380843 8.05491,19.251563 9.55199,29.959563 0.28541,2.04137 0.4936,3.74116 0.46265,3.77731 -0.031,0.0361 -0.40763,-0.20468 -0.83705,-0.53519 z"
       id="path2" />
    <path
       style="fill:#f29b14;fill-opacity:1;stroke-width:0.421166;stroke-linejoin:bevel;stroke-miterlimit:0"
       d="m 182.95267,119.04364 c -0.0936,-0.15133 -0.53595,-1.70827 -0.98317,-3.45986 -6.99046,-27.37892 -28.6159,-47.32792 -56.28884,-51.925226 -13.54148,-2.249646 -27.277906,-0.167453 -40.606285,6.155181 -8.387244,3.97869 -15.101844,9.04717 -21.924485,16.549588 -4.973871,5.469444 -10.79675,15.381007 -13.427244,22.855527 -0.567173,1.61161 -1.110048,3.15402 -1.206393,3.42759 -0.119887,0.34042 -0.886923,0.0148 -2.430456,-1.03165 -1.240403,-0.84096 -3.186272,-1.85594 -4.32415,-2.2555 -1.890895,-0.66398 -2.048306,-0.8105 -1.829847,-1.70321 0.591753,-2.41814 3.232529,-8.445008 5.787306,-13.207982 11.958069,-22.29394 34.145204,-37.116987 59.727804,-39.90367 27.37408,-2.981827 55.6593,10.217401 71.11647,33.186321 3.38003,5.022641 7.42889,13.194591 9.38822,18.948601 1.52345,4.47395 3.13163,11.13475 2.68837,11.13475 -0.14057,0 -1.43947,0.33855 -2.88642,0.75235 -1.44696,0.41379 -2.70734,0.62852 -2.80088,0.47719 z"
       id="path3" />
    <path
       style="fill:#f9ff19;fill-opacity:1;stroke-width:0.421166;stroke-linejoin:bevel;stroke-miterlimit:0"
       d="m 174.62023,121.33128 c -1.55496,-0.79001 -3.84052,-1.65178 -5.079,-1.91505 -4.2341,-0.90005 -3.89239,-0.55268 -5.61147,-5.70441 -5.37167,-16.097709 -17.49664,-28.18975 -33.69701,-33.605485 -5.38439,-1.799982 -10.06095,-2.55551 -15.90854,-2.570118 -13.93497,-0.03479 -26.589686,5.041989 -36.659043,14.706801 -5.948316,5.709331 -10.24192,12.306142 -13.336291,20.490222 l -1.402638,3.70974 -3.687469,0.46569 c -2.028109,0.25614 -4.435526,0.73296 -5.349823,1.0596 -1.63564,0.58435 -1.672607,0.57824 -2.300654,-0.38027 -0.592789,-0.90472 -0.588603,-1.1612 0.05876,-3.59726 2.085733,-7.8488 7.03841,-17.258099 12.698221,-24.124585 2.871126,-3.483249 10.223461,-10.185653 13.750736,-12.535195 6.650146,-4.429706 15.459025,-8.106907 23.947751,-9.996809 3.40357,-0.757758 5.03948,-0.869831 12.69751,-0.86988 7.67902,-4.5e-5 9.30932,0.112241 12.89287,0.887996 11.24451,2.434187 21.13026,7.213505 29.69265,14.355068 10.24859,8.54796 17.27507,19.627635 21.11108,33.288935 1.34451,4.7882 1.44005,6.34875 0.44392,7.25024 -0.89298,0.80814 -0.85222,0.8169 -4.26156,-0.91523 z"
       id="path4" />
    <path
       style="fill:#30c334;fill-opacity:1;stroke-width:0.421166;stroke-linejoin:bevel;stroke-miterlimit:0"
       d="m 74.931535,125.43171 c -1.170336,-2.20915 -4.208009,-5.32574 -6.500183,-6.66905 -2.265986,-1.32795 -2.253955,-1.90616 0.155618,-7.4776 2.838405,-6.56299 5.493783,-10.55329 10.210551,-15.343654 4.708218,-4.781681 7.590603,-6.930681 13.072074,-9.746042 7.36204,-3.781252 13.436795,-5.220044 22.090275,-5.232026 6.62439,-0.0091 9.66159,0.473846 15.78572,2.510469 12.18996,4.053856 22.55727,13.224332 28.50121,25.210943 1.94337,3.91902 3.60408,8.757 3.28838,9.57971 -0.11604,0.30241 -1.6501,0.96567 -3.40903,1.47392 -1.77442,0.51273 -4.23493,1.59428 -5.52738,2.42962 -1.53091,0.98948 -2.37615,1.3383 -2.46585,1.01764 -2.47634,-8.85101 -5.02193,-13.60655 -9.99662,-18.67518 -4.95519,-5.04874 -10.67198,-8.098177 -17.94007,-9.569547 -4.40545,-0.891848 -12.25719,-0.61605 -16.37097,0.57504 -3.25325,0.941938 -7.467604,2.970194 -10.618641,5.110467 -3.008667,2.04358 -7.79364,7.17812 -9.735469,10.44671 -1.956131,3.29265 -4.227922,9.45126 -4.574659,12.40144 l -0.249776,2.12522 -1.999003,0.65703 c -1.099449,0.36136 -2.174811,0.72099 -2.389694,0.79917 -0.21488,0.0782 -0.811798,-0.65275 -1.326483,-1.62428 z"
       id="path5" />
    <path
       style="fill:#3f65d2;fill-opacity:1;stroke-width:0.421166;stroke-linejoin:bevel;stroke-miterlimit:0"
       d="m 143.84788,127.95218 c -0.64465,-0.18708 -2.56163,-0.4789 -4.25994,-0.64848 l -3.08787,-0.30833 -0.64387,-2.73484 c -0.35413,-1.50417 -1.25014,-3.8748 -1.99114,-5.26808 -1.66898,-3.13811 -5.5658,-7.3361 -8.0636,-8.68682 -5.00918,-2.70878 -11.69488,-3.57748 -16.1392,-2.09704 -8.39646,2.79693 -13.656166,8.40243 -15.450111,16.46588 -0.544923,2.44931 -0.76728,2.91164 -1.296711,2.69612 -2.43261,-0.99021 -4.98721,-1.71714 -6.854096,-1.95039 -2.102197,-0.26265 -2.169547,-0.30758 -1.951628,-1.3019 1.538146,-7.01814 4.490993,-12.59116 9.128643,-17.22881 2.786311,-2.7863 4.939009,-4.27849 9.018223,-6.25115 4.7733,-2.308313 7.93241,-2.883922 14.57537,-2.655719 4.77208,0.163932 5.92842,0.336908 8.45802,1.265223 10.41431,3.821866 17.23174,10.889826 20.47133,21.223596 1.17791,3.75741 1.36169,7.28471 0.39877,7.65422 -0.72152,0.27687 -0.77394,0.27294 -2.31219,-0.17348 z"
       id="path6" />
    <path
       style="fill:#ffffff;stroke-width:0;stroke-linejoin:bevel;stroke-miterlimit:0"
       d="m 30.640284,161.95608 c -11.06969,-2.00871 -19.230049,-8.98485 -20.7590403,-17.74652 -0.8315641,-4.76516 1.0186493,-9.92835 4.8184343,-13.44628 2.573667,-2.38277 4.894513,-3.36373 9.250334,-3.90991 1.674633,-0.20998 3.280345,-0.61734 3.568249,-0.90524 1.278443,-1.27845 -0.819326,-2.5898 -3.713114,-2.32114 -2.037289,0.18915 -2.079112,0.0755 -1.011855,-2.74923 2.217548,-5.86924 7.960459,-9.45395 14.475916,-9.03581 4.524867,0.29039 9.25734,3.24068 11.263101,7.02157 l 0.864434,1.62948 -1.16896,1.41815 c -1.261974,1.53099 -1.483971,2.73738 -0.633592,3.44313 0.627875,0.52109 0.883173,0.39207 3.345879,-1.69097 4.80443,-4.06374 10.575981,-4.81788 15.710077,-2.05275 3.160485,1.70218 6.094048,5.68203 6.713739,9.10827 0.378478,2.09257 0.808404,2.73705 1.825868,2.73705 0.682117,0 0.952658,-0.24406 1.120713,-1.01103 0.399695,-1.82411 0.501026,-1.95402 2.084665,-2.67283 1.244405,-0.56483 2.410567,-0.71342 5.649272,-0.71983 4.425306,-0.009 5.786203,0.30409 8.068416,1.85475 3.673621,2.49608 6.05497,6.16974 6.821989,10.52418 1.045676,5.93641 -2.472849,12.70048 -8.078478,15.53019 -2.123206,1.07179 -2.449368,1.12693 -6.666894,1.12693 -4.022801,0 -4.605963,-0.0869 -6.281812,-0.93612 -1.016037,-0.51487 -3.084254,-2.01487 -4.596037,-3.33334 -3.220709,-2.80889 -4.026768,-2.92357 -3.976555,-0.56575 l 0.03356,1.57591 -2.483496,1.25067 c -6.834927,3.44201 -13.556776,5.48172 -19.97253,6.06055 -5.217463,0.47072 -13.15885,0.38088 -16.272283,-0.18408 z"
       id="path7" />
    <g
       id="command_group1"
       inkscape:label="Ink/Stich Instrucci贸n: Trim thread after sewing this object">
      <path
         id="command_connector1"
         d="M 41.540128,82.181942 51.19979,123.44762"
         style="fill:none;stroke:#000000;stroke-width:1px;stroke-opacity:0.5"
         inkscape:connection-start="#command_use828"
         inkscape:connection-end="#path7"
         inkscape:label="conector"
         inkscape:connector-type="polyline"
         inkscape:connector-curvature="0" />
      <use
         id="command_use828"
         xlink:href="#inkstitch_trim"
         height="100%"
         width="100%"
         x="41.53754752073508"
         y="82.14609351791044"
         inkscape:label="marcador de instrucci贸n" />
    </g>
    <path
       style="fill:#ffffff;stroke-width:0;stroke-linejoin:bevel;stroke-miterlimit:0"
       d="m 121.92429,175.54428 c -1.18612,-0.30063 -3.17142,-1.07934 -4.41176,-1.73047 -2.73385,-1.43517 -6.79266,-5.3749 -7.86817,-7.63734 -1.81461,-3.81721 -1.79917,-9.51769 0.0335,-12.37445 2.29579,-3.57864 6.06586,-5.9003 8.94131,-5.50617 1.95963,0.2686 2.40169,-0.28256 3.05631,-3.81056 1.00727,-5.42856 4.39648,-9.88373 9.40022,-12.35671 2.47802,-1.22471 3.20795,-1.40942 6.11967,-1.54863 4.18482,-0.20008 6.88301,0.49241 10.6033,2.72132 1.51404,0.90709 3.08367,1.60249 3.48808,1.54532 1.36328,-0.19272 1.06687,-1.52749 -0.72623,-3.27041 l -1.68058,-1.63355 2.26335,-2.29158 c 5.81753,-5.89011 14.59636,-7.26181 22.36922,-3.49523 1.16408,0.56409 3.29491,2.20986 5.0799,3.92353 2.5372,2.43582 3.18286,2.88407 3.69335,2.56414 1.03443,-0.64828 0.89504,-1.70783 -0.47731,-3.62833 l -1.30864,-1.83134 0.83465,-0.6965 c 0.45906,-0.38308 2.07546,-1.29301 3.592,-2.02206 2.63017,-1.26441 2.93634,-1.32555 6.63768,-1.32555 3.73101,0 3.98579,0.0521 6.62092,1.35495 3.39719,1.67957 6.23174,4.44587 7.78716,7.59966 1.03975,2.1082 1.16828,2.74743 1.31308,6.53038 0.15569,4.06756 0.18715,4.20011 1.048,4.41617 0.57636,0.14466 1.13084,0.003 1.58163,-0.40543 1.00753,-0.91181 1.86202,-0.48406 4.35341,2.17925 4.63287,4.95255 6.27187,11.30125 4.53481,17.56563 -1.78292,6.42978 -7.64655,12.01051 -14.21915,13.53314 -2.48151,0.57488 -6.90827,0.57787 -9.36342,0.006 -6.29932,-1.46641 -11.47744,-5.69958 -14.53209,-11.88012 -1.90469,-3.85381 -2.68267,-4.82955 -3.57704,-4.48635 -0.94446,0.36242 -0.97018,1.46954 -0.0925,3.98129 1.04403,2.98782 3.56008,6.78847 6.22862,9.4087 1.1256,1.10523 2.04655,2.11514 2.04655,2.24424 0,0.42831 -5.28279,1.78517 -8.44624,2.16937 -6.82791,0.82925 -11.66121,0.29901 -17.59678,-1.93048 -5.02824,-1.88868 -8.80334,-4.3431 -12.65737,-8.22933 -3.74682,-3.77811 -5.4789,-6.21947 -7.65193,-10.78536 -0.818,-1.71875 -1.68906,-3.5386 -1.93569,-4.04411 -0.59476,-1.21908 -2.28302,-1.4644 -2.62666,-0.38168 -0.70718,2.22813 3.33414,10.02417 8.12205,15.66811 l 1.95668,2.30653 -2.19617,2.03326 c -2.51102,2.32477 -5.89301,4.31501 -8.74957,5.14897 -2.93638,0.85726 -8.96559,1.06613 -11.58815,0.40144 z"
       id="path8" />
    <g
       id="command_group2"
       inkscape:label="Ink/Stich Instrucci贸n: Trim thread after sewing this object">
      <path
         id="command_connector2"
         d="m 150.13042,94.278027 7.38374,29.124343"
         style="fill:none;stroke:#000000;stroke-width:1px;stroke-opacity:0.5"
         inkscape:connection-start="#command_use2400"
         inkscape:connection-end="#path8"
         inkscape:label="conector"
         inkscape:connector-type="polyline"
         inkscape:connector-curvature="0" />
      <use
         id="command_use2400"
         xlink:href="#inkstitch_trim"
         height="100%"
         width="100%"
         x="150.12783051015393"
         y="94.24218010530579"
         inkscape:label="marcador de instrucci贸n" />
    </g>
  </g>
</svg>
