<?xml version="1.0" encoding="UTF-8" standalone="no"?>
<!-- Created with Inkscape (http://www.inkscape.org/) -->

<svg
   version="1.1"
   id="svg1"
   width="60mm"
   height="60mm"
   viewBox="0 0 226.77165 226.77165"
   sodipodi:docname="arcoiris.svg"
   inkscape:version="1.3.2 (091e20e, 2023-11-25, custom)"
   xmlns:inkscape="http://www.inkscape.org/namespaces/inkscape"
   xmlns:sodipodi="http://sodipodi.sourceforge.net/DTD/sodipodi-0.dtd"
   xmlns:xlink="http://www.w3.org/1999/xlink"
   xmlns="http://www.w3.org/2000/svg"
   xmlns:svg="http://www.w3.org/2000/svg"
   xmlns:inkstitch="http://inkstitch.org/namespace">
  <sodipodi:namedview
     id="namedview1"
     pagecolor="#ff00e8"
     bordercolor="#666666"
     borderopacity="1.0"
     inkscape:showpageshadow="2"
     inkscape:pageopacity="0.0"
     inkscape:pagecheckerboard="0"
     inkscape:deskcolor="#d1d1d1"
     inkscape:zoom="3.8466608"
     inkscape:cx="118.67436"
     inkscape:cy="117.63449"
     inkscape:window-width="1858"
     inkscape:window-height="1057"
     inkscape:window-x="54"
     inkscape:window-y="-8"
     inkscape:window-maximized="1"
     inkscape:current-layer="g1"
     inkscape:document-units="mm" />
  <metadata
     id="metadata6">
    <inkstitch:min_stitch_len_mm>0</inkstitch:min_stitch_len_mm>
    <inkstitch:collapse_len_mm>3</inkstitch:collapse_len_mm>
    <inkstitch:inkstitch_svg_version>1</inkstitch:inkstitch_svg_version>
  </metadata>
  <defs
     id="defs1">
    <symbol
       id="inkstitch_trim">
      <title
         id="inkstitch_title9282">Trim the thread after sewing this object.</title>
      <path
         id="inkstitch_circle13405"
         d="m 9.2465284,-8.6e-6 c 1.8e-6,2.452339 -0.9741847,4.804237 -2.7082493,6.538304 C 4.8042146,8.2723614 2.4523174,9.2465504 -2.1625959e-5,9.2465514 -2.4523623,9.2465534 -4.8042621,8.2723654 -6.5383288,6.5382984 -8.2723956,4.8042314 -9.2465834,2.4523324 -9.2465816,-8.6e-6 c 6e-7,-2.452339 0.9741895,-4.804237 2.708256,-6.538301 1.7340665,-1.734065 4.0859648,-2.708252 6.538303974041,-2.70825 C 5.1067066,-9.2465576 9.2465271,-5.1067366 9.2465284,-8.6e-6 c 0,0 0,0 0,0"
         style="opacity:1;vector-effect:none;fill:#fafafa;fill-opacity:1;fill-rule:evenodd;stroke:#003399;stroke-width:1.06500006;stroke-linecap:round;stroke-linejoin:miter;stroke-miterlimit:4;stroke-dasharray:3.19500017, 3.19500017;stroke-dashoffset:0;stroke-opacity:1"
         inkscape:connector-curvature="0" />
      <path
         style="color:#000000;font-style:normal;font-variant:normal;font-weight:normal;font-stretch:normal;font-size:medium;line-height:normal;font-family:sans-serif;font-variant-ligatures:normal;font-variant-position:normal;font-variant-caps:normal;font-variant-numeric:normal;font-variant-alternates:normal;font-feature-settings:normal;text-indent:0;text-align:start;text-decoration:none;text-decoration-line:none;text-decoration-style:solid;text-decoration-color:#000000;letter-spacing:normal;word-spacing:normal;text-transform:none;writing-mode:lr-tb;direction:ltr;text-orientation:mixed;dominant-baseline:auto;baseline-shift:baseline;text-anchor:start;white-space:normal;shape-padding:0;clip-rule:nonzero;display:inline;overflow:visible;visibility:visible;opacity:1;isolation:auto;mix-blend-mode:normal;color-interpolation:sRGB;color-interpolation-filters:linearRGB;solid-color:#000000;solid-opacity:1;vector-effect:none;fill:#050505;fill-opacity:1;fill-rule:evenodd;stroke:none;stroke-width:1.41421342;stroke-linecap:butt;stroke-linejoin:miter;stroke-miterlimit:4;stroke-dasharray:none;stroke-dashoffset:0;stroke-opacity:1;color-rendering:auto;image-rendering:auto;shape-rendering:auto;text-rendering:auto;enable-background:accumulate"
         d="m -3.0000256,-5.9834096 c -1.30575,0 -2.375,1.06924 -2.375,2.375 0,1.30575 1.06925,2.375 2.375,2.375 0.58687,0 1.11944,-0.22369 1.53516,-0.58007 0,0 0.61717997,1.62109 0.61717997,1.62109 0,0 -2.29881997,6.01758 -2.29881997,6.01758 0.98655,-0.12511 1.23728,-0.26171 1.67382,-0.97461 0,0 1.33007997,-3.18945 1.33007997,-3.18945 0,0 1.23633003,3.25 1.23633003,3.25 0.23227,0.77906 0.84315,0.79218 1.57813,1.07226 0,0 -2.05469003,-6.14258 -2.05469003,-6.14258 0,0 0.73047003,-1.75 0.73047003,-1.75 0.42849,0.41682 1.01136,0.67578 1.65234,0.67578 1.30575,0 2.375,-1.06925 2.375,-2.375 0,-1.30576 -1.06925,-2.375 -2.375,-2.375 -1.06233,0 -1.95701,0.71265 -2.25781003,1.67969 0,0 -0.0117,-0.0156 -0.0117,-0.0156 0,0 -0.80274,2.10156 -0.80274,2.10156 0,0 -0.59179,-1.76562 -0.59179,-1.76562 -0.18242,-1.12808 -1.15864997,-2 -2.33593997,-2 0,0 -2e-5,-3e-5 -2e-5,-3e-5 m 0,1 c 0.76531,0 1.375,0.60968 1.375,1.375 0,0.76531 -0.60969,1.375 -1.375,1.375 -0.76531,0 -1.375,-0.60969 -1.375,-1.375 0,-0.76532 0.60969,-1.375 1.375,-1.375 0,0 0,0 0,0 m 6,0 c 0.76531,0 1.375,0.60968 1.375,1.375 0,0.76531 -0.60969,1.375 -1.375,1.375 -0.76531,0 -1.375,-0.60969 -1.375,-1.375 0,-0.76532 0.60969,-1.375 1.375,-1.375 0,0 0,0 0,0"
         id="inkstitch_path13416"
         inkscape:connector-curvature="0" />
    </symbol>
  </defs>
  <g
     inkscape:groupmode="layer"
     inkscape:label="Image"
     id="g1">
    <g
       id="command_group3"
       inkscape:label="Ink/Stich Instrucción: Trim thread after sewing this object">
      <path
         id="command_connector3"
         d="M 97.711336,8.2560056 109.45632,173.1735"
         style="fill:none;stroke:#000000;stroke-width:1px;stroke-opacity:0.5"
         inkscape:connection-start="#command_use974"
         inkscape:label="conector"
         inkscape:connector-type="polyline"
         inkscape:connector-curvature="0" />
      <use
         id="command_use974"
         xlink:href="#inkstitch_trim"
         height="100%"
         width="100%"
         x="97.70875908309132"
         y="8.220159022988973"
         inkscape:label="marcador de instrucción" />
    </g>
    <path
       id="path16"
       style="stroke:#000000;stroke-width:1px;fill:none"
       d="M123.81649363700534,177.02124352973175 121.52138167735743,176.54818112706275 119.34092445367617,175.82627670479147 117.2074875609881,174.85658296928557 115.17382788995829,173.66909508518802 113.29156779979586,172.2965810993254 111.61054964049188,170.77520196430316 110.17803975335652,169.14391065217816 109.96270742201857,168.82328579211037 109.02591306188002,167.42842066077847 108.065382773973,165.50263850220992 107.47700895157004,163.68375348019944 107.18775883934903,161.71478914314 107.16146944101425,159.30394023387456 107.26250236761078,157.5864724971492 107.43871581184368,156.39646072565415 107.73945754208732,155.38970353029822 108.26263203575758,154.18631514419212 108.94783315388742,152.92207831656148 109.73349887599315,151.78685130270264 110.6257605733289,150.76312025872573 111.6248634871344,149.84864459467067 112.73227214731331,149.04235739626074 113.94997913919573,148.34503950128953 115.27990718039644,147.75925361780213 116.76501440304746,147.27550832678472 120.04365595368971,146.37805828248398 120.81124314626408,143.3200149178152 121.41965573358266,141.36282889643638 122.21620330750599,139.5271442627479 123.20000884581926,137.78591404972101 124.35279030278414,136.1639561826303 125.65497647473703,134.68533014093515 127.0858719937436,133.37348006719273 128.6244110364324,132.25032322490776 130.28159437599456,131.317647156349 132.38060902542486,130.36635351539925 133.70359382428433,129.90685756833057 134.9934192300097,129.13872690771416 135.28017214951038,127.25985743999973 134.6307824270653,123.83104280179397 133.499879978172,120.59044386041205 131.88114244034756,117.64101647175696 129.82856335997351,115.04013285529938 127.39170462941162,112.82828293994943 124.6210757102472,111.04437921852437 121.56751641623526,109.72598734270294 118.2831467709561,108.90968312360683 114.82349957780005,108.63047775602227 112.27882037718679,108.82962950318692 109.66732417056625,109.4230056571399 106.96562484778947,110.40284959478406 104.05194968382146,111.80554462997631 102.2156691918013,113.13926291867881 100.32339878735522,115.04304186827474 98.59397562998394,117.22840682577093 97.25587112186251,119.44219320328169 96.24181163145815,121.73954805703059 95.56284640797013,123.90568554883467 95.18401402593643,126.11462659760701 95.06528365810807,128.47264423154581 95.10258564416112,130.01167072153495 95.33869471714883,131.33491307475975 95.91335703866693,132.5190429082183 96.69278214882846,133.5599901639617 97.83332373457621,135.14778088868843 98.71344115940013,136.73557837950952 99.39237876738441,138.38387909970777 99.87436434699129,140.0776096176043 100.16288210345758,141.80112358386347 100.26099726450468,143.53794975740396 100.17200212156324,145.27102720400143 99.89915516175314,146.98254619976348 99.44611615477085,148.65479575697174 98.8169764483426,150.27002625095443 98.01587452491776,151.81090257638132 97.0471035196793,153.260398965255 95.91453374316208,154.6024000890948 94.62146625181502,155.82125473627127 93.17004179695971,156.90146747147827 91.56022420894678,157.82857585202973 91.4573782302152,157.8727842988029 89.4146374540016,158.7508584635921 87.30636357616282,159.35885883803064 85.23257799050273,159.6610897737052 83.18143451270586,159.66488638898417 81.13805996289531,159.37149735852265 79.08893012783398,158.775704893958 77.02506037936918,157.86789895602638 74.90182656195594,156.61272395827868 71.66105245432922,154.44862339395397 69.56802351776076,155.93900534333795 68.17219413763891,156.79827430570253 66.31544245708726,157.73392128921978 61.47376386313439,159.73458593511015 56.04754283907752,161.5369808467243 50.918180811996166,162.81676993983217 48.189076858401975,163.2555633053174 45.23908122386022,163.56107007126303 38.98679588455085,163.76848028977543 32.98662842821935,163.43215065394034 30.36403542366192,163.07227429972085 28.065930247734375,162.585603417845 25.880166407849135,161.94255946028318 23.790667916951932,161.17934763054683 21.816366920749715,160.30662404039668 19.96218433171248,159.33097126907654 18.23320455904998,158.2592175420732 16.634176021487157,157.0981460355211 15.169607246756629,155.85442862014693 13.843668861920596,154.53459288059676 12.660542622539772,153.14547755490383 11.623841273130283,151.69299717423448 10.736914434563628,150.18298942668403 10.003030057456069,148.62050250091488 9.42533414083011,147.01029607060107 9.007449062508323,145.3560774185915 8.753292687532163,143.66083005474732 8.668729095440456,141.9561593646384 8.9224436151003,138.80168541348417 9.223457697031593,137.42453300644254 9.660412344225554,136.06912342490554 10.230252709538064,134.75708083491108 10.922313866216607,133.50599704017668 12.816632435555842,130.94310084042542 13.871839575669695,129.93852939379664 15.4492708846555,128.71732203646542 17.120081033896394,127.60911842525043 18.60463929385855,126.8259361355787 19.42479816109785,126.35791946596161 20.252823469696885,125.39192684865513 20.93168355610282,123.3574350117082 21.51189001913801,121.42276825673348 22.328781005296683,119.45260313535792 23.32194685227617,117.5537423991457  M123.05350636299467,180.72295647026823 120.54261832264257,180.20541887293726 117.96107554632383,179.35072329520855 115.4681124390119,178.21761703071445 113.10217211004172,176.83610491481198 110.90343220020414,175.2328189006746 108.91365035950813,173.43199803569684 107.1767602466435,171.45408934782185 106.32661895157455,170.18824862582855 105.75248693811999,169.33337933922152 104.55661722602702,166.93576149779008 103.78359104842997,164.54604651980057 103.41124116065096,162.01141085686 103.38073055898576,159.21345976612545 103.49929763238922,157.1979275028508 103.73968418815633,155.57453927434585 104.18294245791269,154.09069646970175 104.86176796424243,152.52928485580787 105.7229668461126,150.9403216834385 106.74570112400684,149.46254869729734 107.91663942667108,148.11907974127428 109.22913651286561,146.9177554053293 110.6747278526867,145.86524260373926 112.24442086080427,144.96636049871046 113.92949281960355,144.2241463821979 115.68018559695254,143.65389167321527 116.9155440463103,143.31574171751603 117.17095685373593,142.2981850821848 117.87114426641733,140.0457711035636 118.827996692494,137.8406557372521 120.00579115418076,135.75608595027896 121.38620969721586,133.8138438173697 122.95202352526297,132.03586985906486 124.6871280062564,130.44511993280727 126.57618896356765,129.0660767750922 128.5714056240056,127.94315284365092 130.97759097457515,126.85264648460071 131.33295905730282,126.72922088373839 130.96961757293468,124.81075719820602 130.03512002182802,122.13295613958795 128.71925755965242,119.73538352824303 127.05603664002642,117.62786714470059 125.08289537058839,115.83691706005057 122.8369242897528,114.39082078147564 120.35448358376473,113.31901265729705 117.6712532290439,112.65211687639318 114.81890042219996,112.42192224397773 112.84797962281321,112.57617049681308 110.73447582943376,113.0563943428601 108.43337515221053,113.89095040521595 105.99785031617854,115.06345537002369 104.6823308081987,116.01893708132118 103.15460121264479,117.55595813172525 101.70542437001605,119.38719317422907 100.61572887813749,121.19000679671832 99.78498836854186,123.07205194296941 99.24515359202987,124.79431445116532 98.94738597406358,126.53057340239296 98.84711634189192,128.52195576845418 98.87401435583887,129.63172927846503 98.96750528285116,130.15568692524022 99.15564296133306,130.54335709178173 99.74061785117155,131.3246098360383 101.03187626542378,133.12221911131155 102.12495884059987,135.09422162049046 102.96882123261558,137.1429209002922 103.56723565300871,139.24579038239568 103.92471789654243,141.3812764161365 104.0460027354953,143.52825024259602 103.93619787843677,145.66657279599855 103.59984483824685,147.77645380023654 103.04128384522916,149.83820424302826 102.26462355165741,151.83217374904555 101.27352547508224,153.73849742361867 100.0718964803207,155.536401034745 98.6638662568379,157.20479991090522 97.05413374818498,158.72214526372875 95.24855820304029,160.06593252852173 93.25537579105321,161.21382414797026 92.55508715669903,161.51484391752797 90.68956254599838,162.31674153640793 88.10623642383717,163.06174116196934 85.51002200949728,163.4401102262948 82.91496548729413,163.44491361101583 80.33794003710469,163.07490264147734 77.79486987216603,162.335495106042 75.29633962063083,161.23650104397362 72.88917343804405,159.81347604172132 71.72994754567077,159.03937660604603 71.65717648223924,159.09119465666203 70.01660586236108,160.10112569429748 67.88975754291273,161.1728787107802 62.79283613686561,163.27901406488985 57.10225716092248,165.16921915327572 51.67701918800384,166.52283006016785 48.68412314159802,167.00403669468258 45.49671877613978,167.33412992873696 38.943604115449155,167.55151971022457 32.62337157178065,167.19724934605964 29.71476457633808,166.79812570027917 27.139669752265622,166.25279658215499 24.697233592150862,165.53424053971685 22.37673208304807,164.68665236945316 20.170433079250287,163.7113759596033 18.08421566828752,162.61362873092344 16.124395440950018,161.3987824579268 14.297223978512866,160.07205396447895 12.609192753243372,158.63857137985306 11.067131138079402,157.10360711940322 9.678257377460227,155.47292244509617 8.449958726869715,153.75200282576552 7.389885565436374,151.947210573316 6.505969942543931,150.0652974990851 5.805865859169887,148.1139039293989 5.297350937491679,146.1009225814085 4.987707312467835,144.03556994525263 4.881670904559543,141.89804063536158 5.1755563848997,138.24411458651585 5.570142302968408,136.43886699355747 6.119987655774446,134.73327657509444 6.835547290461935,133.08571916508893 7.735286133783394,131.4592029598233 9.972567564444157,128.4322991595746 11.405560424330305,127.06807060620336 13.2449291153445,125.64407796353457 15.18891896610361,124.35468157474956 16.78576070614145,123.5122638644213 16.921482700262263,123.43481526486397 17.32811644389718,122.2161649882918 17.946909980861985,120.15283174326653 18.901818994703316,117.84979686464209 19.972853147723832,115.80205760085428  M108.13283182744937,158.88156387126145 102.47332467415762,158.54863384959992  M127.577249643077,134.2026204746169 123.89113301047784,129.89525378621434  M108.92004034793109,108.68892325250583 110.85296426762145,114.01852630884811  M98.11499249350857,116.3110352917187 102.56062743267842,119.82915888322543  M98.61985636162075,148.09121432404964 104.09189178567411,149.57367576887344  M92.78104261172456,156.01313078441274 96.16583775274276,160.56110016324806  M85.78258546776078,158.62606866722726 86.60018375367858,164.2360951074812  M57.965639820330644,159.90421412062022 59.75276364276382,165.28446058902443  M46.968612009374475,162.43202148934805 47.552610490983874,168.07115346075656  M35.51244275252722,162.6273659549457 35.195157903586335,168.2877717656731  M24.684148090475595,160.4997608796522 22.739069104284077,165.82493987710947  M17.554171434407444,156.59846604853448 14.22314277040045,161.18596118826463  M9.714239857997697,143.71580098708077 4.076241669162851,144.31064553835367  M10.57077731117839,136.34492742053195 5.3707521615389515,134.08647616788082  "
       inkstitch:satin_column="true" />
    <g
       id="command_group4"
       inkscape:label="Ink/Stitch Command: Trim thread after sewing this object">
      <path
         id="command_connector4"
         d="m 54.91998,83.11015 14.985582,61.56063"
         style="fill:none;stroke:#000000;stroke-width:1px;stroke-opacity:0.5"
         inkscape:connection-start="#command_use7425"
         inkscape:connection-end="#path16"
         inkscape:label="connector"
         inkscape:connector-type="polyline"
         inkscape:connector-curvature="0" />
      <use
         id="command_use7425"
         xlink:href="#inkstitch_trim"
         height="100%"
         width="100%"
         x="54.91739997784227"
         y="83.07429995711456"
         inkscape:label="command marker" />
    </g>
    <path
       id="path17"
       style="fill:none;stroke:#000000;stroke-width:1px"
       d="m 23.204684,117.74845 1.065318,-1.54968 0.967294,-1.57534 0.30991,-1.71438 0.44598,-2.97903 1.151163,-4.47461 1.618824,-5.15016 1.800329,-4.828698 1.667321,-3.744255 1.958151,-3.895309 2.149562,-3.855724 2.251879,-3.646326 3.040809,-4.579495 2.468602,-3.113022 2.17971,-2.614552 2.369564,-2.592474 5.313142,-5.144867 5.825143,-4.849792 3.008622,-2.231542 3.034163,-2.070444 3.508738,-2.028299 4.900332,-2.5288 5.027979,-2.397805 3.888495,-1.641601 3.809294,-1.300996 3.871928,-1.136647 3.904212,-0.964243 3.930164,-0.791737 3.949528,-0.619235 3.96229,-0.446733 3.96879,-0.274058 3.96865,-0.101599 3.96213,0.07093 3.94901,0.243507 3.92945,0.415941 3.90349,0.588516 3.87104,0.760833 3.83205,0.933271 3.78675,1.105656 3.73847,1.279133 3.67286,1.432616 3.57385,1.558225 3.47128,1.682245 3.36867,1.805864 3.26606,1.929229 3.16345,2.052136 3.06053,2.175069 2.95791,2.297827 2.85501,2.42038 2.75211,2.542908 2.64896,2.665314 2.54567,2.787872 2.44225,2.910361 2.33838,3.032916 2.23437,3.155425 2.12537,3.271146 2.42544,4.153812 2.2094,4.3105 1.98973,4.453311 1.76188,4.574791 1.52651,4.674624 1.28324,4.75315 1.03254,4.81 0.77621,4.85597 0.27843,2.39517 0.0129,0.8656 -0.81149,0.37921 -0.97519,1.5158 0.55335,1.62878 0.71888,0.73593 0.51672,0.54641 0.49765,0.71985 1.15441,2.25202 0.94974,2.59779 0.0408,2.45985 0.005,2.46877 0.50653,1.26234 0.98437,0.93758 1.59065,-0.33802 1.38803,0.52245 1.16153,0.9263 2.42846,2.52315 2.14051,2.99978 0.84202,1.5146 0.67948,1.5205 0.36878,1.09592 0.20565,1.08977 0.14009,4.21507 -0.0298,2.67837 -0.13093,1.59869 -0.29832,1.2057 -0.61216,1.58182 -1.02949,2.25596 -1.06077,1.82416 -1.21494,1.60422 -1.49241,1.56623 -2.29224,1.90843 -2.49686,1.53968 -2.71193,1.18261 -2.89233,0.81043 -2.61334,0.28722 -3.1378,-0.0673 -3.15557,-0.40037 -2.72577,-0.69896 -3.5039,-1.23794 -3.53049,1.40244 -2.79916,0.97614 -2.83403,0.72574 -2.89937,0.48839 -2.95732,0.25019 -3.00737,0.011 -3.04951,-0.22957 -3.08314,-0.47153 -3.07656,-0.70769 -2.77193,-0.95716 -3.22311,-1.44297 -3.12293,-1.66656 -2.50556,-1.63388 -3.33205,-2.5158 -3.31505,3.16205 -1.50757,1.33978 -1.52287,1.16296 -1.56952,1.01364 -1.6251,0.87056 -1.69053,0.73308 -1.76628,0.59991 -1.85258,0.46986 -1.94288,0.34079 -3.13762,0.30952 -5.28527,-0.53266 0,2.08989 m -101.455124,-63.26475 1.010082,-1.46932 0.544306,-0.88646 0.17329,-0.95862 0.46642,-3.11557 1.224637,-4.76019 1.678376,-5.339635 1.875871,-5.031307 1.751079,-3.932345 2.034249,-4.046691 2.230038,-4.000076 2.328921,-3.771074 3.163391,-4.764105 2.596398,-3.274178 2.26449,-2.716248 2.505436,-2.741126 5.497858,-5.323733 6.015657,-5.008408 3.153578,-2.339058 3.212237,-2.191956 3.709062,-2.144101 5.033268,-2.5974 5.159221,-2.460395 4.090305,-1.726799 4.013106,-1.370604 4.029672,-1.182953 4.063388,-1.003557 4.090636,-0.824063 4.111072,-0.644565 4.12491,-0.465067 4.13221,-0.285342 4.13275,-0.105801 4.12687,0.07387 4.11419,0.253693 4.09495,0.433459 4.06911,0.613484 4.03656,0.793367 3.99735,0.973529 3.95145,1.153744 3.89553,1.332867 3.81634,1.488584 3.71135,1.618175 3.60892,1.748955 3.50573,1.879336 3.40174,2.009371 3.29715,2.138864 3.19147,2.268131 3.08529,2.396773 2.97819,2.52482 2.87049,2.652292 2.76204,2.779086 2.65293,2.905328 2.54335,3.030839 2.43302,3.155684 2.32243,3.279775 2.21563,3.410054 2.52316,4.321188 2.3028,4.4927 2.07147,4.636289 1.83292,4.759209 1.58749,4.861376 1.33456,4.94325 1.07426,5.0044 0.80479,5.03463 0.30977,2.66483 0.029,1.94219 -0.65074,1.74423 -0.0631,0.0358 0.67153,0.97137 1.37399,2.68038 1.11806,3.05821 -0.15511,3.23984 0.14033,0.91424 0.0385,0.0959 0.0634,0.0604 0.75166,0.43435 2.22485,0.53412 1.52567,1.2167 2.79314,2.90205 2.42509,3.39862 1.02538,1.8444 0.82052,1.8361 0.50982,1.51508 0.30795,1.63183 0.15251,4.58893 -0.0322,2.89563 -0.16667,2.03531 -0.42908,1.7341 -0.73884,1.90918 -1.15311,2.52684 -1.27003,2.18404 -1.48286,1.95798 -1.79039,1.87897 -2.66596,2.21957 -2.95294,1.82092 -3.19667,1.39399 -3.44247,0.96457 -3.16786,0.34818 -3.5836,-0.0769 -3.58643,-0.45503 -3.11683,-0.79924 -2.3251,-0.82146 -2.28771,0.90876 -3.02664,1.05546 -3.14297,0.80486 -3.20943,0.54061 -3.26488,0.27621 -3.30903,0.012 -3.34249,-0.25163 -3.36526,-0.51467 -3.40964,-0.78431 -3.12027,-1.07744 -3.49529,-1.56483 -3.38467,-1.80624 -2.75344,-1.79552 -0.87335,-0.6594 -1.03975,0.99175 -1.66243,1.47742 -1.75293,1.33864 -1.82428,1.17816 -1.8989,1.01724 -1.97567,0.85672 -2.05412,0.69769 -2.13442,0.54134 -2.22232,0.38981 -3.65438,0.36048 -3.58098,-0.36089 M 36.140018,86.277802 31.188256,83.5172 M 45.408304,72.548495 41.053783,68.918203 m 9.942805,-2.440673 -3.94378,-4.072771 M 57.16079,60.857032 53.533382,56.50011 m 20.923365,-6.967757 -2.526924,-5.074989 m 30.118597,-3.681804 -0.87815,-5.600868 m 29.71571,6.136271 1.09335,-5.562862 m 33.27314,19.652109 3.14978,-4.713784 m 17.79898,24.631678 4.48978,-3.461611 m 6.05056,21.255127 5.17614,-2.312678 m 17.47109,66.250818 5.66894,0.0631 m -7.53043,6.96255 5.14633,2.37826 m -12.80167,5.5347 2.97568,4.82557 m -42.68557,-0.88103 -0.42559,5.65329 m -34.59942,-6.85586 1.82328,5.36811"
       inkstitch:satin_column="true"
       sodipodi:nodetypes="cccccccccccccccccccccccccccccccccccccccccccccccccccccccccccccccccccccccccccccccccccccccccccccccccccccccccccccccccccccccccccccccccccccccccccccccccccccccccccccccccccccccccccccccccccccccccccccccccccccccccccccccccccccccccccccccccccccccccccccccccccccccccccccccccccccccccccccccccccccccccccccccc" />
    <g
       id="command_group5"
       inkscape:label="Ink/Stitch Command: Trim thread after sewing this object">
      <path
         id="command_connector5"
         d="m 120.25012,5.2840298 0.61977,30.0544262"
         style="fill:none;stroke:#000000;stroke-width:1px;stroke-opacity:0.5"
         inkscape:connection-start="#command_use4779"
         inkscape:connection-end="#path17"
         inkscape:label="connector"
         inkscape:connector-type="polyline"
         inkscape:connector-curvature="0" />
      <use
         id="command_use4779"
         xlink:href="#inkstitch_trim"
         height="100%"
         width="100%"
         x="120.24754171334325"
         y="5.248182604294322"
         inkscape:label="command marker" />
    </g>
    <path
       id="path12"
       style="stroke:#000000;stroke-width:1px;fill:none"
       d="M24.885802293797234,115.98035469545837 27.410645935211697,114.22025403409629 28.636969793787134,113.40554958629536 29.924406232563996,112.69289489253896 31.39149140771272,112.08645884936684 33.15854111561283,111.60495554542698 35.34249162455265,111.2848592415027 37.7763710006462,111.18564807525362 40.0279160227736,111.95175600646537 42.162188578417464,112.9019197830312 43.96303894531115,113.93229476729397 45.47956133222072,115.03186135859889 46.76160931651149,116.19540672272761 47.83274974116616,117.39528408028156 49.723475162588194,120.17930736144226  M22.724397706202765,112.87984530454162 25.283954064788304,111.09554596590371 26.67283020621287,110.17285041370462 28.281993767436006,109.28210510746104 30.167908592287276,108.50254115063316 32.38485888438718,107.89844445457302 34.99050837544735,107.5165407584973 38.326628999353794,107.38055192474638 41.408083977226404,108.42904399353462 43.87361142158253,109.52668021696878 46.01676105468885,110.75290523270604 47.866038667779286,112.0937386414011 49.44879068348852,113.53019327727237 50.81885025883384,115.06491591971843 52.850124837411805,118.05589263855774  M26.757290785169445,115.82752924565939 23.515183903778627,111.17676515928365  M34.64737013025255,112.3417184574638 33.825219738309066,106.73235732178077  M42.39029195767064,114.12104338717215 45.20576182764819,109.20027179841368  M47.847841549193106,119.09932890311951 52.537816061429254,115.9142068187938  "
       inkstitch:satin_column="true" />
    <path
       id="path9"
       style="stroke:#000000;stroke-width:1px;fill:none"
       d="M48.581864136857526,126.14218925203252 50.23660580470893,124.22319763380689 51.89663395534099,122.84004438333805 53.657115728187264,121.81968740836605 55.52884876147874,121.1088949777317 57.51938266567547,120.66935948767592 59.62569543747782,120.47067647065 61.834649332836534,120.48341006838055 63.83237420347624,120.65012109234607 66.39562804499798,121.88642893554996 68.46639018713772,123.3109238078389 69.97873881744192,124.79517793657985 71.07502466549147,126.33903748827348 71.87676875334058,127.96050707737363 72.4780793457725,129.66494532988185 73.45005359073218,133.30058017470174  M45.719535863142475,123.67401074796749 47.57779419529108,121.5190023661931 49.723766044659016,119.73095561666194 52.02788427181274,118.39551259163396 54.44475123852126,117.47770502226831 56.93221733432453,116.92844051232409 59.45870456252218,116.69012352934999 62.00295066716346,116.70478993161944 64.84402579652375,116.94187890765394 68.29877195500202,118.60817106445003 70.87920981286227,120.38327619216109 72.86586118255809,122.33302206342015 74.33017533450854,124.39516251172651 75.3654312466594,126.48889292262632 76.0913206542275,128.5464546701182 77.10134640926782,132.32441982529826  M49.79327813110647,126.18422127748191 45.49978572053359,122.48195352138471  M54.98551653182296,122.32594517743311 52.972836956770614,117.02594663539077  M62.33828864349692,121.47360523097974 62.80975471699636,115.82395184700802  M68.52765281105329,124.69495960407345 72.49868834474094,120.64875886663172  M72.04697870337272,131.71085140481028 77.52391793117637,130.24661088070587  "
       inkstitch:satin_column="true" />
    <path
       id="path10"
       style="stroke:#000000;stroke-width:1px;fill:none"
       d="M75.75833331975393,130.81245338632613 78.09067749892297,129.93347077676884 80.31823258059461,129.34896958567433 82.52964749848645,129.0250252610411 84.73224612270089,128.9603338073475 86.93473521806818,129.15666987430106 89.14597897937573,129.61860372221417 91.37353378898476,130.35380156198326 93.70631867984628,131.40924190036165  M74.42546668024606,127.27574661367386 76.94152250107726,126.32752922323111 79.56236741940549,125.63983041432564 82.19915250151355,125.25357473895889 84.84495387729889,125.1758661926525 87.49086478193182,125.41173012569894 90.12782102062437,125.96259627778586 92.74866621101523,126.82759843801676 95.26428132015371,127.96575809963836  M77.59593943941032,131.1296759459794 75.59663948014641,125.82461578700179  M85.61329828103736,129.98750194765955 86.11667875253566,124.34060264641482  "
       inkstitch:satin_column="true" />
    <g
       id="command_group6"
       inkscape:label="Ink/Stitch Command: Trim thread after sewing this object">
      <path
         id="command_connector6"
         d="m 74.484979,96.141583 9.440044,29.061307"
         style="fill:none;stroke:#000000;stroke-width:1px;stroke-opacity:0.5"
         inkscape:connection-start="#command_use372"
         inkscape:connection-end="#path10"
         inkscape:label="connector"
         inkscape:connector-type="polyline"
         inkscape:connector-curvature="0" />
      <use
         id="command_use372"
         xlink:href="#inkstitch_trim"
         height="100%"
         width="100%"
         x="74.4823993443217"
         y="96.10573917334935"
         inkscape:label="command marker" />
    </g>
    <path
       id="path21"
       style="stroke:#000000;stroke-width:1px;fill:none"
       d="M40.21862465848282,108.09424771303367 41.90610618435858,104.05483198729884 43.66282318721594,100.23355424013101 45.49803482527182,96.59704718509968 47.408690938666076,93.14162408194312 49.391668046929254,89.86337527232384 51.44406194473204,86.75837872764582 53.56294572530168,83.82273273409389 55.74543904832246,81.05242694543378 57.98860643483359,78.44365208983007 60.28992864714606,75.9922330384295 62.64638337722878,73.69428742641215 65.03992300540615,71.55991964568982 70.02311644023656,67.68301684536497 75.16994249219293,64.37087362816334 80.4775818740409,61.58062240204027 85.92639667756933,59.283600719039676 91.49626790415189,57.45207087945017 97.16675350675183,56.058886597091366 102.91615890810694,55.07732612064329 108.72255253908897,54.4808264695652 114.56301344136935,54.24288285637316 120.30944281136904,54.33514381428193 128.18264879195215,55.75998322209211 135.52582858694566,57.631743342879645 142.27451454796594,59.91401697182381 148.45702192010035,62.587610238709786 154.102742079515,65.63390349233356 159.24136777033831,69.03591536625362 163.90298107184555,72.77793761055534 168.116798602574,76.84541908996995 171.91103647564827,81.22500143528826 175.31257127419474,85.90325588456298 178.34655542212462,90.86652926412559 181.0376777423811,96.10052748612443 183.4093670503977,101.58980111516489 185.48519534357646,107.31837573885625 187.28861345185092,113.2691925508831 188.85266667179806,119.4620448392484  M36.73117534151717,106.63735228696632 38.444293815641416,102.53656801270115 40.257576812784066,98.59224575986897 42.15596517472818,94.83055281490033 44.13670906133393,91.24837591805687 46.196931953070745,87.84242472767617 48.333938055267964,84.60942127235417 50.54485427469831,81.54626726590611 52.82676095167753,78.64977305456623 55.1765935651664,75.91694791016994 57.591471352853944,73.34456696157051 60.06801662277121,70.92951257358784 62.619076994593854,68.65468035431017 67.83568355976344,64.59618315463503 73.2642575078072,61.102726371836596 78.8612181259591,58.16037759795973 84.59980332243066,55.74119928096032 90.45353209584812,53.81632912054983 96.39684649324818,52.35611340290864 102.40444109189308,51.3304738793567 108.45224746091104,50.709173530434796 114.51638655863064,50.46211714362684 120.67875718863097,50.561056185718066 128.98695120804786,52.064616777907894 136.59957141305435,54.00505665712035 143.63228545203404,56.38338302817618 150.10757807989964,59.18358976129021 156.04725792048498,62.388496507666446 161.47223222966167,65.98008463374637 166.40361892815446,69.93866238944466 170.86300139742602,74.24318091003006 174.87316352435172,78.87199856471175 178.45842872580528,83.80294411543701 181.64404457787535,89.0142707358744 184.45692225761888,94.48507251387556 186.9240329496023,100.19519888483511 189.07300465642354,106.12562426114374 190.9313865481491,112.25780744911688 192.51713332820194,118.5365551607516  M43.54540097653208,102.75110803543706 38.39435273654021,100.38306922107995  M47.228828009700706,95.41956383115975 42.26748227352161,92.67621655399587  M51.479564408644436,88.41820764762929 46.75008675935935,85.29203635322813  M57.61708965830033,80.32498108481775 53.31840540352245,76.62873711630732  M67.84987964083012,70.57094735259192 64.3686617989797,66.09634925504089  M79.8471459442461,62.97953928934922 77.20909346756018,57.96141365049996  M89.15300788144754,59.21725611318631 87.38207150324826,53.8316558549611  M101.00212096278817,56.362651664083074 100.04804147427087,50.774213767262935  M111.09890417998851,55.329678916492085 110.86812540355699,49.66508299503627  M131.0907205931966,57.47633955908824 132.4910358217388,51.982704782572974  M138.95287505600007,59.78815482504375 140.7690748387465,54.4176498072473  M150.10753349379002,64.55184123856802 152.79965357936976,59.562513103253295  M160.28051167146285,71.08172233936959 163.82944988498988,66.66064290629079  M166.3827093876483,76.4848186873309 170.32005354888705,72.40582043371715  M172.8522878446447,84.12626962360002 177.4376391899354,80.7922841951277  M179.16841582038052,94.5313729059758 184.21030464069145,91.9390259151876  M183.93706101892457,105.81952448300132 189.26720220472066,103.88807406000177  "
       inkstitch:satin_column="true" />
    <g
       id="command_group7"
       inkscape:label="Ink/Stitch Command: Trim thread after sewing this object">
      <path
         id="command_connector7"
         d="m 115.00057,20.501829 -0.17046,29.965325"
         style="fill:none;stroke:#000000;stroke-width:1px;stroke-opacity:0.5"
         inkscape:connection-start="#command_use840"
         inkscape:connection-end="#path21"
         inkscape:label="connector"
         inkscape:connector-type="polyline"
         inkscape:connector-curvature="0" />
      <use
         id="command_use840"
         xlink:href="#inkstitch_trim"
         height="100%"
         width="100%"
         x="114.99798511146041"
         y="20.46598301214396"
         inkscape:label="command marker" />
    </g>
    <path
       id="path11"
       style="stroke:#000000;stroke-width:1px;fill:none"
       d="M51.3405218497092,114.1966685725934 56.85500579883425,103.2720581402088 59.75380805425197,97.93491141249969 62.96914982976681,92.74409430047926 64.7248803922043,90.25016874504429 66.62588373465489,87.80276283852841 68.68307061124236,85.42101695895391 70.91746047913828,83.11002607056741 73.35037597369454,80.87518129471528 76.00363768247546,78.72195662566416 78.89962629396048,76.65611785517278 81.99921955237689,74.72256885307489 88.36075435494439,71.87863103771363 91.62732697762931,70.61043914460863 94.9666026576117,69.46871371969688 98.37586556109413,68.47579551112497 101.86619947955239,67.64881743985264 105.44890082004495,67.00521548804365 109.13582436783923,66.56230710165502 112.93898248477117,66.33783838021628 116.87077447484705,66.35007213230294 120.943694563202,66.61756314925047 125.16992102965666,67.15962919161808 129.56131392979054,67.99559261048894 134.1294973616702,69.1454347540351 138.88557728769192,70.62899071118167 143.75617008551046,72.43517732104841 148.2960437903808,74.90989661760834 152.50735677837375,77.58794423660774 156.34278208023863,80.41516890149488 159.8204081077656,83.37359540304298 162.9581525093634,86.44531881964525 165.7736650812567,89.61272195316008 168.28410380650155,92.85868964468878 170.50636505768102,96.16579921373913 172.4570408062761,99.51681335655394 174.15229151798005,102.8940175540656 175.60802694273514,106.27975822470461 176.839910483741,109.6558948258421 177.86378208087478,113.0043946956778 178.6951416046926,116.30656095607054 179.34961096014715,119.54372854374859 179.84893790204228,122.7359460196521  M47.96647815029081,112.49353142740661 53.50659420116574,101.5181418597912 56.483991945748016,96.03628858750032 59.81465017023319,90.65930569952074 61.6855196077957,88.00183125495572 63.7013162653451,85.40663716147158 65.89212938875764,82.87018304104609 68.27813952086173,80.4023739294326 70.87882402630545,78.01341870528472 73.71316231752455,75.71324337433585 76.79997370603952,73.5112821448272 80.21938044762312,71.3782311469251 86.90464564505561,68.38956896228638 90.33147302237069,67.05916085539137 93.8261973423883,65.86428628030312 97.41113443890588,64.82020448887502 101.0958005204476,63.947182560147375 104.88889917995516,63.26578451195632 108.79877563216075,62.79609289834495 112.8334175152286,62.55796161978374 117.00062552515317,62.570927867697065 121.30830543679801,62.8538368507495 125.76427897034323,63.425370808381906 130.37668607020944,64.30340738951107 135.1543026383298,65.5059652459649 140.1062227123081,67.05060928881832 145.32582991448953,68.98622267895159 150.21675620961923,71.65230338239165 154.64524322162626,74.46845576339226 158.69141791976136,77.45103109850511 162.36999189223442,80.58040459695702 165.6958474906366,83.83628118035475 168.68433491874333,87.19827804683993 171.35089619349844,90.64611035531121 173.711434942319,94.15900078626088 175.7823591937239,97.71658664344605 177.58030848201994,101.2983824459344 179.1221730572649,104.88444177529539 180.424889516259,108.45470517415791 181.5058179191252,111.9898053043222 182.3820583953074,115.47023904392947 183.07078903985283,118.87687145625142 183.58306209795774,122.1518539803479  M53.843585747814664,111.33475270563316 48.78252019868706,108.780046987853  M61.494245251389245,96.91951188745634 56.67466374857676,93.93412415137033  M66.47146893533171,89.54188516037952 61.994152222639606,86.06416452017955  M72.3378052446311,83.08834027698788 68.50256807890871,78.91319217426306  M86.88871234468797,73.57171523581333 84.5749286912739,68.39606928557497  M96.88360102365114,69.89454474173046 95.29833228468168,64.45139961944396  M107.23184235282953,67.74270749009088 106.55565421294448,62.11388208895222  M117.73254655558372,67.35358750873765 118.10407987531869,61.69647969737752  M128.33318561725247,68.72365180301205 129.39337677207135,63.15436993617599  M151.11019238689732,77.81921492021168 154.15237866082123,73.03528259713538  M160.66752230667848,85.52516781118194 164.6334723140163,81.47397708050511  M166.5117994292501,92.11159739528777 170.99636258414924,88.64322614832672  M172.12685568378674,100.96522810111934 177.19363107573565,98.42186557789024  M175.6359684350892,109.1129079103153 180.96180475657272,107.16961861795761  M177.98564087427317,117.56537601615709 183.5425072511516,116.44192514204506  "
       inkstitch:satin_column="true" />
    <g
       id="command_group8"
       inkscape:label="Ink/Stitch Command: Trim thread after sewing this object">
      <path
         id="command_connector8"
         d="M 116.26048,32.604317 116.0284,62.567903"
         style="fill:none;stroke:#000000;stroke-width:1px;stroke-opacity:0.5"
         inkscape:connection-start="#command_use3624"
         inkscape:connection-end="#path11"
         inkscape:label="connector"
         inkscape:connector-type="polyline"
         inkscape:connector-curvature="0" />
      <use
         id="command_use3624"
         xlink:href="#inkstitch_trim"
         height="100%"
         width="100%"
         x="116.25789857944022"
         y="32.56847165564763"
         inkscape:label="command marker" />
    </g>
    <path
       id="path13"
       style="stroke:#000000;stroke-width:1px;fill:none"
       d="M66.10617816776411,118.31453160963088 67.48892208492705,114.65174276074082 69.09835088484327,111.08374364994414 70.96330340085139,107.5551295286519 73.0916389376676,104.06577584145323 75.49160730798863,100.6160709101131 78.17135488424408,97.20672483479558 81.13922882727925,93.8385080078259 84.25165998766872,90.66687781477548 89.93485938431245,87.4386095608014 92.8485874658159,86.03459667330871 95.79370633856067,84.78902181819653 98.75227600033453,83.71514261594855 101.72524499810555,82.81704412992444 104.71343582280466,82.09890163504085 107.71846231692219,81.56498090766623 110.74198043366295,81.21937823523126 113.78581847929416,81.06675838188013 116.85224163200533,81.11165913164704 119.94344595993469,81.35921707757562 123.06174324912799,81.8148090229299 126.20917461256582,82.48402614660078 129.38790843833644,83.37292452757477 132.4750307258314,84.44431239140383 136.14046174746593,86.60286720772497 139.6179225627897,88.8409925116354 142.78715386870056,91.0800137704907 145.66028743912963,93.31849868375427 148.24955173851458,95.55549865267307 150.56758236691502,97.79009256812539 152.627457840047,100.02155203405886 154.44231316648214,102.24946789522639 156.0255243456449,104.47393744618964 157.39066642682155,106.6957588206834 158.55116640257285,108.91606050971906 159.52008546948107,111.13673312602761 160.31019165281438,113.35992518889127 160.93337824114118,115.58779828879618 161.40117670968584,117.82286705208006 161.73255620810883,120.12243993507603  M62.57022183223589,116.97966839036911 63.99487791507295,113.20585723925917 65.70164911515674,109.42205635005585 67.67609659914861,105.6862704713481 69.92416106233242,102.00062415854676 72.45199269201137,98.36712908988692 75.26544511575592,94.78767516520443 78.37057117272076,91.26369199217412 81.92474001233128,87.64192218522452 88.17914061568756,84.08919043919862 91.29121253418411,82.58960332669129 94.41189366143934,81.26977818180346 97.56012399966546,80.12705738405144 100.73635500189445,79.16755587007556 103.94056417719534,78.39749836495915 107.17273768307781,77.82321909233379 110.43241956633705,77.45062176476873 113.71878152070585,77.28584161811986 117.03095836799466,77.33434086835295 120.3679540400653,77.60158292242438 123.72865675087202,78.0925909770701 127.11202538743417,78.81197385339921 130.51749156166352,79.76427547242524 134.0691692741686,80.99688760859618 138.12293825253406,83.38413279227503 141.73207743721034,85.7070074883646 145.04024613129945,88.04418622950931 148.05871256087036,90.39590131624574 150.79844826148542,92.76290134732693 153.270017633085,95.1455074318746 155.48394215995302,97.54384796594115 157.45028683351788,99.95773210477361 159.17887565435512,102.38646255381036 160.67953357317845,104.8288411793166 161.96223359742714,107.28293949028095 163.03711453051895,109.74646687397238 163.9150083471856,112.21667481110875 164.6070217588588,114.69060171120383 165.12502329031418,117.16553294791996 165.47344379189119,119.58336006492398  M68.94361172524353,113.72477893946625 63.77573725273158,111.39368923004183  M73.27384070172786,105.58159894674938 68.43383813495959,102.62943347870709  M77.8348786435189,99.16384483951639 73.37762775009732,95.6604435964217  M92.559480818271,87.22276401236654 90.09847732267369,82.11547827611848  M99.79110497974767,84.38837980191553 98.15165157660823,78.96130892196939  M108.63435421071239,82.41132524803591 107.99051890141405,76.77870757136675  M117.64857870281311,82.1233411706316 118.10115309476386,76.47213933236965  M125.40094800470702,83.27818321126865 126.5800145987039,77.73285114150532  M138.0909763567029,88.98190465795011 141.1592266320807,84.21464695097967  M146.52387207282797,95.31327468516803 150.2302113675727,91.02329160486853  M152.86343774369104,101.80732173715877 157.25894067983805,98.22675477990914  M157.08852210362662,108.1575057174733 162.11289988191785,105.5313804847325  M159.8550613676862,115.24043836787375 165.3147814426035,113.71323094889955  "
       inkstitch:satin_column="true" />
    <g
       id="command_group9"
       inkscape:label="Ink/Stitch Command: Trim thread after sewing this object">
      <path
         id="command_connector9"
         d="m 114.16059,47.324906 -0.0736,29.966327"
         style="fill:none;stroke:#000000;stroke-width:1px;stroke-opacity:0.5"
         inkscape:connection-start="#command_use572"
         inkscape:connection-end="#path13"
         inkscape:label="connector"
         inkscape:connector-type="polyline"
         inkscape:connector-curvature="0" />
      <use
         id="command_use572"
         xlink:href="#inkstitch_trim"
         height="100%"
         width="100%"
         x="114.15801578234384"
         y="47.289057236066455"
         inkscape:label="command marker" />
    </g>
    <path
       id="path14"
       style="stroke:#000000;stroke-width:1px;fill:none"
       d="M84.02020465420203,126.11559372124265 84.70733927763023,122.77092083173243 85.65850409631524,119.62811888467327 86.89782140345876,116.60095107670675 88.43456899580185,113.683102298795 90.27954260320223,110.86853456198301 92.44478836145039,108.15275736826106 94.9424613868092,105.53285208823134 97.67529055725963,103.10458520484919 101.38412890337906,101.09722137924068 105.3513000935452,99.54516710569767 109.48421227378203,98.51429493194966 111.54643237131614,98.21269256972973 113.66296729120377,98.04764773817267 115.80028073369682,98.02680556057963 117.95519233303371,98.15332088191893 120.12494574978375,98.43071244618557 122.30655103821312,98.8627986619406 124.49710182564702,99.45342175201722 126.69376655229932,100.20670489659783 128.89323861540944,101.12667775598958 131.02306482716352,102.18364995081959 133.06521259999866,103.59501848880214 134.9359506363938,105.06315525157416 136.5885874405138,106.53943119254448 138.02344894355556,108.0017163524309 140.4537868637023,111.02161798283491 142.33049483764424,114.06042096275618 143.82844511431065,117.15733052773416 145.09623987345748,120.3252580224535 147.4937771577776,126.76247868531354  M80.31799534579797,125.35500627875734 81.03986072236977,121.84127916826758 82.09289590368475,118.36188111532674 83.46897859654125,115.00064892329324 85.17463100419813,111.762097701205 87.21485739679778,108.649665438017 89.59381163854961,105.66584263173894 92.31493861319079,102.81154791176867 95.49170944274037,99.98881479515082 99.79007109662095,97.66237862075933 104.20069990645479,95.93683289430233 108.75158772621798,94.80170506805034 111.12556762868385,94.45450743027028 113.49743270879624,94.26955226182734 115.89271926630319,94.24619443942036 118.3060076669663,94.38787911808107 120.73245425021626,94.69808755381445 123.16664896178688,95.1802013380594 125.60329817435299,95.83717824798278 128.0374334477006,96.67189510340215 130.46416138459054,97.68692224401043 132.94753517283647,98.91935004918042 135.30838740000135,100.55098151119785 137.3640493636062,102.16424474842583 139.1992125594862,103.8035688074555 140.85135105644443,105.4872836475691 143.54581313629768,108.83538201716509 145.64830516235574,112.2397790372438 147.28835488568936,115.63046947226584 148.6221601265425,118.9633419775465 151.0356228422224,125.44332131468647  M85.98572321501445,121.80882970684205 80.55949512431718,120.16658901049057  M88.75007514088355,115.11172148769913 83.7339481302424,112.46987069514077  M94.68339685581799,107.17394829931784 90.5800209520907,103.26201629713078  M100.90819040562207,102.4292191345408 98.20965376262743,97.4433585484995  M107.5365195308807,99.9739399765917 106.164464858483,94.47317895897088  M114.58343456214499,98.98359915519175 114.52815262121041,93.31457369184874  M123.4548610566142,100.15103446449628 124.93072966578752,94.67721334525227  M133.6870200318614,105.28412143932688 137.18708373729808,100.82424926011483  M138.70667431957114,110.35776742557626 143.12334611059012,106.80334537868283  M142.4340856203225,116.44458467146148 147.53771209199653,113.97600154856423  M145.9272573677622,125.26367373098225 151.24002589442966,123.28493767504239  "
       inkstitch:satin_column="true" />
    <path
       id="path15"
       style="stroke:#000000;stroke-width:1px;fill:none"
       d="M133.48274814923636,130.43246816358703 136.27091852594404,130.2919077492399 138.8987481927051,130.382577644421 141.39523492269012,130.70500796377942 143.71493813193166,131.26002447825988 145.81498200072895,132.04520355146516 147.65817763500138,133.0546603605017 149.21796885893005,134.28291787850512 150.60617457007405,135.87857040987257  M133.29245185076363,126.65773183641295 136.24088147405578,126.5090922507601 139.206651807295,126.61142235557907 142.07896507730987,126.9823920362206 144.82066186806833,127.63837552174009 147.39261799927107,128.59999644853482 149.74942236499862,129.8907396394983 151.83583114106997,131.53368212149488 153.45762542992597,133.39782959012746  M135.37126579116702,131.28334450566246 135.0858213434585,125.62124001490133  M142.69050759841923,131.98646893871828 144.0097192054189,126.47279624867016  M149.08673828132436,135.5716515448463 153.3639145710976,131.85054031522333  "
       inkstitch:satin_column="true" />
    <path
       id="path18"
       style="stroke:#000000;stroke-width:1px;fill:none"
       d="M147.78190595892514,131.9921752760798 150.14631759982143,129.12286010953434 151.27579491299042,127.758625705178 152.52699787827356,126.50920229182957 154.0989165873298,125.31985393107138 156.19560870558158,124.1704852696692 159.0157200863553,123.07441675408155 162.55208334067092,122.11470379403424 164.28550013340677,122.14453204326038 166.3471447202056,122.40347729653853 168.56258190629333,122.93357652643681 170.92825573698482,123.78211937181347 173.43912150564353,124.99846445626244 176.08835265593802,126.63318076067006 178.86689706229768,128.7368105951379 181.81992387418128,131.41015946547472  M144.86509404107485,129.58862472392022 147.23228240017858,126.71593989046566 148.47860508700956,125.210574294822 150.03980212172644,123.65159770817043 152.0392834126702,122.13874606892861 154.59579129441843,120.73731473033081 157.8328799136447,119.47918324591843 162.0803166593291,118.32649620596577 164.55429986659325,118.36906795673961 167.0244552797944,118.67932270346147 169.6436180937067,119.30602347356319 172.3943442630152,120.29268062818655 175.2600784943565,121.68093554373755 178.22624734406196,123.51121923932993 181.28050293770215,125.82358940486192 184.35647612581872,128.60824053452527  M150.71635325307312,129.91690414014818 146.34113537629815,126.31157831190826  M155.71250634315723,125.51285360921683 152.98730872741478,120.54151538373101  M163.76224453098914,123.0805503607397 163.8597860534929,117.41209453499556  M172.1116706287991,125.40531898833507 174.58331542118296,120.30317455512792  M179.90041326374296,130.94700287968283 183.7052416411998,126.74412448325923  "
       inkstitch:satin_column="true" />
    <path
       id="path19"
       style="stroke:#000000;stroke-width:1px;fill:none"
       d="M178.29356700141193,127.62460412980785 179.52322743389627,126.52942619779462 180.5734753336006,125.38477517764883 181.50451638825896,124.4010182252155 182.51407108731703,123.57190116501916 183.8459100711872,122.84602464470937 185.7804071884438,122.22626780871349 188.56290465839868,121.7838169943277 192.40215935156252,121.60473422241395 194.10857774125978,121.6345285451787 195.62458246932638,121.88793222689014 197.068976916376,122.34292593167893 198.44039786170032,122.96747135685173 201.25598437893376,124.75295611714046 204.07007613246742,126.98028808571635  M175.77983299858806,124.80219587019214 176.86717256610373,123.83377380220539 177.8083246663994,122.80802482235117 178.92248361174106,121.63078177478451 180.39152891268296,120.42429883498083 182.35168992881282,119.35597535529062 184.90199281155617,118.5389321912865 188.17689534160132,118.0181830056723 192.34704064843746,117.82366577758606 194.45502225874023,117.86047145482131 196.5082175306736,118.20366777310986 198.42502308362404,118.80747406832106 200.24420213829967,119.63592864314826 203.44681562106626,121.66684388285955 206.41572386753256,124.01671191428366  M181.17623023091502,126.1254534378061 176.99887600722528,122.29261930535964  M187.22762960819279,122.95289544425066 186.33732831161467,117.35394291736347  M194.88948017914376,122.72304970845049 195.8241485800675,117.13133255024768  M201.73257086954456,126.33520523315426 205.2510424721422,121.8898409760051  "
       inkstitch:satin_column="true" />
    <g
       id="command_group10"
       inkscape:label="Ink/Stitch Command: Trim thread after sewing this object">
      <path
         id="command_connector10"
         d="m 180.65825,88.873089 9.01064,29.075501"
         style="fill:none;stroke:#000000;stroke-width:1px;stroke-opacity:0.5"
         inkscape:connection-start="#command_use5733"
         inkscape:connection-end="#path19"
         inkscape:label="connector"
         inkscape:connector-type="polyline"
         inkscape:connector-curvature="0" />
      <use
         id="command_use5733"
         xlink:href="#inkstitch_trim"
         height="100%"
         width="100%"
         x="180.65566999854158"
         y="88.83724379595012"
         inkscape:label="command marker" />
    </g>
    <path
       id="path1"
       style="stroke:#000000;stroke-width:1px;fill:none"
       d="M133.3994729201305,149.73970989648282 134.3233946686825,152.67770545120595 135.43652786213602,155.51493575219888 136.71129276629824,158.19612847098605 138.13923316692868,160.72672999946676 139.71096112356372,163.11248572474273 141.41694507706,165.359590385411 143.24760403032428,167.47493267384587 145.1559156614339,169.42747162049747  M137.0049270798695,148.60589010351717 137.8896053313175,151.41909454879402 138.906672137864,154.01146424780114 140.06790723370176,156.45387152901392 141.3669668330713,158.75607000053324 142.79763887643628,160.9277142752573 144.35405492294,162.977809614589 146.03059596967574,164.91506732615412 147.85888433856607,166.7857283795025  M133.1007544299143,151.93952678763117 138.5089356695229,150.23879709818289  M136.43878625693262,159.63590691295317 141.37626808818382,156.8498381838854  M141.46956994341747,166.8643080386986 145.7564387860395,163.15436716003467  "
       inkstitch:satin_column="true" />
    <g
       id="command_group12"
       inkscape:label="Ink/Stitch Command: Trim thread after sewing this object">
      <path
         id="command_connector12"
         d="m 129.08754,119.73979 8.93765,30.65113"
         style="fill:none;stroke:#000000;stroke-width:1px;stroke-opacity:0.5"
         inkscape:connection-start="#command_use6425"
         inkscape:connection-end="#path1"
         inkscape:label="connector"
         inkscape:connector-type="polyline"
         inkscape:connector-curvature="0" />
      <use
         id="command_use6425"
         xlink:href="#inkstitch_trim"
         height="100%"
         width="100%"
         x="129.0849670498255"
         y="119.70393951917156"
         inkscape:label="command marker" />
    </g>
    <path
       id="path20"
       style="stroke:#000000;stroke-width:1px;fill:none"
       d="M175.04705895035906,158.27181693079785 177.40080180986357,163.1085500272048 178.79871551478175,165.4714540564631 180.3340191455841,167.712502946536 182.03649668206816,169.83461864709312 183.92346540185937,171.81993240028083 186.01070441295633,173.64896398534538 188.23533265813688,175.2477668383869  M178.44554104964092,156.61798306920213 180.7319981901364,161.3164499727952 181.98768448521827,163.43894594353688 183.3713808544159,165.458697053464 184.88530331793186,167.3457813529069 186.54413459814063,169.09106759971917 188.36449558704368,170.6862360146546 190.44106734186312,172.1786331616131  M176.02475145121085,162.4402418119526 181.1224746001338,159.95949101955938  M180.65540343494993,169.62306346522354 185.07751098007478,166.0754063994441  "
       inkstitch:satin_column="true" />
    <g
       id="command_group13"
       inkscape:label="Ink/Stitch Command: Trim thread after sewing this object">
      <path
         id="command_connector13"
         d="m 182.46777,126.92648 0.18927,37.48951"
         style="fill:none;stroke:#000000;stroke-width:1px;stroke-opacity:0.5"
         inkscape:connection-start="#command_use1892"
         inkscape:connection-end="#path20"
         inkscape:label="connector"
         inkscape:connector-type="polyline"
         inkscape:connector-curvature="0" />
      <use
         id="command_use1892"
         xlink:href="#inkstitch_trim"
         height="100%"
         width="100%"
         x="182.46520117932474"
         y="126.89062907567578"
         inkscape:label="command marker" />
    </g>
    <path
       id="path23"
       style="stroke:#000000;stroke-width:1px;fill:none"
       d="M28.42432767236151,122.96388144190566 25.847370996218153,123.1544539313015 21.133590272764952,123.89875677709668 16.52692208918828,124.9272530946399 14.650191706008401,125.57790031135362 13.787411231100346,126.24930955322593  M28.70307232763849,126.73311855809435 26.28222900378185,126.91214606869849 21.840809727235047,127.61344322290333 17.56107791081195,128.56894690536004 16.478408293991595,128.9442996886464 16.108588768899654,129.2320904467741  M26.534456652392148,122.15617945463347 26.952573635307974,127.8100351289165  M17.15021146896019,123.81995043136921 18.385538759229664,129.35302121375943  "
       inkstitch:satin_column="true" />
    <path
       style="fill:#f3084c;fill-opacity:1;stroke-width:0.421166;stroke-linejoin:bevel;stroke-miterlimit:0"
       d="m 203.23257,121.44691 c -1.51513,-1.16612 -6.27928,-3.17515 -8.61147,-3.63144 l -2.36099,-0.46192 -0.6952,-3.3774 c -1.54841,-7.52241 -5.83087,-18.097346 -10.3496,-25.556955 -2.7783,-4.586448 -7.87973,-10.79193 -12.61035,-15.339428 C 161.50178,66.251515 155.36958,62.11082 146.58272,58.209519 136.85375,53.88992 128.8304,51.795455 118.83029,50.964857 104.95478,49.812368 88.56466,53.265536 75.733898,60.044658 57.659697,69.594144 43.635311,86.14844 37.014894,105.74831 l -0.873225,2.5852 -2.28146,0.23846 c -1.254805,0.13115 -3.206382,0.5899 -4.33684,1.01943 -1.130458,0.42955 -2.119664,0.7167 -2.198235,0.63813 -0.609133,-0.60913 3.729759,-13.041908 6.692859,-19.177891 4.484435,-9.286365 9.362411,-16.284965 16.436971,-23.582686 7.58845,-7.827822 14.886011,-13.090295 25.021671,-18.043817 13.408001,-6.552786 23.87382,-8.961819 38.951595,-8.965914 9.26988,-0.0026 14.83447,0.554771 21.21509,2.124679 25.22522,6.206478 46.45044,22.798569 58.41166,45.661326 4.90783,9.380843 8.05491,19.251563 9.55199,29.959563 0.28541,2.04137 0.4936,3.74116 0.46265,3.77731 -0.031,0.0361 -0.40763,-0.20468 -0.83705,-0.53519 z"
       id="path2"
       inkscape:label="R path2" />
    <path
       style="fill:#f29b14;fill-opacity:1;stroke-width:0.421166;stroke-linejoin:bevel;stroke-miterlimit:0"
       d="m 182.95267,119.04364 c -0.0936,-0.15133 -0.53595,-1.70827 -0.98317,-3.45986 -6.99046,-27.37892 -28.6159,-47.32792 -56.28884,-51.925226 -13.54148,-2.249646 -27.277906,-0.167453 -40.606285,6.155181 -8.387244,3.97869 -15.101844,9.04717 -21.924485,16.549588 -4.973871,5.469444 -10.79675,15.381007 -13.427244,22.855527 -0.567173,1.61161 -1.110048,3.15402 -1.206393,3.42759 -0.119887,0.34042 -0.886923,0.0148 -2.430456,-1.03165 -1.240403,-0.84096 -3.186272,-1.85594 -4.32415,-2.2555 -1.890895,-0.66398 -2.048306,-0.8105 -1.829847,-1.70321 0.591753,-2.41814 3.232529,-8.445008 5.787306,-13.207982 11.958069,-22.29394 34.145204,-37.116987 59.727804,-39.90367 27.37408,-2.981827 55.6593,10.217401 71.11647,33.186321 3.38003,5.022641 7.42889,13.194591 9.38822,18.948601 1.52345,4.47395 3.13163,11.13475 2.68837,11.13475 -0.14057,0 -1.43947,0.33855 -2.88642,0.75235 -1.44696,0.41379 -2.70734,0.62852 -2.80088,0.47719 z"
       id="path3" />
    <path
       style="fill:#f9ff19;fill-opacity:1;stroke-width:0.421166;stroke-linejoin:bevel;stroke-miterlimit:0"
       d="m 174.62023,121.33128 c -1.55496,-0.79001 -3.84052,-1.65178 -5.079,-1.91505 -4.2341,-0.90005 -3.89239,-0.55268 -5.61147,-5.70441 -5.37167,-16.097709 -17.49664,-28.18975 -33.69701,-33.605485 -5.38439,-1.799982 -10.06095,-2.55551 -15.90854,-2.570118 -13.93497,-0.03479 -26.589686,5.041989 -36.659043,14.706801 -5.948316,5.709331 -10.24192,12.306142 -13.336291,20.490222 l -1.402638,3.70974 -3.687469,0.46569 c -2.028109,0.25614 -4.435526,0.73296 -5.349823,1.0596 -1.63564,0.58435 -1.672607,0.57824 -2.300654,-0.38027 -0.592789,-0.90472 -0.588603,-1.1612 0.05876,-3.59726 2.085733,-7.8488 7.03841,-17.258099 12.698221,-24.124585 2.871126,-3.483249 10.223461,-10.185653 13.750736,-12.535195 6.650146,-4.429706 15.459025,-8.106907 23.947751,-9.996809 3.40357,-0.757758 5.03948,-0.869831 12.69751,-0.86988 7.67902,-4.5e-5 9.30932,0.112241 12.89287,0.887996 11.24451,2.434187 21.13026,7.213505 29.69265,14.355068 10.24859,8.54796 17.27507,19.627635 21.11108,33.288935 1.34451,4.7882 1.44005,6.34875 0.44392,7.25024 -0.89298,0.80814 -0.85222,0.8169 -4.26156,-0.91523 z"
       id="path4" />
    <path
       style="fill:#30c334;fill-opacity:1;stroke-width:0.421166;stroke-linejoin:bevel;stroke-miterlimit:0"
       d="m 74.931535,125.43171 c -1.170336,-2.20915 -4.208009,-5.32574 -6.500183,-6.66905 -2.265986,-1.32795 -2.253955,-1.90616 0.155618,-7.4776 2.838405,-6.56299 5.493783,-10.55329 10.210551,-15.343654 4.708218,-4.781681 7.590603,-6.930681 13.072074,-9.746042 7.36204,-3.781252 13.436795,-5.220044 22.090275,-5.232026 6.62439,-0.0091 9.66159,0.473846 15.78572,2.510469 12.18996,4.053856 22.55727,13.224332 28.50121,25.210943 1.94337,3.91902 3.60408,8.757 3.28838,9.57971 -0.11604,0.30241 -1.6501,0.96567 -3.40903,1.47392 -1.77442,0.51273 -4.23493,1.59428 -5.52738,2.42962 -1.53091,0.98948 -2.37615,1.3383 -2.46585,1.01764 -2.47634,-8.85101 -5.02193,-13.60655 -9.99662,-18.67518 -4.95519,-5.04874 -10.67198,-8.098177 -17.94007,-9.569547 -4.40545,-0.891848 -12.25719,-0.61605 -16.37097,0.57504 -3.25325,0.941938 -7.467604,2.970194 -10.618641,5.110467 -3.008667,2.04358 -7.79364,7.17812 -9.735469,10.44671 -1.956131,3.29265 -4.227922,9.45126 -4.574659,12.40144 l -0.249776,2.12522 -1.999003,0.65703 c -1.099449,0.36136 -2.174811,0.72099 -2.389694,0.79917 -0.21488,0.0782 -0.811798,-0.65275 -1.326483,-1.62428 z"
       id="path5" />
    <path
       style="fill:#3f65d2;fill-opacity:1;stroke-width:0.421166;stroke-linejoin:bevel;stroke-miterlimit:0"
       d="m 143.84788,127.95218 c -0.64465,-0.18708 -2.56163,-0.4789 -4.25994,-0.64848 l -3.08787,-0.30833 -0.64387,-2.73484 c -0.35413,-1.50417 -1.25014,-3.8748 -1.99114,-5.26808 -1.66898,-3.13811 -5.5658,-7.3361 -8.0636,-8.68682 -5.00918,-2.70878 -11.69488,-3.57748 -16.1392,-2.09704 -8.39646,2.79693 -13.656166,8.40243 -15.450111,16.46588 -0.544923,2.44931 -0.76728,2.91164 -1.296711,2.69612 -2.43261,-0.99021 -4.98721,-1.71714 -6.854096,-1.95039 -2.102197,-0.26265 -2.169547,-0.30758 -1.951628,-1.3019 1.538146,-7.01814 4.490993,-12.59116 9.128643,-17.22881 2.786311,-2.7863 4.939009,-4.27849 9.018223,-6.25115 4.7733,-2.308313 7.93241,-2.883922 14.57537,-2.655719 4.77208,0.163932 5.92842,0.336908 8.45802,1.265223 10.41431,3.821866 17.23174,10.889826 20.47133,21.223596 1.17791,3.75741 1.36169,7.28471 0.39877,7.65422 -0.72152,0.27687 -0.77394,0.27294 -2.31219,-0.17348 z"
       id="path6" />
    <g
       id="command_group11"
       inkscape:label="Ink/Stitch Command: Trim thread after sewing this object">
      <path
         id="command_connector11"
         d="m 108.91538,68.216877 4.29473,29.733032"
         style="fill:none;stroke:#000000;stroke-width:1px;stroke-opacity:0.5"
         inkscape:connection-start="#command_use1563"
         inkscape:connection-end="#path6"
         inkscape:label="connector"
         inkscape:connector-type="polyline"
         inkscape:connector-curvature="0" />
      <use
         id="command_use1563"
         xlink:href="#inkstitch_trim"
         height="100%"
         width="100%"
         x="108.9127980355598"
         y="68.18103076227676"
         inkscape:label="command marker" />
    </g>
    <path
       style="fill:#ffffff;stroke-width:0;stroke-linejoin:bevel;stroke-miterlimit:0"
       d="m 30.640284,161.95608 c -11.06969,-2.00871 -19.230049,-8.98485 -20.7590403,-17.74652 -0.8315641,-4.76516 1.0186493,-9.92835 4.8184343,-13.44628 2.573667,-2.38277 4.894513,-3.36373 9.250334,-3.90991 1.674633,-0.20998 3.280345,-0.61734 3.568249,-0.90524 1.278443,-1.27845 -0.819326,-2.5898 -3.713114,-2.32114 -2.037289,0.18915 -2.079112,0.0755 -1.011855,-2.74923 2.217548,-5.86924 7.960459,-9.45395 14.475916,-9.03581 4.524867,0.29039 9.25734,3.24068 11.263101,7.02157 l 0.864434,1.62948 -1.16896,1.41815 c -1.261974,1.53099 -1.483971,2.73738 -0.633592,3.44313 0.627875,0.52109 0.883173,0.39207 3.345879,-1.69097 4.80443,-4.06374 10.575981,-4.81788 15.710077,-2.05275 3.160485,1.70218 6.094048,5.68203 6.713739,9.10827 0.378478,2.09257 0.808404,2.73705 1.825868,2.73705 0.682117,0 0.952658,-0.24406 1.120713,-1.01103 0.399695,-1.82411 0.501026,-1.95402 2.084665,-2.67283 1.244405,-0.56483 2.410567,-0.71342 5.649272,-0.71983 4.425306,-0.009 5.786203,0.30409 8.068416,1.85475 3.673621,2.49608 6.05497,6.16974 6.821989,10.52418 1.045676,5.93641 -2.472849,12.70048 -8.078478,15.53019 -2.123206,1.07179 -2.449368,1.12693 -6.666894,1.12693 -4.022801,0 -4.605963,-0.0869 -6.281812,-0.93612 -1.016037,-0.51487 -3.084254,-2.01487 -4.596037,-3.33334 -3.220709,-2.80889 -4.026768,-2.92357 -3.976555,-0.56575 l 0.03356,1.57591 -2.483496,1.25067 c -6.834927,3.44201 -13.556776,5.48172 -19.97253,6.06055 -5.217463,0.47072 -13.15885,0.38088 -16.272283,-0.18408 z"
       id="path7" />
    <g
       id="command_group1"
       inkscape:label="Ink/Stich Instrucción: Trim thread after sewing this object">
      <path
         id="command_connector1"
         d="M 41.540128,82.181942 51.19979,123.44762"
         style="fill:none;stroke:#000000;stroke-width:1px;stroke-opacity:0.5"
         inkscape:connection-start="#command_use828"
         inkscape:connection-end="#path7"
         inkscape:label="conector"
         inkscape:connector-type="polyline"
         inkscape:connector-curvature="0" />
      <use
         id="command_use828"
         xlink:href="#inkstitch_trim"
         height="100%"
         width="100%"
         x="41.53754752073508"
         y="82.14609351791044"
         inkscape:label="marcador de instrucción" />
    </g>
    <path
       style="fill:#ffffff;stroke-width:0;stroke-linejoin:bevel;stroke-miterlimit:0"
       d="m 121.92429,175.54428 c -1.18612,-0.30063 -3.17142,-1.07934 -4.41176,-1.73047 -2.73385,-1.43517 -6.79266,-5.3749 -7.86817,-7.63734 -1.81461,-3.81721 -1.79917,-9.51769 0.0335,-12.37445 2.29579,-3.57864 6.06586,-5.9003 8.94131,-5.50617 1.95963,0.2686 2.40169,-0.28256 3.05631,-3.81056 1.00727,-5.42856 4.39648,-9.88373 9.40022,-12.35671 2.47802,-1.22471 3.20795,-1.40942 6.11967,-1.54863 4.18482,-0.20008 6.88301,0.49241 10.6033,2.72132 1.51404,0.90709 3.08367,1.60249 3.48808,1.54532 1.36328,-0.19272 1.06687,-1.52749 -0.72623,-3.27041 l -1.68058,-1.63355 2.26335,-2.29158 c 5.81753,-5.89011 14.59636,-7.26181 22.36922,-3.49523 1.16408,0.56409 3.29491,2.20986 5.0799,3.92353 2.5372,2.43582 3.18286,2.88407 3.69335,2.56414 1.03443,-0.64828 0.89504,-1.70783 -0.47731,-3.62833 l -1.30864,-1.83134 0.83465,-0.6965 c 0.45906,-0.38308 2.07546,-1.29301 3.592,-2.02206 2.63017,-1.26441 2.93634,-1.32555 6.63768,-1.32555 3.73101,0 3.98579,0.0521 6.62092,1.35495 3.39719,1.67957 6.23174,4.44587 7.78716,7.59966 1.03975,2.1082 1.16828,2.74743 1.31308,6.53038 0.15569,4.06756 0.18715,4.20011 1.048,4.41617 0.57636,0.14466 1.13084,0.003 1.58163,-0.40543 1.00753,-0.91181 1.86202,-0.48406 4.35341,2.17925 4.63287,4.95255 6.27187,11.30125 4.53481,17.56563 -1.78292,6.42978 -7.64655,12.01051 -14.21915,13.53314 -2.48151,0.57488 -6.90827,0.57787 -9.36342,0.006 -6.29932,-1.46641 -11.47744,-5.69958 -14.53209,-11.88012 -1.90469,-3.85381 -2.68267,-4.82955 -3.57704,-4.48635 -0.94446,0.36242 -0.97018,1.46954 -0.0925,3.98129 1.04403,2.98782 3.56008,6.78847 6.22862,9.4087 1.1256,1.10523 2.04655,2.11514 2.04655,2.24424 0,0.42831 -5.28279,1.78517 -8.44624,2.16937 -6.82791,0.82925 -11.66121,0.29901 -17.59678,-1.93048 -5.02824,-1.88868 -8.80334,-4.3431 -12.65737,-8.22933 -3.74682,-3.77811 -5.4789,-6.21947 -7.65193,-10.78536 -0.818,-1.71875 -1.68906,-3.5386 -1.93569,-4.04411 -0.59476,-1.21908 -2.28302,-1.4644 -2.62666,-0.38168 -0.70718,2.22813 3.33414,10.02417 8.12205,15.66811 l 1.95668,2.30653 -2.19617,2.03326 c -2.51102,2.32477 -5.89301,4.31501 -8.74957,5.14897 -2.93638,0.85726 -8.96559,1.06613 -11.58815,0.40144 z"
       id="path8" />
    <g
       id="command_group2"
       inkscape:label="Ink/Stich Instrucción: Trim thread after sewing this object">
      <path
         id="command_connector2"
         d="m 150.13042,94.278027 7.38374,29.124343"
         style="fill:none;stroke:#000000;stroke-width:1px;stroke-opacity:0.5"
         inkscape:connection-start="#command_use2400"
         inkscape:connection-end="#path8"
         inkscape:label="conector"
         inkscape:connector-type="polyline"
         inkscape:connector-curvature="0" />
      <use
         id="command_use2400"
         xlink:href="#inkstitch_trim"
         height="100%"
         width="100%"
         x="150.12783051015393"
         y="94.24218010530579"
         inkscape:label="marcador de instrucción" />
    </g>
  </g>
</svg>
