<?xml version="1.0" encoding="UTF-8" standalone="no"?>
<!-- Created with Inkscape (http://www.inkscape.org/) -->

<svg
   version="1.1"
   id="svg1"
   width="67.663002mm"
   height="69.999931mm"
   viewBox="0 0 255.73418 264.56667"
   sodipodi:docname="barbie.svg"
   inkscape:version="1.3.2 (1:1.3.2+202311252150+091e20ef0f)"
   xmlns:inkscape="http://www.inkscape.org/namespaces/inkscape"
   xmlns:sodipodi="http://sodipodi.sourceforge.net/DTD/sodipodi-0.dtd"
   xmlns:xlink="http://www.w3.org/1999/xlink"
   xmlns="http://www.w3.org/2000/svg"
   xmlns:svg="http://www.w3.org/2000/svg"
   xmlns:inkstitch="http://inkstitch.org/namespace">
  <sodipodi:namedview
     id="namedview1"
     pagecolor="#00ff0d"
     bordercolor="#666666"
     borderopacity="1.0"
     inkscape:showpageshadow="2"
     inkscape:pageopacity="0.0"
     inkscape:pagecheckerboard="0"
     inkscape:deskcolor="#d1d1d1"
     inkscape:zoom="1.8346554"
     inkscape:cx="104.10674"
     inkscape:cy="103.56168"
     inkscape:window-width="1848"
     inkscape:window-height="1016"
     inkscape:window-x="72"
     inkscape:window-y="27"
     inkscape:window-maximized="1"
     inkscape:current-layer="g1"
     inkscape:document-units="mm" />
  <metadata
     id="metadata4">
    <inkstitch:min_stitch_len_mm>0</inkstitch:min_stitch_len_mm>
    <inkstitch:collapse_len_mm>3</inkstitch:collapse_len_mm>
    <inkstitch:inkstitch_svg_version>1</inkstitch:inkstitch_svg_version>
  </metadata>
  <defs
     id="defs1">
    <symbol
       id="inkstitch_trim">
      <title
         id="inkstitch_title9282">Trim the thread after sewing this object.</title>
      <path
         id="inkstitch_circle13405"
         d="m 9.2465284,-8.6e-6 c 1.8e-6,2.452339 -0.9741847,4.804237 -2.7082493,6.538304 C 4.8042146,8.2723614 2.4523174,9.2465504 -2.1625959e-5,9.2465514 -2.4523623,9.2465534 -4.8042621,8.2723654 -6.5383288,6.5382984 -8.2723956,4.8042314 -9.2465834,2.4523324 -9.2465816,-8.6e-6 c 6e-7,-2.452339 0.9741895,-4.804237 2.708256,-6.538301 1.7340665,-1.734065 4.0859648,-2.708252 6.538303974041,-2.70825 C 5.1067066,-9.2465576 9.2465271,-5.1067366 9.2465284,-8.6e-6 c 0,0 0,0 0,0"
         style="opacity:1;vector-effect:none;fill:#fafafa;fill-opacity:1;fill-rule:evenodd;stroke:#003399;stroke-width:1.06500006;stroke-linecap:round;stroke-linejoin:miter;stroke-miterlimit:4;stroke-dasharray:3.19500017, 3.19500017;stroke-dashoffset:0;stroke-opacity:1"
         inkscape:connector-curvature="0" />
      <path
         style="color:#000000;font-style:normal;font-variant:normal;font-weight:normal;font-stretch:normal;font-size:medium;line-height:normal;font-family:sans-serif;font-variant-ligatures:normal;font-variant-position:normal;font-variant-caps:normal;font-variant-numeric:normal;font-variant-alternates:normal;font-feature-settings:normal;text-indent:0;text-align:start;text-decoration:none;text-decoration-line:none;text-decoration-style:solid;text-decoration-color:#000000;letter-spacing:normal;word-spacing:normal;text-transform:none;writing-mode:lr-tb;direction:ltr;text-orientation:mixed;dominant-baseline:auto;baseline-shift:baseline;text-anchor:start;white-space:normal;shape-padding:0;clip-rule:nonzero;display:inline;overflow:visible;visibility:visible;opacity:1;isolation:auto;mix-blend-mode:normal;color-interpolation:sRGB;color-interpolation-filters:linearRGB;solid-color:#000000;solid-opacity:1;vector-effect:none;fill:#050505;fill-opacity:1;fill-rule:evenodd;stroke:none;stroke-width:1.41421342;stroke-linecap:butt;stroke-linejoin:miter;stroke-miterlimit:4;stroke-dasharray:none;stroke-dashoffset:0;stroke-opacity:1;color-rendering:auto;image-rendering:auto;shape-rendering:auto;text-rendering:auto;enable-background:accumulate"
         d="m -3.0000256,-5.9834096 c -1.30575,0 -2.375,1.06924 -2.375,2.375 0,1.30575 1.06925,2.375 2.375,2.375 0.58687,0 1.11944,-0.22369 1.53516,-0.58007 0,0 0.61717997,1.62109 0.61717997,1.62109 0,0 -2.29881997,6.01758 -2.29881997,6.01758 0.98655,-0.12511 1.23728,-0.26171 1.67382,-0.97461 0,0 1.33007997,-3.18945 1.33007997,-3.18945 0,0 1.23633003,3.25 1.23633003,3.25 0.23227,0.77906 0.84315,0.79218 1.57813,1.07226 0,0 -2.05469003,-6.14258 -2.05469003,-6.14258 0,0 0.73047003,-1.75 0.73047003,-1.75 0.42849,0.41682 1.01136,0.67578 1.65234,0.67578 1.30575,0 2.375,-1.06925 2.375,-2.375 0,-1.30576 -1.06925,-2.375 -2.375,-2.375 -1.06233,0 -1.95701,0.71265 -2.25781003,1.67969 0,0 -0.0117,-0.0156 -0.0117,-0.0156 0,0 -0.80274,2.10156 -0.80274,2.10156 0,0 -0.59179,-1.76562 -0.59179,-1.76562 -0.18242,-1.12808 -1.15864997,-2 -2.33593997,-2 0,0 -2e-5,-3e-5 -2e-5,-3e-5 m 0,1 c 0.76531,0 1.375,0.60968 1.375,1.375 0,0.76531 -0.60969,1.375 -1.375,1.375 -0.76531,0 -1.375,-0.60969 -1.375,-1.375 0,-0.76532 0.60969,-1.375 1.375,-1.375 0,0 0,0 0,0 m 6,0 c 0.76531,0 1.375,0.60968 1.375,1.375 0,0.76531 -0.60969,1.375 -1.375,1.375 -0.76531,0 -1.375,-0.60969 -1.375,-1.375 0,-0.76532 0.60969,-1.375 1.375,-1.375 0,0 0,0 0,0"
         id="inkstitch_path13416"
         inkscape:connector-curvature="0" />
    </symbol>
  </defs>
  <g
     inkscape:groupmode="layer"
     inkscape:label="Image"
     id="g1">
    <path
       style="display:inline;fill:#ff00ff;stroke-width:0.57255"
       d="m 36.695202,247.55004 c -2.16373,-0.61678 -4.482557,-1.42547 -5.15295,-1.79709 -0.670393,-0.37163 -3.537723,-0.70202 -6.371845,-0.73419 -6.350378,-0.0721 -10.132008,-1.62257 -14.118077,-5.78844 C 6.3098164,234.2739 5.4079209,228.03675 7.9714036,217.92387 8.7462808,214.867 13.254621,200.92832 17.989928,186.94903 c 4.735314,-13.97928 8.545742,-25.43787 8.467623,-25.4635 -0.07812,-0.0256 -1.43028,-0.7163 -3.004793,-1.53477 -2.01695,-1.04849 -3.370228,-2.30547 -4.580399,-4.2545 -1.568271,-2.52574 -1.715268,-3.19301 -1.690287,-7.67264 0.02451,-4.39265 0.227588,-5.30437 1.939828,-8.70854 1.051848,-2.09122 2.904316,-4.9626 4.116593,-6.38085 7.065953,-8.26646 26.927238,-15.86794 41.460033,-15.86794 6.814837,0 7.021007,-0.18363 4.493743,-4.00258 -1.449444,-2.19027 -3.871891,-9.35592 -4.743954,-14.032737 -0.234871,-1.25961 -0.915083,-3.191966 -1.511583,-4.294124 -0.743243,-1.3733 -1.090615,-3.190986 -1.103836,-5.776049 -0.01677,-3.27837 0.224273,-4.163949 1.841492,-6.765507 1.023433,-1.646356 1.860787,-3.73243 1.860787,-4.635714 0,-0.903282 0.270336,-2.353356 0.600737,-3.222396 0.498703,-1.311683 0.334009,-2.168939 -0.969664,-5.047085 -1.245623,-2.749985 -1.620849,-4.563079 -1.814291,-8.766729 -0.300136,-6.522035 0.9905,-10.54792 4.819604,-15.03383 2.877733,-3.371357 8.863651,-7.597789 13.104528,-9.252624 1.636559,-0.638605 3.898555,-2.186494 5.270682,-3.606738 3.385728,-3.504452 5.88031,-5.304766 11.158986,-8.053326 l 4.596853,-2.393539 c 13.44311,-4.104037 20.42699,-2.193061 30.96921,-1.063535 0.38642,0.0414 3.2218,1.004201 6.3247,2.010458 l 5.64164,1.829566 3.51916,-1.719911 c 6.69893,-3.273955 12.6624,-4.062448 20.13484,-2.662237 11.62909,2.179096 21.31994,9.765972 27.07701,21.198333 3.84251,7.630412 4.86237,11.974091 4.90672,20.898071 0.0435,8.767959 -1.07274,13.186373 -5.62472,22.262747 l -3.11177,6.204678 2.15368,0.645252 c 4.48733,1.344439 7.32688,6.53173 6.68434,12.210986 -0.84533,7.47175 -7.35692,16.59606 -14.43396,20.22545 -6.69386,3.43288 -7.04057,4.81564 -2.06105,8.2196 4.08191,2.79038 7.26637,6.92841 8.77918,11.40807 l 1.15602,3.42316 3.35021,0.65912 c 7.04434,1.38589 13.53635,6.10476 16.69652,12.13623 1.06365,2.03009 1.31576,3.41016 1.30829,7.16177 l -0.009,4.64713 2.36381,1.49546 c 1.30011,0.8225 4.02028,3.23707 6.04485,5.36571 2.82061,2.9656 4.61784,4.28528 7.68888,5.64581 8.17146,3.62009 12.4836,7.46016 15.47288,13.77897 2.04412,4.32092 2.30263,6.68155 1.16156,10.60673 -1.17596,4.04518 -2.86719,6.383 -8.95397,12.37727 -7.61083,7.49516 -15.84555,12.94148 -23.63518,15.63198 -4.22509,1.45932 -5.29439,1.59656 -11.52768,1.47958 -6.61079,-0.12409 -7.02831,-0.2068 -11.04126,-2.18738 -4.05372,-2.0007 -4.23647,-2.03575 -6.51797,-1.2497 -1.71102,0.58949 -3.68454,0.70688 -7.28034,0.43305 -5.15598,-0.39263 -8.73473,-1.58617 -11.82606,-3.94403 l -1.80311,-1.3753 -3.89126,3.9213 c -5.1772,5.21718 -9.94488,7.50081 -15.69792,7.51899 -5.5588,0.0175 -9.91731,-1.96454 -13.98784,-6.36119 -2.59802,-2.80615 -3.56915,-3.42819 -6.9954,-4.48064 -2.35911,-0.72467 -5.1826,-2.14142 -6.93651,-3.48058 -2.80096,-2.13859 -3.00652,-2.20479 -3.87309,-1.24723 -1.48483,1.6407 -7.02586,4.08532 -10.07974,4.44701 -1.55817,0.18453 -4.35781,0.012 -6.221424,-0.38353 -3.269345,-0.69382 -3.504846,-0.66209 -6.703603,0.90292 -4.074901,1.99365 -9.105174,2.45143 -13.329694,1.21305 -1.692044,-0.49601 -3.070029,-0.63841 -3.256601,-0.33653 -0.177879,0.28781 -2.776768,2.70759 -5.775309,5.3773 -6.060533,5.39588 -10.703593,7.93216 -18.834568,10.28843 -5.861051,1.69847 -8.345373,1.74118 -13.631623,0.23434 z m 11.490783,-8.22431 c 5.485777,-1.73329 8.577347,-3.65353 13.772609,-8.55448 3.701077,-3.49142 10.002074,-11.68029 9.817977,-12.7596 -0.47599,-2.79059 1.492002,-2.41128 2.797112,0.53911 1.590509,3.59556 4.756492,6.15491 7.613796,6.15491 1.264288,0 3.029327,-0.37782 3.922305,-0.8396 1.490164,-0.77058 6.323739,-6.12702 7.826516,-8.67312 0.550902,-0.93336 0.757059,-0.96814 1.598777,-0.26956 0.638456,0.52987 0.773784,0.99451 0.398849,1.36945 -0.856064,0.85606 0.834091,3.69222 2.980077,5.0007 5.181047,3.15908 9.622987,-0.30824 17.266627,-13.47809 3.42808,-5.9065 6.14104,-11.29911 6.84105,-13.59806 0.46582,-1.52983 1.87832,-1.19539 2.80611,0.66442 0.77857,1.56066 0.67241,2.13278 -1.6732,9.01766 -2.99287,8.78471 -3.12431,11.02436 -0.85681,14.59982 2.84756,4.49015 8.97716,6.37315 11.7429,3.60742 0.45999,-0.45999 1.2493,-0.83634 1.75403,-0.83634 1.15379,0 1.85429,1.68914 0.93589,2.25674 -0.79666,0.49236 -0.10289,2.4018 2.13692,5.88114 1.50164,2.33267 5.22804,4.45822 7.81589,4.45822 2.35362,0 6.10144,-2.40117 9.15394,-5.86477 2.99613,-3.39966 8.52846,-13.89376 8.1293,-15.42019 -0.14417,-0.55131 0.12562,-1.32419 0.59955,-1.71751 0.69852,-0.57973 0.98543,-0.5466 1.51539,0.17506 0.35956,0.48961 1.61991,1.20839 2.8008,1.59731 2.35555,0.77577 2.38632,0.81906 1.61142,2.26699 -1.38329,2.5847 2.07261,9.36379 5.74049,11.26053 4.10419,2.12235 10.65719,1.28074 13.97592,-1.79496 2.08104,-1.92864 3.09011,-2.09991 3.46935,-0.58884 0.47473,1.89142 5.1251,5.20267 9.00738,6.41358 2.86457,0.89349 3.83496,0.94552 7.12431,0.38209 2.09441,-0.35877 5.62622,-1.55965 7.84844,-2.66862 3.78374,-1.88825 12.85892,-8.30203 16.56599,-11.70783 2.82558,-2.59597 6.0823,-7.00234 6.0823,-8.22943 0,-1.83788 -2.39102,-6.16621 -3.40629,-6.16621 -0.50222,0 -3.09743,2.20861 -5.76716,4.90801 -2.66971,2.69941 -6.52874,6.24079 -8.5756,7.86972 -2.04687,1.62893 -3.80746,3.15621 -3.91242,3.39396 -0.10495,0.23774 -0.53439,0.43226 -0.95426,0.43226 -0.41987,0 -0.84927,0.19324 -0.95425,0.42941 -0.10494,0.23618 -1.35026,1.05432 -2.76731,1.81809 -1.41707,0.76377 -2.7053,1.56004 -2.86276,1.76949 -0.48329,0.6429 -5.83816,2.28106 -7.4564,2.28106 -1.70112,0 -3.04249,-1.21734 -3.93868,-3.57452 -0.77652,-2.04239 -0.41481,-2.85768 1.679,-3.7845 2.78724,-1.23374 12.54959,-12.11491 15.58471,-17.37081 2.23183,-3.86482 2.71962,-5.21178 2.71962,-7.50987 0,-2.40466 -0.26696,-3.06732 -1.88936,-4.68971 -1.03915,-1.03915 -2.96931,-2.21293 -4.28924,-2.60839 -3.22307,-0.96566 -5.77729,0.19767 -10.62407,4.83876 -3.74382,3.58494 -9.77053,12.09722 -9.2086,13.00647 0.17276,0.27952 0.0619,0.50823 -0.24635,0.50823 -0.62485,0 -2.36987,7.051 -2.36987,9.57583 0,2.06739 -1.04913,3.54634 -3.93368,5.54533 -3.41776,2.36852 -6.59284,3.33624 -8.3377,2.54121 -1.98232,-0.90319 -2.0136,-1.92652 -0.19611,-6.41423 2.69397,-6.6519 5.45725,-11.33711 9.56832,-16.2232 2.16977,-2.57883 4.12333,-5.25055 4.34125,-5.93713 0.47751,-1.50453 -2.33323,-5.85831 -3.98773,-6.17694 -1.81616,-0.34976 -8.18665,7.00953 -12.11686,13.99759 -3.05445,5.43092 -3.72461,6.26556 -5.28745,6.5852 -2.07039,0.42345 -2.52497,0.006 -3.49211,-3.20739 -1.8484,-6.14133 -2.13613,-6.32844 -6.1314,-3.98704 -2.55054,1.4947 -2.74795,1.89546 -3.29884,6.69641 -0.4785,4.17026 -5.52811,13.59587 -9.18231,17.13972 -3.88939,3.77193 -4.95115,2.93703 -5.87092,-4.6165 l -0.51557,-4.23411 3.405,-4.06787 c 15.56421,-18.59419 24.99007,-32.51264 33.38652,-49.2993 4.32132,-8.63944 4.83923,-10.00641 4.6082,-12.16304 -0.46176,-4.31047 -5.02991,-8.70574 -8.21685,-7.90587 -1.90029,0.47695 -9.73941,8.06816 -14.48771,14.02957 -8.32621,10.45342 -16.39618,24.63781 -20.53745,36.09821 -0.96723,2.67666 -2.66046,8.47374 -3.76275,12.88237 -1.89763,7.58969 -2.1284,8.13179 -4.34213,10.20022 -1.5508,1.44901 -2.76568,2.12372 -3.60824,2.00392 -2.11759,-0.30107 -1.65551,-4.23229 1.4011,-11.92001 1.43937,-3.6202 2.79256,-7.55411 3.00708,-8.74203 0.37016,-2.04983 0.22236,-2.33564 -2.90134,-5.61052 l -3.29137,-3.45066 0.94685,-3.5339 c 0.87054,-3.24906 0.87258,-3.61598 0.0253,-4.55224 -1.30229,-1.43902 -5.53453,-1.38089 -7.01171,0.0963 -1.74514,1.74513 -2.82886,4.23012 -3.74581,8.58914 -1.39684,6.64031 -9.78451,21.99175 -14.53078,26.59476 l -2.30129,2.23184 -0.3729,-1.48574 c -0.44509,-1.7734 0.13927,-3.69551 3.81812,-12.5588 3.74568,-9.02426 3.63931,-10.74465 -0.66427,-10.74465 -2.49883,0 -3.13147,0.80004 -10.426986,13.18626 -5.241378,8.89871 -9.174739,13.37482 -11.462545,13.04423 -0.683064,-0.0987 -1.794451,-1.00145 -2.469746,-2.00607 -2.141434,-3.18577 -0.64484,-8.77884 4.164666,-15.56418 5.464163,-7.70897 11.750561,-13.24065 15.047126,-13.24065 0.648298,0 2.617505,0.76779 4.376025,1.70618 3.61176,1.92734 4.75841,1.72349 5.9073,-1.05019 1.02539,-2.47551 0.55629,-4.66182 -1.29566,-6.03858 -2.35031,-1.74725 -10.255337,-1.69566 -14.725422,0.0962 -4.122108,1.65228 -9.074847,5.68062 -13.553046,11.02345 -1.972229,2.35302 -3.822131,4.35697 -4.110897,4.45323 -0.288765,0.0963 -0.828256,-0.74377 -1.198867,-1.86674 -1.378695,-4.17749 -8.07296,-10.66763 -9.170847,-8.89121 -0.535936,0.86717 -1.774241,-0.32849 -1.38655,-1.33881 0.201807,-0.52589 0.556078,-0.95617 0.787262,-0.95617 0.231184,0 2.586861,-1.67861 5.234829,-3.73023 9.213702,-7.1387 17.821829,-18.44351 19.714095,-25.88996 1.627415,-6.40425 -0.563745,-12.98994 -6.152255,-18.49098 -8.287459,-8.15777 -20.971368,-9.58712 -37.504841,-4.22642 -11.675534,3.78559 -17.973949,8.45719 -19.979282,14.81886 -1.05462,3.34563 -0.80532,4.88337 0.791693,4.88337 1.640814,0 12.392121,-4.56368 12.903334,-5.47718 0.643786,-1.15037 2.692678,-1.04687 2.692678,0.13602 0,0.52628 -0.372557,1.36855 -0.827901,1.8717 -0.867362,0.95843 -4.285061,10.86077 -17.500279,50.70484 -8.439745,25.44593 -9.118029,27.7914 -9.140214,31.60643 -0.02633,4.52357 1.582327,6.30489 6.184626,6.84852 3.53415,0.41745 5.008535,-1.01686 4.864738,-4.73248 -0.08205,-2.1201 0.07327,-2.51851 0.981838,-2.51851 0.766375,0 1.250192,0.63461 1.668673,2.18873 1.275201,4.73574 6.829525,8.60031 12.450727,8.66294 1.322081,0.0147 4.413851,-0.60832 6.870598,-1.38456 z m -8.650937,-8.36594 c -1.914715,-2.27551 -1.867972,-3.18529 0.334531,-6.51046 2.975049,-4.49151 6.656733,-6.65642 12.843014,-7.55197 2.042703,-0.2957 2.594894,-0.12137 4.222887,1.33324 l 1.872903,1.67344 -0.981603,1.89821 c -0.539885,1.04402 -2.053713,2.91793 -3.364068,4.16424 -2.404298,2.28679 -10.648769,6.75487 -12.464038,6.75487 -0.539744,0 -1.648371,-0.7927 -2.463626,-1.76157 z m -7.780317,-15.64614 c 0,-0.44207 1.159414,-4.68999 2.576475,-9.43984 1.41706,-4.74983 2.576475,-9.12705 2.576475,-9.72715 0,-1.34183 1.09215,-1.79385 5.152948,-2.13268 1.731963,-0.14452 5.427377,-0.94564 8.212031,-1.78027 4.586423,-1.37468 5.314007,-1.45098 7.729423,-0.81056 5.624686,1.4913 9.250742,5.73681 9.250742,10.83109 0,2.35814 -2.798469,10.9746 -4.056785,12.49077 -0.54134,0.65228 -0.840097,0.55195 -1.731712,-0.58156 -0.592628,-0.7534 -2.302367,-2.10344 -3.799419,-3.00009 -2.507683,-1.50195 -3.172528,-1.63023 -8.447407,-1.62982 -5.200224,4e-4 -6.014401,0.15191 -8.874522,1.65153 -1.731963,0.90811 -4.226037,2.38938 -5.542386,3.29172 -2.72405,1.86732 -3.045863,1.95574 -3.045863,0.83686 z m 168.596199,-5.52622 c -0.50398,-0.81546 1.82523,-6.53293 3.92898,-9.64437 2.08697,-3.08663 8.90652,-9.79039 9.95949,-9.79039 1.13256,0 1.53135,1.56247 0.64376,2.52232 -0.42421,0.45875 -1.65773,2.40727 -2.74117,4.33003 -1.08344,1.92278 -3.8269,5.33728 -6.09659,7.58777 -2.3168,2.29718 -3.99986,4.42234 -3.83751,4.84547 0.34376,0.89581 -1.31325,1.02892 -1.85696,0.14917 z m -52.94112,-9.93023 c 0,-2.96076 8.61167,-21.77015 14.00517,-30.58974 3.71634,-6.07705 11.52515,-15.88337 12.61839,-15.84619 1.64913,0.0561 2.78371,2.00586 1.16723,2.00586 -0.51254,0 -2.47422,3.3827 -5.06347,8.73139 -2.32471,4.80226 -5.55527,11.02277 -7.179,13.82336 -1.62372,2.80058 -2.95223,5.19813 -2.95223,5.32786 0,0.12975 -2.33519,3.36305 -5.18933,7.18511 -2.85415,3.82207 -5.33401,7.67247 -5.5108,8.55646 -0.32451,1.62257 -1.89596,2.29053 -1.89596,0.80589 z M 41.488079,183.55817 c 0,-0.27304 1.946028,-6.39217 4.324504,-13.59805 3.018185,-9.14395 4.423789,-14.31612 4.653175,-17.12218 0.308524,-3.77412 0.233275,-4.13394 -1.227667,-5.87017 -0.855985,-1.01728 -1.7905,-1.70489 -2.076701,-1.528 -0.2862,0.17687 -0.520362,-0.0932 -0.520362,-0.60023 0,-0.52634 0.921147,-1.30116 2.147062,-1.806 1.180884,-0.48629 2.920005,-1.23461 3.864711,-1.66295 3.480342,-1.57798 11.023763,-3.22758 16.154549,-3.53269 4.899291,-0.29134 5.500303,-0.20405 8.415475,1.22221 4.013249,1.96349 5.490851,4.23218 5.483253,8.4189 -0.01323,7.2763 -9.126359,19.58924 -21.032053,28.41677 -5.838848,4.32924 -9.504151,6.08258 -15.151996,7.24812 -5.16018,1.0649 -5.03395,1.05451 -5.03395,0.41427 z m 159.906931,-6.51728 c 4.51275,-4.36798 5.5437,-5.68838 5.88297,-7.5347 0.78021,-4.24599 -3.1195,-8.49657 -6.92009,-7.54268 -2.18823,0.54921 -8.01046,6.26751 -9.48703,9.31768 -2.35877,4.87258 -0.39501,11.0558 3.51125,11.0558 1.1679,0 2.86679,-1.28301 7.0129,-5.2961 z m -85.18917,-1.11158 c 3.50773,-1.25527 6.3107,-3.24682 13.10688,-9.31261 11.80568,-10.53695 14.06629,-11.82836 22.1012,-12.62568 l 4.2904,-0.42576 -3.1453,-2.64048 c -8.71136,-7.31325 -13.64234,-14.96021 -16.32666,-25.31936 -1.2771,-4.92846 -1.11541,-14.35887 0.32484,-18.94734 1.06715,-3.39976 1.66054,-4.20772 6.69379,-9.114087 11.52816,-11.237551 11.59992,-11.320526 13.73644,-15.883428 2.34525,-5.008637 3.00441,-8.486242 3.01168,-15.889037 0.006,-5.239587 -0.28628,-8.02297 -1.19892,-11.450997 -1.9008,-7.139709 -1.89662,-7.105321 -0.86495,-7.105321 0.50906,0 0.92557,0.374384 0.92557,0.83196 0,0.457582 0.9184,1.26778 2.0409,1.80044 2.85524,1.354895 5.66953,5.294192 6.81042,9.532836 1.3042,4.845409 0.56727,9.137964 -2.8621,16.671576 -6.76947,14.871073 -7.41227,16.815108 -7.40883,22.406402 0.005,6.242856 1.24596,9.340896 5.3175,13.262586 4.17192,4.01838 6.47448,4.99488 11.84723,5.02433 5.48202,0.0301 8.69768,-1.21986 12.23253,-4.75471 2.23449,-2.23449 4.60794,-6.2151 5.50822,-9.23808 0.41742,-1.40161 0.38622,-1.39428 -1.50036,0.35262 -3.09328,2.86428 -6.34428,3.4523 -10.33158,1.86875 -1.5603,-0.61968 -3.33234,-3.52726 -3.33234,-5.467736 0,-1.299185 3.08945,-7.388762 8.22914,-16.220333 5.4918,-9.436618 6.87686,-13.968356 6.91216,-22.615719 0.0324,-7.932811 -1.0717,-12.152308 -4.89443,-18.705136 -5.46284,-9.364243 -17.59072,-15.497855 -27.01902,-13.664727 -4.59422,0.893252 -10.23476,3.584534 -12.06073,5.754579 -1.71413,2.037125 -2.06511,2.081075 -3.858,0.483054 -2.24272,-1.998989 -10.53664,-5.64513 -14.98644,-6.588291 -6.09853,-1.292629 -16.03504,-0.787921 -21.3278,1.083309 -7.72433,2.730903 -14.642664,7.572843 -16.543323,11.578185 -0.639635,1.347931 -1.468533,2.12752 -2.505718,2.356672 -5.988769,1.323134 -9.352936,3.173712 -12.859471,7.073825 -4.387502,4.879957 -4.61592,8.961401 -0.741538,13.249881 1.52415,1.687058 2.031493,2.756839 2.031493,4.283635 0,2.788747 1.129629,7.204028 2.143368,8.377594 0.460291,0.532856 0.732074,1.283286 0.603961,1.667621 -0.2596,0.778805 -2.174779,1.244381 -2.174779,0.528687 0,-0.250314 -0.515295,-0.589864 -1.1451,-0.754564 -0.629805,-0.164699 -1.1451,-0.07499 -1.1451,0.199357 0,0.70226 2.206413,1.803554 2.835021,1.415051 0.867316,-0.536033 1.266463,0.742008 0.613047,1.96293 -0.337003,0.629702 -2.120153,2.168578 -3.962555,3.419726 -1.842397,1.251153 -3.519482,2.716955 -3.726848,3.257345 -0.454009,1.183128 2.695857,4.675476 4.662062,5.168963 1.749798,0.439174 1.635128,1.060425 -0.557285,3.019347 l -1.85421,1.656736 1.138522,1.263652 c 0.626186,0.695007 1.752231,1.498277 2.502324,1.785047 1.245107,0.47603 1.286977,0.60734 0.481084,1.50881 -0.871077,0.97439 -1.186454,2.00382 -1.053898,3.44005 0.03733,0.40424 0.969602,1.26705 2.071761,1.91734 1.920532,1.13314 2.003924,1.31925 2.003924,4.47235 0,2.62143 0.245601,3.51166 1.208573,4.3807 1.81421,1.63728 8.304509,1.32351 16.826748,-0.81347 l 6.870597,-1.72283 1.6034,1.8135 c 3.49383,3.95165 5.55347,10.98455 5.55347,18.96297 0,14.73628 -4.03858,25.21061 -14.577286,37.80713 -2.131203,2.54734 -2.204775,2.75606 -1.22421,3.47307 0.895658,0.65492 2.826286,1.00708 8.644626,1.5768 2.13223,0.20878 8.0032,-0.60568 10.3059,-1.42972 z"
       id="path1"
       sodipodi:nodetypes="sssssssssssssssssssssssssscsscssssscssssscssscsssssssssssscssssssssssssssssssssssssssssssssssssssssssssssssssssssssssssssssssssssssssssssssscsssssssssssscssssscssssssssssssssssssssssssssssssssssssssscssssssssssssssssssssssssssssssssssssssssssssssssssssssssssscsssssssssssscssssssssssssssssssssssssssssssscsssssssscssssss" />
    <path
       id="path5"
       style="fill:none;stroke:#ff00ff;stroke-width:1.13943px"
       d="m 37.667825,244.47015 -3.021436,-0.95421 -2.167957,-0.86721 -2.882551,-0.60016 -4.258616,-0.25552 -2.167582,-0.0942 -1.779028,-0.21649 -1.553749,-0.3432 -1.383225,-0.47267 -1.278921,-0.61758 -1.239737,-0.7931 -1.252514,-1.00768 -1.258537,-1.21736 -1.328301,-1.59785 -0.979834,-1.63446 -0.700228,-1.76998 -0.4399415,-1.98933 -0.1710574,-2.28411 0.1192739,-2.63035 0.429588,-3.00775 0.743088,-3.36623 3.474876,-11.23255 6.483736,-19.5511 9.342965,-28.09565 -5.381719,-2.74871 -1.115561,-0.66552 -0.83701,-0.66921 -0.733309,-0.78959 -0.727151,-1.0335 -0.70772,-1.24482 -0.299298,-0.85645 -0.153684,-1.31406 -0.03025,-2.50242 0.06651,-2.5023 0.203649,-1.5329 0.428803,-1.33226 0.874837,-1.86525 1.847098,-3.1826 1.894996,-2.62815 1.212734,-1.27052 1.496405,-1.29996 3.908739,-2.70883 4.691529,-2.533 5.287968,-2.27274 5.64637,-1.91104 5.769026,-1.45919 5.652634,-0.92521 5.438679,-0.3291 4.073626,-0.0916 1.812246,-0.26959 2.155688,-1.0007 1.201943,-2.5622 -0.526375,-2.28292 -1.519286,-2.56963 -1.103307,-2.20548 -1.263546,-3.37169 -1.189633,-3.89344 -0.897092,-3.822292 -0.695867,-2.475234 -0.976769,-2.288033 -0.388061,-0.896403 -0.209093,-0.805328 -0.240701,-2.891374 0.04315,-1.678754 0.164341,-1.007731 0.349052,-0.892974 0.895034,-1.558916 1.45353,-2.871649 0.558273,-1.627711 0.206442,-1.228245 0.160242,-1.474454 0.364152,-1.372098 0.368723,-1.426502 -0.0965,-1.884218 -0.552723,-1.836046 -0.829011,-1.953538 -0.70067,-1.737733 -0.419277,-1.531745 -0.275563,-1.854794 -0.171374,-2.48703 0.08104,-4.117866 0.239249,-1.595575 0.389195,-1.498522 0.540487,-1.40455 0.715658,-1.375657 0.923222,-1.401742 1.109504,-1.401976 2.390909,-2.364129 3.104802,-2.423207 3.345154,-2.130528 3.257556,-1.584816 1.470376,-0.704938 1.748451,-1.084784 2.802212,-2.316376 2.413251,-2.334481 2.197942,-1.765415 2.560321,-1.665477 3.357771,-1.849735 4.248034,-2.211995 4.29146,-1.145809 4.01016,-0.738186 3.63119,-0.355278 3.40134,-0.05273 3.32139,0.178675 3.38547,0.343874 7.06394,0.847542 6.02493,1.91525 6.87451,2.229398 4.64346,-2.269484 2.32343,-1.040812 2.20134,-0.796159 2.15685,-0.584121 2.14997,-0.383232 2.18462,-0.189722 2.26062,9.16e-4 2.37498,0.193303 2.47385,0.381432 3.93216,0.984067 3.69688,1.416679 3.49022,1.845657 3.26713,2.261568 3.02584,2.666097 2.76407,3.059141 2.48005,3.440899 2.18153,3.826898 2.26346,4.970283 0.76209,2.141954 0.58413,2.118922 0.42471,2.178547 0.2841,2.322133 0.23453,5.700273 -0.21006,5.625073 -0.3044,2.330179 -0.47658,2.264085 -0.67602,2.2949 -0.90371,2.424926 -2.73215,5.916076 -4.81255,9.596202 5.66898,1.698508 1.12487,0.4759 0.8872,0.621363 0.80855,0.842822 0.70045,1.056688 0.55611,1.248275 0.44134,1.644759 m -161.993107,149.91008 -3.251365,-1.02681 -1.864949,-0.74599 -1.866602,-0.38864 -3.736095,-0.22419 -2.36508,-0.10289 -2.337056,-0.2844 -2.210935,-0.48836 -2.094549,-0.71576 -1.977349,-0.95483 -1.859746,-1.18974 -1.755359,-1.41224 -1.722673,-1.66632 -1.8700846,-2.24956 -1.5070909,-2.51398 -1.084123,-2.74035 -0.6509504,-2.94349 -0.2345805,-3.1323 0.1509994,-3.33002 0.5081648,-3.55788 0.8532559,-3.8653 3.573196,-11.55039 6.5055243,-19.61678 7.591997,-22.83023 -0.627874,-0.3207 -1.677187,-1.00055 -1.555798,-1.2439 -1.356865,-1.46101 -1.157926,-1.64577 -1.150694,-2.02398 -0.727558,-2.08191 -0.275654,-2.35696 -0.03584,-2.96458 0.07888,-2.96812 0.325047,-2.44668 0.732735,-2.27655 1.169303,-2.49308 2.149118,-3.70298 2.341869,-3.2479 1.728141,-1.81051 1.990941,-1.72956 4.493888,-3.11436 5.260728,-2.84033 5.788907,-2.48803 6.130572,-2.07492 6.283204,-1.58925 6.250102,-1.02299 5.889555,-0.35638 1.388244,-0.0312 -0.955429,-1.9099 -1.453316,-3.87806 -1.310509,-4.28905 -0.913693,-3.893026 -0.544519,-1.936875 -0.805986,-1.887986 -0.580229,-1.340302 -0.473883,-1.825165 -0.315797,-3.793447 0.0635,-2.469917 0.345212,-2.11682 0.773062,-1.977711 1.049748,-1.828389 1.174912,-2.321198 0.241153,-0.703112 0.0873,-0.519416 0.192755,-1.77361 0.484269,-1.824694 0.115764,-0.447864 -0.0058,-0.113658 -0.225508,-0.749098 -0.714236,-1.683074 -0.862859,-2.139982 -0.620569,-2.267121 -0.369812,-2.489177 -0.208512,-3.025999 0.09489,-4.821434 0.35166,-2.345265 0.566788,-2.1823 0.802449,-2.085303 1.03656,-1.992504 1.260613,-1.914006 1.528054,-1.930862 2.939582,-2.906656 3.646789,-2.846212 3.917587,-2.49511 3.606611,-1.754632 1.17151,-0.561654 1.078709,-0.669258 2.270084,-1.876506 2.445971,-2.366132 2.682018,-2.154232 3.029505,-1.970679 3.631278,-2.000406 4.945583,-2.575215 5.22439,-1.394897 4.52943,-0.833774 4.16685,-0.407687 3.89012,-0.06031 3.69797,0.198934 3.59651,0.365309 7.72817,0.927236 6.62436,2.105807 4.40883,1.429774 2.39481,-1.170461 2.64062,-1.182904 2.67748,-0.968366 2.68916,-0.728277 2.71585,-0.484104 2.75391,-0.23916 2.80303,0.0011 2.8664,0.2333 2.99771,0.462204 4.60012,1.151229 4.42523,1.695794 4.17497,2.207759 3.8942,2.695644 3.58514,3.158908 3.24963,3.596511 2.88963,4.009163 2.49721,4.38066 2.49959,5.488793 0.93362,2.624062 0.71231,2.58397 0.51578,2.645581 0.3435,2.807818 0.25566,6.213857 -0.23068,6.177392 -0.37561,2.875431 -0.58082,2.759216 -0.8123,2.757569 -1.06865,2.867509 -2.87864,6.233232 -1.48035,2.951817 0.78684,0.332891 1.9648,1.376061 1.64829,1.718166 1.31862,1.989242 0.98189,2.203976 0.57299,2.135417 m -180.158939,85.797765 -9.1946,-3.05759 m 31.152916,-56.32281 -3.106411,-9.17822 M 66.913984,91.598181 57.257726,92.402046 M 67.588807,85.107695 59.185656,80.28312 M 68.212711,59.760662 58.524929,59.570003 M 77.361524,43.957985 72.156265,35.785179 m 18.150167,-0.05121 -6.73702,-6.964342 m 13.264258,1.819037 -4.675375,-8.48707 m 29.571365,2.59212 0.67727,-9.66596 m 45.28183,10.264514 1.73988,-9.532171 m 13.10822,16.55728 6.4058,-7.270153 m 3.66159,21.029603 8.8183,-4.015848 m -5.38999,20.48335 9.6829,0.361584"
       inkstitch:satin_column="true" />
    <path
       id="path6"
       style="fill:none;stroke:#ff00ff;stroke-width:1.13943px"
       d="m 197.62495,100.23908 0.19693,1.77486 -0.062,1.60245 -0.47661,2.38478 -0.90066,2.53321 -1.29204,2.59521 -1.626,2.54355 -1.89316,2.3871 -2.08592,2.13198 -2.19561,1.7848 -2.3606,1.44722 -2.24865,1.21752 -1.95539,1.26398 -1.65527,1.49521 -1.20683,2.18793 0.13377,2.64353 1.23066,2.01997 1.56195,1.48217 1.7189,1.26566 2.62667,2.12409 2.13182,2.36372 1.70664,2.62187 1.27286,2.90751 1.7103,5.0643 5.0961,1.00252 2.34549,0.60385 2.19546,0.83505 2.10284,1.07012 1.9738,1.28182 1.80914,1.46741 1.61043,1.62452 1.38076,1.75168 1.13149,1.86049 0.46591,1.03106 0.26911,0.99691 0.15759,1.42078 0.0478,2.23467 -0.0125,6.392 3.72141,2.35447 2.49486,1.98901 3.16858,3.05174 2.04567,2.02736 2.05184,1.69876 2.15369,1.38491 2.28569,1.13076 2.81907,1.3393 2.35634,1.30842 2.02444,1.3409 1.73578,1.39566 1.49702,1.48064 1.30891,1.60697 1.16547,1.78241 1.04574,1.98764 1.04323,2.53632 0.42747,1.88974 -0.0187,1.74208 -0.46879,2.15971 -0.85509,2.30188 -1.31454,2.19066 -2.27596,2.73602 -3.66442,3.75339 -2.77769,2.61577 -2.81196,2.41398 -2.83503,2.20645 -2.84337,1.99067 -2.83716,1.767 -2.81553,1.53572 -2.77814,1.29765 -2.74665,1.06196 -2.44736,0.78042 -1.91611,0.38894 -2.34722,0.15068 -3.68589,-0.0224 -3.78151,-0.11064 -2.11408,-0.23418 -1.55356,-0.47559 -2.27093,-1.05851 -2.56203,-1.22343 -2.20448,-0.75632 -2.19017,0.005 -1.80766,0.53507 -1.08635,0.28481 -1.12803,0.13239 -3.95637,-0.0975 -3.22991,-0.40534 -2.66428,-0.67464 -2.23221,-0.94925 -2.08712,-1.33791 -3.95256,-3.01488 -5.85225,5.89731 -1.80201,1.70399 -1.70394,1.39062 -1.65086,1.12569 -1.61414,0.88168 -1.6018,0.66105 -1.62253,0.46141 -1.68205,0.27612 -1.78148,0.0963 -1.70971,-0.0741 -1.59082,-0.23125 -1.48543,-0.38603 -1.41045,-0.54562 -1.36568,-0.71772 -1.3459,-0.908 -1.34329,-1.11829 -1.42776,-1.42281 -1.84113,-1.87207 -1.89041,-1.48445 -2.11637,-1.07832 -2.30066,-0.7935 -3.43865,-1.40504 -1.45811,-0.80337 -1.31331,-0.88624 -1.77853,-1.31588 -1.97843,-1.09707 -2.68645,0.11678 -1.3393,1.18373 -1.44627,1.09063 -2.27052,1.15828 -2.60561,0.98761 -2.09643,0.48711 -2.42186,0.0208 -2.913413,-0.3697 -2.150762,-0.40437 -2.15826,-0.0368 -2.092823,0.60244 -2.053236,0.95276 -2.820169,1.05913 -2.831987,0.51114 -2.841589,0.007 -2.954093,-0.5503 -2.454526,-0.52315 -1.696869,-0.0325 -1.511529,0.6252 -6.124912,5.7027 -4.128083,3.36654 -3.942546,2.51339 -4.31269,1.99502 -5.232314,1.74648 -3.52829,0.88233 -2.648459,0.29558 -2.509489,-0.2022 -4.436821,-1.05145 -1.048765,0.52439 M 204.04531,99.526676 l 0.25018,2.254624 -0.10049,2.59773 -0.66875,3.34611 -1.18746,3.33988 -1.61944,3.25281 -1.98919,3.11168 -2.30633,2.90807 -2.57823,2.63517 -2.81379,2.28731 -2.87419,1.7621 -2.18077,1.18076 -0.96125,0.62136 1.44088,1.06095 3.13544,2.53551 2.81195,3.11785 2.27385,3.49324 1.59896,3.65243 0.60184,1.78209 1.60422,0.31558 2.87516,0.74022 2.85655,1.08649 2.71514,1.38171 2.54518,1.6529 2.34592,1.9028 2.11528,2.13378 1.85045,2.34755 1.54002,2.53224 0.84261,1.8647 0.53396,1.97792 0.24395,2.19966 0.0556,2.59788 -0.006,2.90212 1.00609,0.63654 3.00677,2.39712 3.41962,3.29353 1.87329,1.85651 1.53031,1.26695 1.52235,0.97896 1.91494,0.94733 2.95762,1.40514 2.75606,1.53036 2.48338,1.64487 2.22671,1.79042 1.97985,1.95817 1.74135,2.13788 1.51789,2.32138 1.32998,2.52792 1.36553,3.3199 0.71424,3.1575 -0.034,3.15656 -0.70575,3.25145 -1.22345,3.29342 -1.87792,3.12957 -2.75783,3.31528 -3.93878,4.0344 -2.98464,2.81066 -3.04245,2.61183 -3.08637,2.4021 -3.11951,2.18398 -3.1428,1.95735 -3.15602,1.72145 -3.15989,1.47597 -3.13327,1.21143 -2.96677,0.94605 -2.6913,0.5463 -3.01312,0.19343 -3.9875,-0.0243 -4.11817,-0.12046 -2.97576,-0.32962 -2.5623,-0.78439 -2.70612,-1.26138 -2.25366,-1.07617 -0.82709,-0.28375 -0.17689,3.7e-4 -1.01403,0.30014 -1.62116,0.42506 -2.03117,0.23838 -4.73772,-0.11686 -3.94646,-0.49527 -3.53378,-0.89481 -3.19149,-1.35719 -2.39478,-1.53514 -1.95589,1.97095 -2.0479,1.9365 -2.10199,1.71548 -2.14368,1.46173 -2.20159,1.20257 -2.26794,0.93597 -2.33381,0.66366 -2.39369,0.39296 -2.4465,0.13225 -2.35032,-0.10186 -2.2657,-0.32936 -2.18878,-0.56881 -2.10288,-0.81349 -2.00794,-1.05524 -1.90969,-1.28836 -1.81568,-1.51153 -1.65553,-1.64978 -1.57352,-1.6 -1.06916,-0.83954 -1.15403,-0.58799 -2.04558,-0.70554 -3.95171,-1.61468 -2.04064,-1.12432 -1.67063,-1.12736 -0.90673,-0.67086 -1.15424,0.87042 -3.08869,1.57567 -3.34176,1.26664 -3.21265,0.74644 -3.57041,0.0306 -3.537137,-0.44887 -1.803067,-0.33899 -0.644515,-0.0114 -0.683518,0.19675 -1.821061,0.84504 -3.595517,1.35031 -3.969739,0.71649 -4.016425,0.009 -3.629774,-0.67618 -1.340849,-0.28579 -4.935188,4.59499 -4.584471,3.73873 -4.626667,2.94951 -5.032932,2.32821 -5.809467,1.93912 -4.190224,1.04787 -3.69567,0.41246 -3.619289,-0.29162 -3.775657,-0.89476 m 156.679097,-138.71199 8.16405,5.219 m -16.38616,21.52909 7.19551,-6.48953 m 15.19748,25.71204 6.8814,-6.82172 m 19.00849,39.02606 4.7039,-8.4713 m -8.8653,42.60089 5.9513,7.64667 m -27.82413,1.49665 -0.059,9.68948 m -22.66706,-12.61134 0.10973,9.68905 m -37.75403,-3.6701 -0.41947,9.68057 m -10.10109,-14.6102 -6.90852,6.79425 m -30.638099,-13.45108 -1.790398,9.52282 m -11.174191,-6.85457 1.721052,9.53559 m -29.734862,2.34754 4.068186,8.79428"
       inkstitch:satin_column="true" />
    <path
       style="fill:#ffffff;stroke-width:0.237883;stroke-linejoin:bevel;stroke-miterlimit:0"
       d="m 39.043572,240.39945 c -2.761523,-0.54908 -5.278331,-1.88753 -7.292167,-3.87798 -1.3291,-1.31367 -2.061243,-2.55619 -3.107097,-5.27303 -0.31319,-0.81359 -0.58305,-1.15628 -1.035926,-1.31555 -1.131324,-0.39787 -1.346951,-0.0251 -1.480825,2.56004 -0.137189,2.64911 -0.524834,3.57866 -1.763838,4.22954 -1.487359,0.78136 -5.729524,0.0887 -7.372793,-1.20399 -0.316878,-0.24927 -0.796801,-0.86585 -1.066494,-1.37019 -0.440354,-0.82348 -0.489966,-1.23203 -0.486525,-4.00638 0.0057,-4.39107 -0.07616,-4.10727 9.612941,-33.43154 11.591478,-35.08186 15.828856,-47.27675 17.052081,-49.07477 1.476486,-2.17027 -0.237842,-3.4999 -2.295747,-1.78058 -1.660246,1.3871 -10.373202,5.15695 -12.361747,5.34858 -1.746603,0.16831 -2.127023,-0.7985 -1.416993,-3.60117 1.5312,-6.04402 6.648965,-10.61361 15.996403,-14.28301 12.217533,-4.79607 23.783706,-5.91905 32.169924,-3.12345 3.53802,1.17941 6.444014,2.97513 9.353432,5.77982 3.012466,2.90403 5.188963,6.39582 6.180871,9.91609 0.694417,2.46448 0.692053,6.32883 -0.0051,8.7808 -2.478265,8.713 -13.08395,21.52596 -23.592942,28.50313 -0.817968,0.54308 -1.611339,1.14836 -1.763047,1.34506 -0.409013,0.53033 -0.334478,1.47586 0.150976,1.91519 0.406791,0.36813 0.458864,0.36733 1.109784,-0.0172 0.674241,-0.39829 0.696273,-0.39644 1.724166,0.14445 2.329711,1.2259 6.042267,5.6525 7.256176,8.65175 0.627761,1.55105 0.884687,1.93663 1.29047,1.93663 0.153186,0 1.605722,-1.51434 3.227865,-3.36519 4.750492,-5.42028 7.382509,-7.87114 10.893482,-10.14369 3.823946,-2.47513 7.533995,-3.40582 12.789908,-3.20842 2.21378,0.0832 3.16031,0.21658 4.10273,0.57836 2.78514,1.06918 3.72892,3.34919 2.61677,6.32168 -1.0949,2.92638 -1.83134,3.04362 -6.26994,0.99817 -3.582996,-1.65117 -4.355469,-1.75113 -6.312226,-0.81684 -4.887499,2.33361 -12.532866,10.99692 -16.001253,18.13174 -1.394765,2.86917 -1.948542,5.06706 -1.799941,7.14387 0.116754,1.63183 0.543876,2.64665 1.575336,3.74297 1.096593,1.16552 1.742887,1.421 2.847617,1.12564 0.730671,-0.19534 1.369408,-0.68984 2.931346,-2.2694 2.327777,-2.35402 4.761646,-5.90682 9.581468,-13.9864 3.686065,-6.17902 5.321943,-8.5497 6.406053,-9.28354 0.67978,-0.46014 0.97677,-0.51379 2.47783,-0.44766 2.21768,0.0977 2.72243,0.51812 2.67815,2.23073 -0.0425,1.64243 -0.50905,3.07786 -3.06407,9.42675 -3.40553,8.46229 -3.79812,9.97899 -3.16928,12.24409 l 0.24418,0.87957 2.23733,-2.31393 c 3.4702,-3.589 7.55971,-9.97979 11.07902,-17.31346 1.96831,-4.10165 2.95345,-6.72934 3.81664,-10.18025 0.84057,-3.3605 1.5735,-5.19713 2.62468,-6.5771 1.10021,-1.44434 1.69695,-1.84716 3.14255,-2.12133 2.19255,-0.41585 4.314,0.20204 4.9875,1.45265 0.39454,0.73262 0.39106,0.76388 -0.46266,4.16129 l -0.86018,3.42311 2.43121,2.49043 c 3.25958,3.33895 3.83429,4.15602 3.83429,5.45113 0,1.0337 -1.02002,4.19577 -3.63629,11.2725 -0.69549,1.88122 -1.45277,4.15622 -1.68283,5.05555 -0.51624,2.01799 -0.54925,4.14813 -0.0747,4.82552 0.50032,0.7143 1.73819,0.65669 2.97851,-0.13862 1.40803,-0.90286 3.4477,-3.14063 3.96716,-4.35251 0.24499,-0.57154 1.13215,-3.63173 1.97146,-6.80043 3.26258,-12.31738 4.68342,-16.25011 8.97762,-24.84926 6.66628,-13.34922 14.16533,-24.05557 22.8505,-32.62354 3.53679,-3.48908 5.87222,-5.43158 6.96315,-5.79161 2.27705,-0.7515 5.69951,1.70177 7.41417,5.3146 0.57205,1.20532 0.68091,1.69866 0.68174,3.08939 0.001,2.02964 -0.34733,2.9296 -3.96719,10.24424 -8.61328,17.40485 -18.25493,31.72988 -34.13468,50.71544 l -3.27575,3.91641 0.34521,2.7037 c 0.82559,6.46631 1.38048,8.16061 2.71497,8.29003 0.9777,0.0948 1.86134,-0.49577 3.83913,-2.56591 2.03899,-2.13419 3.93544,-4.98446 5.90053,-8.86819 1.91897,-3.79263 2.6071,-5.72993 3.01582,-8.49061 0.18012,-1.21655 0.43211,-2.60911 0.55998,-3.09458 0.31221,-1.18537 1.65686,-2.43838 3.7602,-3.50397 2.68402,-1.35974 3.0941,-1.05191 4.51231,3.38718 1.35383,4.23757 1.81832,4.82178 3.58442,4.50823 1.81,-0.32134 2.63149,-1.26608 5.54548,-6.37747 2.644,-4.63784 6.00272,-9.16144 8.8652,-11.93994 2.85668,-2.77285 3.24852,-2.86334 4.9134,-1.13478 1.2502,1.29801 2.32953,3.31649 2.32953,4.35646 0,0.85383 -0.93972,2.26181 -4.21972,6.32237 -4.31731,5.34471 -7.30376,10.43403 -9.7698,16.64906 -1.6025,4.03868 -1.57718,5.18776 0.13377,6.07252 2.16017,1.11708 6.87104,-0.62854 10.33105,-3.82817 1.7072,-1.57873 2.08473,-2.34811 2.30214,-4.69166 0.2895,-3.12056 1.80465,-9.04749 2.3129,-9.04749 0.0967,0 0.23278,-0.35023 0.30224,-0.77831 0.43311,-2.66889 7.93028,-12.11197 12.22451,-15.39737 2.41689,-1.84912 3.41132,-2.25044 5.57327,-2.24923 1.7623,0.001 1.98643,0.0558 3.47882,0.85239 1.78443,0.95233 3.7107,2.71373 4.17006,3.81313 0.44749,1.07097 0.38508,3.96819 -0.12045,5.59248 -0.51167,1.64397 -2.6599,5.4457 -4.38519,7.76048 -3.82498,5.13183 -10.48505,12.2598 -12.75292,13.64883 -1.77865,1.0894 -2.7399,2.04576 -2.7399,2.72596 0,0.77665 0.79953,2.74387 1.47733,3.63492 0.80368,1.05655 1.77542,1.57937 2.93608,1.57969 0.99778,2.7e-4 4.42808,-0.82558 5.78617,-1.39302 0.8594,-0.35908 6.15084,-3.50656 7.16349,-4.26101 0.38634,-0.28785 0.85172,-0.52336 1.03416,-0.52336 0.18244,0 1.11914,-0.67029 2.08152,-1.48952 0.96241,-0.81924 2.92992,-2.49468 4.37227,-3.72319 1.44234,-1.22853 4.45015,-3.99473 6.68404,-6.14713 4.22979,-4.0755 5.56299,-5.19042 6.20647,-5.19042 0.51696,0 1.39573,1.19978 2.34891,3.20692 1.03387,2.17702 1.04559,2.98482 0.0668,4.61102 -1.1594,1.92628 -3.9078,5.14747 -5.80009,6.79782 -3.96772,3.46043 -12.09869,9.16541 -15.71052,11.02306 -3.93174,2.02218 -9.59114,3.48037 -12.23932,3.15355 -4.51769,-0.55755 -10.70786,-4.24284 -11.9452,-7.11153 -0.61515,-1.42616 -1.14639,-1.3172 -3.80662,0.78074 -2.41104,1.90142 -4.84409,2.68621 -8.34462,2.69157 -3.43286,0.006 -5.88698,-0.97214 -7.72945,-3.07838 -2.81495,-3.21792 -4.14343,-7.22704 -3.11169,-9.39063 0.25887,-0.54285 0.3109,-0.89528 0.16551,-1.12111 -0.11662,-0.18116 -1.04163,-0.66288 -2.05557,-1.07046 -1.02564,-0.4123 -2.16618,-1.05381 -2.57079,-1.44598 -1.20045,-1.16352 -2.14964,-0.49605 -2.38585,1.67772 -0.22349,2.05688 -3.16136,8.02181 -6.24203,12.67355 -3.24363,4.89785 -8.40279,8.61673 -11.52067,8.30448 -2.45427,-0.24578 -5.7859,-2.31354 -7.22895,-4.48659 -2.01371,-3.03237 -2.73958,-5.17265 -1.97074,-5.81074 0.45741,-0.37961 0.41397,-0.93837 -0.12634,-1.62526 -0.62973,-0.80058 -1.2509,-0.73335 -2.80345,0.3034 -0.72967,0.48725 -1.77566,0.96902 -2.32787,1.07219 -3.51143,0.656 -7.99499,-1.98378 -9.87482,-5.81397 -0.62025,-1.26376 -0.76982,-1.84662 -0.8341,-3.25035 -0.10368,-2.26377 0.28868,-3.94893 2.45547,-10.54634 2.06082,-6.27477 2.24937,-7.63144 1.26393,-9.09375 -1.24354,-1.84523 -2.15328,-1.6776 -2.99997,0.55273 -1.42349,3.74979 -6.3489,12.76733 -9.90823,18.14018 -3.18035,4.80081 -5.50095,7.28685 -8.05549,8.6298 -1.16355,0.61169 -3.56805,0.55693 -4.854741,-0.11064 -1.557787,-0.80815 -2.373144,-1.50499 -3.203216,-2.73757 -0.785165,-1.16591 -0.952762,-2.04663 -0.537206,-2.8231 0.190561,-0.35607 0.115295,-0.54918 -0.424363,-1.08885 -0.860433,-0.86042 -1.210095,-0.82759 -1.8266,0.17151 -0.966092,1.56566 -3.887098,5.02335 -5.766625,6.82616 -2.159606,2.07147 -3.14525,2.49716 -5.782003,2.49716 -1.261992,0 -1.805325,-0.11645 -2.75767,-0.59102 -1.698945,-0.84662 -3.481338,-2.72818 -4.574049,-4.82851 -1.100515,-2.11532 -1.836883,-2.96595 -2.567571,-2.96595 -0.625471,0 -0.806494,0.35556 -0.806494,1.58407 0,1.10674 -1.350279,3.24546 -4.610069,7.30191 -4.812006,5.98801 -9.923366,10.41829 -14.451687,12.52602 -4.914247,2.28737 -10.455213,3.46138 -13.489331,2.8581 z m 6.803833,-9.03295 c 2.818062,-1.35897 6.273646,-3.42684 7.927886,-4.74416 1.511549,-1.2037 3.739089,-3.9414 4.546614,-5.58792 l 0.579907,-1.1824 -1.101198,-0.98647 c -2.297246,-2.05791 -2.524131,-2.1551 -4.691684,-2.00977 -4.710637,0.31587 -9.435782,2.59148 -11.976828,5.76804 -2.090431,2.61323 -3.277338,5.04406 -3.000825,6.14578 0.23581,0.93954 1.561177,2.64222 2.630104,3.37886 0.937156,0.64583 1.107713,0.69032 1.933971,0.50469 0.498399,-0.11201 1.916816,-0.69098 3.152053,-1.28665 z M 34.721284,214.62572 c 3.019605,-1.94158 5.994248,-3.62713 7.524233,-4.26352 1.117846,-0.46497 1.609237,-0.51129 6.222901,-0.58649 3.173358,-0.0517 5.446725,0.009 6.202972,0.16616 1.557031,0.32323 4.395734,2.07534 6.351411,3.92024 0.95084,0.89697 1.641357,1.38688 1.844756,1.30883 0.81889,-0.31423 3.393703,-7.14348 4.199263,-11.1378 0.31255,-1.54975 0.329555,-2.07533 0.109397,-3.38062 -0.758629,-4.49764 -4.405273,-8.10323 -9.480185,-9.37342 -1.885326,-0.47187 -3.148927,-0.33702 -7.065306,0.75402 -3.849859,1.07252 -6.904831,1.71352 -9.66384,2.02772 -1.128038,0.12845 -2.442928,0.39038 -2.921974,0.58206 -0.964478,0.3859 -0.887573,0.21156 -1.885361,4.27417 -0.312991,1.27437 -1.397239,5.19679 -2.409444,8.71647 -1.970036,6.85029 -2.222083,7.89384 -1.995273,8.26083 0.252139,0.40796 0.571113,0.27155 2.966454,-1.26865 z m 167.535346,-4.96456 c 0.20408,-0.76925 1.22163,-2.03154 4.01335,-4.9787 2.66971,-2.81832 4.91429,-5.69932 6.3751,-8.18265 0.61013,-1.03719 1.44955,-2.3626 1.86541,-2.94534 0.97197,-1.36207 1.12595,-2.10848 0.57528,-2.78855 -0.59681,-0.73702 -1.27793,-0.50294 -3.08855,1.06143 -2.21935,1.91752 -6.2184,6.1264 -7.41729,7.80649 -1.95562,2.74056 -4.3345,8.04578 -4.3345,9.66652 0,0.75976 0.41783,1.12468 1.19805,1.04634 0.49964,-0.0501 0.68634,-0.20756 0.81315,-0.68554 z m -53.46909,-9.42613 c 0.22926,-0.24609 0.5276,-0.81707 0.66299,-1.26886 0.33591,-1.12098 2.64075,-4.61298 6.64722,-10.07104 4.29,-5.84431 6.84434,-10.27821 13.29547,-23.0786 4.20614,-8.3459 5.20086,-10.05748 6.0278,-10.37187 1.00601,-0.3825 0.55564,-1.43844 -0.83979,-1.96898 -0.56833,-0.21608 -0.70634,-0.15164 -1.73934,0.81216 -2.21376,2.06547 -6.67113,7.69081 -9.83444,12.41137 -2.42095,3.61276 -4.48795,7.33106 -7.66687,13.7919 -5.35399,10.8814 -8.37436,18.39934 -7.94082,19.76529 0.17608,0.55478 0.86084,0.54423 1.38778,-0.0214 z M 46.338292,183.23869 c 6.663656,-1.46278 10.881643,-3.63836 17.753583,-9.15703 7.525068,-6.04317 13.697024,-13.32849 16.768291,-19.79311 1.772952,-3.73183 2.268099,-6.43213 1.684332,-9.18555 -0.613487,-2.89366 -2.08549,-4.53991 -5.573005,-6.23272 -2.552066,-1.23874 -3.857229,-1.41859 -7.98998,-1.10103 -4.048677,0.3111 -8.657537,1.11714 -12.224239,2.13788 -3.108682,0.88967 -8.708832,3.23381 -9.517977,3.98408 -0.716129,0.66404 -0.792718,1.62366 -0.129586,1.62366 0.587414,0 2.496181,1.79189 2.968076,2.78634 0.506351,1.06705 0.459374,4.03674 -0.11057,6.99012 -0.587477,3.04424 -1.601205,6.48611 -5.212248,17.69699 -3.718088,11.54319 -3.450598,10.65006 -3.274843,10.93442 0.177004,0.28641 0.902837,0.1842 4.858166,-0.68405 z"
       id="path2" />
    <g
       id="command_group1"
       inkscape:label="Ink/Stich Instrucci贸n: Trim thread after sewing this object">
      <path
         id="command_connector1"
         d="m 92.379587,105.5851 32.827193,72.26913"
         style="fill:none;stroke:#000000;stroke-width:1px;stroke-opacity:0.5"
         inkscape:connection-start="#command_use1317"
         inkscape:connection-end="#path2"
         inkscape:label="conector"
         inkscape:connector-type="polyline"
         inkscape:connector-curvature="0" />
      <use
         id="command_use1317"
         xlink:href="#inkstitch_trim"
         height="100%"
         width="100%"
         x="92.377003562812"
         y="105.54925741501548"
         inkscape:label="marcador de instrucci贸n" />
    </g>
    <path
       style="fill:#ffffff;stroke-width:0.475765;stroke-linejoin:bevel;stroke-miterlimit:0"
       d="m 192.48881,181.58041 c -2.54796,-1.97056 -3.16776,-6.8432 -1.32533,-10.41937 1.38383,-2.68602 6.9714,-8.17869 9.00161,-8.84872 4.61002,-1.52145 8.71597,4.7475 6.01313,9.18085 -1.03914,1.70448 -6.87215,7.5187 -9.4194,9.38909 -1.83908,1.35039 -3.14962,1.56467 -4.27001,0.69815 z"
       id="path3" />
    <g
       id="command_group2"
       inkscape:label="Ink/Stich Instrucci贸n: Trim thread after sewing this object">
      <path
         id="command_connector2"
         d="m 192.19719,133.47971 5.08243,30.79072"
         style="fill:none;stroke:#000000;stroke-width:1px;stroke-opacity:0.5"
         inkscape:connection-start="#command_use6691"
         inkscape:connection-end="#path3"
         inkscape:label="conector"
         inkscape:connector-type="polyline"
         inkscape:connector-curvature="0" />
      <use
         id="command_use6691"
         xlink:href="#inkstitch_trim"
         height="100%"
         width="100%"
         x="192.1946065258755"
         y="133.44386055544473"
         inkscape:label="marcador de instrucci贸n" />
    </g>
    <path
       style="fill:#ffffff;stroke-width:0.475765;stroke-linejoin:bevel;stroke-miterlimit:0"
       d="m 102.04716,176.78719 c -2.994812,-0.41261 -5.29609,-1.14443 -5.29609,-1.68416 0,-0.17376 1.322075,-1.98674 2.937937,-4.02885 6.128043,-7.7446 9.947233,-14.89064 11.943593,-22.34753 1.05715,-3.94874 1.15761,-5.0646 1.18299,-13.14194 0.0266,-8.45701 -0.0221,-8.97474 -1.16216,-12.35754 -1.10685,-3.28427 -2.56522,-5.95907 -4.68227,-8.58777 l -0.8738,-1.08498 -5.88683,1.3936 c -10.095548,2.38992 -15.748081,2.77489 -17.877841,1.21757 -0.57437,-0.41999 -0.849738,-1.46171 -1.057351,-3.99991 -0.23873,-2.91873 -0.439088,-3.55416 -1.339634,-4.24869 -2.891634,-2.23013 -3.080909,-2.486 -2.778734,-3.75663 0.161517,-0.67917 0.614552,-1.60765 1.006738,-2.0633 0.660985,-0.76792 0.650846,-0.86463 -0.138798,-1.32402 -0.468529,-0.27257 -1.530706,-1.09816 -2.3604,-1.834648 l -1.508531,-1.339068 1.861807,-1.861806 c 1.549102,-1.549108 1.769682,-1.972802 1.313342,-2.522661 -0.301653,-0.363472 -0.806808,-0.660854 -1.12257,-0.660854 -0.85271,0 -3.228551,-2.131947 -3.96682,-3.5596 -0.637643,-1.233072 -0.618204,-1.270116 1.651148,-3.147147 4.306984,-3.562393 6.1152,-5.505748 5.825449,-6.26082 -0.15069,-0.392696 -0.711285,-0.713988 -1.245759,-0.713988 -1.216292,0 -3.12223,-1.287734 -1.938877,-1.309988 0.410461,-0.0077 0.869038,0.184567 1.019058,0.427305 0.432767,0.700229 2.427897,0.512164 2.722933,-0.256674 0.147317,-0.383907 -0.15215,-1.445305 -0.665487,-2.35866 -0.513337,-0.913359 -1.157015,-3.131446 -1.430389,-4.929081 -0.273382,-1.797635 -0.569613,-3.665636 -0.65829,-4.151107 -0.08868,-0.485477 -1.051138,-2.067866 -2.1388,-3.51643 -3.124982,-4.161893 -3.132958,-7.050488 -0.03114,-11.276019 2.9343,-3.997321 6.290336,-6.202531 12.040064,-7.911369 3.020407,-0.897678 3.30146,-1.090994 4.56012,-3.136571 2.609911,-4.241656 8.965882,-8.64382 15.955362,-11.050746 6.72359,-2.315362 17.46953,-2.575964 24.15117,-0.585695 3.2112,0.956524 10.15665,4.219852 12.04224,5.658058 1.98986,1.517738 2.6898,1.448568 4.59218,-0.453821 2.88283,-2.882828 10.65572,-5.912791 15.12448,-5.895699 7.19849,0.02754 16.13902,4.489661 21.03274,10.497231 2.59672,3.187746 5.77732,9.745824 6.57072,13.548162 0.75243,3.606051 0.85178,11.57547 0.19479,15.624611 -0.65285,4.023606 -2.57416,8.697434 -6.18613,15.048558 -6.49076,11.413083 -8.44052,15.520991 -8.2121,17.301947 0.45442,3.54308 3.20029,5.64776 7.36834,5.64776 2.44537,0 4.36608,-0.78392 6.34119,-2.58809 l 1.27355,-1.1633 -0.30745,1.32402 c -0.50055,2.15569 -3.57521,6.97696 -5.69621,8.93203 -3.68498,3.39671 -5.0623,3.86684 -11.3283,3.86684 -4.96083,0 -5.71488,-0.10563 -7.48285,-1.0481 -2.89353,-1.5425 -6.9185,-5.78125 -8.31031,-8.75164 -1.09504,-2.33708 -1.19845,-3.01481 -1.19845,-7.85388 0,-6.192545 0.1046,-6.559607 5.09587,-17.874292 4.56564,-10.349892 4.93275,-11.495542 5.16199,-16.10893 0.16367,-3.293944 0.0382,-4.394401 -0.73499,-6.445899 -1.39622,-3.704621 -3.34082,-6.339163 -5.96444,-8.08062 -1.29396,-0.858888 -2.46877,-1.864193 -2.61069,-2.234021 -0.38588,-1.005575 -1.60975,-0.822628 -1.60975,0.240626 0,0.502172 0.5371,2.935063 1.19355,5.406423 1.078,4.058336 1.19441,5.241166 1.20236,12.216845 0.0103,8.760237 -0.42079,11.039501 -3.15228,16.678487 -1.46382,3.021935 -2.61586,4.389786 -10.29998,12.229316 -9.62888,9.823655 -9.6788,9.903245 -10.61759,16.931125 -1.90818,14.28495 4.02251,28.56442 16.13974,38.85993 1.83203,1.55661 3.27507,2.8861 3.20674,2.95444 -0.0684,0.0684 -1.87156,0.34137 -4.00715,0.60675 -7.33702,0.91173 -9.93921,2.36849 -20.14582,11.27811 -10.62487,9.27471 -12.60155,10.47356 -18.97495,11.5082 -4.15332,0.67425 -5.49763,0.68927 -9.7122,0.10859 z"
       id="path4" />
  </g>
</svg>
