<?xml version="1.0" encoding="UTF-8" standalone="no"?>
<!-- Created with Inkscape (http://www.inkscape.org/) -->

<svg
   version="1.1"
   id="svg1"
   width="60mm"
   height="60mm"
   viewBox="0 0 226.77165 226.77165"
   sodipodi:docname="ByN-mariposa.svg"
   inkscape:version="1.3.2 (1:1.3.2+202311252150+091e20ef0f)"
   xmlns:inkscape="http://www.inkscape.org/namespaces/inkscape"
   xmlns:sodipodi="http://sodipodi.sourceforge.net/DTD/sodipodi-0.dtd"
   xmlns="http://www.w3.org/2000/svg"
   xmlns:svg="http://www.w3.org/2000/svg"
   xmlns:inkstitch="http://inkstitch.org/namespace">
  <metadata
     id="metadata1">
    <inkstitch:min_stitch_len_mm>0</inkstitch:min_stitch_len_mm>
    <inkstitch:collapse_len_mm>3</inkstitch:collapse_len_mm>
    <inkstitch:inkstitch_svg_version>1</inkstitch:inkstitch_svg_version>
  </metadata>
  <defs
     id="defs1" />
  <sodipodi:namedview
     id="namedview1"
     pagecolor="#ffffff"
     bordercolor="#666666"
     borderopacity="1.0"
     inkscape:showpageshadow="2"
     inkscape:pageopacity="0.0"
     inkscape:pagecheckerboard="0"
     inkscape:deskcolor="#d1d1d1"
     inkscape:zoom="1.8399207"
     inkscape:cx="73.100978"
     inkscape:cy="98.373806"
     inkscape:window-width="1848"
     inkscape:window-height="1016"
     inkscape:window-x="72"
     inkscape:window-y="27"
     inkscape:window-maximized="1"
     inkscape:current-layer="g1"
     inkscape:document-units="mm" />
  <g
     inkscape:groupmode="layer"
     inkscape:label="Image"
     id="g1">
    <path
       style="fill:#000000;stroke-width:1.73536"
       d="m 125.03593,220.86252 c -1.82542,-0.84997 -3.25013,-1.89013 -6.49779,-4.74393 -2.78129,-2.44399 -10.52468,-10.39206 -13.83306,-14.19869 -3.01309,-3.46689 -4.31175,-4.33963 -9.355037,-6.28702 -10.259717,-3.96161 -20.809931,-12.13155 -21.684227,-16.79194 -0.137527,-0.73314 -0.275469,-0.89635 -0.628113,-0.74324 -0.248533,0.10794 -1.211849,0.25357 -2.140703,0.3237 -3.774302,0.28493 -6.185596,-2.51457 -6.365692,-7.39051 l -0.07552,-2.04491 -1.765783,-0.9956 c -2.831109,-1.59628 -8.325749,-3.87148 -11.553614,-4.78409 -5.795656,-1.63859 -10.841267,-2.03778 -15.496422,-1.22598 -2.782326,0.48519 -4.513959,1.16828 -6.022464,2.37569 -2.109022,1.68809 -3.688778,1.9123 -3.982012,0.56514 -0.08745,-0.4017 -0.204039,-0.87858 -0.259107,-1.05973 -0.238141,-0.78334 0.952772,-1.67159 2.703204,-2.01616 0.960846,-0.18914 2.371723,-0.58018 3.135281,-0.86896 2.955813,-1.11792 5.159681,-1.47093 9.162696,-1.46768 7.029719,0.005 13.27986,1.69187 21.537133,5.81031 l 3.489396,1.74037 0.763812,-0.95725 0.763809,-0.95725 -1.893117,-1.80812 c -9.063398,-8.6564 -18.566388,-13.426 -26.779821,-13.44091 -1.886796,-0.003 -2.788643,0.14327 -4.240616,0.6898 -2.246549,0.8456 -3.371721,0.89254 -3.765325,0.15708 -0.402293,-0.75169 -0.357837,-1.75943 0.105579,-2.39318 0.355704,-0.48646 0.797116,-0.54274 4.650763,-0.59301 7.227375,-0.0943 11.024623,0.70117 16.752346,3.50925 5.309599,2.6031 9.610829,5.71425 14.850788,10.74183 2.551429,2.44801 2.694418,2.54046 4.079661,2.63774 l 1.435559,0.10083 -0.881478,-1.0193 c -0.484822,-0.56063 -2.338622,-2.68934 -4.119565,-4.73049 C 57.741627,148.24024 48.433605,135.4542 43.317232,126.29053 41.23833,122.56711 36.998043,113.74921 35.395744,109.81737 28.154985,92.049461 24.421904,72.681007 24.415864,52.85012 c -0.0042,-13.568538 2.102176,-22.541782 6.353544,-27.067197 2.98353,-3.175853 8.009892,-4.033376 12.361425,-2.108921 3.24712,1.43603 5.47798,3.427784 9.542496,8.519718 4.826,6.045905 5.751311,6.514904 14.775833,7.489186 4.803506,0.518585 6.855917,1.406242 10.332428,4.468722 2.692498,2.371837 4.470218,3.488131 6.564474,4.122072 2.302582,0.697 6.233228,1.399069 6.449277,1.151931 0.08897,-0.101778 0.960559,-1.871828 1.936848,-3.933434 C 99.1234,31.99603 108.47723,17.764153 114.71926,12.038833 c 2.53457,-2.3247656 5.53755,-4.3540149 7.62177,-5.1503799 4.8963,-1.8708457 9.89462,-0.2368453 12.71805,4.1576619 2.18135,3.395139 3.01066,6.579965 3.47378,13.340451 0.38061,5.556026 0.62099,6.91325 1.57433,8.888701 0.72119,1.494405 1.47497,2.309673 7.35562,7.955618 2.8923,2.776865 4.06369,4.948045 5.06882,9.395146 0.97719,4.323445 2.09457,6.403429 5.24472,9.762956 3.45221,3.681693 3.72069,4.365677 3.28631,8.372411 -0.43784,4.038704 -0.18615,4.849476 2.38722,7.689608 2.19403,2.421461 2.95101,4.025636 2.94799,6.247293 -0.001,0.992626 -0.10325,2.744337 -0.22662,3.89269 -0.22256,2.073047 -0.21623,2.103714 0.89097,4.30579 1.52854,3.040113 2.00958,4.82964 2.00958,7.475729 0,5.994942 -3.40351,12.325552 -11.45065,21.298492 -1.34773,1.50278 -2.36692,2.73232 -2.26488,2.73232 0.10203,0 1.42275,-0.49638 2.93492,-1.10307 3.08691,-1.23847 8.74932,-2.84676 11.89124,-3.37745 2.67377,-0.45162 7.73531,-0.44986 9.7902,0.003 2.16615,0.4778 3.06524,1.32444 4.55355,4.28784 1.63054,3.2466 3.69158,5.44742 6.18189,6.60113 4.1885,1.94046 4.70674,2.255 5.36996,3.25926 0.90308,1.36745 1.21974,2.44021 1.71522,5.81083 0.60685,4.12827 1.31982,5.44435 4.77432,8.8129 4.50738,4.39526 4.93324,5.84202 3.43268,11.6618 -0.8618,3.3424 -1.05189,5.90699 -0.53887,7.27044 0.16174,0.42988 0.81772,1.58796 1.4577,2.57347 1.04979,1.61657 1.16202,1.95606 1.14734,3.47072 -0.0139,1.46859 -0.1996,2.03159 -1.48013,4.49507 -1.73841,3.34441 -1.92911,4.39262 -1.28059,7.03899 0.28615,1.16763 0.43077,2.53614 0.35327,3.34275 -0.16712,1.73836 -1.49012,4.42938 -3.36604,6.84622 -2.74152,3.53204 -3.24514,4.43238 -3.66097,6.54487 -0.78632,3.99475 -1.47406,5.10723 -4.88781,7.90637 -1.22683,1.00597 -2.7536,2.6901 -4.11192,4.53577 -2.96956,4.03501 -4.51204,5.22411 -8.58086,6.61502 -4.9607,1.69578 -14.93239,2.42982 -21.41993,1.57677 -4.17655,-0.54918 -9.11122,-1.72896 -13.53348,-3.2356 -3.60879,-1.2295 -11.28232,-4.90862 -15.29263,-7.33214 -3.56225,-2.15274 -3.50206,-2.15047 -2.57096,-0.097 3.71399,8.19102 2.17688,13.45375 -3.19844,10.95081 z m 29.74985,-8.76217 c -1.43807,-1.47273 -4.81188,-3.87299 -7.4136,-5.27437 -2.88383,-1.5533 -6.09734,-2.68892 -9.93582,-3.51117 -7.20906,-1.54427 -11.96209,-3.04073 -17.3711,-5.46914 -2.56454,-1.15137 -7.01853,-3.61338 -8.74622,-4.83459 -0.55459,-0.39201 -0.18125,0.084 0.86964,1.10885 2.05288,2.00194 7.80779,5.92752 11.20847,7.64556 8.37835,4.2328 28.12702,11.35967 31.63988,11.41817 l 0.81992,0.0139 z m 16.36845,0.36722 c 0.91627,-0.22242 2.34917,-0.71704 3.18421,-1.09914 1.87965,-0.86013 4.58666,-2.87128 4.26964,-3.1721 -0.12911,-0.12252 -2.6712,-1.2496 -5.64908,-2.50461 -21.53424,-9.07553 -26.68605,-10.70984 -38.03907,-12.06719 -9.9387,-1.18823 -15.47394,-2.59184 -24.57269,-6.23108 l -4.16486,-1.66584 1.24946,1.1233 c 4.35117,3.91179 10.81096,7.59808 17.21477,9.82364 1.60347,0.55726 5.69619,1.68981 9.09495,2.51677 8.98817,2.18694 13.51739,4.01262 21.86385,8.81306 4.49953,2.58787 8.45452,4.51553 10.01498,4.88124 1.26883,0.29737 3.18187,0.15288 5.53384,-0.41805 z m 13.58948,-1.5533 c 1.08293,-1.54611 0.097,-3.10331 -1.53656,-2.4267 -0.62738,0.25986 -0.80779,0.5131 -0.80779,1.13387 0,0.84715 0.84101,1.90992 1.51137,1.90992 0.22041,0 0.59525,-0.27769 0.83298,-0.61709 z m 4.53909,-7.79161 c 0.48614,-0.50157 1.0826,-1.49514 1.32547,-2.20792 0.55878,-1.63993 0.17215,-2.62114 -1.32059,-3.35075 -0.84174,-0.41144 -1.21718,-0.44922 -2.10052,-0.21137 -2.85331,0.76832 -3.36153,4.02081 -0.94625,6.05589 1.05058,0.8852 1.99266,0.79668 3.04189,-0.28585 z m -11.74245,-1.84512 c 0.61085,-0.288 1.66697,-1.01522 2.34695,-1.61607 1.07138,-0.94671 1.23235,-1.23214 1.20663,-2.13968 -0.0673,-2.37611 -3.67014,-7.75359 -6.66032,-9.94111 -2.27695,-1.66572 -6.46253,-3.72218 -9.94316,-4.88525 -3.70851,-1.2392 -15.16764,-3.77326 -18.94086,-4.18855 -9.19346,-1.01183 -16.87677,-0.50292 -26.87262,1.77996 -5.05931,1.15547 -8.83071,1.6067 -12.4258,1.48672 -1.48928,-0.0496 -2.7075,-0.051 -2.70716,-0.003 0.002,0.2246 5.03941,2.41213 7.52262,3.26648 6.37161,2.19214 11.36451,3.16193 20.52141,3.98588 17.42836,1.56826 31.45918,5.31235 40.29811,10.75346 3.64323,2.24273 3.92342,2.31711 5.6542,1.50111 z m 19.63629,-7.80917 c 1.72323,-0.78515 2.72278,-4.19921 1.76927,-6.04309 -0.51593,-0.99768 -1.71685,-1.71607 -2.86871,-1.71607 -1.31941,0 -3.17283,1.13009 -3.76542,2.29588 -1.49079,2.93283 1.94652,6.79296 4.86486,5.46328 z m -13.36371,-8.40782 c 1.89801,-0.57522 4.37861,-1.8788 5.45994,-2.86926 0.94749,-0.86787 0.97533,-0.94952 0.80778,-2.36942 -0.36175,-3.06588 -2.95702,-6.72377 -5.6795,-8.005 -5.876,-2.7653 -18.58891,-4.27985 -27.82394,-3.31481 -4.15655,0.43436 -8.7548,2.18691 -12.18076,4.64251 l -1.84094,1.31951 4.72018,0.17007 c 9.5039,0.34253 15.32601,1.89795 24.52701,6.55254 5.50579,2.78527 8.96717,4.22258 10.20546,4.23772 0.31934,0.003 1.13148,-0.15983 1.80477,-0.36391 z m -73.32686,-7.72045 c 7.60743,-1.12016 16.03811,-3.11553 23.27164,-5.50789 11.61041,-3.83995 20.04293,-8.48933 20.04293,-11.05091 0,-1.11953 -1.0412,-2.10974 -2.98478,-2.83865 -1.97455,-0.74053 -7.25577,-1.20466 -11.17575,-0.98217 -2.40585,0.13657 -3.69382,0.0746 -5.22423,-0.25086 -2.73385,-0.58156 -5.28268,-0.55207 -6.94716,0.0803 -1.39335,0.52942 -4.57478,2.56109 -7.08047,4.52158 -3.80452,2.97672 -12.13774,11.10023 -16.30404,15.89375 l -0.93459,1.07528 1.79404,-0.19429 c 0.98672,-0.1069 3.4808,-0.44267 5.54241,-0.74622 z m 90.57484,0.49383 c 1.05841,-0.80412 1.37928,-3.29883 0.64908,-5.04646 -0.51207,-1.22556 -1.56259,-1.67667 -2.94546,-1.26483 -1.46381,0.43594 -2.26116,1.43194 -2.41321,3.01442 -0.11176,1.16265 -0.0265,1.46211 0.64196,2.25657 0.42393,0.50381 1.03087,1.02123 1.34874,1.14983 0.86662,0.35058 2.1831,0.29755 2.71889,-0.1095 z M 91.26467,167.37711 c 1.086917,-3.06204 3.877817,-12.39036 8.22204,-27.48137 1.91229,-6.64295 3.91491,-13.55801 4.45026,-15.36679 2.16453,-7.31328 2.8066,-12.52888 2.58283,-20.98054 -0.15856,-5.988388 -0.62389,-9.466341 -1.6243,-12.140192 -1.62781,-4.350705 -3.96673,-2.462728 -9.332307,7.533044 -2.673786,4.981108 -5.650321,11.098148 -6.421644,13.197018 -3.659268,9.95735 -4.149373,31.02737 -1.259224,54.13491 0.240597,1.92365 0.623032,3.76447 0.857956,4.12971 l 0.423858,0.65898 0.6302,-0.65898 c 0.34661,-0.36243 1.008259,-1.72405 1.470331,-3.02579 z m 26.34958,-7.13575 c 5.80142,-5.1373 20.40568,-16.37749 31.46621,-24.21801 2.67246,-1.89444 5.83457,-4.1367 7.02694,-4.98282 2.46516,-1.74931 2.4072,-1.92109 -0.65923,-1.95392 -3.22275,-0.0345 -7.7437,1.09403 -11.09886,2.7705 -6.36489,3.18033 -19.16554,15.98232 -32.05264,32.056 -1.95899,2.44338 -3.69083,4.62993 -3.84854,4.859 -0.15771,0.22907 1.20464,-1.03387 3.02744,-2.80654 1.82281,-1.77267 4.58521,-4.34857 6.13868,-5.72421 z m -21.318645,5.82597 c 2.870555,-2.42709 9.788995,-9.33848 12.996095,-12.98286 4.5063,-5.12072 6.864,-8.27819 11.06393,-14.81698 5.29513,-8.24388 8.14681,-12.34844 10.72607,-15.43854 5.57348,-6.67735 8.5061,-9.3565 16.33282,-14.92114 9.72056,-6.91113 11.83048,-8.64765 12.78831,-10.525138 0.73095,-1.432807 0.7141,-3.767453 -0.0387,-5.369108 -0.67433,-1.434568 -2.90404,-3.621171 -4.27796,-4.195224 -2.68569,-1.122158 -6.20163,0.364689 -11.98194,5.06702 -1.09078,0.88736 -5.33894,4.316683 -9.44035,7.62072 -17.64838,14.21725 -23.93772,19.94156 -25.69541,23.38692 -1.87875,3.68266 -6.28087,16.56734 -10.73232,31.41273 -3.528584,11.76766 -3.617228,12.07809 -3.448846,12.07809 0.08323,0 0.851993,-0.59241 1.708371,-1.31649 z m 92.942645,0.5259 c 1.47197,-1.06629 3.14807,-3.01028 4.09408,-4.74838 l 0.77937,-1.43198 -0.7347,-1.50169 c -0.90171,-1.84303 -3.76023,-4.54204 -5.94873,-5.6168 -1.49924,-0.73628 -1.71576,-0.76432 -5.72306,-0.74152 -3.17753,0.018 -4.85598,0.17024 -7.08026,0.64198 -5.62893,1.19379 -11.44463,3.1267 -15.58733,5.18067 l -2.04392,1.01338 -0.021,1.46486 c -0.0177,1.23121 -0.1832,1.68578 -1.03762,2.84972 l -1.01658,1.38486 9.50618,0.15635 c 9.55737,0.15723 14.68614,0.59773 19.64066,1.68665 2.88982,0.63512 3.92252,0.56762 5.17295,-0.33819 z M 82.027986,164.80661 c -0.06202,-0.186 -0.426622,-1.77507 -0.810222,-3.53125 -1.413096,-6.4694 -2.614762,-15.8653 -3.373482,-26.37745 -0.517155,-7.16525 -0.807437,-8.31283 -3.442134,-13.60798 -1.868007,-3.75427 -3.919462,-7.09796 -6.13095,-9.99291 -5.870121,-7.68428 -9.259826,-10.15596 -10.918715,-7.96163 -0.552568,0.73092 -0.591924,1.10123 -0.575454,5.41432 0.02775,7.26383 1.393499,18.11254 2.800568,22.24594 0.926926,2.72293 3.514958,8.15755 5.452467,11.44966 1.71782,2.91883 6.28319,9.76908 8.20077,12.3051 3.616175,4.78244 8.460198,10.67232 8.670409,10.54239 0.131731,-0.0814 0.188767,-0.3002 0.12675,-0.48619 z m 117.427474,-0.63568 c 0.2425,-0.24248 0.43632,-0.90178 0.43632,-1.48408 0,-1.92464 -1.65446,-2.53359 -3.06129,-1.12677 -0.75155,0.75157 -0.68892,1.28328 0.26335,2.23556 0.9039,0.90388 1.70564,1.03129 2.36162,0.37529 z m -41.4615,-8.68976 c 6.62996,-3.10414 15.39321,-5.51501 24.37774,-6.70661 3.22462,-0.42768 4.4361,-0.95502 4.93454,-2.14798 0.48172,-1.15289 0.30878,-2.13428 -0.74594,-4.23295 -1.53519,-3.0547 -3.14709,-4.0276 -6.65986,-4.0197 -2.50027,0.006 -2.48986,0.002 -10.68981,3.41962 -4.59688,1.91575 -9.62082,4.38065 -12.94259,6.35006 -2.47445,1.46704 -8.63629,5.92134 -8.76878,6.33881 -0.0533,0.16799 0.51536,0.31377 1.36974,0.35107 1.93314,0.0843 4.32722,0.73785 5.20011,1.41938 0.38683,0.30202 0.77861,0.55606 0.87062,0.56455 0.092,0.009 1.46641,-0.59282 3.05423,-1.33625 z m 41.68486,-1.19745 c 0.79998,-1.00501 0.50815,-2.90986 -0.59709,-3.8974 -1.00288,-0.89607 -1.44373,-0.94876 -2.53664,-0.30317 -1.79166,1.05836 -1.88773,3.89545 -0.16156,4.77362 0.93527,0.47584 2.70553,0.16799 3.29536,-0.57305 z m -57.04013,-0.92569 c 2.31238,-0.54516 2.76629,-0.80153 6.17543,-3.48802 4.7869,-3.7722 8.33642,-5.91856 16.5093,-9.98304 7.36785,-3.66412 8.99999,-4.56444 8.72594,-4.81336 -0.32246,-0.2929 -5.25869,-2.4873 -6.74862,-3.0001 -0.93482,-0.32175 -2.67332,-0.64639 -3.86336,-0.72143 -2.05763,-0.12976 -2.26183,-0.0875 -4.16486,0.86209 -3.15629,1.57493 -9.17242,6.23188 -17.96647,13.90744 -1.75618,1.53282 -3.93862,3.4993 -4.84985,4.36996 -1.64375,1.57055 -1.65268,1.58757 -1.13322,2.16158 1.03084,1.13905 4.18502,1.44298 7.31571,0.70488 z m 51.50995,-8.78368 c 1.24257,-0.65404 1.33599,-1.48743 0.30414,-2.7137 -0.85369,-1.01455 -1.48128,-1.0787 -2.24564,-0.22955 -1.12173,1.24619 -1.00916,2.4653 0.27546,2.98288 0.82389,0.33196 0.96654,0.32857 1.66604,-0.0396 z m -4.87259,-7.53988 c 1.37109,-1.25517 1.49062,-3.98168 0.22662,-5.16915 -1.39563,-1.31112 -4.2012,-0.83989 -5.14635,0.86441 -0.35446,0.63915 -0.36069,0.90016 -0.0432,1.80477 0.40484,1.15316 1.78617,2.7831 2.66751,3.1476 0.71735,0.29667 1.50732,0.0738 2.29534,-0.64763 z m -55.18909,-10.2722 c 3.09747,-2.32856 6.60747,-4.5349 12.21693,-7.67939 5.25475,-2.94565 7.46952,-4.37794 8.97798,-5.80604 2.01461,-1.90729 2.65288,-4.13045 1.86832,-6.50767 l -0.34599,-1.04837 -1.29354,0.75228 c -2.18214,1.26907 -6.68495,4.35698 -10.00947,6.86422 -7.8407,5.91321 -15.08275,13.48008 -18.77494,19.61701 -0.13782,0.22906 0.93095,-0.67124 2.37502,-2.00067 1.44408,-1.32943 3.68764,-3.21555 4.98569,-4.19137 z m -78.873988,-0.49116 c -0.562359,-6.16531 -1.569117,-9.67402 -2.847969,-9.92562 -0.592998,-0.11667 -3.070113,2.22101 -3.651298,3.44577 -0.627341,1.32202 -0.246021,2.37806 1.775808,4.91797 1.408552,1.76948 4.736282,5.01218 4.937314,4.81114 0.0416,-0.0416 -0.05465,-1.50376 -0.213855,-3.24926 z m 121.834038,2.52591 c 0.49221,-0.30012 0.97237,-0.85421 1.06702,-1.23131 0.34863,-1.3891 -1.65097,-3.49644 -3.3177,-3.49644 -1.36748,0 -2.31155,2.47801 -1.51431,3.97487 0.7426,1.3943 2.22638,1.691 3.76499,0.75288 z m -11.02944,-3.06181 c 0.71366,-0.71367 0.69778,-1.06797 -0.0922,-2.05518 -0.82747,-1.0341 -1.88991,-0.85858 -2.41048,0.39821 -0.7566,1.82659 1.10228,3.05733 2.50263,1.65697 z M 77.451851,104.07793 c 0.632684,-10.446857 2.60159,-22.131262 5.406939,-32.08729 0.546207,-1.938466 0.936622,-3.580966 0.867586,-3.650002 -0.354767,-0.354768 -4.438262,2.591306 -6.308562,4.551368 -1.558686,1.633494 -2.180762,2.661106 -3.260787,5.386521 -1.866301,4.709562 -3.13442,10.752872 -3.66581,17.469674 -0.395807,5.003029 -0.216645,9.563359 0.451338,11.488259 0.562876,1.62201 2.39209,4.97531 4.367632,8.0067 l 1.440501,2.2104 0.203446,-4.25832 c 0.111896,-2.34207 0.335869,-6.44486 0.497717,-9.11731 z m 45.389979,1.77958 c 3.05423,-2.4129 6.71324,-5.29694 8.13114,-6.408982 12.91586,-10.129811 17.82984,-15.750454 17.82984,-20.393884 0,-1.160331 -0.1406,-1.508199 -0.98916,-2.447461 -1.55632,-1.72266 -2.95464,-2.057733 -7.85988,-1.883439 -4.66389,0.165727 -5.32597,0.324826 -7.96287,1.913579 -6.2606,3.772058 -13.87231,11.894789 -18.78213,20.043109 -2.4443,4.056538 -3.00036,6.827248 -3.00036,14.950088 v 4.65176 l 3.54014,-3.01884 c 1.94707,-1.66037 6.03905,-4.99304 9.09328,-7.40593 z m -73.899412,9.4684 c 1.994285,-1.99429 -0.739357,-8.1879 -4.103946,-9.29831 -2.113261,-0.69744 -3.766771,0.54139 -3.766771,2.82211 0,1.66288 0.658517,3.00993 2.266853,4.63701 1.955096,1.97789 4.597822,2.84523 5.603864,1.83919 z m 39.467487,-9.22533 c 0.999574,-2.01814 2.032014,-4.48757 2.294312,-5.48764 0.641996,-2.447755 0.418912,-2.790511 -1.795167,-2.758178 -1.934842,0.02825 -3.653295,0.759123 -4.186743,1.780644 -0.500384,0.958204 -0.284715,6.738164 0.351405,9.417764 l 0.488995,2.05983 0.514895,-0.67155 c 0.283193,-0.36935 1.33273,-2.32274 2.332303,-4.34087 z m -35.831163,-0.41849 c 0.861712,-1.23026 0.326591,-4.92742 -1.155989,-7.986743 -0.406086,-0.837965 -1.333426,-2.11866 -2.060755,-2.845989 -1.506644,-1.506643 -2.797085,-1.7747 -3.706403,-0.769915 -0.709161,0.783615 -0.848805,2.946985 -0.30989,4.800793 0.909617,3.128974 4.481503,7.418954 6.177107,7.418954 0.343034,0 0.818203,-0.2777 1.05593,-0.6171 z m 111.041288,-1.069 c 0.92581,-0.72825 0.94499,-1.7353 0.05,-2.63022 -0.87971,-0.87971 -1.63381,-0.86366 -2.35256,0.05 -1.5828,2.01222 0.31743,4.14161 2.30249,2.58015 z M 67.730655,94.7764 c 0.523141,-7.521708 1.522342,-12.294118 3.744409,-17.88417 1.779534,-4.476778 1.981152,-6.21908 0.902518,-7.799288 -1.195758,-1.751798 -3.559714,-2.415983 -5.562067,-1.562734 -4.099084,1.746712 -7.392419,11.47437 -6.334403,18.710183 0.626421,4.284127 2.861013,9.8595 5.682598,14.178249 l 1.146623,1.75504 0.06532,-1.61621 c 0.03592,-0.888914 0.195676,-3.490396 0.354996,-5.78107 z m -28.866586,1.257969 c -0.770265,-2.014322 -2.095621,-5.868789 -2.945236,-8.565486 -2.030603,-6.445171 -2.567106,-7.047849 -3.342021,-3.754227 -0.937359,3.984058 -0.194619,6.261634 3.878983,11.894716 2.03499,2.814038 3.615921,4.665898 3.719078,4.35643 0.04932,-0.147974 -0.54054,-1.917113 -1.310804,-3.931433 z m 20.041548,1.292993 c 1.073013,-1.653405 0.697295,-4.760765 -0.750718,-6.208779 -1.206604,-1.206604 -2.213746,-1.427943 -3.451928,-0.758629 -1.916521,1.035995 -2.15466,3.449976 -0.557805,5.654369 1.408193,1.943955 3.904213,2.632412 4.760451,1.313039 z M 89.669698,94.07376 c 2.327304,-2.491388 2.293201,-8.424772 -0.0598,-10.404694 -2.465956,-2.074964 -5.173497,0.807329 -4.888863,5.204405 0.211268,3.263687 1.787696,6.041757 3.428421,6.041757 0.4594,0 1.028396,-0.314945 1.520242,-0.841468 z m 22.897852,-1.726863 c 4.7116,-7.131332 10.62708,-13.565977 15.54977,-16.91449 2.79873,-1.903748 4.70872,-3.608683 5.29777,-4.729005 0.57837,-1.10003 0.49515,-3.159879 -0.1759,-4.35386 -2.28293,-4.061926 -8.00865,-2.669973 -14.02737,3.410129 -4.31177,4.355746 -6.94647,10.350048 -7.88048,17.92918 -0.27481,2.229909 -0.40253,6.671063 -0.19186,6.671063 0.054,0 0.69658,-0.905858 1.42807,-2.013017 z M 41.016819,89.36355 C 41.274695,88.666444 40.417042,74.814694 39.83548,70.284004 39.183325,65.20337 38.784994,64.568288 37.758045,66.971825 c -1.652345,3.867251 -2.37263,7.176397 -2.083915,9.573937 0.348583,2.894676 3.199739,11.808188 4.077339,12.746902 0.71939,0.769485 1.001082,0.785266 1.26535,0.07089 z m 7.569234,-0.237548 0.634434,-0.513734 -0.345099,-9.412521 c -0.41592,-11.344135 -0.69952,-14.806909 -1.323618,-16.16147 -0.633642,-1.375276 -1.997939,-3.107891 -2.447219,-3.107891 -0.76164,0 -2.165749,4.90939 -2.665949,9.32135 -0.337522,2.977091 -0.176587,6.963802 0.447089,11.07528 0.65683,4.330042 2.149361,7.748707 3.830476,8.773768 1.07993,0.658489 1.087701,0.658593 1.869886,0.02521 z m 48.625728,-0.579198 c 0.920849,-0.724341 2.300179,-3.383177 2.838759,-5.472097 0.24192,-0.938312 0.43986,-2.762787 0.43986,-4.054387 0,-1.978414 -0.0984,-2.492885 -0.62473,-3.265759 -0.902,-1.32456 -1.37006,-1.547163 -2.376547,-1.130262 -1.93496,0.801486 -3.228412,4.199283 -3.232107,8.490486 -0.0026,2.935416 0.335615,4.384387 1.252956,5.369037 0.685651,0.735961 0.839037,0.741637 1.701809,0.06298 z M 55.709632,85.266631 c 0.970933,-1.744059 1.448376,-3.864067 1.887812,-8.382561 0.488171,-5.019587 1.218212,-9.181604 2.369019,-13.505964 0.968875,-3.64072 1.013542,-4.980374 0.248621,-7.456895 -0.915877,-2.965265 -2.650646,-4.338955 -4.031855,-3.192653 -2.635895,2.187597 -5.068219,17.071796 -4.31053,26.377549 0.341005,4.188142 0.796851,5.782242 1.902089,6.651624 0.980396,0.771178 1.273544,0.696772 1.934844,-0.4911 z m 51.265488,-0.173538 c 1.17329,-0.490233 2.55771,-2.568548 2.80371,-4.208992 0.47715,-3.181852 -1.87157,-5.262562 -4.31268,-3.820565 -2.18819,1.292596 -2.49314,5.66117 -0.53207,7.622241 0.91591,0.91591 0.85358,0.903471 2.04104,0.407316 z m 54.42365,-0.193687 c 0.445,-0.35003 0.73159,-0.849909 0.73159,-1.276032 0,-0.958545 -0.77968,-2.199943 -1.62305,-2.584208 -1.85629,-0.84579 -3.70485,2.797347 -2.05494,4.049898 0.72476,0.55022 2.11999,0.460411 2.9464,-0.189658 z M 32.286589,77.006321 c -0.06874,-0.305423 -0.228377,-4.303691 -0.354765,-8.88504 -0.24345,-8.824747 -0.46201,-10.273757 -1.721554,-11.413631 -0.706755,-0.639603 -1.251675,-0.328668 -2.032521,1.159765 -0.500614,0.954265 -0.571235,1.578882 -0.562853,4.978374 0.0083,3.367087 0.110317,4.244609 0.762437,6.558326 0.895406,3.176904 1.881654,5.855319 2.882446,7.82803 0.625827,1.233604 0.760797,1.360487 0.941189,0.884806 0.115818,-0.305423 0.15436,-0.805207 0.08562,-1.11063 z m 58.751869,-4.698879 c 0.473659,-2.126249 1.544657,-6.209407 2.379996,-9.073685 1.487366,-5.099997 1.809737,-6.912919 1.229247,-6.912919 -0.504179,0 -3.060844,2.570441 -3.783965,3.804352 -1.202413,2.051764 -1.472766,3.699613 -1.476337,8.998555 -0.0035,5.084495 0.198873,7.656936 0.571997,7.273493 0.119826,-0.123142 0.605402,-1.963547 1.079062,-4.089796 z m 64.611582,3.745197 c 1.68204,-1.025629 1.56823,-2.948877 -0.28919,-4.88739 -1.5242,-1.59075 -2.51229,-1.670488 -3.71571,-0.299863 -1.10616,1.259841 -1.35588,2.67558 -0.70597,4.002358 0.84294,1.720857 2.95901,2.2531 4.71087,1.184895 z m -44.52545,-3.254065 c 1.6845,-0.870818 3.04689,-2.188485 5.69729,-5.510265 3.82146,-4.789468 6.13856,-7.320179 9.47119,-10.344293 3.41973,-3.103148 4.2668,-4.228291 5.02055,-6.668664 1.1408,-3.693469 0.31348,-5.826601 -2.03153,-5.23804 -2.96117,0.743208 -10.8969,9.136042 -15.83805,16.750332 -2.80539,4.323095 -4.34626,7.549657 -4.34626,9.10102 0,1.34519 0.37023,2.369281 0.85653,2.369281 0.15492,0 0.68155,-0.206716 1.17028,-0.459371 z m -7.25205,-1.414817 c 0.62311,-0.670633 8.18401,-13.147512 11.30654,-18.657896 1.44155,-2.543924 2.07276,-4.686284 1.90257,-6.457429 -0.19636,-2.043586 -0.49461,-2.158907 -2.20984,-0.854445 -3.69045,2.806654 -6.91593,6.703377 -9.64117,11.647548 -3.96639,7.195893 -5.17069,12.672058 -3.21654,14.626208 0.64197,0.641967 1.04001,0.57686 1.85844,-0.303986 z m -6.625408,-4.44252 c 1.573968,-2.517815 8.697658,-15.367802 9.671228,-17.445355 1.15591,-2.466636 1.5917,-4.003685 1.13514,-4.003685 -0.15439,0 -1.07587,0.529744 -2.04772,1.177208 -2.51303,1.67423 -5.51877,4.767851 -6.54467,6.73603 -0.83023,1.592786 -2.264362,6.054557 -3.485561,10.844045 -0.871193,3.416782 -0.143982,4.956177 1.271583,2.691757 z m 51.442198,-2.025289 c 2.16378,-1.047468 2.55996,-3.115327 1.04461,-5.452344 -1.72233,-2.656216 -4.43294,-2.690996 -5.9028,-0.07573 -1.23652,2.200102 -0.55906,4.81433 1.4774,5.701004 1.20331,0.523922 2.02849,0.481714 3.38079,-0.17293 z M 37.464238,62.84357 c 0.611442,-0.65085 0.65227,-0.900369 0.624703,-3.817791 -0.03948,-4.177488 -0.497504,-7.655022 -1.095247,-8.31552 -0.259987,-0.287282 -0.725195,-0.485594 -1.033797,-0.440693 -0.698368,0.101605 -1.73154,1.603257 -2.138652,3.108391 -0.863773,3.19346 0.933362,10.161976 2.620707,10.161976 0.202449,0 0.662477,-0.313362 1.022286,-0.696363 z m 43.494786,-3.618125 c 1.814697,-1.063484 2.51975,-2.933884 1.746042,-4.631988 -0.707594,-1.552998 -3.572393,-2.581293 -5.252538,-1.885354 -1.811807,0.750476 -2.476578,3.296662 -1.373246,5.259777 1.1316,2.013411 2.839107,2.453454 4.879742,1.257565 z M 50.757656,58.587119 c 0.987648,-1.387026 2.03484,-5.005609 2.182532,-7.541773 0.119549,-2.052942 0.06693,-2.446841 -0.404358,-3.026676 -0.653462,-0.803973 -1.783505,-0.652877 -2.422626,0.323924 -1.505792,2.301379 -1.744121,11.032477 -0.301149,11.032477 0.211492,0 0.637011,-0.354579 0.945601,-0.787952 z m -6.258945,-1.568095 c 0.555983,-0.555983 0.977218,-2.655473 1.281289,-6.386138 0.27533,-3.378016 0.0679,-4.966754 -0.727145,-5.56921 -1.055749,-0.800013 -2.816311,-0.152122 -3.629383,1.335607 -0.697631,1.276508 -0.690228,6.156201 0.01232,8.170486 0.884372,2.535315 2.047038,3.465061 3.062843,2.449255 z m 25.167728,-0.418397 c 0.808461,-0.432675 1.231989,-2.040899 0.784541,-2.979064 -0.751772,-1.576237 -3.840625,-0.783714 -3.830539,0.982823 0.005,0.882845 0.183605,1.175694 1.098745,1.801961 0.788007,0.539266 1.221778,0.582544 1.947253,0.19428 z M 140.31701,55.50586 c 0.8892,-0.928126 1.00906,-2.005426 0.30917,-2.778798 -0.95291,-1.052955 -2.84738,-0.92949 -3.46571,0.225866 -0.64522,1.205604 0.47472,3.36791 1.74436,3.36791 0.34726,0 0.98274,-0.36674 1.41218,-0.814978 z M 96.258838,51.947733 c 0.289536,-0.419957 1.34586,-2.200435 2.347392,-3.956619 1.00152,-1.756184 2.87192,-4.754884 4.15644,-6.66378 3.02942,-4.501978 4.30392,-8.198435 3.15538,-9.151639 -0.97186,-0.806576 -3.11746,0.956889 -5.39172,4.431462 -1.76333,2.693967 -3.098264,6.004513 -4.198569,10.412156 -1.288011,5.159558 -1.309951,6.728477 -0.06893,4.92842 z M 29.85078,50.353224 c 0.947227,-1.445649 -0.199174,-2.774324 -1.751703,-2.030217 -0.97931,0.469371 -1.079638,1.04382 -0.345345,1.977324 0.732838,0.931653 1.508443,0.951218 2.097048,0.05289 z m 34.236344,-1.13901 c 2.98062,-1.760695 2.361553,-5.551711 -0.958144,-5.86743 -1.698129,-0.16151 -2.783752,0.555055 -3.058317,2.018615 -0.579111,3.086921 1.665318,5.237668 4.016461,3.848815 z m 60.520596,-4.108582 c 2.59958,-2.000337 5.03672,-5.128093 5.03672,-6.464004 0,-0.86067 -1.1087,-1.559907 -2.08489,-1.314901 -1.65243,0.414732 -5.31266,4.818442 -6.49216,7.810863 -0.97166,2.465121 0.31023,2.45355 3.54033,-0.03196 z m 15.44144,1.222364 c 1.21349,-0.46137 2.08987,-1.626677 2.08987,-2.778886 0,-1.183875 -0.92323,-2.728683 -1.95194,-3.266125 -2.07143,-1.082203 -4.80982,1.592732 -4.31743,4.217388 0.32874,1.752345 2.21176,2.575757 4.1795,1.827623 z M 31.023676,42.982463 c 1.067814,-0.994821 0.500342,-3.321073 -0.810151,-3.321073 -0.856878,0 -2.132609,0.764614 -2.333903,1.398836 -0.311404,0.981146 0.971263,2.394904 2.241667,2.470768 0.1621,0.0097 0.568167,-0.237159 0.902387,-0.548531 z m 21.716338,-1.310222 c 0.301739,-0.3836 0.548616,-0.923411 0.548616,-1.19958 0,-1.119765 -2.321655,-1.832803 -3.062214,-0.940483 -0.53914,0.649625 -0.389845,2.136986 0.267967,2.669651 0.710189,0.575075 1.528502,0.382091 2.245631,-0.529588 z m 56.712646,0.486924 c 1.41314,-1.111581 5.75359,-8.834074 5.75359,-10.236752 0,-1.584673 -1.2211,-1.852837 -2.99921,-0.658647 -1.63766,1.099869 -3.23181,3.392427 -4.17016,5.997151 -1.18047,3.276817 -1.29043,3.965373 -0.76201,4.771844 0.54259,0.8281 1.23466,0.86827 2.17779,0.126404 z m 9.88319,-1.603101 c 1.90179,-1.90179 5.51252,-6.858506 5.73544,-7.873465 0.39416,-1.794585 -1.5356,-2.988853 -3.50885,-2.171511 -2.02525,0.838887 -4.88551,5.717311 -5.16605,8.811152 -0.13603,1.500287 -0.0913,1.687722 0.50267,2.10372 0.3586,0.251179 0.75511,0.456689 0.88111,0.456689 0.12601,0 0.82606,-0.596963 1.55568,-1.326585 z m -74.388005,-3.01474 c 1.431643,-0.845693 2.096406,-2.724999 1.321103,-3.734804 -0.87522,-1.139944 -3.352501,-1.497573 -4.160781,-0.600667 -1.411951,1.566767 -0.368443,4.789592 1.550806,4.789592 0.28606,0 0.866052,-0.204355 1.288872,-0.454121 z m -9.47982,-1.775583 c 1.089783,-0.664419 2.019656,-2.55447 1.802488,-3.663726 -0.179117,-0.914898 -1.250595,-2.04229 -2.157282,-2.269853 -1.974176,-0.495487 -4.024238,1.528619 -3.637287,3.591236 0.202513,1.07949 1.834189,2.906718 2.594161,2.905064 0.262155,-5.71e-4 0.891219,-0.253796 1.39792,-0.562721 z M 134.1628,32.669414 c 0.30412,-0.359622 0.42822,-0.806201 0.32464,-1.168204 -0.18147,-0.634137 -1.37063,-1.83549 -1.81687,-1.83549 -0.60312,0 -1.63784,1.385381 -1.63784,2.192894 0,1.62836 2.00046,2.146551 3.13007,0.8108 z m -24.34302,-5.715106 c 1.15142,-0.768827 0.98758,-2.353555 -0.27612,-2.670723 -0.94698,-0.237677 -1.53164,0.04974 -1.73297,0.851886 -0.35913,1.43091 0.89274,2.56424 2.00909,1.818837 z m 21.78962,-2.82038 c 0.9882,-0.988206 1.0464,-2.003643 0.18689,-3.26093 -0.80698,-1.180434 -1.93045,-1.670618 -2.85914,-1.247478 -1.64242,0.748334 -2.36579,3.652851 -1.18396,4.753892 0.96337,0.89751 2.83218,0.778544 3.85621,-0.245484 z m -16.58566,-2.828551 c 0.75282,-0.343006 1.29314,-1.31523 1.29314,-2.32679 0,-1.285818 -2.21694,-2.049765 -3.17323,-1.093478 -0.67875,0.678751 -0.55235,2.249466 0.24521,3.04702 0.78678,0.786789 0.74712,0.777736 1.63488,0.373248 z m 8.54022,-3.617391 c 2.86872,-0.960841 3.59123,-4.327757 1.24045,-5.780615 -1.62216,-1.002554 -3.19889,-0.559631 -4.06728,1.142553 -0.97311,1.907455 -0.53,4.079845 0.95436,4.678862 0.79576,0.321126 0.79161,0.321217 1.87247,-0.0408 z"
       id="path1" />
  </g>
</svg>
