<?xml version="1.0" encoding="UTF-8" standalone="no"?>
<!-- Created with Inkscape (http://www.inkscape.org/) -->

<svg
   version="1.1"
   id="svg1"
   width="60.111679mm"
   height="67.986206mm"
   viewBox="0 0 227.19375 256.95574"
   sodipodi:docname="casco.svg"
   inkscape:version="1.3.2 (091e20e, 2023-11-25, custom)"
   xmlns:inkscape="http://www.inkscape.org/namespaces/inkscape"
   xmlns:sodipodi="http://sodipodi.sourceforge.net/DTD/sodipodi-0.dtd"
   xmlns="http://www.w3.org/2000/svg"
   xmlns:svg="http://www.w3.org/2000/svg"
   xmlns:inkstitch="http://inkstitch.org/namespace">
  <sodipodi:namedview
     id="namedview1"
     pagecolor="#ff00dd"
     bordercolor="#000000"
     borderopacity="0.25"
     inkscape:showpageshadow="2"
     inkscape:pageopacity="0.0"
     inkscape:pagecheckerboard="0"
     inkscape:deskcolor="#d1d1d1"
     inkscape:zoom="2.534375"
     inkscape:cx="111.46732"
     inkscape:cy="143.42787"
     inkscape:window-width="1857"
     inkscape:window-height="1057"
     inkscape:window-x="55"
     inkscape:window-y="-8"
     inkscape:window-maximized="1"
     inkscape:current-layer="g1"
     inkscape:document-units="mm" />
  <metadata
     id="metadata18">
    <inkstitch:min_stitch_len_mm>0</inkstitch:min_stitch_len_mm>
    <inkstitch:collapse_len_mm>3</inkstitch:collapse_len_mm>
    <inkstitch:inkstitch_svg_version>1</inkstitch:inkstitch_svg_version>
  </metadata>
  <defs
     id="defs1" />
  <g
     inkscape:groupmode="layer"
     inkscape:label="Image"
     id="g1"
     transform="translate(-79.623157,-18.828104)">
    <path
       style="fill:none;stroke:#f9f9f9;stroke-width:0.944882;stroke-dasharray:none"
       d="m 124.83027,273.21632 c -6.19223,-0.68088 -12.38386,-3.33008 -16.15525,-6.91231 -10.030356,-9.52738 -18.857226,-26.60005 -23.801636,-46.0365 -1.89825,-7.46199 -2.42962,-12.48167 -1.8442,-17.42164 0.32217,-2.7186 0.34232,-4.73446 0.0668,-6.68195 -0.6728,-4.75542 -0.894362,-37.06618 -0.38493,-56.13569 0.40194,-15.0459 0.59567,-18.3492 1.21906,-20.78663 0.77817,-3.04262 1.99765,-5.30952 3.70689,-6.89079 0.7705,-0.7128 1.0837,-1.49488 1.27641,-3.18725 0.90791,-7.97341 3.67133,-18.599046 6.85191,-26.346246 8.001276,-19.48945 21.774426,-35.2979 39.551556,-45.39622 13.64487,-7.75098 29.43671,-13.00316 45.81673,-15.23809 5.08521,-0.69384 25.20854,-0.6925 30.27889,0.002 19.25426,2.63736 34.63826,7.39103 51.74113,15.98806 6.82548,3.43094 11.63606,6.515 20.39668,13.07634 11.25475,8.42934 12.26339,9.41041 14.63742,14.23721 1.66199,3.37909 2.24251,5.71592 3.61267,14.54184 2.09605,13.5021 2.24319,15.56364 2.21777,31.075696 -0.0259,15.81727 -0.49399,22.53566 -3.37239,48.40637 -1.46658,13.18142 -4.99331,22.86863 -11.22,30.81895 -2.45177,3.13048 -4.16001,4.36538 -16.45949,11.89892 -19.66177,12.04295 -27.94274,17.15196 -43.2271,26.66909 -21.23215,13.22068 -21.99112,13.661 -33.18671,19.2547 -13.83854,6.91423 -26.07837,12.19128 -42.60674,18.36941 -16.1584,6.03988 -22.27664,7.44669 -29.11546,6.6947 z"
       id="path1-6" />
    <path
       id="path2"
       style="fill:none;stroke:#f9f9f9;stroke-width:1px"
       d="m 125.10904,271.34721 -2.24776,-0.33522 -2.15339,-0.48724 -2.10109,-0.63848 -2.01739,-0.77639 -1.90203,-0.90018 -1.75568,-1.00809 -1.57846,-1.0984 -1.37479,-1.17132 -3.56772,-3.7766 -3.45317,-4.43168 -3.301021,-5.02873 -3.110639,-5.56275 -2.884322,-6.03364 -2.623606,-6.4415 -2.329537,-6.78646 -2.003051,-7.06951 -1.145215,-5.06025 -0.658208,-4.3235 -0.205731,-3.80882 0.21872,-3.639 0.265698,-3.74579 -0.199412,-3.19123 -0.228703,-2.97055 -0.182884,-5.04218 -0.219683,-14.56996 0.0015,-17.25937 0.248893,-16.1147 0.524141,-15.05659 0.284023,-3.36631 0.359593,-1.95733 0.59886,-1.91921 0.733423,-1.62549 0.85265,-1.33288 1.091406,-1.20596 0.650234,-0.73298 0.588576,-1.09582 0.488733,-2.27368 1.004537,-6.37917 1.540377,-6.749041 1.960276,-6.710861 2.244088,-6.15236 1.529852,-3.523881 1.666952,-3.452752 1.79408,-3.361516 1.91874,-3.267487 2.04064,-3.170603 2.16015,-3.07094 2.27714,-2.968469 2.39149,-2.863146 2.50329,-2.754957 2.6127,-2.644032 2.71958,-2.530327 2.82397,-2.41358 2.92591,-2.29419 3.02537,-2.171919 3.12234,-2.046838 3.21351,-1.916624 5.13381,-2.745399 5.31303,-2.508271 5.47799,-2.266855 5.62448,-2.019064 5.75237,-1.764699 5.90427,-1.515187 m -44.90138,248.838138 -2.38704,-0.35598 -2.42441,-0.54856 -2.36311,-0.71812 -2.27681,-0.87621 -2.16497,-1.02462 -2.02772,-1.16431 -1.86474,-1.2976 -1.67121,-1.42388 -3.83168,-4.056 -3.657823,-4.69432 -3.458784,-5.26907 -3.235161,-5.78545 -2.984678,-6.24356 -2.705794,-6.6433 -2.397463,-6.98434 -2.058749,-7.26609 -1.197385,-5.29075 -0.706192,-4.6387 -0.227269,-4.20758 0.23288,-3.8746 0.249302,-3.51461 -0.181988,-2.91237 -0.232497,-3.01985 -0.187116,-5.15882 -0.220717,-14.63864 0.0015,-17.31703 0.249907,-16.1803 0.528659,-15.18641 0.307377,-3.64309 0.434207,-2.36347 0.73534,-2.35659 0.940977,-2.08551 1.17075,-1.83012 1.290394,-1.42584 0.344566,-0.38842 0.126424,-0.23538 0.354267,-1.64812 1.008263,-6.40283 1.594223,-6.984959 2.026724,-6.938339 2.325312,-6.37504 1.605148,-3.697319 1.733242,-3.590048 1.866324,-3.496884 1.99686,-3.400513 2.12456,-3.300997 2.24985,-3.19846 2.37246,-3.092731 2.49231,-2.983854 2.60951,-2.871843 2.7241,-2.756768 2.83602,-2.638673 2.94523,-2.51722 3.05169,-2.39281 3.15543,-2.265281 3.25646,-2.134762 3.35829,-2.002976 5.29499,-2.831601 5.48177,-2.587929 5.64641,-2.336545 5.79292,-2.079536 5.92123,-1.816501 5.98933,-1.537013 m -60.31759,239.082662 -4.12114,3.89321 m -5.922583,-18.49362 -4.948201,2.76699 m -0.09812,-13.60652 -5.250493,2.13851 m 1.280134,-13.45601 -5.454576,1.54548 m 2.273696,-24.78998 -5.655086,-0.40113 m 4.999845,-27.52506 -5.668651,0.0855 m 5.678662,-18.47104 -5.668619,-0.0876 m 6.014173,-18.32608 -5.665863,-0.19723 M 95.20953,93.271878 89.767648,91.682277 m 9.43788,-9.671109 -5.200365,-2.257678 M 106.2345,68.855925 101.46725,65.787665 M 115.30956,57.033 111.1137,53.220429 m 15.12451,-6.309862 -3.49814,-4.46138 m 15.98222,-3.634668 -2.67349,-4.999336 m 13.53147,-0.173978 -2.16775,-5.238491 m 13.4948,1.158376 -1.66273,-5.419985"
       inkstitch:satin_column="true" />
    <path
       id="path3"
       style="fill:none;stroke:#f9f9f9;stroke-width:1px"
       d="m 169.36783,26.267009 5.99574,-1.246411 5.97956,-0.957314 6.02722,-0.38148 8.90812,-0.128441 8.90535,0.12963 6.02379,0.382567 6.93001,1.073051 6.67873,1.295868 6.4419,1.530402 6.27346,1.785295 6.17344,2.060775 6.14164,2.357848 6.17788,2.676587 6.27624,3.014603 4.75541,2.525892 4.55198,2.744316 4.93165,3.336386 5.88035,4.297626 6.64488,5.058872 3.82814,3.265789 1.13987,1.213706 0.86015,1.14074 1.59839,2.881683 0.99303,2.273509 0.78586,2.584543 0.76271,3.670803 0.89983,5.466004 1.22626,8.315073 0.65956,6.313838 0.26852,6.696391 0.0409,9.45126 -0.13246,10.54781 -0.47996,9.76485 -1.01361,11.66577 -1.73278,16.20834 -0.63755,4.707 -0.82861,4.3713 -1.02742,4.07361 -1.23166,3.79846 -1.44194,3.54696 -1.65933,3.32049 -1.88536,3.11941 -2.10974,2.9275 -1.71321,1.93589 -2.47108,2.02291 -4.40369,2.93468 -7.38766,4.57976 -43.22747,26.66933 -12.55958,7.79393 -7.74713,4.66297 -5.84668,3.22485 -6.87759,3.48638 -10.13088,4.8988 -10.0739,4.52015 -10.58092,4.38492 -11.63905,4.4869 -10.34408,3.67845 -4.02727,1.24668 -3.44405,0.89781 -2.97355,0.57943 -2.63417,0.29754 -2.43888,0.0519 -2.46679,-0.17014 m 43.63824,-248.764419 6.08126,-1.264189 6.24424,-0.999686 6.29958,-0.39872 9.05508,-0.130559 9.05245,0.13177 6.28621,0.399233 7.16959,1.110149 6.82647,1.324532 6.5993,1.567798 6.43514,1.831305 6.33356,2.114225 6.29456,2.416552 6.31872,2.737613 6.41156,3.079597 4.91359,2.609908 4.72442,2.848284 5.07035,3.430214 5.96565,4.359974 6.75792,5.144928 4.06706,3.469611 1.42273,1.514894 1.14225,1.51486 1.81341,3.269317 1.15297,2.639691 0.89974,2.959057 0.81349,3.915197 0.91777,5.574996 1.24254,8.425527 0.68044,6.513762 0.27608,6.884809 0.0413,9.55074 -0.13374,10.64879 -0.48684,9.90475 -1.02299,11.77383 -1.74242,16.29846 -0.65805,4.8584 -0.86819,4.5801 -1.08578,4.30499 -1.31274,4.04854 -1.54866,3.80944 -1.79247,3.58691 -2.04284,3.37999 -2.30966,3.2049 -2.03979,2.30491 -2.84972,2.33289 -4.60991,3.07212 -7.44394,4.61464 -43.22673,26.66887 -12.57722,7.80487 -7.83027,4.71303 -5.96692,3.29115 -6.96801,3.53222 -10.21152,4.9378 -10.1731,4.56465 -10.67488,4.42388 -11.72935,4.5217 -10.46472,3.72135 -4.18373,1.29512 -3.64115,0.94919 -3.23805,0.63097 -2.95583,0.33386 -2.78172,0.0591 -2.63681,-0.18186 m 71.42011,-250.601529 0.0311,-5.669209 m 30.96972,9.122383 1.31039,-5.515777 m 11.61633,9.148815 1.79511,-5.377591 m 10.75138,10.180304 2.2538,-5.202044 m 13.70678,13.205813 2.92712,-4.85519 m 4.50598,9.696064 3.34521,-4.577172 m 21.22299,47.29976 5.63862,-0.589022 m -5.0532,23.046745 5.66885,0.0712 m -6.07255,13.50338 5.66246,0.27832 m -7.16215,17.74247 5.63717,0.60265 m -46.33215,61.18399 2.97675,4.82493 m -34.04321,14.34441 2.98931,4.81714 m -26.30065,9.24249 2.73812,4.96424 m -18.90922,3.15263 2.46801,5.10391 m -10.6809,-1.32083 2.32087,5.17246 m -10.61605,-1.57549 2.17046,5.23736 m -14.80571,-0.16665 2.03925,5.28983"
       inkstitch:satin_column="true" />
    <path
       style="fill:#ffffff;stroke-width:0.398406"
       d="m 125.29777,271.6472 c -6.19223,-0.68088 -12.38386,-3.33008 -16.15525,-6.91231 -10.030364,-9.52738 -18.857229,-26.60005 -23.801642,-46.0365 -1.898255,-7.46199 -2.429622,-12.48167 -1.844203,-17.42164 0.322175,-2.7186 0.342322,-4.73446 0.06679,-6.68195 -0.672801,-4.75542 -0.894359,-37.06618 -0.384929,-56.13569 0.401941,-15.0459 0.59567,-18.3492 1.219056,-20.78663 0.778171,-3.04262 1.99765,-5.30952 3.706897,-6.89079 0.770494,-0.7128 1.083697,-1.49488 1.276402,-3.18725 0.907911,-7.973412 3.671333,-18.599046 6.851911,-26.346249 8.001288,-19.489451 21.774438,-35.297899 39.551568,-45.396216 13.64487,-7.750989 29.43671,-13.003164 45.81673,-15.238097 5.08521,-0.693837 25.20854,-0.692494 30.27889,0.002 19.25426,2.637367 34.63826,7.391036 51.74113,15.988065 6.82548,3.430936 11.63606,6.515002 20.39668,13.076341 11.25475,8.42934 12.26339,9.410404 14.63742,14.237209 1.66199,3.379088 2.24251,5.71592 3.61267,14.541833 2.09605,13.502105 2.24319,15.563642 2.21777,31.075704 -0.0259,15.81727 -0.49399,22.53566 -3.37239,48.40637 -1.46658,13.18142 -4.99331,22.86863 -11.22,30.81895 -2.45177,3.13048 -4.16001,4.36538 -16.45949,11.89892 -19.66177,12.04295 -27.94274,17.15196 -43.2271,26.66909 -21.23215,13.22068 -21.99112,13.661 -33.18671,19.2547 -13.83854,6.91423 -26.07837,12.19128 -42.60674,18.36941 -16.1584,6.03988 -22.27664,7.44669 -29.11546,6.6947 z m 13.47465,-3.92215 c 11.94974,-3.70427 21.44612,-7.60985 33.26693,-13.68164 28.22418,-14.49741 62.3864,-36.68753 98.92746,-64.25841 3.46388,-2.61358 6.60133,-4.96064 6.97211,-5.21574 0.37078,-0.2551 2.64625,-0.6594 5.05661,-0.89844 8.93864,-0.88646 8.01346,-0.5408 9.52223,-3.55765 3.67335,-7.34514 5.2132,-13.79912 6.81069,-28.54625 2.15378,-19.88247 2.78681,-29.51354 2.7888,-42.43028 0,-12.112568 -0.42586,-18.405939 -1.86833,-27.490043 -0.4349,-2.739044 -0.95051,-6.055777 -1.14577,-7.370518 -0.78777,-5.304291 -2.70303,-10.231295 -5.21797,-13.423049 -1.40346,-1.781179 -18.44611,-14.631977 -23.43796,-17.673112 -4.51391,-2.749967 -13.62187,-7.282653 -19.3242,-9.616924 -37.38093,-15.302028 -74.61205,-15.012602 -107.03267,0.832044 -11.78275,5.758483 -17.2963,9.603485 -25.43746,17.739402 l -5.37848,5.375025 1.39442,0.112517 c 9.21006,0.743192 16.099,1.925638 19.3583,3.322738 2.54199,1.089625 2.55519,1.061223 -2.42603,5.21902 -4.35465,3.634805 -7.90252,6.05996 -10.81815,7.394781 -2.38673,1.092681 -2.89588,1.086932 -10.09818,-0.114 -4.92265,-0.820817 -4.99984,-0.848147 -5.50085,-1.947733 -0.64101,-1.406861 -0.98544,-1.268725 -1.98948,0.797916 -1.01232,2.083638 -1.04091,2.527367 -0.42406,6.580618 l 0.45741,3.005618 3.82809,0.687187 c 2.10545,0.377956 4.22466,0.683793 4.70936,0.679642 0.48471,-0.0041 2.36718,-1.043737 4.18327,-2.310196 17.34377,-12.094713 40.46391,-22.724244 59.8757,-27.527973 7.01195,-1.735208 23.02939,-3.734571 24.72033,-3.08569 0.31816,0.122088 0.57848,0.563135 0.57848,0.980108 0,0.688829 -0.44611,0.783558 -4.88048,1.036375 -15.12934,0.862561 -29.85085,4.735912 -47.23942,12.42908 -10.94889,4.844076 -20.89989,10.372136 -31.63541,17.574335 -2.36802,1.588646 -4.66955,2.888447 -5.11451,2.888447 -0.44496,0 -2.90718,-0.370259 -5.4716,-0.822797 -5.18871,-0.915646 -5.65521,-1.223267 -5.66469,-3.735423 -0.003,-0.889394 -0.16337,-1.865402 -0.35558,-2.168912 -0.42929,-0.677853 -0.69846,-0.223602 -2.350158,3.966136 -3.779199,9.586411 -6.491502,21.021201 -6.602463,27.835311 l -0.04825,2.96275 1.792829,1.11567 c 2.136144,1.32932 6.747882,2.53013 11.952192,3.11214 37.99507,4.24906 87.04798,5.53688 103.69234,2.72229 l 2.69631,-0.45595 1.24869,-2.53646 c 1.55617,-3.16103 2.98598,-4.42811 7.62347,-6.75579 6.45487,-3.23989 14.26575,-7.46565 27.52771,-14.892757 5.66445,-3.172268 6.04901,-3.324295 8.40901,-3.324295 1.89942,0 3.00134,0.258446 4.75036,1.114163 3.54179,1.732837 3.55801,1.416359 -0.58099,11.340559 l -1.72579,4.13798 0.8779,2.63492 c 1.23076,3.694 1.6563,6.37592 1.6563,10.43862 0,4.30294 -0.53474,7.00039 -2.00709,10.1246 -1.37717,2.92222 -2.77503,4.30398 -6.4488,6.3745 -2.74835,1.54895 -2.87886,1.69419 -4.65598,5.18112 -2.22874,4.37308 -4.35232,7.50621 -8.17723,12.06469 -3.96453,4.72489 -11.37669,11.87844 -14.76668,14.25147 -1.53386,1.07371 -4.28609,3.07458 -6.11605,4.44638 -19.30931,14.47482 -44.16507,27.57916 -65.12611,34.33558 -9.52045,3.06876 -18.59703,5.22267 -25.9683,6.16235 l -3.58495,0.45705 -0.0823,1.91725 c -0.0929,2.16395 -0.62537,3.0863 -10.29041,17.82482 -6.42237,9.79375 -7.20818,10.54813 -10.94342,10.50574 -1.43714,-0.0163 -2.76848,-0.32478 -3.868592,-0.89641 -1.89351,-0.98387 -2.107506,-1.03239 -2.107506,-0.47781 0,0.68964 4.762518,8.45992 7.064568,11.52617 6.4338,8.56968 10.15552,11.12594 19.42946,13.3451 0.43825,0.10486 3.03785,0.12459 5.77689,0.0439 4.18131,-0.12327 5.6191,-0.3449 8.96415,-1.38183 z m -23.10757,-9.18602 c -0.29265,-0.47351 -0.0674,-0.88195 1.64771,-2.98805 0.71378,-0.87649 6.78143,-8.58566 13.48367,-17.13147 13.60992,-17.35359 14.90991,-18.6665 21.92041,-22.13869 4.04824,-2.00498 8.43287,-3.29701 12.74901,-3.75669 8.69923,-0.92654 30.98002,-7.59008 58.36653,-17.45574 7.2167,-2.59976 16.61143,-6.08116 23.10757,-8.56303 4.23799,-1.61916 10.5075,-3.09721 14.14343,-3.33438 1.78032,-0.11614 2.00494,-0.0394 2.11354,0.72219 0.11206,0.78582 -0.15154,0.88948 -3.38645,1.33135 -4.64719,0.63482 -9.21003,1.7906 -12.87052,3.26016 -3.52902,1.41678 -18.48426,7.05642 -19.92032,7.51203 -0.54781,0.17379 -3.59561,1.24546 -6.77291,2.38148 -24.42941,8.73458 -43.64165,14.41841 -53.78486,15.91195 -12.15539,1.7898 -18.67656,5.51215 -25.89641,14.78188 -1.42431,1.82872 -4.02391,5.14422 -5.7769,7.3678 -1.75299,2.22363 -6.41434,8.1853 -10.35856,13.24821 -6.69091,8.58861 -8.0678,9.97901 -8.76494,8.851 z M 298.33418,105.22284 c 0,-1.8844 -1.85749,-17.018772 -2.94247,-23.974649 -1.94303,-12.456833 -2.42674,-14.029395 -5.12162,-16.650439 -3.82895,-3.72404 -8.78881,-7.053216 -14.30432,-9.601387 -6.60075,-3.049558 -12.16441,-4.32061 -20.59105,-4.704148 -6.18792,-0.281642 -6.84046,-0.578873 -6.94217,-3.162172 -0.12667,-3.21743 3.29268,-6.394741 7.13073,-6.625979 1.25483,-0.0756 1.53584,0.04048 1.53584,0.634405 0,0.539749 -0.66503,0.950108 -2.58263,1.593626 -2.00078,0.67143 -2.78616,1.171677 -3.48606,2.220426 -1.90995,2.861957 -1.38868,3.177112 5.99012,3.62161 6.78037,0.40845 11.548,1.346418 16.50179,3.246514 8.85807,3.397634 19.43839,11.069029 20.9363,15.180137 1.32654,3.640737 3.14347,14.595415 4.841,29.187647 0.98928,8.504069 0.98454,9.141029 -0.069,9.290659 -0.49303,0.07 -0.89642,-0.0453 -0.89642,-0.25625 z M 195.54533,244.55731 c 8.32369,-4.20868 18.01559,-9.64613 23.50598,-13.18753 2.95255,-1.9045 11.90339,-7.46243 38.64542,-23.99661 3.61553,-2.23542 10.65279,-6.56287 15.63834,-9.61661 4.98556,-3.05371 9.83845,-6.11295 10.78422,-6.79837 1.75423,-1.27128 5.70309,-5.60558 5.39123,-5.91745 -0.0947,-0.0947 -2.43259,0.0784 -5.19541,0.38458 l -5.02331,0.55665 -8.1083,6.10777 c -27.02289,20.35558 -59.04848,41.81702 -80.41905,53.89152 -8.10092,4.57705 -5.63515,3.84267 4.78088,-1.42395 z m -89.35714,-1.54294 c 0.84918,-0.51777 2.86156,-3.19741 5.97609,-7.95765 11.03876,-16.8716 11.50158,-17.70821 10.4784,-18.94108 -0.2962,-0.35689 -0.82663,-0.5241 -1.2432,-0.39187 -0.39961,0.12681 -3.73586,0.22948 -7.41387,0.22813 -12.69946,-0.005 -20.423319,-2.35001 -25.954126,-7.8808 l -2.560809,-2.56084 0.255944,2.17769 c 0.345737,2.94171 0.382657,3.00167 3.041765,4.94163 6.066485,4.42578 12.939186,7.19299 18.729136,7.54104 2.08167,0.12514 4.00896,0.4049 4.28286,0.62167 0.89474,0.70805 0.5269,2.91801 -1.11857,6.72032 -0.88911,2.05458 -2.2559,5.21243 -3.03731,7.01741 -0.78141,1.80502 -1.8612,3.7571 -2.39953,4.33797 -0.924,0.99701 -1.12751,1.04283 -3.63599,0.81841 -1.46146,-0.13076 -3.598438,-0.60303 -4.748836,-1.04948 -2.177861,-0.84522 -2.39459,-0.7206 -1.637303,0.94143 0.589175,1.29311 6.355669,4.21984 8.310609,4.21801 0.76693,0 1.97056,-0.35263 2.67474,-0.78199 z m -2.88805,-5.04299 c 0.79989,-0.30693 2.07731,-2.79534 4.88295,-9.51203 1.1899,-2.84861 2.24829,-5.37614 2.35196,-5.61674 0.12384,-0.28741 -0.94558,-0.52179 -3.11775,-0.68334 -5.82106,-0.43291 -12.238144,-2.85901 -17.947673,-6.78546 -1.50302,-1.03363 -2.689243,-1.62295 -2.689243,-1.33606 0,1.80267 4.396533,16.29295 5.960317,19.64435 0.636479,1.36402 1.130291,1.78577 2.960833,2.52872 1.765355,0.71649 5.148596,1.71139 6.683716,1.96542 0.14642,0.0243 0.55813,-0.0679 0.91489,-0.20486 z m 21.29106,-25.0612 c 17.63172,-2.18283 36.12853,-7.9649 54.81867,-17.13621 9.8611,-4.83889 24.99476,-13.54112 27.61031,-15.87666 1.86364,-1.6641 3.03277,-5.78354 3.46101,-12.19493 0.3899,-5.83751 -2.33501,-24.07516 -4.27283,-28.5977 -1.0782,-2.51634 -3.23346,-5.27328 -5.0052,-6.40247 -3.29065,-2.09727 -5.64644,-2.4452 -17.6895,-2.61264 -11.0766,-0.15401 -14.14334,-0.45534 -32.89828,-3.23258 -10.64036,-1.57562 -21.89743,-3.30099 -28.57603,-4.37983 -1.97211,-0.31857 -5.46813,-0.85271 -7.76893,-1.18697 -2.30079,-0.33426 -5.25896,-0.77884 -6.5737,-0.98797 -1.31474,-0.20912 -3.3765,-0.49189 -4.58168,-0.62837 -6.292777,-0.71262 -11.875554,-2.86193 -13.120398,-5.0512 -0.343537,-0.60418 -0.768999,-1.09964 -0.945461,-1.10102 -0.632681,-0.005 -2.34296,4.44835 -2.404853,6.26189 -0.06241,1.82865 -0.04452,1.856 1.530478,2.34002 0.876495,0.26936 3.655378,1.12346 6.175298,1.89799 8.948176,2.75034 19.543696,5.19913 27.689246,6.39938 5.50457,0.81112 17.62885,2.04738 29.48207,3.00617 5.47809,0.44312 12.02191,0.97748 14.54184,1.18748 2.51992,0.21 6.10557,0.49424 7.96812,0.63164 1.86255,0.13741 4.19323,0.31475 5.17929,0.39409 0.98605,0.0794 4.75099,0.34437 8.36653,0.58894 3.61554,0.24456 7.14222,0.62255 7.83707,0.83998 3.60044,1.1266 6.43337,4.80156 7.49045,9.71683 0.96847,4.50323 1.82329,13.47716 1.9165,20.11953 0.0969,6.90843 -0.21983,8.04082 -2.96608,10.6033 -2.24113,2.09111 -20.2931,10.78792 -32.76412,15.78458 -22.04467,8.83251 -40.27062,13.12068 -56.01582,13.17936 -10.52185,0.039 -18.145594,-1.50876 -24.167079,-4.90709 -1.21455,-0.68546 -2.310195,-1.14434 -2.434769,-1.0198 -0.516091,0.51609 1.793618,4.36825 3.700489,6.17167 4.869729,4.60558 12.073649,6.69586 23.311669,6.76399 3.40295,0.0207 8.40052,-0.2365 11.10569,-0.5714 z m 2.02982,-9.32912 c 18.62911,-2.97331 38.85675,-9.85829 61.75299,-21.01917 4.27291,-2.08283 8.49926,-4.13179 9.39189,-4.55322 2.04072,-0.96347 4.30903,-3.31925 4.89794,-5.08686 1.18899,-3.56869 -0.61984,-24.40451 -2.50111,-28.81018 -0.87825,-2.05672 -2.87792,-4.22607 -4.53299,-4.9176 -0.76652,-0.32027 -2.57817,-0.66986 -4.02589,-0.77686 -1.44773,-0.10701 -7.47286,-0.5518 -13.3892,-0.98842 -26.63569,-1.96569 -46.19855,-3.72287 -55.17929,-4.95633 -9.07648,-1.2466 -23.216264,-4.54727 -32.270914,-7.53304 -2.300795,-0.75869 -4.307779,-1.26313 -4.459962,-1.12097 -0.892303,0.83352 -1.256809,61.39125 -0.415407,69.0144 0.563929,5.10924 0.582379,5.16056 2.192367,6.09785 5.285676,3.07717 10.705326,4.74163 18.220856,5.59594 3.33107,0.37864 15.59895,-0.19228 20.31872,-0.94554 z m 90.93263,-30.84829 c 0.94332,-0.6845 1.01809,-0.87749 0.54921,-1.41737 -1.14443,-1.31771 -1.53284,-2.6406 -1.8645,-6.35037 -0.51853,-5.79999 -1.12864,-11.81695 -1.58072,-15.58935 -0.22322,-1.86255 -0.76406,-6.43426 -1.20188,-10.15936 -0.43783,-3.7251 -0.97391,-7.66932 -1.1913,-8.76494 -0.21739,-1.09562 -0.47609,-3.33665 -0.5749,-4.98008 -0.16968,-2.82209 -0.23023,-2.98388 -1.09023,-2.9131 -0.50082,0.0412 -3.15161,0.36375 -5.89065,0.71675 -6.75979,0.87116 -32.39954,1.24565 -43.6255,0.63719 -12.12664,-0.65728 -21.54421,-0.97508 -21.3136,-0.71925 0.18619,0.20656 8.62651,1.49065 18.92316,2.87894 2.41036,0.32498 6.35458,0.88173 8.76494,1.23721 2.75044,0.40564 8.90763,0.75495 16.53386,0.93801 9.26057,0.22228 12.60066,0.43853 14.03985,0.90901 6.65166,2.17443 10.08672,6.92144 11.83964,16.3615 2.67439,14.4025 3.06232,23.19826 1.3553,30.72983 l -0.2662,1.1745 2.75077,-1.94836 c 1.51292,-1.0716 3.24216,-2.3049 3.84275,-2.74076 z m 5.44672,-4.09385 c 6.04845,-3.49271 18.98885,-17.49678 22.5058,-24.35574 l 0.6705,-1.30764 -2.50691,0.24762 c -1.62593,0.1606 -3.5046,0.0363 -5.34598,-0.35385 -9.13337,-1.93498 -13.83722,-8.97536 -13.1961,-19.75098 0.28524,-4.79424 2.23265,-9.95128 5.16448,-13.67636 0.47145,-0.59901 0.75711,-1.18917 0.63481,-1.31147 -0.12231,-0.12231 -1.27564,0.38647 -2.56296,1.13063 -1.28733,0.74415 -4.13342,2.28941 -6.32466,3.43391 -4.76522,2.48892 -5.48236,3.11265 -6.81316,5.92573 -0.87025,1.83956 -1.02216,2.71408 -1.02216,5.88435 0,2.04802 0.0913,3.87132 0.20278,4.05177 0.26561,0.42977 1.60595,10.69152 2.64119,20.22118 0.45228,4.16335 0.99841,8.98767 1.21362,10.72072 0.2152,1.73305 0.39128,4.11431 0.39128,5.29168 0,2.56306 0.87694,4.90394 1.8371,4.90394 0.37539,0 1.50506,-0.47497 2.51037,-1.05549 z m 25.11813,-29.60101 c 0.78995,-0.99739 2.1676,-2.0084 3.76549,-2.76337 3.0668,-1.449 4.99726,-3.58666 6.27211,-6.94535 0.82079,-2.16245 0.9315,-3.12069 0.90602,-7.84195 -0.0258,-4.78685 -0.14635,-5.70386 -1.09562,-8.33639 -0.58662,-1.62684 -1.06659,-3.52816 -1.06659,-4.22513 0,-0.69698 0.98606,-3.61794 2.19124,-6.49103 1.20518,-2.873096 2.19123,-5.507825 2.19123,-5.854964 0,-0.83367 -2.5066,-1.853447 -4.63485,-1.885622 -1.7701,-0.02677 -2.68835,0.437052 -13.42521,6.781186 -7.22356,4.26821 -12.41422,10.08464 -14.65906,16.42629 -1.26033,3.56041 -1.29199,10.263 -0.0643,13.61269 2.37187,6.47159 6.39276,9.01763 14.32366,9.06982 l 4.05019,0.0266 z M 119.6633,72.079374 c 2.25708,-0.85814 12.93382,-8.69277 12.93382,-9.490881 0,-0.897538 -11.72437,-2.836957 -17.21156,-2.8471 l -3.86495,-0.0071 -2.43948,3.432507 c -3.34539,4.707191 -3.45194,4.98735 -2.51053,6.60102 0.73286,1.256175 0.93597,1.343032 4.13566,1.76855 1.85073,0.246119 3.72353,0.539068 4.16177,0.650996 1.40682,0.359295 3.70225,0.307621 4.79527,-0.107944 z"
       id="path1"
       sodipodi:nodetypes="sssssssssssscsssssssssssssssssssscssssssscsssssssscssssssssssscssscssscsssssscsssssssssscsssssssssssssssssssssssssssssssssssssssssssssssssscssssssscscsssssssssscssssssssssssssssssssssssssssssssssssssscscssscssssssssssssscssssssssssssssssscsssscsssssssssssssssssssssssssssscsssscssssss" />
    <path
       style="fill:#ffffff;stroke:none;stroke-width:4.21805"
       d="m 107.41745,212.84605 c -6.07729,-0.56287 -11.593185,-2.29941 -14.608225,-4.59906 -2.245763,-1.7129 -6.305964,-6.44367 -5.888552,-6.86108 0.105949,-0.10595 2.210471,0.67976 4.676716,1.74603 20.330231,8.7896 56.069381,1.77305 99.945701,-19.62204 9.39247,-4.57998 12.00838,-6.50047 13.01697,-9.55656 1.42048,-4.30406 -0.48408,-26.74411 -2.63187,-31.00953 -1.29745,-2.57668 -4.05845,-5.2913 -6.02549,-5.92428 -0.94284,-0.30341 -8.61967,-1.07086 -17.05961,-1.70546 -48.22569,-3.62608 -59.49106,-4.99598 -75.61073,-9.19441 -11.294959,-2.94183 -16.461377,-4.69741 -16.461377,-5.59368 0,-0.74229 1.607061,-5.92623 1.955121,-6.30669 0.08721,-0.0953 0.765895,0.43401 1.50819,1.17631 1.926585,1.92658 7.015856,3.66939 13.516866,4.62881 3.09064,0.45612 17.04465,2.5656 31.00892,4.68774 31.16642,4.73633 38.3707,5.57723 47.9891,5.60141 13.60317,0.0342 17.67889,1.09845 21.05067,5.49681 2.14389,2.79662 3.16466,5.97925 4.67437,14.57407 2.28463,13.00646 1.96567,23.90166 -0.8201,28.01329 -2.28609,3.37411 -26.24144,16.64086 -41.00853,22.71099 -21.46376,8.82284 -43.51451,13.19267 -59.22814,11.73733 z"
       id="path15" />
    <path
       style="fill:#007cff;fill-opacity:1;stroke:none;stroke-width:4.21805"
       d="m 102.24681,203.66249 c -4.758723,-0.89817 -12.229348,-3.61503 -14.255757,-5.18443 -1.130441,-0.8755 -1.363665,-1.75955 -1.875406,-7.10883 -0.598079,-6.25179 -0.354595,-66.38747 0.271331,-67.01339 0.176173,-0.17618 2.908479,0.45836 6.07179,1.41008 20.328762,6.11613 31.310362,7.72176 76.619092,11.20257 11.96938,0.91954 22.81203,1.81598 24.09478,1.99209 2.8382,0.38966 4.88031,1.91171 6.30087,4.69625 1.5009,2.942 2.9315,13.47587 3.01471,22.19806 l 0.0704,7.37927 -2.23205,2.18023 c -1.57229,1.53578 -5.28346,3.62394 -12.55529,7.06446 -23.00387,10.88381 -41.84477,17.39369 -58.78925,20.31278 -8.74482,1.5065 -21.21523,1.9127 -26.73523,0.87086 z"
       id="path16" />
    <path
       style="fill:#000000;stroke:none;stroke-width:4.21805"
       d="m 119.29594,267.36517 c -5.84793,-2.22085 -9.20715,-4.98106 -14.14849,-11.62556 -3.48864,-4.69109 -6.930632,-10.40658 -6.516478,-10.82073 0.143831,-0.14384 0.940448,-0.003 1.770258,0.31211 2.49949,0.9503 5.60487,0.68755 7.25987,-0.61428 1.54575,-1.21589 12.20235,-16.77092 15.2528,-22.26393 0.93272,-1.67957 1.86528,-3.8701 2.07236,-4.86784 0.40222,-1.93794 0.60556,-2.03474 5.58872,-2.6604 3.56931,-0.44815 15.15663,-3.1898 21.39836,-5.06302 26.98943,-8.09987 65.02296,-30.03331 82.66022,-47.66907 6.9108,-6.9102 10.15187,-11.0323 13.69854,-17.42222 1.69498,-3.05378 2.90571,-4.48176 4.91826,-5.80078 5.23922,-3.43376 6.95838,-5.8189 8.10986,-11.2515 1.0765,-5.07884 0.76655,-9.79147 -1.07634,-16.36559 -0.70398,-2.51128 -0.65895,-2.73865 1.63848,-8.2745 1.32038,-3.181571 2.28634,-6.349783 2.19001,-7.182985 -0.22757,-1.968429 -3.62512,-3.659264 -7.4265,-3.695892 -2.53886,-0.02446 -3.84515,0.557684 -14.50834,6.465605 -6.44504,3.570862 -14.68816,8.060522 -18.31803,9.977022 -7.77968,4.10752 -9.23483,5.24086 -10.99911,8.56654 -1.16568,2.19734 -1.59888,2.5345 -3.65217,2.8424 -16.70563,2.50517 -58.28543,1.65588 -95.37362,-1.94805 -11.48192,-1.11573 -16.410141,-2.06979 -19.809452,-3.83496 l -1.953044,-1.01417 0.182506,-3.84448 c 0.345703,-7.28223 3.621761,-20.313116 7.13922,-28.397041 0.75486,-1.734834 1.01573,-1.983445 1.17106,-1.116026 0.71549,3.995316 0.78805,4.040219 8.50554,5.263629 l 3.60602,0.571639 3.64814,-2.31625 c 15.64626,-9.933986 24.00865,-14.489565 35.53294,-19.357264 14.31265,-6.045457 26.60908,-9.460402 38.42482,-10.671276 11.35206,-1.163356 10.88125,-1.061905 10.88125,-2.344688 0,-1.122713 -0.1844,-1.151235 -5.17492,-0.800437 -11.10275,0.780447 -22.43687,3.151008 -33.60697,7.028986 -12.71243,4.413439 -28.91809,12.1708 -39.6189,18.964872 -12.27951,7.7964 -10.33501,6.983627 -14.903,6.229238 -2.21424,-0.365677 -4.11696,-0.755928 -4.22826,-0.867224 -0.1113,-0.111301 -0.40641,-1.66958 -0.65581,-3.462849 -0.33262,-2.391693 -0.24585,-3.765436 0.32565,-5.155486 0.73796,-1.794903 0.83335,-1.845906 1.80606,-0.965614 1.14298,1.034384 8.39132,2.58831 11.98481,2.569348 3.07496,-0.01623 5.8573,-1.358523 11.25067,-5.427705 5.42008,-4.08933 7.53317,-6.076837 7.53317,-7.085455 0,-1.158493 -4.53315,-2.460229 -11.98063,-3.440342 -11.4334,-1.504675 -11.09757,-0.645987 -3.09957,-7.925465 7.94298,-7.229392 11.85045,-9.961506 20.78368,-14.53202 11.56894,-5.919019 22.47459,-9.579777 35.3641,-11.870863 9.56998,-1.701044 28.30336,-1.851948 38.17024,-0.307474 16.23804,2.541763 30.19242,7.02198 45.47803,14.601258 9.1829,4.553284 11.90954,6.236453 20.36747,12.572952 5.37087,4.023741 10.60374,8.116036 11.62859,9.093988 5.75361,5.490305 8.41887,18.941551 8.86588,44.745079 0.28975,16.72535 -0.10807,24.87556 -2.1245,43.52499 -1.8413,17.02985 -3.6505,25.021 -7.07326,31.24235 -1.68411,3.06111 -1.36793,2.9415 -10.24484,3.87569 l -3.69123,0.38846 -13.35793,9.86838 c -30.99973,22.90153 -58.07692,40.74129 -81.73762,53.85268 -15.70867,8.70484 -26.80081,13.79068 -39.53623,18.12768 -7.06187,2.4049 -7.9521,2.57571 -14.22932,2.73028 -5.92586,0.1459 -7.09497,0.0134 -10.16302,-1.15174 z m -0.35911,-10.5398 c 1.24604,-1.30436 7.17994,-8.66699 13.18643,-16.36141 6.00649,-7.69442 12.45548,-15.41061 14.33109,-17.14708 5.00921,-4.63765 9.73788,-6.69265 20.1174,-8.74265 4.75434,-0.93901 11.40642,-2.44854 14.78239,-3.35451 12.73167,-3.41666 37.36359,-11.70884 58.83681,-19.80704 7.09935,-2.67738 13.52305,-4.71189 17.01357,-5.38853 5.73049,-1.11086 6.86794,-1.5998 6.20755,-2.66834 -1.08323,-1.7527 -10.77491,0.71924 -28.2097,7.19513 -28.10153,10.43789 -54.24022,18.74672 -65.8455,20.93062 -10.1417,1.90849 -12.68562,2.61886 -17.19558,4.80181 -6.23483,3.01783 -8.81243,5.69606 -23.85034,24.78145 -13.72667,17.42122 -13.2777,16.8049 -12.80231,17.57409 0.57086,0.92367 1.06112,0.66431 3.42819,-1.81354 z M 300.05258,102.09739 c -0.4737,-9.963776 -4.08923,-32.331651 -5.80071,-35.886749 -2.06612,-4.291738 -11.82956,-11.175911 -20.75438,-14.633843 -4.56489,-1.768673 -8.29536,-2.507277 -16.46882,-3.260694 -3.18743,-0.293812 -6.02651,-0.765391 -6.30907,-1.047953 -0.74691,-0.746911 2.03122,-3.823884 3.86895,-4.285124 1.69587,-0.425637 2.93433,-1.285547 2.93433,-2.037416 0,-0.807931 -3.83968,-0.552687 -5.63251,0.374423 -1.8696,0.966811 -3.84844,3.836657 -3.85162,5.585887 -0.005,2.619808 1.13663,3.171037 7.58292,3.662169 3.34747,0.255038 7.9507,0.873187 10.2294,1.373664 10.75725,2.362644 23.76448,10.37409 26.36908,16.241314 1.21903,2.746029 3.3256,14.859703 4.63951,26.6791 1.20937,10.879062 1.23557,10.996782 2.39462,10.759872 0.79703,-0.16291 0.93018,-0.7508 0.7983,-3.52465 z"
       id="path7" />
    <path
       style="fill:#000000;stroke:none;stroke-width:4.21805"
       d="m 98.48925,236.78814 c -4.324028,-1.36097 -4.833094,-1.73286 -5.929001,-4.33141 -1.263846,-2.99675 -5.341593,-16.74089 -5.133478,-17.30251 0.09968,-0.26898 1.791774,0.48813 3.760217,1.68247 4.541957,2.75581 8.835432,4.38386 13.440402,5.0965 6.00057,0.92862 5.81749,0.4052 2.68753,7.68364 -2.53327,5.89088 -4.01123,8.42501 -4.86656,8.34427 -0.18262,-0.0172 -1.96421,-0.54507 -3.95911,-1.17296 z"
       id="path8" />
    <path
       style="fill:#000000;stroke:none;stroke-width:4.21805"
       d="m 212.0324,165.86929 c -0.0197,-16.1434 -2.50726,-27.60601 -7.0635,-32.54895 -4.00106,-4.34064 -5.48578,-4.71928 -20.98792,-5.35243 -10.36488,-0.42334 -16.67317,-1.00883 -26.2691,-2.43813 l -12.62856,-1.881 8.37019,0.31814 c 13.43934,0.51081 43.51122,0.2637 50.67409,-0.41641 3.62511,-0.3442 6.679,-0.53669 6.78643,-0.42775 0.28666,0.29066 3.48158,26.09428 4.51546,36.46889 0.48936,4.91051 1.24631,9.65732 1.68212,10.54847 0.4358,0.89114 0.79237,1.68368 0.79237,1.76119 0,0.15761 -5.50374,4.15171 -5.72092,4.15171 -0.076,0 -0.14382,-4.58268 -0.15066,-10.18373 z"
       id="path9" />
    <path
       style="fill:#000000;stroke:none;stroke-width:4.21805"
       d="m 219.84255,168.77544 c -0.19763,-0.31978 -1.2036,-8.05565 -2.23547,-17.19082 -1.03187,-9.13517 -2.13862,-18.22722 -2.45944,-20.20455 -1.18423,-7.29885 -0.49888,-12.36233 2.05526,-15.18462 0.90801,-1.00334 11.81774,-7.10396 12.704,-7.10396 0.24548,0 0.0425,0.44625 -0.45111,0.99166 -1.66341,1.83805 -3.6854,7.072 -4.32237,11.18856 -1.96987,12.73055 4.97422,21.97973 16.59,22.09706 l 4.00998,0.0405 -1.05697,1.67404 c -4.51708,7.15421 -15.87119,19.41335 -20.88306,22.54764 -3.02484,1.89165 -3.41855,2.0057 -3.95082,1.14448 z"
       id="path10" />
    <path
       style="fill:#000000;stroke:none;stroke-width:4.21805"
       d="m 99.189578,241.88155 c -1.86121,-0.93005 -3.536352,-2.08799 -3.722539,-2.57318 -0.232532,-0.60597 -0.09217,-0.78764 0.448314,-0.58024 0.43276,0.16606 2.314451,0.60248 4.181537,0.9698 4.71959,0.92853 5.42661,0.35565 8.65278,-7.01095 2.91269,-6.65078 4.03273,-10.29466 3.55057,-11.55116 -0.22776,-0.59354 -1.5472,-0.96587 -4.41732,-1.24653 -9.789696,-0.95729 -21.047973,-7.13408 -21.909505,-12.02053 l -0.342754,-1.94403 2.662709,2.60545 c 5.431309,5.31452 11.210271,7.06701 24.84372,7.53396 10.56722,0.36193 10.37639,0.25068 7.8575,4.58088 -1.61578,2.77768 -12.52467,19.30044 -13.6958,20.74385 -0.87305,1.07604 -2.87189,2.1837 -3.94062,2.1837 -0.43152,0 -2.30738,-0.76096 -4.168592,-1.69102 z"
       id="path13" />
    <path
       style="fill:#000000;stroke:none;stroke-width:4.21805"
       d="m 237.40027,139.57854 c -3.61625,-0.97517 -5.90457,-2.80576 -7.65394,-6.12297 -1.37853,-2.614 -1.51763,-3.42283 -1.50302,-8.73972 0.0151,-5.48145 0.13083,-6.08067 1.7959,-9.29585 3.44512,-6.65238 9.17974,-11.59731 20.83513,-17.966007 4.44985,-2.431478 7.28201,-2.91773 9.1288,-1.567323 0.97408,0.712263 0.9384,0.954797 -0.80049,5.44062 -2.82165,7.27909 -2.83298,7.3587 -1.6406,11.52826 1.22793,4.29384 1.45418,12.42449 0.43993,15.80976 -0.88257,2.94574 -3.36595,5.77409 -6.62942,7.55029 -1.51746,0.8259 -3.14571,2.09181 -3.61833,2.81313 -0.75514,1.15249 -1.28056,1.30691 -4.33403,1.27381 -1.9111,-0.0207 -4.62006,-0.34651 -6.01993,-0.724 z"
       id="path14" />
    <path
       style="fill:#000000;stroke:none;stroke-width:4.21805"
       d="m 196.69949,242.97026 c 0.46036,-0.29517 5.60803,-3.49821 11.43927,-7.11787 18.91092,-11.73869 38.89501,-25.44557 60.02488,-41.17042 l 11.47778,-8.54176 4.70459,-0.34082 4.70459,-0.34083 -3.39839,3.24891 c -2.08002,1.98854 -7.2754,5.61632 -13.3923,9.35146 -5.49666,3.35641 -20.91702,12.87989 -34.26747,21.16331 -23.12822,14.35012 -40.27826,24.38856 -41.54493,24.31751 -0.32177,-0.018 -0.20838,-0.27431 0.25198,-0.56949 z"
       id="path17" />
    <path
       style="fill:#000000;stroke:none;stroke-width:4.21805"
       d="m 111.65179,71.440648 c -3.97466,-0.718158 -5.68107,-1.940684 -5.06131,-3.626087 0.17253,-0.469167 1.37082,-2.416466 2.66288,-4.32733 l 2.34919,-3.474299 3.34808,-0.0022 c 5.27648,-0.0035 17.01939,1.852848 17.01939,2.690482 0,0.558958 -9.11974,7.262875 -11.601,8.527897 -2.29289,1.168979 -3.2851,1.193059 -8.71723,0.211564 z"
       id="path18" />
  </g>
</svg>
