<?xml version="1.0" encoding="UTF-8" standalone="no"?>
<!-- Created with Inkscape (http://www.inkscape.org/) -->

<svg
   version="1.1"
   width="21.548mm"
   height="19.999592mm"
   id="svg2"
   sodipodi:docname="corazon.svg"
   inkscape:version="1.4 (1:1.4+202410161351+e7c3feb100)"
   xmlns:inkscape="http://www.inkscape.org/namespaces/inkscape"
   xmlns:sodipodi="http://sodipodi.sourceforge.net/DTD/sodipodi-0.dtd"
   xmlns="http://www.w3.org/2000/svg"
   xmlns:svg="http://www.w3.org/2000/svg"
   xmlns:rdf="http://www.w3.org/1999/02/22-rdf-syntax-ns#"
   xmlns:cc="http://creativecommons.org/ns#"
   xmlns:dc="http://purl.org/dc/elements/1.1/"
   xmlns:inkstitch="http://inkstitch.org/namespace">
  <sodipodi:namedview
     id="namedview1"
     pagecolor="#ffffff"
     bordercolor="#000000"
     borderopacity="0.25"
     inkscape:showpageshadow="2"
     inkscape:pageopacity="0.0"
     inkscape:pagecheckerboard="0"
     inkscape:deskcolor="#d1d1d1"
     inkscape:zoom="2.9916056"
     inkscape:cx="54.987195"
     inkscape:cy="42.786389"
     inkscape:window-width="1247"
     inkscape:window-height="758"
     inkscape:window-x="0"
     inkscape:window-y="0"
     inkscape:window-maximized="1"
     inkscape:current-layer="svg2"
     inkscape:document-units="mm"
     showgrid="false" />
  <metadata
     id="metadata10">
    <rdf:RDF>
      <cc:Work
         rdf:about="">
        <dc:format>image/svg+xml</dc:format>
        <dc:type
           rdf:resource="http://purl.org/dc/dcmitype/StillImage" />
      </cc:Work>
    </rdf:RDF>
    <inkstitch:min_stitch_len_mm>0.1</inkstitch:min_stitch_len_mm>
    <inkstitch:collapse_len_mm>3</inkstitch:collapse_len_mm>
    <inkstitch:inkstitch_svg_version>2</inkstitch:inkstitch_svg_version>
  </metadata>
  <defs
     id="defs8" />
  <path
     d="M 40.679614,13.419015 C 36.690258,6.7700888 30.041332,2.1158404 22.062619,2.1158404 c -11.303175,0 -19.9467786,8.6436036 -19.9467786,19.9467806 0,21.941455 11.9680666,25.265918 38.5637736,50.53184 26.595701,-25.265922 38.563768,-28.590385 38.563768,-50.53184 0,-11.303177 -8.643604,-19.9467806 -19.946776,-19.9467806 -7.978711,0 -14.627638,4.6542484 -18.616992,11.3031746 z"
     id="path4"
     style="display:inline;fill:#ff0707;stroke-width:0.664891" />
  <path
     id="path3566"
     style="stroke:#ff0000;stroke-width:1px;fill:none"
     d="M 38.1175 13.4064 L 37.374 12.3062 L 35.6779 10.3127 L 33.7931 8.55783 L 31.737 7.06812 L 29.5255 5.86777 L 27.1711 4.97997 L 24.6822 4.42786 L 22.0363 4.23532 L 20.1795 4.32422 L 18.3677 4.58812 L 16.6335 5.01697 L 14.983 5.60226 L 13.4225 6.33582 L 11.9586 7.20981 L 10.5983 8.21661 L 9.34846 9.34846 L 8.21661 10.5983 L 7.20981 11.9586 L 6.33582 13.4225 L 5.60226 14.983 L 5.01697 16.6335 L 4.58812 18.3677 L 4.32422 20.1795 L 4.23347 22.0751 L 4.36796 25.8034 L 4.77013 29.1403 L 5.43588 32.1362 L 6.3656 34.8661 L 7.56735 37.4087 L 9.05687 39.8406 L 10.8531 42.2303 L 12.972 44.6379 L 15.4243 47.1181 L 18.2108 49.7196 L 24.8281 55.5336 L 32.7979 62.4923 L 40.7261 69.7658 L 48.5613 62.4923 L 56.5312 55.5336 L 63.1484 49.7196 L 65.9349 47.1181 L 68.3872 44.6379 L 70.5061 42.2303 L 72.3023 39.8406 L 73.7919 37.4087 L 74.9936 34.8661 L 75.9233 32.1362 L 76.5891 29.1403 L 76.9912 25.8034 L 77.1257 22.075 L 77.0351 20.1795 L 76.7711 18.3678 L 76.3422 16.6335 L 75.7569 14.983 L 75.0234 13.4225 L 74.1494 11.9586 L 73.1427 10.5983 L 72.0108 9.34849 L 70.7609 8.21661 L 69.4006 7.20981 L 67.9367 6.33582 L 66.3762 5.60226 L 64.7257 5.01697 L 62.9915 4.58812 L 61.1797 4.32422 L 59.3229 4.23532 L 56.677 4.42786 L 54.1881 4.97997 L 51.8337 5.86777 L 49.6222 7.06812 L 47.5661 8.55783 L 45.6813 10.3127 L 43.9852 12.3062 L 40.6795 17.1981 Z M 41.6237 11.037 L 40.749 9.74259 L 38.7415 7.38313 L 36.4863 5.28357 L 33.9972 3.48008 L 31.2895 2.01043 L 28.3819 0.914031 L 25.2972 0.229743 L 22.0889 -0.00372176 L 19.7723 0.107182 L 17.5529 0.430478 L 15.4155 0.959027 L 13.3718 1.68374 L 11.4329 2.59518 L 9.60957 3.68379 L 7.91274 4.93959 L 6.35254 6.35254 L 4.93959 7.91274 L 3.68379 9.60957 L 2.59518 11.4329 L 1.68374 13.3718 L 0.959027 15.4155 L 0.430478 17.5529 L 0.107182 19.7723 L -0.00186624 22.0501 L 0.145437 26.1334 L 0.593868 29.8541 L 1.35532 33.2808 L 2.4372 36.4575 L 3.83925 39.4239 L 5.55333 42.2224 L 7.56854 44.9035 L 9.87657 47.5259 L 12.4747 50.1535 L 15.3696 52.8564 L 22.0399 58.717 L 29.9755 65.6457 L 40.6796 75.4659 L 43.1748 73.1768 L 51.3837 65.6457 L 59.3194 58.717 L 65.9896 52.8564 L 68.8845 50.1535 L 71.4826 47.5259 L 73.7907 44.9035 L 75.8059 42.2224 L 77.5199 39.4239 L 78.922 36.4575 L 80.0039 33.2808 L 80.7653 29.8541 L 81.2138 26.1334 L 81.3611 22.0502 L 81.2521 19.7723 L 80.9287 17.5528 L 80.4002 15.4155 L 79.6755 13.3718 L 78.764 11.4329 L 77.6754 9.60961 L 76.4197 7.91274 L 75.0066 6.35251 L 73.4465 4.93959 L 71.7496 3.68379 L 69.9263 2.59518 L 67.9874 1.68374 L 65.9437 0.959027 L 63.8063 0.430478 L 61.5869 0.107182 L 59.2703 -0.00372176 L 56.062 0.229743 L 52.9773 0.914031 L 50.0697 2.01043 L 47.362 3.48008 L 44.8729 5.28357 L 42.6177 7.38313 L 40.6102 9.74262 L 40.3293 10.1583 M 40.3735 8.64828 L 36.5059 11.9389 M 33.302 2.62125 L 30.8796 7.08424 M 23.1426 -0.351331 L 22.7741 4.71329 M 12.5177 1.61765 L 14.678 6.21323 M 4.10986 8.32252 L 8.19161 11.3434 M -0.0945128 18.2212 L 4.93047 18.9532 M -0.142576 27.2802 L 4.89896 26.6726 M 2.90589 38.4394 L 7.49693 36.2695 M 8.76188 46.8999 L 12.5738 43.5449 M 19.475 57.0267 L 22.8267 53.2119 M 33.8263 69.7528 L 37.2592 66.0109 M 47.0046 70.2374 L 43.5717 66.4956 M 55.9105 62.2551 L 52.5707 58.4299 M 66.8077 52.6715 L 63.3422 48.9598 M 74.5894 44.5451 L 70.5302 41.4941 M 80.077 34.3787 L 75.2701 32.7417 M 81.7074 24.1865 L 76.6327 24.0034 M 79.7132 12.4573 L 75.1176 14.6176 M 72.983 4.07016 L 69.9622 8.15191 M 63.0719 -0.104132 L 62.34 4.92085 M 51.1845 1.13779 L 52.9762 5.88922 M 43.3148 6.15598 L 46.775 9.87259"
     inkstitch:satin_column="true" />
</svg>
