<?xml version="1.0" encoding="UTF-8" standalone="no"?>
<!-- Created with Inkscape (http://www.inkscape.org/) -->

<svg
   version="1.1"
   id="svg1"
   width="72.153mm"
   height="74.999756mm"
   viewBox="0 0 272.70426 283.46366"
   sodipodi:docname="corazon-flores.svg"
   inkscape:version="1.3.2 (091e20e, 2023-11-25, custom)"
   xmlns:inkscape="http://www.inkscape.org/namespaces/inkscape"
   xmlns:sodipodi="http://sodipodi.sourceforge.net/DTD/sodipodi-0.dtd"
   xmlns="http://www.w3.org/2000/svg"
   xmlns:svg="http://www.w3.org/2000/svg"
   xmlns:inkstitch="http://inkstitch.org/namespace">
  <metadata
     id="metadata1">
    <inkstitch:min_stitch_len_mm>0</inkstitch:min_stitch_len_mm>
    <inkstitch:collapse_len_mm>3</inkstitch:collapse_len_mm>
    <inkstitch:inkstitch_svg_version>1</inkstitch:inkstitch_svg_version>
  </metadata>
  <defs
     id="defs1" />
  <sodipodi:namedview
     id="namedview1"
     pagecolor="#ffffff"
     bordercolor="#000000"
     borderopacity="0.25"
     inkscape:showpageshadow="2"
     inkscape:pageopacity="0.0"
     inkscape:pagecheckerboard="0"
     inkscape:deskcolor="#d1d1d1"
     showgrid="false"
     inkscape:zoom="2.3406678"
     inkscape:cx="148.88914"
     inkscape:cy="142.05348"
     inkscape:window-width="1857"
     inkscape:window-height="1057"
     inkscape:window-x="55"
     inkscape:window-y="-8"
     inkscape:window-maximized="1"
     inkscape:current-layer="svg1"
     inkscape:document-units="mm" />
  <g
     inkscape:groupmode="layer"
     inkscape:label="Image"
     id="g1">
    <path
       style="fill:#000000;stroke-width:0.277381"
       d="m 166.38916,257.14897 c -1.42389,-1.14478 -4.41961,-3.29699 -6.65715,-4.78269 -2.23754,-1.4857 -5.00708,-3.33581 -6.15454,-4.11136 -1.14746,-0.77555 -3.87027,-2.49187 -6.05069,-3.81406 -2.18043,-1.32218 -4.98624,-3.3302 -6.23514,-4.46226 -1.24891,-1.13206 -3.10288,-2.61638 -4.11994,-3.29849 -1.01707,-0.68212 -3.95445,-2.71443 -6.52752,-4.51626 l -4.67831,-3.27605 -4.3828,2.93667 c -3.6858,2.46965 -18.52184,12.11381 -21.58042,14.02833 -0.508531,0.31832 -3.808856,2.46658 -7.334055,4.77391 -6.333677,4.14555 -8.269461,5.08783 -3.465414,1.68685 1.362922,-0.96487 3.742046,-2.68505 5.286942,-3.82261 1.544892,-1.13757 6.038467,-4.10552 9.985717,-6.59543 9.31357,-5.87499 13.51709,-8.61214 17.28696,-11.25657 2.59349,-1.81924 2.99677,-2.23744 2.60861,-2.70514 -0.25252,-0.30427 -3.38397,-2.48428 -6.95879,-4.84447 -8.32316,-5.49519 -13.61193,-9.49597 -18.704415,-14.14928 -2.237538,-2.04457 -6.398252,-5.69551 -9.246031,-8.1132 -11.445093,-9.71658 -31.374545,-30.47443 -40.238391,-41.91095 -6.576633,-8.48546 -8.368681,-10.8787 -11.70116,-15.62663 -4.603806,-6.55925 -5.84458,-8.61571 -9.595295,-15.90318 -5.862417,-11.39042 -7.570796,-16.06967 -9.992062,-27.36825 -2.284597,-10.660836 -3.14038,-18.102384 -3.147369,-27.368255 -0.01006,-13.338279 1.767238,-20.94126 6.840066,-29.260656 0.758683,-1.244233 1.827978,-3.210409 2.376212,-4.369282 2.28219,-4.824154 9.098818,-11.821335 16.457781,-16.893703 5.604449,-3.863021 6.517407,-4.338411 11.49989,-5.98815 7.266149,-2.405877 9.045196,-2.641655 19.747948,-2.617202 14.805296,0.03383 20.85617,1.312695 30.881746,6.526942 7.41834,3.858238 11.68213,6.757496 15.35676,10.442175 5.36245,5.377129 8.38137,10.362197 11.13488,18.386803 l 1.43137,4.171485 0.18824,-1.867958 c 0.16612,-1.648423 0.78515,-2.76092 5.26713,-9.465805 4.6347,-6.933348 5.50879,-8.015294 9.99433,-12.37093 4.03837,-3.921406 5.70522,-5.246713 9.3416,-7.427451 5.95605,-3.571835 8.13983,-4.610072 12.93251,-6.148502 6.01894,-1.932054 7.99213,-2.379088 13.49921,-3.058295 9.06062,-1.117478 18.45678,-0.178535 26.33687,2.631804 5.05172,1.801633 6.41034,2.50431 12.00495,6.208933 6.09196,4.033954 13.16079,10.787043 16.13062,15.410109 2.66246,4.144601 5.39257,9.479868 5.67753,11.095238 0.20504,1.162276 0.16999,1.237801 -0.34321,0.739681 -0.31436,-0.305119 -1.84558,-2.967977 -3.4027,-5.91746 -3.28281,-6.218234 -4.55876,-8.007155 -8.55136,-11.989258 -4.95676,-4.943719 -7.55368,-6.968534 -12.304,-9.593373 -9.83877,-5.436517 -22.13375,-8.121062 -33.24876,-7.259694 -8.08957,0.626909 -11.80571,1.402159 -18.0182,3.758901 -4.06173,1.540842 -4.46932,1.765564 -10.4171,5.743371 -8.23028,5.504322 -14.47902,12.24441 -22.20837,23.954635 -0.66825,1.012426 -1.215,2.198707 -1.215,2.636184 0,0.437474 -0.24964,1.392888 -0.55476,2.12314 -0.30512,0.730253 -0.55476,1.731346 -0.55476,2.224645 0,0.493303 -0.24965,0.992711 -0.55477,1.109796 -0.39251,0.150623 -0.55476,-0.03216 -0.55476,-0.624975 0,-1.026762 -2.51352,-8.494917 -3.87894,-11.525087 -2.53026,-5.615197 -8.18146,-12.47771 -13.57952,-16.49022 -4.32444,-3.214454 -15.141774,-8.533007 -20.484441,-10.071567 -5.448505,-1.569041 -7.699277,-1.94713 -14.888198,-2.500948 -8.78329,-0.676645 -16.649439,0.2731 -25.205404,3.043257 -4.526929,1.465679 -5.602352,2.02604 -10.703082,5.576963 -6.688118,4.656 -14.03226,11.870182 -15.199825,14.930856 -0.163476,0.428539 -0.897053,1.716838 -1.630171,2.862885 -2.504816,3.915656 -5.365938,10.097631 -6.291068,13.592992 -2.971142,11.22569 -2.760754,28.847374 0.529424,44.343529 2.440891,11.496157 3.686661,15.009347 9.345002,26.353747 4.774961,9.57332 9.057337,16.33068 16.326928,25.76301 2.260114,2.93252 5.024656,6.52646 6.143425,7.98655 1.909596,2.49217 3.654844,4.58402 10.303698,12.34996 5.084765,5.93907 23.42972,24.0602 28.879298,28.52695 1.107671,0.9079 5.018742,4.28454 8.691269,7.50363 7.253345,6.3578 13.336725,11.10132 17.402715,13.56977 1.42389,0.86444 4.29191,2.74425 6.37337,4.17735 4.41652,3.0408 3.39204,3.19345 9.9036,-1.4756 8.14927,-5.84335 8.42682,-6.08719 9.20109,-8.08382 0.8974,-2.31414 0.92008,-7.31004 0.0512,-11.26678 -1.52841,-6.95976 -0.12139,-14.28918 3.86939,-20.15635 2.29128,-3.3686 4.0903,-7.21626 5.01725,-10.73064 0.53576,-2.03125 1.10934,-3.83586 1.27462,-4.01026 1.0824,-1.14207 2.67241,7.98177 2.73003,15.6655 l 0.043,5.73254 -1.60999,4.61922 c -2.01816,5.79031 -4.78477,11.36019 -8.3864,16.88399 -1.53844,2.3595 -2.73867,4.3485 -2.66717,4.41999 0.0715,0.0715 1.78504,-1.12783 3.80789,-2.66518 2.02284,-1.53735 4.89599,-3.71966 6.38476,-4.84959 1.48878,-1.12993 2.96972,-2.45557 3.29098,-2.94587 0.32125,-0.4903 0.73797,-2.33924 0.92604,-4.10875 0.58192,-5.47532 1.32406,-9.30512 2.11556,-10.9173 0.84043,-1.71185 6.83295,-8.3378 7.21025,-7.97241 0.13107,0.12692 -0.0969,0.79891 -0.50661,1.4933 -0.4097,0.69439 -0.91852,2.50447 -1.13072,4.0224 -1.13642,8.12928 -1.45003,8.86106 -6.80315,15.8748 -0.4824,0.63203 0.79985,-0.2757 4.39555,-3.11173 1.42389,-1.12306 3.78673,-2.91786 5.25076,-3.98843 2.35928,-1.72523 2.72605,-2.1594 3.22642,-3.81931 0.76867,-2.54993 2.36891,-4.6432 4.51952,-5.91198 l 1.79695,-1.06013 -1.62422,-0.28268 c -4.36209,-0.75917 -9.2015,-4.27741 -11.03308,-8.02102 -0.88125,-1.80122 -1.02831,-2.58745 -1.10667,-5.91677 -0.0572,-2.42807 -0.26302,-4.05211 -0.56003,-4.41782 -0.39369,-0.48477 -0.37335,-0.54229 0.12576,-0.35562 0.47369,0.17715 0.68832,-0.19244 1.04982,-1.8078 0.60942,-2.72319 3.34497,-8.10462 5.17891,-10.1881 4.03911,-4.58867 10.6012,-6.32812 15.13916,-4.01302 1.51874,0.7748 1.55601,0.77687 1.17521,0.0653 -0.2163,-0.40416 -0.39314,-1.95239 -0.39298,-3.4405 2.4e-4,-2.21198 0.19318,-3.11056 1.05741,-4.92471 0.58142,-1.22048 1.41343,-2.5361 1.84891,-2.9236 0.43549,-0.38749 0.7918,-0.84517 0.7918,-1.01706 0,-0.17189 -1.05534,-0.31252 -2.34519,-0.31252 -4.72108,0 -7.33514,-1.42412 -10.0544,-5.47759 -2.77218,-4.13235 -2.35931,-5.83944 2.77893,-11.49002 2.82579,-3.10755 3.83949,-3.95286 6.04556,-5.04129 1.69695,-0.83724 3.3823,-1.37093 4.68462,-1.48345 l 2.03413,-0.17575 -2.40397,0.67139 c -4.13129,1.1538 -5.91312,2.22417 -8.99548,5.40368 -3.38487,3.49157 -4.78604,5.27686 -3.86373,4.92294 0.33106,-0.12704 1.23785,-0.32191 2.01509,-0.43304 1.03576,-0.1481 0.87097,-0.0474 -0.61703,0.37713 -1.11662,0.31854 -2.15425,0.77418 -2.30585,1.01251 -0.1516,0.23833 -0.27819,1.18404 -0.2813,2.10157 -0.005,1.36592 0.2931,2.11359 1.64305,4.12589 1.35769,2.02384 2.02685,2.64334 3.79087,3.50955 2.09128,1.02689 2.28711,1.05188 8.24454,1.05188 7.02225,0 9.54058,-0.56784 13.56056,-3.05766 l 2.2804,-1.41239 -3.92126,-0.46574 c -4.27235,-0.50744 -6.92547,-1.44038 -8.27736,-2.91062 l -0.86853,-0.94457 1.47937,0.91258 c 2.2201,1.36953 3.71423,1.77493 7.38819,2.00464 l 3.3372,0.20865 -2.21905,-1.09113 c -1.22047,-0.60012 -2.5112,-1.41993 -2.86829,-1.82181 -0.50041,-0.56319 -0.1054,-0.45698 1.72314,0.46332 2.37573,1.1957 5.73063,1.93793 6.52906,1.44448 0.25329,-0.15655 -0.44989,-0.71053 -1.7397,-1.37058 -2.7243,-1.39414 -4.03644,-2.51499 -7.62441,-6.51289 -3.92683,-4.37548 -4.82346,-6.26625 -4.81698,-10.15787 0.006,-3.59779 0.77769,-6.83164 2.41836,-10.13424 2.80608,-5.648509 7.29446,-8.004572 13.58278,-7.129945 3.06774,0.426681 5.09326,1.317066 7.01181,3.08226 1.42961,1.315345 1.53267,1.544505 -1.55304,-3.453313 -2.46453,-3.991711 -4.98428,-10.110419 -6.21622,-15.094802 -1.13152,-4.578139 -2.6001,-14.426022 -2.18917,-14.679992 0.13408,-0.08287 0.50406,0.383096 0.82217,1.035477 0.31811,0.652378 1.94675,2.767216 3.61922,4.699635 5.28731,6.109146 6.42437,10.001197 5.59726,19.15881 -0.42028,4.653137 -0.40506,5.030151 0.2444,6.055897 l 0.69257,1.093846 0.24342,-3.815785 c 0.13389,-2.098681 0.49117,-4.897569 0.79397,-6.219752 0.71685,-3.130152 3.96415,-12.944445 4.28299,-12.944445 0.13558,0 0.33967,0.707321 0.45356,1.571826 0.11388,0.864505 0.38799,2.570398 0.60912,3.790874 0.66961,3.695666 0.0407,5.899452 -2.58592,9.061109 -2.05908,2.47854 -2.942,4.483985 -2.942,6.682409 v 1.90394 l 1.69347,-1.883544 c 1.29248,-1.437549 2.14031,-2.016243 3.58062,-2.443967 2.52872,-0.750954 3.17772,-0.711807 5.2037,0.313876 0.94984,0.480867 1.72697,0.751472 1.72697,0.601345 0,-0.150127 -0.40957,-1.00575 -0.91015,-1.901388 -2.63834,-4.720511 -3.80078,-9.658371 -4.12247,-17.511559 -0.19528,-4.767429 -0.11042,-6.223782 0.60345,-10.355554 0.45688,-2.644367 0.94583,-5.556867 1.08655,-6.472224 0.27362,-1.779831 0.45808,-1.59876 1.13031,1.109524 0.2272,0.915357 1.2187,3.078929 2.20334,4.807938 2.27644,3.99737 2.72658,5.644056 2.72972,9.985714 0.002,3.06435 -0.35274,5.55748 -1.84293,12.944443 -0.10258,0.508533 0.31341,-0.07397 0.92443,-1.294443 1.40471,-2.80583 2.87538,-4.307119 5.84747,-5.969207 1.6685,-0.933077 2.61847,-1.251987 3.25417,-1.09244 2.14233,0.537692 4.96255,6.429787 5.27759,11.02612 l 0.19824,2.89227 0.8589,-1.263989 c 1.071,-1.576125 2.66706,-2.558611 5.44372,-3.351006 3.50369,-0.999872 5.13739,-0.116505 7.12374,3.851926 1.34717,2.691444 1.46724,6.71881 0.27747,9.307196 -0.7497,1.631 -2.83402,4.0158 -3.50983,4.0158 -0.71882,0 -0.22218,0.62194 1.18544,1.48451 2.87658,1.76275 4.41812,4.74978 4.48528,8.69111 0.0513,3.01197 -0.7308,4.4619 -2.93209,5.43564 -2.3412,1.03562 -5.53845,0.77127 -8.486,-0.70164 l -2.16924,-1.08398 0.12186,1.13122 c 0.16775,1.55727 -1.29295,4.26043 -2.8758,5.3219 -1.71429,1.14963 -4.7949,0.99918 -6.03189,-0.29458 l -0.81017,-0.84735 0.9246,0.23739 c 2.4592,0.63137 3.91063,0.62293 5.14642,-0.0299 2.48937,-1.31516 3.58829,-5.68049 1.73558,-6.89443 -1.89528,-1.24183 -3.60507,-3.52554 -4.9885,-6.66297 l -1.44376,-3.27423 -0.25346,1.79486 c -0.1394,0.98718 -0.48531,2.29415 -0.7687,2.90439 -0.50487,1.0872 -0.51146,1.07232 -0.32738,-0.73968 0.10332,-1.01706 0.27479,-2.55499 0.38106,-3.41762 l 0.1932,-1.56842 -2.14873,1.47654 c -1.18181,0.81209 -3.02249,1.68209 -4.09041,1.93332 -1.06791,0.25123 -1.94166,0.55039 -1.94166,0.6648 0,0.11441 0.57243,0.41502 1.27207,0.66801 1.99999,0.72321 4.80483,3.48556 5.77511,5.68764 2.69239,6.11045 -1.58596,13.39254 -9.51199,16.19017 -2.22237,0.78442 -2.6638,1.06104 -2.24625,1.40757 0.55369,0.45952 1.28713,0.22149 7.48487,-2.42916 7.55714,-3.23204 11.98664,-4.38966 18.67698,-4.88112 3.46357,-0.25443 5.14576,-0.182 9.06111,0.39011 2.64436,0.38639 5.43204,0.70329 6.19484,0.70423 0.7628,8.3e-4 1.3869,0.16813 1.3869,0.37155 0,0.20341 -0.27436,0.36984 -0.6097,0.36984 -0.33534,0 -2.00261,0.75927 -3.70505,1.68727 -1.7952,0.97857 -4.60717,2.09591 -6.69466,2.66015 -3.4355,0.9286 -3.97806,0.96971 -11.92074,0.90331 -5.77922,-0.0483 -9.28183,0.0913 -11.46508,0.45711 -1.72901,0.28967 -4.05901,0.63738 -5.17778,0.77268 -1.11877,0.1353 -2.09199,0.30212 -2.16271,0.37071 -0.0707,0.0686 0.24384,1.09316 0.69902,2.27682 1.14783,2.98485 1.16198,7.2777 0.0335,10.16546 -1.03324,2.64403 -1.90131,3.7481 -3.56928,4.5396 -2.0193,0.95822 -2.26467,0.51613 -0.43092,-0.77642 2.28838,-1.613 3.71449,-4.59377 3.89433,-8.13972 0.14444,-2.84785 -0.17579,-4.29011 -1.68578,-7.59246 l -0.96316,-2.10643 -3.17774,-0.007 c -3.33042,-0.007 -7.63618,-0.69924 -10.29718,-1.65509 -0.8645,-0.31055 -1.57183,-0.50767 -1.57183,-0.43807 0,0.0696 1.13709,1.61402 2.52686,3.43204 2.9222,3.82264 3.30952,4.39738 2.71638,4.0308 -0.23027,-0.14232 -1.9414,-2.17055 -3.8025,-4.50719 l -3.38382,-4.24843 -0.54792,1.02901 c -0.42558,0.79924 -0.50674,1.93743 -0.3635,5.09726 0.16807,3.70733 0.14172,3.93701 -0.29705,2.58889 -0.26482,-0.81365 -0.60181,-2.44434 -0.74888,-3.62375 l -0.26739,-2.14439 -0.96728,1.66848 c -1.23031,2.1222 -4.12229,5.46103 -5.68164,6.55954 -0.77607,0.54672 -0.25693,-0.19419 1.46261,-2.08741 2.26683,-2.49578 4.98274,-6.47485 4.41941,-6.47485 -0.0951,0 -1.37968,0.744 -2.85457,1.65333 -3.28581,2.02584 -6.21309,3.03051 -10.33293,3.54639 -3.67481,0.46015 -4.28035,0.887 -5.92377,4.17578 -2.08877,4.18 -1.2783,9.12073 1.834,11.18035 1.72058,1.13863 1.77016,1.61428 0.077,0.73872 l -1.12279,-0.58062 0.94146,2.05639 c 1.38021,3.01479 0.79147,2.86498 -0.82425,-0.20974 -1.66548,-3.16941 -3.18357,-4.42478 -6.07016,-5.01963 -2.57706,-0.53107 -5.25673,-0.13927 -7.77488,1.13677 -2.19446,1.11202 -2.88927,1.88678 -1.95965,2.18516 0.36668,0.11769 1.66527,1.14086 2.88574,2.2737 l 2.21905,2.05972 -2.3215,-1.86509 c -3.7378,-3.00296 -3.70228,-2.99563 -5.33952,-1.10221 -1.86032,2.1514 -4.25777,7.04117 -4.89595,9.98564 l -0.5127,2.3655 1.42921,1.32668 c 0.78607,0.72967 2.72817,2.21172 4.31579,3.29345 1.58762,1.08173 3.053,2.13118 3.25641,2.3321 0.74716,0.73804 -2.90667,-1.55248 -5.26567,-3.30095 -1.33723,-0.99114 -2.76284,-2.04674 -3.16803,-2.34577 -0.72512,-0.53515 -0.73382,-0.48852 -0.55326,2.96343 0.22559,4.31288 1.04702,6.35054 3.53726,8.77456 2.78869,2.71456 8.09284,4.91797 10.65822,4.42757 0.49163,-0.094 0.89386,-0.002 0.89386,0.205 0,0.54954 10.59304,0.0541 14.42381,-0.67463 3.50306,-0.66637 4.35276,-1.12411 2.73485,-1.47328 -2.40212,-0.51842 -4.48166,-1.50058 -7.61567,-3.59689 -1.81569,-1.2145 -3.22363,-2.28581 -3.12875,-2.38069 0.0949,-0.0949 1.90376,0.8374 4.01973,2.07174 3.43987,2.00662 7.49622,3.67157 7.91787,3.24993 0.0862,-0.0862 -0.39943,-0.97123 -1.07908,-1.96683 -1.83856,-2.69327 -4.92934,-8.56928 -6.03097,-11.46575 -0.88489,-2.32659 -0.95161,-2.87215 -0.76403,-6.24761 0.38719,-6.96705 1.52353,-10.03164 5.00615,-13.50103 4.20649,-4.19051 9.96529,-7.40482 13.75773,-7.67895 2.75042,-0.1988 3.52096,0.0917 7.254,2.73437 1.25693,0.88981 2.47336,1.61784 2.70318,1.61784 0.22982,0 0.32947,0.14301 0.22144,0.31781 -0.10803,0.1748 0.29694,0.96533 0.89995,1.75675 2.76213,3.62517 3.67815,11.42848 1.92612,16.40801 -0.10919,0.31034 0.3407,0.065 0.99975,-0.54527 1.46116,-1.35293 2.86374,-3.74788 5.73976,-9.80079 4.37539,-9.20853 7.27878,-12.4562 14.39162,-16.09818 2.61554,-1.33923 4.84152,-2.34899 4.94661,-2.2439 0.24283,0.24284 -2.87637,5.30631 -4.94079,8.0205 -2.54606,3.34741 -5.5004,5.78258 -9.37326,7.72607 l -3.56939,1.7912 -1.08817,2.70828 c -0.59849,1.48956 -1.13257,2.80229 -1.18683,2.91718 -0.0543,0.11489 0.94431,-0.76715 2.21905,-1.96008 4.45691,-4.17088 10.26137,-6.81593 19.63073,-8.94557 3.04733,-0.69265 8.41105,-0.72052 11.8165,-0.0614 3.91532,0.75781 3.87336,1.02246 -0.3571,2.25237 -1.59578,0.46394 -4.89453,1.84066 -7.33057,3.05939 -6.78931,3.39664 -9.68551,4.37734 -17.18868,5.82035 -4.03853,0.77669 -5.6637,1.29065 -8.50257,2.68897 -3.87568,1.90902 -5.43023,3.27435 -8.58425,7.53941 -3.32581,4.49735 -9.61411,9.60305 -15.17602,12.32195 -2.21571,1.08314 -3.07071,1.66749 -2.66665,1.82254 1.30368,0.50027 5.32512,0.18348 8.39598,-0.6614 3.81553,-1.04976 4.32313,-0.65359 0.73708,0.57527 -1.85241,0.63478 -3.33039,0.85723 -5.72917,0.86229 -3.12709,0.007 -3.20566,0.0275 -2.40397,0.63921 1.37945,1.05257 9.5322,4.95921 12.29386,5.89097 2.27969,0.76915 3.27354,0.87347 8.32143,0.87347 h 5.73253 l 2.95873,-1.40799 c 5.11343,-2.43337 8.06408,-6.17793 8.07051,-10.24201 0.007,-4.43877 -2.28756,-8.16263 -6.27445,-10.18273 -2.04321,-1.03526 -2.48013,-1.1079 -7.71352,-1.28235 l -5.54761,-0.18492 1.57098,-0.64389 c 2.48379,-1.01802 5.13181,-1.1791 7.83039,-0.47635 7.1556,1.86342 10.80462,5.9527 10.90033,12.21548 0.0463,3.02739 -0.76711,5.02395 -3.14917,7.7301 -1.79558,2.0399 -6.47028,4.472 -9.75571,5.0756 -3.75779,0.69038 -9.45784,0.2239 -13.38678,-1.09556 -3.62863,-1.21861 -9.04324,-3.804 -12.22473,-5.83712 -1.06791,-0.68245 -1.94166,-1.0812 -1.94166,-0.88611 0,0.8046 1.95261,4.6784 3.87834,7.69424 1.8756,2.93734 1.93108,3.08075 0.62792,1.6231 -0.78621,-0.87941 -2.11802,-2.87655 -2.95959,-4.43809 l -1.53012,-2.83917 -0.008,1.72421 c -0.005,0.94831 -0.25195,2.99778 -0.54977,4.55435 -1.32846,6.94324 -1.02552,10.84537 1.12715,14.51863 1.2702,2.16743 2.07406,2.60546 7.28325,3.96866 2.48643,0.65068 5.65507,1.70494 7.04142,2.34281 4.60885,2.12056 6.37232,1.95383 9.24028,-0.87362 2.20404,-2.17291 3.01631,-4.49979 3.02567,-8.66758 0.008,-3.65922 -0.52289,-4.79269 -4.15087,-8.85869 -2.53878,-2.84529 -0.91687,-1.92274 1.88403,1.07164 2.7122,2.89956 3.32999,4.62284 3.11395,8.68608 -0.21723,4.08571 -1.21629,6.65599 -3.32908,8.56477 -3.12007,2.81879 -5.28995,3.01565 -9.88896,0.89714 -1.7599,-0.81069 -5.07748,-1.9666 -7.3724,-2.5687 -2.29492,-0.6021 -4.56223,-1.35003 -5.03846,-1.66207 -2.38427,-1.56223 -4.22691,-5.78883 -4.26982,-9.79402 l -0.0261,-2.43853 -0.65997,1.47936 c -0.36298,0.81365 -1.37253,2.64437 -2.24346,4.06825 -4.63992,7.58593 -8.78293,10.63131 -15.19869,11.17202 -2.99867,0.25272 -4.69583,-0.24932 -7.23547,-2.14034 -1.38214,-1.02914 -2.21951,-2.04795 -3.05119,-3.71229 -1.4025,-2.80664 -1.49247,-5.09773 -0.38355,-9.76688 0.4195,-1.7663 0.69463,-3.27954 0.61142,-3.36276 -0.0832,-0.0832 -3.32194,2.48925 -7.19718,5.71659 -7.86206,6.54761 -14.09187,11.38365 -20.43569,15.86368 -6.04519,4.26915 -6.02836,4.25127 -2.85268,3.0305 1.58393,-0.60887 4.49643,-1.55645 6.47222,-2.10572 3.30232,-0.91804 4.14479,-0.99916 10.43443,-1.00467 7.76057,-0.007 7.92541,0.0254 19.78651,3.86612 3.66143,1.1856 7.37568,2.27217 8.25389,2.41459 0.87821,0.14242 1.51689,0.3388 1.41929,0.4364 -0.0976,0.0976 -1.8147,0.24477 -3.81579,0.32704 -2.00109,0.0823 -6.67944,0.65161 -10.39634,1.2652 -10.52253,1.73705 -16.65717,1.55521 -24.86343,-0.737 -2.13584,-0.59659 -5.70363,-1.25469 -7.92844,-1.46245 l -4.04511,-0.37773 -3.23264,2.12377 c -1.77795,1.16808 -3.24115,2.20699 -3.25156,2.3087 -0.0104,0.1017 1.01779,0.88173 2.28489,1.7334 8.51128,5.72076 11.33418,7.7469 13.20004,9.47436 1.16278,1.07652 4.17966,3.2679 6.70419,4.86973 7.60519,4.82552 14.0311,9.3285 17.25712,12.09299 1.67815,1.43806 3.05119,2.678 3.05119,2.75542 0,0.4302 -0.82258,-0.0787 -3.14365,-1.94478 z m 1.80812,-31.23079 c 2.46354,-0.42366 6.09841,-0.96455 8.07746,-1.20198 l 3.59828,-0.43169 -5.81733,-1.81685 c -10.6761,-3.33433 -11.9463,-3.60245 -18.02209,-3.80432 -4.72992,-0.15716 -6.11764,-0.0666 -9.41493,0.61442 -3.523,0.72763 -10.50363,3.02586 -11.22107,3.69431 -0.16211,0.15104 1.23337,0.38308 3.10105,0.51565 2.09332,0.14859 4.75975,0.65969 6.95188,1.33252 5.10228,1.56605 6.60096,1.78061 12.76103,1.82688 4.05598,0.0305 6.68646,-0.16155 9.98572,-0.72894 z m 15.57442,-12.16292 c 1.71998,-0.66923 2.84508,-1.49538 5.00271,-3.67343 4.01045,-4.04842 6.82526,-8.85844 8.35375,-14.2751 0.65723,-2.32909 1.33115,-8.92099 1.04709,-10.24198 -0.28388,-1.32015 -1.13372,-0.97832 -1.42476,0.57308 -0.2404,1.28146 -3.85562,8.82082 -4.81371,10.03875 -0.32003,0.40682 0.31276,-1.17425 1.40619,-3.5135 2.51331,-5.37686 3.28216,-7.39682 2.81541,-7.39682 -0.20176,0 -0.36684,0.15809 -0.36684,0.35131 0,0.43209 -5.75084,5.28457 -7.02699,5.92927 -0.50853,0.25691 -0.75817,0.31318 -0.55476,0.12506 0.20341,-0.18812 1.74819,-1.56235 3.43284,-3.05383 1.68465,-1.49148 3.00957,-2.76522 2.94427,-2.83052 -0.0653,-0.0653 -1.52686,0.12905 -3.24792,0.4319 -1.72105,0.30284 -5.81652,0.60373 -9.10103,0.66865 -5.86997,0.11601 -6.00246,0.13667 -7.76667,1.21139 -2.53337,1.54328 -3.92836,3.78073 -4.71229,7.55817 -0.35473,1.70929 -0.79172,3.56548 -0.97109,4.12487 -0.48226,1.50393 -0.19607,1.24795 1.03367,-0.92461 0.60448,-1.06791 1.45504,-2.35773 1.89012,-2.86626 0.43509,-0.50854 -0.21003,0.79485 -1.43359,2.8964 -2.12008,3.64138 -2.22466,3.93788 -2.22466,6.30715 0,4.10521 2.15935,7.39791 5.97433,9.11001 1.856,0.83294 6.92509,0.54683 9.74393,-0.54996 z m -12.38604,-1.76265 c 0.002,-0.15548 1.50835,-1.08766 3.34744,-2.07151 1.83909,-0.98385 4.43913,-2.52331 5.77787,-3.42103 2.71114,-1.81802 3.28798,-2.07217 1.71728,-0.7566 -2.56779,2.15068 -10.8513,6.9249 -10.84259,6.24914 z m 1.10588,-17.25011 c 0,-0.0768 0.29125,-0.36805 0.64722,-0.64723 0.58659,-0.46003 0.59967,-0.44695 0.13963,0.13964 -0.48314,0.61606 -0.78685,0.81198 -0.78685,0.50759 z m -27.40484,14.99448 c 4.37289,-7.31345 7.29974,-14.596 8.19973,-20.40247 0.58019,-3.74325 -0.16991,-14.1275 -1.29066,-17.86767 l -0.46416,-1.54899 -0.47301,2.21904 c -0.80023,3.75414 -2.01411,6.60063 -4.75813,11.15761 -1.44918,2.40665 -3.04672,5.47874 -3.55009,6.82687 -1.33176,3.56672 -1.88159,8.04234 -1.36872,11.14123 0.22718,1.37265 0.5926,3.5782 0.81206,4.90123 0.21945,1.32304 0.34427,3.65342 0.27738,5.17864 -0.0669,1.52522 -0.0946,2.77274 -0.0616,2.77227 0.0331,-5.6e-4 1.23776,-1.97047 2.67715,-4.37776 z m 13.49567,-8.70866 c 2.36912,-3.52403 3.24712,-5.79737 3.8736,-10.02952 0.24088,-1.6273 0.53039,-3.53044 0.64336,-4.2292 l 0.20539,-1.27046 -1.70101,1.82522 c -3.01444,3.23459 -4.29191,6.6054 -4.82651,12.73555 -0.13305,1.5256 -0.32439,3.06506 -0.42521,3.42103 -0.33538,1.18412 0.12823,0.67431 2.23038,-2.45262 z m 43.92196,-19.13728 c 6.69028,-3.43656 13.59309,-9.54131 15.85483,-14.0218 2.19915,-4.35648 2.71013,-8.48297 1.66264,-13.42685 -0.47468,-2.24038 -2.20411,-5.78796 -2.82247,-5.78975 -0.12536,-2.8e-4 -0.68928,1.87165 -1.25315,4.16005 -1.07849,4.37688 -1.60873,6.03578 -1.62546,5.08532 -0.005,-0.30512 0.53625,-2.68613 1.20358,-5.29113 l 1.21335,-4.73636 -1.19298,-1.04745 c -3.41996,-3.00276 -7.06842,-4.56938 -8.65902,-3.71811 -1.05716,0.56577 -2.83268,3.32467 -4.5985,7.14539 -0.86285,1.86696 -1.76287,3.81055 -2.00004,4.31909 l -0.43122,0.9246 0.22288,-0.9246 c 0.35661,-1.47938 3.78844,-8.5417 4.78668,-9.85046 0.50149,-0.65749 0.9118,-1.2884 0.9118,-1.40203 0,-0.43465 -3.27521,1.11166 -6.32293,2.98523 -4.04876,2.48895 -7.72792,6.30295 -8.77199,9.09349 -0.92433,2.47048 -1.73472,8.84502 -1.40413,11.04496 0.13454,0.8954 0.7962,2.87622 1.47033,4.40182 1.65314,3.74112 6.45742,11.71801 6.66366,11.06415 0.0909,-0.28802 0.43153,-2.05872 0.75705,-3.93489 0.57618,-3.32077 1.20002,-5.52993 1.47939,-5.23888 0.0759,0.0791 -0.0754,1.30875 -0.33623,2.73264 -0.26083,1.42388 -0.58553,3.33587 -0.72157,4.24885 l -0.24733,1.65997 1.40537,-1.65234 c 2.78023,-3.2688 5.77275,-6.48564 6.52113,-7.00995 0.41954,-0.29392 -0.7263,1.20521 -2.54632,3.33141 -7.41265,8.65969 -7.49887,9.0732 -1.21935,5.84763 z m 27.27899,-21.71419 c 0.69345,-0.2377 3.23996,-0.76986 5.65889,-1.18257 6.09099,-1.03922 9.56855,-2.19786 16.01044,-5.33427 3.05119,-1.48555 6.42136,-2.9187 7.48928,-3.18476 1.06792,-0.26606 1.94167,-0.60547 1.94167,-0.75423 0,-0.375 -4.42706,-0.8452 -7.76667,-0.82491 -3.248,0.0197 -10.36329,1.71071 -14.57362,3.46347 -4.23371,1.7625 -6.86377,3.5598 -10.87706,7.43307 l -3.68759,3.55894 2.27192,-1.37128 c 1.24955,-0.7542 2.83928,-1.56576 3.53274,-1.80346 z m 5.63592,-11.39317 c 3.12422,-2.38738 7.14756,-7.02329 9.31244,-10.73026 0.52155,-0.89308 -7.40669,3.693 -8.93521,5.16854 -1.55187,1.49811 -6.71922,8.81431 -6.71922,9.51345 0,0.41199 3.42108,-1.7197 6.34199,-3.95173 z m -3.19834,-14.24313 c 1.26911,-0.24193 6.57293,-0.44882 12.38968,-0.48329 9.83279,-0.0583 10.27532,-0.0924 13.32196,-1.02803 1.73323,-0.53225 4.35838,-1.5462 5.83366,-2.2532 l 2.68232,-1.28547 -3.6146,-0.31255 c -10.72876,-0.92769 -18.0289,0.15105 -30.24318,4.469 -3.90806,1.38156 -3.99185,1.58399 -0.36984,0.89354 z m -5.33736,-1.64807 c 4.39581,-1.30424 7.75645,-3.9454 9.58781,-7.53517 2.65181,-5.19798 -0.0473,-11.05155 -6.1996,-13.44492 -1.94445,-0.75643 -5.59041,-0.79647 -7.30467,-0.0802 -0.70317,0.2938 -2.00155,1.03167 -2.88531,1.63971 -1.43267,0.9857 -1.68042,1.37877 -2.28582,3.62653 -1.0193,3.78449 -3.64046,8.61639 -6.09572,11.23696 l -2.13394,2.27763 1.89635,-0.2486 c 1.043,-0.13674 3.26939,-0.7064 4.94755,-1.26593 1.67815,-0.55953 3.05119,-0.96848 3.05119,-0.90878 0,0.40825 -4.20895,2.10414 -6.57188,2.64797 l -2.85907,0.65802 2.95872,0.79092 c 3.6841,0.98483 4.37588,1.07779 8.53169,1.14645 2.15858,0.0357 4.06983,-0.157 5.3627,-0.54059 z m 1.08206,-9.29017 c 0.50736,-0.35987 2.1795,-1.6638 3.71586,-2.89763 3.29049,-2.64253 3.68309,-2.90413 3.68309,-2.45411 0,0.51251 -5.08234,4.45543 -6.80742,5.28126 -1.25126,0.599 -1.35392,0.61123 -0.59153,0.0705 z m -21.25621,5.46265 c -1.20803,-2.33607 -3.92422,-13.78864 -3.3956,-14.31725 0.0813,-0.0813 0.42541,0.9816 0.76473,2.36197 0.9784,3.98019 3.91121,13.05023 4.21981,13.05023 0.37554,0 3.37632,-3.16851 4.63904,-4.89834 1.42505,-1.95221 3.42882,-6.32207 4.19825,-9.15563 0.97846,-3.60332 0.86585,-9.1564 -0.24305,-11.98539 -0.81229,-2.07228 -3.55272,-5.397147 -4.44844,-5.397147 -0.20877,0 -0.40755,0.87375 -0.44175,1.941667 l -0.0622,1.94167 -0.2152,-2.21905 -0.21521,-2.219048 -1.84921,-0.48271 c -2.50178,-0.653055 -7.26301,-0.286465 -9.34854,0.71979 -0.87004,0.419783 -1.9803,1.287097 -2.46725,1.927368 -1.93804,2.54823 -3.53244,8.53036 -3.53255,13.25407 -6e-5,2.21629 0.17969,2.82575 1.72517,5.84945 1.91854,3.75358 5.63615,7.9299 8.82657,9.91567 2.07933,1.2942 2.61974,1.21006 1.84541,-0.28732 z m -4.92829,-26.45822 c 0.008,-0.61024 0.0904,-0.81511 0.18419,-0.45527 0.0938,0.35985 0.0876,0.85913 -0.0137,1.10953 -0.10131,0.25039 -0.17803,-0.044 -0.17049,-0.65426 z m 0.32248,-1.70156 c -0.0284,-0.68079 0.73733,-3.022346 0.92655,-2.833131 0.0693,0.06935 -0.10519,0.86838 -0.38786,1.775624 -0.28267,0.907247 -0.52508,1.383127 -0.53869,1.057507 z m 56.44491,18.91758 c 1.67611,-1.02199 2.09229,-2.00943 1.84731,-4.38299 -0.30065,-2.91305 -1.91373,-5.90174 -4.02412,-7.45585 l -1.73811,-1.27996 -5.47379,-0.0523 c -3.01059,-0.0288 -5.97309,-0.17805 -6.58332,-0.33178 l -1.10953,-0.2795 0.91282,0.68714 c 0.50205,0.37792 1.83348,1.22299 2.95873,1.87792 2.0317,1.18251 2.03746,1.19086 0.82919,1.20198 -1.50538,0.0139 -3.9349,-1.17148 -5.55225,-2.70889 l -1.22136,-1.16098 0.85151,1.85938 c 2.65071,5.78811 4.87128,8.53668 8.7181,10.79106 3.56918,2.09168 7.37529,2.582 9.58482,1.23475 z m -35.94113,-8.89548 1.0334,-0.3929 -1.44247,-0.93805 c -0.79336,-0.51593 -1.91803,-1.60219 -2.49927,-2.41391 -0.58123,-0.81172 -1.11277,-1.41987 -1.18119,-1.35145 -0.0684,0.0684 0.0462,0.86881 0.25476,1.77865 0.20854,0.90984 0.27158,2.63377 0.1401,3.83096 l -0.23907,2.1767 1.45017,-1.14855 c 0.79759,-0.6317 1.91519,-1.32536 2.48357,-1.54145 z m 11.25204,-2.39399 c 1.54753,-0.546 4.44111,-2.38764 4.45599,-2.83605 0.004,-0.13094 -0.61622,-0.10424 -1.37901,0.0593 -0.7628,0.16356 -2.63512,0.40234 -4.16072,0.5306 -3.40438,0.28624 -2.80529,-0.25049 1.03368,-0.92607 1.48388,-0.26113 2.77474,-0.59901 2.86857,-0.75084 0.0938,-0.15183 -0.37131,-0.61262 -1.03367,-1.02399 -1.36862,-0.85 -3.39282,-3.17447 -5.07605,-5.829047 -0.94968,-1.497707 -1.47031,-1.917859 -3.03666,-2.450607 -2.01169,-0.684224 -4.13489,-0.577097 -5.87029,0.296187 -1.32046,0.66448 -3.977,3.629294 -4.25913,4.753377 -0.5771,2.29937 3.13042,7.00068 6.3729,8.08111 2.33504,0.77807 7.99842,0.83199 10.08439,0.096 z m 19.22237,-3.5125 c 1.89227,-0.5427 3.59657,-1.86131 4.54601,-3.51723 2.19065,-3.820718 -0.1646,-12.02619 -3.45192,-12.02619 -1.97659,0 -5.23356,1.538097 -7.20487,3.40248 -1.5493,1.465267 -1.95684,2.11043 -2.15101,3.405258 -0.13175,0.878618 -0.80877,2.785241 -1.50448,4.236942 -1.17498,2.45177 -1.21283,2.63945 -0.53233,2.63945 0.40292,0 1.75654,-0.41607 3.00805,-0.92461 1.2515,-0.50853 2.37159,-0.91956 2.48908,-0.9134 0.68746,0.036 -4.50011,2.6144 -5.9691,2.9668 -0.97288,0.23339 -1.76887,0.57418 -1.76887,0.7573 0,0.44953 10.96025,0.42611 12.53944,-0.0268 z m -14.05121,-5.946039 c 0.0178,-0.925526 -0.15056,-1.865737 -0.37418,-2.089356 -0.55771,-0.557718 -0.0374,-2.029929 0.66762,-1.888978 0.34499,0.06897 0.62265,0.621273 0.7078,1.407939 0.0771,0.711942 0.26508,2.522078 0.41779,4.022514 l 0.27766,2.72808 1.37339,-2.32697 c 1.7367,-2.942549 2.26267,-5.481613 2.06042,-9.946567 -0.12704,-2.80461 -0.37241,-4.031668 -1.18346,-5.918458 -1.32143,-3.074113 -2.67006,-4.837108 -3.68115,-4.812188 -1.63562,0.04032 -5.56381,2.337212 -6.60812,3.863906 -2.24307,3.279181 -3.18537,9.289737 -1.92974,12.309101 0.63151,1.518583 3.05706,4.173726 5.90041,6.458916 l 1.8492,1.48621 0.24498,-1.80569 c 0.13474,-0.99312 0.25956,-2.56293 0.27738,-3.488459 z M 213.85009,88.580148 c 0.17564,-8.25965 -0.59547,-10.87533 -4.69006,-15.908912 -1.14859,-1.411988 -2.37849,-2.99306 -2.73312,-3.513493 -0.78664,-1.154418 -0.78834,-1.071259 -0.0845,4.126358 0.76879,5.67763 2.39824,11.062016 4.98444,16.47065 1.19149,2.491807 2.21937,4.529861 2.28419,4.52901 0.0648,-8.33e-4 0.17241,-2.567477 0.2391,-5.703613 z m 16.36955,-7.142337 c 0.96537,-4.535728 1.13059,-9.851678 0.37658,-12.116788 -0.27085,-0.813652 -1.20678,-2.644367 -2.07984,-4.068255 -0.87306,-1.423887 -1.81911,-3.160525 -2.10233,-3.859192 l -0.51495,-1.270305 -0.53751,3.674274 c -0.33011,2.256494 -0.5164,6.100328 -0.48278,9.961573 0.0593,6.810637 0.5796,9.839837 2.62542,15.284603 l 1.01826,2.709998 0.42499,-3.167812 c 0.23375,-1.7423 0.80622,-4.958942 1.27216,-7.148096 z m -10.75654,6.745117 c 1.76923,-1.915141 2.21961,-3.222607 2.19133,-6.361397 -0.0256,-2.840458 -0.38673,-4.6461 -0.79393,-3.969612 -0.67937,1.128627 -3.66473,12.212475 -3.60336,13.378282 0.008,0.154712 0.27719,-0.217988 0.59789,-0.828226 0.32069,-0.610238 1.04433,-1.608809 1.60807,-2.219047 z m -2.76868,124.259812 c -0.95684,-1.75533 -1.6606,-3.27062 -1.56391,-3.36731 0.0967,-0.0967 0.95454,1.26451 1.90635,3.02487 0.95181,1.76036 1.65557,3.27565 1.56391,3.36731 -0.0917,0.0917 -0.94952,-1.26953 -1.90635,-3.02487 z m -2.24111,-4.27093 c -0.13408,-0.21694 -0.16446,-0.47377 -0.0675,-0.57071 0.097,-0.0969 0.27482,0.0805 0.39528,0.39445 0.25007,0.6517 0.0369,0.76633 -0.32776,0.17626 z m 15.66412,-25.0074 c 0.26698,-0.10684 0.58596,-0.0937 0.70886,0.0292 0.12289,0.12289 -0.0955,0.2103 -0.48542,0.19424 -0.43084,-0.0177 -0.51848,-0.10538 -0.22344,-0.22344 z m 3.36523,-1.22054 c 1.30421,-0.6184 2.62598,-1.33045 2.93727,-1.58233 0.45267,-0.36629 0.5095,-0.36402 0.28389,0.0113 -0.32042,0.5331 -3.27623,2.08578 -4.66784,2.45201 -0.50853,0.13383 0.14248,-0.26264 1.44668,-0.88103 z m 12.97713,-112.0228 c 0,-0.524247 1.0444,-1.238711 1.44701,-0.989883 0.57704,0.356628 0.0328,1.314438 -0.7469,1.314438 -0.38506,0 -0.70011,-0.146049 -0.70011,-0.324555 z m -0.73968,-4.267641 c 0,-0.32207 0.26351,-0.585582 0.58558,-0.585582 0.32207,0 0.5197,0.197634 0.43919,0.439188 -0.22859,0.685766 -1.02477,0.799506 -1.02477,0.146394 z m -2.1927,-7.56333 c -0.50039,-0.934985 -0.14128,-1.898442 0.70761,-1.898442 0.85044,0 1.58042,0.894345 1.41939,1.738978 -0.18173,0.95322 -1.64354,1.062813 -2.127,0.159464 z"
       id="path1" />
  </g>
</svg>
