<?xml version="1.0" encoding="UTF-8" standalone="no"?>
<!-- Created with Inkscape (http://www.inkscape.org/) -->

<svg
   width="17.938225mm"
   height="25.845184mm"
   viewBox="0 0 17.938225 25.845184"
   version="1.1"
   id="svg1"
   xml:space="preserve"
   inkscape:version="1.4 (1:1.4+202410161351+e7c3feb100)"
   sodipodi:docname="del-mate-vivo-simple.svg"
   xmlns:inkscape="http://www.inkscape.org/namespaces/inkscape"
   xmlns:sodipodi="http://sodipodi.sourceforge.net/DTD/sodipodi-0.dtd"
   xmlns="http://www.w3.org/2000/svg"
   xmlns:svg="http://www.w3.org/2000/svg"
   xmlns:inkstitch="http://inkstitch.org/namespace"><sodipodi:namedview
     id="namedview1"
     pagecolor="#ffffff"
     bordercolor="#000000"
     borderopacity="0.25"
     inkscape:showpageshadow="2"
     inkscape:pageopacity="0.0"
     inkscape:pagecheckerboard="0"
     inkscape:deskcolor="#d1d1d1"
     inkscape:document-units="mm"
     inkscape:zoom="2.771684"
     inkscape:cx="33.012421"
     inkscape:cy="65.30326"
     inkscape:window-width="1247"
     inkscape:window-height="758"
     inkscape:window-x="80"
     inkscape:window-y="32"
     inkscape:window-maximized="1"
     inkscape:current-layer="layer1"
     showgrid="false" /><metadata
     id="metadata1"><inkstitch:min_stitch_len_mm>0.1</inkstitch:min_stitch_len_mm><inkstitch:collapse_len_mm>3</inkstitch:collapse_len_mm><inkstitch:inkstitch_svg_version>2</inkstitch:inkstitch_svg_version></metadata><defs
     id="defs1" /><g
     inkscape:label="Layer 1"
     inkscape:groupmode="layer"
     id="layer1"
     transform="translate(-29.985975,-45.335168)"><path
       style="fill:#000000;stroke-width:0.365471"
       d="m 36.099957,71.085539 c -0.120842,-0.04853 -0.240988,-0.143681 -0.266991,-0.211439 -0.03592,-0.09358 -0.411732,-0.119079 -1.563444,-0.106064 -1.15982,0.01309 -1.579687,-0.01572 -1.786434,-0.122631 -0.337346,-0.17445 -0.449464,-0.566996 -0.257946,-0.903124 0.128447,-0.225437 0.121615,-0.293225 -0.07377,-0.731933 -0.118432,-0.265921 -0.281419,-0.875115 -0.362192,-1.353769 -0.08572,-0.507929 -0.251452,-1.066164 -0.398061,-1.340754 -0.388199,-0.727065 -0.72826,-2.174688 -0.72826,-3.100164 0,-1.032 0.1356,-1.772223 0.488445,-2.66636 0.289509,-0.73364 0.570471,-1.87306 0.57355,-2.325988 0.0022,-0.323008 -0.404683,-0.94995 -1.143141,-1.761417 -0.481586,-0.5292 -0.595738,-0.716849 -0.595738,-0.979311 0,-0.178571 0.05439,-0.369262 0.120873,-0.423758 0.397639,-0.325961 2.233893,-0.494215 6.107534,-0.559629 l 2.892338,-0.04885 c 0.803684,0.05052 0.812995,0.03716 1.534843,0.05809 0.03389,9.86e-4 0.588462,0.09016 1.254411,0.147069 0.665948,0.05691 1.402515,0.159854 1.636815,0.228764 0.416414,0.12247 0.426661,0.135295 0.455287,0.569866 0.02844,0.431719 0.0092,0.466266 -0.666058,1.194508 -0.382441,0.412462 -0.754609,0.891769 -0.827043,1.065126 -0.222858,0.533376 -0.159898,1.204552 0.213705,2.278139 0.18997,0.545901 0.353147,1.057817 0.362616,1.137596 0.0095,0.07977 0.06073,0.17608 0.113913,0.214009 0.05789,0.04128 0.0967,0.720487 0.0967,1.69221 0,1.443181 -0.025,1.697908 -0.225426,2.296312 -0.123984,0.37019 -0.326557,0.848842 -0.450161,1.063676 -0.126973,0.220683 -0.252882,0.644897 -0.289433,0.975155 -0.03558,0.321505 -0.185014,0.939438 -0.332069,1.373182 -0.159547,0.470597 -0.235234,0.839295 -0.187681,0.914265 0.125868,0.198429 0.09576,0.699259 -0.05441,0.904907 -0.124869,0.171008 -0.285517,0.190437 -1.806196,0.218457 -1.474922,0.02719 -1.696771,0.0525 -1.906633,0.217569 -0.189511,0.149069 -0.386275,0.185575 -0.973862,0.180685 -0.405002,-0.0033 -0.835238,-0.04584 -0.95608,-0.09438 z"
       id="path1"
       sodipodi:nodetypes="cscssssssscsssccsssssssssssssssscsccc" /><path
       d="m 39.058185,54.58798 0.414142,-1.239479 c 0.251029,-0.7513 0.55565,-1.571321 0.614245,-1.84454 0.196695,-0.917158 1.282853,-2.844652 2.211108,-3.923829 0.856946,-0.996274 1.429725,-1.269975 4.226544,-2.01964 1.124929,-0.301528 1.285657,-0.300956 1.362408,0.0049 0.174705,0.696079 -0.231711,1.074744 -1.816256,1.692236 -1.587967,0.618825 -2.265652,0.961948 -2.675388,1.354591 -0.197937,0.189679 -0.551219,0.789131 -0.903602,1.533239 -0.318229,0.671987 -0.764191,1.61342 -0.991026,2.092073 -0.509128,1.074332 -0.540631,2.370167 -1.249461,2.399713 z"
       style="fill:#000000;stroke:none;stroke-width:0.365471"
       id="path1-9"
       sodipodi:nodetypes="csssscsssscc" /></g></svg>
