<?xml version="1.0" encoding="UTF-8" standalone="no"?>
<!-- Created with Inkscape (http://www.inkscape.org/) -->

<svg
   version="1.1"
   id="svg1"
   width="42.874001mm"
   height="60.000317mm"
   viewBox="0 0 162.04346 226.77286"
   sodipodi:docname="elefante.svg"
   inkscape:version="1.3.2 (1:1.3.2+202311252150+091e20ef0f)"
   xmlns:inkscape="http://www.inkscape.org/namespaces/inkscape"
   xmlns:sodipodi="http://sodipodi.sourceforge.net/DTD/sodipodi-0.dtd"
   xmlns="http://www.w3.org/2000/svg"
   xmlns:svg="http://www.w3.org/2000/svg"
   xmlns:inkstitch="http://inkstitch.org/namespace">
  <metadata
     id="metadata1">
    <inkstitch:min_stitch_len_mm>0</inkstitch:min_stitch_len_mm>
    <inkstitch:collapse_len_mm>3</inkstitch:collapse_len_mm>
    <inkstitch:inkstitch_svg_version>1</inkstitch:inkstitch_svg_version>
  </metadata>
  <defs
     id="defs1" />
  <sodipodi:namedview
     id="namedview1"
     pagecolor="#ffffff"
     bordercolor="#666666"
     borderopacity="1.0"
     inkscape:showpageshadow="2"
     inkscape:pageopacity="0.0"
     inkscape:pagecheckerboard="0"
     inkscape:deskcolor="#d1d1d1"
     inkscape:zoom="2.3766992"
     inkscape:cx="74.473035"
     inkscape:cy="108.55392"
     inkscape:window-width="1848"
     inkscape:window-height="1016"
     inkscape:window-x="72"
     inkscape:window-y="27"
     inkscape:window-maximized="1"
     inkscape:current-layer="g1"
     inkscape:document-units="mm" />
  <g
     inkscape:groupmode="layer"
     inkscape:label="Image"
     id="g1">
    <path
       style="fill:#000000;stroke-width:0.195721"
       d="m 55.298851,188.47602 c -1.467706,-0.27921 -4.136771,-1.23482 -5.558843,-1.99023 -1.612785,-0.85671 -2.704003,-1.95284 -3.113511,-3.12755 -0.228931,-0.65674 -0.366942,-0.72116 -1.544446,-0.72116 -1.242382,0 -1.348705,0.0601 -2.713318,1.53404 -1.007429,1.08815 -2.008508,1.82775 -3.443971,2.54438 -1.935234,0.96616 -2.132079,1.00964 -4.502836,0.9946 -2.155508,-0.0138 -2.72001,-0.11859 -4.324368,-0.80317 -2.623635,-1.11958 -4.645703,-2.52556 -6.896978,-4.79558 -5.210599,-5.25399 -8.396327,-12.9407 -8.380406,-20.22072 0.01245,-5.69577 1.83047,-9.47477 5.445367,-11.31895 4.111517,-2.09753 11.585765,-0.55012 16.886559,3.49606 0.653821,0.49908 1.235257,0.9074 1.292077,0.9074 0.05682,0 0.481901,-0.67082 0.94462,-1.49071 1.189029,-2.10684 2.314016,-3.53988 3.453092,-4.39863 l 0.982558,-0.74076 -1.374001,-1.39883 c -1.565874,-1.59419 -4.2064,-3.45338 -4.904669,-3.45338 -0.258574,0 -1.424706,0.8764 -2.591402,1.94756 -2.354969,2.1621 -3.32316,2.55243 -4.640944,1.87098 -0.94816,-0.49032 -1.520393,-1.64884 -1.757191,-3.55757 -0.323203,-2.60517 -0.653401,-3.41813 -1.949315,-4.79926 -1.276697,-1.36064 -2.101539,-2.69347 -2.101539,-3.39579 0,-0.79644 0.61688,-1.70691 1.406208,-2.07545 0.44658,-0.20852 1.720072,-0.44155 2.82998,-0.51784 1.609272,-0.11065 2.190697,-0.26972 2.870578,-0.7855 1.271087,-0.96429 3.836849,-1.7352 5.775111,-1.7352 3.211095,0 5.684144,1.14 9.280419,4.27802 0.922248,0.80473 1.760903,1.46313 1.863681,1.46313 0.102778,0 0.266547,-0.32293 0.363932,-0.71764 0.718549,-2.91233 4.645659,-11.46604 7.145776,-15.56435 0.603475,-0.98925 1.061476,-1.83438 1.017781,-1.87807 -0.04369,-0.0437 -1.343671,-0.49358 -2.888833,-0.99974 -2.842728,-0.9312 -6.409051,-2.52312 -7.912901,-3.53211 l -0.821444,-0.55113 -0.604017,0.98734 c -0.999383,1.6336 -3.150232,3.74246 -4.537562,4.44898 -0.905123,0.46094 -1.865418,0.70016 -3.132071,0.78023 -2.570426,0.16247 -4.339661,-0.5411 -6.542524,-2.60177 -2.264302,-2.11814 -3.207409,-4.09973 -4.692905,-9.86039 C 23.396662,96.886343 20.503673,90.114074 12.036332,74.18121 7.7237325,66.066256 6.658402,62.567686 6.6408031,56.462157 6.6313853,53.17534 6.7248075,52.199223 7.2238561,50.374042 9.7506106,41.132843 17.526164,34.924139 26.557032,34.936685 c 3.479956,0.0048 5.52333,0.474537 8.536627,1.96228 3.158852,1.559605 6.251055,4.172977 10.385127,8.776974 5.677045,6.322358 7.607128,7.662056 10.994392,7.631361 l 1.826732,-0.01656 2.28977,-2.251139 c 4.627352,-4.549279 10.798331,-7.707396 16.43687,-8.411886 0.823835,-0.102927 1.497882,-0.295728 1.497882,-0.428437 0,-0.486025 -1.010845,-2.204014 -1.705603,-2.898772 -0.796879,-0.796881 -0.698972,-0.893814 0.348513,-0.345046 0.814924,0.42693 2.201654,1.843789 2.639764,2.69712 0.253004,0.492791 0.515444,0.587163 1.632812,0.587163 h 1.331354 l -0.138647,-1.727251 c -0.09859,-1.22819 -0.375366,-2.186239 -0.957932,-3.315811 l -0.819283,-1.588555 0.686075,0.640955 c 1.01916,0.952135 1.981661,2.730912 2.449804,4.527414 0.37263,1.429992 0.49011,1.602374 1.143463,1.677831 0.972858,0.112357 1.364419,-0.264626 1.713084,-1.649302 0.230576,-0.915699 0.214386,-1.382052 -0.07739,-2.228914 -0.358397,-1.040255 -0.354987,-1.058282 0.119024,-0.629305 0.701069,0.634462 1.092024,2.030401 0.988671,3.530155 l -0.08959,1.300004 1.043845,0.267711 c 5.403754,1.385871 10.124432,4.076098 14.222424,8.105105 l 2.21816,2.180834 1.70274,-5.86e-4 c 3.29799,-9.79e-4 5.78812,-1.860755 12.22864,-9.133164 3.74578,-4.229605 7.53371,-6.987031 11.56294,-8.417237 1.55526,-0.552054 2.51625,-0.698035 5.21437,-0.792088 2.98597,-0.104092 3.53826,-0.04917 5.67781,0.56455 3.07027,0.880696 4.98989,1.866384 7.36078,3.779599 3.31065,2.67156 5.87415,6.676599 7.06782,11.042255 0.49904,1.82518 0.59253,2.801298 0.58305,6.088115 -0.0177,6.137088 -1.08388,9.619355 -5.4732,17.875867 -8.41696,15.832692 -11.28131,22.543104 -13.81259,32.359235 -1.48549,5.76066 -2.4286,7.74225 -4.6929,9.86039 -2.93594,2.74642 -6.25519,3.4234 -9.41311,1.91986 -1.62846,-0.77535 -3.68173,-2.72091 -4.79905,-4.5473 l -0.60402,-0.98734 -0.82144,0.55158 c -1.5529,1.04273 -5.53063,2.80634 -8.20004,3.63567 -1.4703,0.45678 -2.6305,0.90913 -2.57823,1.00522 0.0523,0.0961 0.66068,1.11417 1.35205,2.2624 4.07209,6.76303 7.67078,15.96734 9.42033,24.09421 l 0.74879,3.47825 1.2277,0.52814 c 1.45201,0.62463 3.3584,2.56514 4.7606,4.8458 0.55153,0.89705 1.04379,1.631 1.09392,1.631 0.0501,0 0.62607,-0.40833 1.27989,-0.9074 4.15074,-3.16833 10.18871,-5.00897 14.1617,-4.31709 5.35889,0.93321 8.1548,5.0876 8.17023,12.13998 0.016,7.28001 -3.16981,14.96673 -8.3804,20.22073 -2.25128,2.27001 -4.27335,3.67599 -6.89698,4.79557 -1.60436,0.68464 -2.16886,0.78946 -4.32437,0.80317 -2.37076,0.0151 -2.56761,-0.0285 -4.50285,-0.9946 -1.43546,-0.71663 -2.43653,-1.45623 -3.44397,-2.54438 -1.37077,-1.48059 -1.46609,-1.53404 -2.73534,-1.53404 -1.23617,0 -1.33657,0.0508 -1.67348,0.84812 -0.49204,1.16434 -1.45927,2.06304 -3.24433,3.01447 -5.06758,2.70099 -12.01662,2.66508 -18.442179,-0.0953 -3.29119,-1.41386 -4.058259,-2.4551 -4.058259,-5.5088 0,-1.64032 -0.02317,-1.70178 -0.587163,-1.56074 -4.215766,1.05411 -11.131528,1.05685 -16.837837,0.006 l -0.853947,-0.15716 0.168113,1.43036 c 0.319778,2.72082 -0.67835,4.33702 -3.468522,5.61633 -3.431241,1.57322 -6.1259,2.19804 -9.866505,2.28778 -1.865876,0.0447 -3.686083,0.0255 -4.044906,-0.0427 z m 48.538859,-2.45482 c 0,-1.14081 -0.63466,-2.49208 -1.40866,-2.99924 -0.631,-0.41344 -0.71622,-0.41088 -1.48692,0.045 -0.44967,0.26594 -1.097375,1.0095 -1.439354,1.65239 l -0.621798,1.16885 0.567857,0.21007 c 0.623605,0.23067 2.874935,0.63558 3.801715,0.68373 0.48651,0.0253 0.58716,-0.10508 0.58716,-0.76075 z m 5.02351,0.20615 c 0.53823,-0.15421 0.9786,-0.39098 0.9786,-0.52614 0,-0.13517 -0.39299,-0.63873 -0.87331,-1.11908 -0.63757,-0.63756 -1.0263,-0.8333 -1.44008,-0.72508 -0.66615,0.17421 -1.49042,1.24952 -1.74972,2.28264 l -0.18338,0.73066 1.14464,-0.18129 c 0.62956,-0.0998 1.58501,-0.30748 2.12325,-0.46171 z m -51.360846,-0.26301 c -0.295697,-0.95239 -1.10595,-1.94806 -1.714856,-2.10729 -0.413781,-0.10819 -0.802512,0.0875 -1.440086,0.72508 -0.48032,0.48035 -0.873311,0.9898 -0.873311,1.13216 0,0.28285 1.96803,0.7573 3.344845,0.80635 0.782846,0.0279 0.848261,-0.0254 0.683408,-0.5563 z m 5.157797,0.29834 c 0.760591,-0.15887 1.46543,-0.36471 1.566311,-0.45745 0.313659,-0.28831 -1.247696,-2.51231 -2.00648,-2.85803 -0.605398,-0.27586 -0.822528,-0.2611 -1.362327,0.0926 -0.715929,0.4691 -1.381437,1.84254 -1.381437,2.85092 0,0.5794 0.110895,0.66079 0.900519,0.66079 0.495288,0 1.522822,-0.12998 2.283414,-0.28883 z m -25.851797,-0.93461 c 0.611988,-0.52991 1.748325,-3.17794 2.052888,-4.7839 1.76587,-9.3114 -5.078789,-23.98955 -12.915569,-27.69702 -1.770501,-0.83759 -3.858169,-0.99228 -5.039486,-0.3734 -2.576648,1.34988 -4.041734,4.77346 -4.026004,9.40788 0.03229,9.5128 6.21282,19.86908 13.798094,23.12052 2.282514,0.97839 5.19754,1.13339 6.130077,0.32592 z m -4.395497,-1.26461 c -2.061835,-0.55544 -3.119832,-1.05657 -4.875259,-2.30923 -3.918314,-2.79605 -7.047088,-7.73872 -8.499428,-13.42698 -0.808889,-3.16811 -0.626974,-3.33289 0.479662,-0.43451 2.891357,7.57274 6.764974,12.59721 11.563376,14.99889 1.15408,0.57764 2.253947,1.05024 2.444151,1.05024 0.190201,0 0.418399,0.11747 0.507106,0.26098 0.201253,0.32562 0.06219,0.31367 -1.619608,-0.13939 z m 99.325463,1.24378 c 1.8977,-0.56316 4.89373,-2.56068 6.91019,-4.60713 4.69305,-4.76289 7.7647,-12.18577 7.78721,-18.81848 0.0128,-3.7549 -0.77886,-6.33999 -2.50132,-8.16831 -1.15229,-1.22312 -2.0184,-1.60878 -3.61237,-1.60854 -4.05709,5.8e-4 -9.24924,4.78917 -12.59132,11.61258 -4.01711,8.20158 -4.66054,16.53613 -1.62498,21.04844 0.8704,1.29384 2.55247,1.45553 5.63259,0.54144 z M 129.275,184.2133 c 0.0922,-0.14927 0.32336,-0.27143 0.51357,-0.27143 0.1902,0 1.29006,-0.4726 2.44414,-1.05024 4.78058,-2.39275 8.68277,-7.45429 11.56338,-14.99889 1.10664,-2.89838 1.28855,-2.7336 0.47966,0.43451 -1.89118,7.40702 -6.80208,13.63418 -12.07868,15.31609 -2.30223,0.73382 -3.12219,0.89376 -2.92207,0.56996 z m -32.447242,-0.64222 c -0.717513,-1.62206 -1.596901,-1.84532 -2.736395,-0.69468 -0.796524,0.80432 -0.806115,0.84059 -0.302758,1.14378 0.28593,0.17224 1.166669,0.56573 1.95722,0.87446 1.706842,0.66655 1.872571,0.4638 1.081933,-1.32356 z m 15.752162,1.18151 c 1.99536,-1.14719 2.17007,-1.45364 2.85928,-5.01521 1.28806,-6.65626 1.55223,-9.57977 1.54185,-17.06387 -0.009,-6.26226 -0.0865,-7.55392 -0.69998,-11.61278 -1.70003,-11.24862 -5.16415,-21.32885 -10.29329,-29.95243 -0.79197,-1.33154 -1.54122,-2.48357 -1.66502,-2.56008 -0.12379,-0.0765 -1.19367,0.0401 -2.37751,0.25911 -1.18384,0.21901 -2.944108,0.47705 -3.911702,0.57343 -0.967593,0.0964 -1.859027,0.30591 -1.980975,0.46563 -0.121936,0.15971 -0.662184,1.58214 -1.200511,3.16096 -5.172163,15.16889 -14.674051,25.65489 -27.548687,30.40192 -3.013776,1.11122 -5.607375,1.56587 -8.932468,1.56587 -4.106553,0 -7.181702,-0.91298 -10.553285,-3.13319 -0.779117,-0.51306 -0.834869,-0.51741 -0.968451,-0.0756 -0.239645,0.79252 -0.681792,7.61859 -0.682913,10.54311 -0.0026,6.74238 1.631765,19.30042 2.733199,21.0014 0.193477,0.29878 1.013989,0.88595 1.823357,1.30482 1.444406,0.74747 1.476988,0.7519 1.764382,0.23962 0.161042,-0.28707 0.671654,-0.90359 1.134691,-1.37006 0.685548,-0.69061 1.04697,-0.84811 1.946256,-0.84811 0.921657,0 1.245261,0.14937 1.955962,0.90293 l 0.851592,0.90297 0.322158,-0.77776 c 0.511082,-1.23387 1.691602,-2.072 2.918433,-2.072 0.90001,0 1.227041,0.16888 2.188099,1.12994 l 1.129936,1.12993 0.237089,-0.67323 c 0.331936,-0.94258 1.509181,-2.04499 2.39052,-2.23857 0.794577,-0.17452 2.701161,0.61642 2.970053,1.23213 0.08003,0.18325 0.0615,-2.72008 -0.04117,-6.45184 -0.102667,-3.73174 -0.177864,-8.78134 -0.167093,-11.22133 0.01757,-3.97966 0.08125,-4.59434 0.618685,-5.97102 0.719819,-1.84389 2.116895,-3.46672 3.530806,-4.10136 0.570646,-0.25613 1.071796,-0.43143 1.113667,-0.38956 0.04187,0.0419 -0.43696,0.59272 -1.064068,1.22413 -1.772258,1.78439 -2.335392,3.54447 -2.465201,7.70498 -0.104327,3.34375 0.340224,14.15196 0.592454,14.40419 0.375419,0.37543 4.163139,0.85886 7.831575,0.99959 4.050991,0.15538 7.350099,-0.0858 9.561992,-0.69884 l 0.950257,-0.2634 0.189583,-5.05601 c 0.350925,-9.35911 0.285881,-11.80982 -0.366414,-13.80686 -0.436107,-1.33516 -0.890504,-2.09987 -1.822013,-3.0663 -1.246259,-1.29297 -1.1685,-1.61866 0.215569,-0.90293 1.252495,0.6477 2.595363,2.46487 3.151076,4.26405 0.440023,1.42465 0.515117,2.421 0.512181,6.7959 -0.0025,2.81959 -0.118467,7.70106 -0.259114,10.84775 -0.140623,3.14669 -0.197328,5.77961 -0.126013,5.85093 0.07125,0.0714 0.393429,-0.11054 0.715803,-0.40416 0.940133,-0.85627 1.7375,-1.1675 2.539625,-0.99133 0.886464,0.1947 2.063604,1.29497 2.39635,2.23986 l 0.237093,0.67323 1.12994,-1.12993 c 0.961055,-0.96106 1.288085,-1.12994 2.188095,-1.12994 1.22683,0 2.40736,0.83813 2.91843,2.072 l 0.32217,0.77776 0.85159,-0.90297 c 0.71403,-0.75708 1.03229,-0.90293 1.97027,-0.90293 0.96759,0 1.2542,0.14245 2.12212,1.05482 0.55189,0.58018 1.00344,1.22605 1.00344,1.4353 0,0.52809 0.20476,0.48289 1.69625,-0.37461 z m -44.305046,-0.29632 1.743216,-0.79041 -0.810055,-0.81004 c -0.627083,-0.62709 -0.95595,-0.77345 -1.455962,-0.64796 -0.743607,0.18664 -1.436799,1.12762 -1.662684,2.25706 -0.19752,0.9876 -0.01004,0.98686 2.185485,-0.009 z m -27.118573,-1.53246 c 1.42798,-1.42798 1.933966,-2.87264 2.294048,-6.54981 0.162973,-1.66429 0.223706,-1.84006 0.40579,-1.17433 0.117772,0.43059 0.271123,1.89376 0.340776,3.2515 l 0.126641,2.46863 0.790341,0.0902 c 0.938346,0.10719 0.943491,0.0682 0.398212,-3.01481 -1.17412,-6.63839 -1.50927,-16.54308 -0.78932,-23.32662 0.208306,-1.96269 0.454645,-3.87098 0.54742,-4.24063 0.525199,-2.09255 -3.068538,1.1302 -4.557368,4.08691 l -0.885193,1.75792 0.668223,1.50409 c 1.255526,2.82604 2.451439,7.37573 1.938754,7.37573 -0.07939,0 -0.98877,-1.70403 -2.020837,-3.78674 -1.535492,-3.09861 -2.114883,-4.00107 -3.188375,-4.96623 -2.052473,-1.84535 -5.676538,-3.68902 -8.663687,-4.40748 -0.634333,-0.15257 -0.493922,0.0187 0.789957,0.9639 4.825089,3.55203 9.51927,11.82496 10.93031,19.26336 0.723014,3.81142 0.455729,9.29829 -0.548792,11.26573 -0.552484,1.0821 -0.0041,0.86575 1.4231,-0.56137 z m 82.422439,0.56138 c -1.00452,-1.96744 -1.27181,-7.45431 -0.54879,-11.26574 1.40766,-7.42057 6.10597,-15.71187 10.90522,-19.24487 0.84496,-0.62204 1.47704,-1.13097 1.4046,-1.13097 -0.0724,0 -0.93674,0.24491 -1.92067,0.54425 -2.92396,0.88952 -7.10455,3.35167 -8.37089,4.93001 -0.17536,0.21856 -1.15306,2.07079 -2.17268,4.11607 -1.01963,2.04529 -1.91882,3.71871 -1.99821,3.71871 -0.52078,0 0.94863,-5.45688 2.06312,-7.66164 0.58611,-1.1595 0.45701,-1.67709 -0.98609,-3.95341 -0.87128,-1.37432 -3.02152,-3.52073 -3.52704,-3.52073 -0.20523,0 -0.24558,0.42285 -0.13073,1.37005 1.04171,8.59156 0.86494,17.74538 -0.50271,26.03092 -0.22508,1.36353 -0.47258,2.73182 -0.55003,3.04066 -0.12576,0.50156 -0.0404,0.5573 0.79863,0.52194 l 0.93944,-0.0397 0.12527,-2.47914 c 0.0689,-1.36351 0.2237,-2.83141 0.34401,-3.26201 0.18735,-0.67053 0.24625,-0.502 0.41041,1.17433 0.36008,3.67717 0.86606,5.12183 2.29404,6.54982 1.42712,1.42712 1.97558,1.64347 1.4231,0.56137 z M 62.096748,152.73901 c 2.859564,-0.54246 5.699701,-1.60269 9.06614,-3.38446 4.138188,-2.19022 6.386286,-3.84929 9.71088,-7.16652 4.242515,-4.23312 7.679685,-9.29252 10.358756,-15.24772 2.355916,-5.23688 4.334474,-12.27123 4.723442,-16.79325 0.185209,-2.15308 0.216052,-2.24038 0.573421,-1.62307 0.430444,0.74353 0.541103,5.73535 0.177167,7.99162 l -0.215681,1.3371 2.246347,-0.35971 c 14.28878,-2.28809 22.68711,-7.52992 24.82259,-15.49305 0.98255,-3.663909 0.41839,-8.965841 -1.45784,-13.700483 -2.01505,-5.084962 -6.41443,-14.835878 -9.44142,-20.926246 -1.86822,-3.758876 -3.35522,-6.95432 -3.30446,-7.100984 0.0508,-0.146662 0.56202,0.306174 1.13613,1.006311 1.18229,1.441788 2.24302,1.801405 3.9543,1.340608 2.72798,-0.734571 4.74165,-2.882032 8.81831,-9.404194 5.10658,-8.169894 7.56909,-10.686894 11.60943,-11.866274 2.69104,-0.785519 6.75888,-0.398029 9.02105,0.85932 l 1.04384,0.580188 -0.91336,-0.161571 c -4.36575,-0.77229 -5.66785,-0.747435 -8.631,0.164749 -3.09842,0.953826 -5.69007,3.499853 -8.85342,8.697574 -5.10937,8.39521 -7.03195,10.797411 -9.71448,12.137888 -1.03909,0.51924 -1.98278,0.794649 -2.72289,0.794649 -0.62295,0 -1.13264,0.05354 -1.13264,0.118999 0,0.06545 0.36002,0.729587 0.80003,1.475862 0.44003,0.746275 1.21711,2.189992 1.72685,3.208263 0.50975,1.018269 0.95709,1.885664 0.99411,1.927545 0.037,0.04188 0.77307,-0.337496 1.63567,-0.843055 2.04423,-1.198085 5.85086,-2.462687 7.93514,-2.636134 l 1.65253,-0.137518 -2.16432,0.66257 c -2.61317,0.799976 -4.34476,1.646357 -6.51266,3.183318 -1.68624,1.195492 -1.7996,1.371165 -1.38487,2.146098 0.21656,0.404639 0.45959,0.434073 2.02245,0.244953 3.16267,-0.382709 7.2277,0.440908 9.89703,2.005242 1.60411,0.940069 1.69941,1.328303 0.13096,0.533511 -2.60273,-1.318901 -6.29527,-1.78396 -9.43571,-1.188385 -0.76217,0.144543 -1.43988,0.316926 -1.50603,0.383074 -0.24332,0.243306 0.54775,1.702776 0.92293,1.702776 0.74407,0 3.63893,1.555308 4.78627,2.571493 0.63594,0.56325 1.37847,1.418771 1.65006,1.901155 l 0.49382,0.877064 -1.01574,-0.93205 c -1.35268,-1.241246 -2.21677,-1.755562 -3.953,-2.352914 -0.79766,-0.274439 -1.48484,-0.498978 -1.52705,-0.498978 -0.0423,0 0.52024,1.321118 1.24988,2.935817 3.86605,8.555566 4.51925,10.884697 4.51925,16.114375 0,4.197874 -0.32157,5.571684 -2.05866,8.794924 l -0.87224,1.61847 0.55208,0.50393 c 2.96685,2.70808 5.85409,1.30153 8.41427,-4.09912 0.36558,-0.77114 1.23075,-3.06108 1.92263,-5.088748 0.69188,-2.027667 1.71959,-4.743562 2.2838,-6.035322 1.24768,-2.856572 3.16667,-6.625081 3.1846,-6.253904 0.007,0.148573 -0.6223,1.968886 -1.39883,4.04514 -0.77652,2.076253 -2.01089,5.740905 -2.74304,8.14367 -2.00736,6.587844 -2.83581,8.404774 -4.71529,10.341444 -1.3947,1.43715 -2.4858,1.96101 -4.05417,1.94649 -1.40934,-0.013 -2.44301,-0.43873 -3.76353,-1.54987 l -0.83181,-0.69993 -1.26762,1.24854 -1.2676,1.24855 0.66284,1.07291 c 3.12465,5.05775 7.64134,5.96684 11.57075,2.3289 2.03843,-1.88722 2.88173,-3.65748 4.17988,-8.77443 2.49481,-9.833881 5.85488,-17.798106 13.61799,-32.278184 3.99561,-7.452778 5.09732,-10.452883 5.73067,-15.60536 0.8506,-6.920004 -1.92474,-14.015412 -7.09253,-18.132729 -6.60178,-5.259789 -15.09445,-5.4527 -21.89066,-0.497244 -2.12218,1.547389 -3.59427,2.940334 -6.54559,6.193688 -1.69851,1.872321 -3.53304,3.849069 -4.07674,4.392773 -2.72728,2.72728 -5.12828,4.078819 -7.59817,4.277079 -1.46733,0.117784 -1.60196,0.176557 -1.37514,0.600369 0.1383,0.25839 0.25143,0.599088 0.25143,0.757102 0,0.482802 -0.76217,-0.07369 -3.39249,-2.477017 -6.466396,-5.908328 -11.324611,-8.394761 -18.136838,-9.282444 -2.959152,-0.3856 -7.364063,-0.148279 -10.307983,0.555358 -5.627524,1.345054 -9.432201,3.489772 -14.091925,7.943702 -3.982574,3.806686 -5.186554,4.649342 -4.162098,2.913021 l 0.517605,-0.877276 -1.638798,-0.131546 C 51.991574,54.686219 49.609843,52.856453 42.895954,45.287698 41.772967,44.021727 39.905996,42.223363 38.74713,41.291336 34.72615,38.057431 31.753363,36.810407 27.503404,36.57482 15.946619,35.934195 6.8038353,46.593798 8.3027124,58.960969 c 0.5974288,4.929357 1.7351796,7.98715 5.7700796,15.507539 7.685802,14.325066 11.063042,22.336384 13.552135,32.147702 1.298153,5.11695 2.141451,6.88721 4.179875,8.77443 3.929412,3.63794 8.446107,2.72885 11.570744,-2.3289 l 0.662843,-1.07291 -1.267602,-1.24855 -1.267601,-1.24854 -0.831818,0.69993 c -1.320521,1.11114 -2.354204,1.53683 -3.763536,1.54987 -1.568368,0.0145 -2.659469,-0.50934 -4.054174,-1.94649 -1.879475,-1.93667 -2.707924,-3.7536 -4.715289,-10.341444 -0.732141,-2.402765 -1.966507,-6.067417 -2.743034,-8.14367 -0.77653,-2.076254 -1.406001,-3.896567 -1.398826,-4.04514 0.01793,-0.371177 1.936916,3.397332 3.184595,6.253904 0.56421,1.29176 1.59192,4.007655 2.283799,6.035322 1.984469,5.815818 3.365286,8.380768 5.244587,9.742128 1.628494,1.17967 3.40898,0.98282 5.10287,-0.56418 l 0.562646,-0.51385 -0.871488,-1.47808 c -1.729966,-2.93407 -2.071407,-4.4018 -2.07403,-8.915474 -0.0021,-3.598786 0.07518,-4.322879 0.700637,-6.565271 0.386642,-1.386204 1.648111,-4.664649 2.803259,-7.285434 1.155151,-2.620785 2.100274,-4.856484 2.100274,-4.968222 0,-0.264401 -2.602215,0.632347 -3.562385,1.227634 -0.408914,0.25352 -1.20056,0.880366 -1.759213,1.392993 l -1.015733,0.93205 0.49381,-0.877064 c 0.271594,-0.482384 1.007748,-1.332289 1.635897,-1.88868 1.108581,-0.981937 4.102547,-2.583968 4.829065,-2.583968 0.354817,0 1.126946,-1.47014 0.89431,-1.702776 -0.06615,-0.06615 -0.743863,-0.238531 -1.506033,-0.383074 -3.140452,-0.595575 -6.832986,-0.130516 -9.435714,1.188385 -1.568445,0.794792 -1.473144,0.406558 0.130961,-0.533511 2.669334,-1.564334 6.734359,-2.387951 9.897027,-2.005242 1.562871,0.18912 1.805897,0.159686 2.022454,-0.244953 0.414731,-0.774933 0.301369,-0.950606 -1.384878,-2.146098 -2.167894,-1.536961 -3.899477,-2.383342 -6.512651,-3.183318 l -2.164321,-0.66257 1.652526,0.137518 c 2.08429,0.173447 5.890923,1.438049 7.935139,2.636134 0.862606,0.505559 1.592897,0.884933 1.622866,0.843055 0.02998,-0.04189 0.83615,-1.573413 1.791513,-3.403406 l 1.737021,-3.327261 h -1.130013 c -0.737164,0 -1.682864,-0.276261 -2.720249,-0.794649 C 43.802526,62.286361 41.879941,59.88416 36.770581,51.488951 34.75926,48.184141 32.667901,45.613516 30.909082,44.284197 29.519941,43.234284 27.02733,42.347403 24.76635,42.09859 23.485744,41.957664 22.681439,42.03545 19.286157,42.628628 l -0.913367,0.15957 1.043846,-0.575499 c 3.263192,-1.799076 8.276077,-1.701125 11.608973,0.226836 2.718776,1.572715 5.048426,4.371095 9.211464,11.064837 4.28882,6.895986 6.704347,9.179358 9.740895,9.207973 1.352971,0.01276 1.384264,-0.0051 2.854658,-1.629455 0.817679,-0.903291 1.533887,-1.595152 1.591574,-1.537464 0.173771,0.173772 -0.881154,2.45647 -2.856425,6.180868 -3.151716,5.942598 -9.318633,19.577383 -10.799842,23.877984 -1.497441,4.34773 -1.882183,9.07902 -1.007999,12.395672 1.952821,7.40899 9.459792,12.50342 22.13351,15.02039 1.976443,0.39252 3.64785,0.65935 3.71424,0.59296 0.06638,-0.0664 -0.002,-0.52394 -0.151812,-1.01679 -0.451665,-1.48515 -0.608128,-7.03644 -0.223842,-7.94204 0.330684,-0.77928 0.333136,-0.77568 0.533301,0.78289 0.110597,0.86117 0.742852,4.208 1.405006,7.4374 1.93567,9.44045 1.933137,14.64081 -0.009,18.69325 -1.081291,2.2561 -3.000381,4.11947 -5.520287,5.36002 -1.516113,0.74638 -2.050377,0.8664 -4.249959,0.95475 -2.332419,0.0937 -2.664062,0.0418 -4.548714,-0.71295 -2.347923,-0.94016 -4.886597,-2.63466 -7.851404,-5.24063 -1.148232,-1.00925 -2.848536,-2.21576 -3.778456,-2.68111 -1.514412,-0.75787 -1.922697,-0.84558 -3.914424,-0.84085 -2.369232,0.006 -4.422733,0.66062 -5.377038,1.71512 -0.372778,0.41191 -0.816165,0.49778 -2.570157,0.49778 -2.535422,0 -3.478015,0.43786 -2.982552,1.38549 0.164408,0.31445 0.74364,1.05914 1.287187,1.65487 1.464094,1.60465 2.065225,2.98757 2.337907,5.37843 0.407032,3.56882 1.324819,3.88319 3.984073,1.36464 1.543717,-1.46204 1.47965,-1.8133 -0.213335,-1.16963 -1.156359,0.43965 -0.649531,-0.31235 0.660945,-0.98067 1.368337,-0.69783 2.162698,-0.73164 3.83697,-0.16328 1.772278,0.60161 3.222206,1.66083 6.206956,4.53439 2.913065,2.80454 4.323686,3.84479 6.759243,4.98453 3.213005,1.50354 6.886411,1.88549 10.868559,1.1301 z m 20.342107,-26.09254 c -2.657527,-1.12659 -5.993355,-1.38781 -9.91654,-0.77655 -0.913257,0.1423 -0.913226,0.14225 0.260961,-0.44248 1.018185,-0.50704 1.590706,-0.58537 4.305865,-0.58908 2.900342,-0.004 3.250937,0.0509 4.748752,0.74282 0.889467,0.41089 1.817771,0.9687 2.062898,1.23956 0.556443,0.61487 0.338198,0.58885 -1.461936,-0.17427 z m 1.174327,-4.81989 c -3.678876,-1.28801 -7.298889,-1.28613 -11.051195,0.006 -1.442678,0.49669 -1.461875,0.49687 -0.877099,0.007 1.899878,-1.58809 7.087861,-2.32994 10.123182,-1.44754 1.595391,0.46379 3.005613,1.11693 3.892803,1.80294 0.709345,0.54849 0.353754,0.48561 -2.087691,-0.36915 z M 73.044239,98.845441 c 0,-0.333484 2.255694,-1.423537 4.056049,-1.960065 3.325976,-0.991181 8.161038,-0.403417 10.94924,1.331021 1.2059,0.750148 0.995102,0.802612 -1.066924,0.265525 -4.200742,-1.094155 -8.631041,-1.059104 -12.347828,0.09768 -0.874797,0.272267 -1.590537,0.391891 -1.590537,0.265829 z M 61.216968,97.95918 c -3.300115,-1.721264 -3.320764,-8.745757 -0.03309,-11.253396 1.939901,-1.479633 4.096698,-0.854608 5.295137,1.534491 2.437157,4.858501 -1.310334,11.780035 -5.262056,9.718905 z m 3.985326,-7.817202 c 0.171475,-0.206613 0.273927,-0.705701 0.227674,-1.109085 -0.153369,-1.337556 -2.302269,-1.066706 -2.302269,0.290183 0,1.095861 1.389533,1.644351 2.074595,0.818902 z m 33.432619,7.403528 c -1.656594,-1.200026 -2.495101,-3.166967 -2.495361,-5.853539 -3.97e-4,-3.49039 1.524074,-5.741155 3.888418,-5.741155 2.34616,0 4.28073,2.619997 4.53246,6.13837 0.34043,4.757763 -2.8431,7.689211 -5.925517,5.456324 z m 1.236174,-7.34102 c 0.172233,-0.172234 0.313153,-0.559762 0.313153,-0.861173 0,-0.301411 -0.14092,-0.688939 -0.313153,-0.861173 -0.453666,-0.45367 -1.689952,-0.38805 -1.877094,0.09963 -0.413392,1.077281 0.03718,1.935869 1.015922,1.935869 0.30142,0 0.688938,-0.140919 0.861172,-0.313153 z M 58.04176,78.472831 c 0.07471,-0.192974 0.565772,-0.644447 1.091242,-1.003268 0.799591,-0.54601 1.259733,-0.652404 2.821563,-0.652404 1.64197,0 1.981291,0.08781 2.824457,0.730925 1.317756,1.005102 1.236925,1.305855 -0.281276,1.046554 -1.585098,-0.270725 -3.482269,-0.266981 -5.220504,0.01029 -1.105682,0.176378 -1.34501,0.150788 -1.235482,-0.132112 z m 37.840623,-0.0062 c 0.0777,-0.20243 0.631155,-0.685723 1.229942,-1.073983 1.835011,-1.189848 4.890975,-0.777553 6.333935,0.85454 l 0.52192,0.590334 -1.43528,-0.226901 c -1.80464,-0.285289 -3.941582,-0.284393 -5.548806,0.0024 -1.023989,0.182674 -1.218058,0.156898 -1.101711,-0.146318 z M 16.066012,72.707015 C 14.045971,70.017835 11.547037,65.198131 10.552375,62.072831 9.7211279,59.460999 9.4229971,55.696564 9.8600208,53.330618 c 0.3288512,-1.780319 1.8192872,-5.000259 2.6645812,-5.75656 0.536558,-0.480069 0.531487,-0.437803 -0.09709,0.809437 -1.145905,2.273727 -1.573444,4.199541 -1.56176,7.034816 0.01793,4.353131 0.877417,7.170645 4.59726,15.070531 0.79411,1.686463 1.397994,3.066298 1.341965,3.066298 -0.05604,0 -0.388565,-0.381657 -0.738965,-0.848125 z M 148.47742,69.118148 c 3.12577,-6.736204 3.93957,-9.548671 3.96411,-13.699837 0.0167,-2.836798 -0.40757,-4.753911 -1.5571,-7.034816 -0.62858,-1.24724 -0.63365,-1.289506 -0.0971,-0.809437 0.84529,0.756301 2.33574,3.976241 2.66458,5.75656 0.69258,3.749461 -0.21482,8.604051 -2.43422,13.02289 -1.23614,2.461182 -3.68787,6.472636 -4.23193,6.924167 -0.21331,0.177034 0.54793,-1.694754 1.69165,-4.159527 z M 59.522085,139.58496 c 2.852185,-0.88095 4.873162,-2.63648 6.086735,-5.28727 0.86864,-1.89737 1.17264,-3.66932 1.170803,-6.82437 -0.0012,-2.15832 -0.589953,-7.62357 -0.849094,-7.88272 -0.05902,-0.059 -6.548775,-1.15007 -6.840867,-1.15007 -0.218867,0 -1.655581,2.25345 -3.078014,4.82778 -1.676021,3.03328 -3.393719,6.7972 -4.704153,10.30799 -1.474397,3.95006 -1.473933,3.74786 -0.01053,4.60802 1.632538,0.95959 4.395561,1.90071 5.605441,1.90928 0.523114,0.004 1.701986,-0.22519 2.619712,-0.50864 z"
       id="path1"
       sodipodi:nodetypes="csssssssssssssscsssssssssssssssssscsssssssssssscssssssscsscssssssscssccsssssssssssscssssscsssssssssssssssssscsssccsssscsssssssscssssssssssssssssssssssssssssssssssssssssssssssssssssssssssssssssssssssscssscssssssssssssscssssscssssscssscsssssccsssscsssscssssscsssssssssssssssssssssssscsssssssssssscsssssssssscssssssssssscssssssssssscsssssscsssssssssscccssssssssssssssssscssssssssscccsssssssssscssssssscssssssssssscsssscsssssscssssssssssscsssssssssssssssssssssssssssssssssssssssssssssssssssscsssssssssssssssssssscsssssssssssssssssssssscssssssss" />
  </g>
</svg>
