<?xml version="1.0" encoding="UTF-8" standalone="no"?>
<!-- Created with Inkscape (http://www.inkscape.org/) -->

<svg
   version="1.1"
   id="svg1"
   width="75mm"
   height="75mm"
   viewBox="0 0 283.46457 283.46457"
   sodipodi:docname="flash-logo.svg"
   inkscape:version="1.3.2 (091e20e, 2023-11-25, custom)"
   xmlns:inkscape="http://www.inkscape.org/namespaces/inkscape"
   xmlns:sodipodi="http://sodipodi.sourceforge.net/DTD/sodipodi-0.dtd"
   xmlns="http://www.w3.org/2000/svg"
   xmlns:svg="http://www.w3.org/2000/svg"
   xmlns:inkstitch="http://inkstitch.org/namespace">
  <sodipodi:namedview
     id="namedview1"
     pagecolor="#ff01dd"
     bordercolor="#000000"
     borderopacity="0.25"
     inkscape:showpageshadow="2"
     inkscape:pageopacity="0.0"
     inkscape:pagecheckerboard="0"
     inkscape:deskcolor="#d1d1d1"
     inkscape:zoom="2.5890004"
     inkscape:cx="84.395505"
     inkscape:cy="186.36536"
     inkscape:window-width="1857"
     inkscape:window-height="1057"
     inkscape:window-x="55"
     inkscape:window-y="-8"
     inkscape:window-maximized="1"
     inkscape:current-layer="g1"
     inkscape:document-units="mm" />
  <metadata
     id="metadata15">
    <inkstitch:min_stitch_len_mm>0</inkstitch:min_stitch_len_mm>
    <inkstitch:collapse_len_mm>3</inkstitch:collapse_len_mm>
    <inkstitch:inkstitch_svg_version>1</inkstitch:inkstitch_svg_version>
  </metadata>
  <defs
     id="defs1" />
  <g
     inkscape:groupmode="layer"
     inkscape:label="Image"
     id="g1">
    <g
       id="g9"
       transform="translate(4.36991, 4.36991)"
       inkscape:label="g9">
      <path
         style="fill:none;stroke:#000000;stroke-width:2.52283;stroke-dasharray:none"
         d="m 85.535628,218.9551 c -3.225036,-2.27479 -11.640665,-8.9343 -15.440333,-12.84953 -9.426496,-9.71317 -16.522787,-21.40807 -20.60949,-33.96506 -2.499386,-7.67972 -3.626677,-13.37468 -4.369827,-22.07598 -0.535094,-6.26512 -0.432582,-9.87486 0.507923,-17.88632 1.397542,-11.90469 6.294612,-25.62241 12.870801,-36.053885 13.545867,-21.487147 35.05445,-36.113476 59.514568,-40.471264 5.93326,-1.057071 9.32603,-1.312121 16.74783,-1.258916 8.33259,0.05969 17.38025,1.415247 24.50229,3.671059 1.08639,0.344089 2.31041,1.375007 2.8897,1.898279 m 16.0301,7.945346 c 5.32525,0.06227 26.0285,22.065257 26.72088,23.069329 13.17692,19.108782 19.51076,42.708322 16.13917,65.531932 -3.9818,26.95435 -19.39641,50.23148 -42.47731,64.14384 -22.46494,13.54102 -49.19537,16.22302 -74.70365,7.49541 -3.67726,-1.25819 -4.708027,-2.13572 -5.406117,-2.50681"
         id="path9-8"
         sodipodi:nodetypes="cssssssssccssssc" />
      <path
         style="fill:none;stroke:#000000;stroke-width:2.52283;stroke-dasharray:none"
         d="m 67.454539,260.13159 c 3.187607,-3.67124 7.23938,-8.32705 9.003942,-10.34623 1.76456,-2.01919 8.299301,-9.52854 14.521646,-16.68746 6.222345,-7.15892 14.247893,-16.38713 17.834533,-20.50713 12.36968,-14.20914 15.8883,-18.25278 22.37427,-25.71291 8.99415,-10.345 14.54744,-16.71547 21.45794,-24.61562 3.25023,-3.71569 5.90951,-6.82736 5.90951,-6.91481 0,-0.0875 -0.18774,-0.0993 -0.4172,-0.0264 -0.22945,0.0729 -1.84396,0.21808 -3.5878,0.32264 -1.74384,0.10457 -5.31743,0.35895 -7.94131,0.56533 -2.62389,0.2064 -4.81951,0.31931 -4.87916,0.25095 -0.0597,-0.0684 7.58609,-12.43963 16.99054,-27.49172 9.40445,-15.0521 17.0762,-27.39819 17.04834,-27.43573 -0.0279,-0.0376 -1.02118,0.0647 -2.20736,0.22714 -1.1862,0.16251 -2.98274,0.38986 -3.99233,0.50521 -1.90216,0.21737 -11.23512,1.39821 -13.43341,1.69964 -0.68836,0.0944 -1.25156,0.0896 -1.25156,-0.0107 0,-0.1003 2.00658,-3.82466 4.45906,-8.27641 2.45249,-4.451881 9.00594,-16.354516 14.56325,-26.450433 23.97785,-43.560456 30.16753,-54.783572 30.64708,-55.569258 l 0.50927,-0.834374 -0.68216,0.667499 c -0.37518,0.367124 -5.60879,6.449706 -11.63025,13.516847 -6.02146,7.067142 -12.17224,14.276127 -13.66841,16.019966 -1.49616,1.743841 -7.65888,8.952825 -13.69494,16.019967 -16.13671,18.893214 -21.40679,25.06267 -31.21799,36.545548 -4.86201,5.690418 -11.38908,13.334088 -14.50461,16.985928 -3.11553,3.65183 -7.93464,9.28384 -10.70915,12.51561 -2.77451,3.23173 -5.01958,5.90866 -4.98904,5.94871 0.0305,0.04 4.16784,-0.59581 9.19401,-1.41302 5.02619,-0.81722 9.19754,-1.42685 9.26968,-1.3547 0.10489,0.10489 -17.06089,28.26834 -32.562856,53.42478 -1.470493,2.38632 -2.62157,4.39188 -2.557951,4.45683 0.116719,0.11911 1.841969,-0.0503 13.284557,-1.30423 3.45677,-0.3788 6.5528,-0.64237 6.88005,-0.58569 0.63048,0.10923 1.19708,-0.92375 -17.996311,32.81052 -4.177567,7.34249 -11.764909,20.70915 -16.860764,29.70369 -5.095852,8.99454 -9.372349,16.50391 -9.503325,16.68747 -0.705229,0.9884 -2.368259,4.2631 -1.94914,3.83811 0.27154,-0.27534 3.101746,-3.50437 6.289349,-7.17561 z"
         id="path13-7" />
      <path
         style="fill:#fdfdfd;stroke-width:0.333749"
         d="M 81.673875,215.53341 C 62.885305,201.54698 50.884711,182.48532 46.825849,160.18105 41.540134,131.13499 51.013795,101.87043 72.377986,81.24935 85.219084,68.854908 100.70011,61.031301 118.72004,57.829577 c 6.20858,-1.103118 18.51073,-1.406513 24.73317,-0.609967 6.55304,0.838865 15.65049,2.910748 15.65049,3.564285 0,0.176417 10.07133,-1.079081 5.24828,4.552492 -4.82307,5.631575 -11.33443,13.242968 -14.4697,16.91421 -8.41254,9.850671 -22.84306,26.745673 -32.33036,37.851833 -4.58905,5.3721 -8.38306,9.87194 -8.43113,9.99964 -0.0481,0.1277 4.42287,-0.50871 9.93543,-1.41425 5.51255,-0.90554 10.10723,-1.56202 10.2104,-1.45884 0.17044,0.17044 -3.49308,6.20927 -27.35355,45.0889 l -7.550798,12.30371 2.41672,-0.2205 c 2.705881,-0.24688 11.131938,-1.11904 12.929828,-1.33833 0.64246,-0.0783 2.28357,-0.24746 3.64689,-0.37577 l 2.47877,-0.23328 -0.66271,1.12896 c -0.36448,0.62093 -4.02052,7.06136 -8.12451,14.31205 -4.104,7.25071 -21.642068,19.37247 -21.841025,19.59476 -0.275441,0.30775 -1.118154,-0.1589 -3.53236,-1.95607 z"
         id="path15"
         sodipodi:nodetypes="ssssssssssssscssscssss" />
      <path
         style="fill:#fdfdfd;stroke-width:0.333749"
         d="m 126.39628,232.04808 c -4.89196,-0.48577 -10.19933,-1.35759 -14.01747,-2.30259 -5.45811,-1.35089 -10.17935,-2.91951 -10.17935,-3.38206 0,-0.3381 -0.70356,-5.55328 41.17919,-53.64374 11.84594,-13.6017 15.05756,-17.34065 15.05756,-17.5299 0,-0.10961 -4.08927,0.13337 -9.08726,0.53996 -4.998,0.40658 -9.13872,0.68781 -9.20159,0.62493 -0.0628,-0.0628 5.40165,-8.95228 12.14337,-19.75424 6.74173,-10.80195 14.49111,-23.22668 17.22083,-27.61051 l 4.96315,-7.97057 -2.26207,0.22488 c -1.24415,0.12368 -2.71264,0.28928 -3.26332,0.368 -1.93258,0.27626 -11.36842,1.4676 -13.34998,1.68552 -1.10137,0.12113 -2.11514,0.28747 -2.25281,0.36964 -0.64385,0.38434 0.0391,-1.01991 3.86768,-7.952585 2.2649,-4.101202 5.96194,-10.798395 8.21564,-14.882652 2.2537,-4.084258 12.92007,-11.430914 13.09724,-11.430914 0.62919,0 6.93949,4.413921 10.3359,7.229741 4.5523,3.774117 6.75166,5.914442 10.34551,10.067811 11.21541,12.961542 17.72694,26.794689 20.70126,43.977859 1.01379,5.85692 1.10704,20.51861 0.16854,26.50065 -5.8135,37.05563 -33.31623,66.00636 -69.74519,73.41725 -6.56245,1.33503 -18.08437,2.03468 -23.93683,1.45352 z"
         id="path12"
         sodipodi:nodetypes="ssssssssscsssssssssssss" />
      <path
         style="fill:#fcfc00;stroke-width:0.333749"
         d="m 61.987429,265.81271 c 0.606292,-1.10138 1.209514,-2.15268 1.340487,-2.33625 0.130977,-0.18356 4.407473,-7.69291 9.503325,-16.68746 5.095854,-8.99455 12.683198,-22.3612 16.860764,-29.70369 19.193395,-33.73428 18.626795,-32.70129 17.996315,-32.81051 -0.32726,-0.0566 -3.42329,0.20687 -6.88006,0.58569 -11.442581,1.25397 -13.167832,1.42334 -13.284551,1.30421 -0.06361,-0.065 1.087459,-2.07051 2.557952,-4.45681 15.501959,-25.15645 32.667789,-53.31986 32.562859,-53.42478 -0.0721,-0.0721 -4.2435,0.53746 -9.26968,1.35467 -5.02618,0.81722 -9.16349,1.45308 -9.19402,1.41303 -0.0305,-0.04 2.21454,-2.71697 4.98904,-5.94872 2.77451,-3.23175 7.59363,-8.86376 10.70916,-12.5156 3.11552,-3.65183 9.6426,-11.2955 14.5046,-16.985921 9.8112,-11.482891 15.08129,-17.652344 31.218,-36.545547 6.03605,-7.067142 12.19877,-14.276127 13.69494,-16.019967 1.49616,-1.74384 7.64694,-8.952825 13.6684,-16.019967 6.02146,-7.067141 11.25507,-13.149722 11.63026,-13.516846 l 0.68216,-0.667499 -0.50927,0.834373 c -0.47955,0.785686 -6.66924,12.008811 -30.64709,55.569259 -5.5573,10.095915 -12.11076,21.998544 -14.56325,26.450285 -2.45248,4.45173 -4.45905,8.17612 -4.45905,8.27641 0,0.1003 0.56319,0.1051 1.25156,0.0107 2.19828,-0.30145 11.53125,-1.4823 13.4334,-1.69965 1.0096,-0.11536 2.80615,-0.3427 3.99233,-0.50519 1.18619,-0.16251 2.17951,-0.26473 2.20737,-0.22717 0.0279,0.0376 -7.64389,12.38363 -17.04834,27.43573 -9.40446,15.05209 -17.0502,27.42337 -16.99055,27.49174 0.0597,0.0684 2.25528,-0.0446 4.87916,-0.25096 2.62389,-0.20639 6.19748,-0.46079 7.94132,-0.56535 1.74384,-0.10456 3.35834,-0.24973 3.58781,-0.32263 0.22945,-0.0729 0.41718,-0.0609 0.41718,0.0265 0,0.0875 -2.65928,3.19914 -5.90951,6.91482 -6.9105,7.90013 -12.46379,14.27062 -21.45793,24.61562 -6.48598,7.46012 -10.00459,11.50377 -22.37427,25.71289 -3.58665,4.12001 -11.612191,13.34822 -17.834536,20.50715 -6.222345,7.15891 -12.757087,14.66827 -14.521646,16.68746 -1.764563,2.01918 -5.816336,6.67498 -9.003943,10.34623 -7.156863,8.24273 -7.019235,8.10527 -5.680696,5.67373 z"
         id="path11" />
      <path
         id="path1"
         style="fill:none;stroke:#000000;stroke-width:0.333749px"
         d="m 86.985151,217.01261 -3.208849,-2.39452 -4.216368,-3.35338 -2.194035,-1.82295 -2.103748,-1.81314 -1.884359,-1.70635 -1.553917,-1.51641 -1.682283,-1.78299 -1.639036,-1.83808 -1.583888,-1.88007 -1.527824,-1.92044 -1.470716,-1.9591 -1.412638,-1.99616 -1.35354,-2.03158 -1.293492,-2.06536 -1.232473,-2.09754 -1.170482,-2.12797 -1.107491,-2.15687 -1.043563,-2.18403 -0.97863,-2.20957 -0.912787,-2.23352 -0.845995,-2.25573 -0.779528,-2.28032 -0.855807,-2.73558 -0.738857,-2.60215 -0.633396,-2.52442 -0.541255,-2.5097 -0.461976,-2.55883 -0.394718,-2.67149 -0.338836,-2.84632 -0.293713,-3.0805 -0.166437,-2.18696 -0.104856,-2.00719 -0.04208,-1.91165 0.02213,-1.9075 0.08886,-1.99547 0.158488,-2.16286 0.543801,-5.22069 0.292655,-2.17805 0.369557,-2.21299 0.444782,-2.24478 0.517501,-2.26832 0.587646,-2.2838 0.655146,-2.29111 0.719987,-2.29053 0.782011,-2.28194 0.841309,-2.26536 0.897739,-2.24091 0.951309,-2.20855 1.001909,-2.16831 1.049517,-2.12018 1.094091,-2.06416 1.135425,-2.00022 1.175762,-1.932135 1.257347,-1.939113 1.303762,-1.902197 1.347283,-1.861684 1.389895,-1.820539 1.431628,-1.77876 1.472448,-1.736485 1.512365,-1.69357 1.551368,-1.650017 1.589541,-1.605911 1.626763,-1.561193 1.663126,-1.515883 1.698544,-1.470002 1.733124,-1.423457 1.766792,-1.376391 1.799546,-1.328694 1.831435,-1.280399 1.862405,-1.231517 1.892469,-1.18197 1.921728,-1.131935 1.949987,-1.081251 1.977402,-1.029917 2.003961,-0.978079 2.029579,-0.925583 2.054319,-0.872491 2.07824,-0.81883 2.10119,-0.764577 2.12333,-0.709661 2.14456,-0.654232 2.16489,-0.598126 2.1844,-0.541474 2.20302,-0.484187 2.21506,-0.42525 3.99341,-0.636897 1.79167,-0.216867 1.79351,-0.162369 1.86771,-0.112761 2.01593,-0.06835 4.84083,-0.02523 3.07121,0.08023 3.10321,0.193815 3.11094,0.303295 3.08562,0.408058 3.02714,0.507753 2.93534,0.602034 2.80985,0.690434 2.54937,0.742799 0.51375,0.228331 0.56357,0.358954 0.57209,0.440065 0.49124,0.424176 m -76.479006,159.09963 -3.268691,-2.43918 -4.315397,-3.43214 -2.267594,-1.88407 -2.181926,-1.88053 -1.995477,-1.80696 -1.69026,-1.64947 -1.79772,-1.90533 -1.729763,-1.93983 -1.671637,-1.98422 -1.612556,-2.02694 -1.552452,-2.06798 -1.491382,-2.10743 -1.429261,-2.14523 -1.366156,-2.1814 -1.302019,-2.2159 -1.236919,-2.24875 -1.170749,-2.28006 -1.103579,-2.30964 -1.035347,-2.33763 -0.966087,-2.36395 -0.895843,-2.38865 -0.823137,-2.40786 -0.893973,-2.85758 -0.776832,-2.7359 -0.671296,-2.67547 -0.575605,-2.66896 -0.490277,-2.71561 -0.416026,-2.81568 -0.353627,-2.97059 -0.303498,-3.18311 -0.174321,-2.29055 -0.111679,-2.13778 -0.04549,-2.06624 0.024,-2.06873 0.0955,-2.14449 0.168987,-2.30617 0.558973,-5.36636 0.312566,-2.32623 0.394329,-2.36132 0.472496,-2.38467 0.547826,-2.40122 0.620392,-2.41106 0.690264,-2.41395 0.757521,-2.40993 0.822121,-2.39897 0.884243,-2.38096 0.943822,-2.35595 1.000991,-2.3239 1.055723,-2.28476 1.108171,-2.23866 1.158383,-2.185474 1.206361,-2.125181 1.250061,-2.054234 1.328809,-2.049324 1.373909,-2.004538 1.420034,-1.962216 1.465262,-1.919255 1.509505,-1.875528 1.552789,-1.831229 1.595174,-1.786299 1.636607,-1.740676 1.677131,-1.694402 1.71667,-1.647474 1.755267,-1.599867 1.792941,-1.551697 1.829718,-1.502789 1.865468,-1.453268 1.900332,-1.403113 1.934257,-1.352282 1.967235,-1.300838 1.999248,-1.248659 2.030331,-1.195901 2.060478,-1.142521 2.089667,-1.088389 2.117911,-1.033695 2.145223,-0.978322 2.171546,-0.92228 2.19695,-0.865603 2.2214,-0.808317 2.24491,-0.750292 2.26741,-0.691711 2.28899,-0.632409 2.30959,-0.572514 2.32923,-0.51192 2.35357,-0.451844 4.15909,-0.663323 1.955,-0.236632 1.93873,-0.175518 2.00413,-0.120998 2.14939,-0.07289 4.98629,-0.02596 3.23498,0.08451 3.27514,0.204548 3.27769,0.319549 3.25142,0.429985 3.19641,0.536148 3.11286,0.638446 3.00106,0.737412 2.96237,0.863136 1.14298,0.507987 1.04971,0.668593 0.85102,0.654633 0.59504,0.513793 M 81.653166,211.3811 l -4.526015,5.69078 m -12.699591,-23.42753 -5.935278,4.20027 m -5.333237,-26.19826 -6.880245,2.35202 m 4.776975,-9.49793 -7.052554,1.76953 m 4.739184,-16.4683 -7.249463,0.56136 m 7.494117,-15.38056 -7.232033,-0.75331 m 8.260228,-6.59293 -7.132503,-1.41323 M 55.0158,110.97797 48.266121,108.27396 m 14.83563,-12.548282 -5.997622,-4.11076 m 17.07358,-9.250193 -5.083493,-5.198835 m 6.85724,3.497989 -4.898097,-5.373864 m 18.733247,-5.123652 -3.78212,-6.2101 m 5.88132,4.97263 -3.526022,-6.359007 m 21.737596,-1.343562 -1.93635,-7.008589 m 16.49751,4.145554 -0.65559,-7.241545 m 8.09091,6.921903 -0.0379,-7.271062 m 9.99273,7.64848 0.70553,-7.236854"
         inkstitch:satin_column="true" />
      <path
         id="path2"
         style="fill:none;stroke:#000000;stroke-width:0.333749px"
         d="m 177.87455,70.313319 0.3413,0.04324 0.30187,0.09126 0.49168,0.211173 0.60458,0.317869 1.58275,1.001509 1.82893,1.341939 2.02079,1.627755 2.14352,1.842126 2.20605,1.988639 2.20667,2.064176 4.23129,4.127628 3.60161,3.669219 2.54632,2.696334 0.98782,1.117759 2.26571,3.445566 2.17058,3.640154 2.00579,3.727515 1.83685,3.80711 1.66382,3.87896 1.4866,3.94304 1.30537,3.99936 1.12379,4.06146 0.48607,2.02627 0.44148,2.04899 0.39318,2.05731 0.34434,2.06459 0.29506,2.07098 0.24528,2.07639 0.195,2.08082 0.14426,2.08437 0.093,2.0869 0.0413,2.08855 -0.0109,2.08927 -0.0636,2.08897 -0.11682,2.08785 -0.1705,2.08578 -0.22463,2.08276 -0.27924,2.07836 -0.39625,2.45156 -0.46065,2.4286 -0.52449,2.40523 -0.58767,2.38089 -0.65012,2.35564 -0.7119,2.32926 -0.77302,2.302 -0.83344,2.27372 -0.89319,2.24445 -0.95228,2.21415 -1.01067,2.18291 -1.06841,2.15062 -1.12546,2.1174 -1.18187,2.08316 -1.23756,2.0479 -1.29264,2.01163 -1.34706,1.97445 -1.40075,1.93622 -1.45379,1.89694 -1.50622,1.85675 -1.55796,1.8155 -1.60903,1.7733 -1.65947,1.73005 -1.70921,1.68584 -1.75835,1.64059 -1.8068,1.59439 -1.85465,1.54717 -1.90181,1.49895 -1.94832,1.4497 -1.99422,1.39947 -2.03945,1.34825 -2.08427,1.29608 -2.0608,1.20399 -2.08391,1.14188 -2.1059,1.07959 -2.12696,1.01724 -2.1471,0.95488 -2.16623,0.89244 -2.18444,0.8299 -2.20173,0.76728 -2.21812,0.70465 -2.2335,0.64188 -2.248,0.57905 -2.26154,0.51615 -2.27414,0.45313 -2.28582,0.39006 -2.29653,0.32681 -2.30634,0.26356 -2.31524,0.20015 -2.32312,0.13666 -2.33013,0.073 -2.33618,0.01 -2.34126,-0.0545 -2.34546,-0.11851 -2.34867,-0.18259 -2.35092,-0.24675 -2.35226,-0.31113 -2.35266,-0.3756 -2.35208,-0.44014 -2.35053,-0.50492 -2.34811,-0.56978 -2.34464,-0.63472 -2.34023,-0.6999 -2.31256,-0.75785 -2.15866,-0.81755 -1.35106,-0.63523 -0.85989,-0.49022 -0.601318,-0.35893 m 78.789428,-158.057006 0.74513,0.0944 0.95183,0.287749 0.91626,0.393514 0.94477,0.496745 1.88796,1.194629 2.05163,1.505343 2.16598,1.744714 2.2456,1.929843 2.28188,2.057004 2.27639,2.129383 4.30529,4.199817 3.67124,3.740148 2.63341,2.78857 1.26926,1.436223 2.51384,3.822894 2.27985,3.823412 2.10705,3.915678 1.93005,4.00029 1.74884,4.0772 1.56333,4.14652 1.37351,4.20814 1.17553,4.24849 0.51872,2.16235 0.46526,2.15939 0.41455,2.16909 0.36321,2.1777 0.31136,2.1854 0.25895,2.19212 0.20596,2.19784 0.15245,2.20264 0.0983,2.20639 0.0436,2.20914 -0.0116,2.21096 -0.0674,2.21172 -0.12375,2.21152 -0.18067,2.2103 -0.23815,2.20805 -0.29628,2.20524 -0.4171,2.58052 -0.48525,2.55828 -0.55265,2.53438 -0.61937,2.50935 -0.68535,2.48326 -0.75065,2.45603 -0.81523,2.42776 -0.87915,2.39837 -0.94232,2.36791 -1.00482,2.33632 -1.06658,2.30368 -1.12766,2.26989 -1.18802,2.23509 -1.24769,2.19918 -1.30662,2.16216 -1.36487,2.12405 -1.4224,2.08487 -1.47916,2.04461 -1.53526,2.00324 -1.59065,1.96082 -1.6453,1.91729 -1.69922,1.8727 -1.75245,1.82699 -1.80491,1.78021 -1.85669,1.73235 -1.90769,1.68343 -1.95802,1.63339 -2.00755,1.58229 -2.0564,1.53014 -2.1045,1.47685 -2.15183,1.42254 -2.19827,1.36697 -2.17602,1.2713 -2.20089,1.20598 -2.2249,1.14058 -2.24776,1.07503 -2.26961,1.00937 -2.29038,0.94358 -2.3101,0.87763 -2.32871,0.81155 -2.3463,0.74536 -2.36276,0.67903 -2.37818,0.61258 -2.39252,0.54604 -2.40576,0.47936 -2.41798,0.41261 -2.42909,0.34568 -2.4391,0.27873 -2.44811,0.21163 -2.45597,0.14449 -2.46284,0.0771 -2.46854,0.01 -2.47326,-0.0576 -2.47689,-0.12514 -2.47941,-0.19275 -2.4809,-0.26041 -2.48137,-0.3282 -2.48069,-0.39603 -2.47902,-0.46391 -2.47627,-0.53191 -2.47245,-0.59996 -2.46761,-0.66801 -2.46169,-0.73623 -2.47709,-0.81177 -2.43713,-0.92302 -1.693659,-0.79629 -1.06765,-0.60867 -0.642898,-0.38375 M 192.48616,83.398577 197.5635,78.19373 m 11.7013,27.55829 6.54878,-3.15964 m -3.49122,10.2316 6.80367,-2.56512 m -5.08068,7.46007 6.91229,-2.25612 m -4.32198,12.16509 7.14191,-1.36495 m -6.28285,6.4748 7.19847,-1.0256 m -6.88289,3.563 7.22843,-0.78721 m -8.98193,28.77111 7.05931,1.74242 m -7.68377,0.75872 7.00912,1.93441 m -17.14362,21.63584 6.19828,3.80148 m -9.00173,0.43116 5.89115,4.26195 m -23.63871,14.21414 4.42333,5.77095 m -8.5577,-2.78514 4.00983,6.06556 m -24.66216,4.18792 2.27687,6.90548 m -4.6947,-6.13826 2.00836,6.98829 m -19.67853,-3.7155 0.56529,7.24915 m -5.6456,-7.02695 0.029,7.2711 m -17.9736,-8.92254 -1.33747,7.14709"
         inkstitch:satin_column="true" />
      <path
         id="path3"
         style="fill:none;stroke:#000000;stroke-width:0.333749px"
         d="m 69.357634,261.78777 9.003923,-10.34623 14.521709,-16.68751 17.834814,-20.50746 22.37327,-25.7118 21.4598,-24.61773 4.19462,-4.84227 2.92983,-3.53891 -1.57268,-2.44905 -1.56201,-0.38453 -0.75314,0.12012 -1.11962,0.13648 -2.29857,0.16854 -7.93365,0.5648 -0.0961,0.006 2.48304,-4.0388 12.04019,-19.35812 12.06383,-19.35243 7.53163,-12.213841 -5.58434,0.32161 -1.62365,0.199096 -3.99712,0.50581 -9.95163,1.259125 2.25466,-4.130983 14.56091,-26.446244 24.1336,-43.821874 6.4844,-11.694887 6.93472,-11.3758853 -1.50412,-1.1968715 -9.62069,9.4037048 -3.77114,4.33015 -7.9408,9.280647 -13.66872,16.020433 -13.69415,16.019048 -31.21862,36.546263 -14.50489,16.986269 m -52.195436,147.53455 9.003902,-10.34619 14.521389,-16.68716 17.834725,-20.50736 22.37573,-25.71459 21.45536,-24.61266 1.9972,-2.30557 -5.95557,0.42397 -3.44184,0.23126 -1.20019,0.0465 -4.7244,-0.21059 3.46009,-5.84417 3.65357,-5.94274 12.04844,-19.37141 12.0587,-19.34419 2.25054,-3.64964 -1.00232,0.12684 -13.49533,1.70748 -1.14108,0.0874 -1.03565,-0.0812 -2.68381,-1.55602 2.43869,-4.66654 3.16236,-5.794053 14.56558,-26.454734 19.32308,-35.086886 -10.02003,11.743904 -13.69463,16.019608 -31.21756,36.545024 -14.50446,16.985757 m 23.8448,62.08414 -5.70512,-4.97329 m 9.67365,-19.11144 0.53744,7.54938 m 8.35821,-22.94381 -6.4268,-3.99728 m 13.98552,-8.1414 -6.42274,-4.00377 m 2.71636,-21.290031 0.95003,7.508611 m 7.36182,-23.558851 -6.62999,-3.650373 m 31.92879,-42.290288 -6.6296,-3.651059 m -4.21386,-3.382961 5.7576,4.912439"
         inkstitch:satin_column="true" />
      <path
         id="path4"
         style="fill:none;stroke:#000000;stroke-width:0.333749px"
         d="m 117.74855,110.93892 -10.71173,12.51863 -3.56766,4.19621 -5.508196,6.7867 9.104446,-1.2871 3.74741,-0.59537 2.74041,-0.43539 4.05453,-0.63126 -0.20129,0.33641 -7.55892,12.45359 -5.88284,9.62263 -4.604982,7.5324 -11.648862,18.95598 -1.88328,3.1474 -0.620304,1.11877 -1.415698,3.31002 3.402494,0.74611 0.761596,-0.0137 1.990995,-0.16951 3.012558,-0.32286 7.893993,-0.84599 2.70756,-0.26769 -5.280862,9.39863 -10.994613,19.33738 -7.331203,12.9154 -9.529584,16.7883 -9.481818,16.64972 -0.678172,1.10437 -0.79984,1.49336 -0.614405,1.29776 -0.382928,1.13614 1.117552,4.24106 3.269889,-2.25015 6.496971,-7.41247 m 52.230523,-147.57516 -10.70655,12.51258 -0.69513,0.81759 2.58865,-0.41127 4.03976,-0.62897 2.47783,-0.38578 2.09097,-0.28941 5.6096,-0.48185 -3.10956,5.48722 -2.14986,3.59276 -7.57135,12.47408 -10.49505,17.16687 -3.918715,6.37684 -7.717582,12.55869 -0.144199,0.24099 3.016062,-0.32323 5.438994,-0.5829 4.65384,-0.46011 1.63863,-0.12263 0.99792,-0.0197 0.72752,0.10232 1.55954,0.79052 0.36392,1.8927 -0.26377,1.01994 -0.63508,1.37859 -1.25559,2.35045 -5.4506,9.70072 -11.00049,19.34773 -16.861215,29.70445 -7.04693,12.37415 m 42.890325,-143.11292 5.75062,4.92059 m -0.8302,10.87413 -1.16435,-7.47839 m -2.27155,12.46938 6.46995,3.92704 m -27.389622,30.27176 6.448244,3.96259 m 2.05434,12.5157 -0.806495,-7.52539 m -1.702122,14.59022 6.584105,3.7325 m -38.050683,51.65035 6.576777,3.7454"
         inkstitch:satin_column="true" />
    </g>
  </g>
</svg>
