<?xml version="1.0" encoding="UTF-8" standalone="no"?>
<!-- Created with Inkscape (http://www.inkscape.org/) -->

<svg
   version="1.1"
   id="svg1"
   width="60mm"
   height="60mm"
   viewBox="0 0 226.77165 226.77165"
   sodipodi:docname="flores.svg"
   inkscape:version="1.3.2 (1:1.3.2+202311252150+091e20ef0f)"
   xmlns:inkscape="http://www.inkscape.org/namespaces/inkscape"
   xmlns:sodipodi="http://sodipodi.sourceforge.net/DTD/sodipodi-0.dtd"
   xmlns="http://www.w3.org/2000/svg"
   xmlns:svg="http://www.w3.org/2000/svg"
   xmlns:inkstitch="http://inkstitch.org/namespace">
  <metadata
     id="metadata1">
    <inkstitch:min_stitch_len_mm>0</inkstitch:min_stitch_len_mm>
    <inkstitch:collapse_len_mm>3</inkstitch:collapse_len_mm>
    <inkstitch:inkstitch_svg_version>1</inkstitch:inkstitch_svg_version>
  </metadata>
  <defs
     id="defs1" />
  <sodipodi:namedview
     id="namedview1"
     pagecolor="#ffffff"
     bordercolor="#666666"
     borderopacity="1.0"
     inkscape:showpageshadow="2"
     inkscape:pageopacity="0.0"
     inkscape:pagecheckerboard="0"
     inkscape:deskcolor="#d1d1d1"
     inkscape:zoom="2.4791667"
     inkscape:cx="134.72269"
     inkscape:cy="153.27731"
     inkscape:window-width="1848"
     inkscape:window-height="1016"
     inkscape:window-x="72"
     inkscape:window-y="27"
     inkscape:window-maximized="1"
     inkscape:current-layer="g1"
     inkscape:document-units="mm" />
  <g
     inkscape:groupmode="layer"
     inkscape:label="Image"
     id="g1">
    <path
       style="fill:#000000;stroke-width:0.718881"
       d="m 192.58809,216.35279 c -0.35502,-0.43889 -3.58938,-7.02398 -4.17923,-8.50884 -2.05821,-5.18122 -2.57935,-15.32859 -1.19592,-23.28623 0.57007,-3.27912 1.0374,-5.58747 1.31026,-6.47188 0.10456,-0.33891 0.0767,-0.34168 -0.48989,-0.0487 -0.33042,0.17086 -1.37391,0.59042 -2.31886,0.93235 -2.13368,0.77205 -2.91072,1.44754 -4.51778,3.92737 -1.5166,2.34025 -1.99844,2.74532 -3.26562,2.74532 -0.78127,0 -1.07596,-0.10845 -1.63971,-0.60344 -0.99698,-0.87536 -1.53061,-2.43747 -1.53296,-4.48757 l -0.002,-1.64037 -1.29084,-0.61659 c -2.02081,-0.96529 -2.80731,-2.4526 -2.80938,-5.31271 -7.2e-4,-1.41503 0.06,-1.63889 0.88368,-3.23954 0.48663,-0.94571 0.85438,-1.74987 0.81722,-1.78703 -0.0372,-0.0372 -0.63495,0.0662 -1.32843,0.22966 -0.71998,0.16971 -2.19894,0.29846 -3.44759,0.30013 -4.38599,0.006 -6.89881,-1.13552 -9.07041,-4.11994 -1.31675,-1.8096 -1.7956,-2.04324 -6.88331,-3.35841 -1.87808,-0.48548 -3.05127,-1.98158 -2.7622,-3.52247 0.42148,-2.2467 1.70375,-3.32338 5.0839,-4.26876 l 1.13862,-0.31847 0.76241,-1.65022 c 1.25318,-2.71252 2.87141,-4.14485 5.50912,-4.87627 2.44303,-0.67743 5.93664,-0.27826 9.50709,1.08625 0.6972,0.26646 1.44511,0.55266 1.662,0.63602 0.2169,0.0834 -0.4529,-0.72836 -1.48844,-1.80382 -2.3112,-2.4003 -4.18133,-4.73468 -4.84966,-6.05357 -0.64614,-1.27511 -0.87145,-2.90221 -0.64814,-4.6807 0.27014,-2.15135 0.9866,-3.53575 2.60562,-5.0347 0.75479,-0.69883 1.43822,-1.2706 1.51872,-1.2706 0.0805,0 0.37201,-0.33273 0.64782,-0.73942 0.43811,-0.64601 0.49961,-0.93868 0.48687,-2.31685 -0.0118,-1.27047 0.0729,-1.75009 0.43491,-2.46473 0.82167,-1.62195 1.78627,-2.36615 3.06691,-2.36615 1.46413,0 2.37542,0.82845 3.25345,2.95769 0.69337,1.68143 1.04822,2.11602 2.5842,3.16487 1.9932,1.36106 4.40581,4.25639 5.22378,6.26897 0.49831,1.22606 0.50227,1.21975 0.97007,-1.54669 0.17422,-1.03026 0.54718,-2.8936 0.82881,-4.14076 0.72724,-3.22043 0.76231,-7.56305 0.082,-10.15471 -1.00592,-3.83214 -3.44582,-9.13427 -5.85251,-12.71802 -2.11543,-3.15005 -3.6592,-5.12337 -7.11427,-9.09386 -4.07481,-4.682653 -4.07665,-4.68463 -3.92544,-4.220168 0.0698,0.214435 0.29687,1.383946 0.50459,2.598912 1.00713,5.891146 0.6023,12.842646 -1.08751,18.673826 -2.74468,9.47131 -7.82674,18.00515 -15.10763,25.36888 -2.66578,2.69611 -5.89986,5.54756 -6.1845,5.45281 -0.51158,-0.1703 -0.17885,-0.76162 1.40646,-2.49951 8.85914,-9.71185 14.22072,-18.78546 17.49289,-29.60389 2.16941,-7.17247 2.57407,-16.313392 0.99568,-22.491619 -0.22714,-0.889061 -1.53747,-3.508893 -1.755,-3.508893 -0.0261,0 -0.0485,1.220041 -0.0498,2.711209 -0.004,4.276966 -0.80787,7.813004 -2.89922,12.748333 -1.09328,2.58001 -2.0992,4.13113 -4.29381,6.621 -1.95365,2.21651 -2.84851,2.92312 -5.4969,4.34054 -2.46727,1.32048 -3.37074,2.10915 -5.23253,4.56757 -0.80842,1.06748 -1.70145,2.09264 -1.98453,2.27812 -0.65884,0.43169 -2.81912,0.58168 -3.61712,0.25113 -0.89789,-0.37192 -1.46411,-1.17976 -2.25183,-3.21274 -1.02152,-2.6364 -1.41299,-3.03432 -3.3424,-3.39754 -1.94697,-0.36652 -2.62244,-0.78108 -3.77852,-2.31901 -1.20083,-1.59745 -1.99669,-3.19983 -2.34574,-4.72285 -0.68806,-3.00229 -0.55406,-8.300185 0.28666,-11.334056 0.8768,-3.164025 2.8183,-6.959701 5.22344,-10.211924 0.59825,-0.808957 1.08773,-1.51755 1.08773,-1.574651 0,-0.05708 -0.42148,0.108752 -0.9366,0.368556 -0.96918,0.488795 -5.77011,1.65147 -7.82542,1.895128 -1.58176,0.18752 -9.88772,-0.10592 -11.30064,-0.399245 -0.62333,-0.129406 -2.42009,-0.80997 -3.99278,-1.512367 -1.57271,-0.702404 -3.53634,-1.578001 -4.36364,-1.94578 -1.73395,-0.770827 -3.78689,-1.137392 -8.1306,-1.451773 -3.812574,-0.275935 -4.507818,-0.461076 -5.576419,-1.484985 -0.775328,-0.742884 -0.858862,-0.913136 -0.858862,-1.750366 0,-1.722956 0.739463,-2.772678 3.031341,-4.303203 1.509146,-1.007814 2.43427,-1.86385 2.82857,-2.617323 0.16789,-0.320837 0.56043,-1.563062 0.87231,-2.760502 1.91878,-7.367144 7.01151,-12.802703 13.85266,-14.785191 3.14867,-0.912452 7.01265,-1.087971 10.53081,-0.478356 0.68371,0.118472 1.28712,0.171401 1.3409,0.117619 0.14393,-0.143924 -4.2828,-1.977973 -6.43969,-2.668049 -7.09413,-2.269691 -17.20985,-0.231553 -24.581979,4.952828 -2.370854,1.667279 -6.592215,5.910656 -7.980453,8.022072 -4.75618,7.233841 -5.962038,15.030179 -3.590493,23.213903 0.953379,3.289915 2.342602,5.80451 4.473595,8.097559 1.144846,1.23191 1.303122,1.656424 0.663829,1.780402 -0.395076,0.07661 -2.740417,-2.122603 -3.995892,-3.746936 -3.34066,-4.322141 -5.358357,-11.803432 -4.804222,-17.813337 0.23608,-2.560452 0.932582,-5.511479 1.855941,-7.863492 0.36627,-0.932972 0.638589,-1.696312 0.605161,-1.696312 -0.100564,0 -1.950395,2.964986 -2.706406,4.337933 -1.63388,2.967202 -2.570207,5.099675 -4.285565,9.760349 -0.997856,2.711201 -2.440722,6.216054 -3.206359,7.788555 -1.299139,2.668205 -1.505422,2.971595 -3.089749,4.544125 -2.085437,2.069902 -3.078217,2.591004 -5.166587,2.711898 -3.691604,0.213709 -7.356271,-1.885523 -8.465065,-4.849037 -0.630832,-1.686063 -0.890118,-4.029996 -0.599151,-5.416443 0.313036,-1.49162 1.4495,-3.738755 2.217776,-4.385216 3.005288,-2.528785 7.687933,-2.02953 9.112013,0.971503 1.101893,2.322063 -0.811629,6.198815 -3.353024,6.793164 -1.191883,0.278739 -2.147706,0.06391 -2.147706,-0.482772 0,-0.319283 0.180079,-0.396211 1.124466,-0.480349 0.940655,-0.08381 1.237503,-0.20974 1.815907,-0.770352 1.105171,-1.071169 1.606914,-3.068744 1.067933,-4.251677 -0.3196,-0.70144 -1.334034,-1.279859 -2.483352,-1.415979 -1.115293,-0.132094 -2.533918,0.387009 -3.446875,1.261283 -1.245583,1.192803 -1.716551,3.961127 -1.056625,6.210778 0.612882,2.089283 1.57473,2.920956 4.161615,3.598379 1.903179,0.498386 3.010701,0.197807 4.675103,-1.268796 1.717212,-1.513143 2.848148,-3.648988 5.904246,-11.150602 2.186785,-5.367765 2.921718,-6.886487 4.72319,-9.760342 3.092906,-4.934078 6.342498,-8.627326 9.640572,-10.956784 0.596463,-0.421289 1.92742,-1.507235 2.957677,-2.413215 4.481812,-3.941173 9.256759,-6.367101 15.084179,-7.66358 2.93198,-0.652304 8.24391,-0.84452 10.83808,-0.392184 0.97233,0.169542 1.78798,0.288135 1.81258,0.263541 0.0474,-0.04746 -1.21894,-1.003104 -6.92781,-5.22778 -5.02939,-3.721865 -7.58037,-4.899387 -12.722698,-5.872766 -3.338151,-0.631868 -8.713381,-0.843681 -12.052589,-0.474937 -2.14207,0.236545 -5.431475,1.031298 -6.876569,1.661447 l -0.690125,0.300936 0.749785,0.0077 c 2.142703,0.02205 5.945266,1.440656 7.91372,2.952326 1.406325,1.079985 2.105228,1.333875 4.350285,1.580326 2.147434,0.235735 3.779063,0.860918 4.292682,1.644807 0.782501,1.194243 0.647474,3.129265 -0.293117,4.200534 -0.730088,0.831529 -1.427244,1.21191 -2.998178,1.635866 -1.169339,0.315575 -1.190862,0.334431 -1.979093,1.733377 -0.93709,1.663137 -1.497357,2.300563 -2.571509,2.925636 -0.829265,0.482569 -2.599465,0.883752 -3.899518,0.883752 -1.204578,0 -4.610276,-0.754928 -6.212661,-1.377136 -1.200222,-0.466049 -1.429214,-0.506875 -1.314826,-0.234428 0.481557,1.147037 0.877948,2.768786 0.877948,3.591949 0,1.315763 -0.780683,3.354347 -1.700268,4.439893 -2.587195,3.054101 -2.598654,3.080998 -2.814512,6.605975 -0.165422,2.701317 -0.41744,3.417581 -1.408438,4.00298 -0.670924,0.396319 -1.996504,0.417742 -2.719353,0.04392 -0.806074,-0.416836 -2.298463,-2.098607 -2.879116,-3.244489 l -0.512857,-1.012076 h -1.561272 c -1.941424,0 -2.337822,-0.149757 -3.629262,-1.37115 -1.624347,-1.536244 -2.295617,-3.276888 -2.295617,-5.952725 v -1.157513 l -1.405426,1.18005 c -1.56432,1.313462 -4.776186,2.98788 -6.460013,3.367752 -1.567664,0.353666 -3.835603,0.142107 -5.362599,-0.500239 -0.695524,-0.292579 -1.70832,-0.643741 -2.250643,-0.78036 -1.027317,-0.258795 -1.884819,-0.121004 -6.022913,0.967819 -1.645446,0.432951 -2.641843,0.211244 -3.513788,-0.781849 -1.706867,-1.944008 -1.201559,-4.125568 1.675884,-7.235273 0.914416,-0.988232 0.920634,-1.02515 0.563638,-3.348015 -0.134841,-0.877385 0.257827,-2.739635 0.819927,-3.888526 0.291693,-0.596196 0.981135,-1.544347 1.532093,-2.107002 L 39.43244,44.507736 36.86912,44.39008 C 31.4507,44.141375 25.992145,43.147194 22.60759,41.792548 20.598728,40.988516 16.56874,38.634579 14.19386,36.878042 9.6439413,33.512784 6.87234,29.27616 5.417541,23.462704 3.7100123,16.639352 6.7709778,9.657448 12.715021,6.8175306 c 1.392178,-0.6651495 1.594564,-0.7065534 3.453662,-0.7065534 1.83367,0 2.068946,0.046303 3.291834,0.6478158 3.066494,1.5083527 4.679813,4.34364 4.687958,8.238733 0.0072,3.287015 -1.499463,5.642228 -4.509503,7.050796 -2.894631,1.354562 -5.472537,0.464259 -6.622085,-2.286999 -0.383063,-0.916811 -0.406204,-3.474755 -0.03602,-3.981026 0.430379,-0.588576 0.719952,-0.171258 0.721138,1.039262 0.0014,1.454445 0.285158,2.442252 0.91727,3.193476 0.649027,0.771321 1.446137,1.182114 2.293798,1.182114 0.980733,0 2.966217,-1.071939 3.854358,-2.08092 1.001789,-1.138095 1.29704,-2.22714 1.167347,-4.305866 C 21.706257,11.145372 19.582195,8.7288821 16.560006,8.6936232 13.261069,8.6551343 9.3639732,12.37305 8.4163377,16.46286 c -0.6209476,2.679851 -0.4704355,4.759117 0.5829761,8.053893 1.5460682,4.835655 3.8822362,7.892691 8.5721282,11.21723 5.132219,3.638085 7.748657,4.75211 13.997701,5.959923 3.192053,0.616957 7.124798,1.108117 7.318867,0.914051 0.06463,-0.06463 -0.06053,-0.117506 -0.278178,-0.117506 -0.897673,0 -3.573391,-0.838728 -5.260884,-1.649075 -4.77142,-2.291268 -8.425908,-6.03622 -10.996798,-11.269011 -0.658466,-1.340236 -1.138887,-2.531163 -1.067603,-2.646503 0.29669,-0.480053 0.750634,-0.101575 2.290771,1.909962 4.177603,5.456273 9.827388,9.765258 14.883571,11.351423 2.171516,0.681222 5.053415,0.987544 6.746401,0.717088 1.400373,-0.223711 1.645425,-0.319481 1.206217,-0.471411 -5.0567,-1.749213 -6.734345,-2.554304 -7.854153,-3.76915 -2.351488,-2.551063 -2.958669,-6.08467 -1.613312,-9.388932 0.774342,-1.901817 0.786038,-2.701476 0.05521,-3.776611 -0.751216,-1.105171 -1.017166,-1.952121 -1.017166,-3.239305 0,-3.097185 2.764887,-4.440973 5.171146,-2.513274 1.743689,1.396901 2.403672,1.689413 4.433187,1.964847 2.195771,0.297997 4.535857,1.023946 6.25593,1.940735 1.379813,0.735436 3.499994,2.757769 4.551508,4.341465 0.408202,0.614796 0.770273,1.117811 0.804607,1.117811 0.03436,0 0.01308,-0.865121 -0.04716,-1.922492 -0.193724,-3.397722 0.752194,-7.799485 2.143861,-9.976305 0.762179,-1.192186 1.768777,-1.871482 3.080469,-2.078832 1.473871,-0.232988 2.77301,0.04181 4.925805,1.041927 2.885034,1.34029 2.843842,1.339289 3.649794,0.08874 0.848854,-1.317112 1.595591,-2.030345 2.537792,-2.423927 0.907314,-0.379006 2.710813,-0.39672 3.576223,-0.03513 1.546262,0.646069 2.873798,2.404019 2.883388,3.818241 0.0022,0.351294 -0.173085,1.105503 -0.389928,1.67602 -0.566062,1.489312 -0.496524,2.318006 0.417942,4.981135 1.664253,4.846632 1.161395,8.191883 -1.859873,12.372707 -0.607361,0.840474 -1.082671,1.528135 -1.05623,1.528135 0.02645,0 1.206274,-0.52405 2.621858,-1.164556 4.755893,-2.15189 7.460171,-2.758288 13.033021,-2.922484 5.595315,-0.164858 9.650244,0.437045 13.535044,2.009109 2.91473,1.179501 4.06392,1.942552 10.36629,6.883102 0.33329,0.261273 0.31585,0.230334 -0.83965,-1.489543 -1.26261,-1.87932 -1.73962,-3.267816 -1.85988,-5.413781 -0.0839,-1.496963 -0.0266,-2.047429 0.33823,-3.248475 0.63238,-2.081975 1.1894,-3.071321 2.77739,-4.932993 0.77394,-0.90733 1.49867,-1.842544 1.61052,-2.078254 0.29256,-0.616562 0.0623,-1.543121 -0.85294,-3.432406 -1.08189,-2.233248 -1.19645,-3.352022 -0.49091,-4.794111 1.35673,-2.773046 4.35059,-3.169421 7.63195,-1.01044 3.01469,1.983526 4.49331,2.498163 8.45693,2.94347 2.92044,0.328106 6.59453,1.307501 9.88048,2.633823 2.57827,1.040676 3.5178,1.625124 5.23561,3.25688 2.63119,2.499369 4.42432,5.303491 5.44907,8.521317 0.9105,2.859056 2.11029,7.034315 2.11639,7.365057 0.005,0.278838 0.0293,0.28297 0.17072,0.02914 0.0906,-0.162673 0.21822,-0.961247 0.28358,-1.774608 0.12058,-1.500287 1.7205,-7.708414 2.4806,-9.625422 0.66985,-1.689382 1.728,-3.181878 3.45074,-4.867215 4.06228,-3.974064 8.03381,-5.623664 18.96195,-7.875971 4.29025,-0.884227 5.28972,-1.366905 7.57408,-3.657801 1.95274,-1.9583332 2.96137,-2.4850061 4.43986,-2.3183587 3.06744,0.3457449 5.07601,4.7038657 4.15769,9.0212527 -0.35907,1.688189 -0.39353,2.527922 -0.13197,3.215892 0.10059,0.264584 0.90767,1.179847 1.7935,2.033918 1.73973,1.67736 3.29375,3.533833 3.82105,4.56474 0.59422,1.161714 0.75894,2.680744 0.50428,4.6502 -0.57743,4.465473 -2.03007,7.537758 -5.51301,11.659852 -1.47201,1.742124 -6.04228,5.755872 -8.6484,7.595272 -1.91592,1.352256 -6.83734,3.961379 -9.26987,4.914486 l -1.50384,0.589224 1.39334,0.0075 c 0.76633,0.0041 1.91982,0.101779 2.56332,0.21702 2.37663,0.425624 6.35577,1.633719 8.36702,2.540286 1.1387,0.513271 2.60275,1.137224 3.25344,1.386562 2.37836,0.911363 9.10312,4.314294 10.2762,5.200063 1.21315,0.916019 2.50452,2.423692 3.12323,3.646343 0.43532,0.860277 0.76727,4.08196 0.6086,5.906817 -0.0688,0.79161 -0.34825,2.69144 -0.62094,4.221843 -0.66491,3.731631 -0.43062,4.980061 1.76491,9.404341 1.09569,2.207963 1.21295,2.562997 1.20468,3.647802 -0.017,2.241305 -1.08531,3.433439 -2.89395,3.229579 -0.49043,-0.05528 -1.87612,-0.557966 -3.0793,-1.117083 -3.21425,-1.493662 -2.94738,-1.510196 -5.40597,0.334934 -2.58637,1.941028 -3.54385,2.304717 -5.96335,2.265128 -5.67838,-0.09292 -11.57768,-3.235639 -19.41631,-10.343601 -2.87176,-2.604067 -4.55297,-4.550688 -6.65807,-7.709105 -0.92157,-1.382717 -1.70491,-2.514034 -1.74074,-2.514034 -0.13658,0 0.39952,1.356111 1.28894,3.260448 2.58651,5.537977 8.08613,12.124787 13.01944,15.593178 4.39065,3.086874 5.84927,4.005964 9.27796,5.846184 4.10125,2.20117 4.85737,2.67342 8.86248,5.53521 4.05196,2.89526 5.54384,4.40415 6.75754,6.83458 1.20194,2.40689 1.5964,3.98265 1.47958,5.91043 -0.22529,3.71766 -2.65694,5.95596 -6.16457,5.6744 -2.41837,-0.19412 -4.32712,-1.55784 -5.52118,-3.94463 -0.57568,-1.15072 -0.69212,-1.59627 -0.69212,-2.64843 0,-2.12381 0.83693,-3.01589 2.55683,-2.72531 1.24603,0.21051 3.07776,1.21905 3.74564,2.06232 1.07151,1.35289 0.60851,1.92994 -0.57159,0.71238 -1.03305,-1.06584 -3.47417,-1.94934 -4.15346,-1.50324 -0.42004,0.27585 -0.34758,1.6862 0.14365,2.79593 0.53228,1.20247 1.6532,2.41932 2.69165,2.92203 0.99163,0.48004 2.76681,0.54206 3.75054,0.13103 1.58414,-0.6619 2.36787,-2.85138 1.81252,-5.06366 -0.47136,-1.87769 -1.57874,-3.9788 -2.78205,-5.27852 -1.85277,-2.00121 -8.16966,-6.32043 -13.30627,-9.09827 -1.46405,-0.79175 -2.96743,-1.64626 -3.34084,-1.89891 -0.3734,-0.25265 -0.71077,-0.42751 -0.7497,-0.38857 -0.039,0.039 0.4113,0.81298 1.00053,1.72009 2.90395,4.47061 5.28206,10.65836 5.85954,15.24627 0.30041,2.38663 -0.008,5.64395 -0.80366,8.476 -0.79765,2.84066 -2.28829,8.91432 -2.44657,9.96857 l -0.13321,0.8873 0.7506,-1.33578 c 1.12881,-2.00882 2.3195,-3.5376 4.02243,-5.16457 1.93335,-1.8471 3.11479,-2.47281 4.65807,-2.46695 2.12514,0.008 3.61875,1.06468 5.60557,3.96553 0.65239,0.95251 1.35075,1.78409 1.55191,1.84793 0.21376,0.0679 0.86371,-0.13529 1.56406,-0.48882 1.46531,-0.73969 2.67194,-0.92796 3.84409,-0.59978 2.44788,0.68537 4.11187,3.79753 3.19418,5.97409 -0.14714,0.34898 -0.72462,1.06021 -1.2833,1.58053 -1.41661,1.31934 -1.5266,1.53859 -1.99834,3.98344 -0.23017,1.19293 -0.59602,2.71824 -0.81298,3.38958 -1.09333,3.383 -4.06818,6.06573 -8.46839,7.63681 l -1.82657,0.65217 1.06812,0.34408 c 3.74387,1.20606 6.36257,3.65239 8.4485,7.89242 0.89144,1.81202 1.07112,2.04296 2.21725,2.84987 3.79397,2.67105 4.50126,4.47072 2.62058,6.66788 -1.07306,1.25363 -2.31951,1.49462 -4.64649,0.89833 l -1.30132,-0.33346 -1.53853,0.9156 c -0.87559,0.52107 -2.00674,1.0128 -2.62512,1.14118 -0.98641,0.20477 -1.22843,0.17883 -2.62516,-0.28134 -0.84622,-0.27879 -1.89087,-0.72929 -2.32144,-1.0011 -1.28322,-0.81007 -3.62164,-2.94393 -4.56235,-4.16327 l -0.87917,-1.13956 -0.13122,0.91739 c -0.0722,0.50457 -0.27035,1.34005 -0.44038,1.85663 -0.45543,1.38364 -0.77585,5.51686 -0.64603,8.33344 0.18553,4.02577 1.17494,8.61105 2.69458,12.48778 2.68385,6.8467 7.66882,11.82772 12.88944,12.87921 1.4227,0.28655 1.65701,0.28574 2.85502,-0.01 4.52507,-1.11668 7.78351,-5.64548 7.46224,-10.37151 -0.0553,-0.81336 -0.19541,-1.79061 -0.31136,-2.17167 -0.29905,-0.98271 -1.41053,-2.75907 -1.99264,-3.18461 -1.2188,-0.89097 -4.50763,-0.84586 -6.16305,0.0845 -2.35094,1.3213 -2.10989,4.34342 0.57804,7.24669 1.06898,1.15464 1.18851,1.57427 0.44841,1.57427 -0.62463,0 -2.80748,-2.32252 -3.50438,-3.7286 -1.52135,-3.0695 -0.26951,-6.22111 2.94422,-7.41232 0.84439,-0.31298 1.5498,-0.39404 3.42921,-0.39404 2.23704,0 2.41744,0.0301 3.30644,0.55273 1.08103,0.63544 2.36587,2.15954 3.02478,3.58802 0.83291,1.80572 1.12323,3.36986 1.00646,5.42242 -0.28813,5.06496 -3.02393,9.06752 -7.68678,11.24603 -4.28057,1.9999 -9.67588,0.46771 -14.25779,-4.04901 -3.86038,-3.80546 -6.23914,-8.4376 -7.47169,-14.54955 -0.42799,-2.12235 -0.4423,-2.1546 -0.5464,-1.23099 -0.17143,1.52093 0.18929,10.06508 0.5397,12.78334 0.36303,2.81613 0.53649,3.46043 2.36509,8.78506 0.72079,2.09884 1.26298,3.94 1.20485,4.09146 -0.13105,0.3415 -0.40112,0.35327 -0.6635,0.0289 z M 179.3672,180.92578 c 1.71126,-2.55189 2.57248,-3.22917 5.30317,-4.17052 2.6903,-0.92743 3.50921,-1.46857 4.23197,-2.79653 0.66745,-1.22632 0.87834,-3.48347 0.49017,-5.24605 -0.51136,-2.32192 -4.13245,-10.34967 -4.58935,-10.17434 -0.13617,0.0523 -0.9129,0.86002 -1.72608,1.79504 -1.46797,1.68795 -3.24166,3.2497 -5.32484,4.68858 -1.39062,0.96051 -2.94812,2.91854 -4.00065,5.02945 -0.71056,1.42509 -0.82692,1.83317 -0.81525,2.8591 0.007,0.65821 0.15833,1.52969 0.3352,1.93664 0.27204,0.6259 0.54338,0.84169 1.761,1.40044 2.09459,0.96119 2.187,1.10859 2.34321,3.73758 0.13115,2.20749 0.28639,2.96372 0.5862,2.85557 0.0879,-0.0317 0.72023,-0.89343 1.40525,-1.91496 z m 1.35249,-9.58722 c -0.0137,-0.65606 1.31258,-5.09622 2.06566,-6.91546 0.98131,-2.37059 2.24228,-4.78491 2.25397,-4.31554 0.006,0.21689 -0.16461,1.45912 -0.37779,2.7605 -0.61388,3.74732 -1.58207,6.19478 -3.16286,7.99534 -0.6274,0.71462 -0.77213,0.80291 -0.77898,0.47516 z m 4.4933,-2.7998 c -0.3026,-0.85492 -0.35608,-4.83216 -0.0895,-6.65659 l 0.17287,-1.18308 0.38297,0.88731 c 0.63397,1.46881 0.99659,3.34888 0.87472,4.53511 -0.11735,1.1422 -0.64005,2.88739 -0.91587,3.05786 -0.0896,0.0554 -0.28089,-0.23293 -0.42519,-0.64061 z m -5.29042,-2.48435 c 0,-0.82355 1.17129,-2.83306 2.45318,-4.20876 0.68866,-0.73906 1.2967,-1.29937 1.3512,-1.24515 0.19429,0.1933 -0.78954,3.14769 -1.3102,3.93444 -0.49281,0.74469 -1.94477,1.98092 -2.32659,1.98092 -0.0922,0 -0.16759,-0.20765 -0.16759,-0.46145 z m 23.65106,8.62392 c 1.59244,-1.0589 1.37967,-1.02718 5.50827,-0.82121 0.8265,0.0413 1.10888,-0.0218 1.27613,-0.28495 0.27012,-0.42496 -0.34591,-1.10752 -2.39538,-2.65408 -1.58,-1.1923 -2.19947,-2.02971 -2.92257,-3.95082 -1.24587,-3.30997 -3.84091,-6.00205 -6.8828,-7.14016 -1.485,-0.55562 -5.57663,-1.34166 -7.78424,-1.49544 -1.03026,-0.0717 -2.30903,-0.21218 -2.84171,-0.31203 -0.53269,-0.0998 -1.00948,-0.14057 -1.05955,-0.0905 -0.161,0.16099 0.93696,2.67995 1.66252,3.81419 0.38672,0.60452 1.12768,2.00606 1.64658,3.11451 1.31326,2.80528 2.48869,4.54395 4.44131,6.56949 2.01925,2.09465 3.63294,3.31651 5.16527,3.91104 1.63673,0.63506 2.42555,0.51068 4.18617,-0.66005 z m -8.14084,-8.38973 c -1.42496,-0.98862 -3.3259,-2.77163 -5.69859,-5.34505 l -1.81681,-1.97051 1.4743,0.7419 c 0.81086,0.40805 1.96327,1.07368 2.5609,1.47917 1.38615,0.94051 3.56156,3.24244 4.32921,4.58099 0.92894,1.61981 0.83098,1.67906 -0.84901,0.5135 z m -4.94452,-1.60358 c -0.71701,-0.717 -1.29739,-1.57941 -1.86034,-2.76431 -0.45002,-0.94721 -0.81822,-1.76815 -0.81822,-1.82432 0,-0.22327 2.34645,1.50825 2.84205,2.09725 0.69647,0.8277 1.23349,1.90086 1.40278,2.80326 0.19919,1.06178 -0.29003,0.96437 -1.56627,-0.31188 z m 6.0959,-2.0118 c -1.64749,-0.44698 -2.09723,-0.66385 -4.01158,-1.93433 l -1.84262,-1.22287 0.72502,-0.0622 c 0.94933,-0.0814 2.42436,0.24352 3.59685,0.7923 1.29974,0.60834 3.43308,2.77481 2.66611,2.70751 -0.0813,-0.007 -0.59154,-0.13334 -1.13378,-0.28046 z m -25.90607,3.64609 c 2.01387,-0.29134 4.31681,-1.3547 5.6927,-2.62853 1.00644,-0.93179 5.70846,-4.45895 7.34746,-5.51161 0.29823,-0.19154 0.53944,-0.41276 0.53602,-0.4916 -0.004,-0.0788 -0.87788,-0.66266 -1.94325,-1.29738 -1.06537,-0.63473 -2.63754,-1.75341 -3.4937,-2.48595 -1.04449,-0.89367 -2.03275,-1.53187 -3.00359,-1.93967 -0.7958,-0.33428 -1.99749,-0.96649 -2.67042,-1.40493 -1.41897,-0.92448 -2.734,-1.41087 -5.34285,-1.97609 -3.10131,-0.67193 -5.36518,-0.46513 -7.29608,0.66645 -1.11951,0.65608 -1.72082,1.45266 -2.47242,3.27529 -0.89602,2.17288 -1.49902,2.6786 -4.10629,3.44382 -1.35779,0.39851 -2.39685,1.19769 -2.39685,1.84349 0,0.31116 0.19566,0.45796 0.83801,0.62877 2.09739,0.55774 4.84313,1.4462 5.47171,1.77052 0.81004,0.41794 2.05938,1.69075 2.92361,2.97853 0.77251,1.1511 1.63326,1.88224 2.90349,2.46627 1.58781,0.73005 4.58728,1.01348 7.01245,0.66262 z m 3.57558,-5.80553 c -0.35245,-0.15873 -0.64083,-0.37197 -0.64083,-0.47388 0,-0.23912 1.34977,-0.77859 2.34707,-0.93806 0.87644,-0.14015 4.15983,0.26948 4.15983,0.51897 0,0.0894 -0.5102,0.36177 -1.13378,0.60515 -1.42911,0.55777 -3.81114,0.70264 -4.73229,0.28782 z m 1.13378,-2.89203 c -1.7894,-0.0669 -3.8302,-0.13441 -4.53512,-0.15013 l -1.28165,-0.0285 0.59153,-0.39696 c 0.32535,-0.21833 1.20015,-0.58425 1.94401,-0.81316 1.93678,-0.596 4.29277,-0.45153 6.83045,0.41883 1.03025,0.35336 2.09502,0.76059 2.36614,0.90497 0.55504,0.29556 0.32337,0.29811 -5.91536,0.0651 z m 3.53175,-1.7279 c -0.93142,-0.40819 -1.99618,-0.95179 -2.36615,-1.208 -1.26153,-0.87364 -2.93874,-2.26786 -2.93947,-2.44354 -10e-4,-0.28076 2.23881,0.001 2.95596,0.37195 0.77423,0.40037 2.28961,1.78664 3.39088,3.102 0.43317,0.51737 0.75713,0.93597 0.71992,0.93022 -0.0372,-0.006 -0.82972,-0.34442 -1.76114,-0.75263 z m 15.90343,0.95021 c 4.33024,-0.76699 8.90971,-3.51609 10.37648,-6.22911 0.63701,-1.17824 0.86234,-2.00768 1.33862,-4.92738 0.44899,-2.7525 1.04405,-4.08434 2.27576,-5.09364 1.02986,-0.84389 1.23202,-1.40914 0.80164,-2.24141 -0.70099,-1.35556 -1.83448,-1.54878 -3.66498,-0.62475 -0.88249,0.44548 -1.44208,0.59154 -2.26634,0.59154 -1.00775,0 -1.1642,-0.0643 -1.97372,-0.81043 -0.48356,-0.44573 -1.38479,-1.56248 -2.00273,-2.48166 -1.28225,-1.90734 -2.09735,-2.61707 -3.16511,-2.75595 -0.62542,-0.0814 -0.9391,0.028 -1.92988,0.67286 -2.15024,1.3995 -4.85574,4.66241 -6.0502,7.29672 -0.81415,1.79558 -1.70625,5.30446 -1.94281,7.64162 -0.10977,1.08449 -0.32371,2.63727 -0.47544,3.45063 -0.15173,0.81336 -0.33069,2.23009 -0.3977,3.14828 -0.0688,0.94298 -0.22304,1.73199 -0.35441,1.81318 -0.53674,0.33172 0.26404,0.4669 3.37027,0.56891 1.80783,0.0594 3.64778,0.12593 4.08877,0.14789 0.44098,0.0219 1.32829,-0.0533 1.97178,-0.1673 z m -6.02703,-0.65135 c 0,-0.15893 4.32934,-3.67262 5.42242,-4.40083 1.29022,-0.85954 3.60884,-2.23339 3.76926,-2.23339 0.0552,0 -0.14497,0.45071 -0.44479,1.00157 -1.07991,1.98415 -3.69555,3.85979 -7.24223,5.19327 -1.39997,0.52636 -1.50466,0.55693 -1.50466,0.43938 z m -1.57743,-0.20652 c 0,-0.41437 1.89222,-3.18353 2.9433,-4.30737 1.15508,-1.23503 3.83356,-3.09916 4.08777,-2.84494 0.31858,0.31857 -2.40947,3.7998 -3.85083,4.91401 -1.76688,1.36584 -3.18024,2.36059 -3.18024,2.2383 z m -0.13237,-2.60764 c 0.0699,-0.75264 0.26424,-1.76476 0.43176,-2.24918 0.35395,-1.02349 1.48362,-2.63904 2.06165,-2.9484 0.36525,-0.19547 0.39946,-0.15557 0.39946,0.46572 0,1.1375 -0.68789,2.97467 -1.66304,4.4415 -1.27284,1.91463 -1.38321,1.94069 -1.22983,0.29036 z m -2.45461,0.86294 c 0.14257,-1.22005 0.30254,-4.39216 0.3555,-7.04914 0.084,-4.21361 0.0446,-5.1631 -0.30863,-7.43091 -0.43434,-2.78913 -0.96102,-4.61671 -1.69413,-5.87865 -0.78725,-1.35516 -2.77213,-3.3408 -4.50202,-4.50375 -1.79577,-1.20725 -2.36034,-1.88265 -3.26206,-3.90249 -0.32112,-0.71929 -0.67959,-1.36698 -0.79663,-1.43931 -0.11805,-0.073 -0.38981,0.15813 -0.61046,0.51909 -0.31862,0.52125 -0.39353,0.96751 -0.37677,2.24474 0.0163,1.24393 -0.0667,1.76374 -0.37813,2.36614 -0.4161,0.80497 -1.68956,2.10721 -3.17113,3.24281 -1.33349,1.0221 -1.89319,2.39209 -1.89336,4.63443 -1.2e-4,1.6791 0.0385,1.84529 0.67335,2.89351 1.69287,2.7954 9.42114,11.54697 12.15222,13.76129 0.73566,0.59647 1.76956,1.46158 2.29755,1.92249 0.52799,0.46091 1.02648,0.83801 1.10774,0.83801 0.0813,0 0.26439,-0.99822 0.40696,-2.21826 z m -2.57385,-1.40659 c -3.11583,-3.53405 -4.92583,-7.1269 -4.66788,-9.26571 0.0647,-0.53627 0.11541,-0.49366 0.93939,0.78871 1.97206,3.06916 2.49637,4.0394 3.59812,6.65838 0.63501,1.50952 1.12972,2.76943 1.09934,2.7998 -0.0304,0.0303 -0.46641,-0.41116 -0.96897,-0.98118 z m 0.46897,-3.41438 c -0.72723,-2.80634 -1.2235,-5.48937 -1.2235,-6.61474 0,-0.40568 0.0107,-0.40442 0.50443,0.0594 0.6714,0.63076 1.56874,2.56785 1.86749,4.03138 0.2529,1.23892 0.12156,5.17677 -0.1828,5.48114 -0.0871,0.0871 -0.52158,-1.24369 -0.96562,-2.9572 z m -35.72967,-34.46689 c 1.86029,-2.43652 3.05233,-3.41247 6.15257,-5.03724 2.07223,-1.08602 2.64829,-1.50007 3.9638,-2.84902 2.46781,-2.53052 3.53758,-4.07554 4.98386,-7.197914 2.31485,-4.997515 3.22862,-9.942739 2.86012,-15.478531 -0.14944,-2.245093 -0.25868,-2.787934 -0.87985,-4.372599 -0.39007,-0.995111 -0.91011,-2.505048 -1.15565,-3.355419 l -0.44642,-1.54614 -0.0188,3.05965 c -0.0143,2.327937 -0.1207,3.540092 -0.44491,5.068591 -0.48616,2.292022 -1.38018,4.945447 -2.24189,6.65391 -0.51264,1.016368 -0.61689,1.122302 -0.79363,0.806476 -0.37107,-0.663059 -0.41312,-7.224679 -0.0721,-11.253201 0.32834,-3.879095 0.4147,-11.230683 0.11686,-9.948257 -0.0881,0.379569 -0.30744,1.658896 -0.48729,2.84295 -0.47396,3.120228 -1.7106,6.392846 -3.0265,8.009256 l -0.39529,0.485568 -0.23128,-0.591538 c -0.32719,-0.836827 -0.0814,-3.503019 0.5152,-5.58896 0.26847,-0.938657 1.15047,-3.068892 1.95998,-4.733855 1.30879,-2.691821 1.77641,-4.169818 1.31929,-4.169818 -0.0839,0 -0.40615,0.687667 -0.71607,1.528139 -1.16968,3.17209 -5.43387,12.767909 -6.85643,15.429234 -1.22322,2.288392 -2.88062,5.104787 -3.2753,5.565647 -0.52645,0.614744 -0.68588,0.175299 -0.54424,-1.50016 0.50455,-5.968285 2.90366,-11.646717 6.93539,-16.41528 3.40862,-4.031577 3.3202,-3.895536 1.45078,-2.232189 -2.2817,2.030191 -5.27696,4.569263 -7.29203,6.181429 -1.65133,1.321152 -5.61672,5.662394 -7.813,8.553538 -4.02415,5.297289 -6.21982,9.879557 -6.79645,14.183848 -0.29857,2.228667 -0.11874,6.861485 0.32367,8.338715 0.34124,1.13942 1.28365,2.80374 2.21372,3.90953 0.47869,0.5691 0.74902,0.69032 2.03949,0.91441 0.81822,0.14208 1.75558,0.39688 2.08304,0.56622 1.14539,0.5923 2.39341,2.39859 3.0195,4.37018 0.50121,1.57833 0.75323,1.90229 1.42794,1.83557 0.52236,-0.0516 0.84629,-0.36196 2.12194,-2.03274 z m 48.67158,-19.424783 c 0.47072,-0.213601 1.53548,-0.935487 2.36615,-1.60419 1.74295,-1.403111 2.78598,-1.931913 3.82264,-1.938016 0.81815,-0.005 2.58273,0.61015 4.43798,1.546679 0.67329,0.339873 1.35979,0.617957 1.52556,0.617957 0.58008,0 0.30702,-1.074856 -0.87665,-3.450627 -1.30394,-2.617194 -2.17316,-5.496404 -2.17274,-7.197025 1.5e-4,-0.596469 0.23631,-2.237976 0.52482,-3.647809 0.4055,-1.981552 0.5284,-3.167468 0.54148,-5.225235 0.0162,-2.555223 -0.004,-2.698395 -0.51825,-3.57226 -1.36723,-2.325715 -3.91678,-3.85609 -14.84477,-8.910606 -2.31543,-1.070954 -5.00177,-2.009844 -7.58272,-2.650201 -0.89059,-0.220963 -2.11496,-0.315772 -3.95224,-0.30604 -2.41339,0.01278 -3.16985,0.11632 -8.10274,1.109037 -8.07641,1.625328 -10.35755,2.25836 -9.87543,2.740487 0.4517,0.451697 0.25378,0.744579 -0.50733,0.75075 -0.62789,0.0051 -0.68385,0.03828 -0.37103,0.220034 0.20262,0.117722 0.76167,1.044222 1.24232,2.058894 0.48065,1.014665 0.95816,1.896918 1.06114,1.960568 0.10298,0.06362 0.18724,0.281686 0.18724,0.484533 0,0.202846 0.34031,1.240198 0.75624,2.305213 0.73889,1.892008 3.06591,5.548729 6.31411,9.922133 2.17681,2.93087 7.83416,7.982078 12.25317,10.94033 1.77747,1.189913 4.95232,2.787511 6.62776,3.335125 2.93567,0.959512 5.71569,1.158103 7.14329,0.510269 z M 170.15671,74.85076 c -2.19424,-0.790424 -4.39692,-2.74595 -5.8522,-5.195557 -0.77903,-1.311303 -2.31294,-5.375615 -2.32117,-6.150295 -0.004,-0.364543 0.0134,-0.363257 0.43962,0.03279 0.33752,0.313609 0.9861,0.489552 2.71121,0.735481 6.98537,0.995825 10.47218,2.205069 13.66506,4.739145 1.87753,1.490125 1.72875,1.963824 -0.55268,1.759691 -3.91304,-0.350117 -6.9069,-1.498162 -13.11238,-5.028147 -1.01226,-0.575823 -0.91784,-0.45769 1.41766,1.773666 2.5568,2.442785 3.89693,4.179601 4.79919,6.219775 0.70013,1.583119 0.53553,1.736578 -1.19431,1.113453 z m 2.61617,-9.991804 c -0.95001,-0.147868 -2.76898,-0.538274 -4.04217,-0.86757 -1.27319,-0.329295 -3.22744,-0.832551 -4.34279,-1.118347 -1.11534,-0.285795 -2.00265,-0.542998 -1.97178,-0.571562 0.0308,-0.02856 1.03215,-0.156742 2.22507,-0.28484 6.19611,-0.665343 10.38628,-0.581491 13.59303,0.272018 1.84737,0.491698 4.44883,1.611618 4.44883,1.91521 0,0.08702 -0.33274,0.246309 -0.73942,0.35397 -2.46347,0.652154 -6.13994,0.772869 -9.17077,0.301121 z m -40.2718,17.337881 c 1.58829,-0.284131 3.17916,-0.694454 3.7464,-0.966277 0.54225,-0.259839 2.62741,-1.711274 4.63371,-3.225409 3.28633,-2.480175 4.04714,-3.175721 7.67786,-7.019207 2.58647,-2.738037 4.82901,-4.90406 6.26043,-6.046815 1.2267,-0.979313 2.23035,-1.809724 2.23035,-1.845359 0,-0.123742 -3.18447,0.914367 -7.93794,2.587704 -9.11541,3.208832 -18.43659,5.752707 -23.67295,6.460668 -1.31159,0.177326 -0.7291,-0.310708 1.65561,-1.387116 5.52978,-2.496026 12.97515,-4.551968 25.71594,-7.101108 2.06052,-0.412262 3.5514,-0.77864 3.31307,-0.814174 -0.23832,-0.03554 -2.23476,0.272399 -4.43652,0.684297 -3.77729,0.706642 -4.2146,0.748116 -7.74959,0.734956 -3.05258,-0.01137 -3.99941,-0.08386 -5.11258,-0.39148 -0.7514,-0.207643 -1.39702,-0.473208 -1.43469,-0.590143 -0.0736,-0.22845 1.83943,-1.224945 3.29941,-1.718648 2.09877,-0.709718 6.38086,-0.907342 9.16323,-0.422893 0.32534,0.05665 -0.25474,-0.195898 -1.28907,-0.561212 -1.03433,-0.365314 -3.96244,-1.560088 -6.5069,-2.655052 -3.86536,-1.663392 -5.16142,-2.121029 -7.87975,-2.782338 -6.89894,-1.678361 -10.57498,-2.164234 -13.85665,-1.831479 -2.68334,0.272085 -4.63346,0.790778 -6.51605,1.733141 -4.93491,2.470256 -8.08924,6.535782 -9.6167,12.394666 -0.97442,3.737605 -1.63615,4.728129 -4.408465,6.598863 -0.796289,0.537327 -1.640148,1.2215 -1.875243,1.520375 -0.392444,0.49891 -0.400704,0.562955 -0.10083,0.782228 0.421566,0.308257 1.049371,0.399562 5.219708,0.75911 1.89784,0.163624 4.02738,0.43383 4.73229,0.600459 0.70491,0.16663 3.2781,1.22713 5.71818,2.356671 4.88867,2.263008 5.58123,2.441434 9.65659,2.487867 1.0331,0.01179 2.41075,0.09184 3.06144,0.177915 1.52616,0.201913 2.91161,0.08769 6.30971,-0.52021 z m 2.19336,-7.657288 c 0.16066,-0.418683 2.52829,-2.402942 4.01777,-3.36722 1.65699,-1.072707 3.64397,-2.065366 6.0547,-3.024799 1.98501,-0.79 9.35811,-3.211569 9.46204,-3.107639 0.0839,0.08392 -5.45133,4.029733 -7.45808,5.316508 -3.14805,2.01861 -6.1025,3.312262 -9.34031,4.089796 -1.9503,0.468344 -2.89235,0.500485 -2.73612,0.09335 z m 27.00797,-2.497281 c -0.0715,-0.447547 -0.27129,-1.002113 -0.44382,-1.23237 -0.29349,-0.391675 -0.30492,-0.393242 -0.1775,-0.0243 0.0749,0.216893 0.23734,0.771459 0.36093,1.23237 0.28636,1.067883 0.4294,1.081232 0.26039,0.0243 z m -8.20179,-3.609019 c 2.38652,-1.931359 4.57353,-4.096415 4.35684,-4.313102 -0.28529,-0.285288 -4.36733,3.289416 -5.80162,5.080558 -0.75262,0.939879 -0.4974,0.804305 1.44478,-0.767456 z M 71.273594,66.589104 c 0.116718,-1.428552 0.34676,-2.789219 0.571618,-3.380994 0.373071,-0.981847 1.853051,-3.009104 2.889117,-3.957468 0.721224,-0.660179 1.467932,-2.290586 1.470305,-3.210374 0.0022,-0.914372 -0.640818,-2.878134 -1.262369,-3.854285 -0.647266,-1.016534 -2.593268,-2.788232 -5.350054,-4.870861 -2.958164,-2.234756 -4.4065,-3.156447 -4.604351,-2.930114 -0.08453,0.0967 -0.356183,1.107488 -0.60368,2.246195 -0.523561,2.408883 -1.364752,4.890277 -2.272662,6.704077 -0.75292,1.504151 -1.08771,3.22065 -1.08771,5.576745 0,2.691534 0.264886,3.565515 1.451686,4.78976 l 1.01304,1.045013 1.876221,-0.112375 c 1.835784,-0.109953 1.890168,-0.100633 2.523716,0.432467 0.356134,0.299664 0.874152,0.999121 1.151165,1.554348 0.44948,0.900916 1.819574,2.577598 1.977354,2.419818 0.03371,-0.03372 0.149175,-1.137083 0.256604,-2.451952 z M 66.951404,56.243666 C 66.395048,53.666583 65.488403,45.57846 65.77579,45.756074 c 0.06873,0.04246 0.418697,0.832487 0.777778,1.755627 0.359088,0.923142 0.684231,1.6471 0.722532,1.608796 0.05967,-0.05965 -0.570194,-2.138797 -1.02288,-3.376597 -0.224248,-0.613181 1.182802,1.010502 2.237206,2.581647 1.21043,1.803636 1.702187,3.307889 1.702187,5.206912 0,2.624277 -0.195212,2.568313 -1.387016,-0.397641 -0.587577,-1.462246 -1.070435,-2.784331 -1.073015,-2.937966 -0.0029,-0.153635 -0.05082,-0.233224 -0.107178,-0.176863 -0.05636,0.05636 0.04141,0.714443 0.217267,1.462408 0.17586,0.747965 0.325006,2.114145 0.331447,3.035956 0.01157,1.65434 -0.343589,3.746395 -0.635986,3.746395 -0.08272,0 -0.346751,-0.909486 -0.586728,-2.021082 z m -2.053547,-1.669572 c -0.798914,-1.546245 -0.967758,-4.067647 -0.415176,-6.200115 0.447015,-1.72508 0.522504,-1.776516 0.808087,-0.550555 0.554264,2.379418 0.708428,4.26775 0.465835,5.706019 -0.128198,0.760028 -0.310075,1.429449 -0.404169,1.487604 -0.09409,0.05816 -0.298659,-0.141174 -0.454577,-0.442953 z m 95.040763,10.993359 c -0.36937,-0.785247 -0.72372,-1.343374 -0.78743,-1.24028 -0.12136,0.196355 1.22853,2.898508 1.37486,2.752165 0.0463,-0.0463 -0.21805,-0.72663 -0.58743,-1.511885 z m -1.34447,-3.812172 c 0.16819,-0.202652 -0.1205,-0.325838 -1.38817,-0.592342 -0.88028,-0.185063 -1.63363,-0.303359 -1.67411,-0.262879 -0.0607,0.06067 2.3154,1.008325 2.72619,1.087296 0.0681,0.01308 0.2193,-0.09135 0.33609,-0.232075 z m 4.37105,-1.143821 c 1.81173,-0.921419 2.54266,-1.151478 7.19702,-2.265226 2.99552,-0.716801 7.9437,-2.340415 9.93131,-3.258693 2.75448,-1.272574 6.31644,-3.329399 8.1361,-4.698129 2.81459,-2.117095 6.62134,-5.692397 8.33126,-7.824711 2.6959,-3.361855 3.785,-5.576047 4.35751,-8.859056 0.39225,-2.249352 0.37232,-3.364257 -0.0774,-4.327579 -0.45797,-0.981078 -2.0442,-2.824511 -3.88735,-4.517672 -1.50362,-1.381266 -1.91269,-2.040561 -2.25424,-3.633132 -0.17248,-0.804268 -0.15327,-1.314083 0.0948,-2.513393 0.39657,-1.917624 0.39615,-3.705854 -0.001,-4.871872 -0.37891,-1.112063 -1.44233,-2.131297 -2.0562,-1.970768 -0.23018,0.0602 -1.10733,0.791798 -1.94919,1.625783 -2.63667,2.611975 -4.22201,3.352074 -9.08867,4.242933 -3.62702,0.663937 -7.84865,1.673591 -10.2551,2.452629 -4.6059,1.491067 -9.04943,5.026963 -10.55215,8.396777 -0.54187,1.215112 -2.1852,6.442771 -2.57234,8.182917 -0.15682,0.704913 -0.38576,3.411192 -0.50876,6.013951 l -0.22362,4.732289 0.91449,4.655045 c 0.50296,2.560274 0.91448,4.845082 0.91448,5.077352 0,0.232268 0.075,0.422307 0.16667,0.422307 0.0917,0 0.27286,-0.876184 0.40265,-1.947074 0.70665,-5.83057 2.42856,-10.951581 4.58446,-13.634303 0.99869,-1.24274 1.23659,-1.077956 1.07364,0.743679 -0.28262,3.159498 -1.45535,7.278455 -3.0754,10.801717 -0.43682,0.949975 -0.76808,1.753351 -0.73616,1.785279 0.0319,0.03193 0.54401,-0.843245 1.13795,-1.944832 2.2336,-4.14266 5.06052,-8.024219 8.13561,-11.170747 1.88334,-1.92709 4.78039,-4.235288 5.08189,-4.048949 0.19231,0.118846 -0.0583,0.705155 -1.47166,3.442745 -2.29132,4.438226 -4.16797,6.867493 -12.09549,15.657288 -2.59395,2.876077 -3.27343,3.832769 -2.5157,3.541999 0.39509,-0.151609 0.63623,0.501239 0.27687,0.749589 -0.64977,0.449057 0.8238,-0.142986 2.58389,-1.038143 z m -0.87931,-0.791816 c 1.8751,-2.192291 5.37004,-5.750721 6.66838,-6.789523 1.5785,-1.262954 4.33084,-2.849701 4.94305,-2.849701 0.29333,0 0.29405,0.0502 0.009,0.601932 -0.41923,0.810686 -2.83975,3.336848 -4.34494,4.534567 -1.12557,0.895644 -6.04142,4.123116 -7.18465,4.717043 l -0.49294,0.256094 z m -110.291375,0.79841 c 4.153607,-1.399249 7.24616,-4.206007 8.375349,-7.601365 0.284361,-0.855034 1.286006,-3.250628 2.225871,-5.323543 l 1.708851,-3.768936 -2.473518,-0.13743 c -1.360438,-0.07559 -3.140567,-0.279443 -3.955835,-0.453012 -0.815268,-0.173569 -1.79286,-0.306785 -2.172429,-0.296037 -6.857209,0.194184 -8.793529,0.460986 -11.830728,1.630131 -1.451018,0.558561 -1.864576,0.833191 -3.080599,2.045747 -1.887126,1.881743 -2.212132,2.826916 -1.885624,5.48376 0.28968,2.35717 0.120334,2.976381 -1.213959,4.438904 -0.569785,0.624541 -1.231314,1.391503 -1.470061,1.704361 -0.503519,0.659822 -0.587455,1.849424 -0.142533,2.020154 0.160347,0.06153 1.158563,-0.113746 2.218258,-0.389509 3.400004,-0.884776 4.244171,-0.97835 5.627959,-0.623839 0.673232,0.172474 1.713014,0.545175 2.31062,0.828225 0.597612,0.28305 1.308398,0.582373 1.579517,0.665163 0.972049,0.296825 2.949367,0.191414 4.178861,-0.222774 z m 4.79244,-9.583337 c 0.503742,-1.21103 1.30313,-2.237876 2.36414,-3.036831 1.081254,-0.814199 3.465732,-2.208353 3.580587,-2.093497 0.130729,0.130724 -2.419005,3.380821 -3.168639,4.039006 -0.918162,0.806161 -2.044123,1.537486 -2.637322,1.712982 l -0.453104,0.134047 z M 51.164869,50.80248 c 0,-0.330353 3.167446,-2.540672 5.00612,-3.493392 1.810451,-0.938093 7.16763,-2.963904 7.351555,-2.779979 0.06254,0.06257 -3.74892,2.610502 -5.912981,3.952741 -1.457423,0.903953 -6.444694,2.699789 -6.444694,2.32063 z m 1.207993,-4.34888 c -0.31932,-0.20227 0.926939,-0.999426 2.34427,-1.499491 1.136443,-0.400958 3.69422,-0.642896 5.320782,-0.503288 l 1.281663,0.110006 -1.774614,0.71561 C 56.675565,46.43352 53.233132,46.998529 52.372862,46.4536 Z M 158.02873,58.885258 c -1.00008,-2.839195 -1.35948,-4.675767 -1.5877,-8.113302 -0.17649,-2.658449 -0.37282,-3.797164 -1.68277,-9.760346 -0.26206,-1.192931 -1.12476,-4.043504 -1.91711,-6.334606 -1.20218,-3.476094 -1.62301,-4.439708 -2.54231,-5.821328 -1.57742,-2.370718 -4.31822,-4.955903 -6.12733,-5.779435 -3.30371,-1.503896 -7.98359,-2.770754 -11.32937,-3.0669 -1.27206,-0.112594 -2.74752,-0.293032 -3.27879,-0.400972 -1.41116,-0.28671 -3.92827,-1.430491 -5.68234,-2.582073 -1.89037,-1.241065 -3.04744,-1.469661 -3.81048,-0.752822 -0.69397,0.651946 -0.61958,1.447729 0.31792,3.401558 0.44143,0.919938 0.90009,2.241827 1.01925,2.937529 0.19914,1.162534 0.18059,1.337164 -0.22914,2.157566 -0.24519,0.490958 -1.01961,1.538945 -1.72092,2.328858 -0.70131,0.789914 -1.48844,1.774148 -1.74918,2.187187 -1.19408,1.891546 -1.59145,4.582518 -0.98049,6.639852 0.4,1.346951 3.0688,5.301974 4.92631,7.300541 1.80647,1.943644 4.01545,3.632886 8.38207,6.409898 4.8148,3.062035 7.84433,4.623317 13.11239,6.757541 4.31938,1.749886 8.81641,3.448174 9.13071,3.448174 0.0694,0 -0.84739,-0.483976 -2.03747,-1.075501 -2.59275,-1.288723 -4.50667,-2.699197 -5.8453,-4.307711 -1.04072,-1.250557 -1.90507,-2.799844 -1.68487,-3.020037 0.16549,-0.165496 2.82885,0.773477 4.3805,1.544358 l 1.18307,0.587765 -1.20092,-1.251663 c -1.8331,-1.910559 -3.38153,-3.829858 -4.66734,-5.785216 -1.62314,-2.468337 -3.36914,-6.20982 -3.04783,-6.531137 0.37793,-0.377927 5.60607,4.434559 8.27169,7.614061 0.86375,1.030259 3.25673,4.180189 5.31774,6.999845 3.56773,4.880977 4.25306,5.730549 4.45769,5.525923 0.0493,-0.04928 -1.11345,-1.889517 -2.58385,-4.089421 -2.85479,-4.271139 -4.33476,-6.991087 -5.17231,-9.505904 -0.63688,-1.912255 -1.09431,-4.221595 -0.86436,-4.363709 0.16898,-0.104438 1.42688,0.963317 2.68412,2.278407 1.14664,1.199387 2.75254,3.775391 3.61072,5.791894 0.85797,2.016036 1.9454,5.985788 2.37227,8.660204 0.18417,1.153839 0.34743,1.608426 0.65507,1.823903 0.22537,0.157856 0.46932,0.287011 0.54211,0.287011 0.0728,0 -0.20686,-0.962996 -0.62145,-2.139992 z M 87.162447,51.555931 c 0.878062,-0.333839 1.219452,-0.726732 2.096867,-2.413232 0.911742,-1.752487 1.560201,-2.335263 3.115903,-2.800302 1.675064,-0.500718 2.063058,-0.745229 2.132761,-1.344041 0.07976,-0.685223 -0.340678,-0.854622 -3.073093,-1.238185 -2.32366,-0.326184 -2.763162,-0.51505 -4.67655,-2.00965 -1.735924,-1.355973 -3.283193,-2.139939 -5.181894,-2.625545 -1.683625,-0.430599 -2.801068,-0.473795 -4.495657,-0.173788 -1.822521,0.322656 -5.311522,1.516148 -7.479709,2.558602 -1.084482,0.521415 -2.348891,1.058145 -2.809794,1.192734 -0.460904,0.134588 -0.832989,0.297209 -0.82685,0.361379 0.01955,0.204043 2.390392,1.861191 3.874881,2.708398 0.787476,0.449414 2.032053,1.255131 2.765736,1.790483 2.722537,1.986588 5.422308,3.186487 8.826747,3.923011 2.28671,0.494711 4.541357,0.522305 5.730652,0.07013 z M 73.224004,46.637839 c -0.284799,-0.08616 -1.172106,-0.499999 -1.971782,-0.919651 l -1.453965,-0.763003 1.745996,-0.05727 c 2.02101,-0.0663 3.568954,0.299936 4.408902,1.04311 0.464117,0.410646 0.503367,0.516527 0.253405,0.683614 -0.346018,0.231301 -2.233972,0.239659 -2.982556,0.01321 z m 0.222054,-1.903442 c -0.813362,-0.152022 -2.277413,-0.48405 -3.253445,-0.73784 l -1.774607,-0.461436 2.140913,-0.152979 c 3.168064,-0.226373 6.987463,-0.02484 9.344744,0.493071 1.111599,0.244227 2.021083,0.511476 2.021083,0.593885 0,0.56303 -5.898301,0.747588 -8.478688,0.265299 z m -3.450627,-2.23741 -1.380251,-0.105126 2.464733,-0.823979 c 3.866996,-1.292763 6.245039,-1.50348 8.084331,-0.716347 l 0.690126,0.295341 -2.267559,0.576674 c -1.24715,0.317171 -2.933033,0.623768 -3.746396,0.681328 -0.813356,0.05756 -1.700663,0.125484 -1.971782,0.150944 -0.271126,0.02546 -1.114064,-10e-4 -1.873202,-0.05883 z m -6.691692,-0.179772 c -0.161432,-0.312177 -0.509177,-1.132933 -0.772769,-1.823903 -0.796268,-2.087292 -3.595237,-7.666086 -4.636888,-9.242048 -1.656316,-2.505912 -4.39628,-5.745699 -5.697554,-6.736886 -1.552431,-1.182499 -4.22909,-2.082557 -6.94702,-2.336021 -2.61321,-0.243698 -3.191528,-0.476173 -5.48268,-2.203959 -0.707091,-0.533228 -0.879594,-0.591817 -1.032169,-0.350568 -0.300686,0.475448 -0.21693,1.042692 0.291377,1.973191 1.265934,2.317436 1.34857,2.571257 1.224268,3.760514 -0.06527,0.624647 -0.440466,1.913006 -0.833722,2.863019 -0.616728,1.489856 -0.70395,1.891422 -0.634484,2.921245 0.101038,1.49783 0.96302,3.459291 1.870297,4.255893 0.367456,0.322627 1.086294,0.797717 1.597418,1.055756 3.566598,1.800576 13.271315,5.028888 17.332064,5.765578 1.493029,0.270862 2.753594,0.531471 2.801256,0.57913 0.04766,0.04766 0.340332,0.08665 0.650385,0.08665 0.557615,0 0.560548,-0.0062 0.270221,-0.567593 z m -3.758776,-0.349919 c -0.759138,-0.161604 -1.941194,-0.56898 -2.626791,-0.905278 -1.334314,-0.6545 -4.119503,-3.083413 -3.552608,-3.098159 0.362079,-0.0094 2.193104,0.55491 3.418897,1.053719 0.760281,0.309375 0.770942,0.308515 0.295769,-0.02385 -1.088832,-0.761615 -2.661973,-2.389186 -3.470929,-3.591025 -0.470522,-0.69904 -0.818647,-1.307831 -0.773609,-1.352867 0.155472,-0.155473 4.150645,2.578281 5.723383,3.916306 0.867581,0.738109 2.154177,1.933779 2.85909,2.657044 l 1.281663,1.315026 -1.035188,-0.515914 c -0.569353,-0.283753 -1.035188,-0.477378 -1.035188,-0.430278 0,0.0471 0.465835,0.357193 1.035188,0.689096 l 1.035188,0.603463 -0.887307,-0.01172 c -0.488019,-0.0065 -1.50842,-0.143947 -2.267558,-0.305551 z m 0.875618,-3.343726 c -1.473346,-0.964855 -1.910828,-1.397346 -2.570775,-2.541428 -0.544258,-0.943523 -0.749635,-1.873197 -0.413824,-1.873197 0.346867,0 1.952459,1.155819 2.487622,1.790756 0.532583,0.631883 1.778907,3.117268 1.635238,3.260939 -0.03602,0.03601 -0.548232,-0.250671 -1.138261,-0.63707 z m 6.956902,2.455594 c 1.05444,-0.634473 2.385398,-1.337676 2.957684,-1.562672 2.609084,-1.025773 5.930083,-4.565535 7.438827,-7.928847 1.333329,-2.972286 1.31663,-4.91742 -0.07398,-8.617888 -1.190194,-3.167172 -1.299751,-4.116682 -0.696797,-6.039267 l 0.460997,-1.469948 -0.597944,-0.597945 c -0.402063,-0.402067 -0.864627,-0.633714 -1.412033,-0.707137 -0.738887,-0.09911 -0.873799,-0.04581 -1.460428,0.576857 -0.355486,0.377327 -0.890498,1.055551 -1.188913,1.507166 -1.323452,2.002871 -2.920582,2.108279 -6.340081,0.418434 -3.408817,-1.684569 -4.576186,-1.505842 -5.738163,0.878524 -0.597642,1.226348 -1.195226,3.524305 -1.487343,5.719461 -0.388145,2.916735 0.41442,7.191176 2.075049,11.051632 0.466511,1.084483 0.959188,2.326709 1.094848,2.760501 0.13566,0.433794 0.633651,1.654394 1.106645,2.712445 0.472995,1.058051 0.85999,2.102324 0.85999,2.320606 0,0.592122 0.735264,0.341799 3.001642,-1.021922 z m -1.916556,-0.757679 c 0.678573,-3.223939 1.836265,-6.004223 3.308108,-7.944666 l 1.029222,-1.356898 0.06154,0.71317 c 0.13382,1.550468 -0.853836,3.880841 -3.012389,7.107753 -1.578734,2.360118 -1.56954,2.350296 -1.386491,1.480641 z m 1.486265,0.35074 c -0.02078,-0.367489 1.233008,-3.472757 1.841289,-4.560476 0.729779,-1.304964 2.191141,-3.085877 2.532171,-3.085877 0.387333,0 -0.02609,1.841233 -0.739922,3.295376 -0.465504,0.948264 -1.185888,1.933857 -2.161826,2.957682 -0.805024,0.844526 -1.467299,1.471508 -1.471712,1.393295 z m -2.284036,-2.234941 c -0.248071,-2.316454 -0.033,-4.431099 0.577679,-5.679228 0.299342,-0.611839 0.622442,-1.112435 0.718003,-1.112435 0.280939,0 0.446583,1.314646 0.343827,2.728765 -0.09862,1.357053 -1.11533,5.355563 -1.361776,5.355563 -0.07662,0 -0.201596,-0.5817 -0.277733,-1.292665 z m -16.099269,3.069965 c 0.94366,-0.003 0.967016,-0.280191 0.03925,-0.465744 -0.423938,-0.08479 -0.784061,-4.13e-4 -1.236467,0.289698 -0.563459,0.361321 -0.580504,0.395805 -0.145372,0.294033 0.271118,-0.06341 0.875287,-0.116506 1.342596,-0.117987 z"
       id="path1" />
  </g>
</svg>
