<?xml version="1.0" encoding="UTF-8" standalone="no"?>
<!-- Created with Inkscape (http://www.inkscape.org/) -->

<svg
   version="1.1"
   id="svg1"
   width="70mm"
   height="35mm"
   viewBox="0 0 264.56691 132.28346"
   sodipodi:docname="ford.svg"
   inkscape:version="1.3.2 (1:1.3.2+202311252150+091e20ef0f)"
   xmlns:inkscape="http://www.inkscape.org/namespaces/inkscape"
   xmlns:sodipodi="http://sodipodi.sourceforge.net/DTD/sodipodi-0.dtd"
   xmlns:xlink="http://www.w3.org/1999/xlink"
   xmlns="http://www.w3.org/2000/svg"
   xmlns:svg="http://www.w3.org/2000/svg"
   xmlns:inkstitch="http://inkstitch.org/namespace">
  <sodipodi:namedview
     id="namedview1"
     pagecolor="#ff00cc"
     bordercolor="#666666"
     borderopacity="1.0"
     inkscape:showpageshadow="2"
     inkscape:pageopacity="0.0"
     inkscape:pagecheckerboard="0"
     inkscape:deskcolor="#d1d1d1"
     inkscape:zoom="2.3079966"
     inkscape:cx="113.51837"
     inkscape:cy="59.358841"
     inkscape:window-width="1848"
     inkscape:window-height="1016"
     inkscape:window-x="72"
     inkscape:window-y="27"
     inkscape:window-maximized="1"
     inkscape:current-layer="g1"
     inkscape:document-units="mm" />
  <metadata
     id="metadata7">
    <inkstitch:min_stitch_len_mm>0</inkstitch:min_stitch_len_mm>
    <inkstitch:collapse_len_mm>3</inkstitch:collapse_len_mm>
    <inkstitch:inkstitch_svg_version>1</inkstitch:inkstitch_svg_version>
  </metadata>
  <defs
     id="defs1">
    <symbol
       id="inkstitch_trim">
      <title
         id="inkstitch_title9282">Trim the thread after sewing this object.</title>
      <path
         id="inkstitch_circle13405"
         d="m 9.2465284,-8.6e-6 c 1.8e-6,2.452339 -0.9741847,4.804237 -2.7082493,6.538304 C 4.8042146,8.2723614 2.4523174,9.2465504 -2.1625959e-5,9.2465514 -2.4523623,9.2465534 -4.8042621,8.2723654 -6.5383288,6.5382984 -8.2723956,4.8042314 -9.2465834,2.4523324 -9.2465816,-8.6e-6 c 6e-7,-2.452339 0.9741895,-4.804237 2.708256,-6.538301 1.7340665,-1.734065 4.0859648,-2.708252 6.538303974041,-2.70825 C 5.1067066,-9.2465576 9.2465271,-5.1067366 9.2465284,-8.6e-6 c 0,0 0,0 0,0"
         style="opacity:1;vector-effect:none;fill:#fafafa;fill-opacity:1;fill-rule:evenodd;stroke:#003399;stroke-width:1.065;stroke-linecap:round;stroke-linejoin:miter;stroke-miterlimit:4;stroke-dasharray:3.195, 3.195;stroke-dashoffset:0;stroke-opacity:1"
         inkscape:connector-curvature="0" />
      <path
         style="color:#000000;font-style:normal;font-variant:normal;font-weight:normal;font-stretch:normal;font-size:medium;line-height:normal;font-family:sans-serif;font-variant-ligatures:normal;font-variant-position:normal;font-variant-caps:normal;font-variant-numeric:normal;font-variant-alternates:normal;font-feature-settings:normal;text-indent:0;text-align:start;text-decoration:none;text-decoration-line:none;text-decoration-style:solid;text-decoration-color:#000000;letter-spacing:normal;word-spacing:normal;text-transform:none;writing-mode:lr-tb;direction:ltr;text-orientation:mixed;dominant-baseline:auto;baseline-shift:baseline;text-anchor:start;white-space:normal;shape-padding:0;clip-rule:nonzero;display:inline;overflow:visible;visibility:visible;opacity:1;isolation:auto;mix-blend-mode:normal;color-interpolation:sRGB;color-interpolation-filters:linearRGB;solid-color:#000000;solid-opacity:1;vector-effect:none;fill:#050505;fill-opacity:1;fill-rule:evenodd;stroke:none;stroke-width:1.41421;stroke-linecap:butt;stroke-linejoin:miter;stroke-miterlimit:4;stroke-dasharray:none;stroke-dashoffset:0;stroke-opacity:1;color-rendering:auto;image-rendering:auto;shape-rendering:auto;text-rendering:auto;enable-background:accumulate"
         d="m -3.0000256,-5.9834096 c -1.30575,0 -2.375,1.06924 -2.375,2.375 0,1.30575 1.06925,2.375 2.375,2.375 0.58687,0 1.11944,-0.22369 1.53516,-0.58007 0,0 0.61717997,1.62109 0.61717997,1.62109 0,0 -2.29881997,6.01758 -2.29881997,6.01758 0.98655,-0.12511 1.23728,-0.26171 1.67382,-0.97461 0,0 1.33007997,-3.18945 1.33007997,-3.18945 0,0 1.23633003,3.25 1.23633003,3.25 0.23227,0.77906 0.84315,0.79218 1.57813,1.07226 0,0 -2.05469003,-6.14258 -2.05469003,-6.14258 0,0 0.73047003,-1.75 0.73047003,-1.75 0.42849,0.41682 1.01136,0.67578 1.65234,0.67578 1.30575,0 2.375,-1.06925 2.375,-2.375 0,-1.30576 -1.06925,-2.375 -2.375,-2.375 -1.06233,0 -1.95701,0.71265 -2.25781003,1.67969 0,0 -0.0117,-0.0156 -0.0117,-0.0156 0,0 -0.80274,2.10156 -0.80274,2.10156 0,0 -0.59179,-1.76562 -0.59179,-1.76562 -0.18242,-1.12808 -1.15864997,-2 -2.33593997,-2 0,0 -2e-5,-3e-5 -2e-5,-3e-5 m 0,1 c 0.76531,0 1.375,0.60968 1.375,1.375 0,0.76531 -0.60969,1.375 -1.375,1.375 -0.76531,0 -1.375,-0.60969 -1.375,-1.375 0,-0.76532 0.60969,-1.375 1.375,-1.375 0,0 0,0 0,0 m 6,0 c 0.76531,0 1.375,0.60968 1.375,1.375 0,0.76531 -0.60969,1.375 -1.375,1.375 -0.76531,0 -1.375,-0.60969 -1.375,-1.375 0,-0.76532 0.60969,-1.375 1.375,-1.375 0,0 0,0 0,0"
         id="inkstitch_path13416"
         inkscape:connector-curvature="0" />
    </symbol>
  </defs>
  <g
     inkscape:groupmode="layer"
     inkscape:label="Image"
     id="g1">
    <path
       style="fill:#003078;fill-opacity:1;stroke-width:0.276718"
       d="m 122.00508,111.0686 c -0.91317,-0.0539 -4.02625,-0.23296 -6.91796,-0.39783 C 83.746745,108.88388 59.434823,103.8457 39.958148,95.101713 32.529355,91.766584 28.179673,88.971521 24.174123,84.959055 19.802477,80.579866 18.247266,77.213427 18.286176,72.213896 18.336834,65.704468 22.296732,59.852242 30.309025,54.445643 35.774809,50.757398 48.506511,45.406954 59.466474,42.19235 96.346357,31.375323 151.51157,29.914959 194.2285,38.624856 c 24.81326,5.059376 44.21947,14.397379 50.95596,24.519306 3.89264,5.848869 4.00186,11.666494 0.33502,17.844289 -1.14274,1.925283 -5.24348,6.13263 -7.84178,8.045671 -12.12471,8.926991 -38.69704,16.926778 -67.24697,20.245188 -10.62411,1.23486 -18.99882,1.6824 -33.48288,1.78931 -7.30536,0.0539 -14.02961,0.0539 -14.94277,-2e-5 z"
       id="path9" />
    <path
       id="path1"
       style="fill:none;stroke:#003078;stroke-width:1.20027px"
       d="m 146.52574,118.21255 9.22491,-0.53212 8.99639,-0.76234 8.75675,-0.99468 8.54014,-1.23126 8.34567,-1.47164 8.17376,-1.71573 8.02418,-1.96367 7.91725,-2.22093 8.67689,-2.90292 8.1706,-3.35474 7.41282,-3.697764 3.40672,-1.977666 3.15901,-2.046057 2.43151,-1.884311 2.60708,-2.344061 2.40569,-2.43684 1.83584,-2.200134 1.28174,-2.019434 1.12649,-2.175558 0.91954,-2.200745 0.63679,-2.121497 0.27633,-2.329418 -0.0288,-2.564492 -0.29318,-2.544118 -0.56805,-2.26622 -1.32809,-2.950402 -1.78191,-2.850271 -2.21057,-2.768029 -2.61268,-2.682209 -2.99294,-2.589509 -3.35393,-2.487463 -3.69644,-2.373624 -4.03782,-2.255609 -6.91942,-3.242041 -7.82267,-3.006967 -8.60944,-2.747389 -9.30111,-2.469688 -9.89555,-2.170823 -10.39124,-1.849359 -10.78712,-1.504244 -11.08224,-1.135055 -9.62614,-0.637155 -10.02892,-0.339824 -10.22283,-0.04952 m 14.95554,86.702136 9.1527,-0.52796 8.84782,-0.74976 8.60015,-0.97689 8.37673,-1.20769 8.17704,-1.44191 8.00159,-1.67959 7.85038,-1.92114 7.70285,-2.16078 8.38091,-2.803896 7.82278,-3.211941 7.08479,-3.53412 3.14629,-1.826478 2.85819,-1.851226 2.09664,-1.624805 2.34212,-2.105829 2.13542,-2.163084 1.46803,-1.759324 0.96806,-1.52521 0.91661,-1.770217 0.72651,-1.738788 0.42185,-1.405384 0.18025,-1.519615 -0.0218,-1.938209 -0.22102,-1.917774 -0.36624,-1.461106 -0.98195,-2.181481 -1.42402,-2.277773 -1.85211,-2.319205 -2.26811,-2.328448 -2.66682,-2.307361 -3.0464,-2.259374 -3.40533,-2.186691 -3.7265,-2.081694 -6.57261,-3.079553 -7.49833,-2.88229 -8.33431,-2.659596 -9.0597,-2.405579 -9.67657,-2.122791 -10.18647,-1.812911 -10.58996,-1.476753 -10.88851,-1.115215 -9.4433,-0.625051 -9.8644,-0.33425 -10.14482,-0.04914 m 28.70537,87.154542 -0.68068,-8.03268 m 16.72907,6.28152 -1.15036,-7.97897 m 11.75186,6.31115 -1.39994,-7.93899 m 17.2274,4.629 -1.91625,-7.83041 m 17.54802,3.43673 -2.55769,-7.644974 m 17.88513,1.647984 -3.59845,-7.213762 m 20.23266,-3.098518 -5.3899,-5.99469 m 1.51097,-35.17642 -4.80224,6.475022 m -9.67994,-14.746113 -3.42034,7.299912 m -11.96125,-13.03738 -2.45077,7.679914 m -15.86315,-12.458241 -1.7274,7.874225 m -8.83923,-9.932545 -1.41253,7.936757 m -9.21769,-9.57973 -1.11338,7.984216 m -9.56517,-9.239929 -0.82137,8.019519 m -9.89228,-8.903556 -0.53241,8.043872"
       inkstitch:satin_column="true" />
    <path
       id="path4"
       style="fill:none;stroke:#003078;stroke-width:1.20027px"
       d="m 131.18685,26.145681 -10.28286,0.232845 -10.20901,0.510631 -9.92751,0.782086 -9.47617,1.047953 -8.848477,1.308793 -9.072594,1.700832 -8.607779,1.944471 -8.133404,2.184953 -7.643679,2.421482 -7.138855,2.654785 -6.618762,2.885624 -6.083251,3.114767 -5.544563,3.351429 -3.614343,2.663921 -3.448508,3.043494 -2.966119,3.121486 -2.158744,2.936429 -1.6159001,3.36088 -1.0057386,3.461474 -0.3732548,3.486517 0.3127168,3.36317 0.8627181,2.851691 1.3407746,2.783569 1.775718,2.72643 2.175605,2.662069 2.547568,2.586319 2.895377,2.494758 3.220044,2.38393 3.520106,2.249854 5.582802,3.091386 5.910851,2.830031 6.283595,2.5848 6.698986,2.35492 7.158151,2.14109 7.6619,1.94394 8.211409,1.76319 8.815071,1.6004 8.821347,1.30317 9.218342,1.05033 9.21626,0.75842 8.82246,0.42737 14.05455,0.12742 12.8936,-0.22217 m -15.10877,-86.698002 -10.2094,0.231181 -10.05878,0.503118 -9.76632,0.769387 -9.293927,1.027798 -8.648612,1.279233 -8.873637,1.663532 -8.4056,1.898801 -7.913757,2.125945 -7.403894,2.345519 -6.876004,2.557037 -6.330015,2.759737 -5.766077,2.952369 -5.171948,3.1262 -3.226009,2.377703 -3.094176,2.730776 -2.570017,2.704636 -1.661483,2.260029 -1.20594,2.508212 -0.749058,2.578055 -0.265531,2.480277 0.212763,2.288192 0.58481,1.933075 1.009598,2.096017 1.428769,2.193726 1.834265,2.244405 2.218473,2.252218 2.578344,2.221591 2.912148,2.155981 3.222063,2.059363 5.295506,2.9323 5.630966,2.696024 6.013915,2.473867 6.446396,2.266128 6.927524,2.07211 7.45577,1.89164 8.030435,1.72433 8.643609,1.56927 8.645495,1.27719 9.045956,1.03069 9.04204,0.74408 8.62639,0.41787 13.87818,0.12583 12.82295,-0.22096 m -29.55052,-87.603268 0.40271,8.051407 m -11.91773,-7.321591 0.63312,8.036573 m -17.937158,-6.15176 1.179554,7.974708 m -18.33962,-4.896055 1.776305,7.863337 m -18.68684,-3.478138 2.43459,7.685058 m -18.891605,-1.607991 3.221737,7.389706 m -13.877478,-1.985925 4.170162,6.899064 m -5.938127,43.039364 4.341441,-6.792586 m 6.134385,12.452757 3.48127,-7.271043 m 10.158789,12.768623 2.673501,-7.60524 m 11.378071,11.69443 1.982507,-7.8139 m 15.054904,11.38928 1.440046,-7.93181 m 15.782807,10.39412 0.912619,-8.00965 m 16.42411,9.41624 0.39004,-8.05204 m 14.04248,8.36646 0.0731,-8.06114"
       inkstitch:satin_column="true" />
    <g
       id="command_group1"
       inkscape:label="Ink/Stich Instrucción: Trim thread after sewing this object"
       transform="matrix(1.20027 0 0 1.20027 -1.56497 4.21841)">
      <path
         id="command_connector1"
         d="m 92.413759,-11.320112 8.676801,29.490484"
         style="fill:none;stroke:#000000;stroke-width:1px;stroke-opacity:0.5"
         inkscape:connection-start="#command_use3476"
         inkscape:label="conector"
         inkscape:connector-type="polyline"
         inkscape:connector-curvature="0" />
      <use
         id="command_use3476"
         xlink:href="#inkstitch_trim"
         height="100%"
         width="100%"
         x="92.411179"
         y="-11.355959"
         inkscape:label="marcador de instrucción" />
    </g>
    <path
       style="display:inline;fill:#ffffff;fill-opacity:1;stroke:#ffffff;stroke-width:0.0833102;stroke-linejoin:bevel;stroke-miterlimit:0"
       d="M 111.74338,114.41161 C 88.710052,112.90267 64.829833,108.30946 48.428816,102.23344 42.237594,99.939808 32.421865,95.091876 27.928358,92.108389 21.381509,87.761573 16.269936,82.142527 14.409968,77.247908 c -1.45554,-3.830346 -0.799562,-9.147064 1.642871,-13.315535 2.032157,-3.46826 8.18528,-9.014881 13.651557,-12.305955 24.070495,-14.492082 63.83449,-22.276354 109.846454,-21.50374 19.35673,0.32503 35.05878,1.897019 51.45622,5.15147 26.93402,5.34568 45.25927,13.020665 55.3731,23.191376 4.48453,4.509753 6.2584,7.618089 6.83487,11.976707 0.47007,3.554264 0.051,5.719684 -1.84131,9.515382 -1.12395,2.254442 -2.03709,3.434132 -4.80993,6.214056 -3.72743,3.736944 -7.00268,6.049159 -13.11041,9.255526 -19.12881,10.042025 -49.49138,16.999745 -82.95297,19.009055 -6.71591,0.40328 -32.47503,0.3869 -38.75704,-0.0246 z m 29.84216,-3.35542 c 8.29984,-0.17294 17.76116,-0.55511 21.02514,-0.84927 30.77364,-2.77339 59.26036,-10.539892 73.7576,-20.108969 2.73708,-1.806643 7.75966,-6.67073 9.12989,-8.841794 1.86733,-2.958654 2.67893,-5.694972 2.67787,-9.028402 -0.001,-3.539051 -0.65274,-5.586599 -2.87566,-9.036006 -5.58811,-8.671337 -21.27685,-17.128427 -41.71527,-22.486794 -35.75219,-9.373207 -87.66807,-10.469202 -127.27928,-2.686997 -14.56528,2.861565 -27.244455,6.909375 -38.817843,12.39255 -6.173731,2.924958 -9.047668,4.829615 -12.863021,8.524779 -6.451827,6.248582 -8.203652,14.03643 -4.668254,20.753007 1.526106,2.899312 6.171576,7.601269 10.082233,10.204845 9.997124,6.655718 27.779288,12.877991 47.332225,16.562341 12.071391,2.2746 30.247,4.18761 44.71524,4.70634 1.4921,0.0535 3.09442,0.12237 3.5607,0.15304 0.46628,0.0307 7.63858,-0.0857 15.93843,-0.25867 z"
       id="path2" />
    <g
       id="command_group2"
       inkscape:label="Ink/Stich Instrucción: Trim thread after sewing this object"
       transform="matrix(1.20027 0 0 1.20027 -1.56497 4.21841)">
      <path
         id="command_connector2"
         d="M 92.201227,-7.7736433 101.49708,21.73761"
         style="fill:none;stroke:#000000;stroke-width:1px;stroke-opacity:0.5"
         inkscape:connection-start="#command_use2671"
         inkscape:label="conector"
         inkscape:connector-type="polyline"
         inkscape:connector-curvature="0"
         inkscape:connection-end="#path2" />
      <use
         id="command_use2671"
         xlink:href="#inkstitch_trim"
         height="100%"
         width="100%"
         x="92.198647"
         y="-7.8094902"
         inkscape:label="marcador de instrucción" />
    </g>
    <path
       style="fill:#ffffff;fill-opacity:1;stroke:#ffffff;stroke-width:0.0833102;stroke-linejoin:bevel;stroke-miterlimit:0"
       d="m 72.104978,97.294978 c -2.92325,-0.786162 -5.658521,-2.444677 -7.790407,-4.723667 -2.384461,-2.549 -2.881937,-4.024135 -2.711467,-8.040148 0.105228,-2.478958 0.287253,-3.181749 1.414785,-5.462443 1.609017,-3.254602 4.240168,-6.031286 6.845372,-7.223985 2.147696,-0.983249 4.964216,-1.239417 5.66191,-0.514961 0.365942,0.379976 0.183733,0.670294 -1.064174,1.695576 -5.109481,4.197956 -6.551695,6.268264 -6.557298,9.413057 -0.0038,2.17713 1.064022,4.180959 2.909873,5.460136 2.769849,1.919506 7.960708,1.309306 12.775861,-1.501843 2.93858,-1.71558 8.265933,-7.057547 12.270155,-12.30381 3.902218,-5.112628 4.246412,-5.697355 3.518156,-5.976813 -0.872061,-0.334641 -2.860887,0.194251 -5.910433,1.571771 -1.589753,0.718108 -3.011251,1.230999 -3.158885,1.139757 -0.580206,-0.358588 -0.218702,-1.463877 0.743633,-2.273629 1.366899,-1.150168 4.18441,-2.170223 8.593711,-3.111267 2.01919,-0.430942 3.70386,-0.835522 3.74371,-0.899068 0.0398,-0.06354 1.15868,-1.580827 2.48627,-3.371733 3.1544,-4.255252 6.04584,-7.109896 10.45957,-10.326455 4.25626,-3.101805 4.25053,-3.145166 -0.57691,-4.36975 -4.70946,-1.19465 -8.26862,-1.617888 -14.01893,-1.66706 -5.811249,-0.04969 -7.895289,0.362213 -12.008087,2.373378 -3.264925,1.596556 -5.245349,3.568086 -5.94257,5.915886 -1.39256,4.689259 -0.08121,7.091253 3.871421,7.091253 2.927487,0 6.142233,-1.840355 8.186021,-4.686274 2.163954,-3.013258 3.011804,-3.484405 3.009079,-1.672139 -0.0019,1.23789 -1.892727,5.146817 -3.426346,7.083171 -1.378679,1.740721 -4.981203,4.556698 -6.971127,5.449098 -1.91116,0.857082 -5.650272,1.019247 -7.62641,0.330761 C 79.317627,66.166357 77.481422,64.34951 76.933338,62.836749 75.513317,58.917369 77.2944,52.72629 81.090327,48.386974 83.008336,46.1944 87.337716,43.966828 92.244252,42.648 c 3.206507,-0.861875 3.797375,-0.910715 10.851688,-0.897013 6.90375,0.01342 7.91609,0.09677 13.56462,1.116874 14.73639,2.661356 17.62627,3.093784 23.23683,3.47708 6.34445,0.433434 18.96417,0.03728 25.2782,-0.793529 3.55586,-0.467881 4.2174,-0.320793 4.2174,0.937681 0,2.045789 -2.16149,4.214282 -5.88232,5.901389 -4.02734,1.82609 -5.88517,2.119365 -12.26035,1.935411 -6.47931,-0.186961 -10.12155,-0.902312 -18.99045,-3.729799 -2.6112,-0.832473 -5.55208,-1.701135 -6.53531,-1.930363 l -1.78768,-0.416776 -1.94258,1.476704 c -4.46134,3.391405 -12.62472,12.416857 -12.62472,13.957917 0,0.212847 1.02743,0.256398 2.7977,0.118587 1.53873,-0.119787 3.49156,-0.218702 4.33962,-0.219819 l 1.54192,-0.0019 0.38532,-2.24951 c 0.4561,-2.662646 1.71138,-4.451449 3.63864,-5.185142 1.14138,-0.434512 1.38105,-0.422012 2.39678,0.124993 2.93577,1.581015 2.27259,5.821618 -1.27786,8.171202 l -1.31881,0.872744 1.25108,1.384791 c 1.10684,1.225142 1.18469,1.421941 0.67526,1.70703 -0.75555,0.422828 -2.22515,-0.190949 -3.99233,-1.667381 -1.09026,-0.910884 -1.57635,-1.105576 -2.42456,-0.971082 -0.58349,0.09252 -2.72872,0.334237 -4.76717,0.537151 -3.8644,0.384675 -5.73961,0.943194 -6.51901,1.941641 -0.25325,0.324418 -2.32847,3.489287 -4.61161,7.033046 -4.807025,7.461192 -8.308513,11.956915 -12.025956,15.440663 -6.449508,6.044064 -11.795279,8.069342 -17.353616,6.574519 z m 50.486362,-34.89963 c 2.63444,-1.362331 2.76538,-5.091309 0.15576,-4.43634 -1.50993,0.378972 -3.04379,4.943074 -1.6612,4.943074 0.28903,0 0.96648,-0.228029 1.50544,-0.506734 z"
       id="path3" />
    <g
       id="command_group3"
       inkscape:label="Ink/Stich Instrucción: Trim thread after sewing this object"
       transform="matrix(1.20027 0 0 1.20027 -1.56497 4.21841)">
      <path
         id="command_connector3"
         d="m 92.670602,1.4330305 2.75741,30.2458455"
         style="fill:none;stroke:#000000;stroke-width:1px;stroke-opacity:0.5"
         inkscape:connection-start="#command_use7750"
         inkscape:label="conector"
         inkscape:connector-type="polyline"
         inkscape:connector-curvature="0"
         inkscape:connection-end="#path3" />
      <use
         id="command_use7750"
         xlink:href="#inkstitch_trim"
         height="100%"
         width="100%"
         x="92.668022"
         y="1.3971837"
         inkscape:label="marcador de instrucción" />
    </g>
    <path
       style="fill:#ffffff;fill-opacity:1;stroke:#ffffff;stroke-width:0.0294547;stroke-linejoin:bevel;stroke-miterlimit:0"
       d="m 183.12589,98.827437 c -1.64372,-0.428523 -2.87113,-2.00498 -3.35256,-4.305963 -0.0885,-0.422884 -0.19213,-0.800145 -0.23035,-0.838357 -0.12806,-0.128068 -0.83313,0.297629 -2.70236,1.631622 -3.27227,2.335263 -4.32026,2.702229 -7.53407,2.63815 l -2.00541,-0.03998 -0.86332,-0.513168 c -1.21604,-0.722844 -2.15343,-1.637687 -2.80759,-2.740088 -1.00277,-1.689907 -1.07495,-1.968149 -1.19329,-4.599891 -0.0579,-1.285878 -0.1187,-2.543895 -0.13527,-2.795589 l -0.0301,-0.457628 -0.71939,0.56506 c -0.39564,0.310786 -1.25889,0.823788 -1.91832,1.140011 -3.64034,1.745689 -6.70745,1.523402 -8.41637,-0.609974 -0.71351,-0.89073 -1.43654,-2.411379 -1.58239,-3.328 -0.20498,-1.288341 -0.32435,-1.293712 -1.22424,-0.05509 -1.65167,2.273386 -5.28732,7.811717 -7.66816,11.68121 l -1.01147,1.643926 -2.97117,0.0047 c -3.28558,0.0052 -3.27707,0.0073 -2.89458,-0.732368 0.11342,-0.219429 1.26807,-2.126142 2.56578,-4.237133 6.2346,-10.141827 8.14672,-13.611026 8.41157,-15.261235 0.26148,-1.62923 -0.10478,-2.134235 -1.47832,-2.038469 -1.44782,0.100943 -3.65492,1.521804 -6.19556,3.988494 -2.44999,2.378679 -3.95626,4.246095 -6.57721,8.154188 -2.14553,3.199174 -3.17542,4.534871 -4.5819,5.942368 -1.45185,1.452894 -2.53803,2.208306 -4.75223,3.305021 -1.9263,0.954118 -2.69539,1.113852 -5.38556,1.118539 -2.25089,0.004 -3.35596,-0.207542 -4.90294,-0.938213 -2.24786,-1.061706 -3.46054,-2.436807 -4.06974,-4.614823 -0.16338,-0.584088 -0.35453,-1.119454 -0.42477,-1.189705 -0.21901,-0.219006 -0.62554,0.06384 -2.06381,1.435948 -1.59692,1.523453 -2.19911,2.008514 -2.81085,2.264117 -0.43716,0.182653 -0.4518,0.179889 -0.79658,-0.15043 -0.19318,-0.185075 -0.51798,-0.675225 -0.7218,-1.089223 l -0.370573,-0.75276 0.311013,-0.437116 c 0.17106,-0.240415 0.97477,-1.163077 1.78602,-2.05036 1.9817,-2.167428 2.39071,-2.726663 3.17569,-4.342092 3.21188,-6.609861 3.34889,-6.850588 4.9535,-8.703676 0.49457,-0.571152 1.46572,-1.549101 2.15812,-2.173225 2.26337,-2.040194 4.3512,-3.237477 6.5628,-3.763502 1.08289,-0.257563 3.90502,-0.500995 4.47848,-0.386301 0.45157,0.09031 0.88671,0.645488 1.08396,1.383001 0.23907,0.893844 0.11691,1.031586 -1.77698,2.004441 -1.88974,0.970702 -3.31763,1.983338 -4.79523,3.400705 -1.91779,1.839614 -3.54274,4.159071 -4.38258,6.255662 -0.37809,0.94389 -0.38611,1.00343 -0.38859,2.884631 l -0.003,1.920847 0.38691,0.785941 c 0.77944,1.583256 2.11069,2.506452 3.75125,2.601421 2.16446,0.125301 4.11158,-0.860341 6.52032,-3.300628 1.34121,-1.358768 2.33928,-2.763746 3.13139,-4.408011 1.62654,-3.376401 1.92707,-5.783019 1.13483,-9.087507 -0.12971,-0.541036 -0.23621,-1.335593 -0.23668,-1.765679 -8.3e-4,-0.692537 0.0403,-0.831868 0.3587,-1.218164 1.01239,-1.228197 2.89518,-1.244523 3.68838,-0.03198 0.64683,0.988769 1.40146,3.407294 1.56084,5.002294 0.12499,1.250877 0.2769,1.214547 1.48605,-0.355392 1.97203,-2.560406 4.90698,-5.385169 6.75876,-6.505015 1.34927,-0.815958 3.1448,-1.174049 4.82181,-0.961636 1.13586,0.143868 1.95311,0.526937 2.73994,1.28429 0.87778,0.844906 1.03636,1.268426 1.1199,2.990991 0.039,0.803899 0.11007,1.500872 0.15808,1.548827 0.16706,0.167066 0.64818,-0.216438 1.4395,-1.147442 1.45938,-1.716986 3.47457,-3.083678 5.20995,-3.533359 0.93412,-0.242057 2.44728,-0.240506 3.27702,0.0034 1.02726,0.301919 2.22176,0.98625 2.91867,1.672118 1.39374,1.371643 1.60621,2.626263 0.75005,4.42906 -0.55701,1.172911 -1.08205,1.826144 -1.90896,2.375008 -0.93321,0.619434 -1.85104,0.857381 -2.71806,0.70466 -1.76834,-0.311488 -3.24626,-1.617196 -3.24626,-2.867993 0,-0.569619 -0.19997,-0.989062 -0.47155,-0.989062 -0.41413,0 -1.54078,1.290796 -2.08509,2.388869 -0.46293,0.933907 -0.50069,1.08308 -0.50069,1.978274 0,0.847057 0.0496,1.072997 0.39657,1.805733 0.50198,1.060146 1.23472,2.035159 1.73412,2.307478 0.59187,0.322747 2.64588,0.277742 3.68422,-0.08073 1.95248,-0.674055 4.15623,-2.308017 9.48498,-7.032597 3.43928,-3.049329 6.30008,-4.967871 8.88159,-5.956261 0.96852,-0.370824 1.05046,-0.381622 2.91487,-0.383988 1.69576,-0.0022 2.01114,0.02964 2.71833,0.274012 1.61769,0.559006 3.47176,2.20487 3.937,3.494872 0.28833,0.799469 0.39419,0.99641 0.56649,1.053845 0.36442,0.121469 4.38548,-5.638483 10.67132,-15.28604 l 1.58189,-2.427881 0.63343,5.54e-4 c 0.67454,5.54e-4 3.85239,0.182007 5.40316,0.308685 l 0.93307,0.07622 -0.3223,0.556679 c -0.57791,0.998173 -3.59789,5.700239 -8.05802,12.54622 -10.40424,15.969756 -11.96406,18.508298 -12.18843,19.836326 -0.19123,1.131924 0.29807,2.082892 1.17274,2.279201 2.30447,0.517214 7.66751,-3.275992 12.40964,-8.777165 0.61107,-0.708882 1.17839,-1.288875 1.26072,-1.288875 0.0823,0 0.49164,0.345029 0.90959,0.766728 l 0.75992,0.766728 -0.6674,0.902458 c -1.69212,2.288093 -5.61733,6.469463 -7.7457,8.251212 -3.30459,2.766403 -6.29485,4.149739 -9.17964,4.246633 -0.72536,0.02435 -1.48406,0.0011 -1.68596,-0.05141 z m -8.91327,-5.992569 c 2.66449,-1.035391 6.49764,-4.907222 8.19495,-8.277625 0.50548,-1.003739 0.62117,-1.578571 0.43315,-2.152117 -0.12435,-0.379322 -0.10226,-0.597396 0.16438,-1.620417 0.39028,-1.497576 0.42234,-2.981937 0.0787,-3.648459 -0.20591,-0.399479 -0.69071,-0.92343 -1.22135,-1.32 -0.10551,-0.07881 -0.47698,-0.197386 -0.82561,-0.263503 -0.83616,-0.158571 -1.85425,0.01008 -2.83677,0.469821 -2.6271,1.229367 -6.25047,5.564283 -8.02921,9.605982 -1.37033,3.113668 -1.33265,5.078785 0.12529,6.536735 0.35926,0.359258 0.83691,0.695423 1.15055,0.809749 0.70696,0.257699 1.89719,0.197381 2.76584,-0.140166 z"
       id="path7" />
    <g
       id="command_group4"
       inkscape:label="Ink/Stich Instrucción: Trim thread after sewing this object"
       transform="matrix(1.20027 0 0 1.20027 -1.56497 4.21841)">
      <path
         id="command_connector4"
         d="m 113.60711,25.71073 13.87822,33.058137"
         style="fill:none;stroke:#000000;stroke-width:1px;stroke-opacity:0.5"
         inkscape:connection-start="#command_use8117"
         inkscape:connection-end="#path7"
         inkscape:label="conector"
         inkscape:connector-type="polyline"
         inkscape:connector-curvature="0" />
      <use
         id="command_use8117"
         xlink:href="#inkstitch_trim"
         height="100%"
         width="100%"
         x="113.60453"
         y="25.674883"
         inkscape:label="marcador de instrucción" />
    </g>
  </g>
</svg>
