<?xml version="1.0" encoding="UTF-8" standalone="no"?>
<!-- Created with Inkscape (http://www.inkscape.org/) -->

<svg
   version="1.1"
   id="svg1"
   width="60mm"
   height="60mm"
   viewBox="0 0 226.77165 226.77165"
   sodipodi:docname="1hom-arania-cabeza.svg"
   inkscape:version="1.3.2 (1:1.3.2+202311252150+091e20ef0f)"
   xmlns:inkscape="http://www.inkscape.org/namespaces/inkscape"
   xmlns:sodipodi="http://sodipodi.sourceforge.net/DTD/sodipodi-0.dtd"
   xmlns="http://www.w3.org/2000/svg"
   xmlns:svg="http://www.w3.org/2000/svg"
   xmlns:inkstitch="http://inkstitch.org/namespace">
  <metadata
     id="metadata159">
    <inkstitch:min_stitch_len_mm>0</inkstitch:min_stitch_len_mm>
    <inkstitch:collapse_len_mm>3</inkstitch:collapse_len_mm>
    <inkstitch:inkstitch_svg_version>1</inkstitch:inkstitch_svg_version>
  </metadata>
  <defs
     id="defs1" />
  <sodipodi:namedview
     id="namedview1"
     pagecolor="#ffffff"
     bordercolor="#666666"
     borderopacity="1.0"
     inkscape:showpageshadow="2"
     inkscape:pageopacity="0.0"
     inkscape:pagecheckerboard="0"
     inkscape:deskcolor="#d1d1d1"
     inkscape:zoom="3.5478261"
     inkscape:cx="105.27574"
     inkscape:cy="113.02696"
     inkscape:window-width="1848"
     inkscape:window-height="1016"
     inkscape:window-x="72"
     inkscape:window-y="27"
     inkscape:window-maximized="1"
     inkscape:current-layer="g1"
     inkscape:document-units="mm" />
  <g
     inkscape:groupmode="layer"
     inkscape:label="Image"
     id="g1">
    <path
       style="fill:#c10202;fill-opacity:1;stroke-width:0.40618;stroke-linejoin:bevel;stroke-miterlimit:0"
       d="M 71.791718,101.94106 C 70.472531,99.91333 65.779741,89.79108 64.037405,85.21516 l -1.865082,-4.898277 4.211549,-0.237944 c 6.327924,-0.357513 11.946036,-1.860256 18.2255,-4.874984 3.261561,-1.565857 4.3926,-2.370363 7.501878,-5.33609 2.79964,-2.670381 3.60689,-3.270559 3.43015,-2.550266 -1.13298,4.617391 -2.40322,14.14584 -3.50506,26.292511 -0.2111,2.32715 -0.24686,2.39036 -2.161597,3.82058 -4.01382,2.99814 -8.970833,4.77862 -14.431889,5.1837 -2.936361,0.2178 -3.089798,0.18951 -3.651136,-0.67333 z"
       id="path2" />
    <path
       style="fill:#c10202;fill-opacity:1;stroke-width:0.40618;stroke-linejoin:bevel;stroke-miterlimit:0"
       d="m 106.95573,98.71843 c -6.8699,-0.67197 -10.50587,-1.69707 -12.14897,-3.4252 l -0.98417,-1.03509 0.35736,-4.52149 c 0.48187,-6.096757 1.31594,-12.420203 2.42688,-18.399154 0.50708,-2.729029 0.92358,-5.089506 0.92555,-5.245501 0.002,-0.155997 1.39276,0.651634 3.09065,1.794729 8.60768,5.795097 20.13659,10.348383 26.21928,10.35517 l 2.3658,0.0027 -2.39658,2.920127 c -3.16847,3.860659 -6.97404,9.221339 -9.73008,13.706189 -1.44884,2.35766 -2.53033,3.71739 -3.07229,3.86267 -0.84956,0.22775 -4.65398,0.21961 -7.05343,-0.0151 z"
       id="path3" />
    <path
       style="fill:#c10202;fill-opacity:1;stroke-width:0.40618;stroke-linejoin:bevel;stroke-miterlimit:0"
       d="M 123.72292,76.116523 C 115.3859,74.383585 98.29741,65.793421 98.29144,63.332445 c -0.002,-0.938562 1.83234,-7.628312 3.45371,-12.593642 1.04862,-3.211296 4.72389,-12.818325 5.01893,-13.119262 0.0647,-0.06599 1.53311,0.769665 3.26316,1.857006 6.10695,3.838242 18.85186,9.325285 30.01784,12.923517 6.10931,1.968726 9.16463,2.564497 13.44432,2.621579 l 3.76791,0.05026 -5.65701,4.034898 c -7.26991,5.185311 -12.64039,9.499313 -17.19408,13.811664 l -3.63477,3.442119 -3.14746,-0.04371 c -1.73112,-0.02404 -3.48659,-0.114198 -3.90107,-0.200348 z"
       id="path4" />
    <path
       style="fill:#c10202;fill-opacity:1;stroke-width:0.40618;stroke-linejoin:bevel;stroke-miterlimit:0"
       d="M 154.451,53.520275 C 152.07858,53.257228 148.85702,52.7574 147.29197,52.409544 143.7134,51.614158 133.0074,47.96785 125.60688,45.023926 119.82632,42.72442 110.50683,38.119489 108.67082,36.6555 c -0.92809,-0.740031 -0.98086,-0.9104 -0.56479,-1.823561 0.25241,-0.553996 0.68927,-1.095653 0.97078,-1.20368 0.28152,-0.108027 2.92906,-0.301781 5.88342,-0.430564 4.79506,-0.209021 5.92313,-0.130107 10.51048,0.73525 10.60175,1.999912 21.5201,5.22649 25.88769,7.650296 5.98168,3.319563 13.11068,8.460551 12.68572,9.148152 -0.11004,0.178061 -0.9191,0.727502 -1.79789,1.220976 -0.87879,0.493473 -2.0217,1.155738 -2.53978,1.471698 -0.82356,0.502255 -1.48423,0.514347 -5.25545,0.0962 z"
       id="path5" />
    <path
       style="fill:#c10202;fill-opacity:1;stroke-width:0.40618;stroke-linejoin:bevel;stroke-miterlimit:0"
       d="m 79.664907,45.172568 c 8.401008,-5.518746 12.166973,-7.493154 17.722953,-9.291729 3.04415,-0.985451 8.80722,-2.230294 9.07687,-1.960639 0.0806,0.08058 -0.1515,0.771449 -0.51574,1.535265 -0.59265,1.242805 -1.25762,1.682002 -6.32739,4.179075 -6.49031,3.196745 -10.945491,4.950792 -17.166942,6.758783 -7.813969,2.270787 -7.988533,2.1944 -2.789751,-1.220755 z"
       id="path6" />
    <path
       style="fill:#c10202;fill-opacity:1;stroke-width:0.40618;stroke-linejoin:bevel;stroke-miterlimit:0"
       d="m 62.568315,78.370316 c -1.035365,-0.21888 -1.135718,-0.463207 -2.716799,-6.614651 l -1.232003,-4.79331 2.408441,-4.24967 c 1.795171,-3.167561 3.137981,-4.977656 5.273499,-7.108621 4.548588,-4.538887 4.843011,-4.704494 11.306399,-6.359671 8.132159,-2.082525 15.129888,-4.541053 21.020378,-7.385139 2.77671,-1.340672 5.10686,-2.379301 5.17809,-2.308066 0.0712,0.07123 -0.64963,2.236089 -1.60193,4.810788 -2.01626,5.451321 -3.81236,11.146204 -5.08487,16.122568 -0.88261,3.451593 -0.9544,3.577447 -3.28578,5.759837 -5.271132,4.934285 -8.724314,7.109609 -14.673656,9.243637 -5.888916,2.11235 -13.763241,3.480267 -16.591769,2.882298 z"
       id="path7" />
    <path
       style="fill:#c10202;fill-opacity:1;stroke-width:0.40618;stroke-linejoin:bevel;stroke-miterlimit:0"
       d="m 51.81954,102.32066 c -1.06429,-3.97732 1.29918,-20.903686 4.098379,-29.351198 0.515025,-1.554263 1.094195,-3.075515 1.287045,-3.380559 0.442041,-0.69921 0.364468,-0.94038 1.925148,5.985298 l 1.223782,5.430669 -1.509737,6.06145 c -1.153274,4.63027 -2.005171,7.08454 -3.608028,10.39454 -1.154057,2.3832 -2.340509,4.65489 -2.636556,5.04819 -0.519056,0.68958 -0.546899,0.68285 -0.780033,-0.18839 z"
       id="path8" />
    <path
       style="fill:#c10202;fill-opacity:1;stroke-width:0.40618;stroke-linejoin:bevel;stroke-miterlimit:0"
       d="m 65.80379,108.69719 c -2.443257,-2.80243 -7.66559,-9.46989 -8.20112,-10.47054 -0.278228,-0.51987 -0.139137,-1.20875 0.547093,-2.70959 0.506095,-1.10688 1.442182,-4.03888 2.080197,-6.51556 0.638015,-2.47668 1.210069,-4.5531 1.271231,-4.61427 0.06116,-0.0612 0.668883,1.37177 1.350487,3.1843 0.681605,1.81252 2.575618,6.11238 4.208919,9.55524 1.633299,3.44286 2.969637,6.68895 2.969637,7.21354 0,1.01501 -1.285661,5.40705 -1.826851,6.24084 -0.238005,0.36668 -0.87001,-0.12951 -2.399593,-1.88396 z"
       id="path9" />
    <path
       style="fill:#c10202;fill-opacity:1;stroke-width:0.40618;stroke-linejoin:bevel;stroke-miterlimit:0"
       d="m 74.955337,118.68294 c -4.912061,-4.86223 -5.744062,-5.84955 -5.556553,-6.59384 0.430752,-1.7098 1.953182,-5.94602 2.138612,-5.95077 0.103619,-0.003 0.919471,1.18021 1.813005,2.62859 0.893535,1.44838 3.055371,4.59355 4.804084,6.98926 3.253793,4.45766 3.424451,4.91017 2.834125,7.51485 -0.256095,1.12996 -0.258309,1.12828 -6.033273,-4.58809 z"
       id="path10" />
    <path
       style="fill:#c10202;fill-opacity:1;stroke-width:0.40618;stroke-linejoin:bevel;stroke-miterlimit:0"
       d="m 80.241788,115.41135 c -1.25063,-1.73239 -3.391747,-4.91157 -4.758035,-7.06483 l -2.484159,-3.91503 2.942613,-0.23585 c 5.421545,-0.43454 11.111277,-2.45011 14.305783,-5.06777 1.58801,-1.30125 1.63741,-1.315 1.68014,-0.46766 0.26977,5.34946 0.47914,14.627 0.33009,14.6265 -0.10509,-2.3e-4 -1.12242,0.77343 -2.260747,1.7195 -2.442854,2.03028 -5.25332,3.55494 -6.552973,3.55494 -0.73184,0 -1.411099,-0.66804 -3.202712,-3.1498 z"
       id="path11" />
    <path
       style="fill:#c10202;fill-opacity:1;stroke-width:0.40618;stroke-linejoin:bevel;stroke-miterlimit:0"
       d="m 96.86836,123.83275 c -0.92147,-0.41255 -1.57543,-1.00104 -1.72772,-1.55474 -0.35613,-1.29488 -0.76724,-6.3544 -0.51633,-6.3544 0.11729,0 1.27647,0.27239 2.57596,0.6053 2.95105,0.75602 6.40482,0.56944 7.4806,-0.40412 0.42223,-0.38212 0.76758,-0.79565 0.76744,-0.91896 -1.5e-4,-0.12331 -1.90765,-0.2278 -4.2389,-0.23221 -3.65973,-0.007 -4.45734,-0.12375 -5.83999,-0.85544 l -1.60136,-0.84742 v -8.30739 -8.3074 l 1.16493,0.8295 c 2.56584,1.82704 9.92123,3.18751 15.87418,2.93612 l 3.19201,-0.1348 -2.83069,5.46347 c -2.34751,4.5309 -9.63094,17.58241 -10.05873,18.02471 -0.0676,0.0699 -0.71602,0.2609 -1.44085,0.42437 -0.96017,0.21656 -1.7203,0.11706 -2.80055,-0.36659 z"
       id="path12" />
    <path
       style="fill:#c10202;fill-opacity:1;stroke-width:0.101545;stroke-linejoin:bevel;stroke-miterlimit:0"
       d="m 83.547603,161.28814 c -4.514013,-1.98834 -4.894456,-2.19753 -6.142945,-3.3778 -1.437696,-1.35915 -2.700311,-2.44067 -10.119429,-8.66804 -2.882208,-2.41924 -2.886847,-2.42373 -3.272779,-3.16554 -0.521645,-1.00267 -0.910472,-2.23284 -1.191609,-3.77003 -0.900661,-4.92459 -2.55251,-10.35738 -4.248277,-13.97225 -3.102064,-6.61268 -6.439893,-17.49156 -6.439893,-20.98933 0,-0.99626 0.153915,-1.36666 1.294596,-3.11544 0.518995,-0.79567 1.227835,-1.927 1.575199,-2.51407 0.347366,-0.58707 0.643773,-1.05335 0.658684,-1.03618 0.01491,0.0172 -0.01323,0.75184 -0.06255,1.63258 -0.129878,2.3197 -0.02972,9.72721 0.156019,11.53922 0.75963,7.41067 2.781148,14.65176 6.070727,21.74539 1.725671,3.72125 3.182475,6.07043 5.061719,8.16239 1.816914,2.02255 3.690774,3.46272 5.960346,4.58086 3.479612,1.71427 9.714494,6.51061 12.167357,9.36006 1.350706,1.56909 1.537108,2.07054 1.423541,3.82961 l -0.06478,1.00335 z"
       id="path13" />
    <path
       style="fill:#c10202;fill-opacity:1;stroke-width:0.101545;stroke-linejoin:bevel;stroke-miterlimit:0"
       d="m 86.171042,156.87607 c -1.671433,-2.0091 -3.917654,-4.01872 -6.71426,-6.00702 l -1.255983,-0.89296 1.590129,-0.0656 c 3.847481,-0.15868 4.619522,-0.4329 7.477485,-2.65591 l 1.271669,-0.98913 0.541916,0.53387 c 0.298052,0.29363 0.565461,0.60806 0.594239,0.69873 0.02879,0.0907 -0.185239,1.00325 -0.475594,2.02793 -0.290358,1.02469 -0.804892,2.98636 -1.143408,4.3593 -0.741819,3.00861 -0.981322,3.8621 -1.08378,3.8621 -0.04264,0 -0.403725,-0.39209 -0.802413,-0.87132 z"
       id="path14" />
    <path
       style="fill:#c10202;fill-opacity:1;stroke-width:0.101545;stroke-linejoin:bevel;stroke-miterlimit:0"
       d="m 88.351686,130.1789 c -0.905648,-0.11069 -1.533466,-0.25324 -1.874307,-0.42558 -0.514499,-0.26016 -1.598315,-1.18636 -3.258135,-2.78434 l -1.364535,-1.31369 0.254741,-1.02728 c 0.327898,-1.32232 0.447482,-2.09516 0.448366,-2.89769 l 7.09e-4,-0.64583 0.965525,0.90917 c 0.53104,0.50005 1.83377,1.68084 2.894957,2.62399 1.061187,0.94315 2.270219,2.04143 2.68674,2.44062 l 0.757305,0.7258 0.163398,0.96976 c 0.0899,0.53336 0.1631,1.08632 0.16274,1.22879 l -7.1e-4,0.25905 -0.777128,-0.0141 c -0.427422,-0.008 -0.904297,-0.0297 -1.059725,-0.0487 z"
       id="path15" />
    <path
       style="fill:#c10202;fill-opacity:1;stroke-width:0.101545;stroke-linejoin:bevel;stroke-miterlimit:0"
       d="m 89.850074,125.91952 c -2.333962,-1.65029 -6.597531,-5.65973 -6.232655,-5.86115 0.06521,-0.036 0.500081,-0.13654 0.96636,-0.22342 0.990814,-0.18463 1.855551,-0.52617 3.022304,-1.19371 1.841815,-1.05375 3.680287,-2.61886 4.520137,-3.84803 0.24529,-0.359 0.4775,-0.63324 0.51602,-0.60944 0.0748,0.0463 0.22306,1.03739 0.37288,2.49343 0.0506,0.49218 0.2486,1.8848 0.43991,3.09471 0.31124,1.96845 0.33627,2.25498 0.23789,2.72398 -0.14467,0.68975 -0.84457,2.10189 -1.36805,2.76026 -0.48066,0.60449 -1.20701,1.12341 -1.57252,1.12341 -0.14959,0 -0.51555,-0.18659 -0.902276,-0.46004 z"
       id="path16" />
    <path
       style="fill:#c10202;fill-opacity:1;stroke-width:0.101545;stroke-linejoin:bevel;stroke-miterlimit:0"
       d="m 94.75365,129.50939 c -2.1412,-1.46109 -2.77535,-1.92573 -2.77535,-2.0335 0,-0.0625 0.23696,-0.34538 0.52658,-0.62856 0.65094,-0.63646 1.24166,-1.39555 1.59187,-2.04558 0.14654,-0.272 0.299,-0.49454 0.33881,-0.49454 0.16789,0 1.08616,2.8324 1.4048,4.3331 0.12477,0.58762 0.096,1.42929 -0.0505,1.47741 -0.0537,0.0176 -0.52001,-0.25611 -1.03618,-0.60833 z"
       id="path17" />
    <path
       style="fill:#c10202;fill-opacity:1;stroke-width:0.0359016;stroke-linejoin:bevel;stroke-miterlimit:0"
       d="m 75.653444,157.80681 c -0.632931,-0.2697 -2.573364,-1.25992 -3.64678,-1.86098 -1.806681,-1.01166 -2.868084,-1.84625 -3.883703,-3.05375 -0.717396,-0.85295 -1.854866,-2.34841 -2.294732,-3.01694 -0.195574,-0.29725 -0.51545,-0.89093 -0.492435,-0.91394 0.0059,-0.006 0.347779,0.28177 0.759741,0.63925 2.072094,1.79805 5.454568,4.6575 7.492368,6.33383 2.678469,2.20335 2.533517,2.07193 2.065541,1.87253 z"
       id="path18" />
    <path
       style="fill:#c10202;fill-opacity:1;stroke-width:0.0126931;stroke-linejoin:bevel;stroke-miterlimit:0"
       d="m 89.95538,146.27189 c -0.09722,-0.0485 -0.191542,-0.17175 -0.305424,-0.3993 -0.255408,-0.5103 -0.192276,-0.74282 0.479544,-1.7662 0.31257,-0.47614 0.47997,-0.77127 0.68122,-1.20102 0.51918,-1.10869 0.9472,-2.42092 1.43255,-4.39197 0.13913,-0.56499 0.21177,-0.81412 0.30509,-1.04625 0.0688,-0.17114 0.12651,-0.27747 0.17565,-0.32364 0.028,-0.0263 0.0324,-0.0269 0.0981,-0.0133 0.0924,0.0192 0.15749,0.0822 0.18825,0.18243 0.0314,0.10221 0.0284,0.35068 -0.007,0.55311 -0.11711,0.67615 -0.39481,1.53484 -1.17974,3.64795 -0.54691,1.47234 -0.92754,2.54558 -1.20553,3.39922 -0.12309,0.37797 -0.15685,0.49424 -0.22221,0.76535 -0.0739,0.30645 -0.1303,0.44795 -0.21685,0.54387 -0.0435,0.0482 -0.0998,0.0802 -0.14114,0.0802 -0.0119,0 -0.04914,-0.0137 -0.08279,-0.0305 z"
       id="path19" />
    <path
       style="fill:#c10202;fill-opacity:1;stroke-width:0.0126931;stroke-linejoin:bevel;stroke-miterlimit:0"
       d="m 90.46525,132.55307 c -0.34183,-0.0308 -0.934073,-0.18892 -1.337082,-0.35695 -0.498634,-0.20789 -0.835354,-0.45846 -0.835354,-0.62162 0,-0.12457 0.27944,-0.14607 1.012624,-0.078 0.773072,0.0719 1.269222,0.22986 1.531562,0.48775 0.10471,0.10293 0.16809,0.2185 0.18705,0.34107 0.01,0.0646 0.009,0.0825 -0.009,0.11764 -0.0405,0.0825 -0.16247,0.11979 -0.38045,0.11627 -0.0675,-0.001 -0.14386,-0.004 -0.16977,-0.006 z"
       id="path20" />
    <path
       style="fill:#c10202;fill-opacity:1;stroke-width:0.0126931;stroke-linejoin:bevel;stroke-miterlimit:0"
       d="m 91.29597,130.4281 c -0.20867,-0.96752 -0.34145,-1.66772 -0.36106,-1.90396 l -0.008,-0.0985 0.0283,0.009 c 0.15765,0.0489 1.11333,0.65523 1.9829,1.25805 0.50237,0.34825 0.80908,0.57706 0.89891,0.67056 l 0.0393,0.041 -0.0393,0.0127 c -0.0488,0.0158 -0.16304,0.0326 -0.33961,0.05 -0.0838,0.008 -0.52665,0.0155 -1.16156,0.0188 l -1.02616,0.005 z"
       id="path21" />
    <path
       style="fill:#c10202;fill-opacity:1;stroke-width:0.0126931;stroke-linejoin:bevel;stroke-miterlimit:0"
       d="m 92.98423,133.19418 c -0.21902,-0.37355 -0.48578,-0.85182 -0.56638,-1.01546 -0.0969,-0.19664 -0.15694,-0.35141 -0.14213,-0.36622 0.0612,-0.0613 3.03527,-0.49652 3.41087,-0.49921 0.0552,-4.8e-4 -0.35997,0.32907 -0.95889,0.761 -0.31035,0.22381 -1.68672,1.19347 -1.69406,1.19347 -0.003,0 -0.0257,-0.0331 -0.0494,-0.0735 z"
       id="path22" />
    <path
       style="fill:#c10202;fill-opacity:1;stroke-width:0.0126931;stroke-linejoin:bevel;stroke-miterlimit:0"
       d="m 93.50901,136.36518 c -0.12328,-0.0653 -0.36149,-0.34837 -0.46363,-0.55088 -0.13002,-0.25781 -0.14966,-0.53632 -0.0567,-0.80388 0.1102,-0.31707 0.40749,-0.69293 0.87943,-1.11182 0.44157,-0.39192 1.42376,-1.12184 1.56898,-1.166 0.0216,-0.006 0.0265,-0.003 0.0265,0.0166 0,0.13955 -0.57357,1.41888 -1.17741,2.62618 -0.287,0.5738 -0.43503,0.82416 -0.55199,0.93356 -0.0895,0.0838 -0.14642,0.0979 -0.2252,0.0562 z"
       id="path23" />
    <path
       style="fill:#c10202;fill-opacity:1;stroke-width:0.0126931;stroke-linejoin:bevel;stroke-miterlimit:0"
       d="m 95.2492,136.58803 c -0.0853,-0.0134 -0.15939,-0.051 -0.17705,-0.0897 -0.0109,-0.024 -0.01,-0.0455 0.006,-0.10571 0.0556,-0.21208 0.35489,-0.92881 0.6828,-1.63529 0.11577,-0.24942 0.97574,-2.0599 0.981,-2.06527 0.006,-0.006 0.78748,0.23274 0.98821,0.30191 0.20063,0.0691 0.34487,0.14416 0.43171,0.22456 0.14932,0.13823 0.18925,0.26885 0.20405,0.66747 0.01,0.27018 0.0264,0.47311 0.0598,0.74181 0.054,0.43404 0.0948,0.64898 0.25069,1.31876 l 0.10411,0.44745 -0.80779,0.007 c -0.44428,0.004 -0.89256,0.0134 -0.99618,0.0207 -0.56023,0.0393 -0.82803,0.068 -1.16436,0.12449 -0.25849,0.0434 -0.45733,0.0581 -0.5631,0.0414 z"
       id="path24" />
    <path
       style="fill:#c10202;fill-opacity:1;stroke-width:0.0126931;stroke-linejoin:bevel;stroke-miterlimit:0"
       d="m 98.04228,131.65042 c -0.15215,-0.0542 -0.32536,-0.15852 -0.54164,-0.32622 -0.33559,-0.26021 -0.44955,-0.45125 -0.51496,-0.86327 -0.0309,-0.1943 -0.0306,-1.19508 2.4e-4,-1.39982 0.0356,-0.23539 0.0948,-0.37422 0.16723,-0.39241 0.09,-0.0226 0.21503,0.0513 0.40061,0.23653 0.27485,0.27441 0.57054,0.70816 0.79462,1.16571 0.12437,0.25392 0.19053,0.43085 0.22534,0.60259 0.0245,0.12067 0.0251,0.13808 0.0122,0.32761 -0.0258,0.3795 -0.0914,0.56255 -0.23035,0.64225 -0.0521,0.0299 -0.0723,0.0346 -0.1486,0.0344 -0.0622,-9e-5 -0.11098,-0.008 -0.16484,-0.0274 z"
       id="path25" />
    <path
       style="fill:#c10202;fill-opacity:1;stroke-width:0.0718033;stroke-linejoin:bevel;stroke-miterlimit:0"
       d="m 98.56458,128.78604 c -0.13185,-0.11577 -0.31174,-0.3526 -0.39976,-0.5263 -0.21697,-0.42817 -0.41782,-0.56795 -0.94746,-0.6594 -0.56517,-0.0976 -0.72488,-0.2018 -0.88628,-0.57832 -0.17605,-0.41071 -0.73869,-2.23391 -0.70101,-2.27159 0.0167,-0.0167 0.36953,0.14897 0.78404,0.36817 1.2257,0.64816 1.48168,0.69503 3.23016,0.59152 l 0.94452,-0.0559 -0.39895,0.95512 c -0.21942,0.52532 -0.55173,1.27734 -0.73846,1.67116 -0.38809,0.8185 -0.47436,0.86768 -0.8868,0.50556 z"
       id="path26" />
    <path
       style="fill:#c10202;fill-opacity:1;stroke-width:0.0718033;stroke-linejoin:bevel;stroke-miterlimit:0"
       d="m 99.9098,130.55069 c -0.0938,-0.0939 -0.0377,-0.56964 0.11443,-0.96984 0.13084,-0.34418 1.1502,-2.57487 1.2033,-2.6332 0.009,-0.009 0.14509,0.32018 0.30316,0.73269 0.3489,0.91052 0.72902,1.64596 1.03629,2.00494 0.40406,0.47206 0.36032,0.501 -1.1259,0.74491 -1.01789,0.16704 -1.45069,0.2011 -1.53128,0.1205 z"
       id="path27" />
    <path
       style="fill:#c10202;fill-opacity:1;stroke-width:0.0718033;stroke-linejoin:bevel;stroke-miterlimit:0"
       d="m 104.45804,129.37205 c -0.86861,-0.23427 -1.40917,-0.9442 -1.82578,-2.39787 -0.24413,-0.85185 -0.23331,-1.50573 0.039,-2.35634 0.27991,-0.87436 2.28343,-4.79816 3.5551,-6.96251 l 0.35588,-0.60569 0.0455,0.26181 c 0.51692,2.97317 1.26789,4.93277 2.60606,6.80029 0.95579,1.33388 1.88249,2.24142 2.7132,2.65709 0.63603,0.31825 1.10673,0.30035 1.10673,-0.0421 0,-0.1402 -0.77257,-1.24691 -1.5965,-2.287 -1.34214,-1.69427 -2.34067,-3.3936 -2.79212,-4.75172 -0.41574,-1.25071 -0.50051,-1.83051 -0.50394,-3.44689 -0.004,-1.74642 -0.0404,-1.62461 1.04699,-3.47823 1.50199,-2.5604 2.52465,-4.53439 3.10602,-5.99535 0.55773,-1.40156 2.7327,-5.48057 2.9218,-5.47963 0.027,1.3e-4 0.30139,0.4872 0.60972,1.08238 0.97053,1.87343 1.70083,2.98445 3.77909,5.74923 0.7454,0.99163 1.35528,1.83511 1.35528,1.8744 0,0.0393 -0.41806,1.13485 -0.92902,2.43459 -1.42096,3.61452 -2.42154,6.32401 -4.33501,11.73895 -0.51782,1.46537 -0.9615,2.6852 -0.98595,2.71075 -0.0943,0.0985 -5.81483,1.71833 -8.05489,2.28086 -1.26164,0.31683 -1.68231,0.35724 -2.21717,0.21299 z"
       id="path28" />
    <path
       style="fill:#c10202;fill-opacity:1;stroke-width:0.0718033;stroke-linejoin:bevel;stroke-miterlimit:0"
       d="m 120.75565,106.94566 c -1.25176,-1.58197 -2.24961,-2.96909 -2.99208,-4.15933 -0.69212,-1.10954 -1.66943,-3.00308 -1.60688,-3.11334 0.0262,-0.0461 0.6342,-1.028 1.35118,-2.18198 3.31146,-5.32975 7.57744,-11.35832 10.95856,-15.486325 0.95762,-1.169166 2.54912,-2.964458 2.6271,-2.963514 0.0243,2.36e-4 0.19045,0.382455 0.36915,0.849249 0.66069,1.725813 1.46135,3.318998 2.44108,4.85728 0.6418,1.00772 1.07833,1.58989 1.88788,2.51777 l 0.63229,0.72472 -1.33855,1.37006 c -2.98158,3.05176 -4.7089,5.04249 -6.70619,7.72885 -2.23365,3.00424 -3.80897,5.65606 -6.14416,10.34276 l -0.42296,0.84888 z"
       id="path29" />
    <path
       style="fill:#c10202;fill-opacity:1;stroke-width:0.0718033;stroke-linejoin:bevel;stroke-miterlimit:0"
       d="m 104.12526,159.76118 c -0.89587,-0.44132 -1.97355,-0.94746 -2.39485,-1.12476 -2.84499,-1.19728 -5.62629,-1.78017 -7.6215,-1.5973 -1.75582,0.16093 -3.51973,0.64364 -4.934075,1.35023 -0.701419,0.35043 -0.899381,0.40761 -0.898665,0.25966 7.09e-4,-0.17042 0.35718,-1.84406 0.654942,-3.07597 0.365855,-1.51364 1.036558,-4.01091 1.663688,-6.19453 l 0.52607,-1.83171 2.02434,0.0223 c 3.74392,0.0412 5.66602,0.38165 7.13572,1.26413 0.30265,0.18172 0.73012,0.42073 0.94992,0.53112 0.21981,0.11038 0.46587,0.27178 0.54681,0.35865 0.25851,0.27748 0.58949,1.10543 1.2203,3.05257 0.75306,2.32455 1.31989,3.92106 2.16045,6.08507 0.3537,0.9106 0.63243,1.66629 0.6194,1.67933 -0.013,0.013 -0.75668,-0.3374 -1.65255,-0.77872 z"
       id="path30" />
    <path
       style="fill:#c10202;fill-opacity:1;stroke-width:0.0718033;stroke-linejoin:bevel;stroke-miterlimit:0"
       d="m 107.72512,166.98992 c -0.20149,-0.013 -0.89088,-0.0559 -1.53198,-0.0954 -1.50786,-0.0929 -4.42743,-0.35528 -6.32775,-0.56871 -4.13374,-0.46426 -5.89726,-0.87215 -9.50337,-2.19801 -2.172149,-0.79864 -2.741866,-1.08049 -2.885637,-1.42759 -0.11465,-0.27678 -0.04721,-0.54825 0.325561,-1.31053 0.388456,-0.79436 0.728378,-1.13089 1.588669,-1.57286 1.404767,-0.72167 3.360627,-1.11326 5.559827,-1.11313 2.1164,1.1e-4 3.15328,0.18829 5.68094,1.03106 1.81962,0.60668 5.70123,2.00969 5.7696,2.08542 0.0235,0.026 0.40056,0.73672 0.8379,1.57931 0.91351,1.75995 1.52894,2.77812 1.93796,3.20615 0.38477,0.40264 0.51575,0.37389 0.50552,-0.11097 -0.0125,-0.59103 -0.29744,-1.40553 -1.21888,-3.48383 -0.32753,-0.73873 -0.65628,-1.49824 -0.73057,-1.68778 l -0.13507,-0.34462 0.25423,-0.22968 c 0.59324,-0.53596 2.52564,-1.71521 3.96943,-2.42236 2.31299,-1.13288 3.79384,-1.35501 10.59065,-1.58861 1.6119,-0.0554 3.52614,-0.13126 4.25386,-0.16855 0.72771,-0.0373 1.38713,-0.0498 1.46537,-0.0279 0.39982,0.11222 1.04368,0.39818 2.77326,1.23173 3.56359,1.71743 5.09735,2.267 6.33442,2.26973 0.54901,0.001 0.74822,-0.0715 0.6804,-0.24821 -0.0989,-0.25774 -1.52242,-1.04632 -5.1295,-2.84157 -2.38388,-1.18645 -3.22864,-1.64913 -3.65954,-2.00431 -0.23583,-0.1944 -0.23978,-0.20557 -0.20166,-0.56962 0.0766,-0.7318 0.8911,-3.03182 1.51399,-4.27537 l 0.3207,-0.64027 2.88477,-0.0388 c 2.92916,-0.0394 3.61751,-0.081 5.28267,-0.31848 2.75879,-0.39358 5.13862,-1.25617 6.59865,-2.39178 1.01887,-0.79247 2.31797,-1.77343 2.52094,-1.90359 l 0.19413,-0.12449 -0.0451,0.58579 c -0.0247,0.32217 -0.091,0.67457 -0.14705,0.78309 -0.10874,0.21026 -0.51738,0.52441 -1.48433,1.14107 -1.55552,0.99201 -3.51596,2.86778 -4.44343,4.25153 -1.15025,1.71609 -2.64181,5.673 -3.39303,9.00124 -0.0967,0.42875 -0.25641,0.93806 -0.35474,1.13179 l -0.1788,0.35224 -1.13234,0.41664 c -3.92646,1.4447 -6.37257,2.15083 -10.08973,2.91262 -3.7569,0.76994 -7.09312,1.22407 -11.79094,1.60499 -1.20696,0.0979 -6.49569,0.18481 -7.46008,0.12265 z"
       id="path31" />
    <path
       style="fill:#c10202;fill-opacity:1;stroke-width:0.0718033;stroke-linejoin:bevel;stroke-miterlimit:0"
       d="m 106.73776,158.92008 c -1.0418,-2.67549 -3.54198,-9.94533 -3.54198,-10.2991 0,-0.0949 1.16137,-0.87296 3.08107,-2.06414 2.25741,-1.40072 2.66936,-1.5754 3.71028,-1.57329 0.62583,0.001 1.17523,0.10035 1.99888,0.36056 0.29796,0.0942 0.67124,0.17115 0.8295,0.17115 0.3993,0 0.88811,0.33334 2.96915,2.02479 3.95519,3.21473 7.41399,5.74588 10.57342,7.73761 0.22864,0.14414 0.41597,0.28455 0.41629,0.31203 2.4e-4,0.0274 -2.165,0.0504 -4.81183,0.051 -6.31444,0.001 -6.87893,0.0414 -8.64237,0.61222 -2.08242,0.67416 -3.61461,1.49765 -5.44926,2.92874 -0.41438,0.32323 -0.76446,0.58769 -0.77794,0.58769 -0.0135,0 -0.17334,-0.38216 -0.35521,-0.84925 z"
       id="path32" />
    <path
       style="fill:#c10202;fill-opacity:1;stroke-width:0.0718033;stroke-linejoin:bevel;stroke-miterlimit:0"
       d="m 101.03103,148.17191 c -1.16975,-0.95674 -2.26968,-1.43105 -3.94245,-1.70006 -0.58233,-0.0936 -1.17462,-0.11659 -3.09573,-0.1199 -1.3066,-0.002 -2.39274,-0.0212 -2.41365,-0.0421 -0.0529,-0.0528 1.87187,-5.77553 2.27679,-6.76928 0.43254,-1.06153 0.63934,-1.40831 0.90639,-1.51989 0.38123,-0.15929 1.57988,-0.30455 2.84545,-0.34484 1.46102,-0.0465 1.44065,-0.0552 1.61267,0.68635 1.06936,4.60972 2.01434,8.43012 2.35328,9.51396 0.1254,0.40098 0.21943,0.76639 0.20896,0.81202 -0.0105,0.0459 -0.34626,-0.18468 -0.75171,-0.5163 z"
       id="path33" />
    <path
       style="fill:#c10202;fill-opacity:1;stroke-width:0.0718033;stroke-linejoin:bevel;stroke-miterlimit:0"
       d="m 102.63031,146.67698 c -0.6441,-2.11169 -2.18727,-8.10858 -2.26468,-8.80078 l -0.0461,-0.4121 0.25583,-0.0671 c 0.35248,-0.0925 1.21509,-0.24581 2.30857,-0.41012 l 0.9204,-0.13831 1.76874,1.71902 c 2.61836,2.54477 4.07468,3.89491 5.54903,5.14446 l 0.16652,0.14113 -0.56616,-0.0515 c -2.19841,-0.19989 -2.87724,0.0514 -6.16123,2.27993 -0.65941,0.44749 -1.32471,0.89216 -1.47843,0.98813 l -0.27949,0.17451 z"
       id="path34" />
    <path
       style="fill:#c10202;fill-opacity:1;stroke-width:0.143606;stroke-linejoin:bevel;stroke-miterlimit:0"
       d="m 110.9889,141.57117 c -0.87922,-0.73849 -2.6027,-2.24305 -3.82995,-3.34348 l -2.23136,-2.00077 -0.0129,-1.21733 c -0.0207,-1.95673 0.009,-2.22951 0.35683,-3.29523 l 0.33055,-1.01218 2.36038,-0.68263 c 3.84086,-1.11078 5.37196,-1.51947 5.43952,-1.45191 0.0593,0.0593 -0.2936,0.92885 -0.68763,1.69443 -0.0943,0.18317 -0.49109,0.50296 -0.88181,0.71065 -0.58448,0.31069 -0.81666,0.36417 -1.30987,0.3017 -0.77554,-0.0982 -0.94712,0.0258 -1.02798,0.7432 -0.16428,1.45746 0.19035,2.59081 2.13928,6.83685 0.70546,1.53697 1.053,2.76993 0.99451,3.52823 l -0.041,0.53117 z"
       id="path35" />
    <path
       style="fill:#c10202;fill-opacity:1;stroke-width:0.0359016;stroke-linejoin:bevel;stroke-miterlimit:0"
       d="m 100.0113,136.31798 c -0.16574,-0.0804 -0.29619,-0.46324 -0.70156,-2.05945 -0.35516,-1.39852 -0.36859,-1.61473 -0.11459,-1.8446 0.22805,-0.20638 0.74012,0.19071 2.10545,1.6327 1.16814,1.23371 1.32902,1.43404 1.32902,1.65489 0,0.15999 -0.14747,0.21199 -1.01538,0.35805 -0.32993,0.0555 -0.8083,0.14509 -1.06305,0.19903 -0.25476,0.0539 -0.46457,0.097 -0.46626,0.0958 -0.002,-0.001 -0.0348,-0.0176 -0.0736,-0.0364 z"
       id="path36" />
    <path
       style="fill:#c10202;fill-opacity:1;stroke-width:0.0359016;stroke-linejoin:bevel;stroke-miterlimit:0"
       d="m 103.3623,134.64819 c -0.15569,-0.15101 -0.76043,-0.73132 -1.34387,-1.28959 -0.58343,-0.55828 -1.21855,-1.18704 -1.41137,-1.39725 l -0.35059,-0.3822 0.10958,-0.0448 c 0.0648,-0.0264 0.3559,-0.0573 0.71199,-0.0755 0.75889,-0.0388 1.2318,-0.0994 2.05113,-0.26292 0.35719,-0.0713 0.7378,-0.1402 0.84581,-0.15321 l 0.19638,-0.0236 -0.0218,0.16432 c -0.012,0.0904 -0.0955,0.40337 -0.18558,0.69551 -0.21243,0.68893 -0.25406,0.85786 -0.31666,1.28478 -0.0608,0.41501 -0.0658,0.81229 -0.0161,1.30535 0.0197,0.19545 0.0309,0.37748 0.025,0.4045 -0.007,0.032 -0.10991,-0.047 -0.29387,-0.22543 z"
       id="path37" />
    <path
       style="fill:#c10202;fill-opacity:1;stroke-width:0.0359016;stroke-linejoin:bevel;stroke-miterlimit:0"
       d="m 126.42527,153.46919 c -3.32082,-2.2347 -4.73505,-3.28195 -9.43589,-6.98733 -2.43473,-1.91916 -2.88988,-2.32474 -3.14034,-2.79832 -0.0754,-0.14256 -0.0798,-0.18561 -0.0898,-0.88255 l -0.0105,-0.73269 0.99297,0.98448 c 1.02246,1.01371 1.49464,1.4298 2.35844,2.07831 1.45815,1.09472 2.89693,1.92461 4.09638,2.36282 0.29308,0.10706 1.00495,0.37087 1.58194,0.58623 1.24971,0.46645 1.50784,0.5506 2.28662,0.74545 1.05947,0.26506 1.76008,0.38383 3.47496,0.5891 0.33887,0.0405 0.62875,0.0849 0.64416,0.0984 0.0154,0.0136 -0.10282,0.37475 -0.26266,0.80261 -0.60042,1.60668 -0.85274,2.46259 -1.04915,3.5588 -0.041,0.22896 -0.0836,0.43314 -0.0948,0.45371 -0.0124,0.0228 -0.53876,-0.31155 -1.35235,-0.85906 z"
       id="path38" />
    <path
       style="fill:#c10202;fill-opacity:1;stroke-width:0.20309;stroke-linejoin:bevel;stroke-miterlimit:0"
       d="m 136.8676,86.12025 c -1.85821,-2.317597 -3.26573,-4.783743 -4.35051,-7.6226 l -0.29922,-0.78306 2.86445,-2.798417 c 4.26794,-4.169549 6.66263,-6.18117 14.45078,-12.139148 5.00374,-3.827894 8.09319,-6.080181 8.19732,-5.976052 0.0435,0.0435 0.33877,2.067238 0.65614,4.497183 1.22871,9.407617 1.93223,13.569238 3.11515,18.427396 0.46325,1.902544 0.83761,3.555714 0.83191,3.67371 -0.006,0.117997 -0.41403,-0.929962 -0.90738,-2.328798 -1.47293,-4.176298 -3.03928,-7.13783 -4.52415,-8.553855 l -0.57364,-0.547049 -1.37243,1.250096 c -0.75483,0.687553 -2.30498,2.101336 -3.44478,3.141739 -1.13978,1.040404 -2.58101,2.201746 -3.20272,2.580755 -2.10246,1.281732 -8.44457,5.95337 -10.48206,7.72115 -0.27442,0.2381 -0.38092,0.17778 -0.95886,-0.54305 z"
       id="path39" />
    <path
       style="fill:#c10202;fill-opacity:1;stroke-width:0.20309;stroke-linejoin:bevel;stroke-miterlimit:0"
       d="m 172.28005,105.59992 c -3.06156,-6.43841 -6.69972,-16.9928 -8.79581,-25.516907 -0.82033,-3.33603 -4.65358,-24.215459 -4.47455,-24.372585 0.24024,-0.21084 3.96437,-2.467134 5.0808,-3.078234 1.44801,-0.792597 1.46951,-0.797727 1.97816,-0.472047 0.97477,0.624129 3.73288,3.576279 5.27256,5.643484 1.79498,2.409976 4.58645,7.002854 5.69803,9.375089 1.3485,2.87786 3.54976,10.257013 4.98703,16.717674 0.75742,3.404686 1.97295,14.118916 1.98087,17.460296 l 0.002,0.97569 -1.36587,0.84191 c -1.3553,0.8354 -6.31915,3.58018 -8.17108,4.51824 l -0.96496,0.48878 z"
       id="path40" />
    <path
       style="fill:#c10202;fill-opacity:1;stroke-width:0.20309;stroke-linejoin:bevel;stroke-miterlimit:0"
       d="m 149.1563,145.40123 c 0,-0.38317 1.08935,-2.08438 2.00867,-3.13689 3.50558,-4.01345 4.25751,-4.91785 5.66985,-6.81951 1.81142,-2.43902 2.70381,-4.0997 4.56766,-8.50009 2.32551,-5.49032 2.94387,-7.44382 3.8334,-12.11028 l 0.40513,-2.12532 2.1724,-0.72798 c 1.19483,-0.40039 2.7088,-0.95374 3.36439,-1.22968 0.65558,-0.27593 1.22053,-0.47313 1.25543,-0.43823 0.035,0.0349 -0.39562,1.41749 -0.95673,3.07241 -2.40142,7.08273 -4.53673,15.79152 -5.56489,22.69627 -0.22372,1.50245 -0.50332,2.79547 -0.62133,2.87338 -0.11801,0.0779 -0.80801,0.31324 -1.53333,0.52295 -3.7096,1.07257 -5.68994,1.77919 -7.16119,2.55524 -1.57523,0.83091 -7.16249,3.46819 -7.34757,3.46819 -0.0505,0 -0.0919,-0.0452 -0.0919,-0.10045 z"
       id="path41" />
    <path
       style="fill:#c10202;fill-opacity:1;stroke-width:0.20309;stroke-linejoin:bevel;stroke-miterlimit:0"
       d="m 167.24226,138.27499 c 0,-0.71419 0.87285,-5.6537 1.6193,-9.16369 1.29716,-6.09962 4.20189,-16.80502 5.12756,-18.89765 0.44287,-1.00119 0.78226,-1.23756 4.35739,-3.03483 1.39275,-0.70015 3.18156,-1.68951 3.97513,-2.19856 0.79358,-0.50906 1.49797,-0.92556 1.56534,-0.92556 0.36273,0 -0.11386,5.63097 -0.91256,10.78194 -1.35051,8.70975 -3.76727,15.95025 -7.13849,21.38658 l -1.08067,1.74266 h -1.01511 c -0.95051,0 -4.82701,0.43859 -5.9798,0.67657 -0.45634,0.0942 -0.51809,0.0504 -0.51809,-0.36746 z"
       id="path42" />
    <path
       style="fill:#c10202;fill-opacity:1;stroke-width:0.20309;stroke-linejoin:bevel;stroke-miterlimit:0"
       d="m 165.48698,107.39872 c -0.12913,-4.4154 -0.69641,-11.43306 -1.17027,-14.4772 -0.16783,-1.07816 -0.55924,-3.13406 -0.86982,-4.56866 -0.31056,-1.4346 -0.53255,-2.64048 -0.49329,-2.67974 0.0393,-0.0392 0.26056,0.58346 0.49179,1.3838 1.98328,6.86452 5.23751,14.90267 8.00391,19.77008 0.4838,0.85125 0.87964,1.62622 0.87964,1.72215 0,0.24028 -6.10344,2.85298 -6.66478,2.85298 -0.033,0 -0.11277,-1.80154 -0.17718,-4.00341 z"
       id="path43" />
    <path
       style="fill:#c10202;fill-opacity:1;stroke-width:0.0507725;stroke-linejoin:bevel;stroke-miterlimit:0"
       d="m 146.37747,182.37865 c -0.3963,-0.0542 -1.05896,-0.3799 -1.51759,-0.74585 -0.90015,-0.71823 -1.96772,-2.04236 -1.96772,-2.44058 0,-0.12833 0.0342,-0.1804 0.19591,-0.29747 0.55657,-0.40317 2.08188,-0.64567 3.77324,-0.59988 1.00257,0.0271 1.28992,0.0815 2.07437,0.39217 0.55642,0.22038 2.24207,1.04348 2.5654,1.25268 l 0.24889,0.16103 -0.15057,0.20947 c -0.21266,0.29587 -0.97363,1.15703 -1.25291,1.41789 -0.4355,0.40679 -0.76971,0.50859 -1.96732,0.59918 -1.06295,0.0804 -1.67465,0.0961 -2.0017,0.0514 z"
       id="path44" />
    <path
       style="fill:#c10202;fill-opacity:1;stroke-width:0.0507725;stroke-linejoin:bevel;stroke-miterlimit:0"
       d="m 151.46446,178.39825 c -0.84491,-0.57074 -1.16883,-0.74749 -1.79943,-0.98188 -1.0035,-0.37299 -2.02028,-0.54737 -3.18321,-0.54592 -1.54469,0.002 -2.25152,0.17108 -4.21494,1.00876 l -0.17784,0.0759 -0.44447,-0.90099 c -0.71436,-1.4481 -1.06134,-2.40458 -0.99415,-2.74053 0.0661,-0.33049 0.5228,-0.70225 1.31587,-1.07114 0.8599,-0.39997 1.67272,-0.53265 3.25726,-0.53167 2.02585,0.001 3.65758,0.29403 5.57223,0.99979 0.84003,0.30963 1.37237,0.47435 1.53306,0.47435 0.0406,0 0.0973,-0.0434 0.12562,-0.0965 0.23457,-0.43831 -1.01193,-1.43296 -2.61522,-2.08684 -1.4365,-0.58587 -2.78505,-0.85054 -4.3331,-0.85043 -1.67156,1.1e-4 -2.61582,0.23032 -4.32723,1.055 -0.48896,0.23561 -0.89442,0.42221 -0.90104,0.41468 -0.0205,-0.0234 -0.2097,-2.46517 -0.25834,-3.33419 -0.0254,-0.45332 -0.0464,-1.15501 -0.0468,-1.55929 l -7.2e-4,-0.73505 1.77798,-0.85052 c 2.6098,-1.24844 2.84194,-1.32953 3.80578,-1.32953 1.09944,0 2.17663,0.17376 3.05813,0.4933 0.69268,0.25108 2.13927,0.92518 2.16437,1.00855 0.0126,0.0418 0.10898,0.45747 0.21425,0.92375 0.25536,1.13109 0.38247,1.60373 0.66497,2.47269 0.53116,1.63379 1.16784,3.04661 1.83683,4.07594 l 0.37156,0.57171 -0.56137,1.69134 c -0.57207,1.72357 -0.97865,2.80524 -1.06324,2.82865 -0.0259,0.007 -0.37548,-0.20879 -0.77683,-0.4799 z"
       id="path45" />
    <path
       style="fill:#c10202;fill-opacity:1;stroke-width:0.0507725;stroke-linejoin:bevel;stroke-miterlimit:0"
       d="m 139.99245,165.49502 c -0.0385,-0.20493 0.052,-2.34662 0.14721,-3.48518 0.0864,-1.03389 0.14578,-1.4272 0.23625,-1.56584 0.3795,-0.58158 4.53734,-1.43225 6.4019,-1.3098 1.19216,0.0783 1.8871,0.21025 2.89916,0.5505 l 0.73262,0.2463 -0.0151,0.68618 c -0.028,1.27211 -0.11072,3.44933 -0.13897,3.65545 l -0.0281,0.20455 -0.28833,-0.11059 c -0.15858,-0.0609 -0.51087,-0.21621 -0.78287,-0.34529 -1.08434,-0.51461 -1.96249,-0.69473 -3.20205,-0.65682 -1.62969,0.0498 -3.12575,0.53846 -4.59281,1.50003 -0.66298,0.43454 -1.25323,0.79549 -1.30086,0.79549 -0.0204,0 -0.0512,-0.0743 -0.0682,-0.16498 z"
       id="path46" />
    <path
       style="fill:#c10202;fill-opacity:1;stroke-width:0.0507725;stroke-linejoin:bevel;stroke-miterlimit:0"
       d="m 149.98053,158.52072 c -0.55947,-0.24677 -1.5351,-0.5665 -2.09589,-0.68685 -0.70957,-0.15229 -2.25724,-0.15147 -3.24982,0.002 -0.89924,0.13877 -1.60154,0.29261 -2.41719,0.52948 -0.68661,0.19941 -1.21984,0.28051 -1.27348,0.19371 -0.0449,-0.0726 0.15933,-0.75053 0.61679,-2.0477 l 0.4111,-1.1657 2.14384,7.1e-4 c 2.03537,7.1e-4 2.81203,0.0351 3.20754,0.14156 0.0963,0.0259 0.31409,0.14231 0.48397,0.25862 0.49978,0.34221 0.63848,0.36535 2.32622,0.38801 0.82826,0.0111 1.47184,0.0384 1.47184,0.0622 0,0.0845 -0.62754,1.81567 -0.74142,2.04536 -0.14821,0.29894 -0.28462,0.44777 -0.40894,0.44619 -0.0537,-7e-4 -0.26732,-0.076 -0.47456,-0.16742 z"
       id="path47" />
    <path
       style="fill:#c10202;fill-opacity:1;stroke-width:0.0507725;stroke-linejoin:bevel;stroke-miterlimit:0"
       d="m 143.31208,154.07584 c -0.47369,-0.0394 -0.65542,-0.0997 -0.65542,-0.21733 0,-0.36118 1.50157,-2.47768 2.45627,-3.46221 0.45356,-0.46772 1.36972,-1.18969 1.41238,-1.113 0.0573,0.10304 0.2266,1.21384 0.37119,2.43544 0.0782,0.66057 0.17618,1.40672 0.21775,1.65813 0.0416,0.25141 0.0635,0.48853 0.0488,0.52693 -0.0147,0.0384 -0.10745,0.094 -0.20603,0.12351 -0.21984,0.0659 -2.99318,0.10283 -3.64495,0.0486 z"
       id="path48" />
    <path
       style="fill:#c10202;fill-opacity:1;stroke-width:0.0507725;stroke-linejoin:bevel;stroke-miterlimit:0"
       d="m 148.88759,155.01351 c -0.083,-0.0256 -0.18443,-0.0939 -0.22533,-0.15172 -0.30077,-0.42528 -0.77291,-3.2295 -0.94551,-5.61574 -0.0394,-0.54475 0.0192,-0.76837 0.26265,-1.0023 0.17626,-0.16936 1.20632,-0.80816 1.9867,-1.23205 l 0.36236,-0.19684 0.0681,0.13232 c 0.0997,0.19388 0.21573,0.60671 0.68542,2.44017 0.23227,0.90665 0.57034,2.17994 0.75128,2.82952 0.34659,1.24428 0.57287,2.18777 0.57287,2.3886 0,0.0932 -0.029,0.12604 -0.12952,0.14657 -0.84209,0.172 -3.11135,0.34708 -3.38901,0.26147 z"
       id="path49" />
    <path
       style="fill:#c10202;fill-opacity:1;stroke-width:0.0507725;stroke-linejoin:bevel;stroke-miterlimit:0"
       d="m 152.52311,158.16237 c 0.18067,-0.63535 1.43523,-2.72225 1.97151,-3.27952 0.45098,-0.46864 1.15723,-0.89507 1.69071,-1.02085 0.46555,-0.10977 1.26595,-0.0913 1.93738,0.0449 1.3477,0.27314 1.91965,0.51216 2.4649,1.03008 0.5962,0.56634 1.28538,1.44444 1.28538,1.63774 0,0.1255 -0.0707,0.11437 -0.61079,-0.0961 -1.05356,-0.41058 -1.87173,-0.57864 -2.82742,-0.5808 -1.59777,-0.003 -3.04403,0.52615 -5.03958,1.84589 -0.24609,0.16275 -0.54995,0.34803 -0.67524,0.41174 l -0.2278,0.11582 z"
       id="path50" />
    <path
       style="fill:#c10202;fill-opacity:1;stroke-width:0.0507725;stroke-linejoin:bevel;stroke-miterlimit:0"
       d="m 152.1245,165.24788 c -0.0976,-0.34087 -0.16036,-2.31953 -0.10888,-3.43198 0.0605,-1.30889 0.0901,-1.39064 0.72752,-2.00827 1.30246,-1.26217 3.53645,-2.49123 4.93806,-2.71675 0.87904,-0.14144 2.14372,0.0178 4.83547,0.60918 l 0.24334,0.0534 0.84547,1.28039 c 1.15391,1.74749 1.64756,2.61021 1.81369,3.16964 0.0988,0.33255 0.0454,0.40152 -0.18686,0.24167 -0.35313,-0.243 -0.67087,-0.29748 -2.14136,-0.36713 -1.64361,-0.0779 -4.11064,0.0482 -5.15119,0.26304 -0.96893,0.20015 -2.32893,0.74835 -3.44508,1.38867 -0.67763,0.38876 -1.03158,0.64427 -1.49324,1.07796 -0.43135,0.40521 -0.69689,0.61675 -0.77417,0.61675 -0.0288,0 -0.075,-0.0795 -0.10272,-0.17662 z"
       id="path51" />
    <path
       style="fill:#c10202;fill-opacity:1;stroke-width:0.0507725;stroke-linejoin:bevel;stroke-miterlimit:0"
       d="m 154.41892,172.16423 c -0.47784,-0.56787 -1.77857,-4.13346 -1.77683,-4.87073 7e-4,-0.30402 0.18859,-0.64026 0.63229,-1.13153 1.53272,-1.69705 3.36899,-2.54388 6.26722,-2.89023 0.61094,-0.073 1.06956,-0.0833 3.39112,-0.0763 1.60716,0.005 2.73189,0.0264 2.80238,0.0538 0.19037,0.074 0.75391,1.4256 1.11321,2.66978 0.46466,1.609 0.63549,3.32047 0.33143,3.32047 -0.0357,0 -0.13686,-0.0523 -0.22488,-0.11619 -0.0881,-0.0639 -0.20961,-0.15236 -0.27021,-0.19657 -0.24499,-0.17874 -0.65669,-0.2138 -2.8,-0.23845 -3.49778,-0.0402 -4.19891,0.0662 -5.94441,0.90222 -1.3994,0.67026 -2.43831,1.43844 -2.86944,2.12168 -0.17852,0.28291 -0.43989,0.58873 -0.50318,0.58873 -0.0186,0 -0.0854,-0.0616 -0.1487,-0.13671 z"
       id="path52" />
    <path
       style="fill:#c10202;fill-opacity:1;stroke-width:0.0507725;stroke-linejoin:bevel;stroke-miterlimit:0"
       d="m 159.58089,175.95524 c -0.92192,-0.17611 -1.88891,-0.64385 -2.86522,-1.38592 -0.37398,-0.28426 -1.43651,-1.19714 -1.43651,-1.23417 0,-0.0733 1.01436,-1.28476 1.25783,-1.50216 0.8066,-0.72022 2.38531,-1.56073 3.36065,-1.78924 0.68751,-0.16107 1.43396,-0.20027 5.99053,-0.31465 1.06705,-0.0268 1.2599,-0.0214 1.2599,0.0347 0,0.10708 -0.18256,0.74509 -0.30964,1.08208 -0.32738,0.86824 -1.31893,2.19163 -2.33366,3.1147 -0.87315,0.79427 -1.85471,1.50342 -2.32887,1.68255 -0.85861,0.32435 -1.88478,0.44776 -2.59501,0.3121 z"
       id="path53" />
    <path
       style="fill:#c10202;fill-opacity:1;stroke-width:0.0507725;stroke-linejoin:bevel;stroke-miterlimit:0"
       d="m 179.84121,177.3946 c -1.18899,-0.36647 -2.70819,-1.21949 -2.70819,-1.5206 0,-0.12011 0.0573,-0.13735 0.255,-0.0766 0.87698,0.26915 5.1585,-1.5314 7.46872,-3.14088 0.24582,-0.17126 0.4534,-0.292 0.4613,-0.26831 0.0222,0.0664 -0.24883,1.10194 -0.436,1.66629 -0.6258,1.88685 -1.54618,2.8429 -3.12541,3.24659 -0.72401,0.18508 -1.4962,0.2228 -1.91542,0.0935 z"
       id="path54" />
    <path
       style="fill:#c10202;fill-opacity:1;stroke-width:0.0507725;stroke-linejoin:bevel;stroke-miterlimit:0"
       d="m 174.68091,172.8693 c -0.70957,-0.87899 -1.29662,-1.61765 -1.30455,-1.64145 -0.008,-0.0238 0.0869,-0.0814 0.21089,-0.12785 0.64731,-0.24303 1.56991,-0.83326 3.56932,-2.28349 1.72665,-1.25238 3.01097,-2.06793 4.00341,-2.54215 0.29778,-0.14229 1.67461,-0.71653 2.27282,-0.94794 0.0922,-0.0357 0.12765,-0.0117 0.26791,0.18156 0.20041,0.27611 0.73034,1.33778 1.10119,2.20615 0.39445,0.92364 0.62462,1.6616 0.65545,2.10147 0.0385,0.54867 -0.0239,0.6188 -1.23595,1.38952 -1.44279,0.91748 -3.42139,1.97322 -4.54504,2.42514 -0.53813,0.21643 -1.24563,0.45084 -1.74487,0.57811 -0.41697,0.10629 -1.47938,0.2577 -1.81512,0.25869 -0.13432,4.8e-4 -0.24306,-0.12065 -1.43546,-1.59776 z"
       id="path55" />
    <path
       style="fill:#c10202;fill-opacity:1;stroke-width:0.0507725;stroke-linejoin:bevel;stroke-miterlimit:0"
       d="m 171.0007,169.00562 c -0.9144,-0.85546 -1.68133,-1.58365 -1.7043,-1.6182 -0.0537,-0.0809 0.90787,-1.54402 1.37751,-2.09599 0.90886,-1.06819 1.97541,-2.11347 2.97344,-2.91414 0.90751,-0.72805 1.29093,-0.94503 2.55957,-1.44845 0.77223,-0.30641 2.96382,-1.06415 3.06543,-1.05985 0.028,0.001 0.15674,0.14368 0.28627,0.31667 0.31032,0.41445 1.45886,1.81733 2.49328,3.04541 l 0.83029,0.98575 -0.66543,0.20242 c -1.49833,0.45579 -2.81971,1.09265 -4.23596,2.04155 -0.2979,0.1996 -1.02701,0.74983 -1.62024,1.22273 -1.1152,0.88898 -3.54106,2.78363 -3.64075,2.8435 -0.0356,0.0214 -0.67318,-0.54288 -1.71911,-1.5214 z"
       id="path56" />
    <path
       style="fill:#c10202;fill-opacity:1;stroke-width:0.0507725;stroke-linejoin:bevel;stroke-miterlimit:0"
       d="m 168.46753,165.43628 c -0.18918,-0.54217 -0.64771,-1.53115 -1.40025,-3.02015 l -0.72301,-1.43056 0.76692,-0.76276 c 0.97848,-0.97318 1.58396,-1.41197 2.76832,-2.00619 1.33986,-0.67224 2.76594,-1.11963 5.25356,-1.64814 l 0.94372,-0.2005 0.99277,1.00762 c 0.96032,0.97468 1.6166,1.68233 1.61735,1.74394 7.2e-4,0.0594 -0.22599,0.09 -1.01225,0.13676 -0.93677,0.0557 -1.72394,0.17753 -2.2843,0.35355 -1.16302,0.36534 -3.09024,1.63663 -4.41579,2.91291 -0.77398,0.7452 -1.66962,1.9116 -2.13117,2.77539 -0.13401,0.25083 -0.24845,0.45605 -0.25431,0.45605 -0.006,0 -0.0605,-0.14306 -0.12156,-0.31792 z"
       id="path57" />
    <path
       style="fill:#c10202;fill-opacity:1;stroke-width:0.0507725;stroke-linejoin:bevel;stroke-miterlimit:0"
       d="m 165.43539,159.1732 c -0.51961,-1.04647 -1.1672,-2.06683 -2.22021,-3.49816 -0.76989,-1.0465 -0.98266,-1.36795 -0.93493,-1.41247 0.0221,-0.0206 0.50646,-0.29743 1.07636,-0.61514 1.32523,-0.73879 1.91917,-1.11207 2.27584,-1.43031 0.15704,-0.14014 0.32699,-0.26794 0.37766,-0.28403 0.0964,-0.0306 0.27006,0.0302 0.97312,0.34074 0.23313,0.10293 0.73498,0.29459 1.11521,0.42581 0.38024,0.13123 0.92071,0.33283 1.20103,0.44801 1.72116,0.70718 4.30114,1.99857 4.30114,2.15292 0,0.0603 -0.41915,0.17219 -0.96553,0.25755 -1.2102,0.18908 -2.6871,0.75256 -3.85756,1.47179 -0.85708,0.52666 -1.3039,0.89427 -2.19506,1.80595 l -0.87174,0.89181 z"
       id="path58" />
    <path
       style="fill:#c10202;fill-opacity:1;stroke-width:0.0507725;stroke-linejoin:bevel;stroke-miterlimit:0"
       d="m 153.44196,153.37901 c -0.11311,-0.30232 -0.14594,-0.4199 -0.93665,-3.35583 -0.83026,-3.0827 -0.96117,-3.62339 -0.89622,-3.70164 0.21849,-0.26327 3.90417,-2.04622 5.348,-2.58711 0.56854,-0.21298 1.14925,-0.36369 1.32398,-0.3436 0.10924,0.0126 0.14661,0.0566 0.23246,0.27401 0.0563,0.14248 0.17003,0.55576 0.25282,0.91843 0.34733,1.52142 1.34175,4.54877 2.02668,6.16995 0.22045,0.52177 0.34009,0.73561 0.57331,1.02466 l 0.29471,0.36529 0.0397,-0.29464 c 0.0828,-0.61465 -0.22348,-1.92867 -1.17539,-5.04273 -0.47517,-1.55445 -0.91373,-3.08691 -1.0067,-3.51775 -0.0307,-0.14247 -0.0661,-0.29625 -0.0786,-0.34172 -0.0184,-0.067 0.13928,-0.16246 0.8319,-0.50365 0.92412,-0.45524 1.3815,-0.62988 1.58762,-0.60621 0.10562,0.0122 0.14285,0.0508 0.19106,0.19845 0.0329,0.10086 0.47437,1.69045 0.98099,3.53241 0.50661,1.84196 1.06006,3.82591 1.22987,4.40876 0.16982,0.58284 0.31863,1.10558 0.33071,1.16163 0.049,0.22733 -0.47875,0.66561 -2.00292,1.66337 l -0.95573,0.62564 -0.71628,-0.34176 c -1.19671,-0.57099 -1.45397,-0.63586 -2.80407,-0.70716 -1.10139,-0.0582 -2.09531,-0.004 -2.55505,0.13839 -0.19441,0.0603 -0.57149,0.26029 -1.01263,0.53694 -0.38657,0.24244 -0.7703,0.47565 -0.85273,0.51826 l -0.14985,0.0775 z"
       id="path59" />
    <path
       style="fill:#c10202;fill-opacity:1;stroke-width:0.0507725;stroke-linejoin:bevel;stroke-miterlimit:0"
       d="m 174.61253,154.49187 c -0.10323,-0.055 -0.39964,-0.27068 -0.65868,-0.47939 -1.92411,-1.55028 -4.85498,-2.73106 -7.49371,-3.01907 -0.3654,-0.0399 -0.7193,-0.0934 -0.78644,-0.11893 -0.18354,-0.0698 -0.26329,-0.2303 -0.34371,-0.69186 -0.2867,-1.6452 -1.57217,-6.42529 -2.14139,-7.96283 -0.13048,-0.35244 -0.22669,-0.66827 -0.21381,-0.70183 0.0315,-0.0819 0.5953,-0.25593 1.83403,-0.56607 2.04307,-0.51151 2.48239,-0.59482 3.24192,-0.61475 0.52198,-0.0137 1.16499,-0.087 2.63208,-0.29982 1.06775,-0.15493 1.97793,-0.28168 2.02263,-0.28168 0.0731,0 0.0839,0.0885 0.108,0.8831 0.0276,0.91308 0.11708,1.59382 0.41305,3.14385 0.55788,2.9218 1.62573,7.0545 2.47511,9.579 0.21199,0.6301 0.33749,1.07129 0.31197,1.0968 -0.0255,0.0255 -0.0944,0.023 -0.17117,-0.006 -0.20508,-0.078 -0.50774,-0.0576 -0.6769,0.0455 -0.19656,0.11984 -0.31922,0.11853 -0.55298,-0.006 z"
       id="path60" />
    <path
       style="fill:#c10202;fill-opacity:1;stroke-width:0.0507725;stroke-linejoin:bevel;stroke-miterlimit:0"
       d="m 176.90769,153.19058 c -0.0285,-0.0971 -0.0862,-0.36737 -0.12819,-0.6005 -0.11902,-0.66087 -0.44608,-1.88866 -0.94097,-3.53243 -0.76918,-2.55479 -1.20455,-4.30734 -1.64392,-6.61738 -0.2389,-1.25604 -0.47647,-2.72367 -0.44585,-2.75429 0.0513,-0.0513 3.25066,0.24617 3.60535,0.3352 0.0777,0.0195 0.12824,0.0994 0.19995,0.31594 0.3202,0.96649 0.93796,4.85327 1.20265,7.56662 0.0653,0.66927 0.21175,3.41438 0.21274,3.98729 l 4.8e-4,0.24295 -0.41211,0.27265 c -0.88522,0.58565 -1.48677,0.96057 -1.54124,0.96057 -0.0314,0 -0.0804,-0.0795 -0.10884,-0.17662 z"
       id="path61" />
    <path
       style="fill:#c10202;fill-opacity:1;stroke-width:0.0507725;stroke-linejoin:bevel;stroke-miterlimit:0"
       d="m 180.13167,149.98786 c -0.15462,-3.34098 -0.31381,-4.55436 -1.02578,-7.81854 -0.23873,-1.09452 -0.42528,-1.9983 -0.41455,-2.00839 0.0327,-0.0307 1.56802,0.20086 2.15324,0.32482 1.2083,0.25592 1.72089,0.49337 1.95055,0.90358 0.15731,0.28097 0.40676,1.2269 0.55039,2.08711 0.28442,1.70343 0.33501,3.81828 0.14984,6.26415 -0.0598,0.79008 -0.12226,1.44935 -0.13879,1.46504 -0.0165,0.0157 -0.32677,0.0759 -0.68943,0.13389 -0.36266,0.058 -1.04375,0.17757 -1.51355,0.26584 -0.46978,0.0883 -0.87338,0.16048 -0.89689,0.16048 -0.0235,0 -0.0797,-0.80009 -0.12503,-1.77798 z"
       id="path62" />
    <path
       style="fill:#c10202;fill-opacity:1;stroke-width:0.0507725;stroke-linejoin:bevel;stroke-miterlimit:0"
       d="m 184.52722,151.03543 c -0.0476,-0.0573 -0.0395,-0.19321 0.0419,-0.70332 0.14473,-0.90774 0.20102,-2.42436 0.14645,-3.94601 -0.0701,-1.95686 -0.16919,-2.85633 -0.42145,-3.82787 -0.14698,-0.5661 -0.18248,-0.91864 -0.0925,-0.91864 0.15533,0 1.26251,0.51247 1.80956,0.83757 1.09054,0.64811 2.28969,1.83202 2.73203,2.69733 0.15042,0.29424 0.4262,1.09831 0.56328,1.64229 0.27794,1.10298 0.35611,2.05337 0.19399,2.35862 -0.22986,0.43282 -0.66893,0.81341 -1.31069,1.13613 -0.53559,0.26932 -0.97647,0.39859 -2.07247,0.60764 -1.05738,0.20169 -1.49275,0.23352 -1.59008,0.11626 z"
       id="path63" />
    <path
       style="fill:#c10202;fill-opacity:1;stroke-width:0.0507725;stroke-linejoin:bevel;stroke-miterlimit:0"
       d="m 140.89951,186.54137 c -0.13073,-0.25453 -0.32139,-0.93788 -1.30827,-4.68898 -0.58857,-2.23715 -0.97792,-3.80086 -0.96023,-3.85659 0.0575,-0.18102 0.64745,-0.46558 1.25063,-0.60321 l 0.16865,-0.0385 0.625,1.2531 c 0.75717,1.51812 1.14555,2.18509 1.7057,2.9292 0.79503,1.05614 1.65403,1.82068 2.50884,2.233 0.51919,0.25043 0.89994,0.3519 1.45557,0.38789 0.34083,0.0221 0.4436,0.0469 0.54127,0.13096 0.11705,0.10066 0.12116,0.12371 0.1413,0.79332 l 0.0207,0.68963 -0.72419,1.7e-4 c -1.51858,2.2e-4 -3.02746,0.22736 -4.53919,0.68296 -0.81956,0.247 -0.80444,0.24552 -0.88584,0.0871 z"
       id="path66" />
    <path
       style="fill:#c10202;fill-opacity:1;stroke-width:0.0507725;stroke-linejoin:bevel;stroke-miterlimit:0"
       d="m 138.15469,176.52275 c -0.10524,-0.27422 -1.70689,-5.93961 -1.68788,-5.97036 0.0525,-0.085 1.41978,-1.23976 1.61871,-1.36716 0.52814,-0.33826 0.59705,-0.17577 0.73196,1.7263 0.13418,1.89173 0.29587,3.07455 0.58287,4.26395 0.10293,0.42659 0.20036,0.84071 0.21647,0.92027 l 0.0293,0.14466 -0.57886,0.13112 c -0.31837,0.0721 -0.64894,0.1487 -0.73458,0.17019 -0.11047,0.0277 -0.1622,0.0222 -0.178,-0.019 z"
       id="path67" />
    <path
       style="fill:#c10202;fill-opacity:1;stroke-width:0.0507725;stroke-linejoin:bevel;stroke-miterlimit:0"
       d="m 135.85547,168.56894 c -0.11872,-0.36945 -0.39364,-1.29178 -0.61093,-2.04961 l -0.39508,-1.37786 0.75975,-0.39694 c 1.53519,-0.80207 2.42493,-1.21715 2.65677,-1.23943 0.45651,-0.0438 0.48148,0.0912 0.48148,2.60356 v 1.94296 l -0.50631,0.0176 c -0.46672,0.0162 -0.53394,0.0309 -0.85956,0.18769 -0.19428,0.0936 -0.49101,0.29124 -0.65938,0.4393 -0.16838,0.14805 -0.38371,0.33113 -0.4785,0.40683 l -0.17237,0.13763 z"
       id="path68" />
    <path
       style="fill:#c10202;fill-opacity:1;stroke-width:0.0507725;stroke-linejoin:bevel;stroke-miterlimit:0"
       d="m 127.82835,170.82675 c -0.12004,-0.14463 -0.79884,-2.12138 -0.99697,-2.9033 l -0.10077,-0.39764 0.1035,-0.0781 c 0.50554,-0.38132 5.78951,-1.78613 6.7231,-1.78741 0.24009,-2.3e-4 0.25227,0.006 0.31734,0.16161 0.13826,0.33089 0.65116,2.21939 0.85011,3.13012 l 0.0246,0.11289 -1.05026,-0.0251 c -0.57764,-0.0138 -1.19661,-0.005 -1.37548,0.02 -0.50637,0.0701 -1.03119,0.28369 -2.43044,0.98884 -1.65874,0.83592 -1.93142,0.93865 -2.0648,0.77793 z"
       id="path69" />
    <path
       style="fill:#c10202;fill-opacity:1;stroke-width:0.0507725;stroke-linejoin:bevel;stroke-miterlimit:0"
       d="m 129.60055,177.49434 c -0.0542,-0.12262 -0.10896,-0.36743 -0.12159,-0.54401 -0.0202,-0.28289 -0.007,-0.35148 0.10657,-0.57708 0.10313,-0.20375 0.12917,-0.31908 0.12776,-0.56479 -0.002,-0.35449 -0.11863,-0.64307 -0.51536,-1.27571 -0.4768,-0.76031 -1.03119,-2.03881 -0.925,-2.13317 0.0469,-0.0417 2.08633,-1.0094 2.878,-1.36561 1.0341,-0.46528 1.80829,-0.70938 2.25081,-0.70967 0.4134,-2.4e-4 1.14033,0.24596 1.4712,0.49832 0.34955,0.26662 0.45574,0.54764 1.19038,3.15033 0.27348,0.96886 0.48191,1.79649 0.48633,1.93105 l 0.007,0.2355 -0.17987,0.0148 c -0.0989,0.008 -0.33207,-0.0209 -0.51809,-0.0647 -1.13285,-0.26606 -3.45302,0.12554 -4.91434,0.82946 -0.37601,0.18112 -0.53723,0.2913 -0.75257,0.51433 -0.34879,0.36124 -0.45428,0.37209 -0.59194,0.0608 z"
       id="path70" />
    <path
       style="fill:#c10202;fill-opacity:1;stroke-width:0.0507725;stroke-linejoin:bevel;stroke-miterlimit:0"
       d="m 132.3179,188.49117 c -0.13242,-0.28955 -0.60586,-1.9843 -0.68641,-2.45717 -0.0783,-0.4595 -0.0285,-0.90194 0.21501,-1.91125 0.23445,-0.97178 0.44025,-2.05978 0.59688,-3.15563 0.0824,-0.57684 0.1051,-0.96044 0.10798,-1.82816 l 0.004,-1.09813 0.11722,-0.09 c 0.35013,-0.26893 1.15929,-0.39716 2.28317,-0.3618 0.88806,0.028 1.41252,0.13139 1.72946,0.34113 0.40296,0.26667 0.64733,0.96503 1.42254,4.06524 0.6163,2.46481 0.77486,3.18315 0.81375,3.68696 0.038,0.49197 -0.006,0.53414 -0.60175,0.57535 -0.76809,0.0531 -2.36183,0.47205 -3.43153,0.90196 -0.6336,0.25464 -1.28223,0.66683 -1.88368,1.19704 -0.2382,0.20998 -0.4646,0.38178 -0.50313,0.38178 -0.0388,0 -0.1206,-0.1105 -0.18315,-0.24727 z"
       id="path71" />
    <path
       style="fill:#c10202;fill-opacity:1;stroke-width:0.0507725;stroke-linejoin:bevel;stroke-miterlimit:0"
       d="m 130.81707,182.48545 c -0.10283,-0.19874 -0.2005,-0.56561 -0.47279,-1.77497 l -0.24963,-1.10867 0.51122,-0.44107 c 0.28117,-0.24259 0.606,-0.49136 0.72186,-0.55282 0.29754,-0.15785 0.33707,-0.10231 0.24252,0.34065 -0.0774,0.36268 -0.15215,0.89353 -0.31405,2.2305 -0.0967,0.79909 -0.14527,1.06234 -0.24087,1.307 -0.064,0.16369 -0.11337,0.16354 -0.19826,-7.1e-4 z"
       id="path72" />
    <path
       style="fill:#c10202;fill-opacity:1;stroke-width:0.0507725;stroke-linejoin:bevel;stroke-miterlimit:0"
       d="m 122.30611,189.00925 c -0.0205,-0.0628 -0.19557,-1.05257 -0.21635,-1.22349 -0.0254,-0.20911 -0.0194,-0.22558 0.0996,-0.27082 0.0697,-0.0265 0.25779,-0.0485 0.418,-0.0489 0.3626,-9.4e-4 0.52166,-0.0748 0.5421,-0.25176 0.013,-0.11288 -0.0386,-0.18252 -0.34839,-0.4699 -0.80428,-0.74607 -1.08437,-1.04879 -1.23458,-1.33432 -0.31593,-0.60054 -0.66538,-1.91496 -0.60072,-2.2596 0.0175,-0.0931 0.0768,-0.18965 0.14355,-0.23336 0.14275,-0.0935 0.30753,-0.0459 0.84755,0.24498 0.93857,0.50558 1.75544,0.43776 2.24371,-0.18628 0.28525,-0.36459 0.40956,-0.41965 0.86464,-0.38305 0.30326,0.0244 2.50464,0.37178 2.99195,0.47213 l 0.11891,0.0244 -0.0855,0.8817 c -0.0948,0.97649 -0.0895,1.88779 0.012,2.0956 0.0774,0.15858 0.23658,0.20621 0.42631,0.12762 0.46229,-0.19149 0.60179,-0.81885 0.61243,-2.75451 l 0.005,-0.94197 0.18614,0.54163 c 0.30135,0.87685 0.51315,2.12552 0.51315,3.02526 0,0.35872 0.0811,0.9577 0.14634,1.08093 0.0231,0.0436 0.0844,0.0927 0.1362,0.10915 0.15253,0.0484 0.111,0.15798 -0.0705,0.18627 -0.0906,0.0141 -0.24019,0.0374 -0.33228,0.0519 -0.0921,0.0143 -0.86039,0.0447 -1.70733,0.0672 -2.17561,0.0582 -2.33394,0.0927 -4.33981,0.94745 -1.03607,0.4415 -1.35384,0.55766 -1.37219,0.50157 z"
       id="path78" />
    <path
       style="fill:#c10202;fill-opacity:1;stroke-width:0.0507725;stroke-linejoin:bevel;stroke-miterlimit:0"
       d="m 120.07245,187.76735 c -0.57199,-0.32154 -1.52405,-0.96595 -1.99165,-1.34804 -0.93368,-0.76294 -2.86598,-3.32174 -3.33477,-4.416 -0.0832,-0.19429 -0.16641,-0.40421 -0.18484,-0.4665 l -0.0335,-0.11325 0.84149,0.0322 c 2.18102,0.0833 3.38843,0.18083 3.60129,0.29091 0.34558,0.1787 0.11653,0.42474 -0.56971,0.61197 -0.52387,0.14292 -0.84778,0.33433 -0.84778,0.50098 0,0.47476 0.85524,1.79083 1.67786,2.58196 1.19884,1.15293 1.32854,1.33568 1.45252,2.04659 0.0398,0.22819 0.0724,0.4439 0.0724,0.47937 0,0.1253 -0.21793,0.0615 -0.68325,-0.20012 z"
       id="path79" />
    <path
       style="fill:#c10202;fill-opacity:1;stroke-width:0.0126931;stroke-linejoin:bevel;stroke-miterlimit:0"
       d="m 119.70186,184.31493 c -0.14252,-0.11182 -0.5876,-0.58535 -0.67778,-0.72111 -0.0447,-0.0673 -0.0454,-0.10968 -0.002,-0.13054 0.0434,-0.021 0.39694,-0.0303 0.49034,-0.013 0.0889,0.0165 0.19119,0.0633 0.23868,0.10925 0.0205,0.0198 0.0521,0.0686 0.0702,0.10827 0.03,0.0659 0.0333,0.087 0.0376,0.23877 0.007,0.23666 -0.0259,0.4524 -0.0697,0.46066 -0.009,0.002 -0.0483,-0.0219 -0.0871,-0.0523 z"
       id="path80" />
    <path
       style="fill:#c10202;fill-opacity:1;stroke-width:0.0126931;stroke-linejoin:bevel;stroke-miterlimit:0"
       d="m 128.36805,181.88989 c -0.33635,-0.0187 -0.78636,-0.092 -1.40707,-0.22954 -0.91985,-0.20377 -1.59737,-0.40268 -1.71028,-0.5021 -0.0438,-0.0386 -0.0289,-0.0446 0.1543,-0.0616 0.25331,-0.0235 0.63187,-0.0984 1.13797,-0.22505 0.35871,-0.0897 0.69492,-0.1882 1.51599,-0.44394 0.41285,-0.12859 0.75064,-0.23278 0.75064,-0.23154 0,0.001 0.0371,0.14212 0.0825,0.31306 0.11018,0.4148 0.16337,0.69355 0.18308,0.95947 0.0173,0.23383 -0.0728,0.34963 -0.31018,0.39829 -0.0861,0.0176 -0.28489,0.0292 -0.397,0.0229 z"
       id="path81" />
    <path
       style="fill:#c10202;fill-opacity:1;stroke-width:0.0359016;stroke-linejoin:bevel;stroke-miterlimit:0"
       d="m 124.84333,179.83658 c 0,-0.0253 0.71339,-0.63339 0.99119,-0.84485 0.57856,-0.44042 1.7452,-1.17719 2.12078,-1.33933 0.27353,-0.11808 0.27343,-0.1181 0.33018,0.0582 0.0691,0.2145 0.12137,0.52059 0.12137,0.71016 0,0.35696 -0.30619,0.55013 -1.48202,0.93499 -0.80696,0.26411 -2.0815,0.55856 -2.0815,0.48087 z"
       id="path82" />
    <path
       style="fill:#c10202;fill-opacity:1;stroke-width:0.00634657;stroke-linejoin:bevel;stroke-miterlimit:0"
       d="m 119.93441,178.90645 c -0.19136,-0.0341 -0.41009,-0.11947 -0.55822,-0.21767 -0.074,-0.0491 -0.14339,-0.11197 -0.15562,-0.14112 -0.008,-0.0191 -0.008,-0.0209 0.004,-0.0307 0.0197,-0.016 0.0507,-0.0192 0.11498,-0.0119 0.125,0.0141 0.31665,0.0716 0.54752,0.16403 0.24535,0.0983 0.37937,0.17736 0.36483,0.21525 -0.002,0.005 -0.0147,0.0141 -0.0282,0.0198 -0.0387,0.0162 -0.20426,0.0175 -0.2895,0.002 z"
       id="path83" />
    <path
       style="fill:#c10202;fill-opacity:1;stroke-width:0.00634657;stroke-linejoin:bevel;stroke-miterlimit:0"
       d="m 116.22832,180.09191 c -0.26431,-0.0111 -0.4379,-0.0244 -0.53062,-0.0404 -0.0588,-0.0103 -0.0846,-0.0182 -0.10522,-0.033 -0.0769,-0.0551 -0.71347,-0.12636 -1.49244,-0.16711 -0.52756,-0.0276 -0.88089,-0.07 -1.15135,-0.13834 -0.27139,-0.0685 -0.45278,-0.16515 -0.54525,-0.2905 l -0.0255,-0.0344 v -0.11968 -0.11968 l 0.0264,-0.004 c 0.0329,-0.005 0.24224,0.006 0.40629,0.0211 0.79087,0.0732 2.31669,0.3051 3.815,0.57978 0.47246,0.0866 1.66397,0.31603 1.66032,0.31968 -0.001,0.001 -0.29055,0.008 -0.6429,0.0162 -0.55593,0.0121 -1.25353,0.0172 -1.41481,0.0104 z"
       id="path84" />
    <path
       style="fill:#c10202;fill-opacity:1;stroke-width:0.0253864;stroke-linejoin:bevel;stroke-miterlimit:0"
       d="m 123.92702,178.69069 c -0.0755,-0.0755 0.14627,-0.32558 1.17355,-1.32347 0.95869,-0.93128 1.10185,-1.12944 1.09958,-1.52209 -0.002,-0.4127 -0.11374,-0.70592 -0.46956,-1.23635 -0.47589,-0.7094 -1.44237,-1.79577 -2.12542,-2.38907 -0.50367,-0.4375 -0.7766,-0.6017 -1.00014,-0.6017 -0.64186,0 -0.43962,0.64989 0.56439,1.81369 0.10634,0.12327 0.383,0.4257 0.61481,0.67209 0.78928,0.83892 1.38923,1.52052 1.46772,1.66744 0.0319,0.0597 0.0294,0.0675 -0.0471,0.1481 -0.24123,0.25432 -1.66205,1.21592 -2.18008,1.47545 -0.30446,0.15253 -0.33785,0.13625 -0.15999,-0.078 0.26683,-0.32138 0.36356,-0.62956 0.31579,-1.00622 -0.048,-0.37834 -0.19539,-0.67244 -0.48206,-0.96168 -0.22412,-0.22612 -0.38697,-0.32377 -0.65146,-0.39065 -0.68095,-0.17221 -1.48059,0.25061 -1.81089,0.95753 -0.11749,0.25144 -0.14814,0.40454 -0.13485,0.67354 0.0136,0.27487 0.0704,0.41029 0.274,0.65325 0.0797,0.0951 0.14488,0.1876 0.14488,0.20561 0,0.0777 -0.21585,0.0615 -0.67116,-0.0503 -0.36172,-0.0888 -1.29305,-0.34599 -1.31263,-0.36247 -0.0243,-0.0204 0.44601,-1.49259 0.65591,-2.05328 0.25729,-0.68727 0.48922,-1.21897 0.89217,-2.04533 0.38647,-0.79254 0.45926,-0.97336 0.45926,-1.14085 0,-0.15782 -0.0559,-0.1866 -0.33572,-0.17275 -0.16732,0.008 -0.24861,0.0248 -0.35133,0.0714 -0.21251,0.0963 -0.4152,0.24565 -0.6454,0.47539 -0.58058,0.57939 -1.126,1.53979 -1.53215,2.69789 -0.17904,0.5105 -0.17325,0.49792 -0.22562,0.48996 -0.0293,-0.004 -0.0824,-0.0651 -0.13884,-0.15865 -0.0819,-0.13563 -0.0914,-0.16783 -0.0914,-0.30826 0,-0.30971 0.14939,-0.74709 0.49451,-1.44779 0.56524,-1.14764 1.26689,-2.12248 1.68424,-2.34001 0.18012,-0.0939 0.7279,-0.13666 2.15434,-0.16818 0.55047,-0.0122 1.41944,-0.0221 1.93105,-0.0219 l 0.93021,2.2e-4 0.65937,0.69558 c 0.87756,0.92573 1.07694,1.14233 1.38505,1.5046 0.85998,1.0112 1.378,1.92034 1.42233,2.49627 0.0127,0.16413 0.0123,0.16542 -0.0806,0.28261 -0.16105,0.20323 -0.53054,0.4908 -0.98337,0.76531 -1.07438,0.65133 -1.53223,0.98389 -2.01424,1.46308 -0.2868,0.28511 -0.40741,0.38603 -0.59987,0.50192 -0.12932,0.0779 -0.24206,0.10536 -0.27931,0.0681 z"
       id="path85" />
    <path
       style="fill:#c10202;fill-opacity:1;stroke-width:0.0253864;stroke-linejoin:bevel;stroke-miterlimit:0"
       d="m 116.79939,177.92654 c -0.21644,-0.0246 -1.29607,-0.18434 -1.33535,-0.19746 -0.0173,-0.006 0.15163,-0.31551 0.43283,-0.79364 0.25366,-0.43129 0.47343,-0.79739 0.48837,-0.81356 0.021,-0.0227 0.0787,0.068 0.25441,0.40034 0.30623,0.57913 0.48436,0.94049 0.55142,1.11866 0.11562,0.30717 0.0725,0.33863 -0.39168,0.28566 z"
       id="path86" />
    <path
       style="fill:#c10202;fill-opacity:1;stroke-width:0.0253864;stroke-linejoin:bevel;stroke-miterlimit:0"
       d="m 116.19652,172.7539 c -0.0625,-0.0418 -0.0903,-0.14219 -0.0896,-0.32344 10e-4,-0.25655 0.0338,-0.31865 0.18611,-0.35322 0.0648,-0.0147 0.22698,-0.0657 0.36048,-0.11346 0.1335,-0.0478 0.25404,-0.0867 0.26787,-0.0867 0.0859,0 -0.18114,0.47969 -0.39136,0.70287 -0.15622,0.16584 -0.26262,0.22135 -0.33355,0.17398 z"
       id="path87" />
    <path
       style="fill:#c10202;fill-opacity:1;stroke-width:0.0253864;stroke-linejoin:bevel;stroke-miterlimit:0"
       d="m 113.37295,178.18615 c -0.95178,-0.0355 -1.35035,-0.0965 -1.67577,-0.2567 -0.25844,-0.12719 -0.42692,-0.31181 -0.70129,-0.76844 -0.32276,-0.53718 -0.80596,-1.311 -1.50546,-2.41093 -0.35007,-0.55047 -0.77281,-1.22869 -0.93943,-1.50716 -0.3162,-0.52847 -0.65329,-1.17225 -0.65329,-1.24766 0,-0.0732 0.19986,-0.11786 1.10682,-0.24698 1.75599,-0.25003 3.36927,-0.36763 4.06228,-0.29616 0.96818,0.0998 1.43671,0.42778 1.86179,1.30308 0.0705,0.1452 0.25492,0.57046 0.40979,0.94502 l 0.28159,0.68102 -0.27365,0.63775 c -0.53688,1.25124 -0.68993,1.86225 -0.68993,2.75433 v 0.43853 l -0.39446,-0.004 c -0.21695,-0.002 -0.61699,-0.012 -0.88899,-0.0221 z"
       id="path88" />
    <path
       style="fill:#c10202;fill-opacity:1;stroke-width:0.0253864;stroke-linejoin:bevel;stroke-miterlimit:0"
       d="m 115.40044,170.92911 c -0.43031,-0.95017 -0.66091,-1.52447 -0.70503,-1.75581 -0.0142,-0.0744 -0.01,-0.0801 0.0893,-0.12406 0.33464,-0.14803 1.25324,-0.28908 3.05302,-0.4688 1.20419,-0.12025 1.80104,-0.18725 2.84735,-0.31966 1.36232,-0.17239 1.77017,-0.23307 3.42063,-0.50889 0.86461,-0.1445 1.57647,-0.25825 1.58193,-0.2528 0.0168,0.0168 0.43352,1.64383 0.48493,1.89349 0.10046,0.48766 0.0829,0.74354 -0.0533,0.77773 -0.16724,0.042 -0.56698,-0.2168 -1.29435,-0.83792 -0.60322,-0.51509 -1.13811,-0.87104 -1.5017,-0.99932 -0.18925,-0.0667 -0.49582,-0.0335 -0.57339,0.0623 -0.0621,0.0767 -0.0387,0.16794 0.13832,0.53805 0.0836,0.17486 0.152,0.34153 0.15196,0.37036 -3e-5,0.0289 -0.0239,0.068 -0.053,0.0871 -0.12213,0.0796 -0.21354,0.0866 -2.03114,0.15486 -1.32448,0.0497 -1.48963,0.0705 -2.07692,0.26145 -0.56951,0.18515 -1.12766,0.42649 -2.20495,0.95344 -0.59353,0.2903 -1.0863,0.5278 -1.09505,0.52775 -0.009,-4e-5 -0.0891,-0.16164 -0.17851,-0.35912 z"
       id="path89" />
    <path
       style="fill:#c10202;fill-opacity:1;stroke-width:0.0253864;stroke-linejoin:bevel;stroke-miterlimit:0"
       d="m 106.90864,170.76616 c -0.11279,-0.0682 -0.19113,-0.16027 -0.60627,-0.71227 -0.49417,-0.65708 -0.59475,-0.81734 -0.59475,-0.9476 0,-0.22154 0.33797,-0.28318 1.41296,-0.25772 1.06666,0.0253 6.12995,0.23327 6.39878,0.26286 l 0.12285,0.0135 0.10822,0.33113 c 0.13922,0.42596 0.15292,0.53104 0.0782,0.59951 -0.10207,0.0935 -0.21073,0.10556 -1.15039,0.12706 -0.98445,0.0225 -1.41858,0.0469 -2.10767,0.1186 -0.88183,0.0917 -1.21469,0.14791 -2.59044,0.43763 -0.27445,0.0577 -0.48551,0.0877 -0.67116,0.095 l -0.27082,0.0106 z"
       id="path90" />
    <path
       style="fill:#c10202;fill-opacity:1;stroke-width:0.0507725;stroke-linejoin:bevel;stroke-miterlimit:0"
       d="m 73.214803,159.43471 c -0.497224,-0.51694 -0.962324,-1.24063 -0.861884,-1.34107 0.04314,-0.0431 0.4515,0.1112 0.927137,0.3504 0.714449,0.35932 1.839689,1.01522 1.801334,1.05 -0.03161,0.0287 -0.794088,0.17692 -1.324951,0.25763 l -0.206549,0.0315 z"
       id="path91" />
    <path
       style="fill:#c10202;fill-opacity:1;stroke-width:0.0507725;stroke-linejoin:bevel;stroke-miterlimit:0"
       d="m 76.612705,165.34209 c -0.01845,-0.97309 -0.03182,-1.11477 -0.145588,-1.54249 -0.145912,-0.54858 -0.462106,-1.23083 -0.773688,-1.66939 -0.120658,-0.16982 -0.430306,-0.52614 -0.688109,-0.79181 -0.2578,-0.26567 -0.459541,-0.49224 -0.448309,-0.50347 0.05004,-0.05 1.371199,-0.5483 1.584225,-0.59748 0.321693,-0.0743 0.555492,-0.0114 1.259967,0.3386 0.708585,0.35205 1.141401,0.66961 1.410019,1.03449 0.331727,0.45062 0.842722,1.84309 1.208717,3.29376 0.153811,0.60964 0.231508,1.13249 0.168295,1.13249 -0.0085,0 -0.238395,0.0314 -0.511006,0.0696 -0.480843,0.0674 -2.79058,0.30721 -2.960106,0.30721 -0.07768,0 -0.08565,-0.0819 -0.104417,-1.0715 z"
       id="path92" />
    <path
       style="fill:#c10202;fill-opacity:1;stroke-width:0.0507725;stroke-linejoin:bevel;stroke-miterlimit:0"
       d="m 76.294382,176.04037 c 0,-0.0198 0.125416,-0.41887 0.278702,-0.88685 0.424247,-1.29522 0.551173,-2.25439 0.508364,-3.84165 -0.02848,-1.0559 -0.105641,-1.61034 -0.317916,-2.28431 -0.144901,-0.46003 -0.280754,-0.97099 -0.280754,-1.0559 0,-0.081 0.199022,-0.14045 0.797304,-0.23835 0.830785,-0.13594 1.847539,-0.23802 2.48591,-0.24959 0.831501,-0.0151 0.791618,-0.076 0.788043,1.20394 -0.0046,1.66988 -0.306929,3.79049 -0.777734,5.45637 -0.287182,1.01616 -0.462489,1.37571 -0.740979,1.51972 -0.106062,0.0549 -1.337035,0.23988 -2.246403,0.33766 -0.129521,0.0139 -0.29378,0.0365 -0.365016,0.0501 -0.07124,0.0136 -0.129521,0.008 -0.129521,-0.0111 z"
       id="path93" />
    <path
       style="fill:#c10202;fill-opacity:1;stroke-width:0.0507725;stroke-linejoin:bevel;stroke-miterlimit:0"
       d="m 76.799078,179.38377 c -0.016,-0.016 -0.01664,-0.23347 -0.0014,-0.48325 0.02585,-0.42424 0.01905,-0.47431 -0.103148,-0.75982 -0.07195,-0.1681 -0.133127,-0.37983 -0.135951,-0.47049 -0.005,-0.1582 0.0047,-0.16813 0.240465,-0.24634 0.212559,-0.0705 1.855513,-0.37273 1.884353,-0.34661 0.03384,0.0306 -0.944343,1.57987 -1.135664,1.79863 -0.338634,0.38719 -0.654821,0.6017 -0.748632,0.50788 z"
       id="path94" />
    <path
       style="fill:#c10202;fill-opacity:1;stroke-width:0.0507725;stroke-linejoin:bevel;stroke-miterlimit:0"
       d="m 73.000765,180.13641 c -0.126269,-0.16053 -0.241255,-0.5433 -0.405249,-1.34904 -0.07993,-0.39269 -0.114999,-0.66548 -0.0888,-0.69066 0.09064,-0.0871 1.779202,-0.34612 2.288137,-0.35102 0.47001,-0.004 0.509983,0.002 0.62413,0.10941 0.17332,0.16237 0.215452,0.36816 0.215752,1.05379 2.36e-4,0.67083 -0.04626,0.83063 -0.268336,0.92128 -0.167704,0.0685 -1.966148,0.43047 -2.138471,0.43047 -0.08377,0 -0.163912,-0.0438 -0.227163,-0.12423 z"
       id="path95" />
    <path
       style="fill:#c10202;fill-opacity:1;stroke-width:0.0507725;stroke-linejoin:bevel;stroke-miterlimit:0"
       d="m 72.039452,176.01954 c -0.01709,-0.31777 -0.0314,-1.03542 -0.03181,-1.59478 -0.0014,-1.81995 -0.110249,-2.58525 -0.546918,-3.84293 -0.459034,-1.32209 -0.645735,-1.90727 -0.617516,-1.9355 0.0501,-0.0501 0.423604,-0.11831 1.54197,-0.28164 1.573906,-0.22985 2.297946,-0.29059 2.494338,-0.20923 0.455244,0.18856 0.748153,1.0981 0.852387,2.64678 0.11536,1.71406 -0.191764,3.81557 -0.7189,4.91913 -0.216038,0.45227 -0.342571,0.56855 -0.652595,0.59975 -0.31911,0.0321 -1.836975,0.21235 -2.097233,0.24905 l -0.192655,0.0271 z"
       id="path96" />
    <path
       style="fill:#c10202;fill-opacity:1;stroke-width:0.0507725;stroke-linejoin:bevel;stroke-miterlimit:0"
       d="m 70.508693,167.20385 c -0.0859,-0.27734 -0.101022,-0.4244 -0.146567,-1.4261 -0.06937,-1.52558 -0.254273,-2.06768 -1.017772,-2.98393 -0.223512,-0.26823 -0.388467,-0.50422 -0.366566,-0.52445 0.04015,-0.037 2.345066,-0.60019 3.386893,-0.82746 0.370073,-0.0807 0.64983,-0.1157 0.818813,-0.10241 0.227961,0.018 0.274763,0.0407 0.418339,0.20397 0.269,0.30575 0.803526,1.14211 1.073443,1.6796 0.381866,0.76042 0.487038,1.12432 0.543263,1.87969 0.09104,1.22312 -0.03075,1.40335 -1.105718,1.63625 -0.345923,0.075 -1.922934,0.3502 -3.407324,0.59471 -0.135427,0.0223 -0.153318,0.0105 -0.196804,-0.1299 z"
       id="path97" />
    <path
       style="fill:#c10202;fill-opacity:1;stroke-width:0.0507725;stroke-linejoin:bevel;stroke-miterlimit:0"
       d="m 67.230058,161.31513 c -0.01011,-0.0324 -0.05156,-0.26022 -0.09209,-0.50631 -0.04053,-0.24609 -0.08615,-0.49164 -0.101352,-0.54568 -0.0728,-0.25871 0.429186,-0.53475 1.651306,-0.908 1.520212,-0.46429 2.048105,-0.53846 2.432837,-0.34177 0.450656,0.2304 0.981829,0.73182 0.981829,0.92682 0,0.15914 -0.767106,0.42226 -2.950663,1.01209 -1.533084,0.41412 -1.885095,0.48058 -1.921863,0.36285 z"
       id="path98" />
    <path
       style="fill:#c10202;fill-opacity:1;stroke-width:0.0507725;stroke-linejoin:bevel;stroke-miterlimit:0"
       d="m 63.454116,162.65745 c -0.05537,-0.29068 -0.04753,-1.36665 0.0104,-1.42458 0.201585,-0.20164 1.869158,-0.7528 2.324997,-0.76846 0.242572,-0.008 0.261182,-7.1e-4 0.326901,0.13246 0.04536,0.092 0.07066,0.29214 0.07247,0.57333 0.0035,0.5373 -0.05185,0.62658 -0.542632,0.87578 -0.349598,0.17751 -1.9718,0.78809 -2.093796,0.78809 -0.03738,0 -0.0789,-0.0746 -0.09834,-0.17662 z"
       id="path99" />
    <path
       style="fill:#c10202;fill-opacity:1;stroke-width:0.0507725;stroke-linejoin:bevel;stroke-miterlimit:0"
       d="m 65.131465,168.61545 c -0.0011,-0.27198 -0.194668,-2.26009 -0.259289,-2.66522 -0.102249,-0.64097 -0.277838,-1.27447 -0.445099,-1.60582 -0.0786,-0.15569 -0.142902,-0.32419 -0.142902,-0.37444 0,-0.19741 0.258372,-0.31645 1.825236,-0.84094 l 1.551679,-0.5194 0.401122,0.36935 c 0.659862,0.60759 0.990889,1.19266 1.11718,1.97454 0.05294,0.32775 0.05736,1.40718 0.0091,2.21082 l -0.02955,0.49171 -1.931053,0.53108 c -1.06208,0.29209 -1.968145,0.5318 -2.013476,0.53269 -0.05441,9.5e-4 -0.08259,-0.0344 -0.08291,-0.10437 z"
       id="path100" />
    <path
       style="fill:#c10202;fill-opacity:1;stroke-width:0.0507725;stroke-linejoin:bevel;stroke-miterlimit:0"
       d="m 66.891352,177.4104 c -0.01508,-0.0393 0.05968,-0.34128 0.166112,-0.67115 0.292125,-0.90538 0.354772,-1.33625 0.350844,-2.41306 -0.0038,-1.03482 -0.09501,-1.69093 -0.350359,-2.51979 -0.216634,-0.70317 -0.467055,-1.14841 -0.897768,-1.59624 -0.202022,-0.21006 -0.367658,-0.40688 -0.368079,-0.4374 -0.0024,-0.16972 2.466614,-0.78668 3.397591,-0.849 0.386662,-0.0259 0.413444,-0.0214 0.521873,0.087 0.220135,0.22014 0.544512,1.25128 0.830626,2.64043 0.308323,1.49697 0.355821,1.8866 0.357691,2.93405 0.0019,1.03746 -0.04564,1.3684 -0.250443,1.74512 -0.264439,0.48641 -0.652425,0.65314 -1.9741,0.84835 -0.459362,0.0679 -1.033585,0.16379 -1.276052,0.21323 -0.526974,0.10743 -0.474528,0.10552 -0.507936,0.0185 z"
       id="path101" />
    <path
       style="fill:#c10202;fill-opacity:1;stroke-width:0.0507725;stroke-linejoin:bevel;stroke-miterlimit:0"
       d="m 68.177186,181.26149 c -0.01557,-0.12304 -0.06253,-0.56283 -0.104338,-0.97729 -0.0418,-0.41447 -0.103558,-0.9012 -0.137231,-1.08161 -0.03367,-0.18041 -0.05139,-0.35362 -0.03939,-0.3849 0.08312,-0.21659 1.66275,-0.46648 2.74126,-0.43363 0.59508,0.0181 0.656172,0.0511 0.758777,0.40852 0.04729,0.16475 0.159782,1.79481 0.126186,1.8284 -0.02282,0.0228 -3.200264,0.86402 -3.26413,0.86414 -0.02904,6e-5 -0.06555,-0.10055 -0.08114,-0.22363 z"
       id="path102" />
    <path
       style="fill:#c10202;fill-opacity:1;stroke-width:0.0507725;stroke-linejoin:bevel;stroke-miterlimit:0"
       d="m 66.348281,182.1899 c -0.121869,-0.0711 -0.169841,-0.29827 -0.203507,-0.96373 -0.01704,-0.33675 -0.08189,-1.01986 -0.144118,-1.518 -0.156407,-1.2521 -0.109557,-1.4028 0.300472,-0.96646 0.429791,0.45737 0.644969,1.23783 0.607066,2.20187 -0.02473,0.62899 -0.118917,1.00804 -0.293985,1.18311 -0.123946,0.12395 -0.150869,0.13034 -0.265928,0.0632 z"
       id="path103" />
    <path
       style="fill:#c10202;fill-opacity:1;stroke-width:0.0507725;stroke-linejoin:bevel;stroke-miterlimit:0"
       d="m 65.351496,176.92902 c -0.412662,-1.15208 -0.583449,-1.99 -0.688927,-3.37996 -0.06737,-0.88778 -0.209948,-1.71194 -0.410483,-2.37269 -0.187576,-0.61807 -0.22006,-0.95106 -0.104105,-1.06717 0.06913,-0.0692 0.09118,-0.0694 0.252417,-0.002 0.09716,0.0406 0.345878,0.23819 0.552685,0.43908 0.817248,0.7939 1.306023,1.81711 1.455583,3.04715 0.05906,0.48569 0.03752,0.75338 -0.127146,1.58056 -0.09515,0.47803 -0.610159,2.43879 -0.652715,2.48508 -0.0063,0.007 -0.13105,-0.3217 -0.277309,-0.73003 z"
       id="path104" />
    <path
       style="fill:#c10202;fill-opacity:1;stroke-width:0.0507725;stroke-linejoin:bevel;stroke-miterlimit:0"
       d="m 63.514102,169.36042 c -0.05841,-0.063 -0.185384,-0.31715 -0.282173,-0.56473 -0.09679,-0.24758 -0.400089,-0.96433 -0.673998,-1.59275 -0.522885,-1.19966 -0.880261,-2.18402 -0.855389,-2.35611 0.03299,-0.2283 0.635259,-0.45213 1.059956,-0.39392 0.26654,0.0365 0.548878,0.18371 0.664668,0.34647 0.251787,0.35392 0.354659,1.24105 0.359227,3.09782 0.0039,1.6031 -0.02059,1.73483 -0.272291,1.46322 z"
       id="path105" />
    <path
       style="fill:#c10202;fill-opacity:1;stroke-width:0.0507725;stroke-linejoin:bevel;stroke-miterlimit:0"
       d="m 60.514074,163.68621 c -0.486564,-0.51332 -1.192703,-1.5569 -1.109664,-1.63994 0.04682,-0.0468 0.428906,-0.10293 0.714639,-0.10502 0.369977,-0.003 0.730786,-0.0691 1.325641,-0.24416 0.426185,-0.12541 0.495943,-0.13444 0.612284,-0.0792 0.157953,0.075 0.343244,0.41991 0.343244,0.63903 0,0.48903 -1.07637,1.75466 -1.492271,1.75466 -0.04703,0 -0.224268,-0.1464 -0.393873,-0.32533 z"
       id="path106" />
    <path
       style="fill:#c10202;fill-opacity:1;stroke-width:0.0507725;stroke-linejoin:bevel;stroke-miterlimit:0"
       d="m 51.196676,167.74413 c 0.36623,-0.46716 2.001736,-2.23904 2.495403,-2.70347 1.615148,-1.51951 3.235241,-2.78689 3.874598,-3.03107 l 0.221456,-0.0846 0.14359,0.13661 c 0.20458,0.19463 0.629608,0.85357 0.841972,1.30534 0.283021,0.60209 0.295564,0.54675 -0.176844,0.78025 -1.112909,0.55008 -3.544076,2.05189 -4.815722,2.9748 -0.774705,0.56224 -1.195358,0.70231 -2.113439,0.70371 -0.503399,7.1e-4 -0.531743,-0.004 -0.471014,-0.0816 z"
       id="path107" />
    <path
       style="fill:#c10202;fill-opacity:1;stroke-width:0.0507725;stroke-linejoin:bevel;stroke-miterlimit:0"
       d="m 46.221764,169.84394 c -0.444382,-0.24579 -0.412916,-0.53607 0.188039,-1.7348 0.704362,-1.40498 1.492991,-2.68369 2.064551,-3.34753 0.495359,-0.57533 1.180449,-1.08963 1.986308,-1.49113 1.33946,-0.66735 4.349702,-1.64124 4.756995,-1.53902 0.249553,0.0626 0.105535,0.24148 -0.726095,0.90166 -1.442079,1.14479 -3.468806,3.40931 -4.216847,4.71162 -0.427997,0.74512 -0.789215,1.00798 -2.64405,1.92408 -0.701652,0.34655 -1.284501,0.62944 -1.295218,0.62864 -0.01071,-7.1e-4 -0.06187,-0.0248 -0.113683,-0.0535 z"
       id="path108" />
    <path
       style="fill:#c10202;fill-opacity:1;stroke-width:0.0507725;stroke-linejoin:bevel;stroke-miterlimit:0"
       d="m 43.93747,169.04885 c -0.595105,-0.0804 -0.880087,-0.26697 -0.988224,-0.6468 -0.02742,-0.0963 -0.06254,-0.4083 -0.07803,-0.69324 -0.04838,-0.89006 0.1401,-1.69084 0.642973,-2.73174 0.953547,-1.97375 2.841415,-3.80906 4.214736,-4.09739 0.572426,-0.12018 2.328558,-0.0798 3.249819,0.0747 0.380856,0.0638 0.747534,0.18589 0.698938,0.2326 -0.02176,0.0209 -0.240902,0.11632 -0.486993,0.21203 -1.473495,0.57305 -2.734981,1.38113 -3.659197,2.34402 -1.04554,1.08928 -1.744344,2.349 -2.393708,4.3151 -0.326261,0.98782 -0.45234,1.0919 -1.200317,0.99079 z"
       id="path109" />
    <path
       style="fill:#c10202;fill-opacity:1;stroke-width:0.0507725;stroke-linejoin:bevel;stroke-miterlimit:0"
       d="m 41.087024,167.68505 c -0.23367,-0.17288 -0.540991,-0.44284 -0.682934,-0.59989 -0.581948,-0.64393 -0.981731,-1.5349 -1.024603,-2.28349 -0.04026,-0.70303 0.09648,-0.97024 0.741033,-1.44807 0.497675,-0.36895 1.688067,-1.06888 2.506219,-1.47364 0.681315,-0.33706 1.543529,-0.6717 1.644193,-0.63814 0.07312,0.0243 -0.131876,0.36159 -0.567108,0.93286 -1.342246,1.76179 -1.808355,2.90835 -2.107788,5.18487 l -0.08416,0.63982 z"
       id="path110" />
    <path
       style="fill:#c10202;fill-opacity:1;stroke-width:0.0507725;stroke-linejoin:bevel;stroke-miterlimit:0"
       d="m 56.383507,168.77097 c -0.110001,-0.0505 -0.296778,-0.15847 -0.41506,-0.23985 -0.307188,-0.21135 -0.787476,-0.41935 -1.046535,-0.45323 -0.317189,-0.0415 -0.490714,-0.13852 -0.472544,-0.26427 0.008,-0.0559 0.06768,-0.12847 0.132442,-0.16122 0.06476,-0.0328 0.444901,-0.22065 0.844755,-0.41753 0.399853,-0.19689 1.184048,-0.60794 1.742657,-0.91345 1.379825,-0.75464 2.387024,-1.2737 2.471515,-1.2737 0.03853,0 0.122261,0.0689 0.186073,0.15307 0.163413,0.2156 0.582264,1.06865 0.651122,1.32611 0.05258,0.19659 0.04957,0.22157 -0.03445,0.28549 -0.05064,0.0386 -0.664315,0.35503 -1.363734,0.70333 -0.699418,0.3483 -1.497586,0.78237 -1.773708,0.96462 -0.276123,0.18224 -0.551649,0.34286 -0.612285,0.35694 -0.06152,0.0142 -0.198652,-0.0151 -0.310251,-0.0663 z"
       id="path111" />
    <path
       style="fill:#c10202;fill-opacity:1;stroke-width:0.0507725;stroke-linejoin:bevel;stroke-miterlimit:0"
       d="m 57.837568,172.70843 c -0.02898,-0.035 -0.09512,-0.23396 -0.146982,-0.44233 -0.136089,-0.54678 -0.463893,-2.43192 -0.429618,-2.47063 0.04233,-0.0478 2.439485,-1.18793 3.019804,-1.43627 0.271997,-0.11641 0.547124,-0.21498 0.611396,-0.21908 0.100331,-0.006 0.156555,0.0587 0.397594,0.46021 0.235165,0.39175 1.54808,3.13685 1.515873,3.16947 -0.03023,0.0306 -4.732164,1.00213 -4.850064,1.00213 -0.03592,0 -0.08902,-0.0286 -0.118003,-0.0635 z"
       id="path112" />
    <path
       style="fill:#c10202;fill-opacity:1;stroke-width:0.0507725;stroke-linejoin:bevel;stroke-miterlimit:0"
       d="m 57.051358,175.46833 c 0.05136,-0.21725 0.39578,-0.90691 0.550435,-1.10219 0.209426,-0.26442 0.34626,-0.31714 1.029013,-0.39652 0.579605,-0.0674 1.709368,-0.28653 3.369072,-0.6535 1.031082,-0.22799 1.330554,-0.25423 1.483616,-0.13 0.108841,0.0884 0.11762,0.12527 0.116077,0.4883 -0.0019,0.45005 -0.0569,0.58475 -0.276089,0.67633 -0.08384,0.0351 -0.546411,0.12898 -1.027938,0.20877 -0.92526,0.15331 -1.911945,0.34823 -3.931419,0.77663 -0.678542,0.14394 -1.258389,0.26171 -1.28855,0.26171 -0.03585,0 -0.04424,-0.0449 -0.02422,-0.12953 z"
       id="path113" />
    <path
       style="fill:#c10202;fill-opacity:1;stroke-width:0.0507725;stroke-linejoin:bevel;stroke-miterlimit:0"
       d="m 64.562121,182.79933 c -0.140459,-0.14046 -0.298529,-0.52034 -0.493221,-1.18535 -0.382955,-1.30807 -0.94037,-2.50712 -1.959526,-4.21511 -0.391069,-0.65538 -0.702859,-1.19927 -0.69286,-1.20863 0.01,-0.009 0.52499,-0.18859 1.144426,-0.39831 0.887386,-0.30044 1.140336,-0.36961 1.192688,-0.32616 0.336323,0.27912 0.959167,2.7715 1.215889,4.86552 0.10711,0.87366 0.111828,2.1665 0.0087,2.36102 -0.119641,0.22547 -0.261164,0.26188 -0.416015,0.10702 z"
       id="path114" />
    <path
       style="fill:#c10202;fill-opacity:1;stroke-width:0.0507725;stroke-linejoin:bevel;stroke-miterlimit:0"
       d="m 60.998788,184.75979 c -0.122913,-0.16772 -0.371248,-0.56511 -0.551852,-0.8831 -0.985823,-1.73574 -2.410665,-3.56902 -3.987882,-5.13104 -0.997697,-0.98809 -1.01672,-1.01681 -0.866309,-1.30766 0.221499,-0.42834 0.620491,-0.54233 2.403731,-0.68677 0.518088,-0.042 1.175118,-0.10839 1.460064,-0.1476 0.988134,-0.136 0.886562,-0.1388 1.02719,0.0284 0.0692,0.0822 0.203049,0.28061 0.297437,0.44082 0.300456,0.50998 1.901545,3.64468 2.373641,4.64725 0.600363,1.27495 0.677952,1.47055 0.641274,1.61668 -0.05804,0.23128 -1.092232,0.99555 -2.012066,1.48692 -0.248244,0.13261 -0.476195,0.24111 -0.506551,0.24111 -0.03036,0 -0.155764,-0.13722 -0.278677,-0.30494 z"
       id="path115" />
    <path
       style="fill:#c10202;fill-opacity:1;stroke-width:0.0507725;stroke-linejoin:bevel;stroke-miterlimit:0"
       d="m 57.062822,187.73759 c -0.06282,-0.0842 -0.20575,-0.30144 -0.317618,-0.48277 -0.665525,-1.07875 -1.959563,-2.4779 -3.453171,-3.73368 -0.285718,-0.24022 -0.991972,-0.76949 -1.569458,-1.17615 -0.577482,-0.40667 -1.049969,-0.76285 -1.049969,-0.79151 0,-0.30965 1.565494,-1.81577 2.438753,-2.34624 0.417728,-0.25377 1.046517,-0.53942 1.261139,-0.57292 0.269137,-0.042 0.515256,0.13735 1.388041,1.01157 1.037012,1.03873 2.066669,2.29781 3.141139,3.84103 0.40249,0.57807 1.379094,2.16093 1.379094,2.23519 0,0.0561 -3.001084,2.16855 -3.080772,2.16855 -0.01261,0 -0.07436,-0.0689 -0.137178,-0.15307 z"
       id="path116" />
    <path
       style="fill:#c10202;fill-opacity:1;stroke-width:0.0507725;stroke-linejoin:bevel;stroke-miterlimit:0"
       d="m 53.745018,190.29949 c -0.02731,-0.0169 -0.09009,-0.13658 -0.139507,-0.266 -0.195443,-0.51186 -0.636399,-1.06152 -1.644923,-2.05045 -0.988483,-0.96927 -2.078236,-1.89938 -3.27791,-2.79769 -0.200757,-0.15033 -0.365016,-0.29904 -0.365016,-0.33047 0,-0.15874 1.097144,-1.77064 1.580277,-2.32171 0.119232,-0.13601 0.247663,-0.24727 0.285404,-0.24727 0.03774,0 0.215074,0.14645 0.394072,0.32545 0.178997,0.179 0.649843,0.60654 1.046325,0.95009 1.149875,0.99638 1.540038,1.36831 2.386787,2.27525 1.145443,1.22689 2.014867,2.26918 2.216725,2.65749 0.07561,0.14545 0.06075,0.1611 -0.678296,0.71466 -1.071372,0.80249 -1.677371,1.16887 -1.803938,1.09065 z"
       id="path117" />
    <path
       style="fill:#c10202;fill-opacity:1;stroke-width:0.0507725;stroke-linejoin:bevel;stroke-miterlimit:0"
       d="m 50.269711,192.6885 c -0.332554,-0.21063 -1.082956,-0.79798 -1.740102,-1.362 -0.721435,-0.6192 -2.566889,-2.26445 -2.566889,-2.28842 0,-0.0357 0.715372,-1.44581 1.067078,-2.10334 0.372782,-0.69693 0.628754,-1.11643 0.681232,-1.11643 0.07541,0 0.635294,0.41317 1.218919,0.89951 1.416065,1.18003 2.721686,2.44489 3.711719,3.59581 l 0.564956,0.65677 -0.949092,0.71197 c -1.160765,0.87075 -1.571623,1.15367 -1.675379,1.15367 -0.04373,0 -0.184324,-0.0664 -0.312442,-0.14754 z"
       id="path118" />
    <path
       style="fill:#c10202;fill-opacity:1;stroke-width:0.0507725;stroke-linejoin:bevel;stroke-miterlimit:0"
       d="m 47.917321,193.74553 c -0.397908,-0.0518 -1.175276,-0.27899 -1.521696,-0.44488 -0.355409,-0.17018 -0.408389,-0.21378 -0.577215,-0.47499 -0.376002,-0.58175 -0.626014,-1.69494 -0.517296,-2.3033 0.03101,-0.17353 0.0829,-0.35178 0.115315,-0.3961 0.124931,-0.17086 0.321076,-0.0262 1.686471,1.24375 1.141052,1.06129 2.061155,1.85101 2.294526,1.96938 0.09259,0.0469 0.17559,0.0891 0.184432,0.0936 0.0089,0.004 0.0028,0.0502 -0.01354,0.10159 -0.05416,0.17065 -0.351705,0.24413 -0.957229,0.23639 -0.303851,-0.004 -0.616041,-0.0153 -0.693755,-0.0255 z"
       id="path119" />
    <path
       style="fill:#c10202;fill-opacity:1;stroke-width:0.0507725;stroke-linejoin:bevel;stroke-miterlimit:0"
       d="m 33.954276,185.20205 c -0.594826,-0.21106 -1.607137,-0.82036 -1.790259,-1.07753 -0.149146,-0.20945 -0.183932,-0.51464 -0.139154,-1.2208 0.07339,-1.15744 0.268755,-2.01438 0.664681,-2.91562 0.137689,-0.31343 0.262846,-0.55517 0.278125,-0.53723 0.01528,0.0179 0.07597,0.31878 0.134862,0.66848 0.152879,0.90778 0.434023,2.00428 0.778923,3.03787 0.359389,1.07703 0.47823,1.35123 0.701445,1.61839 0.183042,0.21909 0.226815,0.44574 0.09579,0.49602 -0.13921,0.0534 -0.466308,0.022 -0.724417,-0.0696 z"
       id="path120" />
    <path
       style="fill:#c10202;fill-opacity:1;stroke-width:0.0507725;stroke-linejoin:bevel;stroke-miterlimit:0"
       d="m 36.906981,185.11757 c -0.50949,-0.56395 -1.496439,-2.31121 -1.814495,-3.21234 -0.420149,-1.19037 -0.609532,-3.01603 -0.371871,-3.58484 0.08696,-0.20812 0.384236,-0.44717 1.195927,-0.96165 0.772077,-0.48938 1.267945,-0.75799 1.314183,-0.7119 0.02006,0.02 -0.01313,0.36322 -0.07374,0.76272 -0.16668,1.09859 -0.109955,1.822 0.237073,3.02335 0.250812,0.86827 0.651217,1.76494 1.499337,3.35765 0.1579,0.29653 0.287091,0.55246 0.287091,0.56873 0,0.0717 -1.910323,0.94093 -2.067945,0.94093 -0.0223,0 -0.1148,-0.0822 -0.20556,-0.18265 z"
       id="path121" />
    <path
       style="fill:#c10202;fill-opacity:1;stroke-width:0.0507725;stroke-linejoin:bevel;stroke-miterlimit:0"
       d="m 40.622614,183.59457 c -0.423846,-0.44235 -1.117599,-1.6183 -1.565781,-2.65411 -0.471098,-1.08875 -0.722333,-2.34591 -0.731286,-3.65927 -0.007,-1.0358 0.0889,-1.29219 0.586332,-1.56662 0.337479,-0.18618 1.168222,-0.45765 1.33929,-0.43766 0.158811,0.0186 0.189798,0.12084 0.197154,0.65065 0.01874,1.34994 0.751763,4.42037 1.556102,6.51806 0.157843,0.41164 0.281148,0.75375 0.274011,0.76022 -0.0071,0.006 -0.309698,0.13123 -0.67236,0.27724 -0.36266,0.14601 -0.686944,0.27817 -0.720629,0.29368 -0.03558,0.0164 -0.145733,-0.0599 -0.262833,-0.18219 z"
       id="path122" />
    <path
       style="fill:#c10202;fill-opacity:1;stroke-width:0.0507725;stroke-linejoin:bevel;stroke-miterlimit:0"
       d="m 42.321288,179.47174 c -0.03539,-0.0713 -0.120016,-0.33087 -0.188067,-0.57697 -0.287752,-1.04058 -0.493685,-2.42763 -0.513967,-3.46176 -0.01402,-0.71438 0.02756,-0.80808 0.44599,-1.0051 0.406445,-0.19139 0.879262,-0.3568 0.915707,-0.32036 0.01667,0.0167 -0.03706,0.24754 -0.119389,0.51304 -0.187964,0.60616 -0.311804,1.20615 -0.410723,1.98989 -0.06269,0.49667 -0.07136,0.83686 -0.04594,1.80154 0.01724,0.65408 0.01996,1.18925 0.0061,1.18925 -0.01392,0 -0.05426,-0.0583 -0.08964,-0.12953 z"
       id="path123" />
    <path
       style="fill:#c10202;fill-opacity:1;stroke-width:0.0126931;stroke-linejoin:bevel;stroke-miterlimit:0"
       d="m 43.71375,182.69532 c -0.06637,-0.0328 -0.199877,-0.1641 -0.284702,-0.2799 -0.233061,-0.31819 -0.369471,-0.67293 -0.294409,-0.76563 0.02108,-0.026 0.02204,-0.0261 0.06501,-0.006 0.104541,0.0496 0.359362,0.35761 0.501762,0.60649 0.125858,0.21996 0.179049,0.4147 0.124222,0.45479 -0.03043,0.0223 -0.05027,0.0204 -0.11188,-0.0103 z"
       id="path124" />
    <path
       style="fill:#c10202;fill-opacity:1;stroke-width:0.0507725;stroke-linejoin:bevel;stroke-miterlimit:0"
       d="m 46.745859,182.6602 c -0.784323,-0.19581 -1.650775,-1.02715 -2.078037,-1.99382 -0.194067,-0.43906 -0.153004,-0.45325 0.351775,-0.12158 0.798982,0.525 1.431962,0.68166 2.615132,0.64722 0.605682,-0.0176 0.755204,-0.0379 1.047949,-0.14155 0.256305,-0.0909 0.341468,-0.10528 0.341468,-0.058 0,0.102 -0.557382,0.81855 -0.916432,1.17818 -0.182428,0.18272 -0.412614,0.36985 -0.511522,0.41585 -0.218968,0.1018 -0.603948,0.13518 -0.850333,0.0736 z"
       id="path125" />
    <path
       style="fill:#c10202;fill-opacity:1;stroke-width:0.0507725;stroke-linejoin:bevel;stroke-miterlimit:0"
       d="m 46.692753,179.95879 c -0.49272,-0.12209 -1.043258,-0.49667 -1.806041,-1.22881 -0.685202,-0.65767 -0.903993,-1.14964 -0.836108,-1.88005 0.06021,-0.64789 0.385354,-1.67415 0.807024,-2.54729 0.273027,-0.56535 0.496593,-0.87133 0.636635,-0.87133 0.100372,0 0.118497,0.0578 0.162598,0.51809 0.0568,0.59289 0.479304,1.63515 1.026826,2.53302 0.739871,1.2133 1.575478,2.0533 2.449392,2.46225 0.391091,0.18302 0.850037,0.22528 1.327051,0.12222 0.18104,-0.0391 0.336006,-0.0643 0.34437,-0.0559 0.03011,0.0301 -0.283028,0.35317 -0.429556,0.44317 -0.302582,0.18585 -0.733508,0.28962 -1.505281,0.36247 -0.420169,0.0397 -0.970452,0.10283 -1.222848,0.14032 -0.536854,0.0798 -0.638684,0.08 -0.954062,0.002 z"
       id="path126" />
    <path
       style="fill:#c10202;fill-opacity:1;stroke-width:0.0507725;stroke-linejoin:bevel;stroke-miterlimit:0"
       d="m 50.804816,178.40244 c -0.207471,-0.0788 -0.845005,-0.47827 -1.239033,-0.77638 -0.842143,-0.63715 -2.045486,-2.10357 -2.500294,-3.0469 -0.220619,-0.45759 -0.269203,-0.76687 -0.243215,-1.54819 0.0176,-0.52918 0.04235,-0.7124 0.125356,-0.92793 0.214872,-0.55789 0.704818,-0.9424 2.093908,-1.64331 0.977141,-0.49304 1.126174,-0.52131 1.151206,-0.21839 0.008,0.0977 -0.01966,0.34595 -0.06162,0.55169 -0.09637,0.47253 -0.09583,1.15328 0.0011,1.63197 0.273059,1.34568 1.533716,4.17746 2.103441,4.7249 0.235762,0.22654 0.309539,0.4349 0.208565,0.589 -0.157658,0.24062 -0.915184,0.65899 -1.277281,0.70542 -0.107542,0.0138 -0.26304,-0.004 -0.362327,-0.0419 z"
       id="path127" />
    <path
       style="fill:#c10202;fill-opacity:1;stroke-width:0.0507725;stroke-linejoin:bevel;stroke-miterlimit:0"
       d="m 53.401722,176.53091 c -0.285859,-0.36164 -0.662853,-1.02389 -1.131678,-1.98798 -0.69851,-1.43643 -1.016004,-2.55079 -1.064752,-3.73715 -0.04173,-1.01541 0.02995,-1.13846 0.78608,-1.34953 0.285722,-0.0797 0.948698,-0.16964 1.251361,-0.16964 0.279392,0 0.340302,0.0913 0.394753,0.59189 0.05096,0.46841 0.07625,0.57313 0.317721,1.31562 0.341004,1.0485 0.932836,2.41202 1.144919,2.63778 0.492647,0.52439 0.194765,1.43085 -0.800886,2.43712 -0.329094,0.3326 -0.535858,0.50631 -0.602645,0.50631 -0.06628,0 -0.168921,-0.0851 -0.294873,-0.24442 z"
       id="path128" />
    <path
       style="fill:#c10202;fill-opacity:1;stroke-width:0.0507725;stroke-linejoin:bevel;stroke-miterlimit:0"
       d="m 55.413007,171.97785 c -0.921644,-1.98392 -1.013955,-2.28815 -0.667929,-2.2013 0.305856,0.0767 0.943433,0.94833 1.133519,1.54952 0.121034,0.3828 0.141201,0.76978 0.07535,1.44586 l -0.02982,0.30614 z"
       id="path129" />
    <path
       style="fill:#01388f;fill-opacity:1;stroke-width:0.20309;stroke-linejoin:bevel;stroke-miterlimit:0"
       d="m 79.489575,179.08317 c 0.471262,-0.93823 1.040491,-2.33494 1.516415,-3.72081 0.571441,-1.66399 0.583574,-1.77446 0.651778,-5.93445 0.06203,-3.78292 0.02948,-4.38046 -0.302561,-5.55495 -0.204633,-0.72384 -0.336767,-1.35136 -0.293633,-1.39449 0.04313,-0.0431 1.255764,0.44467 2.694734,1.08401 1.438967,0.63934 3.156971,1.38403 3.817785,1.65489 4.929397,2.02043 11.556037,3.64535 14.866197,3.64535 h 1.46385 l 2.6458,4.09228 c 1.45519,2.25074 2.62927,4.1046 2.60907,4.11967 -0.0202,0.0151 -1.09645,-0.0481 -2.39167,-0.14028 -3.33232,-0.2373 -11.29072,0.10337 -15.83585,0.67786 -2.026394,0.25613 -3.806732,0.51076 -3.956306,0.56583 -0.308117,0.11346 -6.768383,1.04639 -7.245945,1.04639 -0.17085,0 -0.278698,-0.0636 -0.239664,-0.1413 z"
       id="path156" />
    <path
       style="fill:#01388f;fill-opacity:1;stroke-width:0.20309;stroke-linejoin:bevel;stroke-miterlimit:0"
       d="m 148.83142,186.02883 c -0.61583,-0.0213 -0.87018,1.05873 -0.59355,-1.70874 l 1.26375,-0.37636 c 1.45794,-0.43419 2.28481,-0.98766 3.06936,-2.0545 0.62198,-0.84574 1.90067,-3.78622 2.24763,-5.1686 0.12458,-0.49637 0.27917,-0.87787 0.34353,-0.84779 0.0644,0.0301 0.83763,0.4172 1.71837,0.86024 0.88075,0.44304 2.11459,0.89999 2.74186,1.01545 l 1.14049,0.20993 -0.71335,2.44039 c -0.7799,2.66804 -1.57371,3.30454 -1.57371,4.1369 l -3.86211,1.16337 c -1.89137,0.57733 -3.84441,0.39659 -5.78227,0.32971 z"
       id="path159"
       sodipodi:nodetypes="scsssssscsccs" />
  </g>
</svg>
