<?xml version="1.0" encoding="UTF-8" standalone="no"?>
<!-- Created with Inkscape (http://www.inkscape.org/) -->

<svg
   version="1.1"
   id="svg1"
   width="97.201286mm"
   height="21.266092mm"
   viewBox="0 0 367.37494 80.375784"
   sodipodi:docname="Iveco-logo.svg"
   inkscape:version="1.3.2 (1:1.3.2+202404261509+091e20ef0f)"
   xmlns:inkscape="http://www.inkscape.org/namespaces/inkscape"
   xmlns:sodipodi="http://sodipodi.sourceforge.net/DTD/sodipodi-0.dtd"
   xmlns="http://www.w3.org/2000/svg"
   xmlns:svg="http://www.w3.org/2000/svg">
  <defs
     id="defs1" />
  <sodipodi:namedview
     id="namedview1"
     pagecolor="#ffffff"
     bordercolor="#000000"
     borderopacity="0.25"
     inkscape:showpageshadow="2"
     inkscape:pageopacity="0.0"
     inkscape:pagecheckerboard="0"
     inkscape:deskcolor="#d1d1d1"
     inkscape:zoom="1.1335806"
     inkscape:cx="232.44929"
     inkscape:cy="-31.757778"
     inkscape:window-width="1366"
     inkscape:window-height="731"
     inkscape:window-x="0"
     inkscape:window-y="0"
     inkscape:window-maximized="1"
     inkscape:current-layer="g1"
     inkscape:document-units="mm" />
  <g
     inkscape:groupmode="layer"
     inkscape:label="Image"
     id="g1"
     transform="translate(-7.4837971,-70.8903)">
    <path
       style="fill:#000000;stroke-width:0.137853"
       d="m 243.02844,151.16299 c -0.40437,-0.0368 -2.14359,-0.18572 -3.86492,-0.33088 -3.66618,-0.30918 -6.39532,-0.94608 -9.51564,-2.22065 -8.65079,-3.53362 -15.38237,-10.69359 -18.30849,-19.47362 -1.04889,-3.14728 -2.093,-8.56932 -2.40267,-12.47707 -0.63661,-8.03299 0.30428,-17.177548 2.42269,-23.546256 2.95559,-8.885506 10.21575,-16.356031 19.07841,-19.631183 4.94578,-1.827692 12.15179,-2.586965 24.53792,-2.585483 7.52695,9.46e-4 11.38849,0.170247 16.4314,0.720584 2.84928,0.310945 3.63654,0.640706 4.51417,1.890863 l 0.55958,0.797097 v 7.504312 7.50431 l -0.55265,0.796921 c -0.34041,0.490909 -0.88461,0.961865 -1.41717,1.226466 l -0.86456,0.429542 -4.49051,-0.199786 c -7.70718,-0.342899 -15.83338,-0.147895 -18.77538,0.450547 -4.21926,0.858254 -7.67773,4.221025 -8.73126,8.489646 -1.17906,4.77721 -1.21745,15.96671 -0.0732,21.33242 0.86638,4.06271 4.10548,7.54087 8.16112,8.76353 2.8605,0.86234 11.22396,1.34527 18.42303,1.06378 5.90519,-0.23089 6.24714,-0.18995 7.31258,0.87548 1.05644,1.05644 1.09988,1.41313 1.09988,9.03181 0,6.77074 -0.006,6.89102 -0.41356,7.68782 -0.22746,0.4452 -0.73139,1.06239 -1.11982,1.37153 l -0.70628,0.56206 -15.28473,0.0166 c -8.40661,0.009 -15.61559,-0.0135 -16.01996,-0.0504 z m 69.57006,-0.17379 c -5.58708,-0.43323 -9.03663,-1.33154 -13.32584,-3.47021 -8.71241,-4.34415 -15.0109,-12.56209 -16.98635,-22.16294 -0.95267,-4.63006 -1.45232,-12.47574 -1.14264,-17.94233 0.38541,-6.80363 0.91411,-10.365256 2.06216,-13.89229 3.0863,-9.481575 10.42631,-16.996367 19.75422,-20.224598 4.98942,-1.726756 12.15456,-2.416831 24.98613,-2.406416 9.9979,0.0082 16.12191,0.412241 20.95373,1.382747 12.64414,2.539662 23.01039,13.316941 24.99462,25.985696 1.7588,11.229471 1.05551,24.798921 -1.65318,31.896891 -3.42575,8.97698 -10.92274,16.11302 -20.15122,19.18099 -4.95817,1.64833 -8.97521,1.96115 -24.74447,1.92692 -7.78184,-0.0169 -12.57633,-0.10613 -14.74716,-0.27446 z m 21.8538,-19.4664 c 3.68411,-0.86841 6.93755,-4.05444 8.19789,-8.02801 0.75795,-2.38963 0.85801,-3.48963 0.95783,-10.52937 0.18996,-13.397443 -0.32477,-16.099429 -3.71193,-19.485374 -2.499,-2.498109 -4.45804,-3.205925 -9.94313,-3.592524 -2.96636,-0.209075 -3.56887,-0.200423 -5.60603,0.0805 -4.14423,0.571473 -6.05947,1.417755 -8.36707,3.697114 -1.6217,1.601869 -2.57114,3.232065 -3.10475,5.330894 -0.85391,3.35881 -0.84516,19.68635 0.0125,23.22792 0.16227,0.67008 0.66692,1.99411 1.12145,2.94228 1.4694,3.06523 4.49081,5.61216 7.53061,6.34802 1.59268,0.38554 11.2861,0.39197 12.91264,0.009 z M 10.147961,150.46092 C 9.2082251,150.12831 7.940996,148.79598 7.6840039,147.87039 7.5441391,147.36665 7.4845382,136.46667 7.4838186,111.25932 7.4828528,79.223209 7.5134723,75.292115 7.7682503,74.682195 c 0.362097,-0.866832 1.0738289,-1.618388 2.0121012,-2.124684 0.7332275,-0.395653 0.7700665,-0.396727 13.6015455,-0.396727 12.820285,0 12.868955,0.0014 13.601543,0.395673 0.92283,0.49664 1.465251,1.073209 1.829275,1.944441 0.253502,0.606718 0.284366,4.609294 0.283454,36.758422 -6.99e-4,25.85949 -0.05878,36.28563 -0.204965,36.81219 -0.266238,0.95902 -1.500767,2.19354 -2.459784,2.45977 -0.505922,0.14046 -4.59695,0.20175 -13.141426,0.1969 -10.217991,-0.006 -12.536522,-0.0529 -13.142033,-0.26726 z m 66.353479,0.15336 c -3.42018,-0.48104 -6.680185,-2.10273 -9.053387,-4.50364 -2.062172,-2.08625 -3.154484,-3.89757 -3.972225,-6.58693 -1.230154,-4.04568 -16.291231,-62.760655 -16.291231,-63.510673 0,-1.519987 0.728312,-2.710973 2.113756,-3.45658 0.733145,-0.394556 0.772566,-0.395673 13.969154,-0.395673 13.189375,0 13.23642,0.0014 13.971561,0.395082 0.905422,0.484955 1.635673,1.196862 1.909212,1.861245 0.11339,0.275409 3.098468,12.535352 6.633506,27.244319 5.396593,22.45471 6.490176,26.79516 6.81912,27.06523 0.52899,0.43432 1.675021,0.42055 2.078218,-0.0249 0.204089,-0.22553 2.624784,-9.71424 6.928146,-27.15714 3.63798,-14.745778 6.76183,-27.099998 6.94194,-27.453822 0.50448,-0.991121 1.81739,-1.784318 3.19543,-1.930531 0.63256,-0.06711 4.21047,-0.09445 7.95089,-0.06073 l 6.80077,0.06131 0.81068,0.45951 c 0.44589,0.252733 1.06251,0.772759 1.37027,1.155616 1.17422,1.460727 1.59052,-0.515096 -7.13404,33.859167 -4.3106,16.98355 -8.00977,31.41681 -8.22037,32.07392 -1.14388,3.56903 -3.26812,6.47428 -6.09992,8.34266 -1.72574,1.1386 -2.77672,1.62532 -4.71043,2.18139 -1.34709,0.38738 -1.67877,0.39796 -13.420428,0.428 -6.621566,0.0169 -12.287344,-0.004 -12.590622,-0.0468 z m 73.18359,-0.0683 c -5.98393,-1.01299 -10.61178,-5.00663 -12.55796,-10.83701 l -0.52151,-1.56233 -0.0537,-26.10027 c -0.0533,-25.924546 -0.0511,-26.111593 0.33096,-27.783467 1.49623,-6.546989 6.99251,-11.354129 13.73126,-12.009605 2.35343,-0.228916 48.31756,-0.239856 49.70961,-0.01183 1.21746,0.199425 2.13591,0.748197 2.74851,1.642243 l 0.43825,0.639577 v 7.211966 7.211966 l -0.5514,0.782893 c -0.30329,0.430589 -0.91597,0.975343 -1.3615,1.210562 l -0.81009,0.427672 h -15.46921 c -17.10642,0 -16.75855,-0.02227 -17.86241,1.143743 -1.0535,1.112811 -1.06913,1.191557 -1.1352,5.726578 l -0.0613,4.205152 12.93945,-0.13663 c 12.77389,-0.13488 12.94871,-0.13186 13.66281,0.23601 0.39785,0.20494 0.98799,0.64869 1.31142,0.9861 1.12142,1.16992 1.15809,1.4081 1.15809,7.52487 0,3.85461 -0.0689,5.77527 -0.22605,6.30121 -0.29178,0.97651 -1.48394,2.16867 -2.46045,2.46045 -0.56713,0.16945 -3.9609,0.22604 -13.55559,0.22604 h -12.79905 v 3.39134 c 0,1.86523 0.0865,3.79474 0.19225,4.28778 0.23145,1.07926 1.03185,2.10626 2.07714,2.66522 l 0.76338,0.40823 15.91498,0.0919 15.91499,0.0919 0.74022,0.51309 c 0.40714,0.2822 0.9583,0.91373 1.22482,1.4034 l 0.48456,0.89032 v 7.06866 c 0,7.04574 -10e-4,7.07126 -0.42783,7.87872 -0.28098,0.53201 -0.73344,0.99936 -1.31811,1.36149 l -0.8903,0.55141 -25.19571,0.0256 c -13.85762,0.0141 -25.59604,-0.0422 -26.08536,-0.12499 z"
       id="path1" />
  </g>
</svg>
