<?xml version="1.0" encoding="UTF-8" standalone="no"?>
<!-- Created with Inkscape (http://www.inkscape.org/) -->

<svg
   version="1.1"
   id="svg1"
   width="59.999996mm"
   height="64.800003mm"
   viewBox="0 0 226.77166 244.9134"
   sodipodi:docname="mariposa2.svg"
   inkscape:version="1.3.2 (1:1.3.2+202311252150+091e20ef0f)"
   xmlns:inkscape="http://www.inkscape.org/namespaces/inkscape"
   xmlns:sodipodi="http://sodipodi.sourceforge.net/DTD/sodipodi-0.dtd"
   xmlns="http://www.w3.org/2000/svg"
   xmlns:svg="http://www.w3.org/2000/svg"
   xmlns:inkstitch="http://inkstitch.org/namespace">
  <metadata
     id="metadata83">
    <inkstitch:min_stitch_len_mm>0</inkstitch:min_stitch_len_mm>
    <inkstitch:collapse_len_mm>3</inkstitch:collapse_len_mm>
    <inkstitch:inkstitch_svg_version>1</inkstitch:inkstitch_svg_version>
  </metadata>
  <defs
     id="defs1" />
  <sodipodi:namedview
     id="namedview1"
     pagecolor="#ffffff"
     bordercolor="#666666"
     borderopacity="1.0"
     inkscape:showpageshadow="2"
     inkscape:pageopacity="0.0"
     inkscape:pagecheckerboard="0"
     inkscape:deskcolor="#d1d1d1"
     inkscape:zoom="2.2666667"
     inkscape:cx="165.22059"
     inkscape:cy="167.64706"
     inkscape:window-width="1848"
     inkscape:window-height="1016"
     inkscape:window-x="72"
     inkscape:window-y="27"
     inkscape:window-maximized="1"
     inkscape:current-layer="g1"
     inkscape:document-units="mm" />
  <g
     inkscape:groupmode="layer"
     inkscape:label="Image"
     id="g1">
    <path
       style="fill:#000000;stroke-width:0.20961"
       d="m 116.31449,200.16862 c -4.80725,-1.29465 -7.80093,-4.35275 -10.1079,-10.32535 -3.53529,-9.15265 -5.18839,-20.19959 -5.53076,-36.9595 l -0.17259,-8.44888 -1.487927,3.97722 c -1.849105,4.94262 -4.208887,9.75062 -5.552733,11.31354 -0.817889,0.95122 -1.205028,1.18778 -1.943789,1.18778 -0.775825,0 -0.983426,-0.14442 -1.305748,-0.90829 -0.591444,-1.40172 -0.432858,-9.68392 0.28764,-15.02201 0.321581,-2.38256 0.585158,-4.51799 0.585726,-4.74539 6.28e-4,-0.22739 -1.372782,2.35079 -3.051888,5.72933 -6.988929,14.0624 -14.186081,24.91175 -21.136426,31.86208 -4.183752,4.18377 -6.672016,5.88229 -9.817545,6.70159 -4.076213,1.06171 -8.518611,-0.0227 -13.259125,-3.23643 -2.318768,-1.57201 -6.791752,-5.91799 -9.182947,-8.92222 -7.32864,-9.20755 -13.888263,-23.24023 -14.450161,-30.91253 -0.149128,-2.03624 -0.09374,-2.42363 0.546414,-3.82192 2.165904,-4.73095 8.906669,-8.60598 21.009548,-12.07765 4.342043,-1.2455 13.411809,-3.2115 17.342819,-3.7593 2.706424,-0.37715 3.597209,-0.56271 3.442742,-0.71718 -0.06419,-0.0642 -6.524512,-1.63532 -14.356277,-3.49141 C 26.994718,112.57281 28.822416,113.11227 25.786065,110.98424 16.342591,104.36574 8.1035737,82.253522 5.8601405,57.506196 5.1630475,49.816579 5.6709325,40.792515 6.9216708,38.644939 c 0.7340684,-1.26043 2.4869569,-2.102814 4.7747972,-2.294617 4.415777,-0.370203 10.86437,1.353529 21.608692,5.776086 3.293982,1.355861 3.563435,1.522539 3.564401,2.204856 0.0019,1.358212 2.168402,4.268236 5.01106,6.730871 l 1.63744,1.418541 2.055198,-1.168457 c 1.13036,-0.642649 2.100988,-1.203127 2.156949,-1.245506 0.05596,-0.04238 -0.181905,-0.536013 -0.528596,-1.096967 -0.565493,-0.914989 -0.575961,-0.989527 -0.101751,-0.724536 0.290726,0.162458 2.729491,1.364909 5.419477,2.67211 7.382722,3.587642 12.668468,7.898931 18.952595,15.458575 7.449484,8.961538 15.868585,22.978291 21.695259,36.119895 0.671605,1.51475 1.762501,3.55075 2.424217,4.52445 l 1.203122,1.77036 0.237044,-0.97818 c 0.484381,-1.99881 1.418048,-3.46569 2.628513,-4.12966 1.138422,-0.62445 1.157042,-0.65797 0.774812,-1.39472 -0.615154,-1.18572 -1.035527,-3.659494 -0.899866,-5.29545 0.101707,-1.226124 0.291943,-1.668463 1.057316,-2.458121 0.51517,-0.531524 1.53753,-1.163629 2.28196,-1.41089 0.74175,-0.246372 1.34865,-0.557163 1.34865,-0.690651 0,-1.260488 -0.98208,-7.108253 -1.54587,-9.204876 -0.76811,-2.856402 -2.61785,-7.020435 -4.03105,-9.074459 -0.745756,-1.083901 -0.984487,-1.253222 -1.562494,-1.108151 -0.536017,0.134531 -0.897545,-0.04407 -1.686756,-0.833277 -1.050585,-1.050584 -1.112134,-1.470438 -0.288754,-1.969706 0.412245,-0.249971 0.705674,-0.06856 1.775885,1.09795 2.845015,3.101005 4.879819,7.012406 6.203239,11.924174 0.54831,2.035037 1.41527,7.354745 1.41527,8.684171 0,0.63318 0.1308,0.707098 1.50148,0.848565 0.82581,0.08523 2.01244,0.415645 2.63697,0.734253 l 1.13549,0.579286 1.01292,-1.667431 c 2.64519,-4.35445 6.99323,-9.111985 10.48189,-11.469062 2.03742,-1.376563 5.68053,-3.057593 6.63762,-3.062788 0.94256,-0.0051 0.878,1.313085 -0.0821,1.678149 -1.48789,0.565693 -2.00229,0.595818 -2.45438,0.143731 -0.41497,-0.41497 -0.52415,-0.41336 -1.3677,0.02018 -4.37538,2.248691 -9.95459,7.879976 -13.02452,13.146113 l -0.83761,1.436848 0.94952,0.920327 c 1.16359,1.127798 1.9337,3.010715 1.67244,4.089133 -0.28062,1.158322 -1.92565,3.526052 -3.18353,4.582102 l -1.1046,0.92737 0.71031,0.93127 c 0.83307,1.0922 1.11123,3.05247 0.66334,4.67459 -0.16591,0.60091 -0.25869,1.13554 -0.20617,1.18806 0.2191,0.2191 3.84886,-2.15008 6.31737,-4.1234 15.0575,-12.036978 30.43326,-21.035041 42.66725,-24.969349 6.6579,-2.141103 11.14536,-2.747601 18.42084,-2.489654 l 4.59595,0.162948 -0.84168,0.511852 c -0.46292,0.281517 -0.84167,0.633881 -0.84167,0.783028 0,0.149148 0.49633,0.979706 1.10295,1.845686 0.60662,0.865982 1.1499,1.715373 1.20729,1.887539 0.1426,0.427811 4.25038,-0.685005 6.71534,-1.819224 1.04899,-0.482675 2.27915,-1.30683 2.7485,-1.841388 l 0.84961,-0.967655 2.98083,0.189581 c 14.63444,0.930752 23.41773,3.434371 25.38328,7.235343 2.63626,5.097932 -11.22201,28.103373 -25.79118,42.814683 -7.16186,7.23175 -13.86115,11.9724 -19.94776,14.11571 -1.3558,0.47742 -2.63191,0.67014 -5.03063,0.75974 l -3.214,0.12005 -15.91776,-3.79883 c -8.75476,-2.08937 -16.04259,-3.75723 -16.19517,-3.70637 -0.15258,0.0508 0.34483,0.51681 1.10537,1.03546 5.43884,3.709 13.60115,10.43117 18.07387,14.88496 7.79551,7.76253 11.47219,14.47875 10.32636,18.86321 -1.0144,3.88156 -8.10461,11.12803 -16.53699,16.90147 -7.56613,5.18032 -15.70689,8.91003 -22.09123,10.12111 -2.80276,0.53167 -7.44675,0.533 -9.41596,0.002 z m 14.57019,-4.35816 c 1.09749,-0.50006 1.15408,-1.11908 0.18171,-1.98789 -0.98026,-0.87587 -1.83512,-0.97757 -2.57662,-0.30651 -0.66594,0.60266 -0.64836,1.35655 0.0478,2.05277 0.63237,0.63237 1.33151,0.70434 2.34706,0.24163 z m 6.81357,-1.51513 c 0.81368,-0.56993 0.78444,-0.84202 -0.1958,-1.82226 -0.99476,-0.99477 -2.30488,-1.10281 -2.90929,-0.2399 -1.1277,1.61003 1.37634,3.27302 3.10509,2.06216 z m -23.987,-1.70673 c 0.63221,-0.80371 1.13191,-2.94354 1.13191,-4.84706 0,-1.65657 -1.72154,-11.96034 -3.5018,-20.95905 -2.52215,-12.74872 -6.57274,-31.38151 -6.7775,-31.17675 -0.0737,0.0737 -0.48693,1.5808 -0.91829,3.34913 l -0.78429,3.21511 0.67704,9.02239 c 1.29086,17.20258 2.48142,29.05815 3.50054,34.8585 0.79197,4.50754 2.13658,6.81999 4.22268,7.26218 1.22959,0.26063 1.80982,0.0891 2.44971,-0.72445 z m 7.85328,0.5975 c 1.04986,-0.54292 1.04113,-1.01858 -0.0353,-1.92435 -1.03915,-0.87439 -1.89277,-0.91723 -2.87539,-0.14429 -1.9287,1.51711 0.55871,3.28489 2.91071,2.06864 z m 5.793,-0.84712 c 0.88914,-0.62277 0.77727,-1.43432 -0.28716,-2.08331 -1.14963,-0.70095 -1.74218,-0.7002 -2.44544,0.003 -0.69879,0.69881 -0.69687,0.86723 0.0203,1.77894 0.66657,0.84739 1.75937,0.9688 2.71233,0.30131 z m 5.521,-1.36728 c 0.53306,-0.22273 0.9692,-0.52223 0.9692,-0.66556 0,-0.38943 -1.7279,-2.00375 -2.14473,-2.00375 -0.19897,0 -0.74908,0.34606 -1.22246,0.76904 -0.94932,0.8482 -0.9174,1.47994 0.0996,1.97138 0.84236,0.40707 1.17884,0.39665 2.29838,-0.0711 z m 10.71516,-0.46288 c 0.48732,-0.16989 1.01734,-0.55423 1.17783,-0.85408 0.24681,-0.46118 0.10595,-0.71512 -0.91409,-1.64748 -0.66322,-0.60626 -1.43225,-1.10228 -1.70895,-1.10228 -0.76858,0 -2.09874,0.77529 -2.44717,1.42633 -0.9558,1.78592 1.33673,3.0684 3.89238,2.17751 z m -4.80917,-1.80608 c 0.2411,-0.62829 -0.45577,-1.77855 -1.36114,-2.24674 -0.98311,-0.50839 -2.07432,-0.24891 -2.65035,0.63021 -0.40384,0.61633 -0.40011,0.71563 0.0453,1.20781 0.73638,0.81368 3.69383,1.11846 3.96618,0.40872 z m -9.40845,-1.12277 c 0,-0.0791 -0.18271,-0.49713 -0.40604,-0.92897 -0.80865,-1.56377 -3.20592,-1.82978 -3.84522,-0.42668 -0.26159,0.57412 -0.2351,0.78575 0.14602,1.16688 0.78066,0.78064 4.10524,0.93353 4.10524,0.18877 z m 19.90959,0.42915 c 0.57461,-0.15959 1.18864,-0.55901 1.3645,-0.88761 0.28164,-0.52625 0.18339,-0.72468 -0.82432,-1.66465 -1.28898,-1.20236 -2.01378,-1.31484 -3.32418,-0.51585 -1.51678,0.92481 -1.49049,2.46993 0.0526,3.09544 0.78712,0.31905 1.51013,0.31182 2.73134,-0.0274 z m -25.8166,-2.98465 c 0.40516,-0.29951 1.05106,-1.09938 1.43535,-1.77746 0.62979,-1.11133 0.69802,-1.53608 0.69192,-4.30718 -0.006,-2.44847 -0.16706,-3.69463 -0.79419,-6.12189 -0.63234,-2.44742 -2.24124,-7.25359 -2.56399,-7.65923 -0.1234,-0.1551 -8.33297,-3.12097 -8.41415,-3.0398 -0.1484,0.14841 0.45283,6.75676 0.90741,9.97368 0.93853,6.64172 2.43308,10.99285 4.38007,12.75183 1.01316,0.91535 1.22894,0.99424 2.36785,0.86588 0.6892,-0.0777 1.58458,-0.38632 1.98973,-0.68583 z m 18.37666,-1.44913 c 4.19114,-1.90328 2.04309,-6.39935 -5.86028,-12.2661 -4.72623,-3.50834 -6.12753,-4.27906 -9.02062,-4.96128 -2.3658,-0.5579 -2.63768,-0.5761 -2.47759,-0.16593 0.0989,0.25339 0.93235,2.65187 1.8521,5.32994 0.91974,2.67805 2.00604,5.4449 2.41397,6.14853 1.52228,2.62572 4.87259,5.34999 7.60974,6.1878 1.36254,0.41705 4.28346,0.27163 5.48268,-0.27296 z m 12.94531,-2.23544 c 0.96222,-0.67492 0.97631,-0.94536 0.0954,-1.83124 -1.4646,-1.47293 -1.85854,-1.62788 -2.96414,-1.16595 -1.34463,0.56185 -2.04525,1.65569 -1.63591,2.55409 0.55651,1.22138 3.04595,1.46627 4.50461,0.4431 z m -93.008487,-1.33111 c 2.891514,-1.57376 8.330572,-9.58691 23.016917,-33.90995 4.113737,-6.81304 4.137288,-6.86167 5.039003,-10.40524 0.49827,-1.95812 0.801438,-3.49562 0.673709,-3.41668 -0.534988,0.33064 -13.449871,16.32929 -20.40946,25.28276 -10.979157,14.12463 -12.996047,17.18719 -13.301576,20.19793 -0.123684,1.21881 -0.0472,1.58941 0.460271,2.23027 0.835887,1.05559 2.605055,1.06376 4.521136,0.0209 z m -8.863947,-3.04529 c 0.53472,-0.5347 0.5344,-0.52233 0.03839,-1.48153 -0.707069,-1.3673 -1.114562,-1.55088 -2.550294,-1.14891 -1.126826,0.3155 -1.26087,0.43699 -1.185893,1.07481 0.09723,0.82715 1.631587,1.99483 2.62121,1.99483 0.350574,0 0.835038,-0.19764 1.076586,-0.4392 z m 100.553474,-1.21462 c 1.50663,-1.68622 0.83218,-5.33692 -1.4705,-7.95953 -2.1841,-2.48753 -8.19345,-5.59724 -15.72801,-8.13888 -2.58549,-0.87216 -4.74721,-1.53943 -4.80382,-1.48283 -0.0567,0.0567 -0.33941,1.83098 -0.62843,3.94304 l -0.52552,3.84011 1.27688,0.79686 c 5.61343,3.50318 15.34253,8.9338 17.20719,9.60474 2.01539,0.72519 3.67677,0.51059 4.67221,-0.60351 z m 7.95025,-0.7406 c 0.25045,-0.65269 -0.49643,-1.83767 -1.39704,-2.21648 -1.04383,-0.43905 -2.07933,-0.21676 -2.58496,0.5549 -0.52755,0.80517 -0.24836,1.50305 0.68304,1.70729 0.40576,0.089 0.86351,0.20372 1.01722,0.25499 0.81744,0.27268 2.12798,0.0999 2.28174,-0.3007 z M 42.785439,174.70432 c 0.600401,-0.54335 0.669406,-1.57346 0.13511,-2.01688 -0.711965,-0.59089 -2.092284,-0.68995 -2.83476,-0.20347 -0.900437,0.58999 -0.883329,0.86766 0.114977,1.86596 0.917372,0.91735 1.825073,1.04183 2.584673,0.35439 z m 5.109964,-1.56073 c 0.74479,-1.06332 -0.173554,-2.16891 -1.8016,-2.16891 -1.689237,0 -2.220178,1.08741 -1.050527,2.15153 1.115078,1.01449 2.149307,1.0208 2.852127,0.0174 z m -10.140586,-2.63145 c 0.6004,-0.54336 0.669406,-1.57346 0.135109,-2.01689 -0.711964,-0.59088 -2.092284,-0.68995 -2.834759,-0.20347 -0.915336,0.59976 -0.890567,1.37764 0.0666,2.09178 0.936137,0.69844 1.948727,0.74788 2.633045,0.12858 z m 5.485821,-0.71128 c 0.506493,-0.5065 0.403305,-1.44264 -0.23447,-2.12723 -0.647269,-0.69476 -0.945323,-0.73638 -2.183242,-0.30484 -1.048157,0.36539 -1.139595,1.03658 -0.251313,1.84473 1.024547,0.93212 2.089823,1.16654 2.669025,0.58734 z m 14.115963,-1.02513 c 3.132703,-2.15535 6.941935,-6.91733 11.420817,-14.27739 0.884312,-1.45318 1.563851,-2.68612 1.510088,-2.73988 -0.05376,-0.0538 -2.070694,-0.31973 -4.482067,-0.59103 l -4.384312,-0.49326 -1.987197,1.83576 c -2.87738,2.65808 -6.159519,6.73829 -7.281259,9.05168 -1.697426,3.50066 -1.667916,5.36595 0.114528,7.23969 1.021236,1.07354 1.139167,1.12191 2.432691,0.99762 0.919702,-0.0884 1.77905,-0.41932 2.656711,-1.02319 z m 105.505109,0.17188 c 0.0512,-0.26945 -0.28377,-0.86684 -0.74444,-1.32752 -1.00895,-1.00895 -2.28007,-1.11499 -3.13361,-0.26146 -1.19311,1.19311 0.009,2.2752 2.39014,2.15143 1.07217,-0.0558 1.41632,-0.18582 1.48791,-0.56245 z m -113.517465,-0.0696 c 0.549106,-1.43094 -1.122717,-2.82409 -2.811456,-2.34281 -0.974529,0.27776 -1.591143,0.95729 -1.376407,1.51689 0.171751,0.44757 2.149784,1.19249 3.249415,1.2237 0.449847,0.0127 0.845214,-0.15482 0.938448,-0.39778 z M 156.50391,167.8906 c 0.74324,-0.39778 0.69368,-1.55514 -0.0883,-2.06088 -1.0758,-0.69586 -2.0388,-0.81129 -2.545,-0.30511 -1.46035,1.46034 0.69943,3.40093 2.63325,2.36599 z M 40.166369,165.60868 c 0.528048,-0.52804 0.394954,-1.30733 -0.350619,-2.05288 -0.891659,-0.89167 -2.118135,-0.89357 -3.141258,-0.004 -0.699111,0.60725 -0.738618,0.72748 -0.364288,1.10858 0.441568,0.44956 2.349915,1.23136 3.087597,1.2649 0.238256,0.0112 0.584112,-0.13125 0.768568,-0.31569 z m 89.135701,-5.7173 c 0.16529,-5.97538 -0.15141,-8.84014 -1.1693,-10.57704 -0.65902,-1.12453 -3.23983,-3.29675 -7.70003,-6.48096 -3.81444,-2.72321 -14.83934,-9.93405 -14.97741,-9.79598 -0.18271,0.1827 1.42269,7.74982 2.68861,12.67291 1.71214,6.65839 3.60027,11.29937 5.49995,13.51873 1.26908,1.4826 4.44508,3.03264 9.68059,4.72455 4.94645,1.59849 5.27493,1.68127 5.5924,1.40924 0.13173,-0.11287 0.30507,-2.57503 0.38519,-5.47145 z m -94.166323,4.87886 c 0.794889,-0.79488 0.02938,-2.84366 -1.335427,-3.57408 -0.592639,-0.31716 -3.038272,0.31492 -3.384217,0.87467 -0.320403,0.51841 0.440823,1.77087 1.481231,2.43707 1.01218,0.64813 2.714699,0.78605 3.238413,0.26234 z m 117.661643,-0.5355 c 0.10003,-0.86244 -1.28746,-2.20339 -2.27991,-2.20339 -0.91706,0 -1.85736,0.77785 -1.85736,1.53649 0,0.77381 0.30817,1.01145 1.66738,1.28579 1.74861,0.35292 2.37536,0.19586 2.46989,-0.61889 z m 5.57809,-0.31691 c 0.73987,-0.91816 -1.18575,-2.87974 -2.5576,-2.60536 -1.0927,0.21854 -1.56818,0.65373 -1.56818,1.43529 0,0.7569 0.31744,0.9971 1.66738,1.2616 1.56129,0.30595 2.15595,0.2838 2.4584,-0.0915 z M 46.979735,160.414 c 2.402322,-0.85095 4.188612,-2.19114 8.41693,-6.3149 3.025776,-2.95096 3.74752,-3.79259 3.353745,-3.91082 -4.306795,-1.29316 -4.269527,-1.29005 -8.672402,-0.72481 -11.018103,1.41449 -16.554492,4.18477 -15.148217,7.57981 0.786231,1.89813 2.516619,3.25172 4.938785,3.86335 1.596327,0.40309 5.308488,0.14592 7.111159,-0.49263 z m 101.658895,-0.73535 c 2.1591,-2.29825 -2.88875,-6.36188 -10.95741,-8.82096 -2.78243,-0.84801 -7.27467,-1.96758 -7.3984,-1.84385 -0.0625,0.0625 0.0455,0.40734 0.23986,0.76637 0.19811,0.36583 0.4077,2.03252 0.47684,3.7917 0.0729,1.85372 0.25335,3.24682 0.44084,3.40242 0.44487,0.36921 6.54216,2.20036 9.39435,2.82133 1.30656,0.28445 3.45409,0.52656 4.77229,0.53799 2.18749,0.0191 2.45216,-0.0381 3.03163,-0.655 z m -117.695069,0.061 c 1.000293,-1.0003 -0.393124,-3.57733 -1.934278,-3.57733 -1.129405,0 -2.760969,0.72126 -2.760969,1.22053 0,0.79662 0.360611,1.32975 1.35775,2.00733 1.087195,0.73877 2.771802,0.91516 3.337497,0.34947 z m 122.964469,-0.6587 c 0.79048,-0.55366 0.82173,-1.87966 0.0621,-2.6392 -0.7236,-0.72361 -0.99771,-0.70457 -1.82931,0.12703 -1.60828,1.60829 -0.0682,3.79768 1.76712,2.51217 z M 29.370447,152.06653 c 0.688188,-0.6228 0.643347,-1.49641 -0.135526,-2.64027 -0.561336,-0.8244 -0.79172,-0.94521 -1.746743,-0.91607 -1.663304,0.0508 -2.637258,0.53258 -2.637258,1.30462 0,1.10151 1.990521,2.64768 3.47148,2.69654 0.295324,0.0101 0.766945,-0.19043 1.048047,-0.44482 z m 41.923097,-2.6207 c 2.582035,-0.71714 6.973763,-4.51646 12.076668,-10.4476 3.532009,-4.10528 7.437752,-9.03919 7.437752,-9.39571 0,-0.12929 -0.408737,-0.17809 -0.908306,-0.10845 -0.499569,0.0696 -3.675149,0.44517 -7.056846,0.8345 -9.418876,1.08438 -16.675549,2.29343 -18.885902,3.14662 -1.817601,0.7016 -4.701024,5.12645 -7.385628,11.3339 -0.893217,2.06533 -1.214318,3.10204 -1.001528,3.23356 0.301365,0.18625 3.807231,0.87819 7.01083,1.38371 2.186689,0.34505 7.497981,0.35691 8.71296,0.0194 z M 48.443278,148.1881 c 2.907567,-0.21499 5.375318,-0.48956 5.483892,-0.61014 0.24043,-0.26704 2.530203,-7.13432 2.416666,-7.24786 -0.235871,-0.23587 -7.565923,-1.25919 -10.95121,-1.52885 -4.653506,-0.37068 -8.401227,-0.16339 -10.815343,0.59821 -3.281821,1.03534 -5.832271,3.55538 -5.863157,5.79325 -0.02599,1.88264 1.012022,2.84304 3.822466,3.53669 0.846604,0.20896 9.949664,-0.10081 15.906686,-0.5413 z m 81.268382,-4.63622 c 1.52974,-0.32363 4.43747,-1.55052 5.3598,-2.26154 0.49359,-0.38048 0.39945,-0.50736 -1.57123,-2.11767 l -2.09629,-1.71294 -11.26149,-2.66632 c -6.19383,-1.46648 -11.3057,-2.62212 -11.35973,-2.5681 -0.054,0.054 0.37568,0.42169 0.95489,0.81703 0.5792,0.39533 3.19112,2.19534 5.80425,4 2.61313,1.80467 5.71735,3.94325 6.89827,4.7524 2.8115,1.92638 4.52006,2.33925 7.27153,1.75714 z M 26.088613,143.14655 c 0.616248,-0.61625 0.548136,-1.15414 -0.246813,-1.94909 -0.80225,-0.80225 -2.217218,-0.91445 -3.164528,-0.25093 -1.065647,0.74641 -0.787873,1.41815 0.846121,2.04616 1.802956,0.69294 2.013514,0.70557 2.56522,0.15386 z m 147.532927,-2.38278 c 0.37018,-0.16867 0.87915,-0.73888 1.13107,-1.26714 2.32619,-4.87808 -3.80652,-9.06477 -17.2889,-11.80285 -16.28394,-3.30702 -31.13472,-3.82523 -48.68087,-1.69867 -2.49899,0.30288 -2.85796,0.41455 -2.99695,0.93233 -0.3026,1.12731 -0.17489,1.23492 1.86069,1.56775 1.11442,0.18221 5.73631,1.2548 10.27085,2.38351 7.5137,1.87028 11.09191,2.63297 22.35832,4.76562 2.07513,0.39282 7.60882,1.5309 12.29707,2.5291 4.68827,0.99819 9.84466,2.04822 11.45864,2.33339 3.29369,0.58193 8.56673,0.72322 9.59008,0.25696 z m 7.25677,-0.0427 c 0.17748,-0.49729 -0.54482,-1.81745 -1.18054,-2.15767 -1.26639,-0.67775 -3.08975,-0.0175 -3.08975,1.11872 0,0.88592 0.90626,1.29812 2.98111,1.35589 0.7045,0.0196 1.21375,-0.10562 1.28918,-0.31694 z M 58.528139,136.84381 c 0.768568,-1.39246 1.80374,-2.89166 2.300384,-3.33155 0.496644,-0.43988 0.796504,-0.8656 0.666359,-0.94604 -0.130147,-0.0804 -2.171446,-0.55233 -4.536218,-1.04865 -3.81624,-0.80096 -4.817979,-0.90382 -8.910986,-0.91501 -4.268242,-0.0117 -4.699491,0.0345 -5.795104,0.61982 -3.232707,1.72716 -2.395483,3.85368 2.132209,5.41574 2.908144,1.00331 10.413922,2.66188 12.326744,2.72387 0.245555,0.008 0.998095,-1.0352 1.816612,-2.51818 z m 126.096881,1.94207 c 0.79499,-0.74684 0.82982,-1.72467 0.0878,-2.4666 -0.72361,-0.72361 -0.99769,-0.70457 -1.82931,0.12704 -0.79651,0.7965 -0.88033,1.7103 -0.22346,2.43613 0.60914,0.67311 1.17523,0.64528 1.96488,-0.0966 z M 32.80588,138.2869 c 1.433829,-1.58437 -1.38915,-3.29511 -3.133949,-1.89919 -0.531568,0.42528 -0.42109,1.00315 0.336645,1.76089 0.836389,0.83639 2.108618,0.89929 2.797304,0.1383 z m 5.838157,-0.90138 c 0.677542,-1.0824 -1.240339,-2.75039 -2.663225,-2.31621 -0.842745,0.25715 -1.627605,0.95372 -1.627605,1.44448 0,0.51771 2.16951,1.4707 3.185821,1.39944 0.44564,-0.0313 0.942894,-0.26872 1.105009,-0.52771 z m -10.979649,-0.2627 c 0.258507,-0.48303 0.215895,-0.73078 -0.228325,-1.32753 -0.817997,-1.09885 -1.815105,-1.35707 -3.020575,-0.78222 -1.423056,0.67861 -1.250365,1.54815 0.435432,2.19251 1.703756,0.65121 2.432124,0.62979 2.813468,-0.0827 z m 6.409338,-3.46842 c 0,-1.64979 -2.542381,-2.46449 -3.860007,-1.23694 -0.33641,0.31342 -0.611657,0.68629 -0.611657,0.82861 0,0.33216 0.956942,0.8444 2.375571,1.27161 1.355327,0.40816 2.096093,0.10305 2.096093,-0.86328 z M 185.5204,132.80895 c 1.74365,-1.46718 1.30125,-4.19324 -1.06271,-6.54863 -2.92791,-2.91728 -10.2145,-7.00027 -16.15372,-9.05161 -6.78931,-2.34496 -14.49028,-3.73931 -22.01942,-3.98687 l -4.75115,-0.15622 -3.49349,1.67329 c -6.015,2.88103 -12.31535,5.15944 -21.28322,7.69667 -2.97386,0.84138 -5.8472,1.66377 -6.38519,1.82753 -0.8608,0.26201 -0.87756,0.28297 -0.13974,0.17462 4.64285,-0.68182 8.05261,-0.83452 18.58535,-0.83228 13.66824,0.003 20.80728,0.51809 31.30165,2.25891 8.37559,1.38936 14.40442,3.24935 17.62825,5.43861 2.4134,1.6389 3.82126,2.20835 5.47719,2.21538 1.14908,0.005 1.62037,-0.14072 2.2962,-0.7094 z m 5.55834,-0.55796 c 0.88914,-0.62278 0.77727,-1.43431 -0.28716,-2.08331 -1.18721,-0.72385 -2.03164,-0.70241 -2.56933,0.0652 -0.55358,0.79032 -0.54987,0.83441 0.14418,1.71674 0.66654,0.84739 1.75934,0.96879 2.71231,0.30132 z M 38.105789,131.68833 c 0.699437,-0.69943 0.832234,-1.72249 0.324227,-2.4978 -0.553911,-0.84538 -1.25061,-0.8881 -2.06776,-0.12682 -0.762877,0.71073 -0.785206,1.77192 -0.0527,2.50443 0.672774,0.67277 1.207848,0.70858 1.79623,0.12019 z m 41.173667,-2.97701 c 4.957258,-0.65512 9.013196,-1.26109 9.013196,-1.34659 0,-0.0855 -5.065906,-1.36281 -11.257568,-2.83845 l -11.257569,-2.68298 -2.576642,0.57753 c -1.417152,0.31764 -2.576641,0.68463 -2.576641,0.81553 0,0.43474 1.312359,2.32508 2.410496,3.47211 1.914057,1.99927 4.107645,3.13811 6.113615,3.17398 0.614852,0.0109 5.173855,-0.51601 10.131113,-1.17113 z m 115.771174,-0.0741 c 0.57177,-0.68895 0.10517,-1.70808 -1.02834,-2.24596 -0.91696,-0.43512 -1.11988,-0.44598 -1.74779,-0.0935 -0.88434,0.49636 -1.03379,1.18155 -0.45158,2.07014 0.3626,0.55338 0.68259,0.68495 1.66581,0.68495 0.73608,0 1.35328,-0.16422 1.5619,-0.41559 z M 93.685134,124.65103 c 0.08115,-0.42271 0.02613,-0.91541 -0.122274,-1.0949 -0.487997,-0.5902 -7.965554,-5.39039 -12.037216,-7.72723 -8.598009,-4.93466 -17.457402,-8.92994 -26.490991,-11.94653 -9.868151,-3.29529 -17.820781,-4.957103 -22.218583,-4.642895 -4.423411,0.316038 -6.243264,1.554375 -6.726636,4.577215 -0.148226,0.92697 -0.05861,1.23172 0.588268,2.00049 1.656478,1.96862 5.447132,3.34048 19.413621,7.02594 5.303114,1.39938 12.204486,3.29667 15.336379,4.2162 7.865709,2.3094 11.817496,3.32111 20.650597,5.28682 4.190922,0.93265 8.404069,1.99138 9.362549,2.35275 0.958478,0.36137 1.822351,0.67136 1.919717,0.68887 0.09737,0.0175 0.243422,-0.31402 0.324569,-0.73673 z m 94.041456,-1.06501 c 1.46529,-1.02633 1.89023,-3.40986 0.89501,-5.02017 -0.95722,-1.54881 -4.79041,-4.33992 -8.5692,-6.2396 -4.51553,-2.27006 -12.52706,-5.05859 -19.75614,-6.87643 l -3.87495,-0.9744 -1.5749,1.18771 c -2.42152,1.8262 -3.80594,2.66828 -7.44394,4.52782 l -3.35375,1.71423 4.05244,0.0266 c 8.67669,0.0569 19.31331,2.44665 26.99524,6.06503 1.39745,0.65823 3.95082,2.10344 5.67417,3.21156 4.54186,2.92047 5.64347,3.29701 6.95602,2.37767 z m -77.17566,-1.25854 c 1.82273,-0.47095 5.64072,-1.62036 8.48441,-2.55424 23.91146,-7.85262 42.76683,-18.74248 42.75925,-24.695483 -0.001,-1.325836 -0.9158,-2.51366 -2.35839,-3.064595 -5.73775,-2.191268 -21.3874,4.965024 -44.92066,20.541378 l -6.052,4.00574 -0.82972,3.31174 c -0.45634,1.82146 -0.73234,3.31175 -0.61332,3.31175 0.11901,0 1.7077,-0.38533 3.53043,-0.85629 z m -19.473468,-2.31791 c -0.22508,-0.20866 -2.295719,-2.07691 -4.601421,-4.15165 -6.737765,-6.06284 -13.862786,-13.64416 -17.467439,-18.586087 -1.192024,-1.634246 -1.439967,-1.810975 -4.751144,-3.386565 -6.67485,-3.176159 -14.499897,-5.574049 -21.659621,-6.637327 -6.78462,-1.007571 -16.492342,-0.510004 -19.957795,1.022931 -3.84889,1.702545 -4.528032,5.218639 -1.327804,6.874374 0.915563,0.473694 1.703121,0.509676 7.730865,0.353194 5.321937,-0.138158 12.413795,1.51406 23.05702,5.37168 13.217075,4.79051 29.14878,12.57387 37.310448,18.22785 1.86791,1.29399 2.383493,1.57596 1.666891,0.9116 z m 4.019276,-3.04437 c 0.627537,-3.0888 0.636032,-3.27715 0.181596,-4.03054 -0.26219,-0.43467 -1.86557,-3.24274 -3.563068,-6.24016 C 78.156196,82.752128 66.734598,68.681362 60.863124,68.6864 c -3.341139,0.0029 -4.363988,2.726227 -2.767137,7.367559 3.360186,9.766547 19.01019,29.375081 33.660851,42.175071 1.367307,1.19458 2.530015,2.12796 2.583801,2.07418 0.05378,-0.0538 0.39403,-1.55589 0.756099,-3.33801 z M 171.1017,104.60648 c 1.24935,-0.59285 1.99822,-2.04825 1.74592,-3.39311 -0.35204,-1.876513 -3.13782,-3.841947 -7.2386,-5.106987 -1.05374,-0.325073 -2.00852,-0.59104 -2.12171,-0.59104 -0.1132,0 -0.35284,0.490781 -0.53256,1.090624 -0.49381,1.648156 -2.44656,4.385263 -3.84523,5.389713 -1.45391,1.04412 -1.47544,1.02233 1.99689,2.02129 4.64784,1.33715 8.00278,1.53502 9.99529,0.58951 z M 24.132258,103.74001 c 0.241549,-0.24155 0.439182,-0.62456 0.439182,-0.85114 0,-0.65744 -1.307294,-1.78395 -2.070238,-1.78395 -1.562972,0 -2.816643,1.11897 -2.062347,1.84076 0.312712,0.29923 2.531564,1.18267 3.064576,1.22017 0.104311,0.007 0.387277,-0.18429 0.628827,-0.42584 z m -4.311961,-4.032481 c 0.679017,-0.67902 0.72382,-1.869912 0.09642,-2.563176 -0.595228,-0.65772 -0.969859,-0.644106 -1.875346,0.06814 -0.887085,0.697782 -0.930273,1.334722 -0.157144,2.317597 0.693372,0.88148 1.186795,0.9267 1.936068,0.17743 z M 201.28592,97.054884 c 3.63255,-1.309664 2.72543,-4.726616 -1.61766,-6.093275 -1.71217,-0.538775 -2.52416,-0.611296 -6.43124,-0.574395 -5.29374,0.04999 -7.84802,0.494955 -7.78375,1.355936 0.1222,1.637153 1.15864,5.316911 1.51709,5.386241 3.72729,0.720912 12.2321,0.676646 14.31556,-0.0745 z m -28.31113,-4.106252 c 0,-0.847663 -1.49629,-2.184433 -2.4451,-2.184433 -1.1508,0 -2.18765,1.133139 -1.76297,1.926685 0.32205,0.601733 0.85512,0.799246 2.5312,0.937848 1.3276,0.109787 1.67687,-0.03188 1.67687,-0.6801 z M 64.87681,91.812245 C 62.887985,89.304202 60.301243,85.351732 59.143946,83.052586 L 58.146139,81.070293 54.144953,80.204864 C 45.714697,78.381458 39.718065,77.628686 33.62296,77.628686 c -6.651384,0 -10.587706,0.908225 -11.772353,2.716224 -0.64175,0.979435 -0.644968,3.085493 -0.0063,4.060372 0.714877,1.091038 1.932095,1.197379 7.325426,0.63998 4.03833,-0.417362 5.317685,-0.444389 8.397384,-0.177406 9.157309,0.793862 18.066792,3.236667 25.15311,6.89649 1.844562,0.952648 3.396018,1.746162 3.447683,1.763364 0.05166,0.01721 -0.529374,-0.754754 -1.291197,-1.715465 z M 17.863943,91.043679 c 0.307428,-0.307428 0.558959,-0.747606 0.558959,-0.978176 0,-1.273103 -2.506191,-2.065289 -3.473526,-1.097955 -0.643641,0.643643 -0.543076,1.100585 0.420699,1.911549 1.031961,0.868335 1.743178,0.915273 2.493868,0.164582 z M 165.96782,90.634797 c 1.29406,-0.66918 1.28938,-1.214024 -0.0208,-2.423589 -1.27816,-1.179983 -1.98412,-1.323938 -3.04115,-0.620129 -1.52277,1.013933 -1.77618,1.952851 -0.77804,2.882755 0.73925,0.688724 2.66346,0.769382 3.84002,0.160963 z M 190.023,90.058636 c 6.38791,-0.905217 9.15241,-2.367787 8.1204,-4.296135 -0.60928,-1.13843 -1.90443,-1.557022 -4.76665,-1.540576 -1.46026,0.0084 -3.40963,0.177057 -4.33191,0.374813 -2.45151,0.525648 -6.05739,1.698533 -5.95634,1.937405 1.65189,3.904648 1.68556,3.950865 2.8744,3.945457 0.61908,-0.0028 2.44611,-0.192249 4.0601,-0.420964 z m -15.98652,-1.298163 c 0.15211,-0.80154 -1.41238,-2.281618 -2.41174,-2.281618 -1.00628,0 -2.00369,0.770252 -2.00369,1.547363 0,1.162246 4.20162,1.860947 4.41543,0.734255 z M 16.124884,86.416428 c 1.301651,-0.911714 0.434302,-2.639203 -1.325108,-2.639203 -2.069943,0 -2.622649,1.532324 -0.929787,2.577743 0.973313,0.601065 1.465354,0.614476 2.254895,0.06146 z M 163.4367,86.26314 c 0.48732,-0.169883 1.01899,-0.557294 1.18149,-0.860916 0.25026,-0.467628 0.11936,-0.719534 -0.85612,-1.647477 -1.3277,-1.263023 -2.04849,-1.360248 -3.39237,-0.457582 -2.5231,1.694715 -0.0757,4.061517 3.067,2.965975 z m 6.86491,-1.347972 c 0.67437,-0.745168 0.34889,-1.542569 -0.86472,-2.11846 -1.75082,-0.83082 -3.19793,0.461779 -2.20815,1.972377 0.57708,0.88073 2.3325,0.964183 3.07287,0.146083 z M 57.549963,78.876509 c 0,-0.08227 -0.182252,-0.42812 -0.405004,-0.768568 -0.724605,-1.107464 -1.293337,-3.899973 -1.236004,-6.068835 l 0.05541,-2.096093 -1.373165,-0.32252 c -2.13665,-0.501843 -6.602835,-0.459746 -7.938868,0.07483 -1.455105,0.582217 -2.237885,1.685963 -2.237885,3.155494 0,1.579814 1.443297,2.998381 4.231708,4.159199 2.775341,1.155379 8.903807,2.440081 8.903807,1.866495 z m 2.533684,-12.995776 c 0.652761,-0.349346 0.701554,-1.383518 0.118474,-2.511072 -0.638282,-1.234298 -1.3319,-1.496091 -2.941072,-1.110059 -1.836863,0.440657 -2.205331,0.913914 -1.477064,1.897128 1.234906,1.667215 3.047653,2.394059 4.299662,1.724003 z m -7.293375,-1.092111 c 0.653645,-1.221345 -1.068196,-2.812646 -2.621535,-2.422783 -0.888647,0.223037 -1.613019,0.957843 -1.503722,1.525383 0.09158,0.475523 2.176756,1.399678 3.215666,1.425188 0.340445,0.0084 0.749761,-0.229144 0.909591,-0.527788 z m 11.61529,-2.365084 c 0.387196,-0.590937 0.392639,-0.785288 0.04502,-1.607003 -0.217499,-0.514123 -0.658272,-1.168857 -0.979496,-1.454967 -0.523201,-0.466005 -0.729584,-0.485283 -1.981084,-0.185053 -1.811585,0.434592 -2.240147,0.921681 -1.6835,1.913415 1.035931,1.845639 3.748235,2.632137 4.599065,1.333608 z M 53.376151,60.85011 c 0.309995,-0.165904 0.540584,-0.58315 0.540584,-0.978175 0,-1.746439 -2.61912,-2.485044 -3.916182,-1.10438 -0.788047,0.838837 -0.629828,1.061695 1.284443,1.809174 1.664611,0.649992 1.441863,0.620874 2.091155,0.273381 z M 35.350617,60.091377 c 0.276506,-0.422713 1.114239,-1.415671 1.861627,-2.206576 l 1.358888,-1.438007 -1.200656,-0.963697 c -2.136475,-1.714825 -3.834344,-2.752575 -6.738115,-4.118381 -4.384144,-2.062109 -7.021422,-2.483296 -8.791541,-1.404051 -2.599243,1.584763 -1.645692,3.915096 2.665652,6.51444 2.020001,1.217876 9.251503,4.380128 10.024199,4.383469 0.174465,8.38e-4 0.54344,-0.344485 0.819946,-0.767197 z m 22.602717,-1.80893 c 0.574992,-0.820916 0.548793,-1.221481 -0.123892,-1.894168 -0.988427,-0.988426 -3.353748,-0.578312 -3.353748,0.581496 0,1.578588 2.603154,2.561176 3.47764,1.312672 z M 40.730203,54.540762 c 0.873484,-0.70871 1.623821,-1.381653 1.66741,-1.495428 0.124372,-0.32462 -2.675463,-3.006577 -4.830399,-4.62703 -3.651531,-2.745854 -6.628753,-3.782869 -8.097514,-2.8205 -1.479795,0.969597 -0.578312,2.959949 2.447639,5.404056 1.594663,1.288034 6.79787,4.827463 7.096705,4.827463 0.0704,0 0.842673,-0.579853 1.716159,-1.288561 z"
       id="path1"
       sodipodi:nodetypes="csscssssscsssssssssssssssscscsssssssscssssssssssssssssscssssssscssscsssssscsssssscssssscsssssssccsssssssssssssscsssssssscsssccssssssssssssssssssssssssssssssssssssssssssssssssssssssssssssssssssssssscssssssssssssssssssssssssssssscssscsssscsssssssssssssssssscsssssssssssssssssssssssssssssssssssssssscsssssssssssssssssssssssssssssssssssssscsssssssssssssssssssssssssssssssssssssssssssssssssssssssssssssssscsssssssssssssssssssssscsssssssssssssssssssssssssssscsscssssssssscsssssssssssssssssssssssssssssssssssssssssssssssssssssscsssssssssssssssssssssssssssssssssssssssssssssssscsssssssssssssssssssssssssssscsssscssssssssssss" />
    <path
       style="fill:#f26b2e;fill-opacity:1;stroke-width:0.39875;stroke-linejoin:bevel;stroke-miterlimit:0"
       d="M 89.476023,115.87659 C 77.360647,104.86055 64.422172,88.902082 59.622632,79.055065 c -1.339673,-2.748558 -1.717026,-3.954832 -1.851413,-5.918381 -0.146919,-2.146631 -0.06647,-2.574049 0.620835,-3.298476 1.130595,-1.191654 3.402585,-1.116226 5.661882,0.187968 5.776835,3.334717 15.787141,16.502849 26.078442,34.305084 5.83368,10.09129 5.44449,9.14042 4.9118,12.00072 -0.781134,4.19426 -0.422216,4.22361 -5.568155,-0.45539 z"
       id="path2" />
    <path
       style="fill:#f26b2e;fill-opacity:1;stroke-width:0.39875;stroke-linejoin:bevel;stroke-miterlimit:0"
       d="m 54.344178,78.413789 c -6.229348,-1.348811 -9.334521,-3.068235 -9.55028,-5.288275 -0.267234,-2.7497 2.090253,-3.982756 6.96099,-3.640863 4.057614,0.284818 3.953024,0.191054 4.137695,3.709485 0.09506,1.81101 0.411498,3.539708 0.785017,4.288442 0.890921,1.785894 1.145202,1.684418 -2.333422,0.931211 z"
       id="path3" />
    <path
       style="fill:#f26b2e;fill-opacity:1;stroke-width:0.39875;stroke-linejoin:bevel;stroke-miterlimit:0"
       d="m 61.049669,90.79939 c -6.375687,-2.993226 -14.081301,-5.053805 -22.17858,-5.930835 -3.331607,-0.360853 -5.326596,-0.358689 -9.727359,0.01051 -6.206754,0.520764 -7.065794,0.32194 -7.51872,-1.740225 -0.806203,-3.67062 2.791109,-5.233538 12.078372,-5.247665 6.439439,-0.0098 14.978232,1.130418 23.504464,3.138634 0.536645,0.126396 1.173512,0.878288 1.804998,2.130995 0.536675,1.064628 2.036138,3.492543 3.332137,5.395369 1.296,1.902826 2.356362,3.525757 2.356362,3.606513 0,0.29253 -0.608587,0.06532 -3.651674,-1.363334 z"
       id="path4" />
    <path
       style="fill:#f26b2e;fill-opacity:1;stroke-width:0.39875;stroke-linejoin:bevel;stroke-miterlimit:0"
       d="m 86.691821,117.12509 c -0.886381,-0.85148 -11.346353,-6.40227 -17.260139,-9.15942 -11.48123,-5.35283 -22.801288,-9.53911 -30.993147,-11.461604 -2.95185,-0.692751 -5.304259,-0.955235 -9.802317,-1.093758 -6.871826,-0.211625 -7.356402,-0.284943 -8.332129,-1.260669 -1.541431,-1.541432 -0.51462,-4.144565 2.171292,-5.504579 2.702802,-1.368564 10.823077,-2.117202 16.773608,-1.54642 8.41563,0.807239 17.135285,3.25916 24.527607,6.897034 l 4.068887,2.002359 2.959187,3.792505 c 1.627556,2.085882 6.086395,6.915422 9.908535,10.732322 3.822136,3.81689 6.809993,6.93981 6.639681,6.93981 -0.170314,0 -0.467793,-0.15191 -0.661065,-0.33758 z"
       id="path5" />
    <path
       style="fill:#f26b2e;fill-opacity:1;stroke-width:0.39875;stroke-linejoin:bevel;stroke-miterlimit:0"
       d="m 91.518999,124.60239 c -0.813777,-0.29805 -5.640954,-1.52265 -10.727063,-2.72134 -5.086105,-1.19868 -11.661056,-2.85053 -14.610998,-3.67076 -2.949942,-0.82024 -10.856528,-3.00027 -17.570189,-4.84451 -15.200273,-4.17552 -18.765981,-5.34873 -20.679329,-6.80403 -1.807134,-1.3745 -2.09227,-2.73056 -0.959797,-4.56461 1.951648,-3.160724 7.727458,-3.40489 18.310038,-0.77403 13.100313,3.25677 27.270381,9.31554 39.960335,17.08606 6.828659,4.18144 8.311447,5.28466 8.311447,6.18389 0,0.84107 -0.0319,0.84278 -2.034444,0.10933 z"
       id="path6" />
    <path
       style="fill:#f26b2e;fill-opacity:1;stroke-width:0.39875;stroke-linejoin:bevel;stroke-miterlimit:0"
       d="m 66.276677,128.89219 c -1.607514,-0.7957 -5.274321,-4.47002 -5.274321,-5.28512 0,-0.25358 1.066926,-0.70943 2.415777,-1.03217 l 2.415778,-0.57801 10.808102,2.65515 c 9.047993,2.22276 10.597267,2.69638 9.513455,2.9083 -2.168208,0.42396 -15.847913,2.109 -17.118971,2.10869 -0.655058,-1.6e-4 -1.896978,-0.34974 -2.75982,-0.77684 z"
       id="path7" />
    <path
       style="fill:#f26b2e;fill-opacity:1;stroke-width:0.39875;stroke-linejoin:bevel;stroke-miterlimit:0"
       d="m 64.331444,149.43456 c -0.508611,-0.0853 -2.646575,-0.43164 -4.751031,-0.76974 l -3.826283,-0.61471 0.215122,-1.07562 c 0.330399,-1.65198 3.766442,-8.39368 5.315623,-10.42953 2.120966,-2.78725 2.784352,-3.12406 8.060741,-4.09254 4.950936,-0.90873 20.344413,-2.90335 20.902761,-2.70848 0.577399,0.20152 -6.378588,8.55038 -10.91042,13.09514 -5.668252,5.6844 -6.991598,6.47957 -11.04115,6.63431 -1.672338,0.0639 -3.456753,0.0465 -3.965363,-0.0388 z"
       id="path8" />
    <path
       style="fill:#f26b2e;fill-opacity:1;stroke-width:0.39875;stroke-linejoin:bevel;stroke-miterlimit:0"
       d="m 53.604382,138.73351 c -4.981398,-1.00204 -8.758528,-2.07893 -10.727063,-3.05834 -1.763694,-0.8775 -2.034442,-1.15458 -2.034442,-2.08199 0,-0.74247 0.319101,-1.30834 1.042949,-1.84949 0.890248,-0.66556 1.666526,-0.79803 5.301959,-0.90479 4.169214,-0.12242 6.649095,0.15074 11.697895,1.28857 l 2.507057,0.565 -1.027463,1.1757 c -0.565104,0.64663 -1.60361,2.13033 -2.307788,3.2971 -0.70418,1.16678 -1.453225,2.10578 -1.664544,2.08667 -0.21132,-0.0191 -1.466173,-0.25241 -2.78856,-0.51843 z"
       id="path9" />
    <path
       style="fill:#f26b2e;fill-opacity:1;stroke-width:0.39875;stroke-linejoin:bevel;stroke-miterlimit:0"
       d="m 30.747328,147.91703 c -2.419931,-1.19267 -2.486446,-3.50505 -0.165863,-5.76597 2.369216,-2.30831 4.442325,-3.00011 9.495826,-3.16881 4.050294,-0.13521 13.703894,0.72054 15.438866,1.36858 0.557004,0.20805 0.510725,0.56246 -0.475018,3.63768 -1.27691,3.98358 -0.48232,3.60811 -8.834732,4.17457 -8.286663,0.56201 -14.004169,0.47101 -15.459079,-0.24605 z"
       id="path10" />
    <path
       style="fill:#f26b2e;fill-opacity:1;stroke-width:0.39875;stroke-linejoin:bevel;stroke-miterlimit:0"
       d="m 37.918463,159.90247 c -1.507674,-0.86215 -2.588918,-2.12176 -2.975041,-3.46585 -0.295893,-1.03 1.228493,-2.86594 3.225503,-3.88474 2.027341,-1.03428 7.435461,-2.35029 12.011182,-2.92281 3.907248,-0.48888 7.50799,-0.11919 8.095336,0.83115 0.269234,0.43564 -5.775756,6.35677 -8.273511,8.104 -2.326349,1.62732 -4.260706,2.17733 -7.633492,2.1705 -2.424638,-0.004 -3.284261,-0.16567 -4.449977,-0.83225 z"
       id="path11" />
    <path
       style="fill:#f26b2e;fill-opacity:1;stroke-width:0.39875;stroke-linejoin:bevel;stroke-miterlimit:0"
       d="m 52.342511,168.48019 c -1.33799,-1.59013 -1.506705,-2.64291 -0.779726,-4.86552 0.903317,-2.76172 2.858058,-5.52023 6.665329,-9.40602 l 3.329091,-3.39775 4.068884,0.50843 c 2.237888,0.27963 4.110501,0.5164 4.161361,0.52616 0.361416,0.0694 -0.306761,1.24047 -3.194489,5.59889 -7.152963,10.79588 -11.572452,14.21843 -14.25045,11.03581 z"
       id="path12" />
    <path
       style="fill:#f26b2e;fill-opacity:1;stroke-width:0.39875;stroke-linejoin:bevel;stroke-miterlimit:0"
       d="m 57.713178,180.10983 c -0.741249,-0.51919 -0.838619,-0.83513 -0.682974,-2.21599 0.285813,-2.53572 1.892483,-5.24736 7.613231,-12.84915 4.068298,-5.40598 18.957721,-24.19528 24.925371,-31.45388 0.831164,-1.01096 0.814551,-0.59646 -0.109787,2.73914 -0.818445,2.95345 -2.316051,5.64531 -11.008513,19.78713 -10.269573,16.70763 -14.579419,22.69171 -17.199941,23.88151 -1.902712,0.8639 -2.438748,0.88076 -3.537384,0.1112 z"
       id="path13" />
    <path
       style="fill:#f26b2e;fill-opacity:1;stroke-width:0.39875;stroke-linejoin:bevel;stroke-miterlimit:0"
       d="m 110.70697,192.93436 c -1.12136,-0.46276 -2.17971,-2.09744 -2.88183,-4.45115 -1.08194,-3.62701 -2.67885,-18.18444 -4.15073,-37.83796 -0.60238,-8.04334 -0.60114,-8.55943 0.027,-11.22376 0.36211,-1.53602 0.79203,-2.65247 0.95537,-2.48101 0.32358,0.33969 4.7266,20.69613 6.78809,31.38325 2.36847,12.27859 3.27277,18.36544 3.07217,20.6785 -0.28885,3.33063 -1.711,4.79835 -3.81005,3.93213 z"
       id="path14" />
    <path
       style="fill:#f26b2e;fill-opacity:1;stroke-width:0.39875;stroke-linejoin:bevel;stroke-miterlimit:0"
       d="m 119.52183,184.94344 c -2.50504,-1.75462 -4.22261,-8.20726 -5.43046,-20.40144 l -0.22804,-2.30213 3.5681,1.29158 c 1.96244,0.71037 3.87018,1.45327 4.23941,1.65089 0.70481,0.37719 2.15109,4.31396 3.12451,8.50494 0.72933,3.14007 0.7405,7.84359 0.0219,9.23316 -1.20533,2.33087 -3.56751,3.23328 -5.29544,2.023 z"
       id="path15" />
    <path
       style="fill:#f26b2e;fill-opacity:1;stroke-width:0.39875;stroke-linejoin:bevel;stroke-miterlimit:0"
       d="m 136.09179,183.4841 c -2.22442,-0.70957 -5.64394,-3.46339 -6.84453,-5.51203 -0.85286,-1.4553 -4.74935,-11.69975 -4.5233,-11.89242 0.21251,-0.1811 4.30079,1.04834 5.63441,1.6944 2.17472,1.05354 9.15869,6.40352 10.73522,8.2236 2.08003,2.40137 2.99614,4.47338 2.47933,5.60766 -0.23065,0.50623 -0.80147,1.16305 -1.26848,1.45961 -1.30124,0.82632 -4.30169,1.02876 -6.21265,0.41918 z"
       id="path16" />
    <path
       style="fill:#f26b2e;fill-opacity:1;stroke-width:0.39875;stroke-linejoin:bevel;stroke-miterlimit:0"
       d="m 145.23651,174.302 c -7.46013,-3.86863 -14.69573,-8.32808 -14.6736,-9.04359 0.0382,-1.23414 0.96115,-6.36144 1.18553,-6.58582 0.66897,-0.66897 12.56592,4.08151 16.74551,6.68653 3.02986,1.88841 4.47624,3.56369 5.22508,6.05188 0.63654,2.11507 0.36338,3.51695 -0.87513,4.49116 -1.49537,1.17626 -2.77077,0.90798 -7.60739,-1.60016 z"
       id="path17" />
    <path
       style="fill:#f26b2e;fill-opacity:1;stroke-width:0.39875;stroke-linejoin:bevel;stroke-miterlimit:0"
       d="m 138.86604,159.09465 c -1.831,-0.47849 -4.24459,-1.17774 -5.36354,-1.55388 l -2.03444,-0.68389 -0.26442,-2.95919 c -0.14543,-1.62756 -0.35667,-3.33371 -0.46942,-3.79146 -0.25272,-1.02601 -0.38324,-1.0296 3.87798,0.1064 6.70216,1.78666 11.19193,3.91133 13.27229,6.28072 1.26132,1.43657 1.34131,1.7263 0.77085,2.79223 -0.56418,1.05416 -5.38462,0.96018 -9.7893,-0.1909 z"
       id="path18" />
    <path
       style="fill:#f26b2e;fill-opacity:1;stroke-width:0.39875;stroke-linejoin:bevel;stroke-miterlimit:0"
       d="m 123.33029,163.73767 c -5.5231,-1.89449 -7.18659,-2.67203 -8.86926,-4.14563 -1.71376,-1.50083 -3.78286,-5.69741 -5.17946,-10.50507 -1.28658,-4.42891 -3.58612,-14.5731 -3.44708,-15.20643 0.12568,-0.57247 14.24685,8.73836 18.85288,12.4307 3.97556,3.18693 4.1599,3.65858 4.3145,11.0389 0.13972,6.67038 -0.004,7.84094 -0.96242,7.80633 -0.35216,-0.0127 -2.47128,-0.65117 -4.70916,-1.4188 z"
       id="path19" />
    <path
       style="fill:#f26b2e;fill-opacity:1;stroke-width:0.39875;stroke-linejoin:bevel;stroke-miterlimit:0"
       d="m 126.08293,143.38876 c -0.52049,-0.16566 -1.35276,-0.51416 -1.8495,-0.77447 -1.37888,-0.72255 -14.42609,-9.71754 -14.29109,-9.85253 0.0652,-0.0651 3.68668,0.71516 8.04784,1.73402 4.36117,1.01884 9.12599,2.1209 10.58849,2.449 2.04068,0.45783 3.07297,0.93714 4.43878,2.06101 0.97883,0.80543 1.83584,1.61623 1.90444,1.80175 0.19046,0.51499 -4.3467,2.47576 -6.22807,2.69151 -0.91549,0.10495 -2.0904,0.0553 -2.61089,-0.11031 z"
       id="path20" />
    <path
       style="fill:#f26b2e;fill-opacity:1;stroke-width:0.39875;stroke-linejoin:bevel;stroke-miterlimit:0"
       d="m 145.89411,136.66878 c -10.98599,-2.23172 -23.38685,-4.86997 -27.55746,-5.86279 -4.1706,-0.99282 -8.58165,-2.01397 -9.80231,-2.26923 -2.63394,-0.55079 -3.13091,-0.88964 -2.38848,-1.62858 1.35083,-1.34452 21.32938,-2.43787 31.24058,-1.70969 22.49516,1.65275 37.54471,6.49459 37.54471,12.07914 0,1.35366 -0.53801,2.72513 -1.25754,3.20556 -0.22385,0.14948 -2.07154,0.26534 -4.10598,0.25751 -3.21318,-0.0124 -6.3224,-0.54719 -23.67352,-4.07192 z"
       id="path21" />
    <path
       style="fill:#f26b2e;fill-opacity:1;stroke-width:0.39875;stroke-linejoin:bevel;stroke-miterlimit:0"
       d="m 180.89428,132.79677 c -0.68745,-0.29842 -2.19991,-1.11968 -3.36103,-1.82503 -8.25389,-5.01397 -29.20868,-7.93483 -53.83306,-7.50371 -5.69644,0.0997 -10.19072,0.12629 -9.98727,0.059 0.20345,-0.0673 3.19142,-0.968 6.63996,-2.00162 6.76387,-2.02732 12.49552,-4.1703 17.77336,-6.64521 l 3.32908,-1.5611 5.36353,0.2025 c 13.93688,0.52617 26.60291,4.58313 35.80645,11.46888 2.15068,1.60905 3.77272,3.9997 3.77272,5.56041 0,2.34079 -2.72425,3.45244 -5.50374,2.24587 z"
       id="path22" />
    <path
       style="fill:#f26b2e;fill-opacity:1;stroke-width:0.39875;stroke-linejoin:bevel;stroke-miterlimit:0"
       d="m 107.24603,122.50946 c 0.008,-0.5327 1.37424,-5.81957 1.53743,-5.94926 0.56012,-0.4451 6.80446,-4.51383 11.89461,-7.75035 11.85891,-7.54037 21.78906,-12.832907 28.91503,-15.411028 2.8096,-1.016496 3.86773,-1.209881 6.78103,-1.239328 3.34256,-0.03379 3.4803,-0.0021 4.34631,1.00296 0.4919,0.570817 0.89436,1.368105 0.89436,1.771754 0,6.275632 -21.94909,18.452322 -46.66785,25.889922 -6.48988,1.95273 -7.70892,2.21952 -7.70092,1.68533 z"
       id="path23" />
    <path
       style="fill:#f26b2e;fill-opacity:1;stroke-width:0.39875;stroke-linejoin:bevel;stroke-miterlimit:0"
       d="m 180.75566,120.99438 c -6.60441,-3.87745 -10.35163,-5.42028 -17.47631,-7.19546 -4.63017,-1.15365 -7.72735,-1.58144 -13.31635,-1.83928 l -5.17858,-0.2389 3.14413,-1.61439 c 1.72928,-0.88792 4.36377,-2.45538 5.85445,-3.48324 l 2.7103,-1.86885 3.57797,0.85311 c 12.2084,2.91088 24.08527,8.22861 27.78215,12.43912 1.0515,1.19759 1.18918,1.57963 1.02104,2.83326 -0.23919,1.7833 -1.16844,2.87119 -2.4525,2.87119 -0.54128,0 -3.04919,-1.22006 -5.6663,-2.75656 z"
       id="path24" />
    <path
       style="fill:#f26b2e;fill-opacity:1;stroke-width:0.39875;stroke-linejoin:bevel;stroke-miterlimit:0"
       d="m 163.64925,104.4719 c -0.81378,-0.18695 -2.34154,-0.58754 -3.395,-0.89021 l -1.91542,-0.5503 1.73047,-1.77871 c 0.95175,-0.97829 2.12627,-2.626369 2.61003,-3.66239 l 0.87959,-1.883672 1.89466,0.556013 c 4.10229,1.203874 7.25819,3.611034 7.25819,5.536179 0,0.52897 -0.46281,1.38762 -1.08124,2.00606 -1.00764,1.00763 -1.26577,1.07871 -3.79147,1.04408 -1.49062,-0.0204 -3.37604,-0.19011 -4.18981,-0.37705 z"
       id="path25" />
    <path
       style="fill:#b3b3b3;fill-opacity:1;stroke-width:0.0498439;stroke-linejoin:bevel;stroke-miterlimit:0"
       d="m 33.814802,60.641271 c -1.605265,-0.541281 -5.362011,-2.175922 -7.772378,-3.381927 -1.123857,-0.562312 -1.57603,-0.819419 -2.376719,-1.35141 -3.062435,-2.034733 -3.986925,-3.922743 -2.595763,-5.301106 1.862217,-1.845082 4.576147,-1.585172 9.897223,0.94784 2.792432,1.329294 4.238344,2.235383 6.69539,4.195714 l 0.865445,0.690486 -0.264359,0.288909 c -0.145399,0.1589 -0.564539,0.608863 -0.931424,0.999918 -0.840879,0.896278 -1.434528,1.587672 -1.920609,2.236841 -0.476935,0.636957 -0.711025,0.855635 -0.914939,0.854711 -0.08257,-4.19e-4 -0.389416,-0.08137 -0.681867,-0.179976 z"
       id="path26" />
    <path
       style="fill:#b3b3b3;fill-opacity:1;stroke-width:0.0498439;stroke-linejoin:bevel;stroke-miterlimit:0"
       d="m 38.480161,55.520769 c -1.146055,-0.688954 -4.146266,-2.738792 -5.7057,-3.898311 -2.222257,-1.652362 -3.491246,-3.041663 -3.884991,-4.253322 -0.19148,-0.58923 -0.0604,-1.164899 0.353389,-1.551948 0.444455,-0.415734 0.922977,-0.55547 1.774584,-0.518206 1.636349,0.07161 3.830085,1.126084 6.519464,3.13376 1.980795,1.478701 4.831802,4.177072 4.831802,4.573118 0,0.199167 -3.128104,2.776198 -3.369857,2.776198 -0.04623,0 -0.279638,-0.11758 -0.518691,-0.261289 z"
       id="path27" />
    <path
       style="fill:#b3b3b3;fill-opacity:1;stroke-width:0.0498439;stroke-linejoin:bevel;stroke-miterlimit:0"
       d="m 51.986075,60.826885 c -1.128198,-0.435166 -1.763988,-0.712287 -2.032853,-0.886064 -0.416515,-0.269207 -0.46653,-0.439146 -0.233005,-0.791707 0.308256,-0.465378 0.789123,-0.817843 1.337944,-0.980678 0.314068,-0.09318 1.001291,-0.09696 1.337974,-0.0074 0.836125,0.222544 1.424385,0.845321 1.477301,1.563982 0.0386,0.524344 -0.175631,0.911017 -0.657509,1.18672 -0.347243,0.198673 -0.526792,0.186275 -1.229852,-0.08491 z"
       id="path28" />
    <path
       style="fill:#b3b3b3;fill-opacity:1;stroke-width:0.0498439;stroke-linejoin:bevel;stroke-miterlimit:0"
       d="m 51.338753,65.216323 c -1.088843,-0.23305 -2.421258,-0.884093 -2.609147,-1.27488 -0.12739,-0.264957 0.02856,-0.630139 0.429093,-1.004789 0.73781,-0.690135 1.836156,-0.786308 2.738139,-0.239757 0.343348,0.208051 0.713224,0.607073 0.865614,0.933826 0.09785,0.209807 0.12389,0.334348 0.123277,0.589649 -0.0012,0.518973 -0.230707,0.846456 -0.712134,1.016313 -0.24733,0.08727 -0.342889,0.08493 -0.834842,-0.02035 z"
       id="path29" />
    <path
       style="fill:#b3b3b3;fill-opacity:1;stroke-width:0.0498439;stroke-linejoin:bevel;stroke-miterlimit:0"
       d="M 58.331813,65.999967 C 57.5915,65.805982 56.71177,65.218231 56.111068,64.516274 c -0.472692,-0.552365 -0.628897,-0.832127 -0.631739,-1.131426 -0.0021,-0.21963 0.01486,-0.263521 0.159495,-0.41316 0.296737,-0.306997 1.156817,-0.625796 2.125157,-0.787713 1.267059,-0.211868 1.907857,0.131068 2.47366,1.323822 0.465726,0.981792 0.450479,1.820778 -0.04093,2.252245 -0.360396,0.316433 -1.173628,0.421056 -1.864896,0.239925 z"
       id="path30" />
    <path
       style="fill:#b3b3b3;fill-opacity:1;stroke-width:0.0498439;stroke-linejoin:bevel;stroke-miterlimit:0"
       d="m 62.408411,62.975593 c -0.655108,-0.149277 -1.397355,-0.557641 -1.897532,-1.04397 -0.685196,-0.666229 -1.022956,-1.384268 -0.848858,-1.804577 0.08611,-0.207903 0.382802,-0.438775 0.77215,-0.600859 0.514863,-0.214339 1.542265,-0.464723 2.026691,-0.493917 0.365443,-0.02203 0.442392,-0.01285 0.610329,0.07284 0.428915,0.218818 0.916526,0.822534 1.285056,1.59105 0.371956,0.775659 0.401207,1.0894 0.142695,1.530514 -0.200485,0.342103 -0.344213,0.481144 -0.656061,0.634666 -0.256531,0.12629 -0.357278,0.148864 -0.725384,0.162543 -0.257164,0.0096 -0.539676,-0.0097 -0.709086,-0.04828 z"
       id="path31" />
    <path
       style="fill:#b3b3b3;fill-opacity:1;stroke-width:0.0498439;stroke-linejoin:bevel;stroke-miterlimit:0"
       d="m 56.156249,58.743068 c -0.939995,-0.254527 -1.638472,-0.98744 -1.646823,-1.728013 -0.0038,-0.340557 0.10639,-0.551651 0.401329,-0.768552 0.335337,-0.246607 0.645332,-0.336806 1.24083,-0.361037 0.817189,-0.03325 1.317394,0.145593 1.759177,0.628973 0.464599,0.508347 0.524376,0.843931 0.245746,1.379616 -0.416154,0.800085 -1.1035,1.09183 -2.000259,0.849013 z"
       id="path32" />
    <path
       style="fill:#b3b3b3;fill-opacity:1;stroke-width:0.0498439;stroke-linejoin:bevel;stroke-miterlimit:0"
       d="m 14.626306,86.703789 c -0.6868,-0.243724 -1.392539,-0.789559 -1.6126,-1.247221 -0.124505,-0.258937 -0.139887,-0.653883 -0.03349,-0.859653 0.387742,-0.749809 1.902006,-1.046582 2.856227,-0.559773 0.279428,0.142553 0.61915,0.480611 0.753099,0.749409 0.153369,0.307774 0.162332,0.742883 0.0213,1.034213 -0.139099,0.287338 -0.476845,0.597704 -0.852435,0.78333 -0.43682,0.21589 -0.731547,0.241843 -1.132115,0.09969 z"
       id="path33" />
    <path
       style="fill:#b3b3b3;fill-opacity:1;stroke-width:0.0498439;stroke-linejoin:bevel;stroke-miterlimit:0"
       d="m 16.476921,91.496664 c -0.44132,-0.120387 -0.965362,-0.477628 -1.4621,-0.996713 -0.341139,-0.356488 -0.434753,-0.52691 -0.434753,-0.791458 0,-0.405709 0.445608,-0.893194 0.962362,-1.052803 0.956418,-0.295407 2.352984,0.190729 2.732821,0.951278 0.222131,0.444777 0.110916,0.820913 -0.405217,1.370479 -0.460652,0.490492 -0.899221,0.653947 -1.393113,0.519217 z"
       id="path34" />
    <path
       style="fill:#b3b3b3;fill-opacity:1;stroke-width:0.0498439;stroke-linejoin:bevel;stroke-miterlimit:0"
       d="m 18.613542,100.1469 c -0.528398,-0.22963 -1.260511,-1.303528 -1.258782,-1.846443 0.0015,-0.439282 0.580811,-1.091983 1.312641,-1.478669 0.553785,-0.292611 1.120269,-0.0056 1.497482,0.758823 0.114487,0.231995 0.125497,0.300955 0.125497,0.786034 0,0.494112 -0.0096,0.551356 -0.135529,0.809155 -0.162621,0.332879 -0.611005,0.796687 -0.907852,0.93908 -0.242545,0.11634 -0.418905,0.12526 -0.633457,0.032 z"
       id="path35" />
    <path
       style="fill:#b3b3b3;fill-opacity:1;stroke-width:0.0498439;stroke-linejoin:bevel;stroke-miterlimit:0"
       d="m 22.902788,103.9891 c -0.958555,-0.30206 -2.156891,-0.82481 -2.438182,-1.06362 -0.347107,-0.29468 -0.291903,-0.72601 0.143856,-1.12395 0.598477,-0.54655 1.712898,-0.81557 2.345517,-0.56622 0.538311,0.21218 1.251326,0.82817 1.472908,1.27246 0.1421,0.28493 0.139394,0.48915 -0.01039,0.784 -0.18803,0.37014 -0.71987,0.85703 -0.93112,0.85243 -0.0534,-0.001 -0.315569,-0.071 -0.582591,-0.1551 z"
       id="path36" />
    <path
       style="fill:#b3b3b3;fill-opacity:1;stroke-width:0.0498439;stroke-linejoin:bevel;stroke-miterlimit:0"
       d="m 26.393707,137.63858 c -0.274691,-0.0421 -1.001327,-0.25341 -1.417549,-0.41224 -1.122427,-0.42834 -1.604171,-0.8853 -1.464935,-1.38958 0.09627,-0.34867 0.707711,-0.7757 1.417726,-0.99011 0.690893,-0.20863 1.403295,-0.0635 1.958774,0.39922 0.459663,0.38285 0.915321,1.07091 0.915321,1.38217 0,0.17165 -0.178604,0.55957 -0.333238,0.72377 -0.06354,0.0675 -0.180283,0.15617 -0.259431,0.1971 -0.151479,0.0784 -0.582078,0.1256 -0.816668,0.0896 z"
       id="path37" />
    <path
       style="fill:#b3b3b3;fill-opacity:1;stroke-width:0.0498439;stroke-linejoin:bevel;stroke-miterlimit:0"
       d="m 30.937078,138.69091 c -0.373645,-0.12313 -0.674785,-0.32983 -1.031632,-0.7081 -0.754244,-0.79955 -0.697848,-1.37949 0.177396,-1.82419 0.670348,-0.34059 1.573062,-0.33305 2.219042,0.0186 0.931213,0.50682 1.133156,1.3629 0.488019,2.06878 -0.334796,0.36632 -0.640383,0.502 -1.168785,0.51896 -0.314746,0.0101 -0.484609,-0.008 -0.68404,-0.074 z"
       id="path38" />
    <path
       style="fill:#b3b3b3;fill-opacity:1;stroke-width:0.0498439;stroke-linejoin:bevel;stroke-miterlimit:0"
       d="m 32.427681,134.60941 c -0.72113,-0.15124 -2.075658,-0.69582 -2.514353,-1.01087 -0.269644,-0.19364 -0.319363,-0.30871 -0.221134,-0.51181 0.126423,-0.26138 0.674227,-0.80094 0.977064,-0.96235 0.888118,-0.47336 2.08987,-0.31668 2.84175,0.3705 0.329228,0.30089 0.49387,0.6338 0.524387,1.06032 0.03877,0.5419 -0.195725,0.93983 -0.623907,1.05874 -0.209237,0.0581 -0.695865,0.0559 -0.983807,-0.004 z"
       id="path39" />
    <path
       style="fill:#b3b3b3;fill-opacity:1;stroke-width:0.0498439;stroke-linejoin:bevel;stroke-miterlimit:0"
       d="m 36.875095,131.95839 c -0.321547,-0.14969 -0.742427,-0.57603 -0.91322,-0.92506 -0.119569,-0.24436 -0.13575,-0.32703 -0.13575,-0.69356 0,-0.36539 0.01633,-0.44938 0.133812,-0.68866 0.277452,-0.56507 0.986715,-1.09148 1.470604,-1.09148 0.287203,0 0.517678,0.11725 0.771278,0.39237 0.694787,0.75376 0.668363,1.86043 -0.06329,2.6507 -0.432824,0.4675 -0.800753,0.57108 -1.26343,0.35569 z"
       id="path40" />
    <path
       style="fill:#b3b3b3;fill-opacity:1;stroke-width:0.0498439;stroke-linejoin:bevel;stroke-miterlimit:0"
       d="m 36.863736,137.83334 c -1.120982,-0.23431 -2.495143,-0.96763 -2.493652,-1.33072 6.29e-4,-0.17316 0.25546,-0.56512 0.517513,-0.79627 0.134732,-0.11884 0.436356,-0.31164 0.670274,-0.42845 0.359282,-0.17942 0.478259,-0.21578 0.766404,-0.23428 0.430059,-0.0276 0.752794,0.041 1.176489,0.25019 0.651854,0.32178 1.182999,0.95625 1.246026,1.48841 0.05213,0.4401 -0.124996,0.71013 -0.618336,0.94268 -0.34727,0.16369 -0.810436,0.2034 -1.264718,0.10841 z"
       id="path41" />
    <path
       style="fill:#b3b3b3;fill-opacity:1;stroke-width:0.0498439;stroke-linejoin:bevel;stroke-miterlimit:0"
       d="m 24.389138,143.2836 c -1.446324,-0.49246 -2.196923,-0.92903 -2.299418,-1.3374 -0.09281,-0.36978 0.290642,-0.8519 0.915928,-1.1516 1.021744,-0.48973 2.211552,-0.2553 2.97261,0.58569 0.584087,0.64545 0.637371,1.14282 0.177197,1.6541 -0.494722,0.54965 -0.769925,0.58848 -1.766317,0.24921 z"
       id="path42" />
    <path
       style="fill:#b3b3b3;fill-opacity:1;stroke-width:0.0498439;stroke-linejoin:bevel;stroke-miterlimit:0"
       d="m 28.026586,152.45828 c -0.840254,-0.11542 -2.039256,-0.82365 -2.65124,-1.56601 -1.128717,-1.36921 -0.236781,-2.32623 2.174295,-2.33293 0.679528,-0.002 0.755552,0.007 0.933175,0.10137 0.241725,0.12922 0.516515,0.44566 0.855417,0.9851 0.340741,0.54235 0.474949,0.93281 0.476124,1.38522 8.38e-4,0.29818 -0.01813,0.38115 -0.134942,0.592 -0.173947,0.31401 -0.426729,0.54093 -0.783186,0.70303 -0.336769,0.15315 -0.517514,0.18065 -0.869643,0.13228 z"
       id="path43" />
    <path
       style="fill:#b3b3b3;fill-opacity:1;stroke-width:0.0498439;stroke-linejoin:bevel;stroke-miterlimit:0"
       d="m 29.052356,159.96058 c -0.810842,-0.17711 -1.554473,-0.58534 -2.153714,-1.18237 -0.400576,-0.39912 -0.568756,-0.7277 -0.607209,-1.18635 l -0.02696,-0.32163 0.213743,-0.2048 c 0.534657,-0.51228 2.015961,-0.96923 2.760495,-0.85154 0.996676,0.15756 1.994321,1.44295 2.006288,2.58496 0.0059,0.55991 -0.186424,0.90434 -0.614222,1.1002 -0.348868,0.15972 -1.010663,0.18551 -1.578418,0.0615 z"
       id="path44" />
    <path
       style="fill:#b3b3b3;fill-opacity:1;stroke-width:0.0498439;stroke-linejoin:bevel;stroke-miterlimit:0"
       d="m 33.494995,165.03227 c -0.457903,-0.0573 -1.11417,-0.27288 -1.483449,-0.48732 -0.174782,-0.10148 -0.495726,-0.36798 -0.766988,-0.63687 -0.390581,-0.38719 -0.498446,-0.52712 -0.66322,-0.86047 -0.234942,-0.47528 -0.271235,-0.78593 -0.116113,-0.99392 0.302531,-0.4056 1.829534,-0.89683 2.806477,-0.90283 0.354196,-0.002 0.430188,0.0124 0.608204,0.11675 0.89001,0.52157 1.605634,1.77966 1.541616,2.71019 -0.04364,0.63429 -0.366936,0.96499 -1.038275,1.06206 -0.358435,0.0519 -0.417468,0.0513 -0.888252,-0.008 z"
       id="path45" />
    <path
       style="fill:#b3b3b3;fill-opacity:1;stroke-width:0.0498439;stroke-linejoin:bevel;stroke-miterlimit:0"
       d="m 39.044457,165.84788 c -0.954705,-0.20709 -2.349733,-0.84365 -2.748418,-1.25413 -0.223314,-0.22991 -0.242185,-0.3081 -0.12149,-0.50339 0.130593,-0.21131 0.735335,-0.72026 1.06558,-0.89682 0.907801,-0.48533 1.878638,-0.32276 2.604805,0.4362 0.701443,0.73309 0.809326,1.47431 0.284941,1.95766 -0.127755,0.11777 -0.293366,0.21393 -0.446934,0.25954 -0.28301,0.0841 -0.255631,0.0841 -0.638484,0 z"
       id="path46" />
    <path
       style="fill:#b3b3b3;fill-opacity:1;stroke-width:0.0498439;stroke-linejoin:bevel;stroke-miterlimit:0"
       d="m 41.929453,170.01576 c -0.684001,-0.21747 -1.574293,-0.91618 -1.843735,-1.44698 -0.102355,-0.20165 -0.09526,-0.51196 0.01587,-0.69422 0.12606,-0.20674 0.402288,-0.36822 0.946226,-0.55314 0.937369,-0.31865 1.310165,-0.26409 1.835586,0.26868 0.412379,0.41814 0.601099,0.79697 0.631278,1.26722 0.0354,0.55154 -0.171657,0.93478 -0.61423,1.13693 -0.218126,0.0996 -0.692256,0.11009 -0.970983,0.0215 z"
       id="path47" />
    <path
       style="fill:#b3b3b3;fill-opacity:1;stroke-width:0.0498439;stroke-linejoin:bevel;stroke-miterlimit:0"
       d="m 47.65321,169.15508 c -0.956452,-0.20673 -2.093904,-0.68401 -2.364424,-0.99212 -0.534952,-0.60927 0.521925,-1.60915 1.773013,-1.6774 0.75732,-0.0413 1.36925,0.18272 1.836082,0.67214 0.441506,0.46285 0.593913,0.90127 0.496425,1.42803 -0.08689,0.46946 -0.309245,0.62555 -0.922268,0.64739 -0.266152,0.009 -0.53047,-0.0158 -0.818828,-0.078 z"
       id="path48" />
    <path
       style="fill:#b3b3b3;fill-opacity:1;stroke-width:0.0498439;stroke-linejoin:bevel;stroke-miterlimit:0"
       d="m 46.103378,173.76663 c -0.581371,-0.20342 -1.321117,-0.82272 -1.537195,-1.28687 -0.372465,-0.80014 0.165937,-1.39659 1.319498,-1.46178 0.564399,-0.0318 0.992456,0.0421 1.414702,0.24448 0.796826,0.38188 1.048486,1.11248 0.617377,1.79226 -0.445072,0.70181 -1.104186,0.96042 -1.814382,0.71191 z"
       id="path49" />
    <path
       style="fill:#b3b3b3;fill-opacity:1;stroke-width:0.0498439;stroke-linejoin:bevel;stroke-miterlimit:0"
       d="m 51.410297,177.31518 c -0.766745,-0.21035 -1.731076,-0.94251 -2.035105,-1.54514 -0.151049,-0.29941 -0.190594,-0.6474 -0.09617,-0.84637 0.09763,-0.20573 0.300911,-0.31519 0.950042,-0.51148 1.166171,-0.35269 1.650857,-0.3206 2.08748,0.13822 0.353163,0.3711 0.964183,1.51272 0.964183,1.80146 0,0.32553 -0.496056,0.78327 -1.028313,0.94892 -0.317467,0.0988 -0.521609,0.10227 -0.84211,0.0144 z"
       id="path50" />
    <path
       style="fill:#b3b3b3;fill-opacity:1;stroke-width:0.0498439;stroke-linejoin:bevel;stroke-miterlimit:0"
       d="m 41.328368,175.05875 c -0.445701,-0.1477 -0.870967,-0.45626 -1.35944,-0.98636 -0.347359,-0.37698 -0.513172,-0.65618 -0.513172,-0.86407 0,-0.16196 0.31923,-0.50791 0.654909,-0.70969 1.005953,-0.60473 2.799837,-0.22324 3.090411,0.6572 0.08466,0.25655 0.03707,0.78223 -0.09625,1.06316 -0.312372,0.65828 -1.14142,1.05016 -1.776458,0.83976 z"
       id="path51" />
    <path
       style="fill:#b3b3b3;fill-opacity:1;stroke-width:0.0498439;stroke-linejoin:bevel;stroke-miterlimit:0"
       d="m 35.985282,170.80995 c -0.861826,-0.30142 -1.569396,-0.99252 -1.569396,-1.53283 0,-0.39118 0.363722,-0.84554 0.86166,-1.0764 0.975718,-0.45239 2.571683,-0.0616 2.862931,0.70105 0.114777,0.30056 0.07549,0.84692 -0.08325,1.15773 -0.145483,0.28485 -0.471876,0.59383 -0.764465,0.72368 -0.338679,0.15033 -0.920206,0.16224 -1.307478,0.0268 z"
       id="path52" />
    <path
       style="fill:#b3b3b3;fill-opacity:1;stroke-width:0.0996876;stroke-linejoin:bevel;stroke-miterlimit:0"
       d="m 119.23065,193.44222 c -1.26255,-0.35483 -1.58289,-1.33807 -0.69677,-2.13862 0.78162,-0.70614 1.48562,-0.85058 2.26146,-0.46395 0.50821,0.25325 1.38013,1.05471 1.47598,1.35671 0.10573,0.33298 -0.14682,0.62495 -0.83122,0.9611 -0.77053,0.37845 -1.52849,0.47612 -2.20945,0.28476 z"
       id="path53" />
    <path
       style="fill:#b3b3b3;fill-opacity:1;stroke-width:0.0498439;stroke-linejoin:bevel;stroke-miterlimit:0"
       d="m 129.24323,196.0023 c -0.27185,-0.0971 -0.48066,-0.24628 -0.74576,-0.5326 -0.31891,-0.34447 -0.4189,-0.55525 -0.44187,-0.93149 -0.0237,-0.38741 0.0894,-0.64248 0.42547,-0.96037 0.38319,-0.3624 0.57984,-0.44656 1.04502,-0.44721 0.34423,0 0.43032,0.0172 0.69356,0.14232 0.52801,0.25104 1.19404,0.84387 1.39784,1.24424 0.24518,0.48162 0.0596,0.84735 -0.60656,1.1952 -0.6257,0.32674 -1.33785,0.44353 -1.7677,0.28991 z"
       id="path54" />
    <path
       style="fill:#b3b3b3;fill-opacity:1;stroke-width:0.0498439;stroke-linejoin:bevel;stroke-miterlimit:0"
       d="m 125.61904,192.67221 c -0.23873,-0.0757 -0.52174,-0.2256 -0.68023,-0.36031 -0.34081,-0.28968 -0.82091,-1.02849 -0.82204,-1.26502 -0.001,-0.25289 0.69498,-1.00828 1.09049,-1.18324 0.30372,-0.13434 0.71301,-0.12652 1.07721,0.0206 0.71864,0.29026 1.40565,0.80307 1.55511,1.16081 0.15218,0.36419 0.0509,0.77855 -0.26297,1.07481 -0.53238,0.50269 -1.36941,0.73887 -1.95757,0.55237 z"
       id="path55" />
    <path
       style="fill:#b3b3b3;fill-opacity:1;stroke-width:0.0498439;stroke-linejoin:bevel;stroke-miterlimit:0"
       d="m 126.91461,187.96929 c -0.94967,-0.13827 -1.63549,-0.46466 -1.85437,-0.88245 -0.20521,-0.39172 0.11242,-1.14139 0.62015,-1.46372 0.80471,-0.51087 2.06762,-0.30457 2.83583,0.46324 0.1997,0.19959 0.32937,0.39651 0.54572,0.82875 0.17221,0.344 0.27835,0.61197 0.26994,0.68148 -0.019,0.15668 -0.20448,0.28274 -0.52827,0.35891 -0.30395,0.0715 -1.43594,0.0798 -1.889,0.0139 z"
       id="path56" />
    <path
       style="fill:#b3b3b3;fill-opacity:1;stroke-width:0.0498439;stroke-linejoin:bevel;stroke-miterlimit:0"
       d="m 131.12128,191.24235 c -0.64223,-0.21242 -1.18314,-0.5964 -1.27581,-0.90568 -0.13826,-0.46148 0.36535,-1.13181 1.3147,-1.7499 0.46809,-0.30478 0.57572,-0.30528 1.02532,-0.006 0.46189,0.30854 1.39417,1.23218 1.54933,1.53499 l 0.11447,0.22335 -0.16184,0.1386 c -0.20092,0.17211 -0.67675,0.41628 -1.22405,0.62813 -0.48188,0.18654 -1.02264,0.24111 -1.34212,0.13543 z"
       id="path57" />
    <path
       style="fill:#b3b3b3;fill-opacity:1;stroke-width:0.0498439;stroke-linejoin:bevel;stroke-miterlimit:0"
       d="m 136.85471,189.03118 c -0.78892,-0.10093 -1.63813,-0.39805 -1.93617,-0.67736 -0.25387,-0.2379 -0.39882,-0.47642 -0.39882,-0.65626 0,-0.23134 0.40369,-0.83596 0.71719,-1.07417 0.84156,-0.63943 1.96838,-0.49824 2.81691,0.35301 0.3878,0.38904 0.59499,0.72516 0.70418,1.14239 0.14853,0.56754 -0.0154,0.79715 -0.65329,0.91507 -0.31369,0.058 -0.78386,0.057 -1.25,-0.002 z"
       id="path58" />
    <path
       style="fill:#b3b3b3;fill-opacity:1;stroke-width:0.0498439;stroke-linejoin:bevel;stroke-miterlimit:0"
       d="m 135.78036,194.60774 c -0.55795,-0.15026 -1.03856,-0.50731 -1.28735,-0.95637 -0.11608,-0.20953 -0.13496,-0.29271 -0.13404,-0.59066 8.4e-4,-0.2734 0.0241,-0.3908 0.1102,-0.55484 0.18449,-0.3518 0.36616,-0.54406 0.64205,-0.67956 0.23181,-0.11383 0.31455,-0.12927 0.68005,-0.12683 0.49161,0.003 0.81998,0.11917 1.29187,0.4559 0.36625,0.26135 0.94423,0.87897 1.08348,1.15778 0.14325,0.28685 0.10283,0.44399 -0.18557,0.72047 -0.56719,0.5438 -1.45407,0.77517 -2.20067,0.57411 z"
       id="path59" />
    <path
       style="fill:#b3b3b3;fill-opacity:1;stroke-width:0.0498439;stroke-linejoin:bevel;stroke-miterlimit:0"
       d="m 141.46424,190.74773 c -0.85788,-0.11795 -1.55679,-0.51585 -1.82348,-1.03809 -0.21342,-0.41794 -0.1487,-1.01522 0.16061,-1.48221 0.31397,-0.47401 1.30098,-1.09276 1.9863,-1.24518 0.40954,-0.0911 0.54956,-0.0543 1.06698,0.28037 0.62445,0.40389 1.60299,1.2892 1.87262,1.69419 0.1571,0.23596 0.13042,0.56416 -0.0659,0.81131 -0.19162,0.24118 -0.76917,0.6185 -1.1253,0.73517 -0.67158,0.22004 -1.52069,0.32022 -2.07177,0.24444 z"
       id="path60" />
    <path
       style="fill:#b3b3b3;fill-opacity:1;stroke-width:0.0498439;stroke-linejoin:bevel;stroke-miterlimit:0"
       d="m 147.1194,188.1836 c -1.21031,-0.26643 -1.89124,-1.04909 -1.66865,-1.91793 0.13962,-0.54498 0.54419,-1.00703 1.22105,-1.39448 1.1667,-0.6679 1.86482,-0.54153 3.08313,0.55809 0.45291,0.40877 0.65656,0.6214 0.86126,0.89927 0.24308,0.32998 0.1466,0.7235 -0.26654,1.08715 -0.67822,0.59698 -2.27852,0.97742 -3.23025,0.7679 z"
       id="path61" />
    <path
       style="fill:#b3b3b3;fill-opacity:1;stroke-width:0.0498439;stroke-linejoin:bevel;stroke-miterlimit:0"
       d="m 151.92808,181.89883 c -1.40398,-0.27376 -2.05993,-1.18457 -1.57174,-2.18239 0.141,-0.2882 0.5453,-0.74584 0.83493,-0.94512 0.47488,-0.32671 1.2883,-0.64738 1.63175,-0.64324 0.44333,0.006 0.88268,0.28637 1.72968,1.10636 0.68922,0.66722 0.95747,1.01727 0.95834,1.25055 0.001,0.41133 -0.97576,1.10983 -1.87781,1.34215 -0.47342,0.1219 -1.27477,0.15559 -1.70515,0.0716 z"
       id="path62" />
    <path
       style="fill:#b3b3b3;fill-opacity:1;stroke-width:0.0498439;stroke-linejoin:bevel;stroke-miterlimit:0"
       d="m 158.67873,175.17057 c -0.89451,-0.23356 -1.04326,-0.29357 -1.2312,-0.49663 -0.17981,-0.19428 -0.2304,-0.31807 -0.23235,-0.56844 -0.003,-0.48076 0.44912,-1.12494 0.94335,-1.34198 1.154,-0.50674 2.64169,0.16068 3.15819,1.41687 0.11807,0.28716 0.14931,0.69378 0.0654,0.85064 -0.12242,0.22875 -0.65695,0.36932 -1.3763,0.36195 -0.43095,-0.004 -0.60212,-0.0331 -1.32705,-0.22241 z"
       id="path63" />
    <path
       style="fill:#b3b3b3;fill-opacity:1;stroke-width:0.0498439;stroke-linejoin:bevel;stroke-miterlimit:0"
       d="m 160.09995,169.42833 c -0.81153,-0.1352 -1.40232,-0.51222 -1.52789,-0.97506 -0.16756,-0.61766 0.59491,-1.45723 1.47145,-1.62024 0.90214,-0.16777 2.1146,0.56029 2.63436,1.58186 0.16696,0.32812 0.19019,0.45506 0.11589,0.6329 -0.12874,0.30812 -0.65159,0.43311 -1.78004,0.42557 -0.36874,-0.002 -0.77994,-0.0227 -0.91377,-0.045 z"
       id="path64" />
    <path
       style="fill:#b3b3b3;fill-opacity:1;stroke-width:0.0498439;stroke-linejoin:bevel;stroke-miterlimit:0"
       d="m 154.74856,168.07667 c -0.55385,-0.18427 -1.0103,-0.55094 -1.20414,-0.96729 -0.39328,-0.8447 0.25853,-1.88667 1.17786,-1.88286 0.29739,0.002 0.75859,0.13684 1.19022,0.34994 0.76748,0.37895 1.07952,0.7721 1.07755,1.35768 -0.002,0.5337 -0.23425,0.85244 -0.77859,1.06763 -0.32623,0.12897 -1.17046,0.17219 -1.4629,0.0749 z"
       id="path65" />
    <path
       style="fill:#b3b3b3;fill-opacity:1;stroke-width:0.0498439;stroke-linejoin:bevel;stroke-miterlimit:0"
       d="m 150.72591,164.90387 c -1.65028,-0.29698 -2.02487,-0.53176 -2.03146,-1.27323 -0.002,-0.27436 0.0177,-0.3608 0.13218,-0.56752 0.36258,-0.65467 1.24918,-1.1091 1.91689,-0.98247 0.65719,0.12463 1.51364,0.80739 1.8614,1.48386 0.31267,0.60822 0.17915,1.14141 -0.34013,1.35833 -0.23225,0.097 -0.94307,0.0883 -1.53888,-0.0191 z"
       id="path66" />
    <path
       style="fill:#b3b3b3;fill-opacity:1;stroke-width:0.0498439;stroke-linejoin:bevel;stroke-miterlimit:0"
       d="m 152.45951,159.40297 c -0.33601,-0.10216 -0.65039,-0.38118 -0.83712,-0.74283 -0.0886,-0.17165 -0.10763,-0.2809 -0.10875,-0.62421 -0.001,-0.37105 0.0142,-0.4487 0.14179,-0.71668 0.18627,-0.39133 0.4544,-0.72418 0.83884,-1.04128 0.54907,-0.45291 0.77985,-0.44312 1.30842,0.0555 0.52208,0.4925 0.72079,0.95064 0.68102,1.57022 -0.032,0.4972 -0.23203,0.88186 -0.59961,1.15244 -0.42872,0.31562 -1.03888,0.46416 -1.42462,0.34682 z"
       id="path67" />
    <path
       style="fill:#b3b3b3;fill-opacity:1;stroke-width:0.0498439;stroke-linejoin:bevel;stroke-miterlimit:0"
       d="m 157.08355,164.17936 c -0.88653,-0.11087 -1.98818,-0.36047 -2.30541,-0.52228 -0.37573,-0.19169 -0.54773,-0.5504 -0.49729,-1.03705 0.069,-0.66553 0.50552,-1.04895 1.42788,-1.25411 0.46566,-0.10361 0.79066,-0.0512 1.32858,0.21409 0.31453,0.15514 0.47158,0.27306 0.78648,0.59052 0.61158,0.61656 0.81659,1.15271 0.60662,1.58649 -0.14054,0.29032 -0.37322,0.41051 -0.82956,0.42854 -0.19551,0.008 -0.42829,0.006 -0.5173,-0.007 z"
       id="path68" />
    <path
       style="fill:#b3b3b3;fill-opacity:1;stroke-width:0.0498439;stroke-linejoin:bevel;stroke-miterlimit:0"
       d="m 178.53767,140.94932 c -1.31278,-0.17791 -1.8937,-0.56738 -1.8937,-1.26961 0,-1.09686 1.74863,-1.74553 2.9983,-1.11228 0.61432,0.3113 1.38764,1.66452 1.21161,2.12017 -0.0894,0.23137 -0.29615,0.28152 -1.20651,0.2926 -0.44504,0.006 -0.9444,-0.009 -1.1097,-0.0308 z"
       id="path69" />
    <path
       style="fill:#b3b3b3;fill-opacity:1;stroke-width:0.0498439;stroke-linejoin:bevel;stroke-miterlimit:0"
       d="m 183.08597,139.19598 c -0.28987,-0.16627 -0.54339,-0.44964 -0.70478,-0.7878 -0.0985,-0.20634 -0.12115,-0.32036 -0.1202,-0.60446 0.001,-0.50528 0.18297,-0.85934 0.71124,-1.38905 0.41257,-0.4137 0.69313,-0.59578 0.91806,-0.59578 0.30086,0 0.98373,0.62309 1.19956,1.09457 0.1823,0.39816 0.17253,0.83053 -0.0279,1.23781 -0.18971,0.38536 -0.65127,0.85041 -1.03367,1.0415 -0.37191,0.18584 -0.62231,0.18669 -0.94222,0.003 z"
       id="path70" />
    <path
       style="fill:#b3b3b3;fill-opacity:1;stroke-width:0.0498439;stroke-linejoin:bevel;stroke-miterlimit:0"
       d="m 189.44968,132.61061 c -0.49495,-0.10975 -0.8068,-0.33759 -1.22995,-0.89858 -0.1632,-0.21637 -0.32034,-0.47218 -0.34919,-0.56848 -0.0471,-0.15713 -0.0395,-0.20084 0.0744,-0.42595 0.18819,-0.37194 0.50272,-0.74881 0.74201,-0.88904 0.42113,-0.24679 1.01814,-0.19542 1.69746,0.14606 1.08838,0.5471 1.48766,1.18002 1.12973,1.79078 -0.21806,0.37209 -0.77356,0.72722 -1.31806,0.84263 -0.36148,0.0766 -0.4118,0.0768 -0.74646,0.003 z"
       id="path71" />
    <path
       style="fill:#b3b3b3;fill-opacity:1;stroke-width:0.0498439;stroke-linejoin:bevel;stroke-miterlimit:0"
       d="m 192.63777,128.95903 c -0.30351,-0.0819 -0.52515,-0.23407 -0.71252,-0.48933 -0.53046,-0.72263 -0.55292,-1.3706 -0.0637,-1.83749 0.21202,-0.20235 0.63832,-0.45154 0.89576,-0.52362 0.25976,-0.0727 0.51438,-0.0242 1.00814,0.19194 0.96104,0.42077 1.48129,1.00155 1.48523,1.65801 0.004,0.75052 -0.54387,1.06499 -1.84769,1.05954 -0.30516,-0.001 -0.64951,-0.0279 -0.7652,-0.059 z"
       id="path72" />
    <path
       style="fill:#b3b3b3;fill-opacity:1;stroke-width:0.0704899;stroke-linejoin:bevel;stroke-miterlimit:0"
       d="m 191.35511,97.543931 c -1.8307,-0.09033 -3.94591,-0.314921 -4.33552,-0.460336 -0.18967,-0.07079 -0.38662,-0.508683 -0.72616,-1.614572 -0.53089,-1.729051 -0.89193,-3.688953 -0.73395,-3.984154 0.18467,-0.345027 1.48286,-0.710766 3.04926,-0.859054 2.12045,-0.200739 7.00775,-0.277883 8.59872,-0.135728 1.2354,0.110379 2.82688,0.554811 3.86245,1.078608 0.96863,0.489925 1.81436,1.26118 2.16586,1.975129 0.17542,0.356272 0.22076,0.534514 0.23937,0.941111 0.0307,0.67211 -0.17123,1.140285 -0.71636,1.660254 -0.44963,0.428888 -1.34057,0.877964 -2.05298,1.034814 -1.64455,0.362084 -5.97354,0.530568 -9.35069,0.363928 z"
       id="path73" />
    <path
       style="fill:#b3b3b3;fill-opacity:1;stroke-width:0.0704899;stroke-linejoin:bevel;stroke-miterlimit:0"
       d="m 185.12306,90.31291 c -0.36798,-0.181345 -0.71832,-0.796529 -1.54768,-2.717627 -0.36186,-0.838229 -0.42936,-1.046831 -0.36416,-1.125391 0.29042,-0.349943 4.82649,-1.707511 6.54185,-1.957864 1.84459,-0.269214 5.20435,-0.309219 6.2774,-0.07475 1.29608,0.283209 2.16826,1.039208 2.27321,1.970402 0.051,0.452099 -0.12247,0.811083 -0.60589,1.254044 -1.09857,1.006647 -3.63958,1.784908 -7.71585,2.363236 -2.8288,0.401337 -4.43558,0.496558 -4.85888,0.287944 z"
       id="path74" />
    <path
       style="fill:#b3b3b3;fill-opacity:1;stroke-width:0.0704899;stroke-linejoin:bevel;stroke-miterlimit:0"
       d="m 170.80894,93.55466 c -1.18401,-0.137845 -1.74126,-0.374647 -1.9792,-0.841047 -0.16744,-0.328189 -0.16668,-0.543661 0.003,-0.894465 0.26503,-0.547475 0.99305,-1.002553 1.60573,-1.003723 0.44543,-8.38e-4 0.80444,0.133962 1.30171,0.488806 0.88382,0.630686 1.39251,1.527782 1.137,2.005191 -0.16183,0.302389 -0.86322,0.385549 -2.06839,0.245238 z"
       id="path75" />
    <path
       style="fill:#b3b3b3;fill-opacity:1;stroke-width:0.0704899;stroke-linejoin:bevel;stroke-miterlimit:0"
       d="m 163.15039,90.910655 c -0.90288,-0.195977 -1.58018,-0.867707 -1.58018,-1.567205 0,-0.490445 0.48121,-1.123796 1.25898,-1.657026 1.04768,-0.718276 1.72873,-0.630229 2.89699,0.374532 0.57562,0.495066 1.05077,1.064583 1.1324,1.357317 0.12422,0.445426 -0.16568,0.815327 -0.93357,1.191193 -0.76112,0.372544 -1.8842,0.494457 -2.77462,0.301189 z"
       id="path76" />
    <path
       style="fill:#b3b3b3;fill-opacity:1;stroke-width:0.0704899;stroke-linejoin:bevel;stroke-miterlimit:0"
       d="m 160.87697,86.37554 c -0.79189,-0.226706 -1.30885,-0.660622 -1.46915,-1.233142 -0.21388,-0.763928 0.41299,-1.603568 1.63337,-2.187748 0.93157,-0.445935 1.57049,-0.234255 2.76171,0.914997 1.00766,0.972154 1.08005,1.195599 0.56747,1.751676 -0.66593,0.722454 -2.34107,1.084111 -3.4934,0.754217 z"
       id="path77" />
    <path
       style="fill:#b3b3b3;fill-opacity:1;stroke-width:0.0704899;stroke-linejoin:bevel;stroke-miterlimit:0"
       d="m 168.13348,85.336655 c -0.60117,-0.214901 -0.90898,-0.510188 -1.10196,-1.057179 -0.13051,-0.369885 -0.12351,-0.630743 0.0257,-0.959374 0.33815,-0.744649 1.34132,-0.953684 2.33815,-0.487211 0.55663,0.260477 0.83069,0.468474 1.04602,0.793857 0.22832,0.345015 0.19417,0.804196 -0.0862,1.158434 -0.44172,0.558184 -1.48121,0.816196 -2.22178,0.551473 z"
       id="path78" />
    <path
       style="fill:#b3b3b3;fill-opacity:1;stroke-width:0.0704899;stroke-linejoin:bevel;stroke-miterlimit:0"
       d="m 171.87159,89.242375 c -0.85196,-0.133482 -1.65824,-0.452995 -1.99639,-0.791135 -0.22367,-0.223682 -0.26573,-0.584738 -0.10405,-0.892826 0.10305,-0.196239 0.50181,-0.586866 0.76458,-0.748927 0.30352,-0.187201 0.90636,-0.32844 1.21896,-0.285594 0.90055,0.123435 2.2324,1.366177 2.23804,2.088299 0.002,0.277907 -0.0975,0.410112 -0.40026,0.531279 -0.33278,0.133152 -1.18845,0.182328 -1.72092,0.0989 z"
       id="path79" />
    <path
       style="fill:none;stroke:#000000;stroke-width:0.20961px;stroke-linecap:butt;stroke-linejoin:miter;stroke-opacity:1"
       d="m 181.40097,80.274922 11.22523,0.41754"
       id="path80" />
    <path
       style="fill:#b3b3b3;fill-opacity:1;stroke-width:0.0176224;stroke-linejoin:bevel;stroke-miterlimit:0"
       d="m 182.3642,85.317062 c -0.0492,-0.01679 -0.0687,-0.04132 -0.14075,-0.176187 -0.12518,-0.234439 -0.38945,-0.650331 -0.77298,-1.216503 -0.96989,-1.431776 -1.18269,-1.763336 -1.37842,-2.14761 -0.1193,-0.234226 -0.12159,-0.272574 -0.0241,-0.404867 0.15794,-0.214393 0.45588,-0.440873 1.05741,-0.803769 l 0.30242,-0.182455 2.16603,0.08091 c 1.19131,0.04451 2.46395,0.09232 2.82808,0.106255 0.36416,0.01394 1.85748,0.06942 3.31852,0.123298 1.46106,0.05387 2.66709,0.09976 2.68006,0.101975 0.026,0.0045 -0.63382,0.765149 -0.82376,0.949598 -0.59627,0.579025 -1.77553,1.324933 -2.82895,1.789349 -1.7896,0.788977 -4.43943,1.602861 -5.78373,1.776453 -0.22738,0.02936 -0.51924,0.03109 -0.59979,0.0036 z"
       id="path81" />
    <path
       style="fill:none;stroke:#000000;stroke-width:0.20961px;stroke-linecap:butt;stroke-linejoin:miter;stroke-opacity:1"
       d="m 36.190149,43.501185 10.779559,4.760033"
       id="path82" />
    <path
       style="fill:#b3b3b3;fill-opacity:1;stroke-width:0.0176224;stroke-linejoin:bevel;stroke-miterlimit:0"
       d="m 42.575532,51.653065 c -0.515781,-0.447061 -1.018703,-0.886368 -1.117605,-0.976236 -1.272903,-1.156653 -2.427978,-2.417722 -3.244594,-3.542334 -0.612083,-0.842931 -1.0268,-1.582353 -1.214789,-2.165901 -0.08017,-0.248861 -0.107037,-0.392598 -0.124246,-0.664791 -0.01051,-0.165966 -0.02438,-0.259349 -0.04761,-0.320138 -0.01805,-0.04721 -0.02925,-0.08582 -0.02492,-0.08582 0.0063,0 9.135748,4.028633 9.824063,4.335139 0.176012,0.07838 0.183447,0.08379 0.227532,0.165662 0.02507,0.04655 0.16461,0.283255 0.310093,0.526015 0.145485,0.242759 0.305508,0.518621 0.355605,0.613027 0.103942,0.195866 0.208085,0.440338 0.208085,0.488452 0,0.03741 -0.07188,0.08218 -0.874585,0.544779 -0.705729,0.406712 -3.287536,1.875148 -3.316284,1.886179 -0.01422,0.0055 -0.380288,-0.300912 -0.960742,-0.804029 z"
       id="path83" />
  </g>
</svg>
