<?xml version="1.0" encoding="UTF-8" standalone="no"?>
<!-- Created with Inkscape (http://www.inkscape.org/) -->

<svg
   version="1.1"
   id="svg1"
   width="60mm"
   height="59.900166mm"
   viewBox="0 0 226.77166 226.39433"
   sodipodi:docname="1mickey-cara.svg"
   inkscape:version="1.3.2 (1:1.3.2+202311252150+091e20ef0f)"
   xmlns:inkscape="http://www.inkscape.org/namespaces/inkscape"
   xmlns:sodipodi="http://sodipodi.sourceforge.net/DTD/sodipodi-0.dtd"
   xmlns:xlink="http://www.w3.org/1999/xlink"
   xmlns="http://www.w3.org/2000/svg"
   xmlns:svg="http://www.w3.org/2000/svg"
   xmlns:inkstitch="http://inkstitch.org/namespace">
  <sodipodi:namedview
     id="namedview1"
     pagecolor="#ff00f9"
     bordercolor="#666666"
     borderopacity="1.0"
     inkscape:showpageshadow="2"
     inkscape:pageopacity="0.0"
     inkscape:pagecheckerboard="0"
     inkscape:deskcolor="#d1d1d1"
     inkscape:zoom="2.72"
     inkscape:cx="115.80882"
     inkscape:cy="100"
     inkscape:window-width="1848"
     inkscape:window-height="1016"
     inkscape:window-x="72"
     inkscape:window-y="27"
     inkscape:window-maximized="1"
     inkscape:current-layer="g1"
     inkscape:document-units="mm" />
  <metadata
     id="metadata3">
    <inkstitch:min_stitch_len_mm>0</inkstitch:min_stitch_len_mm>
    <inkstitch:collapse_len_mm>3</inkstitch:collapse_len_mm>
    <inkstitch:inkstitch_svg_version>1</inkstitch:inkstitch_svg_version>
  </metadata>
  <defs
     id="defs1">
    <symbol
       id="inkstitch_trim">
      <title
         id="inkstitch_title9282">Trim the thread after sewing this object.</title>
      <path
         id="inkstitch_circle13405"
         d="m 9.2465284,-8.6e-6 c 1.8e-6,2.452339 -0.9741847,4.804237 -2.7082493,6.538304 C 4.8042146,8.2723614 2.4523174,9.2465504 -2.1625959e-5,9.2465514 -2.4523623,9.2465534 -4.8042621,8.2723654 -6.5383288,6.5382984 -8.2723956,4.8042314 -9.2465834,2.4523324 -9.2465816,-8.6e-6 c 6e-7,-2.452339 0.9741895,-4.804237 2.708256,-6.538301 1.7340665,-1.734065 4.0859648,-2.708252 6.538303974041,-2.70825 C 5.1067066,-9.2465576 9.2465271,-5.1067366 9.2465284,-8.6e-6 c 0,0 0,0 0,0"
         style="opacity:1;vector-effect:none;fill:#fafafa;fill-opacity:1;fill-rule:evenodd;stroke:#003399;stroke-width:1.06500006;stroke-linecap:round;stroke-linejoin:miter;stroke-miterlimit:4;stroke-dasharray:3.19500017, 3.19500017;stroke-dashoffset:0;stroke-opacity:1"
         inkscape:connector-curvature="0" />
      <path
         style="color:#000000;font-style:normal;font-variant:normal;font-weight:normal;font-stretch:normal;font-size:medium;line-height:normal;font-family:sans-serif;font-variant-ligatures:normal;font-variant-position:normal;font-variant-caps:normal;font-variant-numeric:normal;font-variant-alternates:normal;font-feature-settings:normal;text-indent:0;text-align:start;text-decoration:none;text-decoration-line:none;text-decoration-style:solid;text-decoration-color:#000000;letter-spacing:normal;word-spacing:normal;text-transform:none;writing-mode:lr-tb;direction:ltr;text-orientation:mixed;dominant-baseline:auto;baseline-shift:baseline;text-anchor:start;white-space:normal;shape-padding:0;clip-rule:nonzero;display:inline;overflow:visible;visibility:visible;opacity:1;isolation:auto;mix-blend-mode:normal;color-interpolation:sRGB;color-interpolation-filters:linearRGB;solid-color:#000000;solid-opacity:1;vector-effect:none;fill:#050505;fill-opacity:1;fill-rule:evenodd;stroke:none;stroke-width:1.41421342;stroke-linecap:butt;stroke-linejoin:miter;stroke-miterlimit:4;stroke-dasharray:none;stroke-dashoffset:0;stroke-opacity:1;color-rendering:auto;image-rendering:auto;shape-rendering:auto;text-rendering:auto;enable-background:accumulate"
         d="m -3.0000256,-5.9834096 c -1.30575,0 -2.375,1.06924 -2.375,2.375 0,1.30575 1.06925,2.375 2.375,2.375 0.58687,0 1.11944,-0.22369 1.53516,-0.58007 0,0 0.61717997,1.62109 0.61717997,1.62109 0,0 -2.29881997,6.01758 -2.29881997,6.01758 0.98655,-0.12511 1.23728,-0.26171 1.67382,-0.97461 0,0 1.33007997,-3.18945 1.33007997,-3.18945 0,0 1.23633003,3.25 1.23633003,3.25 0.23227,0.77906 0.84315,0.79218 1.57813,1.07226 0,0 -2.05469003,-6.14258 -2.05469003,-6.14258 0,0 0.73047003,-1.75 0.73047003,-1.75 0.42849,0.41682 1.01136,0.67578 1.65234,0.67578 1.30575,0 2.375,-1.06925 2.375,-2.375 0,-1.30576 -1.06925,-2.375 -2.375,-2.375 -1.06233,0 -1.95701,0.71265 -2.25781003,1.67969 0,0 -0.0117,-0.0156 -0.0117,-0.0156 0,0 -0.80274,2.10156 -0.80274,2.10156 0,0 -0.59179,-1.76562 -0.59179,-1.76562 -0.18242,-1.12808 -1.15864997,-2 -2.33593997,-2 0,0 -2e-5,-3e-5 -2e-5,-3e-5 m 0,1 c 0.76531,0 1.375,0.60968 1.375,1.375 0,0.76531 -0.60969,1.375 -1.375,1.375 -0.76531,0 -1.375,-0.60969 -1.375,-1.375 0,-0.76532 0.60969,-1.375 1.375,-1.375 0,0 0,0 0,0 m 6,0 c 0.76531,0 1.375,0.60968 1.375,1.375 0,0.76531 -0.60969,1.375 -1.375,1.375 -0.76531,0 -1.375,-0.60969 -1.375,-1.375 0,-0.76532 0.60969,-1.375 1.375,-1.375 0,0 0,0 0,0"
         id="inkstitch_path13416"
         inkscape:connector-curvature="0" />
    </symbol>
  </defs>
  <g
     inkscape:groupmode="layer"
     inkscape:label="Image"
     id="g1">
    <path
       style="fill:#f79a89;fill-opacity:1;stroke-width:0;stroke-linejoin:bevel;stroke-miterlimit:0"
       d="m 105.53807,208.12787 c -2.76328,-1.02377 -5.29898,-2.68437 -7.36715,-4.82466 l -1.787886,-1.85024 1.591806,-1.13347 c 3.37719,-2.40477 6.6443,-3.42436 11.20492,-3.49678 2.41146,-0.0384 4.54701,0.091 4.74563,0.28737 0.19864,0.19637 0.0802,0.88208 -0.2633,1.52384 -1.01921,1.90438 -0.21757,1.86107 2.81544,-0.15213 3.94619,-2.61933 7.80134,-3.79807 11.43604,-3.49665 1.61896,0.13425 3.09751,0.39805 3.28567,0.58621 1.12881,1.12881 -6.9834,9.29229 -11.35723,11.42902 -2.67405,1.30633 -4.00385,1.59841 -7.79207,1.71146 -2.82403,0.0842 -5.30992,-0.13867 -6.51187,-0.58397 z"
       id="path3" />
    <g
       id="command_group1"
       inkscape:label="Ink/Stich Instrucción: Trim thread after sewing this object">
      <path
         id="command_connector1"
         d="m 103.12244,167.27344 9.1831,29.60039"
         style="fill:none;stroke:#000000;stroke-width:1px;stroke-opacity:0.5"
         inkscape:connection-start="#command_use2860"
         inkscape:connection-end="#path3"
         inkscape:label="conector"
         inkscape:connector-type="polyline"
         inkscape:connector-curvature="0" />
      <use
         id="command_use2860"
         xlink:href="#inkstitch_trim"
         height="100%"
         width="100%"
         x="103.11985743239993"
         y="167.2375880345133"
         inkscape:label="marcador de instrucción" />
    </g>
    <path
       style="fill:#fde3ca;fill-opacity:1;stroke-width:0;stroke-linejoin:bevel;stroke-miterlimit:0"
       d="m 105.33264,214.00374 c -3.99983,-1.26499 -5.74714,-2.54694 -13.627857,-9.99845 -4.324956,-4.0894 -7.968865,-7.32997 -8.09758,-7.20125 -0.128713,0.12871 0.54915,1.34512 1.506367,2.70314 0.957217,1.358 1.613147,2.59636 1.457621,2.75189 -0.155527,0.15552 -2.51789,-0.49773 -5.249698,-1.45167 -27.508475,-9.60591 -43.98669,-28.30007 -37.442156,-42.47726 3.127156,-6.77426 10.954679,-11.26214 19.671706,-11.27868 1.847259,-0.003 3.358527,-0.18775 3.35838,-0.40942 -1.49e-4,-0.22168 -0.495316,-1.70551 -1.100367,-3.29743 -4.227384,-11.12245 -4.814784,-25.32347 -1.57192,-38.00294 2.964898,-11.592635 10.229662,-22.710895 18.407898,-28.172112 3.483145,-2.325956 9.061173,-4.290148 12.130878,-4.271651 5.670578,0.03416 10.743468,5.264364 13.279698,13.691489 0.53372,1.773366 1.13393,3.420827 1.3338,3.661026 0.19988,0.240195 0.7684,-1.175553 1.26339,-3.146107 1.93295,-7.69519 5.58916,-13.330188 9.78719,-15.084241 8.69493,-3.632976 21.71198,5.328233 28.96941,19.94316 7.2286,14.556846 7.40321,33.921166 0.45728,50.713606 -1.02344,2.47424 -1.7572,4.60219 -1.6306,4.72879 0.12661,0.12661 1.87069,-0.0555 3.87575,-0.40466 2.00506,-0.34916 5.35842,-0.50472 7.45192,-0.34569 7.73999,0.58799 13.01763,3.86275 16.00508,9.93112 1.58656,3.22277 1.77325,4.08524 1.77325,8.19234 0,4.13091 -0.18335,4.96575 -1.83172,8.34075 -2.25489,4.61682 -9.02917,11.61165 -15.36457,15.86481 -4.09241,2.74737 -19.12057,10.7244 -20.20401,10.7244 -0.28207,0 -0.14392,-0.71347 0.30701,-1.58548 1.68957,-3.26725 0.64581,-2.55295 -5.76308,3.944 -7.0863,7.18367 -10.73981,9.84575 -15.89683,11.58302 -3.76445,1.26816 -9.85092,1.43046 -13.25624,0.3535 z m 15.77001,-4.92864 c 4.56479,-2.25417 8.82483,-6.15386 11.99301,-10.97856 1.06745,-1.62559 4.03863,-6.7135 6.60261,-11.30649 4.08783,-7.32272 5.06007,-8.67327 7.89678,-10.9695 1.77925,-1.44025 4.70513,-4.26065 6.50196,-6.26755 l 3.26696,-3.64892 1.6596,1.11587 c 0.91278,0.61372 2.44194,1.99283 3.3981,3.06468 1.31666,1.47591 1.74045,1.71412 1.74651,0.98169 0.0205,-2.48692 -3.6577,-6.7075 -7.09508,-8.14118 -2.09422,-0.87348 -7.95237,-1.07243 -9.82452,-0.33367 -0.79989,0.31565 -0.10914,0.5881 2.70092,1.06526 6.02004,1.02225 6.02271,1.048 0.64747,6.22779 -7.20131,6.93946 -12.70347,10.33928 -22.09171,13.65057 -17.56751,6.19618 -37.69574,3.62677 -52.19135,-6.66235 -3.261094,-2.31475 -12.091135,-11.10515 -12.091135,-12.03686 0,-0.56849 4.603355,-1.66929 6.980726,-1.66929 2.638788,0 2.305876,-0.95331 -0.546542,-1.56504 -6.058012,-1.29921 -14.494944,2.94901 -14.494944,7.2986 0,1.29469 0.119204,1.24485 2.810565,-1.17491 l 2.810567,-2.52694 1.343478,1.80541 c 2.812653,3.77974 10.645116,11.39374 14.060425,13.66825 3.232215,2.15258 4.081352,3.15639 9.220695,10.90029 10.70409,16.12877 16.106595,20.21644 26.096765,19.74545 3.86603,-0.18226 5.05256,-0.49174 8.59814,-2.2426 z m -0.96314,-42.23031 c 5.99005,-2.76212 8.88484,-6.41654 8.4116,-10.61889 -0.23684,-2.10302 -0.66312,-2.81741 -2.91289,-4.88175 -4.01599,-3.68498 -7.03728,-4.57258 -15.46913,-4.54453 -5.94245,0.0198 -7.4401,0.20335 -10.02609,1.22907 -8.181554,3.24517 -12.020272,9.01671 -8.962937,13.47587 1.798987,2.62384 4.606388,4.72011 7.989057,5.96537 2.53002,0.93138 3.98662,1.05896 10.46259,0.91651 6.73719,-0.14821 7.83524,-0.3093 10.5078,-1.54165 z M 92.231631,147.01196 c 4.615512,-2.35466 9.924729,-3.34604 17.937459,-3.34943 7.04046,-0.003 7.84723,0.10641 12.56893,1.70447 2.77507,0.93923 5.16341,1.58983 5.30744,1.4458 0.14403,-0.14402 -0.80285,-0.92474 -2.10417,-1.73493 l -2.36603,-1.47307 2.28214,-3.40328 c 3.15154,-4.69977 4.50453,-9.31341 4.84831,-16.53265 1.14012,-23.941342 -13.10844,-33.48524 -17.38129,-11.64223 -0.91283,4.66647 -1.24166,19.20535 -0.57022,25.21119 l 0.43558,3.89602 h -4.26106 -4.26106 l 0.7447,-3.08995 c 1.03862,-4.30959 1.04372,-19.14103 0.009,-24.04793 -1.74243,-8.25724 -4.9308,-13.70328 -8.022536,-13.70328 -4.610449,0 -8.764822,9.54518 -9.366685,21.52113 -0.461917,9.1912 0.866889,15.23711 4.514138,20.53888 0.766152,1.11371 1.296627,2.09946 1.178829,2.19056 -0.117797,0.0911 -1.121009,0.711 -2.229364,1.37755 -1.108355,0.66656 -2.015191,1.43403 -2.015191,1.70547 0,0.70091 0.308967,0.63193 2.751818,-0.61432 z"
       id="path2" />
    <g
       id="command_group2"
       inkscape:label="Ink/Stich Instrucción: Trim thread after sewing this object">
      <path
         id="command_connector2"
         d="M 85.765489,43.949078 92.863878,73.07752"
         style="fill:none;stroke:#000000;stroke-width:1px;stroke-opacity:0.5"
         inkscape:connection-start="#command_use7301"
         inkscape:connection-end="#path2"
         inkscape:label="conector"
         inkscape:connector-type="polyline"
         inkscape:connector-curvature="0" />
      <use
         id="command_use7301"
         xlink:href="#inkstitch_trim"
         height="100%"
         width="100%"
         x="85.76290714561033"
         y="43.91322960120581"
         inkscape:label="marcador de instrucción" />
    </g>
    <path
       style="fill:#000000;stroke-width:0.365422"
       d="m 108.33774,217.05312 c -4.31153,-0.89793 -7.00434,-2.05352 -10.636944,-4.56474 -2.373778,-1.64098 -6.729972,-5.72554 -8.439968,-7.91367 -0.526502,-0.67372 -1.124181,-0.8774 -3.031058,-1.03297 -3.563473,-0.29071 -10.339332,-1.87673 -14.25142,-3.33582 -7.524023,-2.80621 -14.885056,-7.39695 -20.495801,-12.78228 -5.701843,-5.47276 -8.556092,-9.73053 -10.576158,-15.77675 -1.045552,-3.12943 -1.136495,-3.76726 -1.015998,-7.12572 0.104207,-2.90448 0.327472,-4.15563 1.050231,-5.8854 l 0.91789,-2.1968 -0.681214,-2.18826 c -2.61799,-8.40977 -2.862693,-21.27615 -0.580238,-30.5084 2.104121,-8.5109 5.334352,-16.21454 10.023496,-23.904658 0.865112,-1.41877 1.52063,-2.631879 1.456707,-2.695803 -0.06392,-0.06392 -1.135948,0.148014 -2.382278,0.470969 -3.082984,0.798881 -9.667389,0.78756 -12.99378,-0.02233 C 24.040683,94.507928 13.985222,83.430909 10.185548,68.381032 9.063559,63.93702 8.951383,53.606753 9.973257,48.831008 11.4161,42.087831 14.859392,34.125036 18.660572,28.741132 c 2.47322,-3.503014 7.278671,-8.485737 10.7426,-11.138893 8.724072,-6.682098 18.492438,-9.7396441 29.420021,-9.2086085 9.30651,0.4522595 16.995261,3.8004255 23.531123,10.2469275 11.96398,11.800407 14.154389,30.140811 5.630118,47.141232 -1.437865,2.867619 -1.673781,3.572596 -1.143629,3.417456 0.367366,-0.107496 2.065675,-0.700325 3.774018,-1.317386 8.573137,-3.096662 20.684727,-4.588731 30.292387,-3.731826 7.53771,0.672287 12.91925,2.031018 18.81003,4.749166 1.38118,0.637308 2.56026,1.109729 2.62016,1.049821 0.0599,-0.0599 -0.38575,-1.259408 -0.99034,-2.66556 -2.50405,-5.823865 -3.63246,-10.793605 -3.86361,-17.01594 -0.21068,-5.671108 0.19605,-9.352626 1.55148,-14.043538 3.68438,-12.750953 13.48331,-23.459938 25.02952,-27.3540657 10.15996,-3.4265981 21.99371,-2.5043547 30.69537,2.3921947 10.03671,5.647809 17.96334,17.729548 21.0521,32.08758 0.95486,4.438637 0.95975,15.374005 0.009,19.71794 -2.43337,11.115895 -8.06558,19.949967 -16.31046,25.582834 -3.78604,2.586611 -7.90519,4.318531 -13.15515,5.53117 -3.04186,0.702606 -10.25314,0.598318 -13.44653,-0.194466 -1.46662,-0.364102 -2.75229,-0.576317 -2.85701,-0.471587 -0.10478,0.104732 0.61183,1.480971 1.59236,3.058325 8.32168,13.386932 12.62695,32.390572 10.5074,46.380002 -0.30226,1.99497 -0.77179,4.44942 -1.04341,5.45432 -0.69225,2.56112 -2.41806,6.82332 -3.063,7.5646 -0.47793,0.54931 -0.47451,0.81619 0.0294,2.29513 2.71552,7.96961 0.75134,16.44098 -5.53988,23.89318 -3.49314,4.13777 -6.43955,6.72632 -11.39341,10.00962 -6.18662,4.10034 -14.48514,7.88816 -21.44158,9.7869 l -2.98782,0.81551 -4.33056,4.24374 c -5.92351,5.80477 -10.38741,8.40234 -16.66917,9.69987 -2.60951,0.53901 -5.71987,0.68087 -7.37421,0.33634 z m 8.71736,-2.53028 c 6.75187,-1.72832 12.87073,-6.35203 21.60522,-16.32599 1.18804,-1.35663 2.28818,-2.46659 2.44476,-2.46659 0.15657,0 -0.3656,1.02775 -1.16041,2.28388 -0.79479,1.25613 -1.28039,2.33987 -1.07911,2.40831 0.55218,0.18773 13.15383,-6.06879 17.52504,-8.70091 17.40785,-10.48208 24.24557,-21.58982 20.42424,-33.1788 -1.55369,-4.71191 -4.94719,-8.43814 -9.53073,-10.4652 -2.30644,-1.02002 -7.19273,-2.04479 -9.74625,-2.04404 -1.5794,3.6e-4 -6.4931,0.76962 -8.36432,1.3093 -1.07304,0.30946 -1.04137,0.005 0.31003,-2.97493 5.83303,-12.86448 7.41676,-29.01207 4.11958,-42.00268 -3.86894,-15.243243 -14.43583,-28.232657 -25.24609,-31.033873 -4.83044,-1.251695 -8.46493,-0.311726 -11.83835,3.061691 -3.05514,3.055147 -5.1218,7.70794 -6.74367,15.182444 -0.22428,1.033678 -0.26692,0.981525 -0.74683,-0.913552 -2.44329,-9.648161 -7.0775,-15.227267 -13.256149,-15.959036 -2.384628,-0.282423 -6.853311,0.736049 -10.090422,2.29974 -11.823676,5.711446 -21.269418,21.403345 -23.39982,38.873346 -1.284126,10.53023 -0.09354,20.79577 3.4917,30.10651 0.598915,1.55536 1.088937,2.88699 1.088937,2.95919 0,0.0722 -1.201519,0.0404 -2.670044,-0.0707 -7.868732,-0.59511 -16.756535,3.82709 -20.069646,9.98583 -1.431432,2.66088 -2.229167,6.40143 -1.953622,9.16046 1.41654,14.18393 16.712707,27.55227 40.848528,35.70023 2.152483,0.72666 4.180519,1.32119 4.506738,1.32119 0.403515,0 -0.182232,-0.99297 -1.832277,-3.10609 -1.333969,-1.70834 -2.219033,-3.10607 -1.966805,-3.10607 0.252228,0 3.508835,3.10065 7.2369,6.89036 7.208682,7.32784 9.314832,8.9237 13.853482,10.49697 3.02337,1.048 8.78419,1.19343 12.23939,0.30899 z m -8.35193,-3.33438 c -4.65551,-0.61747 -8.12674,-2.52961 -12.435912,-6.85035 -3.219755,-3.2284 -4.523226,-5.03287 -12.322034,-17.058 -1.515182,-2.33628 -3.142073,-4.51747 -3.615312,-4.84708 -0.473234,-0.32961 -2.175946,-1.45115 -3.783799,-2.49232 -3.502637,-2.26814 -10.363721,-8.99227 -12.599366,-12.34787 -0.870367,-1.30638 -1.621341,-2.42585 -1.66883,-2.4877 -0.22917,-0.29849 -3.871848,2.29169 -4.875759,3.46698 -0.626327,0.73325 -1.205856,1.26509 -1.287846,1.18186 -0.08198,-0.0833 0.07058,-0.78857 0.339027,-1.56741 0.94226,-2.73377 4.191865,-5.14651 8.412076,-6.24573 2.7499,-0.71626 3.956881,-0.70524 6.407124,0.0584 l 1.984785,0.61865 -2.874746,0.28139 c -1.58111,0.15477 -3.765659,0.5404 -4.854548,0.85694 l -1.979804,0.57554 1.200339,1.72185 c 2.084139,2.98963 9.056276,9.68456 12.34568,11.85482 11.802857,7.78723 26.072025,10.81696 40.744445,8.65114 8.69338,-1.28324 17.63961,-4.75322 25.21405,-9.77976 3.86043,-2.56188 12.87181,-11.02095 12.45645,-11.69302 -0.38258,-0.619 -3.81482,-1.58295 -6.55115,-1.83987 l -2.61651,-0.24568 1.95663,-0.49051 c 2.84102,-0.71222 6.7086,-0.37282 9.18871,0.80635 2.64845,1.25921 5.30492,3.99209 6.21907,6.39792 0.75217,1.97953 0.49158,2.59806 -0.39591,0.93977 -0.63469,-1.18592 -3.12014,-3.40286 -4.87383,-4.34728 l -1.31493,-0.70815 -1.17204,1.45348 c -2.14688,2.66241 -6.98542,7.47866 -9.23185,9.18934 -1.2203,0.92927 -2.48037,2.03644 -2.80014,2.46038 -0.31978,0.42393 -2.31286,3.98655 -4.42909,7.91691 -5.60829,10.41604 -8.30068,14.416 -12.1082,17.98865 -5.31232,4.9846 -12.25775,7.43163 -18.67678,6.58027 z m 7.88158,-2.52651 c 4.55257,-1.35075 8.61219,-4.16439 11.94875,-8.28145 2.40414,-2.96651 3.37389,-4.32157 3.37389,-4.71437 0,-0.48616 -2.70432,-1.02803 -5.14092,-1.03009 -4.02302,-0.003 -8.2602,1.65084 -11.94251,4.66253 -1.63453,1.33685 -2.0918,0.97817 -0.8222,-0.64495 0.94643,-1.20994 0.92668,-1.29089 -0.45677,-1.87112 -1.62617,-0.68203 -6.53231,-0.57233 -9.20943,0.20594 -2.59016,0.75298 -5.81002,2.36039 -7.325867,3.65723 l -1.096265,0.93786 2.375232,2.22739 c 2.77526,2.60251 4.71851,3.81307 7.59993,4.73436 2.7052,0.86497 7.98018,0.9225 10.69616,0.11667 z m -14.40802,-40.51739 c -6.371014,-1.32277 -11.88373,-5.78354 -11.919304,-9.64485 -0.02869,-3.11452 2.792504,-6.79307 6.84167,-8.92085 7.253554,-3.81163 18.290514,-3.99549 25.342144,-0.42216 2.44236,1.23765 4.68479,3.31793 5.49561,5.09827 2.38674,5.24058 -2.45978,11.0942 -11.19443,13.52061 -3.04203,0.84505 -11.26899,1.05345 -14.56569,0.36898 z M 89.70127,147.55114 c 0.401964,-0.40994 1.651393,-1.29636 2.776509,-1.96981 l 2.045667,-1.22446 -1.247119,-1.44271 c -1.850233,-2.1404 -3.669716,-6.13937 -4.48327,-9.85361 -0.985319,-4.49843 -0.998116,-12.13665 -0.02916,-17.41052 2.093245,-11.3933 6.478981,-17.181194 10.849163,-14.31774 2.14853,1.40777 4.40037,6.63301 5.72072,13.2745 1.1436,5.7525 1.1236,17.68972 -0.0382,22.80463 -0.45224,1.99101 -0.908,3.75874 -1.01277,3.92827 -0.10478,0.16954 1.95691,0.30825 4.58153,0.30825 3.5748,0 4.77167,-0.11459 4.77056,-0.45677 -7.2e-4,-0.25123 -0.26839,-2.01895 -0.59464,-3.92828 -1.27851,-7.48244 -0.66555,-21.77366 1.22252,-28.50284 2.37298,-8.45743 7.0302,-11.302196 11.03528,-6.74066 5.70934,6.50259 7.16905,23.19759 2.92757,33.48329 -1.1126,2.69807 -3.93729,6.97007 -5.00307,7.56652 -0.34501,0.19306 -0.54643,0.40448 -0.44761,0.4698 0.0988,0.0653 0.91964,0.49028 1.82405,0.94436 1.64245,0.82462 4.32597,2.87525 3.28879,2.51314 -0.30146,-0.10521 -1.57716,-0.6188 -2.83487,-1.14124 -4.34362,-1.80429 -7.60021,-2.45365 -13.28738,-2.64944 -7.73702,-0.26638 -14.751197,1.09607 -20.602552,4.00186 -1.773406,0.88067 -2.052818,0.94633 -1.461684,0.34346 z m 7.261793,-4.62423 c -0.02568,-0.40196 -0.332069,-1.79431 -0.680951,-3.09412 -0.882492,-3.28782 -0.630939,-10.40121 0.453985,-12.83761 1.865643,-4.18971 4.864103,-4.12635 6.860923,0.14496 l 0.81972,1.75342 0.14358,-1.22989 c 0.079,-0.67644 0.0214,-3.19209 -0.1278,-5.59035 -0.73225,-11.76615 -3.59895,-19.89084 -7.018213,-19.89084 -2.383056,0 -4.509446,3.4372 -6.296836,10.17853 -1.283261,4.83996 -1.663573,16.16302 -0.702223,20.90747 1.073285,5.29688 4.094192,10.74609 5.820766,10.4997 0.51351,-0.0733 0.758001,-0.35617 0.727049,-0.84127 z m 25.991877,-1.37032 c 1.87724,-2.18175 4.03005,-6.81701 4.96421,-10.68856 0.65132,-2.69929 0.79255,-4.36956 0.78794,-9.31824 -0.007,-6.5609 -0.5856,-10.00718 -2.4772,-14.73232 -3.25506,-8.130968 -7.9874,-6.950859 -10.4181,2.59797 -0.91432,3.59183 -1.8101,11.04399 -1.80973,15.05547 l 2.8e-4,3.10832 0.77159,-1.55879 c 0.84216,-1.70136 2.25341,-3.00897 3.24746,-3.00897 1.08817,0 2.47353,1.39965 3.16872,3.20137 1.05487,2.73392 0.95347,10.407 -0.1809,13.69071 -1.24758,3.61138 -0.37623,4.35165 1.94573,1.65304 z"
       id="path1" />
    <g
       id="command_group3"
       inkscape:label="Ink/Stich Instrucción: Trim thread after sewing this object">
      <path
         id="command_connector3"
         d="M 88.608293,-13.716969 103.76639,64.747009"
         style="fill:none;stroke:#000000;stroke-width:1px;stroke-opacity:0.5"
         inkscape:connection-start="#command_use5759"
         inkscape:connection-end="#path1"
         inkscape:label="conector"
         inkscape:connector-type="polyline"
         inkscape:connector-curvature="0" />
      <use
         id="command_use5759"
         xlink:href="#inkstitch_trim"
         height="100%"
         width="100%"
         x="88.6057155575859"
         y="-13.752816414270859"
         inkscape:label="marcador de instrucción" />
    </g>
    <path
       id="path13"
       style="stroke:#000000;stroke-width:1px;fill:none"
       d="M108.93079662584042,214.66907470779722 106.08265163511946,213.96051461431765 103.73515987457272,213.1141044497807 101.50185003638802,211.9946981492583 99.11848464795406,210.47859708461198 97.19552425783543,208.97967363968175 94.91294412160924,206.94415328213802 92.75173186381427,204.8130970305895 91.04741879534178,202.8865560801813 90.28589316121874,202.131799562806 89.0254956804955,201.49740244373928 86.58993221328033,201.1114211594263 83.46751554255411,200.68076331295444 79.7940287651511,199.91900829602037 76.04372710876495,198.94267731640966 72.81825051710416,197.89563946190702 70.14526462239087,196.81723971642356 67.48088328108211,195.57970179499318 64.86354715497738,194.20224747932403 62.313511962499945,192.69681080593745 59.850771834080284,191.0760536406413 57.4954714655524,189.35272161927517 55.26714188271945,187.54000875872023 53.19510855532714,185.66027682946336 49.54533404531322,181.86572602857024 48.10997012223838,180.12062812403602 46.85643848348698,178.3827035434296 45.771596627525966,176.6333303627667 44.84295715020516,174.8626991274042 43.221653682455205,170.81996098379042 42.66678952385225,169.0556045079993 42.399345894921055,167.82161878997493 42.30961014595788,166.54782882336286 42.34510620441187,164.65037839434277 42.61527803404762,161.5328977189551 42.84204178694866,160.5880112916869 43.22861186623809,159.53211252129233 44.469704068656974,156.56182016888593 43.54028078749477,153.57612291966802 42.70952594815991,150.38102949713766 42.09496074997971,146.88935910270837 41.69182539689448,143.14609658168357 41.5067357680283,139.25786406032736 41.543228157729274,135.32885010252213 41.80274462203093,131.46249790830853 42.28406334758988,127.76354530689304 42.98491060214003,124.32798788546238 44.72623742871948,118.26847330090634 46.90686925568316,112.43259848092734 49.55937453255791,106.7424184571259 52.77233377926553,101.02326000732862 56.71877260843931,93.71989638016676 49.26694616065456,95.19318280794938 46.59124447305297,95.61128455949763 43.29293431037148,95.7460139747359 39.94083057927955,95.59943359085354 37.226634880836386,95.18553254354254 35.128817808759976,94.58486403677952 33.03401713415576,93.80060232551844 31.001761129594072,92.85302136036465 29.03635606425445,91.74669566215212 27.1424595219718,90.48579608617062 25.324867030036266,89.07481677408659 23.589065029047426,87.51830429672836 21.940240925401497,85.82091119439121 20.38408893505236,83.98743353185286 18.92635802795195,82.02297609156211 17.572805700165055,79.93253470002144 16.32908487010409,77.72150690371683 15.201113983376942,75.39519699847274 14.194490949422416,72.95905741982975 13.31506348178825,70.41848917999774 12.577439848031247,67.81129176996838 12.241319268147798,66.08159058161074 11.985017392696413,63.91916490633905 11.733732746223026,58.703219128675215 11.871216725925763,53.42180109430585 12.081257000087263,51.17180869401972 12.377140862101975,49.3543131819348 13.742954385386248,44.3674479761018 15.689427604248209,39.25288008632691 18.072065003777503,34.35930942729368 19.344686108178962,32.16736399854602 20.65565010598813,30.17829909258512 22.772897983622023,27.482758703537357 25.42957347249512,24.559070513630672 28.266041963307707,21.78710435641132 30.90733328572734,19.54776306547197 34.052312421067896,17.33547145158272 37.28859201607715,15.446072393307489 40.6098866918641,13.882311087114104 44.021508828525846,12.640000318178139 47.529853761028434,11.716231260340678 51.14229936120955,11.109645955540657 54.86549971799722,10.820219243525358 58.70409030786555,10.849456968917437 61.9135859553423,11.136854851493837 64.9672586702621,11.678310035526962 67.87370257135304,12.473493760128505 70.64559575511286,13.524288299165335 73.29591678098913,14.834590573092214 75.83667588554145,16.410781621446546 78.2783900109566,18.260663915821723 80.62679201393132,20.390429026943636 82.6122037119121,22.523965403166997 84.37978834460127,24.786063966287117 85.93070004956442,27.168186901914112 87.26476649020604,29.661032147461682 88.38109913036959,32.25531319123294 89.27867218822446,34.94178367455683 89.95608240172665,37.711020187172096 90.41127476852526,40.55325854491066 90.64225575458048,43.45857358672589 90.64676727595214,46.41681574614425 90.4225565282403,49.4174715176223 89.96713700598377,52.45007640603012 89.27830827198221,55.50361878650446 88.35349767241259,58.56719026184558 87.19052279397167,61.629792189930896 85.75291409682943,64.75427316958543 84.30152060136818,67.90383473024318 83.8188939969768,70.94199899665249 86.21336548484604,71.57451917528454  M107.74460337415958,219.43712529220278 104.65254836488053,218.66788538568235 101.7942401254273,217.63729555021928 99.07614996361198,216.2749018507417 96.28311535204594,214.49820291538805 94.04667574216457,212.75492636031825 91.55085587839075,210.529246717862 89.18266813618574,208.19410296941052 87.47418120465822,206.26284391981872 87.43024078699426,206.2192940836451 85.86966778671966,205.97197884057368 82.6320844574459,205.52543668704558 78.67557123484892,204.70499170397966 74.66507289123504,203.66092268359031 71.13854948289583,202.516160538093 68.18993537760912,201.32656028357644 65.30051671891786,199.98449820500684 62.46905284502261,198.49435252067596 59.71248803750005,196.86698919406257 57.04782816591972,195.11334635935867 54.4925285344476,193.24367838072484 52.06385811728055,191.26799124127976 49.769891444672865,189.18692317053663 45.871865954686776,185.13427397142976 44.21622987776162,183.121371875964 42.77116151651302,181.1178964565704 41.50260337247403,179.0722696372333 40.375642849794836,176.9235008725958 38.59114631754479,172.47383901620955 37.91241047614775,170.31559549200068 37.52285410507895,168.5181812100251 37.39298985404212,166.67477117663714 37.43569379558813,164.39202160565722 37.75192196595238,160.7431022810449 38.13055821305134,159.1653887083131 38.65258813376192,157.73948747870764 39.247295931343025,156.31617983111406 38.81431921250523,154.92527708033197 37.90467405184009,151.42677050286233 37.22743925002029,147.5790408972916 36.79097460310552,143.52630341831642 36.592264231971704,139.35193593967264 36.631371842270724,135.14134989747785 36.910655377969064,130.98050209169145 37.43453665241012,126.95445469310695 38.20928939785996,123.15661211453762 40.05676257128052,116.72772669909365 42.37193074431684,110.53180151907267 45.18462546744209,104.4979815428741 47.45951214118115,100.44861883907446 47.072355526947035,100.50911544050236 43.28586568962852,100.66378602526409 39.46176942072046,100.49656640914647 36.175765119163614,99.99546745645748 33.58878219124003,99.25473596322047 31.131582865844237,98.33479767448156 28.755238870405925,97.22677863963536 26.466243935745553,95.93830433784788 24.270740478028202,94.47660391382938 22.174332969963736,92.84918322591342 20.182734970952573,91.06329570327165 18.300959074598502,89.12608880560879 16.534111064947638,87.04436646814715 14.887241972048074,84.82502390843794 13.36539429983494,82.47466529997855 11.973315129895916,79.99989309628317 10.71608601662306,77.40700300152726 9.59850905057759,74.70234258017024 8.625736518211745,71.89211082000226 7.793560151968748,68.95070823003164 7.383480731852202,66.84040941838926 7.085582607303579,64.32703509366091 6.817267253776976,58.75758087132479 6.963783274074245,53.12919890569415 7.204742999912739,50.54799130598029 7.569459137898022,48.30768681806522 9.066645614613755,42.841152023898196 11.175572395751786,37.29971991367308 13.732934996222497,32.047290572706316 15.16551389182105,29.57983600145395 16.665549894011868,27.303900907414878 19.017902016377974,24.30904129646265 21.89122652750487,21.146929486369324 24.956158036692294,18.15169564358868 27.899066714272656,15.656636934528029 31.395487578932105,13.197128548417275 34.999007983922844,11.093327606692512 38.7189133081359,9.341888912885898 42.55229117147416,7.945999681821856 46.495346238971564,6.9077687396593195 50.54390063879045,6.227954044459344 54.69350028200278,5.905380756474645 58.94230969213445,5.937743031082566 62.5628140446577,6.261945148506173 66.04674132973791,6.879689964473038 69.39629742864699,7.796106239871498 72.60980424488716,9.014311700834664 75.68528321901087,10.53480942690778 78.62132411445855,12.356218378553452 81.41840998904343,14.475336084178288 84.08180798606867,16.89077097305636 86.3533962880879,19.331834596833 88.38181165539872,21.92773603371289 90.16329995043557,24.66401309808589 91.69543350979394,27.526967852538323 92.9759008696304,30.502686808767034 94.00312781177554,33.577216325443175 94.77611759827336,36.737179812827904 95.29372523147475,39.96914145508934 95.55534424541952,43.25982641327412 95.56043272404786,46.596384253855746 95.3086434717597,49.9661284823777 94.79946299401624,53.356723593969875 94.0326917280178,56.755781213495546 93.00770232758741,60.151209738154414 91.72427720602835,63.5310078100691 90.21558357270354,66.80998289537597 89.04767939863181,69.34436526975682  M65.36315407987483,193.07076582961471 61.61636611143368,199.4173902656876  M42.76068209343512,136.5073172338799 35.39092114487137,136.438867441788  M44.89059917008174,122.14394982027994 37.80719944811122,120.10838842552897  M47.24686666089689,115.0320220007659 40.34300965790444,112.45232816326411  M18.351314938977822,78.81106476583462 11.927756499148149,82.42436779535008  M15.295763314379732,72.38536936823341 8.331141469322711,74.79620000690697  M13.124350038470062,62.04192279086564 5.76280915122247,62.39657413852207  M14.092099751682607,47.74276117269478 6.983802386353172,45.79592518087029  M17.92514441978177,37.4670427865648 11.2987667499253,34.240716580267595  M26.135550963342396,25.60859818626023 20.705793350823065,20.62504583053034  M54.50252067023347,12.080488042574203 53.931323445570165,4.732577077983688  M79.82859670314136,21.335793328480992 85.22395413460063,16.315018487900137  M87.33908633879076,33.0127899825501 94.32932939909611,30.677289228778974  M89.38109505491325,46.87052598112582 96.73068544301732,47.41969165749403  "
       inkstitch:satin_column="true" />
    <path
       id="path14"
       style="stroke:#000000;stroke-width:1px;fill:none"
       d="M87.65045298141399,71.5187400727618 91.39616495508352,70.21121464771882 94.66431916598947,69.15908046631527 98.15649703874566,68.26879109100229 101.85210527456971,67.53586103878754 105.6737528483177,66.97232469427055 109.54463254264131,66.58822642077543 113.38842735403402,66.39291065870366 117.12805583560007,66.3939729434185 120.68833101024359,66.59817705560886 125.80377992908761,67.22036152633599 130.32527145539066,68.1414007879864 134.5261082767486,69.42125421999535 138.79327561609216,71.17556237274962 146.57171331973694,74.2920435197179 143.64539615870996,66.41554307266398 142.0538746542635,62.2688453312619 140.96175901864996,58.380532192844896 140.27267184993315,54.42507372685081 139.9392874271143,50.16004572971195 139.90384805729616,46.40872634392002 140.11604651813616,43.15075068484994 140.60065806247533,40.09075359902265 141.389616785534,36.934357702718486 142.9619156987197,32.50429799829376 145.0185550014018,28.32918258925551 147.52052147756314,24.437580582170366 150.4163469361518,20.887357383737246 153.65231216370682,17.735467628106246 157.2045455849126,15.012926745119424 159.02330328987446,13.86966567137184 160.92399991372517,12.839047524550958 162.8681238718354,11.947217760370151 164.8296073923943,11.206936875855574 168.48136826220937,10.188537012751771 172.2155411843504,9.551803152168084 175.99720117762817,9.28903515740667 179.76731093819134,9.3970103341281 183.46628004256058,9.870789792633719 187.03491089469279,10.703211789302749 190.41467024926587,11.885138134416103 193.58097848328762,13.420758054883288 195.26432718745446,14.448448559220854 196.90198920545123,15.609253916403272 200.1323194790442,18.402663607478374 203.11285911081112,21.668838287289606 205.83584733634578,25.39062499808369 208.26281684444993,29.52071095440973 210.3571733000602,34.00995589193969 212.08340240546104,38.808667723608025 213.4053971623145,43.85767777779629 213.68711834716603,45.60361248047165 213.89694282544733,47.846883005625955 214.07303239128075,53.2451804134141 213.90184946866543,58.62475685887253 213.69449593761072,60.84284240326491 213.41483261256587,62.558134715053754 212.40882409631868,66.40633293743079 211.12488736748938,70.04208377185478 209.5763924129871,73.4398054653789 207.77169352742035,76.5920592277349 205.71830109503145,79.49230509417305 203.42261567761219,82.13434692318813 200.8895590074972,84.51214150540217 198.1211665152303,86.62056683658555 195.41957095082984,88.27507976261006 192.5261648316939,89.66496647582268 189.34922482281064,90.82588506200622 185.87537351454657,91.7663964518142 183.234564557639,92.10603442579642 179.724041794028,92.18704214715869 176.17971358984,92.00377334119685 173.35054482678404,91.56953972472516 171.30650884749818,91.13568802862672 166.3295248601164,90.81032407216253 168.22478838105616,95.56747446683353 169.50706871160443,97.7858588737849 172.37197225444294,102.93558097117942 174.8101223224036,108.40989421188259 176.83564250584718,114.16884963081253 178.41540689802642,120.08062343439404 179.5191078016237,126.01230133549676 180.11915394954067,131.83012328573142 180.1921960672442,137.4320774067757 180.02679349348196,140.05018268788055 179.72259630956546,142.57576401775069 178.7286779408758,147.7714022756999 177.2696495339344,151.9763274185555 176.5022108380712,153.72928798222352 175.9705748930047,154.6523687592023 175.47319040892677,155.3623345177368 175.17118168542905,156.8321573472831 175.6973143235252,158.88804570748016 176.45561769677855,161.74137905805736 176.77935234704236,164.43627045904805 176.72133133824775,167.1418770419366 176.28310012216383,169.85432951911736 175.46205152454496,172.56669172622009 174.25330826145472,175.2682147699285 172.65181681323605,177.9440328028048 170.63909259750446,180.59501757143065 168.21209797584723,183.2980054810504 165.7618242951019,185.64012184841957 163.04119015717902,187.84000367455755 159.80229914402398,190.10921161070303 154.9754869520259,193.00806989337795 149.68861451488095,195.65334917415558 144.26538023144545,197.8967441367479 138.99742944685696,199.60282082944093 135.4486245030591,200.57141095349704 130.70094905096104,205.2239245930464 126.60272804223686,208.8966111612173 124.76235327873414,210.2725690824107 122.94612116982806,211.43087241746457 121.13483282369384,212.38452117645878 119.2775114570995,213.16513581673811 117.32002928015109,213.79977291210383 115.2252512352942,214.30699846381222 113.39066473656662,214.60518119391966 111.55959951552346,214.75991018410164 109.95669927879521,214.76459982016294 108.47708182995952,214.59640706 108.3377,214.59640706  M86.03114701858601,66.87985992723819 89.83343504491648,65.55258535228118 93.30328083401054,64.43551953368474 97.0709029612542,63.47500890899775 101.01529472543056,62.6927389612124 105.07244715168213,62.09447530572946 109.17716745735883,61.68717357922455 113.26437264596585,61.47948934129634 117.26954416440006,61.48062705658151 121.12606898975652,61.70182294439117 126.5920200709124,62.366638473664 131.53432854460934,63.37339921201361 136.17989172325142,64.78874578000466 138.05387339929175,65.55917287389393 137.38512534573653,63.8167546687381 136.16404098135007,59.469267807155106 135.39232815006687,55.03952627314919 135.0277125728857,50.37495427028804 134.98895194270386,46.27207365607998 135.22775348186383,42.60564931515006 135.78154193752468,39.108846400977356 136.68018321446598,35.51364229728151 138.42748430128034,30.590502001706227 140.73444499859818,25.907217410744494 143.53767852243686,21.54701941782963 146.78665306384818,17.563842616262747 150.43248783629315,14.012732371893748 154.3966544150874,10.974473254880579 156.54229671012556,9.62573432862817 158.72620008627482,8.441552475449043 160.9740761281646,7.410382239629854 163.2991926076057,6.532863124144427 167.40563173779063,5.387662987248234 171.63085881564962,4.667196847831917 175.89699882237184,4.370764842593331 180.15068906180866,4.492589665871904 184.33871995743942,5.029010207366284 188.4078891053072,5.978188210697255 192.3039297507341,7.340661865583897 195.9386215167124,9.103441945116714 197.96827281254554,10.342551440779147 199.93661079454876,11.737746083596733 203.56588052095577,14.87613639252163 206.92134088918888,18.55316171271039 209.94695266365423,22.688575001916305 212.61698315555006,27.232289045590278 214.9046266999398,32.1358441080603 216.78099759453895,37.35193227639198 218.21840283768552,42.841722222203714 218.56388165283394,44.98278751952836 218.80285717455266,47.53771699437405 218.98896760871926,53.243219586585894 218.80795053133454,58.93184314112747 218.57090406238927,61.46755759673509 218.22696738743412,63.577065284946244 217.11037590368133,67.8482670625692 215.68571263251064,71.88251622814522 213.9532075870129,75.68399453462109 211.91830647257964,79.2383407722651 209.58729890496858,82.53069490582695 206.9675843223878,85.54565307681187 204.0678409925028,88.26765849459782 200.89983348476972,90.68043316341443 197.77242904917017,92.59572023738994 194.4376351683061,94.1976335241773 190.83717517718935,95.51331493799378 186.83522648545343,96.5968035481858 183.60563544236098,97.01216557420358 179.65375820597197,97.10335785284131 175.67888641016,96.89782665880315 174.53817657789426,96.72274535496656 176.77162774555705,100.73741902882058 179.37927767759638,106.5923057881174 181.5335574941528,112.71735036918747 183.21119310197358,118.99537656560595 184.38609219837628,125.30969866450324 185.0292460504593,131.5454767142686 185.1076039327558,137.55512259322427 184.92160650651803,140.49921731211944 184.58040369043454,143.33203598224932 183.48752205912422,149.04499772430012 181.8481504660656,153.76967258144447 180.8947891619288,155.94731201777648 180.28667763973453,157.00317752424937 180.4516856764748,157.64795429251984 181.29278230322146,160.81282094194262 181.69904765295766,164.19472954095193 181.62626866175225,167.58852295806338 181.08109987783615,170.96287048088266 180.07434847545505,174.2887082737799 178.6190917385453,177.54118523007148 176.72878318676396,180.6995671971952 174.43010740249557,183.72718242856936 171.74270202415272,186.7201945189496 169.00957570489814,189.33267815158047 165.999009842821,191.76699632544248 162.48010085597602,194.232388389297 157.3431130479741,197.31753010662206 151.72958548511906,200.12625082584444 145.96401976855455,202.5112558632521 140.40197055314306,204.31257917055905 137.9749754969409,204.97498904650297 134.06165094903898,208.80987540695358 129.71947195776315,212.7011888387827 127.55824672126587,214.3170309175893 125.41587883017193,215.6833275825354 123.23516717630616,216.83147882354123 120.9900885429005,217.7750641832619 118.65777071984891,218.53122708789618 116.19894876470582,219.1266015361878 113.99253526343337,219.48521880608033 111.77400048447653,219.67268981589834 109.68550072120479,219.67880017983705 108.06042694306899,219.49407294211207  M104.82839728587257,68.33860931536081 103.75323914709733,61.04737507213163  M141.12723433978076,46.61131084804816 133.76707343182002,46.22908941754062  M147.23797074714878,27.14845091010821 141.03858019124493,23.162774236269428  M165.88758344314962,12.187108064895451 163.9077695361435,5.087925104396575  M182.28667854425532,10.958082827268653 183.2230197586499,3.6477253159537226  M196.74127071257408,17.09419340441766 201.56203749490982,11.519404669107505  M211.6135154348217,41.863548562468495 218.7432512851579,39.99675223789431  M212.81237541079744,54.24102850760579 220.17872570474626,54.47543234685061  M211.08326585133338,66.47108980650776 218.03274057150352,68.92524198734924  M202.91015775382624,80.85134228513279 208.47347609597068,85.68534175110004  M189.4194366938277,89.49243890388455 191.94901414719922,96.41481564315602  M176.21024447077815,116.58648715980254 183.33048423705606,114.68379236459046  M178.6236070255043,129.30262593032137 185.95479544256128,128.54649220760916  M154.56623917628573,191.8254092660304 158.07094496593473,198.30885735643827  M116.41434135394651,212.75523137263144 118.14879608181683,219.91831231660944  "
       inkstitch:satin_column="true" />
    <path
       style="fill:#ffffff;stroke-width:0.0700608;stroke-linejoin:bevel;stroke-miterlimit:0"
       d="m 95.861942,143.70032 c -0.354349,-0.10778 -0.628399,-0.30022 -1.082073,-0.75982 -1.798435,-1.82194 -3.886471,-6.70801 -4.468084,-10.45547 -0.695392,-4.48056 -0.443639,-13.59387 0.515499,-18.66077 0.315609,-1.66729 1.078549,-4.22242 1.831394,-6.13346 1.215387,-3.08515 2.570701,-4.88364 4.040343,-5.3615 0.539672,-0.17547 1.223363,-0.11331 1.762999,0.16029 0.52914,0.26828 1.33774,1.06603 1.81351,1.78916 1.68263,2.55747 3.03064,7.42137 3.7375,13.48573 0.4256,3.65131 0.65744,8.3647 0.49472,10.05776 -0.0455,0.47344 -0.10102,0.86023 -0.12337,0.85954 -0.0223,-7e-4 -0.27247,-0.50059 -0.55581,-1.11089 -0.88474,-1.90562 -1.68,-2.9221 -2.66828,-3.41054 -1.330915,-0.65777 -2.618665,-0.14542 -3.728373,1.48339 -0.321591,0.47203 -0.826941,1.52519 -0.975004,2.03193 -0.462085,1.58147 -0.722697,4.00561 -0.723891,6.73342 -0.0011,2.42408 0.160404,3.94515 0.616733,5.80992 0.448478,1.83269 0.55247,2.34472 0.55247,2.72019 0,0.42484 -0.155826,0.65682 -0.50664,0.75426 -0.271888,0.0755 -0.306514,0.076 -0.533643,0.007 z"
       id="path4" />
    <g
       id="command_group11"
       inkscape:label="Ink/Stich Instrucción: Trim thread after sewing this object">
      <path
         id="command_connector11"
         d="m 85.527521,74.556057 7.693492,31.820403"
         style="fill:none;stroke:#000000;stroke-width:1px;stroke-opacity:0.5"
         inkscape:connection-start="#command_use998"
         inkscape:connection-end="#path4"
         inkscape:label="conector"
         inkscape:connector-type="polyline"
         inkscape:connector-curvature="0" />
      <use
         id="command_use998"
         xlink:href="#inkstitch_trim"
         height="100%"
         width="100%"
         x="85.52494384138954"
         y="74.52021377735706"
         inkscape:label="marcador de instrucción" />
    </g>
    <path
       style="fill:#ffffff;stroke-width:0.0700608;stroke-linejoin:bevel;stroke-miterlimit:0"
       d="m 120.65522,143.01818 c -0.1407,-0.1407 -0.1611,-0.21855 -0.1611,-0.61475 0,-0.56416 0.10662,-1.07062 0.48725,-2.3144 0.67813,-2.21595 0.94239,-4.39552 0.94162,-7.76647 -8.9e-4,-3.92857 -0.36576,-5.86753 -1.40437,-7.46307 -0.74182,-1.1396 -1.7087,-1.86104 -2.49418,-1.86104 -0.56515,0 -1.13183,0.31071 -1.82459,1.00044 -0.68558,0.68257 -0.98682,1.11963 -1.63786,2.37635 l -0.50535,0.97547 0.027,-2.85962 c 0.0285,-3.01769 0.10786,-4.25771 0.46823,-7.31154 0.43353,-3.67377 0.927,-6.48184 1.49044,-8.48138 0.94301,-3.34654 2.20992,-5.6715 3.63646,-6.67346 1.30547,-0.91691 2.66206,-0.72758 3.9529,0.55168 1.22727,1.21627 2.3522,3.3716 3.38899,6.49319 1.23593,3.72119 1.66067,7.02548 1.66067,12.91934 0,3.3688 -0.13977,5.60051 -0.45793,7.31153 -0.87497,4.70546 -3.36159,10.21425 -5.7162,12.66355 -0.71248,0.74114 -1.1652,1.09273 -1.51074,1.1733 -0.13974,0.0326 -0.2162,0.006 -0.34121,-0.11912 z"
       id="path5" />
    <g
       id="command_group12"
       inkscape:label="Ink/Stich Instrucción: Trim thread after sewing this object">
      <path
         id="command_connector12"
         d="m 111.4317,73.07359 6.31539,31.28572"
         style="fill:none;stroke:#000000;stroke-width:1px;stroke-opacity:0.5"
         inkscape:connection-start="#command_use8891"
         inkscape:connection-end="#path5"
         inkscape:label="conector"
         inkscape:connector-type="polyline"
         inkscape:connector-curvature="0" />
      <use
         id="command_use8891"
         xlink:href="#inkstitch_trim"
         height="100%"
         width="100%"
         x="111.42911971052882"
         y="73.03774228927136"
         inkscape:label="marcador de instrucción" />
    </g>
  </g>
</svg>
