<?xml version="1.0" encoding="UTF-8" standalone="no"?>
<!-- Created with Inkscape (http://www.inkscape.org/) -->

<svg
   version="1.1"
   id="svg1"
   width="69.999474mm"
   height="41.456001mm"
   viewBox="0 0 264.56494 156.68409"
   sodipodi:docname="nube-nombres.svg"
   inkscape:version="1.3.2 (1:1.3.2+202311252150+091e20ef0f)"
   xmlns:inkscape="http://www.inkscape.org/namespaces/inkscape"
   xmlns:sodipodi="http://sodipodi.sourceforge.net/DTD/sodipodi-0.dtd"
   xmlns="http://www.w3.org/2000/svg"
   xmlns:svg="http://www.w3.org/2000/svg"
   xmlns:inkstitch="http://inkstitch.org/namespace">
  <sodipodi:namedview
     id="namedview1"
     pagecolor="#ffffff"
     bordercolor="#666666"
     borderopacity="1.0"
     inkscape:showpageshadow="2"
     inkscape:pageopacity="0.0"
     inkscape:pagecheckerboard="0"
     inkscape:deskcolor="#d1d1d1"
     inkscape:zoom="2"
     inkscape:cx="82"
     inkscape:cy="78.5"
     inkscape:window-width="1848"
     inkscape:window-height="1016"
     inkscape:window-x="72"
     inkscape:window-y="27"
     inkscape:window-maximized="1"
     inkscape:current-layer="g1"
     inkscape:document-units="mm" />
  <metadata
     id="metadata1">
    <inkstitch:min_stitch_len_mm>0</inkstitch:min_stitch_len_mm>
    <inkstitch:collapse_len_mm>3</inkstitch:collapse_len_mm>
    <inkstitch:inkstitch_svg_version>1</inkstitch:inkstitch_svg_version>
  </metadata>
  <defs
     id="defs1" />
  <g
     inkscape:groupmode="layer"
     inkscape:label="Image"
     id="g1">
    <path
       id="path1"
       style="fill:none;stroke:#000000;stroke-width:1.16333px"
       d="m 88.608081,139.99776 -5.022226,-1.19787 -4.744112,-1.68378 -4.529506,-2.14298 -4.194256,-2.52438 -3.739924,-2.82064 -3.169245,-3.02272 -2.53582,-3.17458 -0.931306,-1.50642 -0.836143,-1.68304 -1.036137,-2.09741 -1.819869,-1.95903 -2.639198,-0.581 -2.255954,0.33523 -4.658117,0.85722 -3.444912,0.26825 -3.144095,-0.23934 -3.673565,-0.77711 -2.751244,-0.80566 -2.642896,-0.97548 -2.512943,-1.13096 -2.374071,-1.27589 -2.226225,-1.40968 -2.069634,-1.53263 -1.904642,-1.64416 -1.731201,-1.74417 -1.550106,-1.83288 -1.36176,-1.91036 -1.166944,-1.976734 -0.966081,-2.032431 -0.759641,-2.079003 -0.548285,-2.117283 -0.331519,-2.148707 -0.109796,-2.194035 0.140531,-3.242669 0.401532,-3.157022 0.649665,-3.041757 0.885788,-2.913785 1.109823,-2.773335 1.321895,-2.620223 1.52187,-2.45479 1.709963,-2.276853 1.886262,-2.086899 2.050917,-1.885379 2.204464,-1.672322 2.347556,-1.447977 2.481143,-1.212829 2.605835,-0.966402 2.723086,-0.708244 2.836844,-0.438248 1.984777,-0.10798 2.173426,0.04708 1.996007,0.186352 1.607937,0.310624 2.384261,0.576159 1.550028,0.07124 1.685997,-0.462705 1.352399,-1.035722 0.902665,-1.190157 1.258879,-2.321032 1.596366,-2.508297 1.976681,-2.151844 2.420699,-1.917425 2.803582,-1.629663 3.115781,-1.291489 3.353053,-0.909146 3.513405,-0.48801 3.7081,-0.03411 8.874257,0.501405 2.869297,-5.905776 1.111831,-1.867162 1.809235,-2.518193 2.259478,-2.820146 2.400818,-2.714672 3.134585,-3.134034 2.969194,-2.461069 3.2543,-2.142676 4.01779,-2.152723 4.50612,-2.122794 3.29583,-1.134195 3.59807,-0.588808 5.42622,-0.352997 4.34815,-0.108318 4.09244,0.08797 3.54454,0.266465 2.6961,0.415092 2.84995,0.763103 3.24382,1.133793 3.46146,1.435722 3.52091,1.665203 3.43019,1.82145 3.19082,1.900752 2.79785,1.895321 2.32244,1.85036 6.18478,5.466049 6.9137,-1.79331 3.67812,-0.793786 m -96.178605,118.196646 -5.357942,-1.27793 -5.376166,-1.90811 -5.115203,-2.42008 -4.759202,-2.8644 -4.306834,-3.24822 -3.7549,-3.58128 -3.050493,-3.8189 -1.292749,-2.09106 -0.972371,-1.95726 -0.431458,-0.87338 -0.481871,0.0717 -4.879799,0.89801 -4.275648,0.33296 -4.065995,-0.30952 -4.333407,-0.9167 -3.200589,-0.93724 -3.060681,-1.12969 -2.923534,-1.31575 -2.776463,-1.4922 -2.619512,-1.65871 -2.452465,-1.81614 -2.275205,-1.96403 -2.087316,-2.10296 -1.888467,-2.23296 L 9.6955544,105.30432 8.2405841,102.83969 7.020999,100.27394 6.0505356,97.61795 5.3426568,94.884377 4.9110309,92.086836 4.7695498,89.259702 l 0.1651933,-3.811768 0.4695703,-3.69197 0.7633158,-3.573872 1.0455735,-3.439396 1.3161859,-3.289014 1.5752634,-3.122442 1.822706,-2.94004 2.058764,-2.74129 2.282881,-2.525707 2.494914,-2.293538 2.694787,-2.044286 2.881383,-1.777241 3.053985,-1.492846 3.211749,-1.191111 3.353688,-0.872257 3.475154,-0.536856 2.54849,-0.138647 2.649045,0.05739 2.539587,0.237101 2.064232,0.398775 1.308508,0.316201 0.893222,-1.64686 2.023222,-3.178994 2.707353,-2.947267 3.183763,-2.521845 3.577054,-2.079267 3.896776,-1.615209 4.147638,-1.124589 4.330934,-0.601566 4.335866,-0.03988 4.797204,0.271047 1.111853,-2.288492 1.393751,-2.340605 2.069774,-2.880825 2.463412,-3.074683 2.635939,-2.98053 3.487326,-3.486713 3.473796,-2.879317 3.794092,-2.498083 4.42171,-2.369142 4.97455,-2.3434662 4.1453,-1.4265285 4.44775,-0.7278495 5.86833,-0.3817611 4.62695,-0.1152686 4.41476,0.094902 3.96685,0.2982147 3.29133,0.5067316 3.42203,0.9162817 3.6445,1.2738365 3.77585,1.5661364 3.79784,1.79617 3.70219,1.96589 3.4881,2.077838 3.15979,2.140506 2.64638,2.108454 3.73773,3.30337 3.72194,-0.965412 3.80814,-0.821847 M 77.58203,134.73621 l -4.137768,8.74582 m -44.7582,-31.98346 -4.58019,8.52246 m -2.61776,-13.37894 -6.322246,7.32391 M 13.808039,95.355795 4.7204277,98.676294 M 13.150704,84.753653 3.552776,83.532922 m 26.373243,-23.279869 -4.248974,-8.69233 m 37.587598,-5.179762 -4.862251,-8.364743 m 37.62209,-8.531995 -7.247551,-6.409633 m 13.603479,0.02791 -6.17429,-7.449064 m 13.54046,2.681072 -4.56941,-8.5282388 m 24.246,3.8161818 -0.24096,-9.6722462 m 23.23511,14.4482332 4.13657,-8.7463819"
       inkstitch:satin_column="true" />
    <path
       id="path2"
       style="fill:none;stroke:#000000;stroke-width:1.16333px"
       d="m 183.02613,28.12087 3.59349,-0.467721 3.42511,-0.157451 3.37486,0.127835 3.31009,0.40564 3.23079,0.676008 3.13646,0.939135 3.02754,1.195142 2.90376,1.444001 2.76528,1.68595 2.61207,1.921047 2.44442,2.149815 2.26222,2.372284 2.06571,2.589154 1.85453,2.800655 1.62823,3.006971 2.23867,5.184362 0.60428,1.79719 0.24227,1.235863 0.51963,1.95728 1.76158,1.984161 2.29549,1.53725 2.89939,1.49549 2.614,1.399845 2.44954,1.595964 2.35123,1.815613 2.2087,1.996392 2.02355,2.135453 1.79728,2.231035 1.53217,2.280152 1.22515,2.267797 1.0798,2.729449 0.77173,2.946815 0.46002,3.110791 0.14051,3.191433 -0.1811,3.187795 -0.4994,3.100178 -0.80853,2.929117 -1.11977,2.72077 -1.07547,1.97293 -1.27069,1.92891 -1.44098,1.84308 -1.60349,1.74704 -1.75771,1.64101 -1.90334,1.52453 -2.04027,1.39812 -2.1309,1.24 -2.18976,0.9964 -2.40896,0.55682 -4.0018,0.292 -6.65476,0.0902 -14.15128,0.0453 -4.64006,6.64164 -1.66103,2.21468 -1.7181,1.97997 -1.81603,1.79949 -1.92598,1.63171 -2.04992,1.47589 -2.18874,1.33066 -2.34263,1.19357 -2.4947,1.05599 -1.9035,0.63853 -2.02543,0.50854 -4.6561,0.69515 -5.0119,0.1993 -5.20443,-0.28419 -5.17899,-0.75166 -4.93771,-1.19331 -4.53235,-1.6158 -1.95771,-0.91267 -1.94177,-1.0856 -1.77387,-0.9618 -1.99716,-0.6401 -2.15993,0.0236 -1.46515,0.5682 -0.9782,0.31314 -1.55067,0.17497 -2.21866,0.0296 -2.5079,-0.13357 -5.22802,-0.72698 -2.04666,-0.50549 -1.60621,-0.60223 -2.21945,-1.0114 -1.34641,-0.38965 -1.57562,-0.0508 -1.52556,0.48994 -1.19426,0.79484 -1.66677,1.57609 -2.40906,1.98812 -2.84611,1.65722 -3.35251,1.39412 -3.74519,1.07672 -4.02199,0.71929 -4.18345,0.33066 -3.625728,-0.0705 -0.605253,-0.0117 -4.346145,-0.5358 m 93.939156,-118.209451 3.86067,-0.502496 3.96437,-0.182241 3.9162,0.148339 3.84951,0.471744 3.76454,0.787695 3.66112,1.096228 3.53946,1.397224 3.3994,1.690477 3.241,1.975982 3.06405,2.253449 2.86851,2.522819 2.65425,2.783365 2.42148,3.035084 2.17014,3.277282 1.90061,3.510008 2.45863,5.69371 0.82452,2.452225 0.28262,1.441658 0.0718,0.270498 0.19583,0.220584 1.30387,0.87317 2.61689,1.349785 2.90204,1.554084 2.89807,1.888211 2.75346,2.126217 2.5791,2.331197 2.37361,2.504841 2.13501,2.650301 1.86126,2.769866 1.55498,2.878313 1.3639,3.447603 0.95977,3.664859 0.56021,3.788225 0.16941,3.847881 -0.2184,3.844306 -0.60855,3.777666 -1.00673,3.647182 -1.40209,3.40674 -1.37219,2.51728 -1.56271,2.37216 -1.75911,2.24998 -1.9442,2.11825 -2.11828,1.97764 -2.28186,1.82773 -2.43506,1.66865 -2.61549,1.52198 -3.07222,1.39797 -3.52496,0.81475 -4.68991,0.34224 -6.87942,0.0932 -10.83567,0.0345 -2.78432,3.98539 -1.86409,2.48541 -2.02782,2.33691 -2.16722,2.14746 -2.31203,1.95879 -2.46009,1.7712 -2.60999,1.58674 -2.76184,1.40717 -2.93316,1.24159 -2.37593,0.79702 -2.57461,0.64641 -5.31457,0.79345 -5.66586,0.22532 -5.79695,-0.31656 -5.76213,-0.83628 -5.55995,-1.34368 -5.13773,-1.83162 -2.44712,-1.14084 -2.11243,-1.18103 -1.20635,-0.65407 -0.3982,-0.12763 -0.52912,0.2052 -1.77145,0.56704 -2.50307,0.28245 -2.75295,0.0368 -2.99605,-0.15959 -5.832,-0.81094 -2.73789,-0.67622 -2.1667,-0.81238 -1.67492,-0.76326 -1.10714,1.0469 -2.98251,2.46139 -3.67227,2.13826 -4.09001,1.7008 -4.41884,1.27042 -4.66087,0.83352 -4.815379,0.38061 -4.881387,-0.0948 -7.507355,-0.92552 v -2.85203 M 191.68461,29.171466 l 0.36621,-9.668313 m 20.02781,16.677611 5.7323,-7.794299 m 1.96777,15.438747 7.83433,-5.677489 m 13.82904,31.779424 5.91336,-7.657843 m 4.83817,27.889089 9.66589,-0.425549 m -14.77382,17.537486 7.62218,5.95926 m -27.8164,3.97262 0.13106,9.67436 m -28.92301,3.10109 6.81005,6.87268 m -13.07111,-2.26325 4.39232,8.62078 m -14.56715,-5.12233 1.42865,9.56919 m -15.44815,-9.48418 -1.38967,9.57492 m -28.59636,-15.44963 -0.5146,9.66156 m -34.72285,-3.62549 1.70326,9.52415"
       inkstitch:satin_column="true" />
  </g>
</svg>
