<?xml version="1.0" encoding="UTF-8" standalone="no"?>
<!-- Created with Inkscape (http://www.inkscape.org/) -->

<svg
   version="1.1"
   id="svg1"
   width="50.000629mm"
   height="19.900999mm"
   viewBox="0 0 188.97876 75.216372"
   sodipodi:docname="Ojos.svg"
   inkscape:version="1.3.2 (1:1.3.2+202311252150+091e20ef0f)"
   xmlns:inkscape="http://www.inkscape.org/namespaces/inkscape"
   xmlns:sodipodi="http://sodipodi.sourceforge.net/DTD/sodipodi-0.dtd"
   xmlns="http://www.w3.org/2000/svg"
   xmlns:svg="http://www.w3.org/2000/svg">
  <defs
     id="defs1" />
  <sodipodi:namedview
     id="namedview1"
     pagecolor="#ff00dd"
     bordercolor="#666666"
     borderopacity="1.0"
     inkscape:showpageshadow="2"
     inkscape:pageopacity="0.0"
     inkscape:pagecheckerboard="0"
     inkscape:deskcolor="#d1d1d1"
     inkscape:zoom="3.4971427"
     inkscape:cx="86.785135"
     inkscape:cy="46.037584"
     inkscape:window-width="1848"
     inkscape:window-height="1016"
     inkscape:window-x="72"
     inkscape:window-y="27"
     inkscape:window-maximized="1"
     inkscape:current-layer="g1"
     inkscape:document-units="mm" />
  <g
     inkscape:groupmode="layer"
     inkscape:label="Image"
     id="g1"
     transform="translate(-116.32466,-709.61176)">
    <path
       style="fill:#000000;stroke-width:0.162003"
       d="m 166.39846,782.77575 c -5.41666,-0.7758 -12.00673,-2.74628 -16.68018,-4.9875 l -2.58247,-1.23846 -1.62376,-2.75876 c -4.12119,-7.00193 -6.82706,-14.10678 -8.19165,-21.509 -0.30243,-1.64053 -0.70343,-3.76571 -0.8911,-4.72262 -0.22413,-1.14282 -0.34928,-3.02706 -0.36471,-5.49108 -0.0129,-2.06318 -0.0322,-3.75137 -0.0428,-3.75153 -0.0106,-1.5e-4 -0.77427,0.19545 -1.697,0.43468 -0.92272,0.23923 -2.12467,0.43496 -2.67099,0.43496 -1.26184,0 -3.1571,-0.49805 -4.47876,-1.17696 -1.28048,-0.65777 -3.15799,-2.14676 -3.48291,-2.7622 -0.27989,-0.53015 -0.19409,-0.49361 1.16185,0.49485 1.94272,1.41622 4.75688,1.9788 6.99323,1.39802 2.41018,-0.62592 4.79648,-2.24758 5.06949,-3.44508 l 0.13635,-0.59806 -2.32956,-0.004 c -3.84919,-0.006 -6.67749,-0.87772 -9.25787,-2.85263 -2.10985,-1.61478 -3.91378,-4.6419 -4.7763,-8.01499 -0.48384,-1.89217 -0.48707,-3.11445 -0.004,-1.63369 0.60116,1.84395 2.03264,4.28128 3.38246,5.75918 3.15723,3.45683 7.52548,4.29247 12.94573,2.47651 1.19115,-0.39907 1.85033,-0.74812 2.07798,-1.10031 0.18338,-0.2837 0.2962,-0.54509 0.25072,-0.58086 -0.0455,-0.0358 -0.75666,-0.24544 -1.5804,-0.46592 -3.59812,-0.96309 -6.46036,-3.06437 -7.6195,-5.59377 -0.7945,-1.73367 -1.38363,-5.17064 -0.88631,-5.17064 0.10291,0 0.24578,0.37188 0.31747,0.82639 0.20191,1.27993 1.34929,3.40209 2.32009,4.29118 1.82512,1.67148 4.61586,2.43941 7.98426,2.19704 1.91286,-0.13764 1.93616,-0.14631 2.56602,-0.95389 1.40823,-1.80562 4.45743,-4.61461 6.52059,-6.00694 8.4971,-5.73427 18.43654,-6.20371 26.33961,-1.24403 3.29713,2.06916 5.39911,4.21615 8.00442,8.17582 5.96988,9.07329 8.88741,20.52514 9.39235,36.86657 0.13301,4.30478 -0.1254,12.01251 -0.52039,15.52198 l -0.14415,1.28084 -1.50179,1.04795 c -3.0737,2.14482 -6.63649,3.65668 -10.72698,4.55192 -2.85505,0.62486 -10.03463,0.78807 -13.40873,0.3048 z m 7.61616,-0.95327 c 0.58998,-0.0932 0.85243,-0.18246 0.58322,-0.19843 -0.26922,-0.016 -1.08983,-0.23142 -1.82359,-0.47873 -4.36983,-1.47288 -8.58701,-5.716 -11.32452,-11.39419 -2.38594,-4.94895 -3.39195,-9.14598 -3.57298,-14.90615 -0.18125,-5.76782 0.64016,-10.12816 2.73013,-14.49241 2.37892,-4.96764 6.00155,-8.10136 10.24406,-8.86152 0.79605,-0.14264 1.78526,-0.47549 2.19825,-0.73968 1.59457,-1.02003 3.76494,-0.91868 6.1741,0.28831 3.05266,1.52938 6.35014,5.57802 7.67262,9.4204 0.31467,0.91429 0.90425,2.42647 1.31017,3.36042 0.40591,0.93394 1.0765,2.69553 1.49019,3.91463 0.80948,2.38546 0.81335,2.26315 0.0745,-2.35052 -0.49882,-3.1147 -1.83462,-8.65352 -2.55532,-10.59551 -0.37599,-1.01314 -0.78753,-1.55146 -2.2186,-2.90207 -4.3214,-4.07845 -8.85037,-5.97944 -13.54913,-5.68711 -3.94011,0.24512 -6.98908,1.70203 -10.11021,4.83103 -2.23738,2.24302 -3.40093,3.90071 -4.71348,6.71521 -5.3674,11.50937 -3.89342,27.12417 3.60014,38.13846 1.36358,2.00423 4.54757,5.45315 5.18219,5.61338 1.52467,0.38496 6.93392,0.58884 8.6083,0.32448 z m -12.05935,-2.27113 c -7.60017,-8.2497 -11.14256,-22.45776 -8.64102,-34.65792 2.09312,-10.20826 8.12494,-17.60461 15.74378,-19.30536 2.23916,-0.49985 5.81192,-0.3503 7.96014,0.33318 2.25823,0.71849 4.97109,2.22297 7.03431,3.90105 2.00378,1.62973 2.02219,1.60867 0.78107,-0.8937 -3.4024,-6.86 -9.5897,-11.65639 -16.64567,-12.90371 -10.10389,-1.78612 -20.82305,4.48053 -26.15314,15.28968 -3.05038,6.18599 -4.47836,15.68843 -3.29745,21.94265 1.16156,6.15175 3.65644,13.17677 7.2909,20.52965 1.2065,2.44084 1.28053,2.53691 2.29623,2.97984 2.92463,1.27538 9.50696,3.28881 13.89051,4.2489 1.22737,0.2688 1.20124,0.12149 -0.25966,-1.46426 z m 22.55605,-0.01 c 1.59969,-0.67128 4.785,-2.46389 5.74597,-3.2337 0.42541,-0.34079 0.82151,-4.32699 0.80142,-8.06523 l -0.0118,-2.19758 -0.41968,1.625 c -1.30601,5.05701 -3.87542,9.40356 -6.88759,11.65137 -0.71384,0.53271 -1.23354,0.96855 -1.15488,0.96855 0.0787,0 0.94561,-0.33679 1.92657,-0.74841 z m -9.9756,-20.94557 c 2.02926,-1.04893 2.32255,-4.02774 0.53281,-5.41156 -1.46699,-1.13426 -3.60478,-0.83362 -4.65168,0.65416 -0.66648,0.94716 -0.66777,2.80327 -0.002,3.74856 0.92466,1.31405 2.6934,1.747 4.12146,1.00884 z m 10.79384,-8.15174 c 0.41944,-0.32431 0.98973,-1.05718 1.2673,-1.6286 0.43895,-0.90363 0.5038,-1.35051 0.4979,-3.43122 -0.006,-2.10739 -0.0855,-2.61744 -0.66754,-4.28302 -0.91009,-2.60413 -2.40632,-4.96391 -4.46624,-7.04392 -4.07274,-4.11249 -8.21048,-4.47239 -10.03105,-0.87252 -0.5691,1.12533 -0.74555,3.56367 -0.39089,5.40205 1.00394,5.20409 4.89483,10.40418 9.12631,12.19712 0.58996,0.24997 1.33373,0.34582 2.37987,0.30668 1.2739,-0.0476 1.6459,-0.15294 2.28434,-0.64657 z m 54.42611,32.34018 c -5.03639,-0.79593 -9.3424,-2.5228 -13.0942,-5.25126 -0.97069,-0.70593 -0.99042,-0.74438 -1.12258,-2.18872 -1.09499,-11.96632 -0.46436,-24.74936 1.70872,-34.63583 2.08779,-9.49846 7.05889,-19.07228 12.2016,-23.49899 8.24524,-7.0973 19.67469,-7.46343 29.3413,-0.93992 2.06316,1.39233 5.11236,4.20133 6.52059,6.00694 0.62986,0.80759 0.65316,0.81625 2.56603,0.95389 3.36839,0.24237 6.15912,-0.52556 7.98425,-2.19704 0.9708,-0.88909 2.11818,-3.01125 2.32009,-4.29117 0.0717,-0.45452 0.21456,-0.8264 0.31747,-0.8264 0.49732,0 -0.0918,3.43697 -0.88631,5.17063 -1.15916,2.52941 -4.02138,4.63069 -7.6195,5.59378 -0.82373,0.22048 -1.53491,0.43015 -1.5804,0.46592 -0.0455,0.0358 0.0673,0.29716 0.25072,0.58086 0.42038,0.65039 3.13911,1.59157 5.5459,1.91991 5.18913,0.70792 9.4512,-1.75724 11.86234,-6.86116 0.51359,-1.08716 1.03452,-2.22132 1.15762,-2.52035 0.39073,-0.9491 0.3027,0.16789 -0.15675,1.98895 -0.82211,3.25848 -2.69752,6.3894 -4.78355,7.98595 -2.58038,1.97491 -5.40868,2.84639 -9.25787,2.85263 l -2.32956,0.004 0.13635,0.59807 c 0.27301,1.19749 2.65931,2.81915 5.06948,3.44507 2.23636,0.58078 5.05051,0.0182 6.99325,-1.39802 1.35592,-0.98845 1.44173,-1.025 1.16184,-0.49485 -0.32491,0.61544 -2.20243,2.10444 -3.48291,2.7622 -1.32166,0.67891 -3.21692,1.17696 -4.47877,1.17696 -0.5463,0 -1.74826,-0.19573 -2.67099,-0.43496 -0.92272,-0.23923 -1.68638,-0.43483 -1.69699,-0.43467 -0.0106,1.5e-4 -0.0299,1.68834 -0.0428,3.75152 -0.0154,2.46402 -0.14059,4.34826 -0.36473,5.49108 -0.18766,0.95691 -0.58865,3.08209 -0.89109,4.72262 -1.36458,7.40223 -4.07045,14.50708 -8.19165,21.50901 l -1.62375,2.75876 -2.58249,1.23844 c -4.83988,2.32104 -11.44704,4.26697 -16.95933,4.9948 -3.06643,0.40488 -8.76419,0.40567 -11.32133,0.002 z m 11.38595,-1.12035 c 1.3459,-0.1346 1.44215,-0.18562 2.76135,-1.46362 4.65869,-4.51318 8.06392,-11.1708 9.57621,-18.72252 1.97338,-9.85426 0.37225,-20.2069 -4.19171,-27.1029 -1.26425,-1.91024 -4.53549,-5.13233 -6.21611,-6.12271 -6.46123,-3.80754 -14.24927,-2.34934 -20.48067,3.8347 -1.70714,1.69417 -1.80943,1.85115 -2.35866,3.61955 -0.86262,2.77741 -1.75404,6.62555 -2.25411,9.73066 -0.73265,4.54921 -0.72806,4.68026 0.0804,2.29771 0.41369,-1.2191 1.08428,-2.98069 1.4902,-3.91463 0.40591,-0.93395 0.99549,-2.44613 1.31017,-3.36042 1.32247,-3.84238 4.61995,-7.89102 7.67261,-9.4204 2.40916,-1.20699 4.57954,-1.30834 6.1741,-0.28831 0.41299,0.26419 1.4022,0.59704 2.19825,0.73968 4.24251,0.76016 7.86514,3.89388 10.24406,8.86152 2.08997,4.36425 2.91139,8.72459 2.73013,14.49241 -0.18102,5.76017 -1.18704,9.9572 -3.57298,14.90615 -2.73752,5.67819 -6.95469,9.92131 -11.32452,11.39419 -0.73375,0.24731 -1.55437,0.46436 -1.82358,0.48233 -0.26922,0.0179 -0.055,0.10777 0.47594,0.19957 0.99341,0.17175 5.04033,0.0839 7.50889,-0.16296 z m 7.98798,-1.51537 c 2.91341,-0.73767 8.26841,-2.49597 10.3006,-3.38218 1.0157,-0.44293 1.08973,-0.539 2.29623,-2.97984 3.63447,-7.35288 6.12934,-14.3779 7.2909,-20.52965 1.18091,-6.25422 -0.24707,-15.75666 -3.29744,-21.94265 -4.02182,-8.156 -11.20182,-13.88611 -19.16325,-15.29349 -9.39756,-1.66126 -19.01463,3.59068 -23.63556,12.90752 -1.24112,2.50237 -1.22271,2.52343 0.78106,0.8937 2.06322,-1.67808 4.77608,-3.18256 7.03431,-3.90105 2.14822,-0.68348 5.72098,-0.83303 7.96013,-0.33318 12.7225,2.84003 19.72363,20.65756 15.12369,38.48907 -1.54334,5.98272 -4.46824,11.6179 -8.0458,15.50122 l -1.5069,1.63568 0.95787,-0.15959 c 0.52682,-0.0878 2.2837,-0.49526 3.90416,-0.90556 z m -25.11461,-0.82733 c -3.01216,-2.24781 -5.58158,-6.59437 -6.88759,-11.65137 l -0.41967,-1.625 -0.0118,2.19758 c -0.0201,3.73823 0.376,7.72444 0.80141,8.06523 1.41184,1.13098 6.80603,3.94045 7.63106,3.97449 0.10148,0.004 -0.39955,-0.42823 -1.11339,-0.96093 z m 12.56744,-20.95803 c 1.9455,-1.4043 1.65985,-4.5395 -0.50864,-5.58261 -1.6285,-0.78336 -3.84066,0.10607 -4.37939,1.7608 -0.321,0.98599 -0.15039,2.37413 0.38246,3.11167 0.97573,1.35056 3.14474,1.69243 4.50557,0.71014 z m -8.6887,-7.968 c 3.22772,-1.63042 6.26827,-5.41426 7.74381,-9.63687 0.58495,-1.67396 0.6642,-2.18131 0.67017,-4.29072 0.006,-2.05406 -0.0597,-2.51817 -0.4633,-3.28279 -1.3763,-2.60725 -3.75359,-3.14762 -6.92348,-1.57371 -1.78786,0.88769 -4.5028,3.60322 -5.90045,5.90173 -3.22812,5.3088 -3.2705,11.63455 -0.0889,13.27425 1.1223,0.57841 3.39691,0.39877 4.96217,-0.39189 z"
       id="path1"
       sodipodi:nodetypes="sscsssssssssssscsssssssssssssssssssscsssssscsssssssssssssssssssssssssssssssssscssssssssssssssssssssscsssssssssssssssssssscsssssssssssscssccssssssssssssssssssssssssssssssssscsssscsscsssssssssssssss" />
    <path
       style="fill:#ffffff;stroke-width:0.0702486;stroke-linejoin:bevel;stroke-miterlimit:0"
       d="m 55.330885,48.819102 c -0.393178,-0.195512 -0.956656,-0.849566 -1.252172,-1.453454 -0.455266,-0.930336 -0.487701,-1.26353 -0.212438,-2.182276 0.630358,-2.103949 3.301055,-2.818433 4.880143,-1.305571 2.554488,2.447354 -0.255529,6.512646 -3.415533,4.941301 z"
       id="path2"
       transform="translate(116.32466,709.61176)" />
    <path
       style="fill:#ffffff;stroke-width:0.0702486;stroke-linejoin:bevel;stroke-miterlimit:0"
       d="m 64.733499,41.078859 c -4.07182,-1.499199 -8.198123,-6.760443 -9.259347,-11.806134 -1.013465,-4.818615 0.968758,-8.424882 4.390803,-7.988209 4.401412,0.561645 10.023902,7.302383 10.619936,12.732117 0.36835,3.355584 -0.04398,5.173086 -1.472833,6.492062 -0.865076,0.798553 -2.915966,1.071856 -4.278559,0.570164 z"
       id="path3"
       transform="translate(116.32466,709.61176)" />
    <path
       style="fill:#ffffff;stroke-width:0.0702486;stroke-linejoin:bevel;stroke-miterlimit:0"
       d="m 117.23857,41.272079 c -3.65497,-0.975895 -3.64132,-8.343768 0.0257,-13.859706 3.05129,-4.589788 7.49391,-7.120705 10.11978,-5.765138 3.09759,1.599084 3.37708,6.348261 0.69333,11.781456 -1.51288,3.062803 -4.19885,6.037929 -6.42326,7.114746 -1.34518,0.651193 -3.42202,0.99391 -4.41551,0.728642 z"
       id="path4"
       transform="translate(116.32466,709.61176)" />
    <path
       style="fill:#ffffff;stroke-width:0.0702486;stroke-linejoin:bevel;stroke-miterlimit:0"
       d="m 126.84929,48.783967 c -0.9149,-0.507093 -1.43877,-1.518639 -1.45108,-2.801925 -0.0271,-2.822064 3.96677,-3.981879 5.4327,-1.57766 0.86973,1.426415 0.73687,2.659382 -0.41015,3.806404 -1.06838,1.068374 -2.3166,1.268701 -3.57147,0.573181 z"
       id="path5"
       transform="translate(116.32466,709.61176)" />
    <path
       style="fill:#ffffff;stroke-width:0.0702486;stroke-linejoin:bevel;stroke-miterlimit:0"
       d="m 139.7587,69.788413 c 4.07256,-4.529672 7.44134,-11.925761 8.66903,-19.032692 0.68277,-3.952492 0.67774,-10.827651 -0.0106,-14.44036 -1.81732,-9.53851 -6.24086,-16.212481 -12.79074,-19.297902 -5.68863,-2.679714 -11.95393,-1.724008 -17.82373,2.718823 -2.13084,1.612831 -2.14964,1.516457 -0.33575,-1.721575 0.82564,-1.473867 2.0957,-3.043634 4.06085,-5.019128 2.37829,-2.390799 3.29969,-3.1002951 5.47546,-4.2161954 3.69892,-1.89709 6.80838,-2.5969452 10.68059,-2.4039148 7.97098,0.3973549 15.27424,5.0733332 20.15524,12.9045662 4.71484,7.564652 6.29738,18.909056 3.90276,27.976824 -1.23878,4.690947 -3.52587,10.687288 -5.89333,15.451297 l -2.00862,4.041928 -2.49216,0.938149 c -3.14746,1.18483 -9.72912,3.116273 -11.54925,3.389218 l -1.38553,0.207773 z"
       id="path6"
       transform="translate(116.32466,709.61176)" />
    <path
       style="fill:#ffffff;stroke-width:0.0702486;stroke-linejoin:bevel;stroke-miterlimit:0"
       d="M 41.748368,70.203218 C 36.857364,68.828621 32.430804,67.290237 31.597712,66.675509 29.857749,65.391618 25.3452,54.666645 23.395522,47.181375 21.723073,40.760447 21.779162,35.317229 23.591921,28.121617 27.500812,12.605572 42.038475,2.9527219 54.847945,7.3679577 c 4.351361,1.4998497 8.067875,4.1813533 10.821737,7.8079933 1.428378,1.881072 3.614199,5.698233 3.262978,5.698233 -0.07257,0 -0.942989,-0.611213 -1.934262,-1.358252 -5.151557,-3.882287 -11.217817,-4.967517 -16.542587,-2.959402 -6.174975,2.32875 -10.983373,8.580795 -13.202427,17.166251 -0.739921,2.862732 -0.874497,3.980293 -1.000866,8.311535 -0.123045,4.217314 -0.05314,5.54732 0.444638,8.45922 1.277708,7.474387 3.790035,13.315905 7.934971,18.449942 2.16942,2.687105 2.179435,2.68273 -2.883759,1.25974 z"
       id="path7"
       transform="translate(116.32466,709.61176)" />
  </g>
</svg>
