<?xml version="1.0" encoding="UTF-8" standalone="no"?>
<!-- Created with Inkscape (http://www.inkscape.org/) -->

<svg
   version="1.1"
   id="svg1"
   width="55mm"
   height="9.1297207mm"
   viewBox="0 0 207.874 34.506031"
   sodipodi:docname="Ojos-cerrados.svg"
   inkscape:version="1.3.2 (091e20e, 2023-11-25, custom)"
   xmlns:inkscape="http://www.inkscape.org/namespaces/inkscape"
   xmlns:sodipodi="http://sodipodi.sourceforge.net/DTD/sodipodi-0.dtd"
   xmlns:xlink="http://www.w3.org/1999/xlink"
   xmlns="http://www.w3.org/2000/svg"
   xmlns:svg="http://www.w3.org/2000/svg"
   xmlns:inkstitch="http://inkstitch.org/namespace">
  <sodipodi:namedview
     id="namedview1"
     pagecolor="#ffffff"
     bordercolor="#666666"
     borderopacity="1.0"
     inkscape:showpageshadow="2"
     inkscape:pageopacity="0.0"
     inkscape:pagecheckerboard="0"
     inkscape:deskcolor="#d1d1d1"
     inkscape:zoom="3.5217233"
     inkscape:cx="87.883112"
     inkscape:cy="-4.1173025"
     inkscape:window-width="1858"
     inkscape:window-height="1057"
     inkscape:window-x="54"
     inkscape:window-y="-8"
     inkscape:window-maximized="1"
     inkscape:current-layer="g1"
     inkscape:document-units="mm" />
  <metadata
     id="metadata17">
    <inkstitch:min_stitch_len_mm>0</inkstitch:min_stitch_len_mm>
    <inkstitch:collapse_len_mm>3</inkstitch:collapse_len_mm>
    <inkstitch:inkstitch_svg_version>1</inkstitch:inkstitch_svg_version>
  </metadata>
  <defs
     id="defs1">
    <symbol
       id="inkstitch_trim">
      <title
         id="inkstitch_title9282">Trim the thread after sewing this object.</title>
      <path
         id="inkstitch_circle13405"
         d="m 9.2465284,-8.6e-6 c 1.8e-6,2.452339 -0.9741847,4.804237 -2.7082493,6.538304 C 4.8042146,8.2723614 2.4523174,9.2465504 -2.1625959e-5,9.2465514 -2.4523623,9.2465534 -4.8042621,8.2723654 -6.5383288,6.5382984 -8.2723956,4.8042314 -9.2465834,2.4523324 -9.2465816,-8.6e-6 c 6e-7,-2.452339 0.9741895,-4.804237 2.708256,-6.538301 1.7340665,-1.734065 4.0859648,-2.708252 6.538303974041,-2.70825 C 5.1067066,-9.2465576 9.2465271,-5.1067366 9.2465284,-8.6e-6 c 0,0 0,0 0,0"
         style="opacity:1;vector-effect:none;fill:#fafafa;fill-opacity:1;fill-rule:evenodd;stroke:#003399;stroke-width:1.06500006;stroke-linecap:round;stroke-linejoin:miter;stroke-miterlimit:4;stroke-dasharray:3.19500017, 3.19500017;stroke-dashoffset:0;stroke-opacity:1"
         inkscape:connector-curvature="0" />
      <path
         style="color:#000000;font-style:normal;font-variant:normal;font-weight:normal;font-stretch:normal;font-size:medium;line-height:normal;font-family:sans-serif;font-variant-ligatures:normal;font-variant-position:normal;font-variant-caps:normal;font-variant-numeric:normal;font-variant-alternates:normal;font-feature-settings:normal;text-indent:0;text-align:start;text-decoration:none;text-decoration-line:none;text-decoration-style:solid;text-decoration-color:#000000;letter-spacing:normal;word-spacing:normal;text-transform:none;writing-mode:lr-tb;direction:ltr;text-orientation:mixed;dominant-baseline:auto;baseline-shift:baseline;text-anchor:start;white-space:normal;shape-padding:0;clip-rule:nonzero;display:inline;overflow:visible;visibility:visible;opacity:1;isolation:auto;mix-blend-mode:normal;color-interpolation:sRGB;color-interpolation-filters:linearRGB;solid-color:#000000;solid-opacity:1;vector-effect:none;fill:#050505;fill-opacity:1;fill-rule:evenodd;stroke:none;stroke-width:1.41421342;stroke-linecap:butt;stroke-linejoin:miter;stroke-miterlimit:4;stroke-dasharray:none;stroke-dashoffset:0;stroke-opacity:1;color-rendering:auto;image-rendering:auto;shape-rendering:auto;text-rendering:auto;enable-background:accumulate"
         d="m -3.0000256,-5.9834096 c -1.30575,0 -2.375,1.06924 -2.375,2.375 0,1.30575 1.06925,2.375 2.375,2.375 0.58687,0 1.11944,-0.22369 1.53516,-0.58007 0,0 0.61717997,1.62109 0.61717997,1.62109 0,0 -2.29881997,6.01758 -2.29881997,6.01758 0.98655,-0.12511 1.23728,-0.26171 1.67382,-0.97461 0,0 1.33007997,-3.18945 1.33007997,-3.18945 0,0 1.23633003,3.25 1.23633003,3.25 0.23227,0.77906 0.84315,0.79218 1.57813,1.07226 0,0 -2.05469003,-6.14258 -2.05469003,-6.14258 0,0 0.73047003,-1.75 0.73047003,-1.75 0.42849,0.41682 1.01136,0.67578 1.65234,0.67578 1.30575,0 2.375,-1.06925 2.375,-2.375 0,-1.30576 -1.06925,-2.375 -2.375,-2.375 -1.06233,0 -1.95701,0.71265 -2.25781003,1.67969 0,0 -0.0117,-0.0156 -0.0117,-0.0156 0,0 -0.80274,2.10156 -0.80274,2.10156 0,0 -0.59179,-1.76562 -0.59179,-1.76562 -0.18242,-1.12808 -1.15864997,-2 -2.33593997,-2 0,0 -2e-5,-3e-5 -2e-5,-3e-5 m 0,1 c 0.76531,0 1.375,0.60968 1.375,1.375 0,0.76531 -0.60969,1.375 -1.375,1.375 -0.76531,0 -1.375,-0.60969 -1.375,-1.375 0,-0.76532 0.60969,-1.375 1.375,-1.375 0,0 0,0 0,0 m 6,0 c 0.76531,0 1.375,0.60968 1.375,1.375 0,0.76531 -0.60969,1.375 -1.375,1.375 -0.76531,0 -1.375,-0.60969 -1.375,-1.375 0,-0.76532 0.60969,-1.375 1.375,-1.375 0,0 0,0 0,0"
         id="inkstitch_path13416"
         inkscape:connector-curvature="0" />
    </symbol>
  </defs>
  <g
     inkscape:groupmode="layer"
     inkscape:label="Image"
     id="g1"
     transform="translate(-94.3805, -289.017)">
    <path
       id="path1"
       style="stroke:#000000;stroke-width:1px;fill:none"
       transform="translate(94.3805, 289.017)"
       d="M6.743886559657137,4.76744416565816 10.80139879542771,8.248129392738944 15.310087002803858,11.492305131967255 20.116910365857308,14.400927611018107 25.121391404619608,16.917405412032934 30.224272693138182,18.98372881566831 35.32754442391212,20.540012253128182 40.312609881034966,21.51888027345073 42.771044601266766,21.77673680142801 45.14280963596218,21.862859729361848 47.758213503934755,21.78816350481012 50.34488223481741,21.549548246394494 55.3089482662906,20.6343242977228 60.10778913953395,19.18767778208905 64.73069128354496,17.29453714857996 69.1916522538585,15.034397240589412 73.5063570020782,12.485358024686711 77.69101272245284,9.723760568855335 81.74844993575606,6.833832847234589  M8.589513440342863,2.61595583434184 12.555201204572292,6.017870607261056 16.87411299719613,9.125494868032739 21.489489634142693,11.918272388981892 26.29200859538036,14.333194587967048 31.17152730686182,16.30907118433169 36.01585557608788,17.786387746871817 40.73439011896503,18.71291972654927 42.97055539873324,18.94746319857199 45.15379036403782,19.026740270638154 47.58738649606525,18.957236495189875 49.95691776518259,18.73865175360551 54.6408517337094,17.8750757022772 59.15941086046605,16.51292221791095 63.55110871645511,14.71446285142001 67.82874774614149,12.54720275941059 72.0038429979218,10.080641975313288 76.08758727754719,7.385639431144654 80.10395006424393,4.524967152765411  M7.5163075098213525,6.36373961121684 10.284747830849891,3.1365071142423187  M16.943682717439167,13.30910025155076 19.14493991735015,9.671276982002741  M27.379891263117457,18.59650381148418 28.975779778562355,14.655383254219268  M37.86010812615223,21.759502090437486 38.679381323850606,17.58720262513564  M46.40056057222736,22.535889685099104 46.2791731911623,18.285647750297844  M58.12749166906479,20.524816107805826 56.90025319472715,16.453799388639666  M67.4826759870915,16.69467483667552 65.56098732576076,12.90173348601666  M76.09138085640991,11.628481465846233 73.7493762014956,8.079635794788578  "
       inkstitch:satin_column="true" />
    <g
       id="command_group1"
       inkscape:label="Ink/Stitch Command: Trim thread after sewing this object"
       transform="translate(94.3805, 289.017)">
      <path
         id="command_connector1"
         d="m 39.526861,-26.533109 4.701569,38.92642"
         style="fill:none;stroke:#000000;stroke-width:1px;stroke-opacity:0.5"
         inkscape:connection-start="#command_use5882"
         inkscape:connection-end="#path1"
         inkscape:label="connector"
         inkscape:connector-type="polyline"
         inkscape:connector-curvature="0" />
      <use
         id="command_use5882"
         xlink:href="#inkstitch_trim"
         height="100%"
         width="100%"
         x="39.524279415122855"
         y="-26.56895607925372"
         inkscape:label="command marker" />
    </g>
    <path
       id="path2"
       style="stroke:#000000;stroke-width:1px;fill:none"
       transform="translate(94.3805, 289.017)"
       d="M122.91638758732051,5.649270584392474 126.85256954138039,8.80532106022588 130.95752511197915,11.803616584071069 135.2665615044451,14.560571881129636 139.82967582728364,17.003071733047058 144.69488714561533,19.056840754393644 149.88807891772024,20.641463147085616 152.6564657536499,21.24394383190745 155.50889560637592,21.699366031536993 158.46876376202223,22.003047620794238 161.55487863792268,22.147026464022694 164.64891583791584,22.062629527529484 167.59625716028924,21.772677889289533 170.40867457290585,21.292213316017225 173.09454832396494,20.63686426722542 175.66277811149035,19.822807725313577 178.1395938207827,18.859948742463043 182.75047586432774,16.59910138179023 187.06993699366328,13.960475817837093 191.16671848261407,11.082980571914707 199.0544563686219,5.105291806524308  M124.68961241267948,3.4377294156075253 128.57603045861958,6.55387893977413 132.55887488802082,9.462983415928932 136.70143849555492,12.113428118870363 141.05232417271637,14.442328266952945 145.66231285438465,16.388359245606356 150.60432108227974,17.89633685291438 153.18173424635006,18.45725616809255 155.87730439362406,18.88763396846301 158.67963623797775,19.17515237920576 161.58232136207732,19.310573535977305 164.47128416208417,19.23177047247052 167.21834283971074,18.96152211071047 169.83332542709417,18.514786683982777 172.32945167603503,17.90573573277458 174.72002188850962,17.14799227468642 177.00000617921728,16.261651257536958 181.3847241356723,14.11169861820976 185.5148630063367,11.588724182162906 189.4954815173859,8.792819428085295 197.34234363137807,2.8461081934756916  M123.1219222264562,6.722399727864628 125.78175946449471,3.4050879746872553  M132.67932236878,13.746533310150655 134.97087695003262,10.164903932093088  M141.78984004571032,18.599738946020114 143.44344468623063,14.68248441082908  M151.65134330004088,21.75045054874656 152.555530986333,17.595726005701298  M162.89982468735553,22.81926607771331 162.78388547501845,18.568872037195696  M172.38856198599737,21.538576577630263 171.3806558790947,17.407787708625552  M180.58174884996902,18.451757749474183 178.70980344821487,14.63402127173289  M190.1031005699715,12.696044889765707 187.65919954377023,9.216585280177279  "
       inkstitch:satin_column="true" />
    <g
       id="command_group2"
       inkscape:label="Ink/Stitch Command: Trim thread after sewing this object"
       transform="translate(94.3805, 289.017)">
      <path
         id="command_connector2"
         d="m 148.09386,-26.717981 12.88617,39.358238"
         style="fill:none;stroke:#000000;stroke-width:1px;stroke-opacity:0.5"
         inkscape:connection-start="#command_use4816"
         inkscape:connection-end="#path2"
         inkscape:label="connector"
         inkscape:connector-type="polyline"
         inkscape:connector-curvature="0" />
      <use
         id="command_use4816"
         xlink:href="#inkstitch_trim"
         height="100%"
         width="100%"
         x="148.09128279322437"
         y="-26.753828261558976"
         inkscape:label="command marker" />
    </g>
    <path
       id="path3"
       style="stroke:#000000;stroke-width:1px;fill:none"
       transform="translate(94.3805, 289.017)"
       d="M9.834264730786789,22.237495747243965 16.25936473078679,11.997495747243963  M7.43313526921321,20.730904252756037 13.85823526921321,10.490904252756035  M13.647097096180202,17.49414362086592 10.045402903819797,15.23425637913408  "
       inkstitch:satin_column="true" />
    <g
       id="command_group3"
       inkscape:label="Ink/Stitch Command: Trim thread after sewing this object"
       transform="translate(94.3805, 289.017)">
      <path
         id="command_connector3"
         d="M 8.7780832,-19.003338 11.643011,14.021416"
         style="fill:none;stroke:#000000;stroke-width:1px;stroke-opacity:0.5"
         inkscape:connection-start="#command_use4929"
         inkscape:connection-end="#path3"
         inkscape:label="connector"
         inkscape:connector-type="polyline"
         inkscape:connector-curvature="0" />
      <use
         id="command_use4929"
         xlink:href="#inkstitch_trim"
         height="100%"
         width="100%"
         x="8.77550344163065"
         y="-19.039184277853796"
         inkscape:label="command marker" />
    </g>
    <path
       id="path4"
       style="stroke:#000000;stroke-width:1px;fill:none"
       transform="translate(94.3805, 289.017)"
       d="M21.165072544446545,28.90354205294709 26.987772544446543,16.25414205294709  M18.590127455553457,27.718257947052912 24.412827455553455,15.068857947052912  M24.720158816669866,22.875163079420524 20.857741183330134,21.097236920579476  "
       inkstitch:satin_column="true" />
    <g
       id="command_group4"
       inkscape:label="Ink/Stitch Command: Trim thread after sewing this object"
       transform="translate(94.3805, 289.017)">
      <path
         id="command_connector4"
         d="m 17.768436,-14.117 4.658517,33.500029"
         style="fill:none;stroke:#000000;stroke-width:1px;stroke-opacity:0.5"
         inkscape:connection-start="#command_use404"
         inkscape:connection-end="#path4"
         inkscape:label="connector"
         inkscape:connector-type="polyline"
         inkscape:connector-curvature="0" />
      <use
         id="command_use404"
         xlink:href="#inkstitch_trim"
         height="100%"
         width="100%"
         x="17.76585504966493"
         y="-14.15284759945661"
         inkscape:label="command marker" />
    </g>
    <path
       id="path5"
       style="stroke:#000000;stroke-width:1px;fill:none"
       transform="translate(94.3805, 289.017)"
       d="M34.318401506173636,32.002160301234724 36.727801506173634,19.955160301234727  M31.53879849382637,31.44623969876527 33.94819849382637,19.39923969876527  M36.21800225926053,26.117640451851734 32.04859774073948,25.28375954814826  "
       inkstitch:satin_column="true" />
    <g
       id="command_group5"
       inkscape:label="Ink/Stitch Command: Trim thread after sewing this object"
       transform="translate(94.3805, 289.017)">
      <path
         id="command_connector5"
         d="M 26.523456,-9.5942313 33.383464,22.222913"
         style="fill:none;stroke:#000000;stroke-width:1px;stroke-opacity:0.5"
         inkscape:connection-start="#command_use7426"
         inkscape:connection-end="#path5"
         inkscape:label="connector"
         inkscape:connector-type="polyline"
         inkscape:connector-curvature="0" />
      <use
         id="command_use7426"
         xlink:href="#inkstitch_trim"
         height="100%"
         width="100%"
         x="26.520875717637924"
         y="-9.630078589046567"
         inkscape:label="command marker" />
    </g>
    <path
       id="path6"
       style="stroke:#000000;stroke-width:1px;fill:none"
       transform="translate(94.3805, 289.017)"
       d="M46.19201456344344,33.75652272919867 46.39271456344344,22.11102272919867  M43.35778543655656,33.707677270801334 43.55848543655656,22.06217727080133  M47.00092184516516,27.945984093798117 42.74957815483484,27.87271590620189  "
       inkstitch:satin_column="true" />
    <g
       id="command_group6"
       inkscape:label="Ink/Stitch Command: Trim thread after sewing this object"
       transform="translate(94.3805, 289.017)">
      <path
         id="command_connector6"
         d="M 44.078012,-7.8975216 44.87525,27.90935"
         style="fill:none;stroke:#000000;stroke-width:1px;stroke-opacity:0.5"
         inkscape:connection-start="#command_use3759"
         inkscape:connection-end="#path6"
         inkscape:label="connector"
         inkscape:connector-type="polyline"
         inkscape:connector-curvature="0" />
      <use
         id="command_use3759"
         xlink:href="#inkstitch_trim"
         height="100%"
         width="100%"
         x="44.07543241481495"
         y="-7.933368495556536"
         inkscape:label="command marker" />
    </g>
    <path
       id="path7"
       style="stroke:#000000;stroke-width:1px;fill:none"
       transform="translate(94.3805, 289.017)"
       d="M58.809046347392915,31.622861440714725 56.39954634739291,20.579761440714726  M56.03955365260709,32.22713855928528 53.63005365260709,21.184038559285277  M58.2966695210894,25.950242161072232 54.1424304789106,26.856657838927767  "
       inkstitch:satin_column="true" />
    <g
       id="command_group7"
       inkscape:label="Ink/Stitch Command: Trim thread after sewing this object"
       transform="translate(94.3805, 289.017)">
      <path
         id="command_connector7"
         d="M 52.157449,-9.0545403 56.21955,26.40345"
         style="fill:none;stroke:#000000;stroke-width:1px;stroke-opacity:0.5"
         inkscape:connection-start="#command_use9638"
         inkscape:connection-end="#path7"
         inkscape:label="connector"
         inkscape:connector-type="polyline"
         inkscape:connector-curvature="0" />
      <use
         id="command_use9638"
         xlink:href="#inkstitch_trim"
         height="100%"
         width="100%"
         x="52.15486972566882"
         y="-9.090387155081835"
         inkscape:label="command marker" />
    </g>
    <path
       id="path8"
       style="stroke:#000000;stroke-width:1px;fill:none"
       transform="translate(94.3805, 289.017)"
       d="M71.14487467045291,27.685687561423133 65.3220746704529,15.839387561423132  M68.6009253295471,28.936112438576867 62.7781253295471,17.089812438576867  M68.86946200567903,21.44993134213405 65.05353799432098,23.32556865786595  "
       inkstitch:satin_column="true" />
    <g
       id="command_group8"
       inkscape:label="Ink/Stitch Command: Trim thread after sewing this object"
       transform="translate(94.3805, 289.017)">
      <path
         id="command_connector8"
         d="m 60.396242,-13.713215 5.637802,31.001082"
         style="fill:none;stroke:#000000;stroke-width:1px;stroke-opacity:0.5"
         inkscape:connection-start="#command_use4632"
         inkscape:connection-end="#path8"
         inkscape:label="connector"
         inkscape:connector-type="polyline"
         inkscape:connector-curvature="0" />
      <use
         id="command_use4632"
         xlink:href="#inkstitch_trim"
         height="100%"
         width="100%"
         x="60.39365996148845"
         y="-13.749062052322005"
         inkscape:label="command marker" />
    </g>
    <path
       id="path9"
       style="stroke:#000000;stroke-width:1px;fill:none"
       transform="translate(94.3805, 289.017)"
       d="M82.13707855800578,21.969332552985126 75.51117855800578,10.725432552985126  M79.69492144199421,23.408467447014875 73.06902144199421,12.164567447014875  M79.43466783700832,15.987598829477076 75.77143216299167,18.14630117052292  "
       inkstitch:satin_column="true" />
    <g
       id="command_group9"
       inkscape:label="Ink/Stitch Command: Trim thread after sewing this object"
       transform="translate(94.3805, 289.017)">
      <path
         id="command_connector9"
         d="m 72.754754,-19.075327 4.363432,32.527789"
         style="fill:none;stroke:#000000;stroke-width:1px;stroke-opacity:0.5"
         inkscape:connection-start="#command_use7647"
         inkscape:connection-end="#path9"
         inkscape:label="connector"
         inkscape:connector-type="polyline"
         inkscape:connector-curvature="0" />
      <use
         id="command_use7647"
         xlink:href="#inkstitch_trim"
         height="100%"
         width="100%"
         x="72.75217593632897"
         y="-19.111172832112423"
         inkscape:label="command marker" />
    </g>
    <path
       id="path10"
       style="stroke:#000000;stroke-width:1px;fill:none"
       transform="translate(94.3805, 289.017)"
       d="M126.229842350223,23.57317233283999 132.25334235022297,12.630472332839988  M123.74655764977702,22.20622766716001 129.77005764977702,11.26352766716001  M129.86241352533366,18.443558499261467 126.13748647466633,16.393141500738533  "
       inkstitch:satin_column="true" />
    <g
       id="command_group10"
       inkscape:label="Ink/Stitch Command: Trim thread after sewing this object"
       transform="translate(94.3805, 289.017)">
      <path
         id="command_connector10"
         d="m 125.18298,-18.316261 2.6143,33.163668"
         style="fill:none;stroke:#000000;stroke-width:1px;stroke-opacity:0.5"
         inkscape:connection-start="#command_use8324"
         inkscape:connection-end="#path10"
         inkscape:label="connector"
         inkscape:connector-type="polyline"
         inkscape:connector-curvature="0" />
      <use
         id="command_use8324"
         xlink:href="#inkstitch_trim"
         height="100%"
         width="100%"
         x="125.1803950828053"
         y="-18.352107968923693"
         inkscape:label="command marker" />
    </g>
    <path
       id="path11"
       style="stroke:#000000;stroke-width:1px;fill:none"
       transform="translate(94.3805, 289.017)"
       d="M137.11634651041462,29.308661813000107 142.23634651041462,18.26546181300011  M134.5446534895854,28.11633818699989 139.6646534895854,17.07313818699989  M140.31926976562156,24.085142719500926 136.46173023437845,22.296657280499073  "
       inkstitch:satin_column="true" />
    <g
       id="command_group11"
       inkscape:label="Ink/Stitch Command: Trim thread after sewing this object"
       transform="translate(94.3805, 289.017)">
      <path
         id="command_connector11"
         d="M 133.08261,-12.127149 138.00806,20.6462"
         style="fill:none;stroke:#000000;stroke-width:1px;stroke-opacity:0.5"
         inkscape:connection-start="#command_use7008"
         inkscape:connection-end="#path11"
         inkscape:label="connector"
         inkscape:connector-type="polyline"
         inkscape:connector-curvature="0" />
      <use
         id="command_use7008"
         xlink:href="#inkstitch_trim"
         height="100%"
         width="100%"
         x="133.08002714122662"
         y="-12.162996708029999"
         inkscape:label="command marker" />
    </g>
    <path
       id="path12"
       style="stroke:#000000;stroke-width:1px;fill:none"
       transform="translate(94.3805, 289.017)"
       d="M149.97347560734477,32.687522326729386 152.28257560734477,20.33932232672939  M147.18712439265522,32.16647767327061 149.49622439265522,19.81827767327061  M151.82461341101745,26.643683490092535 147.64508658898254,25.862116509907466  "
       inkstitch:satin_column="true" />
    <g
       id="command_group12"
       inkscape:label="Ink/Stitch Command: Trim thread after sewing this object"
       transform="translate(94.3805, 289.017)">
      <path
         id="command_connector12"
         d="M 149.493,-10.131153 149.73485,26.2529"
         style="fill:none;stroke:#000000;stroke-width:1px;stroke-opacity:0.5"
         inkscape:connection-start="#command_use1019"
         inkscape:connection-end="#path12"
         inkscape:label="connector"
         inkscape:connector-type="polyline"
         inkscape:connector-curvature="0" />
      <use
         id="command_use1019"
         xlink:href="#inkstitch_trim"
         height="100%"
         width="100%"
         x="149.4904106507143"
         y="-10.16699996124617"
         inkscape:label="command marker" />
    </g>
    <path
       id="path13"
       style="stroke:#000000;stroke-width:1px;fill:none"
       transform="translate(94.3805, 289.017)"
       d="M162.04467815416317,34.04482342643748 162.14507815416317,21.696523426437484  M159.21012184583682,34.02177657356251 159.31052184583683,21.673476573562514  M162.8035172312447,27.8764351396576 158.55168276875526,27.8418648603424  "
       inkstitch:satin_column="true" />
    <g
       id="command_group13"
       inkscape:label="Ink/Stitch Command: Trim thread after sewing this object"
       transform="translate(94.3805, 289.017)">
      <path
         id="command_connector13"
         d="M 159.55701,-8.2896849 160.6776,27.85915"
         style="fill:none;stroke:#000000;stroke-width:1px;stroke-opacity:0.5"
         inkscape:connection-start="#command_use4363"
         inkscape:connection-end="#path13"
         inkscape:label="connector"
         inkscape:connector-type="polyline"
         inkscape:connector-curvature="0" />
      <use
         id="command_use4363"
         xlink:href="#inkstitch_trim"
         height="100%"
         width="100%"
         x="159.55443399945335"
         y="-8.325531857739314"
         inkscape:label="command marker" />
    </g>
    <path
       id="path14"
       style="stroke:#000000;stroke-width:1px;fill:none"
       transform="translate(94.3805, 289.017)"
       d="M174.67604220539286,32.201320124352314 172.66824220539286,19.752720124352315  M171.87755779460716,32.652679875647685 169.86975779460715,20.204079875647686  M174.37176330808998,25.864180186532916 170.17403669191,26.541219813467084  "
       inkstitch:satin_column="true" />
    <g
       id="command_group14"
       inkscape:label="Ink/Stitch Command: Trim thread after sewing this object"
       transform="translate(94.3805, 289.017)">
      <path
         id="command_connector14"
         d="M 168.05164,-9.8462292 172.2729,26.2027"
         style="fill:none;stroke:#000000;stroke-width:1px;stroke-opacity:0.5"
         inkscape:connection-start="#command_use738"
         inkscape:connection-end="#path14"
         inkscape:label="connector"
         inkscape:connector-type="polyline"
         inkscape:connector-curvature="0" />
      <use
         id="command_use738"
         xlink:href="#inkstitch_trim"
         height="100%"
         width="100%"
         x="168.04905324582228"
         y="-9.88207599829582"
         inkscape:label="command marker" />
    </g>
    <path
       id="path15"
       style="stroke:#000000;stroke-width:1px;fill:none"
       transform="translate(94.3805, 289.017)"
       d="M187.80760579410236,27.901000127494978 182.48680579410234,16.75750012749498  M185.24959420589767,29.122399872505024 179.92879420589765,17.978899872505025  M185.78670869115408,22.023900191243687 181.94969130884593,23.85599980875632  "
       inkstitch:satin_column="true" />
    <g
       id="command_group15"
       inkscape:label="Ink/Stitch Command: Trim thread after sewing this object"
       transform="translate(94.3805, 289.017)">
      <path
         id="command_connector15"
         d="m 180.89426,-13.163589 2.6465,32.128412"
         style="fill:none;stroke:#000000;stroke-width:1px;stroke-opacity:0.5"
         inkscape:connection-start="#command_use6495"
         inkscape:connection-end="#path15"
         inkscape:label="connector"
         inkscape:connector-type="polyline"
         inkscape:connector-curvature="0" />
      <use
         id="command_use6495"
         xlink:href="#inkstitch_trim"
         height="100%"
         width="100%"
         x="180.89167504944706"
         y="-13.199436005506119"
         inkscape:label="command marker" />
    </g>
    <path
       id="path16"
       style="stroke:#000000;stroke-width:1px;fill:none"
       transform="translate(94.3805, 289.017)"
       d="M198.742735360801,21.38857258352516 191.213335360801,10.34537258352516  M196.400664639199,22.985427416474842 188.871264639199,11.942227416474841  M195.56355304120075,15.467758875286632 192.05044695879928,17.863041124713373  "
       inkstitch:satin_column="true" />
    <g
       id="command_group16"
       inkscape:label="Ink/Stitch Command: Trim thread after sewing this object"
       transform="translate(94.3805, 289.017)">
      <path
         id="command_connector16"
         d="m 190.48679,-19.59124 3.05406,33.350331"
         style="fill:none;stroke:#000000;stroke-width:1px;stroke-opacity:0.5"
         inkscape:connection-start="#command_use6222"
         inkscape:connection-end="#path16"
         inkscape:label="connector"
         inkscape:connector-type="polyline"
         inkscape:connector-curvature="0" />
      <use
         id="command_use6222"
         xlink:href="#inkstitch_trim"
         height="100%"
         width="100%"
         x="190.48420354927967"
         y="-19.62708641105393"
         inkscape:label="command marker" />
    </g>
  </g>
</svg>
