<?xml version="1.0" encoding="UTF-8" standalone="no"?>
<!-- Created with Inkscape (http://www.inkscape.org/) -->

<svg
   version="1.1"
   id="svg1"
   width="55mm"
   height="9.1297207mm"
   viewBox="0 0 207.874 34.506031"
   sodipodi:docname="Ojos-cerrados.svg"
   inkscape:version="1.3.2 (1:1.3.2+202311252150+091e20ef0f)"
   xmlns:inkscape="http://www.inkscape.org/namespaces/inkscape"
   xmlns:sodipodi="http://sodipodi.sourceforge.net/DTD/sodipodi-0.dtd"
   xmlns="http://www.w3.org/2000/svg"
   xmlns:svg="http://www.w3.org/2000/svg">
  <defs
     id="defs1" />
  <sodipodi:namedview
     id="namedview1"
     pagecolor="#ffffff"
     bordercolor="#666666"
     borderopacity="1.0"
     inkscape:showpageshadow="2"
     inkscape:pageopacity="0.0"
     inkscape:pagecheckerboard="0"
     inkscape:deskcolor="#d1d1d1"
     inkscape:zoom="2.4902344"
     inkscape:cx="108.02196"
     inkscape:cy="38.952156"
     inkscape:window-width="1848"
     inkscape:window-height="1016"
     inkscape:window-x="72"
     inkscape:window-y="27"
     inkscape:window-maximized="1"
     inkscape:current-layer="g1"
     inkscape:document-units="mm" />
  <g
     inkscape:groupmode="layer"
     inkscape:label="Image"
     id="g1"
     transform="translate(-94.380451,-289.01732)">
    <path
       style="fill:#000000;stroke-width:0.415751"
       d="m 139.36935,323.19155 c -0.71989,-0.0975 -1.00451,-0.24588 -1.52996,-0.79773 l -0.39912,-0.41917 -0.0378,-5.03077 -0.0378,-5.03077 -1.75825,-0.1602 c -0.96704,-0.0881 -2.35375,-0.24524 -3.08159,-0.34917 -0.72783,-0.10394 -1.36185,-0.14389 -1.40893,-0.0888 -0.0471,0.0551 -0.39786,1.98604 -0.77954,4.29096 -0.38168,2.30492 -0.75411,4.38234 -0.82762,4.6165 -0.17067,0.5436 -0.89424,1.18031 -1.57215,1.38342 -0.40973,0.12275 -0.65586,0.12206 -1.09979,-0.003 -0.71374,-0.20125 -0.91439,-0.34885 -1.35307,-0.99528 -0.47024,-0.69293 -0.45594,-1.04952 0.19379,-4.83144 0.29892,-1.73992 0.59558,-3.49277 0.65926,-3.89522 0.0637,-0.40244 0.15371,-0.94126 0.20009,-1.19736 l 0.0843,-0.46564 -1.50855,-0.41865 c -0.82971,-0.23026 -2.10723,-0.63919 -2.83895,-0.90873 -0.73172,-0.26953 -1.41472,-0.50021 -1.51777,-0.51262 -0.16213,-0.0195 -0.67201,1.02376 -1.58197,3.23692 -0.29658,0.72133 -1.00591,2.36611 -1.31963,3.05993 -0.18197,0.40244 -0.47999,1.10399 -0.66227,1.55899 -0.21182,0.52878 -0.51906,0.99681 -0.85149,1.29714 -0.48022,0.43386 -0.58484,0.46987 -1.36479,0.46987 -0.65698,0 -0.94245,-0.0665 -1.28453,-0.29934 -0.65699,-0.44714 -0.95994,-0.93689 -1.02989,-1.66493 -0.0544,-0.56592 0.0302,-0.8754 0.63016,-2.30485 0.38113,-0.90814 0.83683,-1.96725 1.01267,-2.35357 0.17583,-0.38632 0.3197,-0.73385 0.3197,-0.77228 0,-0.0384 0.11205,-0.32103 0.24901,-0.62799 1.02373,-2.29449 1.35782,-3.16108 1.27212,-3.29973 -0.0626,-0.10129 -0.0425,-0.12509 0.0548,-0.0649 0.0926,0.0572 0.1536,0.007 0.1536,-0.12672 0,-0.15494 -0.0688,-0.19523 -0.22877,-0.13386 -0.12582,0.0483 -0.1859,0.0449 -0.13352,-0.007 0.10204,-0.10203 -0.14022,-0.265 -1.50537,-1.01261 -1.15654,-0.63338 -1.99419,-1.13152 -3.13491,-1.86432 l -0.94484,-0.60697 -1.90116,3.14621 c -3.28397,5.4346 -3.42927,5.60744 -4.7138,5.60744 -0.40235,0 -0.8038,-0.085 -0.97813,-0.2071 -0.16262,-0.1139 -0.29568,-0.16461 -0.29568,-0.11268 0,0.15242 -0.539,-0.50985 -0.76836,-0.9441 -0.12041,-0.22796 -0.20512,-0.69035 -0.19754,-1.07824 0.0128,-0.65439 0.0617,-0.77083 0.97102,-2.31428 0.0647,-0.10976 0.57164,-0.93425 1.1266,-1.83221 0.55497,-0.89795 0.96713,-1.70045 0.91591,-1.78333 -0.0521,-0.0843 -0.0343,-0.11431 0.0405,-0.0681 0.0735,0.0454 0.35731,-0.28956 0.63066,-0.74443 0.27336,-0.45486 0.70116,-1.1563 0.95067,-1.55875 0.24952,-0.40245 0.45391,-0.77144 0.45421,-0.81998 3e-4,-0.0486 -0.37362,-0.39873 -0.83094,-0.77816 -1.46552,-1.21595 -4.77101,-4.41743 -5.10155,-4.94104 -0.64428,-1.02059 -0.30153,-2.57721 0.69721,-3.16648 0.41976,-0.24766 0.63103,-0.28223 1.36938,-0.22402 1.10842,0.0874 1.20736,0.10735 1.13245,0.22856 -0.0338,0.0547 -0.004,0.11958 0.0655,0.14413 0.0698,0.0245 0.89921,0.79297 1.84304,1.70762 0.94383,0.91465 2.03402,1.93241 2.42264,2.26168 0.38863,0.32928 0.93435,0.79819 1.21271,1.04202 0.29677,0.25995 0.57172,0.40278 0.66473,0.3453 0.0984,-0.0608 0.1236,-0.0414 0.0665,0.0511 -0.0539,0.0873 0.14443,0.3163 0.47835,0.55232 0.31377,0.22178 0.69023,0.49913 0.83657,0.61633 0.54231,0.43432 4.0164,2.69825 4.73541,3.08588 0.40931,0.22067 1.07408,0.58739 1.47727,0.81493 1.51199,0.85332 4.65652,2.18442 7.2909,3.0863 1.90967,0.65377 5.52726,1.52097 7.64981,1.83378 2.79104,0.41134 3.67765,0.46921 7.05113,0.46029 3.49555,-0.009 6.26788,-0.24266 8.44805,-0.71124 1.93647,-0.41621 2.78177,-0.62348 4.44526,-1.09003 1.01804,-0.28553 1.91606,-0.55986 1.9956,-0.60963 0.0795,-0.0498 0.20449,-0.10008 0.27766,-0.11179 0.29114,-0.0466 2.8118,-1.03193 3.77069,-1.47393 2.02795,-0.9348 3.98126,-1.95169 5.40908,-2.81595 1.1957,-0.72376 4.15856,-2.73601 4.32381,-2.93655 0.0366,-0.0444 0.53299,-0.43433 1.10311,-0.8665 0.60371,-0.45764 1.00934,-0.85682 0.97132,-0.95589 -0.0363,-0.0946 0.006,-0.14284 0.0949,-0.10865 0.16677,0.064 0.88512,-0.51335 2.328,-1.87105 1.05871,-0.9962 1.39895,-1.17982 2.16808,-1.17 0.86717,0.0111 1.46912,0.3419 1.92,1.05521 0.39452,0.62415 0.45074,1.04356 0.25616,1.91083 -0.13315,0.59344 -1.13066,1.59181 -4.18515,4.18872 -0.40244,0.34216 -0.71527,0.68162 -0.69516,0.75435 0.0201,0.0727 -0.0127,0.1018 -0.0729,0.0646 -0.0602,-0.0372 -0.19637,-0.0121 -0.30264,0.0559 -0.16127,0.10308 -0.11365,0.27204 0.2881,1.02228 0.26471,0.49434 1.00472,1.88662 1.64446,3.09396 0.63973,1.20734 1.20833,2.22509 1.26355,2.26168 0.0552,0.0366 0.14343,0.20439 0.19603,0.37289 0.0526,0.16849 0.3082,0.67737 0.56799,1.13084 0.76138,1.329 0.71036,2.46902 -0.14641,3.2718 -0.18707,0.17527 -0.31643,0.35701 -0.28747,0.40387 0.029,0.0469 -0.0477,0.0944 -0.1704,0.10561 -0.12268,0.0112 -0.49845,0.0608 -0.83504,0.11008 -0.48651,0.0713 -0.74564,0.0278 -1.26388,-0.2122 -0.35854,-0.16601 -0.71177,-0.28754 -0.78494,-0.27004 -0.0732,0.0175 -0.0879,-0.0133 -0.0328,-0.0684 0.0551,-0.0551 0.0191,-0.22476 -0.08,-0.37694 -0.0992,-0.15219 -0.4972,-0.87539 -0.88453,-1.60711 -0.84269,-1.59196 -1.53622,-2.89671 -2.28062,-4.29054 -0.30286,-0.56709 -0.66811,-1.25557 -0.81167,-1.52997 -0.14356,-0.27439 -0.29452,-0.4989 -0.33546,-0.4989 -0.0409,0 -0.76828,0.41201 -1.61631,0.91557 -0.84803,0.50357 -2.11062,1.20089 -2.80575,1.5496 -1.62792,0.81664 -1.6156,0.80635 -1.43653,1.19937 0.0798,0.17508 0.19546,0.28716 0.2571,0.24907 0.0616,-0.0381 0.0804,0.0131 0.0418,0.11387 -0.0663,0.17268 0.078,0.56317 0.76092,2.05911 0.15865,0.34757 0.29475,0.66188 0.30243,0.69846 0.0291,0.13852 1.32629,3.16347 1.71158,3.99121 0.25844,0.55523 0.42333,1.15235 0.46065,1.66824 0.0575,0.79434 0.0515,0.8106 -0.521,1.42875 -0.73579,0.79441 -1.51578,1.04155 -2.3979,0.75979 -1.02737,-0.32815 -1.03051,-0.33328 -2.97381,-4.85458 -0.5661,-1.3171 -1.22908,-2.86674 -1.4733,-3.44365 -0.24422,-0.57691 -0.47526,-1.08015 -0.51343,-1.11832 -0.0382,-0.0382 -0.89324,0.20378 -1.90014,0.53768 -1.0069,0.33389 -2.26461,0.71566 -2.79491,0.84836 -0.74183,0.18563 -0.94948,0.28819 -0.90041,0.44472 0.0351,0.1119 0.30278,1.52054 0.59488,3.13033 0.60411,3.32931 0.77141,4.1904 0.94648,4.8714 0.35214,1.36983 -0.27172,2.60896 -1.49668,2.97273 -0.9023,0.26795 -1.67059,0.0806 -2.29182,-0.55904 -0.49854,-0.51327 -0.60702,-0.84416 -1.01451,-3.09433 -0.15239,-0.84148 -0.33033,-1.79937 -0.39543,-2.12864 -0.0651,-0.32927 -0.28054,-1.45936 -0.47876,-2.51129 l -0.36039,-1.91261 -0.8108,0.0912 c -1.42899,0.16068 -4.52812,0.46653 -4.76873,0.47061 -0.21736,0.004 -0.23282,0.32243 -0.23282,4.79767 0,5.13475 -0.0231,5.33535 -0.68314,5.94293 -0.49609,0.45664 -1.16792,0.66574 -1.84463,0.57411 z m 114.84253,-0.14112 c -0.57931,-0.26387 -1.01863,-0.70903 -1.21737,-1.23354 -0.0909,-0.23999 -0.1419,-2.09185 -0.1419,-5.15531 0,-4.46293 -0.0155,-4.78105 -0.23282,-4.78474 -0.24062,-0.004 -3.33975,-0.30993 -4.76874,-0.47061 l -0.8108,-0.0912 -0.36039,1.91261 c -0.19822,1.05193 -0.41366,2.18201 -0.47876,2.51129 -0.0651,0.32927 -0.24304,1.28716 -0.39542,2.12864 -0.40749,2.25017 -0.51598,2.58106 -1.01452,3.09433 -0.62123,0.63959 -1.38952,0.82699 -2.29182,0.55904 -1.22496,-0.36378 -1.84882,-1.6029 -1.49668,-2.97273 0.17507,-0.681 0.34237,-1.54209 0.94648,-4.8714 0.29211,-1.60979 0.5598,-3.01844 0.59488,-3.13033 0.0491,-0.15653 -0.15858,-0.25909 -0.9004,-0.44472 -0.53031,-0.1327 -1.78802,-0.51447 -2.79492,-0.84836 -1.0069,-0.3339 -1.86196,-0.57586 -1.90013,-0.53768 -0.0382,0.0382 -0.26922,0.54141 -0.51344,1.11832 -3.33702,7.88293 -3.38112,7.96527 -4.44711,8.30087 -0.88375,0.27823 -1.66372,0.0302 -2.3979,-0.76243 -0.57254,-0.61815 -0.57847,-0.63441 -0.521,-1.42875 0.0373,-0.51589 0.20221,-1.11301 0.46065,-1.66824 0.38529,-0.82774 1.6825,-3.85269 1.71158,-3.99121 0.008,-0.0366 0.14378,-0.35089 0.30244,-0.69846 0.68288,-1.49594 0.82718,-1.88643 0.76091,-2.05911 -0.0387,-0.10072 -0.0198,-0.15196 0.0418,-0.11387 0.0616,0.0381 0.17733,-0.074 0.25711,-0.24907 0.17906,-0.39302 0.19138,-0.38273 -1.43654,-1.19937 -0.69513,-0.34871 -1.95772,-1.04603 -2.80575,-1.5496 -0.84802,-0.50356 -1.57536,-0.91557 -1.6163,-0.91557 -0.041,0 -0.19191,0.22451 -0.33547,0.4989 -0.14356,0.2744 -0.50881,0.96288 -0.81167,1.52997 -0.7444,1.39383 -1.43793,2.69858 -2.28062,4.29054 -0.38733,0.73172 -0.78536,1.45492 -0.88453,1.60711 -0.0991,0.15218 -0.13517,0.32181 -0.08,0.37694 0.0551,0.0551 0.0404,0.0859 -0.0328,0.0684 -0.0732,-0.0175 -0.42639,0.10403 -0.78494,0.27004 -0.51824,0.23998 -0.77736,0.28348 -1.26388,0.2122 -0.33659,-0.0493 -0.71236,-0.0989 -0.83503,-0.11008 -0.12268,-0.0112 -0.19936,-0.0588 -0.17041,-0.10561 0.029,-0.0469 -0.1004,-0.2286 -0.28746,-0.40388 -0.85678,-0.80277 -0.90779,-1.94279 -0.14641,-3.27179 0.25979,-0.45347 0.51538,-0.96235 0.56798,-1.13085 0.0526,-0.16849 0.14083,-0.3363 0.19604,-0.37288 0.0552,-0.0366 0.62381,-1.05435 1.26355,-2.26168 0.63973,-1.20734 1.37974,-2.59962 1.64446,-3.09396 0.40175,-0.75024 0.44937,-0.9192 0.28809,-1.02228 -0.10626,-0.0679 -0.24244,-0.0931 -0.30263,-0.0559 -0.0602,0.0372 -0.093,0.008 -0.0729,-0.0646 0.0201,-0.0727 -0.29271,-0.41219 -0.69516,-0.75435 -3.05448,-2.59691 -4.052,-3.59528 -4.18514,-4.18872 -0.19458,-0.86727 -0.13836,-1.28668 0.25616,-1.91083 0.45088,-0.71331 1.05283,-1.04414 1.91999,-1.05521 0.76914,-0.01 1.10938,0.1738 2.16809,1.17 1.44287,1.3577 2.16123,1.93505 2.328,1.87105 0.0891,-0.0342 0.13119,0.014 0.0949,0.10865 -0.038,0.0991 0.3676,0.49825 0.97132,0.95589 0.57012,0.43217 1.06652,0.8221 1.10311,0.8665 0.16525,0.20054 3.1281,2.21279 4.3238,2.93655 1.42782,0.86426 3.38114,1.88115 5.40909,2.81595 0.95888,0.442 3.47954,1.42731 3.77068,1.47393 0.0732,0.0117 0.19291,0.0586 0.26608,0.10413 0.1973,0.12285 2.72521,0.83395 4.32381,1.21629 3.94977,0.94466 6.0976,1.18905 10.57669,1.20341 3.38642,0.0109 4.21394,-0.0433 7.05113,-0.46143 4.78216,-0.70478 10.62393,-2.61671 14.70094,-4.81142 0.54879,-0.29542 1.32708,-0.71436 1.72952,-0.93097 0.70832,-0.38124 4.18314,-2.64621 4.72293,-3.0785 0.14634,-0.1172 0.5228,-0.39455 0.83657,-0.61633 0.33392,-0.23602 0.53228,-0.46505 0.47834,-0.55232 -0.0556,-0.09 -0.0321,-0.11199 0.0594,-0.0554 0.16134,0.0997 1.11425,-0.65572 3.05993,-2.42581 0.98913,-0.89986 3.17215,-3.08045 3.12805,-3.12455 -0.0629,-0.0629 0.14979,-0.0949 1.16014,-0.17457 0.73835,-0.0582 0.94962,-0.0237 1.36938,0.22402 0.99874,0.58927 1.34148,2.14589 0.69721,3.16648 -0.33054,0.52361 -3.63602,3.72509 -5.10154,4.94104 -0.45733,0.37943 -0.83126,0.72961 -0.83096,0.77816 3.1e-4,0.0485 0.2047,0.41753 0.45422,0.81998 0.24951,0.40245 0.67731,1.10388 0.95067,1.55875 0.27335,0.45487 0.55715,0.78986 0.63066,0.74443 0.0748,-0.0462 0.0926,-0.0162 0.0405,0.0681 -0.0512,0.0829 0.36093,0.88538 0.9159,1.78333 0.55496,0.89796 1.06194,1.72245 1.12661,1.83221 0.90936,1.54345 0.95822,1.65989 0.97101,2.31428 0.008,0.38789 -0.0771,0.85028 -0.19754,1.07824 -0.22936,0.43425 -0.76836,1.09652 -0.76836,0.9441 0,-0.0519 -0.13305,-10e-4 -0.29568,0.11268 -0.17432,0.1221 -0.57578,0.2071 -0.97813,0.2071 -1.15188,0 -1.66561,-0.50228 -3.19759,-3.12644 -0.34174,-0.58538 -0.67284,-1.08428 -0.73578,-1.10867 -0.0629,-0.0244 -0.11442,-0.10221 -0.11442,-0.17294 0,-0.0707 -0.57655,-1.07507 -1.28123,-2.23187 l -1.28122,-2.10328 -1.54588,0.95982 c -0.85023,0.5279 -1.96496,1.18877 -2.47716,1.4686 -1.42627,0.77922 -1.67003,0.9418 -1.5668,1.04503 0.0524,0.0524 -0.008,0.0557 -0.13352,0.007 -0.15991,-0.0614 -0.22876,-0.0211 -0.22876,0.13386 0,0.13366 0.061,0.18396 0.15359,0.12672 0.0973,-0.0602 0.11739,-0.0363 0.0548,0.0649 -0.0857,0.13865 0.24839,1.00524 1.27212,3.29972 0.13696,0.30697 0.24902,0.58957 0.24902,0.628 0,0.0384 0.14386,0.38596 0.31969,0.77228 0.17584,0.38632 0.63154,1.44543 1.01268,2.35357 0.59992,1.42945 0.68453,1.73893 0.63015,2.30485 -0.07,0.72804 -0.3729,1.21779 -1.02989,1.66493 -0.34208,0.23282 -0.62755,0.29934 -1.28452,0.29934 -0.77996,0 -0.88457,-0.036 -1.3648,-0.46987 -0.33243,-0.30033 -0.63967,-0.76836 -0.85149,-1.29714 -0.18228,-0.455 -0.4803,-1.15655 -0.66227,-1.55899 -0.18197,-0.40245 -0.52091,-1.18073 -0.75319,-1.72952 -0.23228,-0.5488 -0.47623,-1.11754 -0.54211,-1.26389 -0.0659,-0.14634 -0.39606,-0.92463 -0.73371,-1.72952 -0.33765,-0.80489 -0.65636,-1.5073 -0.70824,-1.56091 -0.0519,-0.0536 -0.80508,0.16721 -1.67378,0.49072 -0.86869,0.32351 -2.20425,0.75622 -2.96791,0.96158 l -1.38846,0.37337 0.0846,0.4663 c 0.0465,0.25647 0.13668,0.79558 0.20036,1.19802 0.0637,0.40245 0.36033,2.1553 0.65925,3.89522 0.64973,3.78192 0.66403,4.13851 0.1938,4.83144 -0.43869,0.64643 -0.63934,0.79403 -1.35308,0.99527 -0.44392,0.12517 -0.69006,0.12587 -1.09979,0.003 -0.67791,-0.20311 -1.40148,-0.83982 -1.57214,-1.38342 -0.0735,-0.23416 -0.44595,-2.31158 -0.82763,-4.6165 -0.38167,-2.30492 -0.73247,-4.23585 -0.77954,-4.29096 -0.0471,-0.0551 -0.6811,-0.0152 -1.40893,0.0888 -0.72784,0.10393 -2.11455,0.26106 -3.08159,0.34917 l -1.75825,0.1602 -0.0378,5.03077 -0.0378,5.03077 -0.39912,0.41917 c -0.52885,0.55541 -0.80758,0.69726 -1.56761,0.79773 -0.46026,0.0609 -0.77317,0.0218 -1.13084,-0.14112 z"
       id="path1"
       sodipodi:nodetypes="cscccsssssscsssscssssssssssssssssssssscsssssssssssssssssssssssssssssssssssssssssssssssssssssssssssssssssssssssssssssssssssssssssscscsscccsscscssssssssssssssssssssssssssssssssssssssssssssssssssssssssssssssssssssssssssssssssssssssscssssssssssssssssssssssscssssscssssscccsscc" />
  </g>
</svg>
