<?xml version="1.0" encoding="UTF-8" standalone="no"?>
<!-- Created with Inkscape (http://www.inkscape.org/) -->

<svg
   version="1.1"
   id="svg1"
   width="76.199997mm"
   height="76.199997mm"
   viewBox="0 0 287.99999 287.99999"
   sodipodi:docname="olimpo.svg"
   inkscape:version="1.3.2 (091e20e, 2023-11-25, custom)"
   xmlns:inkscape="http://www.inkscape.org/namespaces/inkscape"
   xmlns:sodipodi="http://sodipodi.sourceforge.net/DTD/sodipodi-0.dtd"
   xmlns:xlink="http://www.w3.org/1999/xlink"
   xmlns="http://www.w3.org/2000/svg"
   xmlns:svg="http://www.w3.org/2000/svg"
   xmlns:inkstitch="http://inkstitch.org/namespace">
  <sodipodi:namedview
     id="namedview1"
     pagecolor="#ff00e2"
     bordercolor="#000000"
     borderopacity="0.25"
     inkscape:showpageshadow="2"
     inkscape:pageopacity="0.0"
     inkscape:pagecheckerboard="0"
     inkscape:deskcolor="#d1d1d1"
     inkscape:zoom="2.1139546"
     inkscape:cx="190.40144"
     inkscape:cy="170.53346"
     inkscape:window-width="1855"
     inkscape:window-height="1057"
     inkscape:window-x="57"
     inkscape:window-y="-8"
     inkscape:window-maximized="1"
     inkscape:current-layer="g2"
     inkscape:document-units="mm"
     showguides="false" />
  <metadata
     id="metadata25">
    <inkstitch:min_stitch_len_mm>0</inkstitch:min_stitch_len_mm>
    <inkstitch:collapse_len_mm>3</inkstitch:collapse_len_mm>
    <inkstitch:inkstitch_svg_version>1</inkstitch:inkstitch_svg_version>
  </metadata>
  <defs
     id="defs1">
    <symbol
       id="inkstitch_trim">
      <title
         id="inkstitch_title9282">Trim the thread after sewing this object.</title>
      <path
         id="inkstitch_circle13405"
         d="m 9.2465284,-8.6e-6 c 1.8e-6,2.452339 -0.9741847,4.804237 -2.7082493,6.538304 C 4.8042146,8.2723614 2.4523174,9.2465504 -2.1625959e-5,9.2465514 -2.4523623,9.2465534 -4.8042621,8.2723654 -6.5383288,6.5382984 -8.2723956,4.8042314 -9.2465834,2.4523324 -9.2465816,-8.6e-6 c 6e-7,-2.452339 0.9741895,-4.804237 2.708256,-6.538301 1.7340665,-1.734065 4.0859648,-2.708252 6.538303974041,-2.70825 C 5.1067066,-9.2465576 9.2465271,-5.1067366 9.2465284,-8.6e-6 c 0,0 0,0 0,0"
         style="opacity:1;vector-effect:none;fill:#fafafa;fill-opacity:1;fill-rule:evenodd;stroke:#003399;stroke-width:1.06500006;stroke-linecap:round;stroke-linejoin:miter;stroke-miterlimit:4;stroke-dasharray:3.19500017, 3.19500017;stroke-dashoffset:0;stroke-opacity:1"
         inkscape:connector-curvature="0" />
      <path
         style="color:#000000;font-style:normal;font-variant:normal;font-weight:normal;font-stretch:normal;font-size:medium;line-height:normal;font-family:sans-serif;font-variant-ligatures:normal;font-variant-position:normal;font-variant-caps:normal;font-variant-numeric:normal;font-variant-alternates:normal;font-feature-settings:normal;text-indent:0;text-align:start;text-decoration:none;text-decoration-line:none;text-decoration-style:solid;text-decoration-color:#000000;letter-spacing:normal;word-spacing:normal;text-transform:none;writing-mode:lr-tb;direction:ltr;text-orientation:mixed;dominant-baseline:auto;baseline-shift:baseline;text-anchor:start;white-space:normal;shape-padding:0;clip-rule:nonzero;display:inline;overflow:visible;visibility:visible;opacity:1;isolation:auto;mix-blend-mode:normal;color-interpolation:sRGB;color-interpolation-filters:linearRGB;solid-color:#000000;solid-opacity:1;vector-effect:none;fill:#050505;fill-opacity:1;fill-rule:evenodd;stroke:none;stroke-width:1.41421342;stroke-linecap:butt;stroke-linejoin:miter;stroke-miterlimit:4;stroke-dasharray:none;stroke-dashoffset:0;stroke-opacity:1;color-rendering:auto;image-rendering:auto;shape-rendering:auto;text-rendering:auto;enable-background:accumulate"
         d="m -3.0000256,-5.9834096 c -1.30575,0 -2.375,1.06924 -2.375,2.375 0,1.30575 1.06925,2.375 2.375,2.375 0.58687,0 1.11944,-0.22369 1.53516,-0.58007 0,0 0.61717997,1.62109 0.61717997,1.62109 0,0 -2.29881997,6.01758 -2.29881997,6.01758 0.98655,-0.12511 1.23728,-0.26171 1.67382,-0.97461 0,0 1.33007997,-3.18945 1.33007997,-3.18945 0,0 1.23633003,3.25 1.23633003,3.25 0.23227,0.77906 0.84315,0.79218 1.57813,1.07226 0,0 -2.05469003,-6.14258 -2.05469003,-6.14258 0,0 0.73047003,-1.75 0.73047003,-1.75 0.42849,0.41682 1.01136,0.67578 1.65234,0.67578 1.30575,0 2.375,-1.06925 2.375,-2.375 0,-1.30576 -1.06925,-2.375 -2.375,-2.375 -1.06233,0 -1.95701,0.71265 -2.25781003,1.67969 0,0 -0.0117,-0.0156 -0.0117,-0.0156 0,0 -0.80274,2.10156 -0.80274,2.10156 0,0 -0.59179,-1.76562 -0.59179,-1.76562 -0.18242,-1.12808 -1.15864997,-2 -2.33593997,-2 0,0 -2e-5,-3e-5 -2e-5,-3e-5 m 0,1 c 0.76531,0 1.375,0.60968 1.375,1.375 0,0.76531 -0.60969,1.375 -1.375,1.375 -0.76531,0 -1.375,-0.60969 -1.375,-1.375 0,-0.76532 0.60969,-1.375 1.375,-1.375 0,0 0,0 0,0 m 6,0 c 0.76531,0 1.375,0.60968 1.375,1.375 0,0.76531 -0.60969,1.375 -1.375,1.375 -0.76531,0 -1.375,-0.60969 -1.375,-1.375 0,-0.76532 0.60969,-1.375 1.375,-1.375 0,0 0,0 0,0"
         id="inkstitch_path13416"
         inkscape:connector-curvature="0" />
    </symbol>
  </defs>
  <g
     inkscape:groupmode="layer"
     inkscape:label="Image"
     id="g1">
    <g
       id="g2"
       transform="matrix(1.07581 0 0 1.07581 -6.50598 -6.19421)">
      <path
         style="display:inline;fill:#fce400"
         d="m 141.76952,271.49329 c -1.68835,-0.73231 -2.16016,-1.2945 -3.86231,-4.60221 -4.09764,-7.96275 -10.20283,-12.32672 -25.74721,-18.40402 -3.52,-1.37619 -9.496,-3.71597 -13.28,-5.1995 -11.848765,-4.64536 -21.121641,-9.63435 -27.935516,-15.02984 -3.216682,-2.5471 -8.372923,-7.77327 -10.68351,-10.8284 -3.079645,-4.072 -4.781238,-6.87249 -7.143612,-11.75696 -6.243485,-12.9091 -9.000291,-27.4546 -9.024892,-47.61727 -0.01033,-8.46954 0.0362,-9.25198 0.630158,-10.59471 0.352724,-0.79739 1.17062,-1.85352 1.817548,-2.34695 1.045404,-0.79737 1.55682,-0.92623 4.598027,-1.15854 5.7954,-0.44269 9.189721,-1.61049 10.974499,-3.77574 2.95714,-3.58752 -1.487958,-6.31154 -8.921045,-5.46693 -4.096712,0.4655 -6.312496,-0.39859 -7.648865,-2.98285 -0.980891,-1.89683 -0.68331,-3.86803 1.12849,-7.47523 4.071351,-8.10582 8.23922,-19.33195 10.252163,-27.61414 2.608653,-10.733214 3.644904,-19.308753 3.654144,-30.24 0.0067,-7.920288 -0.304881,-12.227018 -1.423649,-19.678237 -0.723233,-4.816883 -0.59623,-5.909341 0.892702,-7.678835 1.424532,-1.69296 2.396922,-1.988316 7.462758,-2.266756 5.466737,-0.300474 8.496539,-1.015446 12.6506,-2.985285 5.569863,-2.641207 9.973057,-6.642718 14.395028,-13.081837 1.790662,-2.6075 2.533914,-3.414755 3.672777,-3.98905 2.054765,-1.036159 3.141025,-0.910329 7.322905,0.848275 11.81112,4.966922 24.40104,7.385122 38.44929,7.385122 14.04825,0 26.63817,-2.4182 38.44929,-7.385122 4.18188,-1.758604 5.26814,-1.884434 7.32291,-0.848275 1.13886,0.574295 1.88211,1.38155 3.67277,3.98905 4.42197,6.439119 8.82517,10.44063 14.39503,13.081837 4.15406,1.969839 7.18386,2.684811 12.6506,2.985285 5.06592,0.278444 6.03822,0.573786 7.46287,2.266885 1.44724,1.719948 1.59328,3.009044 0.87959,7.763919 -1.10531,7.363937 -1.41732,11.697663 -1.41065,19.593024 0.009,10.931247 1.04549,19.506786 3.65414,30.24 2.01295,8.28219 6.18082,19.50832 10.25217,27.61414 1.8118,3.6072 2.10938,5.5784 1.12849,7.47523 -1.33976,2.5908 -3.54997,3.4486 -7.67732,2.97962 -7.62935,-0.86691 -12.16889,2.14201 -8.60639,5.70451 2.18892,2.18892 4.94727,3.10286 10.6883,3.54139 3.0412,0.23231 3.55262,0.36117 4.59802,1.15854 0.64693,0.49343 1.46483,1.54956 1.81755,2.34695 0.59396,1.34273 0.64049,2.12517 0.63016,10.59471 -0.0246,20.16267 -2.78141,34.70817 -9.02489,47.61727 -2.36238,4.88447 -4.06397,7.68496 -7.14361,11.75696 -2.31059,3.05513 -7.46683,8.2813 -10.68351,10.8284 -6.81388,5.39549 -16.08675,10.38448 -27.93552,15.02984 -3.784,1.48353 -9.76,3.82331 -13.28,5.1995 -15.54438,6.0773 -21.64957,10.44127 -25.74721,18.40402 -1.7205,3.34337 -2.18156,3.8844 -3.93422,4.61672 -1.46999,0.6142 -2.95084,0.6093 -4.38905,-0.0145 z M 144.43578,265.2 c 0.44873,-1.74496 3.34218,-5.9698 5.91961,-8.64348 4.89112,-5.07376 11.6192,-8.96093 23.40461,-13.5221 21.18107,-8.19745 26.64104,-10.66599 33.44,-15.11874 18.75564,-12.28336 28.17046,-30.11016 30.54458,-57.83568 0.18085,-2.112 0.3303,-7.52676 0.33212,-12.03279 l 0.003,-8.19279 -2.77712,-0.21347 c -5.79437,-0.44539 -9.89816,-2.00242 -12.95159,-4.914 -2.20455,-2.10213 -3.24685,-4.29213 -3.25337,-6.83575 -0.0151,-5.89875 6.55116,-9.76896 15.3671,-9.05747 l 2.62503,0.21185 -2.34438,-5.08279 c -11.6385,-25.233113 -15.455,-49.332909 -11.99588,-75.749497 0.36491,-2.786689 0.61548,-5.109525 0.55684,-5.161857 -0.0587,-0.05233 -1.9127,-0.253407 -4.12013,-0.446832 -10.39339,-0.910717 -17.89041,-4.448031 -24.9465,-11.770493 -1.848,-1.917762 -4.19975,-4.741595 -5.22612,-6.275185 l -1.86612,-2.788346 -0.95327,0.492956 c -3.97116,2.053566 -13.09522,4.969122 -19.79449,6.325251 -8.38291,1.696947 -11.25594,1.946621 -22.4,1.946621 -11.14406,0 -14.01709,-0.249674 -22.4,-1.946621 -6.69927,-1.356129 -15.82333,-4.271685 -19.79449,-6.325251 l -0.95327,-0.492956 -1.866119,2.788346 C 97.959754,26.092516 95.608,28.916349 93.76,30.834111 86.703905,38.156573 79.206885,41.693887 68.813495,42.604604 c -2.207422,0.193425 -4.061477,0.394499 -4.120121,0.446832 -0.05865,0.05233 0.191931,2.375168 0.556834,5.161857 2.468094,18.848302 1.179077,36.646272 -3.939279,54.391207 -2.186422,7.58015 -4.362958,13.35021 -8.056595,21.35829 l -2.344382,5.08279 2.625024,-0.21185 c 8.815941,-0.71149 15.38223,3.15872 15.367104,9.05747 -0.0065,2.54362 -1.048816,4.73362 -3.253371,6.83575 -3.053431,2.91158 -7.157222,4.46861 -12.951589,4.914 l -2.77712,0.21347 0.0033,8.19279 c 0.0018,4.50603 0.151269,9.92079 0.332119,12.03279 2.374123,27.72552 11.788935,45.55232 30.544579,57.83568 6.798964,4.45275 12.258929,6.92129 33.440002,15.11874 11.78541,4.56117 18.51349,8.44834 23.40461,13.5221 2.57743,2.67368 5.47088,6.89852 5.91961,8.64348 0.10184,0.396 0.29794,0.72 0.43578,0.72 0.13784,0 0.33394,-0.324 0.43578,-0.72 z M 142.88,255.76073 c -1.44304,-2.76245 -4.60207,-5.89216 -8.70594,-8.62515 L 130.56,244.72879 V 220.8897 197.05062 l 0.72256,0.18135 c 7.117,1.78625 18.31788,1.78625 25.43488,0 l 0.72256,-0.18135 v 23.83908 23.83909 l -3.61406,2.40679 c -4.10387,2.73299 -7.2629,5.8627 -8.70594,8.62515 -0.528,1.01076 -1.032,1.83775 -1.12,1.83775 -0.088,0 -0.592,-0.82699 -1.12,-1.83775 z m -41.44,-22.51499 c -6.337663,-2.55991 -14.180639,-6.51686 -18.32,-9.24284 l -3.44,-2.26541 V 133.79254 45.847581 l 2.870957,-1.026967 c 5.038901,-1.802461 10.736544,-5.748831 14.516431,-10.054544 1.738016,-1.979795 5.173692,-6.609317 5.392852,-7.266779 0.0759,-0.227712 0.77089,-0.06517 1.94887,0.455782 l 1.83089,0.809708 v 37.801594 37.801595 l -2.41013,2.61601 C 94.600617,117.00164 89.285251,130.52924 89.285251,144 c 0,13.46509 5.496944,27.41416 14.636649,37.14204 l 2.3219,2.47132 -0.0819,25.75329 -0.0819,25.75328 z m 80.32,-23.86907 v -25.76735 l 2.32,-2.4693 c 9.13771,-9.72576 14.63475,-23.67613 14.63475,-37.14002 0,-13.47076 -5.31537,-26.99836 -14.54462,-37.01602 L 181.76,104.36797 V 66.566375 28.764781 l 1.83089,-0.809708 c 1.17798,-0.520957 1.87297,-0.683494 1.94887,-0.455782 0.21916,0.657462 3.65484,5.286984 5.39285,7.266779 3.77989,4.305713 9.47753,8.252083 14.51643,10.054544 l 2.87096,1.026967 v 87.941219 87.94122 l -3.2214,2.12409 c -5.24609,3.4591 -12.98263,7.28441 -21.0186,10.39257 l -2.32,0.89733 z m -41.76254,-17.3854 c -8.05987,-0.66416 -16.04057,-3.492 -23.11795,-8.19149 -3.89109,-2.58376 -10.26847,-8.99593 -12.84968,-12.91978 -9.552001,-14.52063 -10.808832,-32.31787 -3.37843,-47.84 4.75772,-9.93889 13.92391,-18.78991 23.88179,-23.060649 6.67007,-2.860662 12.24421,-4.008442 19.46681,-4.008442 5.50154,0 9.55251,0.578935 14.02681,2.00461 8.57134,2.731141 14.83832,6.648021 21.07271,13.170501 13.57675,14.20413 16.90765,35.90099 8.26131,53.81266 -2.40716,4.98663 -5.03557,8.60775 -9.41564,12.97175 -8.5913,8.55978 -18.3424,13.07295 -30.40552,14.0728 -2.03482,0.16865 -3.91567,0.2884 -4.17967,0.2661 -0.264,-0.0223 -1.77714,-0.14742 -3.36254,-0.27806 z m -5.48061,-4.8145 0.84315,-0.66322 0.0253,-15.73678 c 0.0139,-8.65522 0.10873,-15.52428 0.21074,-15.26457 0.10201,0.25972 1.64959,7.35753 3.43908,15.77292 1.89197,8.89732 3.44431,15.48738 3.70927,15.74674 0.88455,0.86586 2.06402,0.91046 2.94941,0.11153 0.75275,-0.67925 1.10865,-2.09168 4.12504,-16.37068 l 3.3012,-15.62728 0.16,15.73574 0.16,15.73574 0.75545,0.61155 c 0.9709,0.78594 1.67348,0.7726 2.7214,-0.0517 L 157.76,186.51355 V 159.2 131.88645 l -0.88,-0.69369 c -1.04915,-0.82703 -3.02985,-0.71494 -3.94189,0.22309 -0.4248,0.4369 -1.57283,5.78691 -4.55439,21.22415 -2.56433,13.27702 -4.05971,20.35461 -4.19186,19.84 -0.113,-0.44 -1.92558,-9.71919 -4.02797,-20.62043 -2.99853,-15.54785 -3.95267,-19.95057 -4.42625,-20.42415 -0.33205,-0.33205 -1.18991,-0.68235 -1.90635,-0.77844 -1.10326,-0.14798 -1.42881,-0.0486 -2.12696,0.6496 L 130.88,132.13091 V 159.2 186.26909 l 0.78545,0.78546 c 0.95957,0.95956 1.74414,0.99319 2.8514,0.12222 z m -5.10394,-1.86684 c 0.35201,-0.38896 0.51495,-0.99743 0.4496,-1.67889 -0.0975,-1.0171 -0.27795,-1.1562 -3.728,-2.87448 -1.99401,-0.99311 -4.04601,-2.20855 -4.56,-2.70098 L 120.64,177.16026 v -22.51467 -22.51468 l -0.8161,-0.8161 c -0.63286,-0.63286 -1.01009,-0.76937 -1.68,-0.60794 -0.47515,0.11449 -1.0439,0.4438 -1.2639,0.73181 -0.31152,0.40781 -0.4,5.66359 -0.4,23.76031 v 23.23667 l 0.78588,1.0652 c 1.16335,1.57683 3.8052,3.45699 7.05412,5.02029 3.18321,1.53168 4.26848,1.69977 5.09291,0.78878 z m 32.88189,-0.55953 c 0.5456,-0.49376 0.5852,-1.28406 0.5852,-11.68 V 161.92 h 2.77897 c 3.28555,0 5.14001,-0.7156 6.16896,-2.38048 0.62732,-1.01501 0.65207,-1.53551 0.65207,-13.71112 0,-6.96083 -0.0898,-12.88997 -0.19947,-13.17586 -0.5354,-1.39523 -5.16564,-2.60407 -8.12053,-2.12006 -2.31086,0.37851 -4.42189,1.24102 -4.80934,1.96496 -0.19341,0.36141 -0.31066,10.18952 -0.31066,26.04152 0,25.03437 0.0107,25.47176 0.64,26.10104 0.77818,0.77818 1.82795,0.8225 2.6148,0.1104 z m 0.71872,-27.42401 c -0.0915,-0.23848 -0.12299,-5.21937 -0.07,-11.06863 l 0.0964,-10.63503 0.75545,-0.61136 c 1.04319,-0.84423 3.34738,-0.82854 4.20455,0.0286 0.6141,0.6141 0.64,1.06667 0.64,11.18185 0,10.5309 -7.4e-4,10.54238 -0.7112,11.04 -0.92619,0.64873 -4.67223,0.69792 -4.91528,0.0645 z m -36.17667,17.69038 0.84315,-0.66322 V 153.12 131.88645 l -0.84315,-0.66322 c -1.09241,-0.85929 -1.57309,-0.83608 -2.5314,0.12222 L 123.52,132.13091 V 153.12 174.10909 l 0.78545,0.78546 c 0.95831,0.9583 1.43899,0.98151 2.5314,0.12222 z M 113.856,174.656 c 0.29088,-0.29088 0.384,-5.48814 0.384,-21.43262 v -21.04863 l -0.75884,-0.49721 c -1.19034,-0.77994 -5.83902,-1.53968 -8.02733,-1.31192 -2.74133,0.28532 -5.590682,1.1532 -5.942142,1.80991 -0.66603,1.24449 -1.061822,9.78475 -0.670128,14.45978 0.817885,9.76178 3.24114,16.8375 7.88593,23.02633 3.49886,4.66195 5.82863,6.29424 7.12851,4.99436 z m -4.96888,-8.336 c -4.13147,-6.1307 -6.5236,-14.76632 -6.46012,-23.32107 0.0355,-4.778 0.35529,-7.19837 1.04196,-7.88504 0.81453,-0.81452 5.70046,-0.80153 6.51961,0.0173 0.53122,0.53103 0.57766,1.71891 0.65991,16.88 0.0487,8.96982 -0.0245,16.30877 -0.16254,16.30877 -0.13806,0 -0.85753,-0.9 -1.59882,-2 z m 68.90999,7.37163 c 3.40824,-3.14161 7.17946,-9.20572 8.93518,-14.36778 2.10837,-6.19884 3.02252,-14.43108 2.43056,-21.88792 -0.20506,-2.58317 -0.5086,-4.95035 -0.67454,-5.2604 -0.35146,-0.65671 -3.20081,-1.52459 -5.94214,-1.80991 -2.18831,-0.22776 -6.83699,0.53198 -8.02733,1.31192 l -0.75884,0.49721 v 21.04863 c 0,15.94448 0.0931,21.14174 0.384,21.43262 0.78549,0.78549 2.14372,0.42693 3.65311,-0.96437 z m -0.44559,-21.6804 c 0.0823,-15.16109 0.12869,-16.34897 0.65991,-16.88 0.81915,-0.81887 5.70508,-0.83186 6.51961,-0.0173 0.68667,0.68667 1.0065,3.10704 1.04196,7.88504 0.0485,6.53554 -1.32973,13.20424 -3.84393,18.59931 -1.29955,2.78861 -3.7659,6.72176 -4.21501,6.72176 -0.13806,0 -0.21121,-7.33895 -0.16254,-16.30877 z m 4.46328,-24.54083 c 0.8174,-0.73973 0.75209,-2.19721 -0.126,-2.81225 -0.63353,-0.44375 -4.66992,-0.49815 -36.96,-0.49815 -19.93684,0 -36.2488,-0.0789 -36.2488,-0.17537 0,-0.46013 2.5495,-4.09637 4.51174,-6.4349 5.08395,-6.05887 12.72656,-10.74038 20.88613,-12.79388 4.34462,-1.09341 12.06261,-1.39325 16.40555,-0.63735 8.58425,1.4941 15.50462,5.07144 21.87658,11.30864 2.57577,2.52129 3.56116,3.28939 4.22185,3.2909 0.92474,0.002 1.85815,-1.00093 1.85815,-1.99675 0,-0.31697 -1.17166,-1.79673 -2.60369,-3.28837 -5.84623,-6.08957 -12.6969,-10.14662 -20.75631,-12.29216 -3.82483,-1.01822 -6.56671,-1.340117 -11.36,-1.333648 -6.98908,0.0094 -12.9425,1.320548 -18.88,4.157908 -9.33526,4.46105 -15.86092,10.84673 -20.61625,20.17401 L 102.05531,128 h 39.58715 c 36.38719,0 39.63445,-0.0428 40.17234,-0.5296 z M 130.63824,62.995133 c 0.0811,-27.740592 0.0867,-27.954603 0.72176,-27.886023 5.4852,0.592316 13.32636,0.779977 18.64,0.446107 3.3,-0.207349 6.288,-0.408096 6.64,-0.446107 0.63509,-0.06858 0.64063,0.145431 0.72176,27.886023 l 0.0818,27.955134 -0.72433,-0.181795 c -7.11965,-1.786918 -18.31875,-1.786918 -25.4384,0 l -0.72433,0.181795 z"
         id="path3" />
      <path
         id="path13"
         style="stroke:#fce400;stroke-width:1px;fill:none"
         transform="matrix(0.929532 0 0 0.929532 6.04752 5.75772)"
         d="M148.3399159750212,282.4658330596522 147.6129910802104,282.08567268288414 147.39120487124117,281.8840267970489 146.83507210738856,281.0648107220238 145.73110759301878,279.01647049301226 143.81775803831428,275.7279955323532 141.47163163401675,272.60970613743456 138.684827103704,269.75357190158354 135.4108758190311,267.1306240276578 131.59847769384123,264.6807723093011 127.17511856266904,262.323379728899 122.04855420539802,259.97277704205544 116.13861713799778,257.55569038456554 101.87176378256308,251.96980007922812 92.9790081257254,248.2145761971992 85.15442026584874,244.3453335104763 81.68082327914615,242.39294995277012 78.44165934765465,240.39900528341735 75.46307515323602,238.3805008275763 72.76764752667559,236.35752291656598 70.0411224564281,233.99895020078517 66.97343833603261,231.02723885558484 64.08646571391209,227.96379927994732 61.883189745287126,225.32732481305928 59.7754718335475,222.4255565542215 57.999696248406394,219.6917374560687 56.354567737736716,216.79490940395146 54.63263088194195,213.3863872818423 52.37949373731797,208.29407629786553 50.46440564656169,203.0205067151497 48.86328191520754,197.4787085325163 47.56662934011078,191.61021707546215 46.56700762793389,185.3581783939206 45.85782749898567,178.66834312540064 45.43319358002583,171.4887740097615 45.28641274218376,163.76208520298084 45.37870833079833,155.44956832965835 45.51287456208743,154.33055931499607 45.62376925722617,154.0044330436918 46.04456670972452,153.32596450852273 46.57457081393218,152.7749304138626 46.65514238127925,152.7215605772419 46.70920252613631,152.70132714579748 49.53863293319651,152.3602489073671 53.978543307934885,151.82388260254564 57.775838029043456,150.87564674266085 59.57442787804138,150.15258617211455 61.160570589369996,149.28531211423132 62.58789486447007,148.2217352315652 63.913949380921224,146.8611626687897 65.27158470947279,144.57152460745317 65.66282501838164,142.88267490006984 65.62724686573374,141.28140021821434 65.17384108248046,139.75236994510087 64.29095567152496,138.28533816208946 62.33237420764169,136.58992573695065 59.86470210032539,135.49737921202086 57.14257209874772,134.90390724657132 54.14470404798307,134.71148224033115 51.120135494357086,134.888777554145 48.539867705338565,134.9772443793555 47.91970764088765,134.8942340334286 47.45727249628382,134.75900665521564 47.16964052762491,134.61457037334756 46.94961464168051,134.44303314874563 46.710045588315836,134.16816872749553 46.512439711979795,133.84537196980588 46.32013795102077,133.27463951535842 46.3237409286056,132.6408036986356 46.690931887272185,131.29309182836485 47.72280463235384,128.97502403115797 51.02044235598038,121.84017001191003 54.1703640344453,113.94628313284915 56.898219047070654,106.00792084720621 58.97960495730959,98.61915534774147 60.82495848710846,90.09404928131534 62.07868350223566,81.97315723327279 62.792633553144356,73.8092398642396 63.02139589952441,65.20192881004897 62.952843464520555,59.28397846807928 62.70035163677173,54.12579846433434 62.21289540416838,49.05865063224482 61.45725961993054,43.51267583197267 61.084846154256596,40.5499854649899 61.07917389710505,39.1636987086477 61.20112676379631,38.735469609536835 61.577084412314434,38.18668882896361 62.00450008341073,37.76955735302059 62.40398521580393,37.57622886369981 63.84796758949824,37.30871751443584 67.00139234715427,37.071414767626834 71.16822535367804,36.71517316408355 74.90837792843378,36.055028208560685 78.40893220407224,35.00299300027302 81.9186019613135,33.51484365331919 84.36341274683343,32.246626655708894 86.69157642467046,30.811371729410155 88.9204176548704,29.1939519485706 91.05634254236178,27.388063086345113 93.10902526647945,25.388632628672866 95.09141187748548,23.18973111079302 97.01886857071743,20.783973654597816 98.83636728470832,18.26248047933774 100.84914217005675,15.595564995780279 101.18734991451895,15.281489347531902 101.44154552400414,15.123448806448238 102.07460781402546,14.877940228758206 102.46248548261819,14.858546345328563 103.66422967936631,15.153836226021099 106.25102660832735,16.16125598739748 111.14751958188664,18.072331029266905 116.22828823834111,19.754671059581227 121.40695190651041,21.173187224320742 126.6896865400264,22.328963713935963 132.08252030522152,23.223849854820713 137.5918183307113,23.85980460446379 143.22416639205457,24.239436919549945 148.9880007374272,24.365315419211186 154.75173201964083,24.239436920705913 160.294366008049,23.86585837227429  M144.83688402497881,289.1641669403478 143.24780891978958,288.3331273171159 141.64159512875884,286.8727732029511 140.36412789261146,284.99098927797615 139.13549240698123,282.71132950698774 137.5088419616857,279.9156044676468 135.72276836598323,277.5416938625654 133.597572896296,275.3636280984165 130.99252418096887,273.2765759723422 127.77132230615861,271.2066276906987 123.81928143733096,269.10042027110103 119.04124579460198,266.9096229579445 113.32978286200222,264.5737096154345 99.02303621743691,258.9721999207719 89.83059187427459,255.0904238028008 81.62477973415126,251.03266648952368 77.84617672085383,248.9088500472299 74.33814065234534,246.74939471658263 71.07152484676399,244.5356991724237 68.0205524733244,242.24587708343404 64.9346775435719,239.57644979921483 61.59036166396737,236.33676114441514 58.4307342860879,232.98400072005265 55.918210254712875,229.97747518694072 53.543728166452496,226.70844344577853 51.5379037515936,223.62046254393132 49.69063226226328,220.36769059604853 47.79836911805805,216.6220127181577 45.36250626268203,211.11672370213446 43.272794353438314,205.36229328485027 41.53431808479246,199.3450914674837 40.137570659889235,193.02358292453786 39.07119237206611,186.35402160607939 38.322372501014314,179.29025687459935 37.87840641997417,171.7838259902385 37.72658725781625,163.79191479701913 37.82469166920167,154.95623167034165 38.10172543791256,152.64564068500394 38.74503074277382,150.7537669563082 40.042233290275476,148.66223549147728 41.70482918606781,146.9336695861374 43.19885761872075,145.9440394227581 44.906597473863684,145.3048728542025 48.633487964124356,144.85560884683582 52.60425669206512,144.37591739745434 55.43936197095654,143.66795325733918 56.34017212195862,143.30581382788543 57.06902941063001,142.9072878857687 57.36266846162016,142.68848147160662 56.08942790125228,142.41089275342867 54.12369595201693,142.28471775966884 51.47086450564291,142.440222445855 48.16533229466144,142.5535556206445 46.34849235911233,142.31036596657142 44.677727503716085,141.82179334478434 43.110559472375016,141.0348296266524 41.7287853583195,139.95756685125437 40.59455441168416,138.6562312725045 39.6209602880202,137.06582803019413 38.75406204897922,134.49296048464157 38.7704590713944,131.60839630136437 39.54986811272781,128.74770817163514 40.838795367645815,125.8521759688428 44.074357644019614,118.85162998808997 47.081435965554704,111.31571686715085 49.68018095292936,103.75307915279377 51.640795042690414,96.79304465225853 53.38904151289154,88.71655071868467 54.57011649776433,81.06624276672723 55.24236644685564,73.3791601357604 55.4612041004756,65.14527118995102 55.395956535479456,59.51262153192071 55.159048363228266,54.672801535665656 54.702904595831626,49.93114936775518 53.96214038006946,44.49432416802733 53.527753845743405,41.03861453501009 53.51582610289495,38.1235012913523 54.26867323620371,35.47993039046315 55.76311558768555,33.29851117103641 57.60489991658926,31.501042646979403 60.02681478419606,30.328971136300186 62.873032410501736,29.801682485564154 66.39580765284538,29.536585232373202 70.187374646322,29.212426835916435 73.15762207156617,28.68817179143933 75.83806779592783,27.88260699972695 78.6979980386865,26.66995634668082 80.63458725316656,25.665373344291105 82.48242357532955,24.52622827058986 84.25398234512959,23.240648051429403 85.97265745763822,21.787536913654893 87.65897473352055,20.14496737132714 89.32978812251451,18.291668889206985 90.99933142928258,16.207826345402186 92.75283271529165,13.775119520662287 95.21705782994326,10.510035004219729 96.57745008548106,9.246710652468089 98.05005447599586,8.331151193551774 100.47879218597456,7.389259771241797 103.19091451738181,7.253653654671436 105.9473703206337,7.930963773978891 108.99806905612027,9.119049703512706 113.71148041811334,10.958668970733076 118.41631176165889,12.516528940418768 123.21444809348958,13.830812775679261 128.11711345997364,14.903436286064029 133.13527969477846,15.736150145179275 138.2797816692887,16.329995395536205 143.5610336079454,16.68596308045007 148.9879992625728,16.80448458078882 154.4148679803592,16.685963079294087 159.786033991951,16.323941627725706  M109.74515749411756,253.02302396736394 105.61134088107517,263.5811538612132  M89.67105013182262,244.47061448768545 84.64508632598961,254.63438516928363  M69.0981091673105,230.45439193764784 61.20895294583249,238.59833206259802  M61.26193764808273,221.24480610243114 51.75329147483887,227.42122857808107  M55.32551007880797,210.28193037029456 44.95659146526996,214.86974830821265  M50.123150697618335,194.42162612185965 39.05164127483538,196.86789383960573  M48.09412023182538,181.83739642017187 36.81875598938118,183.0326820955939  M51.365249674704984,154.04308005013988 50.005376303424356,142.78638022027232  M50.282240377372894,133.02663806080193 50.67076431606797,144.35852209633282  M56.793105417718635,112.12884759884345 46.070000336684714,108.44407296981079  M59.616803411962664,103.32673342725194 48.70301445292212,100.25236240163012  M61.84233304017287,94.32644274143978 50.76044173573981,91.92764475861811  M63.49100909731445,85.21069107420793 52.28521966396695,83.48071135723559  M64.87451647333343,62.028250549267064 53.53673459908962,62.15958530371916  M86.76906457326324,32.983597556782485 80.81893134648043,23.331734460509637  M123.32050963896513,23.526298869819822 125.7438775402561,12.449754523289581  M146.53947099549765,26.20204877854323 146.78703856630239,14.866209288521143  "
         inkstitch:satin_column="true" />
      <path
         id="path14"
         style="stroke:#fce400;stroke-width:1px;fill:none"
         transform="matrix(0.929532 0 0 0.929532 6.04752 5.75772)"
         d="M160.47360268454773,23.84948246921012 165.89347969477848,23.22384985482072 171.28631345997366,22.328963713935963 176.5690480934896,21.173187224320735 181.7477117616588,19.754671059581263 186.8284804181135,18.072331029266877 191.72497339167268,16.16125598739747 194.31177032063368,15.15383622602111 195.51351451738182,14.858546345328564 195.90139218597454,14.877940228758202 196.53436216639037,15.123413007759357 196.7884774955195,15.28142193707304 197.12678780535566,15.595592832360682 199.13965645352795,18.26251341240135 200.95713142928267,20.783973654597933 202.88458812251443,23.189731110792913 204.86694086618044,25.388595062365074 206.91955349765396,27.388064197870197 209.05562152446157,29.193980380127645 211.2844235753295,30.811371729410112 213.61258725316648,32.24662665570884 216.05739803868664,33.51484365331925 219.56705223197218,35.00298640093693 223.06751468032832,36.05502805316097 226.80778029361517,36.715173284940086 230.97445176600496,37.071410030663245 234.12806625846596,37.308814416846054 235.5719841862322,37.57624651451121 235.97149710236556,37.76961676979996 236.3829461390901,38.17113040191868 236.73400117507074,38.69675126666108 236.87053380095813,39.197497226282756 236.86807669053573,40.65695440878205 236.5039743071959,43.609317759666034 235.75734190545978,49.10151219568935 235.27407301087896,54.147678485137824 235.02305447708522,59.296808359604526 234.95450309907747,65.20185890045738 235.18316512028085,73.80924117915623 235.8972221537701,81.97320398775277 237.1510464693118,90.09407217882949 238.9963950426904,98.61915534774148 241.07778095292934,106.00792084720615 243.80563596555476,113.94628313284927 246.9555576440197,121.84017001191026 250.253195367646,128.97502403115766 251.2850681127278,131.29309182836485 251.65223035019181,132.6406982823536 251.65579730243275,133.27453488662303 251.46335625750868,133.84568072199247 251.26450955790918,134.17062863579415 251.0250705279335,134.44541757346806 250.80656744976278,134.6156036202598 250.51985944166293,134.75909648837563 250.05540309501842,134.89403108599865 249.4286900689666,134.97676294287896 246.82071569413984,134.88525352491115 243.70316110120228,134.71254382720514 240.62476654081863,134.94044720499522 237.84306041473482,135.5964086867691 235.33661875993099,136.7889885314116 233.3952054994728,138.63701402663088 232.58216588357521,140.24084945272983 232.2564398681676,141.87110274911396 232.39160595334315,143.51868170321322 232.97306958206963,145.18417928467926 234.58372807642948,147.35760731262462 235.956893493848,148.58653644110623 237.33970181293697,149.55258915253106 238.8616924410013,150.3570892743645 240.58144787603487,151.02662683501964 244.16775131343724,151.87455843972302 248.4498017385515,152.36175987346647 251.2668039800383,152.70132958090448 251.32075276966808,152.7215213347255 251.40132430825759,152.77489793199993 251.93147918932695,153.3260385133962 252.35214918480105,154.00430154451564 252.4630424042761,154.3305099805842 252.59729287892327,155.44967728211537 252.68958725781624,163.7620852029806 252.5428069072643,171.4887483583248 252.11807360031892,178.6683447508201 251.40899108690482,185.35817686530245 250.40927214666385,191.61021841898418 249.1127098710673,197.478736961804 247.5115943534384,203.02050671514948 245.59651645488307,208.29404823164663 243.34326553362686,213.3863991578398 241.62141146546855,216.79494602403184 239.97630375159352,219.69173745606886 238.20052816645256,222.42555655422137 236.09281025471293,225.32732481305922 233.8895342860879,227.96379927994732 231.00258187698196,231.02721740704445 227.93479983931613,233.9989309139154 225.208228562827,236.3575436002734 222.51292118178822,238.38050167220686 219.53426459708265,240.3989905436628 216.295057756721,242.39296162659468 212.82155976619745,244.3453433845886 204.9969985936562,248.21457287447876 196.10413905499502,251.9697990954501 181.83737870541898,257.5556920845535 175.92744579460197,259.97277704205544 170.80088143733116,262.32337972889894 166.37752230615862,264.68077230930123 162.56515064322636,267.1306070229786 159.29106475649812,269.753573502515 156.50437595984076,272.6097054175222 154.158136136413,275.7279946340138 152.2451138488256,279.01609288875676 151.13358662015202,281.07720110558273 150.58285028855923,281.8823155441237 150.36688497893402,282.073898794026 149.8874653748273,282.3153515758352 149.3603567959262,282.47991208636125 148.9499451704873,282.52173857672256 148.55222537584442,282.4783601550526 147.75344187292575,282.21952995570774  M159.60679731545227,16.34031753078989 164.84072030522154,15.736150145179266 169.85888654002636,14.903436286064021 174.7615519065104,13.830812775679249 179.5596882383412,12.516528940418738 184.26451958188653,10.958668970733129 188.98052264461344,9.118039275430675 192.02862967936628,7.9309637739789025 194.7850854826182,7.253653654671439 197.49720781402544,7.389259771241797 199.92603783360963,8.331186992240646 201.39852250448052,9.24677806292695 202.75881219464435,10.510007167639316 205.22314354647207,13.775086587598679 206.97666857071735,16.207826345402054 208.64621187748557,18.291668889207074 210.31705913381958,20.145004937634923 212.00324650234603,21.78753580212981 213.72197847553844,23.240619619872348 215.49357642467052,24.526228270589883 217.34141274683353,25.66537334429117 219.27800196131335,26.66995634668075 222.13794776802777,27.882613599063063 224.81828531967173,28.68817194683905 227.78861970638482,29.212426715059905 231.58014823399466,29.536589969336717 235.102933741534,29.801785583153958 237.9492158137678,30.328953485488796 240.37110289763444,31.501183230200013 242.22905386090991,33.314269598081324 243.70319882492927,35.5214487333389 244.4312661990419,38.19170277371725 244.42632330946427,41.12764559121794 244.00042569280407,44.581082240333956 243.2676580945402,49.971287804310634 242.81552698912105,54.692321514862186 242.57994552291478,59.52479164039548 242.51469690092253,65.1453410995426 242.73343487971917,73.37915882084377 243.4057778462299,81.06619601224725 244.5869535306882,88.7165278211705 246.33520495730957,96.79304465225852 248.29581904707067,103.75307915279384 250.89456403444524,111.31571686715074 253.90164235598027,118.85162998808974 257.1372046323531,125.8521759688403 258.4261318872722,128.74770817163514 259.2055696498082,131.60850171764653 259.22180269756717,134.49306511337699 258.3550437424914,137.06551927800749 257.38069044209084,138.65777136420581 256.2451294720666,139.9609824265319 254.86003255023724,141.03979637974018 253.28854055833708,141.82630351162436 251.61339690498156,142.31296891400135 249.79330993103338,142.553237057121 246.47908430586017,142.43694647508886 243.77343889879774,142.28705617279485 241.7784334591814,142.43475279500478 240.71058281480776,142.68656548090584 241.28549818706304,143.08821084746896 242.00950755899868,143.47091072563546 242.83315212396514,143.79157316498035 245.46924868656276,144.41484156027698 249.3293982614485,144.85404012653353 253.06939601996172,145.3048704190955 254.77724723033194,145.94407866527447 256.2710756917424,146.93370206800006 257.93372081067304,148.6621614866038 259.23105081519884,150.7538984554842 259.87415759572394,152.64569001941575 260.15130712107674,154.95612271788434 260.2494127421837,163.7919147970194 260.0975930927356,171.78385164167662 259.6535263996811,179.2902552491799 258.9048089130952,186.35402313469754 257.8383278533362,193.02358158101535 256.4416901289327,199.345063038196 254.70320564656163,205.3622932848505 252.6134835451169,211.11675176835337 250.17753446637315,216.6220008421602 248.28538853453142,220.36765397596815 246.43809624840648,223.62046254393115 244.43227183354742,226.70844344577864 242.05778974528707,229.97747518694078 239.5452657139121,232.98400072005265 236.38561812301802,236.33678259295553 233.04120016068387,239.57646908608461 229.95537143717297,242.24585639972662 226.90447881821177,244.53569832779314 223.63773540291737,246.7494094563372 220.129742243279,248.90883837340533 216.35124023380254,251.03265661541138 208.1454014063438,255.09042712552124 198.952860945005,258.9722009045499 184.64622129458104,264.5737079154465 178.934754205398,266.9096229579445 174.15671856266886,269.1004202711011 170.20467769384138,271.2066276906987 166.98344935677366,273.2765929770214 164.37833524350188,275.36362649748503 162.25322404015927,277.54169458247776 160.46706386358701,279.9156053659862 158.84028615117438,282.71170711124324 157.59761337984799,285.0159988944173 156.29594971144078,286.9188844558763 154.64651502106597,288.38210120597404 152.73293462517273,289.3458484241648 150.88524320407382,289.92268791363875 148.9230548295127,290.12266142327746 146.96077462415556,289.90863984494734 145.42335812707427,289.41047004429225  M173.96788333802044,23.676736112351815 171.54451543672957,12.60019176582156  M213.01785249763236,34.066999437875516 218.23892155078147,24.0020610581383  M233.10561923503573,61.67004995579282 244.44339780619268,61.80166954807616  M233.77274307811925,79.37206449443472 245.0681627092557,78.38411611410514  M235.80268704166681,92.7973921489058 246.8845783460998,90.3985941660838  M237.84154683931007,101.48911523958797 248.75533579835064,98.41474421396619  M240.45045630509904,109.99737053381075 251.173561386133,106.31259590477818  M247.1037104970232,133.00462040300653 246.5789818031363,144.3310146413981  M246.28482043306474,154.01738302251331 247.56662261853324,142.75152620631926  M250.38783929775045,175.9159587637324 261.70659292264315,176.58555791593923  M249.04943871406195,188.14604718025015 260.24574604345366,189.93636805413507  M246.41058751184883,200.02296860896536 257.3036023689033,203.17015369561813  M240.43584517449477,214.9507237045625 250.556380023452,220.0631909188047  M228.7816724468633,230.5475708782879 236.67070172263766,238.69163397551603  M209.11168317978388,244.07168651576308 214.13764698561704,254.2354571973612  M185.875204223246,253.9453123614808 190.00904592499262,264.50343243233425  "
         inkstitch:satin_column="true" />
      <path
         style="fill:#010100"
         d="m 143.56422,265.2 c -0.44873,-1.74496 -3.34218,-5.9698 -5.91961,-8.64348 -4.89112,-5.07376 -11.6192,-8.96093 -23.40461,-13.5221 C 93.058929,234.83697 87.598964,232.36843 80.8,227.91568 62.044356,215.63232 52.629544,197.80552 50.255421,170.08 c -0.18085,-2.112 -0.330304,-7.52676 -0.332119,-12.03279 l -0.0033,-8.19279 2.77712,-0.21347 c 5.794367,-0.44539 9.898158,-2.00242 12.951589,-4.914 2.204555,-2.10213 3.246848,-4.29213 3.253371,-6.83575 0.01513,-5.89875 -6.551163,-9.76896 -15.367104,-9.05747 l -2.625024,0.21185 2.344382,-5.08279 C 64.89283,98.729677 68.709332,74.629881 65.250208,48.213293 c -0.364903,-2.786689 -0.615479,-5.109525 -0.556834,-5.161857 0.05864,-0.05233 1.912699,-0.253407 4.120121,-0.446832 10.39339,-0.910717 17.89041,-4.448031 24.946505,-11.770493 1.848,-1.917762 4.199754,-4.741595 5.226121,-6.275185 l 1.866119,-2.788346 0.95327,0.492956 c 3.97116,2.053566 13.09522,4.969122 19.79449,6.325251 8.38291,1.696947 11.25594,1.946621 22.4,1.946621 11.14406,0 14.01709,-0.249674 22.4,-1.946621 6.69927,-1.356129 15.82333,-4.271685 19.79449,-6.325251 l 0.95327,-0.492956 1.86612,2.788346 c 1.02637,1.53359 3.37812,4.357423 5.22612,6.275185 7.05609,7.322462 14.55311,10.859776 24.9465,11.770493 2.20743,0.193425 4.06148,0.394499 4.12013,0.446832 0.0586,0.05233 -0.19193,2.375168 -0.55684,5.161857 -2.46809,18.848302 -1.17908,36.646272 3.93928,54.391207 2.18642,7.58015 4.36296,13.35021 8.0566,21.35829 l 2.34438,5.08279 -2.62503,-0.21185 c -8.81594,-0.71149 -15.38223,3.15872 -15.3671,9.05747 0.007,2.54362 1.04882,4.73362 3.25337,6.83575 3.05343,2.91158 7.15722,4.46861 12.95159,4.914 l 2.77712,0.21347 -0.003,8.19279 c -0.002,4.50603 -0.15127,9.92079 -0.33212,12.03279 -2.37412,27.72552 -11.78894,45.55232 -30.54458,57.83568 -6.79896,4.45275 -12.25893,6.92129 -33.44,15.11874 -11.78541,4.56117 -18.51349,8.44834 -23.40461,13.5221 -2.57743,2.67368 -5.47088,6.89852 -5.91961,8.64348 -0.10184,0.396 -0.29794,0.72 -0.43578,0.72 -0.13784,0 -0.33394,-0.324 -0.43578,-0.72 z m 1.55578,-9.43927 c 1.44304,-2.76245 4.60207,-5.89216 8.70594,-8.62515 L 157.44,244.72879 V 220.8897 197.05062 l -0.72256,0.18135 c -7.117,1.78625 -18.31788,1.78625 -25.43488,0 L 130.56,197.05062 v 23.83908 23.83909 l 3.61406,2.40679 c 4.10387,2.73299 7.2629,5.8627 8.70594,8.62515 0.528,1.01076 1.032,1.83775 1.12,1.83775 0.088,0 0.592,-0.82699 1.12,-1.83775 z M 103.9219,181.14204 C 94.782195,171.41416 89.285251,157.46509 89.285251,144 c 0,-13.47076 5.315366,-26.99836 14.544619,-37.01602 L 106.24,104.36797 V 66.566375 28.764781 l -1.83089,-0.809708 c -1.17798,-0.520957 -1.87297,-0.683494 -1.94887,-0.455782 -0.21916,0.657462 -3.654836,5.286984 -5.392852,7.266779 -3.779887,4.305713 -9.47753,8.252083 -14.516431,10.054544 L 79.68,45.847581 v 87.944959 87.94495 l 3.44,2.26541 c 4.139361,2.72598 11.982337,6.68293 18.32,9.24284 l 4.64,1.87419 0.0819,-25.75328 0.0819,-25.75329 z M 190.24,231.6981 c 5.21112,-2.24084 10.97786,-5.28515 14.8586,-7.84399 l 3.2214,-2.12409 V 133.7888 45.847581 l -2.87096,-1.026967 c -5.0389,-1.802461 -10.73654,-5.748831 -14.51643,-10.054544 -1.73801,-1.979795 -5.17369,-6.609317 -5.39285,-7.266779 -0.0759,-0.227712 -0.77089,-0.06517 -1.94887,0.455782 L 181.76,28.764781 v 37.801594 37.801595 l 2.41013,2.61601 c 9.22925,10.01766 14.54462,23.54526 14.54462,37.01602 0,13.46389 -5.49704,27.41426 -14.63475,37.14002 l -2.32,2.4693 v 25.76735 25.76734 l 2.32,-0.89733 c 1.276,-0.49353 4.048,-1.64039 6.16,-2.54858 z m -42.70033,-39.69487 c 8.68262,-0.71966 16.30244,-3.37049 23.58082,-8.20345 3.89109,-2.58376 10.26847,-8.99593 12.84968,-12.91978 9.552,-14.52063 10.80883,-32.31787 3.37843,-47.84 -4.75772,-9.93889 -13.92391,-18.78991 -23.88179,-23.060649 C 156.79674,97.118689 151.2226,95.970909 144,95.970909 c -5.50154,0 -9.55251,0.578935 -14.02681,2.00461 -8.57134,2.731141 -14.83832,6.648021 -21.07271,13.170501 -9.217531,9.64347 -13.892393,22.88934 -12.877502,36.48742 1.671225,22.39204 17.749112,34.10295 20.856532,36.16634 7.07738,4.69949 15.05808,7.52733 23.11795,8.19149 1.5854,0.13064 3.09854,0.25577 3.36254,0.27806 0.264,0.0223 2.14485,-0.0975 4.17967,-0.2661 z M 135.04256,90.028651 c 5.69207,-1.045727 15.95853,-0.695333 21.67664,0.739821 l 0.72433,0.181795 -0.0818,-27.955134 C 157.28063,35.254541 157.27509,35.04053 156.64,35.10911 c -5.4852,0.592316 -13.32636,0.779977 -18.64,0.446107 -3.3,-0.207349 -6.288,-0.408096 -6.64,-0.446107 -0.63509,-0.06858 -0.64063,0.145431 -0.72176,27.886023 l -0.0818,27.955134 0.72433,-0.181795 c 0.39838,-0.09999 2.09117,-0.432906 3.76176,-0.739821 z"
         id="path2"
         sodipodi:nodetypes="cssssscsssscsssssscssssscsssscsscscssccssssssccsscccsscccssssssscccsssscccsscccssscccsssscccssscccsscssssssssssscssccsssccsss" />
      <path
         id="path1"
         style="display:inline;fill:none;stroke:#000000;stroke-width:1px"
         transform="matrix(0.929532 0 0 0.929532 6.04752 5.75772)"
         d="m 116.13025,178.81661 0.12217,-42.65819 -1.90941,-0.60896 -1.75102,-0.53883 -4.12893,-1.0432 -1.89401,0.20157 -2.17506,0.57667 -1.90355,0.70736 -1.03475,0.57218 -0.60134,0.92877 -1.284837,7.45208 0.42706,7.66033 m 12.354177,26.7394 0.11421,-39.87983 -0.89235,-0.27459 -3.38087,-0.8542 -0.93439,0.0994 -1.71814,0.45553 -1.1653,0.43303 -1.00682,5.83958 0.40314,7.23127 m 13.41394,-11.11381 -5.66925,-0.0162 m -5.98962,-7.25777 1.45289,5.47994 m -8.15212,9.09746 5.66048,-0.31557"
         inkstitch:satin_column="true" />
      <g
         id="command_group1"
         inkscape:label="Ink/Stitch Command: Trim thread after sewing this object"
         transform="matrix(0.929532 0 0 0.929532 6.04752 5.75772)">
        <path
           id="command_connector1"
           d="m 104.2942,104.27778 2.13634,29.92794"
           style="fill:none;stroke:#000000;stroke-width:1px;stroke-opacity:0.5"
           inkscape:connection-start="#command_use7978"
           inkscape:connection-end="#path1"
           inkscape:label="connector"
           inkscape:connector-type="polyline"
           inkscape:connector-curvature="0" />
        <use
           id="command_use7978"
           xlink:href="#inkstitch_trim"
           height="100%"
           width="100%"
           x="104.29161876782102"
           y="104.24193673870201"
           inkscape:label="command marker" />
      </g>
      <path
         id="path4"
         style="display:inline;fill:none;stroke:#000000;stroke-width:1px"
         transform="matrix(0.929532 0 0 0.929532 6.04752 5.75772)"
         d="m 100.00297,152.14875 0.66496,6.66699 1.0966,4.00823 1.23903,3.74411 1.42773,3.57852 1.6032,3.33701 0.62584,1.28845 0.81152,1.26632 1.792,1.94347 2.05463,1.4621 2.06452,1.05126 m -9.61917,-28.72156 0.63344,6.35101 0.9866,3.60617 1.17217,3.54209 1.33787,3.35328 1.5438,3.21339 0.52496,1.08075 0.51248,0.79968 1.3006,1.41053 1.50657,1.0721 1.81568,0.92454 m -15.544908,-19.9685 5.641278,-0.56265 m -3.62897,8.63372 5.38221,-1.78112 m -1.79949,10.37197 5.11012,-2.45505 m 2.14568,9.69142 2.5725,-5.05202"
         inkstitch:satin_column="true" />
      <g
         id="command_group2"
         inkscape:label="Ink/Stitch Command: Trim thread after sewing this object"
         transform="matrix(0.929532 0 0 0.929532 6.04752 5.75772)">
        <path
           id="command_connector2"
           d="m 101.95736,121.89755 5.50537,44.60639"
           style="fill:none;stroke:#000000;stroke-width:1px;stroke-opacity:0.5"
           inkscape:connection-start="#command_use1892"
           inkscape:connection-end="#path4"
           inkscape:label="connector"
           inkscape:connector-type="polyline"
           inkscape:connector-curvature="0" />
        <use
           id="command_use1892"
           xlink:href="#inkstitch_trim"
           height="100%"
           width="100%"
           x="101.95478345622584"
           y="121.86170177331955"
           inkscape:label="command marker" />
      </g>
      <path
         id="path5"
         style="display:inline;fill:none;stroke:#000000;stroke-width:1px"
         transform="matrix(0.929532 0 0 0.929532 6.04752 5.75772)"
         d="m 119.32815,134.34051 -0.11987,51.64462 1.74043,2.13999 1.46374,1.3103 2.33039,1.80403 1.58392,1.0058 1.87229,0.81462 3.82338,1.15981 m -8.91478,-59.87039 -0.11673,50.29678 0.70137,0.86241 1.14046,1.0209 2.08461,1.61377 1.18708,0.7538 1.40151,0.60978 3.61362,1.09619 m -14.84752,-8.34434 5.66926,0.0131 m 3.18683,11.35263 2.26183,-5.19853"
         inkstitch:satin_column="true" />
      <g
         id="command_group3"
         inkscape:label="Ink/Stitch Command: Trim thread after sewing this object"
         transform="matrix(0.929532 0 0 0.929532 6.04752 5.75772)">
        <path
           id="command_connector3"
           d="m 119.4004,104.37642 3.6958,34.90807"
           style="fill:none;stroke:#000000;stroke-width:1px;stroke-opacity:0.5"
           inkscape:connection-start="#command_use5144"
           inkscape:connection-end="#path5"
           inkscape:label="connector"
           inkscape:connector-type="polyline"
           inkscape:connector-curvature="0" />
        <use
           id="command_use5144"
           xlink:href="#inkstitch_trim"
           height="100%"
           width="100%"
           x="119.39782269203545"
           y="104.3405696441931"
           inkscape:label="command marker" />
      </g>
      <path
         id="path6"
         style="display:inline;fill:none;stroke:#000000;stroke-width:1px"
         transform="matrix(0.929532 0 0 0.929532 6.04752 5.75772)"
         d="m 130.55815,182.7092 -0.1183,-48.6054 m -3.6612,48.6146 -0.1183,-48.6054 m 4.78353,24.2912 -5.66926,0.0138"
         inkstitch:satin_column="true" />
      <g
         id="command_group4"
         inkscape:label="Ink/Stitch Command: Trim thread after sewing this object"
         transform="matrix(0.929532 0 0 0.929532 6.04752 5.75772)">
        <path
           id="command_connector4"
           d="m 118.27496,105.36309 8.42062,43.22476"
           style="fill:none;stroke:#000000;stroke-width:1px;stroke-opacity:0.5"
           inkscape:connection-start="#command_use4796"
           inkscape:connection-end="#path6"
           inkscape:label="connector"
           inkscape:connector-type="polyline"
           inkscape:connector-curvature="0" />
        <use
           id="command_use4796"
           xlink:href="#inkstitch_trim"
           height="100%"
           width="100%"
           x="118.27237856500821"
           y="105.32723995178374"
           inkscape:label="command marker" />
      </g>
      <path
         id="path7"
         style="display:inline;fill:none;stroke:#000000;stroke-width:1px"
         transform="matrix(0.929532 0 0 0.929532 6.04752 5.75772)"
         d="m 138.48165,195.72624 0.0813,-42.27265 8.31942,40.32419 1.82323,1.27551 0.18363,-4.8e-4 1.76853,-1.25186 8.04489,-40.08605 0.2431,42.1369 m -24.24362,-0.13284 0.2591,-61.15966 4.28702,0.1696 9.49863,50.94413 9.7376,-50.4714 3.82762,-0.17713 0.41311,60.8055 m -23.20332,-49.68444 -5.66926,-0.0109 m 9.73072,37.76375 5.56286,-1.09327 m 11.70144,-35.28019 -5.56848,-1.06425"
         inkstitch:satin_column="true"
         sodipodi:nodetypes="ccccccccccccccccccccc" />
      <g
         id="command_group5"
         inkscape:label="Ink/Stitch Command: Trim thread after sewing this object"
         transform="matrix(0.929532 0 0 0.929532 6.04752 5.75772)">
        <path
           id="command_connector5"
           d="m 135.47397,104.59946 13.06446,60.34749"
           style="fill:none;stroke:#000000;stroke-width:1px;stroke-opacity:0.5"
           inkscape:connection-start="#command_use3519"
           inkscape:connection-end="#path7"
           inkscape:label="connector"
           inkscape:connector-type="polyline"
           inkscape:connector-curvature="0" />
        <use
           id="command_use3519"
           xlink:href="#inkstitch_trim"
           height="100%"
           width="100%"
           x="135.47139252325022"
           y="104.56361710200332"
           inkscape:label="command marker" />
      </g>
      <path
         id="path8"
         style="display:inline;fill:none;stroke:#000000;stroke-width:1px"
         transform="matrix(0.929532 0 0 0.929532 6.04752 5.75772)"
         d="m 168.75654,192.87624 -0.23068,-54.0992 1.26838,-0.42552 1.28323,-0.34344 1.11668,-0.18978 1.6761,0.49031 1.36201,0.53099 0.20374,0.11642 0.10637,0.11311 m -10.56531,53.82323 -0.24232,-56.83 3.96882,-1.33148 1.56697,-0.41936 2.14892,-0.36522 2.6701,0.78109 1.77559,0.69221 0.93686,0.53538 0.49363,0.52489 m -8.81789,3.93576 -5.66922,0.0242 m 10.37457,-0.99509 2.05922,-5.28207"
         inkstitch:satin_column="true" />
      <g
         id="command_group6"
         inkscape:label="Ink/Stitch Command: Trim thread after sewing this object"
         transform="matrix(0.929532 0 0 0.929532 6.04752 5.75772)">
        <path
           id="command_connector6"
           d="m 168.39191,104.28299 1.45445,30.14205"
           style="fill:none;stroke:#000000;stroke-width:1px;stroke-opacity:0.5"
           inkscape:connection-start="#command_use8365"
           inkscape:connection-end="#path8"
           inkscape:label="connector"
           inkscape:connector-type="polyline"
           inkscape:connector-curvature="0" />
        <use
           id="command_use8365"
           xlink:href="#inkstitch_trim"
           height="100%"
           width="100%"
           x="168.38932172375823"
           y="104.24714246871227"
           inkscape:label="command marker" />
      </g>
      <path
         id="path9"
         style="display:inline;fill:none;stroke:#000000;stroke-width:1px"
         transform="matrix(0.929532 0 0 0.929532 6.04752 5.75772)"
         d="m 175.03005,137.82972 0.13022,4.45482 -0.057,9.02566 -0.1804,12.14733 -0.31773,0.19119 -1.63498,0.50052 h -6.22162 m 12.05945,-26.42996 0.13218,4.52198 -0.0576,9.10894 -0.20325,13.68525 -1.29246,1.35039 -1.23116,0.74084 -2.62002,0.80208 h -6.78718 m 7.41285,-27.47904 5.66685,-0.16565 m -5.83691,22.2685 5.66864,0.0842"
         inkstitch:satin_column="true" />
      <g
         id="command_group7"
         inkscape:label="Ink/Stitch Command: Trim thread after sewing this object"
         transform="matrix(0.929532 0 0 0.929532 6.04752 5.75772)">
        <path
           id="command_connector7"
           d="m 166.57657,109.1117 6.71908,43.95502"
           style="fill:none;stroke:#000000;stroke-width:1px;stroke-opacity:0.5"
           inkscape:connection-start="#command_use112"
           inkscape:connection-end="#path9"
           inkscape:label="connector"
           inkscape:connector-type="polyline"
           inkscape:connector-curvature="0" />
        <use
           id="command_use112"
           xlink:href="#inkstitch_trim"
           height="100%"
           width="100%"
           x="166.57399643729113"
           y="109.0758485971216"
           inkscape:label="command marker" />
      </g>
      <path
         id="path10"
         style="display:inline;fill:none;stroke:#000000;stroke-width:1px"
         transform="matrix(0.929532 0 0 0.929532 6.04752 5.75772)"
         d="m 184.72179,180.0098 0.17977,-21.2352 -0.0108,-14.62148 -0.10118,-4.90631 -0.0549,-0.53318 1.04333,-0.32583 2.30475,-0.55025 0.66044,-0.0945 0.34094,0.0242 m -8.14169,42.21051 0.17963,-21.2178 -0.0108,-14.56652 -0.0972,-4.71369 -0.039,-0.37874 -1.76551,-0.37441 2.2584,-2.82082 1.03716,-0.45544 2.26955,-0.70878 2.60005,-0.62075 1.23336,-0.17649 0.74426,0.053 m -3.51468,12.85796 -5.66927,0.004 m 5.54305,-7.461 -1.69,-5.41152"
         inkstitch:satin_column="true" />
      <g
         id="command_group8"
         inkscape:label="Ink/Stitch Command: Trim thread after sewing this object"
         transform="matrix(0.929532 0 0 0.929532 6.04752 5.75772)">
        <path
           id="command_connector8"
           d="m 178.06728,105.53621 3.42922,30.35704"
           style="fill:none;stroke:#000000;stroke-width:1px;stroke-opacity:0.5"
           inkscape:connection-start="#command_use4874"
           inkscape:connection-end="#path10"
           inkscape:label="connector"
           inkscape:connector-type="polyline"
           inkscape:connector-curvature="0" />
        <use
           id="command_use4874"
           xlink:href="#inkstitch_trim"
           height="100%"
           width="100%"
           x="178.06470251521648"
           y="105.50036523462273"
           inkscape:label="command marker" />
      </g>
      <path
         id="path11"
         style="display:inline;fill:none;stroke:#000000;stroke-width:1px"
         transform="matrix(0.929532 0 0 0.929532 6.04752 5.75772)"
         d="m 188.71983,137.70516 2.56791,0.70207 1.17645,0.46449 0.47956,0.27212 0.64437,12.24247 -0.98078,5.90185 -0.89415,3.96732 -1.64152,5.56844 -1.94577,3.35002 -2.10612,3.22094 -2.18298,2.83114 -2.36594,2.45698 m 8.24571,-44.62356 2.76709,0.75653 1.61515,0.63771 2.51044,1.42448 0.77483,14.72113 -1.06602,6.41475 -0.94485,4.19228 -1.80488,6.12256 -2.22443,3.82978 -2.24128,3.42766 -2.39942,3.11186 -2.50986,2.60642 m 6.94742,-41.93954 2.08198,-5.27314 m -0.70008,15.02823 5.66143,-0.29798 m -6.8189,9.6798 5.53055,1.24647 m -8.80344,8.60205 4.90234,2.8474 m -11.49141,6.08928 4.08372,3.93242"
         inkstitch:satin_column="true" />
      <g
         id="command_group9"
         inkscape:label="Ink/Stitch Command: Trim thread after sewing this object"
         transform="matrix(0.929532 0 0 0.929532 6.04752 5.75772)">
        <path
           id="command_connector9"
           d="m 183.57921,104.75215 6.08132,52.86213"
           style="fill:none;stroke:#000000;stroke-width:1px;stroke-opacity:0.5"
           inkscape:connection-start="#command_use5416"
           inkscape:connection-end="#path11"
           inkscape:label="connector"
           inkscape:connector-type="polyline"
           inkscape:connector-curvature="0" />
        <use
           id="command_use5416"
           xlink:href="#inkstitch_trim"
           height="100%"
           width="100%"
           x="183.57663314630776"
           y="104.71630400202815"
           inkscape:label="command marker" />
      </g>
      <path
         id="path12"
         style="display:inline;fill:none;stroke:#000000;stroke-width:1px"
         transform="matrix(0.929532 0 0 0.929532 6.04752 5.75772)"
         d="m 189.57569,127.25164 -79.82282,-0.11381 0.0594,-0.11662 1.60592,-2.73408 3.44223,-5.26 3.60623,-3.25777 3.21675,-2.45819 5.86363,-3.89695 4.56449,-1.8651 4.587,-1.40729 4.50027,-0.88882 4.43018,-0.35543 6.50211,0.18264 3.39053,0.33798 1.36574,0.27674 1.29529,0.42865 2.94385,0.72689 2.88732,1.10327 6.05198,2.7322 3.66427,2.57386 3.39687,2.82019 6.42058,6.0412 m 6.02279,8.90996 -85.97958,-0.12259 2.90519,-5.70378 1.70968,-2.91072 3.75937,-5.7446 4.08337,-3.68883 3.43925,-2.62821 6.28117,-4.17445 5.07111,-2.0721 4.9358,-1.51431 4.90413,-0.96858 4.85082,-0.38917 6.84129,0.19216 3.71387,0.37022 1.77406,0.35946 1.37111,0.45375 3.02735,0.74751 3.20888,1.22613 6.47902,2.925 4.08093,2.86654 3.60433,2.99241 6.50602,6.1216 m -70.87116,6.83222 -0.008,5.66926 m -1.6708,-9.17216 -4.74377,-3.1044 m 12.6707,-4.96398 -3.44231,-4.50457 m 13.4505,-1.31447 -2.14441,-5.24806 m 15.05068,2.37935 -0.45338,-5.65112 m 15.30558,7.07739 1.35904,-5.50397"
         inkstitch:satin_column="true" />
      <g
         id="command_group10"
         inkscape:label="Ink/Stitch Command: Trim thread after sewing this object"
         transform="matrix(0.929532 0 0 0.929532 6.04752 5.75772)">
        <path
           id="command_connector10"
           d="m 146.37549,71.16148 -0.1332,29.97233"
           style="fill:none;stroke:#000000;stroke-width:1px;stroke-opacity:0.5"
           inkscape:connection-start="#command_use7748"
           inkscape:connection-end="#path12"
           inkscape:label="connector"
           inkscape:connector-type="polyline"
           inkscape:connector-curvature="0" />
        <use
           id="command_use7748"
           xlink:href="#inkstitch_trim"
           height="100%"
           width="100%"
           x="146.37290231921654"
           y="71.12563191143963"
           inkscape:label="command marker" />
      </g>
    </g>
  </g>
</svg>
