<?xml version="1.0" encoding="UTF-8" standalone="no"?>
<!-- Created with Inkscape (http://www.inkscape.org/) -->

<svg
   version="1.1"
   id="svg1"
   width="60.000206mm"
   height="63.370998mm"
   viewBox="0 0 226.77243 239.51244"
   sodipodi:docname="om.svg"
   inkscape:version="1.3.2 (1:1.3.2+202311252150+091e20ef0f)"
   xmlns:inkscape="http://www.inkscape.org/namespaces/inkscape"
   xmlns:sodipodi="http://sodipodi.sourceforge.net/DTD/sodipodi-0.dtd"
   xmlns="http://www.w3.org/2000/svg"
   xmlns:svg="http://www.w3.org/2000/svg"
   xmlns:inkstitch="http://inkstitch.org/namespace">
  <metadata
     id="metadata1">
    <inkstitch:min_stitch_len_mm>0</inkstitch:min_stitch_len_mm>
    <inkstitch:collapse_len_mm>3</inkstitch:collapse_len_mm>
    <inkstitch:inkstitch_svg_version>1</inkstitch:inkstitch_svg_version>
  </metadata>
  <defs
     id="defs1" />
  <sodipodi:namedview
     id="namedview1"
     pagecolor="#ff00d7"
     bordercolor="#666666"
     borderopacity="1.0"
     inkscape:showpageshadow="2"
     inkscape:pageopacity="0.0"
     inkscape:pagecheckerboard="0"
     inkscape:deskcolor="#d1d1d1"
     inkscape:zoom="2.2606384"
     inkscape:cx="118.55058"
     inkscape:cy="114.12705"
     inkscape:window-width="1848"
     inkscape:window-height="1016"
     inkscape:window-x="72"
     inkscape:window-y="27"
     inkscape:window-maximized="1"
     inkscape:current-layer="svg1"
     inkscape:document-units="mm" />
  <g
     inkscape:groupmode="layer"
     inkscape:label="Image"
     id="g1">
    <circle
       style="fill:#ffffff;fill-opacity:1;stroke:none;stroke-width:11.9003;stroke-linejoin:bevel;stroke-miterlimit:0"
       id="path2"
       cx="113.06064"
       cy="114.58678"
       r="67.431633" />
    <path
       style="fill:#aa0000;stroke-width:1.28349"
       d="m 58.105257,45.77667 c -2.208691,-1.995409 -2.765815,-3.916198 -2.16065,-7.44914 0.253694,-1.481049 0.611659,-2.803418 0.79548,-2.938596 0.183821,-0.135177 0.649971,-0.892656 1.035904,-1.683285 0.941913,-1.929683 2.07581,-3.798923 2.612783,-4.307238 0.241694,-0.228799 0.793928,-0.970465 1.227169,-1.648146 3.165274,-4.951161 4.995926,-9.646895 4.512231,-11.574096 -0.354654,-1.413087 0.116541,-1.965414 0.99709,-1.168586 1.962826,1.776326 8.579297,3.05422 15.948444,3.080256 5.498078,0.01942 10.511241,1.681548 11.747946,3.895054 0.247097,0.442249 0.657929,1.033763 0.912971,1.314479 0.622273,0.684919 1.092479,4.00431 0.773173,5.458122 -0.141363,0.643596 -0.569894,1.271219 -0.952309,1.394716 -2.330507,0.752624 -10.691533,6.361044 -12.25753,8.222119 -0.581433,0.690999 -1.520022,2.233956 -2.085758,3.428793 -1.056773,2.231942 -1.57493,2.516901 -3.096223,1.702736 -1.590216,-0.851061 -6.55897,-0.394327 -9.541617,0.877075 -0.451788,0.192583 -1.375899,0.471191 -2.053581,0.619132 -0.677682,0.14794 -1.786615,0.513699 -2.464297,0.8128 -1.15813,0.511147 -3.852736,1.446419 -4.167268,1.446419 -0.07855,0 -0.881371,-0.667177 -1.783958,-1.482614 z"
       id="path18" />
    <path
       style="fill:#aa0000;stroke-width:1.28349"
       d="m 166.11946,46.437851 c -1.46831,-0.66503 -2.98219,-1.214322 -3.36417,-1.220647 -0.38197,-0.0063 -0.78648,-0.160314 -0.89889,-0.342196 -0.11243,-0.181882 -2.07477,-0.772233 -4.3608,-1.311893 -4.24094,-1.00115 -5.18126,-0.977436 -9.33998,0.235551 -0.68282,0.199159 -0.98036,0.07131 -1.15731,-0.497268 -1.24881,-4.012651 -2.74273,-5.517618 -10.0579,-10.132262 -5.29811,-3.342212 -5.48993,-3.667477 -4.29111,-7.276746 0.78348,-2.358825 2.65362,-4.114527 5.25648,-4.934794 0.94737,-0.298554 1.90731,-0.670304 2.1332,-0.82611 0.22589,-0.155807 2.53617,-0.498163 5.13395,-0.760792 7.20245,-0.728147 8.27403,-0.870615 10.22985,-1.360049 1.84997,-0.462947 5.18309,-2.140584 5.60309,-2.820171 0.12842,-0.207773 0.49981,-0.377768 0.82531,-0.377768 0.42789,0 0.59183,0.513531 0.59183,1.853796 0,1.019587 0.16494,2.174726 0.36653,2.566976 0.20158,0.392248 0.58028,1.175236 0.84152,1.739971 0.96567,2.08747 1.81758,3.527809 2.92064,4.937921 0.95223,1.21731 3.61232,5.193336 5.62681,8.410354 1.41199,2.254879 2.1122,5.666811 1.58999,7.747509 -0.24373,0.971039 -4.15771,5.613182 -4.71256,5.589266 -0.14676,-0.0063 -1.46817,-0.555617 -2.93648,-1.220648 z"
       id="path17" />
    <path
       style="fill:#aa0000;stroke-width:1.28349"
       d="m 139.42291,53.00633 c -3.53662,-1.943546 -13.39494,-4.317298 -20.59346,-4.95863 -6.3285,-0.563821 -15.25265,-0.0085 -20.067449,1.248668 -0.790628,0.206441 -2.361618,0.59278 -3.491087,0.85853 -2.401073,0.564941 -6.379219,1.948761 -6.977196,2.427056 -0.228628,0.182876 -0.989377,0.455013 -1.690533,0.604746 -1.07075,0.228659 -1.383998,0.10567 -1.956601,-0.768247 -0.374971,-0.57227 -0.798561,-2.158042 -0.941336,-3.523937 -0.223622,-2.139572 -0.09806,-2.884732 0.907105,-5.381518 1.265905,-3.144562 2.635656,-4.593565 6.628267,-7.011756 1.233265,-0.746947 2.829424,-1.75167 3.547009,-2.232718 0.717598,-0.481047 2.690884,-1.584523 4.385088,-2.452168 1.694203,-0.867644 3.172783,-1.689947 3.285733,-1.82734 0.11294,-0.137393 1.2145,-0.789729 2.44789,-1.449636 3.2202,-1.722916 6.60545,-5.233771 7.6552,-7.939229 l 0.86196,-2.221519 1.1459,2.34212 c 1.32594,2.710109 4.32418,5.566628 8.56975,8.164678 1.56374,0.956916 3.5108,2.159613 4.32682,2.672658 0.81601,0.513044 1.7609,1.056048 2.09975,1.206673 0.33884,0.150627 1.49208,0.886003 2.56276,1.634168 1.07069,0.748166 2.12021,1.360301 2.33228,1.360301 0.21208,0 0.68941,0.303819 1.06075,0.675151 0.86895,0.868956 3.43264,2.610579 3.84279,2.610579 0.63583,0 2.49696,2.308591 3.31111,4.107162 1.15873,2.559791 1.10517,5.570867 -0.14953,8.407971 -0.5523,1.248857 -1.15297,2.262903 -1.33483,2.253434 -0.18184,-0.0095 -0.97752,-0.372707 -1.76814,-0.807197 z"
       id="path16" />
    <path
       style="fill:#aa0000;stroke-width:1.28349"
       d="m 121.52253,77.916534 c -1.60007,-1.161861 -3.52257,-2.906416 -4.27222,-3.876788 l -1.36298,-1.764313 1.24127,-1.316059 c 0.6827,-0.723832 1.58868,-1.753098 2.01328,-2.287259 0.4246,-0.534161 1.80102,-2.08318 3.05869,-3.442265 l 2.28669,-2.471062 3.31321,3.031547 c 1.82226,1.667351 3.9102,3.556533 4.63988,4.198181 l 1.32666,1.166631 -1.58323,1.708382 c -7.47557,8.066483 -6.89207,7.789922 -10.66125,5.053005 z"
       id="path15" />
    <path
       style="fill:#aa0000;stroke-width:1.28349"
       d="m 126.07463,92.429994 c -3.38048,-0.242828 -6.28618,-1.200994 -9.13489,-3.012267 -1.64337,-1.04489 -5.40968,-4.866817 -7.14208,-7.247568 -1.91623,-2.633371 -4.08792,-10.366837 -3.30436,-11.766974 0.33373,-0.596339 0.51469,-0.46079 1.21857,0.912759 0.67325,1.313813 5.06942,5.85607 7.8895,8.151692 2.56659,2.089279 9.14851,3.236179 13.18754,2.297933 3.01932,-0.701373 8.34928,-3.257682 10.83935,-5.198676 3.01725,-2.351923 4.20528,-3.040072 4.80441,-2.782889 0.57385,0.246334 3.47151,3.974312 5.42949,6.985282 l 1.19812,1.842483 -0.82675,1.114022 c -1.93597,2.60864 -8.63165,6.209391 -14.18566,7.628644 -4.86812,1.243985 -5.9717,1.363 -9.97324,1.075559 z"
       id="path14" />
    <path
       style="fill:#aa0000;stroke-width:1.28349"
       d="m 178.07203,97.270087 c -0.19427,-0.51162 -0.6817,-2.131564 -1.08316,-3.599875 -0.40148,-1.46831 -0.86179,-2.854477 -1.02291,-3.080371 -0.16113,-0.225894 -0.50838,-1.080073 -0.77166,-1.898175 -0.26329,-0.818103 -1.30043,-3.035971 -2.30478,-4.928594 -1.00434,-1.892624 -2.12426,-4.077751 -2.48873,-4.855839 -0.64345,-1.373711 -5.38283,-7.482634 -6.01871,-7.757958 -0.17392,-0.0753 -0.3162,-0.356867 -0.3162,-0.625709 0,-0.512684 -5.72912,-6.266538 -7.24537,-7.276658 -0.48361,-0.322172 -2.23942,-1.617792 -3.9018,-2.879155 -3.26726,-2.479074 -7.79183,-5.304862 -8.49401,-5.304862 -1.21517,0 -0.81674,-1.665518 1.08076,-4.517878 1.06998,-1.608403 3.91942,-3.696445 5.04435,-3.696445 0.40447,0 0.84962,-0.184823 0.98922,-0.410717 0.64592,-1.045104 8.74935,0.539444 12.93756,2.529816 5.2856,2.511878 6.79329,3.174328 7.80361,3.428755 0.56474,0.142215 1.58126,0.503205 2.25894,0.802202 3.33513,1.471465 9.38723,2.218622 11.7241,1.447387 0.89554,-0.295557 1.71958,-0.446059 1.83119,-0.334447 0.11166,0.111613 -0.24177,1.081328 -0.78529,2.154926 -1.776,3.508033 -1.78969,7.384736 -0.0553,15.641123 1.82342,8.680064 2.37743,16.949716 1.23659,18.45805 -0.33166,0.438489 -0.60302,1.104762 -0.60302,1.480607 0,0.707257 -3.7164,4.463884 -5.1448,5.200483 -0.44582,0.229901 -1.59961,0.538502 -2.56397,0.685778 -1.56745,0.23938 -1.79084,0.169131 -2.10661,-0.662444 z"
       id="path13" />
    <path
       style="fill:#aa0000;stroke-width:1.28349"
       d="m 45.105293,97.794034 c -3.183628,-0.753607 -6.277874,-3.843152 -7.175712,-7.164813 -0.626971,-2.319546 -0.465265,-9.707778 0.288528,-13.182298 1.375014,-6.338022 1.768903,-9.213174 1.789709,-13.063723 0.02118,-3.913623 -0.517079,-7.36902 -1.305025,-8.378206 -0.715532,-0.916443 0.02605,-1.305583 1.638051,-0.859531 2.79975,0.774721 7.945716,-0.04964 12.215585,-1.956906 5.51339,-2.462716 9.866931,-4.286827 10.236254,-4.288938 0.243298,-0.0014 0.946791,-0.265673 1.563302,-0.58729 0.61651,-0.321617 2.634796,-0.893528 4.485059,-1.270913 4.30247,-0.877537 7.277686,-0.360288 10.034195,1.744465 1.672243,1.276853 3.868831,4.097241 3.868831,4.967529 0,0.364509 -2.44149,2.006143 -5.955385,4.004352 -2.556631,1.453849 -9.617985,7.006921 -9.92393,7.804219 -0.124627,0.324636 -0.467536,0.590248 -0.762123,0.590248 -0.294599,0 -1.015085,0.600672 -1.601087,1.334827 -0.586002,0.734155 -1.306796,1.612061 -1.601754,1.950902 -4.339474,4.98497 -9.249214,12.550435 -11.594557,17.866153 -0.598003,1.355364 -1.337048,3.026537 -1.642326,3.713718 -0.305277,0.687181 -0.721359,1.989589 -0.924625,2.894241 -0.452468,2.013826 -1.378864,3.979273 -1.93188,4.098712 -0.225894,0.04878 -0.991392,-0.04875 -1.70111,-0.216748 z"
       id="path12" />
    <path
       style="fill:#aa0000;stroke-width:1.28349"
       d="m 20.931283,114.43438 c -0.903576,-0.32736 -2.322986,-1.35352 -3.154249,-2.28036 -1.663479,-1.85475 -4.199317,-6.78513 -4.648166,-9.03733 C 12.207709,98.494625 9.5873521,92.871073 7.3357803,90.684117 6.468399,89.841637 5.6147254,89.152334 5.4387207,89.152334 c -0.1760047,0 -0.3200121,-0.170136 -0.3200121,-0.378082 0,-0.207946 0.6006724,-0.503299 1.3348276,-0.656341 2.2432805,-0.467635 4.4881268,-2.029633 7.4569118,-5.188615 1.560003,-1.659942 3.739815,-3.979857 4.844026,-5.155367 4.361267,-4.642876 7.292202,-6.693106 9.568211,-6.693106 1.528006,0 4.28866,1.143048 5.962534,2.468787 1.476884,1.169707 1.549247,1.328936 1.169014,2.572106 -0.687847,2.248834 -1.401877,11.452398 -1.099154,14.167528 0.208657,1.87144 0.630065,3.082688 1.543266,4.43579 0.690928,1.023754 1.256227,1.922094 1.256227,1.996312 0,0.07421 -0.595538,0.381621 -1.32343,0.68312 -2.485513,1.029532 -5.636605,5.194394 -6.294328,8.319314 -0.149873,0.71209 -0.507723,1.84918 -0.795224,2.52686 -0.287501,0.67768 -0.829108,2.08742 -1.203591,3.13275 -0.37447,1.04533 -1.020938,2.20837 -1.436582,2.58453 -1.068017,0.96653 -3.247136,1.16314 -5.170134,0.46646 z"
       id="path11" />
    <path
       style="fill:#aa0000;stroke-width:1.28349"
       d="m 201.56098,116.21529 c -1.09297,-0.31601 -1.36617,-0.64226 -1.6026,-1.91386 -0.34941,-1.87919 -2.99619,-9.09352 -4.25706,-11.60348 -1.20919,-2.40707 -2.31444,-3.583272 -4.32282,-4.600313 -0.90357,-0.457572 -1.70186,-0.883643 -1.77399,-0.946826 -0.16275,-0.142573 0.8425,-1.960763 1.25443,-2.268869 0.16601,-0.124178 0.67091,-1.298466 1.12198,-2.60953 0.81717,-2.375153 0.81725,-2.406229 0.0202,-8.613855 -0.43996,-3.426556 -0.69085,-6.647255 -0.55752,-7.157109 0.16031,-0.613028 1.00314,-1.286882 2.48839,-1.989524 1.87681,-0.887869 2.58469,-1.017585 4.30664,-0.789161 1.13336,0.150345 2.54858,0.577445 3.14493,0.94911 1.71891,1.071273 5.52743,4.318177 6.38547,5.443862 1.70022,2.23056 6.54778,6.637674 8.57373,7.794744 1.17657,0.671962 2.93141,1.340547 3.89963,1.485742 l 1.76043,0.263993 -1.38403,1.344158 c -2.47631,2.404966 -3.72466,5.468092 -6.35901,15.603398 -1.66458,6.40424 -5.08148,10.09907 -9.27137,10.02551 -1.16042,-0.0204 -2.70276,-0.20848 -3.42743,-0.41799 z"
       id="path10" />
    <path
       style="fill:#aa0000;stroke-width:1.28349"
       d="m 171.66413,158.83921 c -1.87606,-0.73557 -3.69875,-1.79523 -4.26826,-2.48145 -0.5377,-0.64789 -0.20977,-1.6682 0.89788,-2.79364 0.87814,-0.89223 5.3945,-8.54968 6.75717,-11.45672 0.69532,-1.48334 1.47299,-3.51638 1.72819,-4.51788 0.25518,-1.00149 0.63927,-2.19054 0.85352,-2.64233 2.11437,-4.45863 3.71503,-22.78845 2.47474,-28.33942 -0.20189,-0.90357 -0.4284,-2.54745 -0.50335,-3.65307 l -0.13629,-2.01025 1.64287,-0.57981 c 2.85715,-1.008348 7.99718,0.34604 10.1675,2.67912 1.24352,1.33679 3.24735,5.15832 4.45308,8.49256 0.49013,1.35536 1.03914,2.83394 1.22002,3.28573 0.18087,0.45179 0.52772,2.04896 0.77078,3.54928 0.41686,2.57332 1.49585,5.85211 2.684,8.15613 0.29124,0.56473 0.65515,1.61469 0.80869,2.33324 0.15356,0.71853 0.54454,1.52667 0.86886,1.79583 0.32432,0.26916 0.58967,0.64722 0.58967,0.84013 0,0.57004 3.88908,4.47727 4.45648,4.47727 0.28633,0 0.40637,0.18482 0.26676,0.41072 -0.13961,0.22589 -0.98992,0.41071 -1.88959,0.41071 -3.75794,0 -7.78288,2.88227 -12.67901,9.07945 -2.58284,3.2692 -10.86773,11.31949 -12.33332,11.9841 -3.36154,1.52437 -6.54211,1.87743 -8.83039,0.98025 z"
       id="path9" />
    <path
       style="fill:#aa0000;stroke-width:1.28349"
       d="m 90.189623,158.75171 c -2.696891,-0.58516 -6.565709,-2.37284 -9.088418,-4.19952 -8.968258,-6.49383 -15.077661,-19.44994 -15.248468,-32.33716 -0.06571,-4.95592 -0.05044,-5.13395 0.437914,-5.13395 0.212276,0 0.872271,1.61719 1.46668,3.59376 2.320816,7.7175 5.09985,14.10967 7.506621,17.26635 4.937181,6.47549 16.936576,9.52693 25.538578,6.49446 4.6745,-1.64792 7.18979,-4.3717 7.85574,-8.50695 0.75093,-4.66286 -0.72666,-8.93925 -3.74767,-10.84632 -1.88228,-1.18824 -6.218664,-2.00459 -9.293658,-1.74959 -2.454607,0.20355 -2.230394,0.3571 -4.431756,-3.03489 -0.892948,-1.37593 -1.85921,-3.34883 -2.681823,-5.47576 -0.174747,-0.45179 -0.525537,-1.3384 -0.779565,-1.97023 -0.254015,-0.63184 -0.46185,-1.74451 -0.46185,-2.47261 v -1.32382 l 5.891685,0.008 c 3.716353,0.005 6.104757,-0.16033 6.46878,-0.44844 0.317394,-0.25122 1.103887,-0.58284 1.747767,-0.73692 2.9047,-0.69513 5.81407,-4.2625 5.37688,-6.59293 -0.34827,-1.856412 -3.31088,-4.934868 -5.09199,-5.291089 -3.815165,-0.763035 -8.183863,0.121585 -13.777048,2.789722 -2.258939,1.07759 -4.694486,2.212927 -5.412328,2.522967 l -1.305179,0.56371 -2.41881,-4.202955 c -1.330349,-2.311629 -2.683659,-4.665017 -3.007354,-5.229752 -0.323696,-0.564734 -0.730215,-1.132007 -0.903396,-1.260604 -0.340099,-0.252556 2.686122,-2.846558 3.320858,-2.846558 0.211481,0 0.614072,-0.276607 0.894656,-0.614684 1.258344,-1.516218 7.392737,-3.843808 13.604088,-5.161839 3.333052,-0.707267 9.139933,-0.330702 11.551933,0.749122 1.8171,0.813493 6.881,5.265332 6.881,6.049309 0,0.193005 0.29842,0.680675 0.66316,1.08371 0.77944,0.861269 1.76613,5.127113 1.78671,7.724627 0.0136,1.721857 -1.09121,6.565954 -1.59865,7.009124 -0.12934,0.11294 -0.68244,1.09413 -1.22915,2.18041 -0.5467,1.08628 -1.42141,2.38004 -1.94381,2.87502 -0.5224,0.49497 -0.95299,1.10904 -0.95689,1.3646 -0.008,0.50806 -2.24753,2.31264 -3.39551,2.73574 -1.29795,0.47839 -0.75843,1.13672 1.98286,2.41953 2.37984,1.11366 3.01081,1.23941 5.2978,1.05583 4.03769,-0.3241 5.88806,-2.1475 10.04883,-9.90238 3.47929,-6.48472 5.40475,-8.967518 8.63873,-11.139312 1.64348,-1.103682 3.31434,-1.87856 4.3221,-2.004417 8.16248,-1.019406 10.22555,-0.723628 13.72273,1.967389 3.3514,2.578835 5.92784,5.57122 7.40173,8.59663 0.69276,1.42204 1.25957,2.77845 1.25957,3.01425 0,0.2358 0.36808,1.26082 0.81794,2.27782 1.24546,2.81555 1.88344,11.00856 1.3273,17.04508 -0.99115,10.75808 -5.89449,19.45823 -12.7343,22.59489 -2.06619,0.94753 -2.89155,1.07985 -6.86638,1.10073 -4.29264,0.0226 -4.65476,-0.0433 -7.26344,-1.31929 -2.0774,-1.01617 -3.20114,-1.91577 -4.61751,-3.69644 -1.02956,-1.29437 -1.8733,-2.56903 -1.87499,-2.83258 -0.001,-0.26354 -0.15277,-0.54078 -0.33576,-0.61608 -0.5067,-0.2085 -1.75977,-4.71376 -2.20853,-7.9405 -0.42785,-3.07641 -0.23826,-6.69724 0.41148,-7.85826 0.33594,-0.6003 0.53322,-0.41467 1.26392,1.18932 0.47621,1.04535 0.86584,2.09157 0.86584,2.32495 0,0.23337 0.97717,1.39865 2.17149,2.58951 2.35173,2.3449 5.09495,3.60825 7.82731,3.60473 1.89118,-0.003 6.86331,-1.45765 8.88283,-2.59978 2.0525,-1.16079 5.22798,-4.29925 6.30616,-6.23265 2.1983,-3.94206 2.53276,-5.438 2.53419,-11.3352 7.6e-4,-3.09194 -0.19529,-6.02544 -0.43917,-6.57145 -2.08133,-4.65969 -2.70316,-5.57939 -4.22701,-6.25171 -2.06465,-0.91092 -5.30549,-0.87519 -7.54117,0.0831 -1.64232,0.70398 -4.67576,3.73917 -5.8628,5.86615 -1.34149,2.40378 -3.85942,6.16498 -5.30689,7.92727 -3.77602,4.59734 -4.85443,5.10431 -11.44615,5.38095 -2.26617,0.0951 -4.20101,0.25361 -4.2996,0.3522 -0.0986,0.0986 0.10614,0.70034 0.45506,1.33718 1.06385,1.94194 2.26567,5.92248 2.76024,9.14218 0.47422,3.08728 0.009,9.39971 -0.81309,11.03771 -0.19117,0.38082 -0.6397,1.33928 -0.99673,2.12991 -1.1204,2.48107 -2.04519,3.75259 -4.60353,6.32958 -3.315,3.33915 -5.22092,4.56076 -8.33175,5.34031 -3.161959,0.79238 -9.142333,0.80103 -12.749037,0.0185 z"
       id="path8" />
    <path
       style="fill:#aa0000;stroke-width:1.28349"
       d="m 48.472486,158.73401 c -2.634257,-0.92203 -4.46496,-2.08502 -5.279205,-3.35369 -0.181228,-0.28237 -0.551348,-0.51645 -0.822485,-0.52018 -0.519761,-0.008 -3.984075,-3.41236 -3.984075,-3.91611 0,-0.39426 -2.266781,-2.85852 -7.009925,-7.62059 -4.073226,-4.08949 -6.872449,-5.89746 -9.873874,-6.37742 -0.889149,-0.14217 -1.696193,-0.38723 -1.79343,-0.54457 -0.09729,-0.15733 0.620772,-0.95275 1.595581,-1.76758 3.728148,-3.11635 5.467505,-7.3036 8.315,-20.01713 0.328869,-1.46831 0.772493,-2.84524 0.985848,-3.05984 0.213341,-0.2146 0.387908,-0.69684 0.387908,-1.07165 0,-0.80519 2.408004,-5.45896 2.927239,-5.65725 0.197169,-0.0753 0.358491,-0.39873 0.358491,-0.71875 0,-0.32002 0.138617,-0.58208 0.308037,-0.58235 0.16942,-2.8e-4 0.839838,-0.45786 1.489822,-1.01686 1.381213,-1.18786 5.138496,-2.680087 6.739904,-2.676794 0.612737,0.0013 1.825261,0.199764 2.69449,0.441134 1.528032,0.42429 1.573416,0.48888 1.369123,1.94861 -1.021284,7.29741 -1.517789,13.00377 -1.318361,15.15185 0.37587,4.04853 2.154207,14.05851 3.128528,17.60993 0.951784,3.46927 6.142428,14.15075 8.307942,17.09635 2.348693,3.19476 2.489107,3.57674 1.653903,4.49964 -0.858282,0.94838 -4.317167,2.61088 -6.096518,2.93026 -0.761455,0.13668 -2.321573,-0.16015 -4.083943,-0.77701 z"
       id="path7" />
    <path
       style="fill:#aa0000;stroke-width:1.28349"
       d="m 48.038551,187.56177 c -1.129469,-0.26453 -2.515636,-0.69158 -3.080371,-0.94901 -3.266208,-1.48881 -7.6433,-3.06399 -8.957053,-3.22337 -0.833921,-0.10113 -2.027744,-0.29154 -2.652931,-0.42307 -1.871968,-0.39384 -4.818946,-0.27104 -5.417527,0.22574 -0.867817,0.72022 -1.180655,-0.21678 -0.446474,-1.33728 1.008989,-1.53992 1.184185,-5.4156 0.421639,-9.32706 -1.28567,-6.5948 -1.444771,-7.6059 -1.69441,-10.76835 -0.325415,-4.12247 0.292802,-6.62159 1.99431,-8.06188 1.83345,-1.55197 4.36943,-2.93773 5.376146,-2.93773 0.542146,0 2.621589,1.71234 5.611167,4.62056 2.612398,2.54131 5.116882,4.89818 5.565512,5.23749 1.296888,0.98087 3.947265,2.0459 5.910026,2.37487 l 1.808615,0.30313 0.08278,3.42549 c 0.04556,1.88403 0.2587,3.54535 0.473645,3.69185 0.214959,0.14648 0.647071,0.91323 0.960255,1.70386 0.313197,0.79063 0.676398,1.52991 0.807108,1.64286 0.130711,0.11295 1.045799,1.49912 2.03352,3.08037 0.987722,1.58126 2.138818,3.37579 2.557992,3.98785 1.02819,1.50132 0.970317,1.96761 -0.495362,3.99092 -2.199745,3.03665 -5.762053,3.93646 -10.858643,2.74276 z"
       id="path6" />
    <path
       style="fill:#aa0000;stroke-width:1.28349"
       d="m 174.98488,189.88128 c -0.13786,-0.13786 -1.03382,-0.32277 -1.99106,-0.41092 -1.89857,-0.17483 -3.13251,-1.08302 -4.60455,-3.389 -1.69154,-2.64982 -1.67264,-3.06534 0.26691,-5.86817 2.4462,-3.53497 2.75047,-4.03195 3.25942,-5.32385 0.24474,-0.62121 0.58364,-1.12947 0.75313,-1.12947 0.99657,0 2.68875,-6.32115 2.35128,-8.78324 -0.29333,-2.14008 0.17574,-2.71681 2.20964,-2.71681 1.59014,0 3.91404,-0.67776 4.82974,-1.40858 1.07116,-0.85488 6.05831,-5.93641 7.89487,-8.04427 l 1.86148,-2.13647 2.75539,1.24935 c 1.99758,0.90574 2.89529,1.56752 3.2641,2.40624 0.2798,0.6363 0.63054,1.24932 0.77941,1.36227 0.14887,0.11295 0.46928,1.49911 0.71202,3.08037 0.35012,2.28075 0.30892,3.7664 -0.19935,7.18753 -1.06381,7.16042 -1.16704,11.56768 -0.32437,13.84802 0.3993,1.0805 0.89489,2.18749 1.10134,2.45996 0.59673,0.7876 -0.0275,1.4238 -0.92545,0.94321 -0.42323,-0.2265 -1.31665,-0.41182 -1.98539,-0.41182 -2.05355,0 -7.78793,1.92325 -11.57032,3.88059 -0.56474,0.29223 -1.76608,0.76409 -2.66966,1.04855 -0.90357,0.28448 -1.82768,0.64927 -2.05358,0.81067 -0.22589,0.16141 -1.33482,0.52502 -2.46429,0.80804 -1.12947,0.28303 -2.26654,0.5762 -2.52682,0.65151 -0.26028,0.0753 -0.58603,0.0241 -0.72389,-0.11371 z"
       id="path5" />
    <path
       style="fill:#aa0000;stroke-width:1.28349"
       d="m 154.20869,199.90867 c 0,-0.51029 -2.12527,-1.72165 -5.90412,-3.36522 -1.64055,-0.71353 -2.8513,-0.83136 -12.98883,-1.2641 -7.05108,-0.30099 -13.48743,-1.40957 -15.17961,-2.61451 -3.57283,-2.54408 -6.38423,-7.75074 -5.51401,-10.21187 0.31045,-0.87804 0.60751,-1.06882 1.50006,-0.96338 0.61213,0.0723 2.54738,-0.0924 4.30056,-0.36608 1.75318,-0.27365 3.64965,-0.55051 4.21438,-0.61524 7.27032,-0.83326 19.35038,-5.5569 26.03578,-10.18068 4.30201,-2.97538 10.49272,-8.38741 12.76204,-11.15683 0.82906,-1.01175 1.75715,-1.83954 2.06244,-1.83954 0.82723,0 3.9062,3.10889 4.78385,4.83035 0.93903,1.84184 1.00013,5.34946 0.1364,7.82936 -1.22894,3.52844 -4.17458,8.55811 -6.32707,10.80342 -1.39823,1.45852 -3.08743,3.85257 -4.88959,6.92987 -0.7276,1.24242 -1.49285,2.53617 -1.70057,2.87502 -1.2949,2.11228 -2.4419,6.08558 -2.46023,8.52236 -0.005,0.73415 -0.19487,1.33482 -0.42077,1.33482 -0.22589,0 -0.41071,-0.24649 -0.41071,-0.54775 z"
       id="path4" />
    <path
       style="fill:#aa0000;stroke-width:1.28349"
       d="m 71.411858,199.07445 c 0.542248,-2.89044 -1.628323,-8.69985 -4.730514,-12.66098 -0.653051,-0.83385 -1.187354,-1.69198 -1.187354,-1.90695 0,-0.21497 -0.277234,-0.49725 -0.616075,-0.62727 -0.338841,-0.13003 -0.616074,-0.49681 -0.616074,-0.81509 0,-0.31827 -0.307832,-0.83233 -0.684061,-1.14236 -0.783364,-0.6455 -2.809414,-3.70214 -5.41003,-8.16193 -1.488346,-2.55234 -1.832937,-3.54807 -2.010289,-5.80878 -0.289619,-3.69189 0.699809,-6.78812 2.970748,-9.29645 l 1.714535,-1.89377 0.990789,1.20929 c 1.752218,2.13861 7.771661,7.88164 9.877185,9.42361 0.308448,0.22589 1.241416,0.91898 2.073231,1.54019 0.831829,0.6212 1.700391,1.12947 1.930135,1.12947 0.229732,0 0.565505,0.23102 0.746156,0.51339 0.573091,0.8958 7.307642,4.47301 11.212424,5.95573 5.942999,2.25668 15.002056,4.42977 19.954826,4.78677 1.97739,0.14255 3.84116,0.46324 4.1417,0.71266 0.61157,0.50755 0.73086,2.85892 0.20049,3.95227 -0.19026,0.39225 -0.77855,1.60642 -1.30729,2.69817 -1.23093,2.54158 -3.9395,4.76332 -6.68284,5.48169 -1.17545,0.30781 -6.110857,0.74984 -10.967576,0.98229 -4.856719,0.23247 -9.939331,0.68002 -11.294695,0.99456 -1.355363,0.31456 -3.111175,0.69732 -3.901804,0.85061 -1.559977,0.30243 -4.558706,1.9082 -5.354751,2.86738 -0.854495,1.0296 -1.323404,0.67889 -1.048866,-0.7845 z"
       id="path3" />
    <path
       style="fill:#aa0000;stroke-width:1.28349"
       d="m 112.81709,223.10207 c -0.82063,-1.85393 -4.14524,-4.36419 -9.40718,-7.10295 -2.6693,-1.38933 -5.294042,-2.86729 -5.832774,-3.28435 -0.538718,-0.41706 -1.18969,-0.75829 -1.446606,-0.75829 -1.049932,0 -3.595872,-2.66255 -4.558693,-4.76748 -1.328808,-2.90507 -1.328411,-2.91217 0.460862,-8.04869 0.25662,-0.73668 1.135168,-0.91452 6.729302,-1.3621 7.071389,-0.56579 11.599509,-2.19121 13.419189,-4.81701 1.0103,-1.45785 1.77731,-1.96962 1.77731,-1.18583 0,0.60228 2.17251,2.56455 3.69107,3.33388 1.63172,0.82666 8.80448,2.05858 12.03528,2.06705 3.09079,0.008 3.78357,0.29601 4.32675,1.79817 0.68002,1.88055 0.59968,5.40374 -0.15659,6.86619 -0.85979,1.66264 -3.43421,4.47295 -4.0975,4.47295 -0.29373,0 -0.59567,0.14617 -0.67096,0.32481 -0.17421,0.41333 -3.96943,2.96092 -4.41096,2.96092 -0.18208,0 -1.17826,0.64688 -2.21371,1.43751 -1.03546,0.79063 -2.07698,1.43751 -2.31452,1.43751 -0.23753,0 -0.66272,0.36964 -0.94486,0.82143 -0.28215,0.45179 -0.7334,0.82143 -1.00278,0.82143 -0.69059,0 -3.33206,3.32219 -3.87124,4.86889 -0.55655,1.59651 -0.84619,1.61874 -1.51139,0.11602 z"
       id="path1" />
  </g>
</svg>
