<?xml version="1.0" encoding="UTF-8" standalone="no"?>
<!-- Created with Inkscape (http://www.inkscape.org/) -->

<svg
   version="1.1"
   id="svg1"
   width="57.769005mm"
   height="57.333931mm"
   viewBox="0 0 218.33955 216.69517"
   sodipodi:docname="pajaritos.svg"
   inkscape:version="1.3.2 (1:1.3.2+202311252150+091e20ef0f)"
   xmlns:inkscape="http://www.inkscape.org/namespaces/inkscape"
   xmlns:sodipodi="http://sodipodi.sourceforge.net/DTD/sodipodi-0.dtd"
   xmlns:xlink="http://www.w3.org/1999/xlink"
   xmlns="http://www.w3.org/2000/svg"
   xmlns:svg="http://www.w3.org/2000/svg"
   xmlns:inkstitch="http://inkstitch.org/namespace">
  <sodipodi:namedview
     id="namedview1"
     pagecolor="#ff00e2"
     bordercolor="#666666"
     borderopacity="1.0"
     inkscape:showpageshadow="2"
     inkscape:pageopacity="0.0"
     inkscape:pagecheckerboard="0"
     inkscape:deskcolor="#d1d1d1"
     inkscape:zoom="2"
     inkscape:cx="111"
     inkscape:cy="127.5"
     inkscape:window-width="1848"
     inkscape:window-height="1016"
     inkscape:window-x="72"
     inkscape:window-y="27"
     inkscape:window-maximized="1"
     inkscape:current-layer="g2"
     inkscape:document-units="mm" />
  <metadata
     id="metadata1">
    <inkstitch:min_stitch_len_mm>0</inkstitch:min_stitch_len_mm>
    <inkstitch:collapse_len_mm>3</inkstitch:collapse_len_mm>
    <inkstitch:inkstitch_svg_version>1</inkstitch:inkstitch_svg_version>
  </metadata>
  <defs
     id="defs1">
    <symbol
       id="inkstitch_trim">
      <title
         id="inkstitch_title9282">Trim the thread after sewing this object.</title>
      <path
         id="inkstitch_circle13405"
         d="m 9.2465284,-8.6e-6 c 1.8e-6,2.452339 -0.9741847,4.804237 -2.7082493,6.538304 C 4.8042146,8.2723614 2.4523174,9.2465504 -2.1625959e-5,9.2465514 -2.4523623,9.2465534 -4.8042621,8.2723654 -6.5383288,6.5382984 -8.2723956,4.8042314 -9.2465834,2.4523324 -9.2465816,-8.6e-6 c 6e-7,-2.452339 0.9741895,-4.804237 2.708256,-6.538301 1.7340665,-1.734065 4.0859648,-2.708252 6.538303974041,-2.70825 C 5.1067066,-9.2465576 9.2465271,-5.1067366 9.2465284,-8.6e-6 c 0,0 0,0 0,0"
         style="opacity:1;vector-effect:none;fill:#fafafa;fill-opacity:1;fill-rule:evenodd;stroke:#003399;stroke-width:1.06500006;stroke-linecap:round;stroke-linejoin:miter;stroke-miterlimit:4;stroke-dasharray:3.19500017, 3.19500017;stroke-dashoffset:0;stroke-opacity:1"
         inkscape:connector-curvature="0" />
      <path
         style="color:#000000;font-style:normal;font-variant:normal;font-weight:normal;font-stretch:normal;font-size:medium;line-height:normal;font-family:sans-serif;font-variant-ligatures:normal;font-variant-position:normal;font-variant-caps:normal;font-variant-numeric:normal;font-variant-alternates:normal;font-feature-settings:normal;text-indent:0;text-align:start;text-decoration:none;text-decoration-line:none;text-decoration-style:solid;text-decoration-color:#000000;letter-spacing:normal;word-spacing:normal;text-transform:none;writing-mode:lr-tb;direction:ltr;text-orientation:mixed;dominant-baseline:auto;baseline-shift:baseline;text-anchor:start;white-space:normal;shape-padding:0;clip-rule:nonzero;display:inline;overflow:visible;visibility:visible;opacity:1;isolation:auto;mix-blend-mode:normal;color-interpolation:sRGB;color-interpolation-filters:linearRGB;solid-color:#000000;solid-opacity:1;vector-effect:none;fill:#050505;fill-opacity:1;fill-rule:evenodd;stroke:none;stroke-width:1.41421342;stroke-linecap:butt;stroke-linejoin:miter;stroke-miterlimit:4;stroke-dasharray:none;stroke-dashoffset:0;stroke-opacity:1;color-rendering:auto;image-rendering:auto;shape-rendering:auto;text-rendering:auto;enable-background:accumulate"
         d="m -3.0000256,-5.9834096 c -1.30575,0 -2.375,1.06924 -2.375,2.375 0,1.30575 1.06925,2.375 2.375,2.375 0.58687,0 1.11944,-0.22369 1.53516,-0.58007 0,0 0.61717997,1.62109 0.61717997,1.62109 0,0 -2.29881997,6.01758 -2.29881997,6.01758 0.98655,-0.12511 1.23728,-0.26171 1.67382,-0.97461 0,0 1.33007997,-3.18945 1.33007997,-3.18945 0,0 1.23633003,3.25 1.23633003,3.25 0.23227,0.77906 0.84315,0.79218 1.57813,1.07226 0,0 -2.05469003,-6.14258 -2.05469003,-6.14258 0,0 0.73047003,-1.75 0.73047003,-1.75 0.42849,0.41682 1.01136,0.67578 1.65234,0.67578 1.30575,0 2.375,-1.06925 2.375,-2.375 0,-1.30576 -1.06925,-2.375 -2.375,-2.375 -1.06233,0 -1.95701,0.71265 -2.25781003,1.67969 0,0 -0.0117,-0.0156 -0.0117,-0.0156 0,0 -0.80274,2.10156 -0.80274,2.10156 0,0 -0.59179,-1.76562 -0.59179,-1.76562 -0.18242,-1.12808 -1.15864997,-2 -2.33593997,-2 0,0 -2e-5,-3e-5 -2e-5,-3e-5 m 0,1 c 0.76531,0 1.375,0.60968 1.375,1.375 0,0.76531 -0.60969,1.375 -1.375,1.375 -0.76531,0 -1.375,-0.60969 -1.375,-1.375 0,-0.76532 0.60969,-1.375 1.375,-1.375 0,0 0,0 0,0 m 6,0 c 0.76531,0 1.375,0.60968 1.375,1.375 0,0.76531 -0.60969,1.375 -1.375,1.375 -0.76531,0 -1.375,-0.60969 -1.375,-1.375 0,-0.76532 0.60969,-1.375 1.375,-1.375 0,0 0,0 0,0"
         id="inkstitch_path13416"
         inkscape:connector-curvature="0" />
    </symbol>
  </defs>
  <g
     inkscape:groupmode="layer"
     inkscape:label="Image"
     id="g1"
     transform="translate(-4.70145, -4.89816)">
    <g
       id="g2"
       transform="translate(-1.77907, 1.33758)">
      <g
         id="g136"
         style="display:inline"
         transform="matrix(0.671814 0 0 0.671814 -16.0253 -16.8946)">
        <path
           style="fill:#ffffff;stroke:#ffffff;stroke-width:0.257591;stroke-linejoin:bevel;stroke-miterlimit:0"
           d="m 86.495738,328.69191 c -4.906191,-0.7653 -17.271431,-4.02246 -27.478309,-7.23815 -10.206879,-3.21568 -18.932343,-5.85113 -19.389919,-5.85654 -0.457577,-0.005 1.570188,-1.38763 4.506144,-3.0716 12.456417,-7.14461 30.575027,-31.33111 46.783767,-62.45159 4.206862,-8.07709 7.277162,-12.31134 13.368129,-18.43594 12.1366,-12.20363 22.98807,-16.34618 40.28028,-15.37702 16.32442,0.91492 27.4568,7.02798 33.16963,18.21425 3.80479,7.45015 3.64381,21.58685 -0.38062,33.4237 -4.07096,11.97372 -12.34517,28.17456 -18.68148,36.5782 -5.33268,7.07256 -15.06839,15.28673 -21.31613,17.98474 -1.73008,0.74711 -4.91709,2.12864 -7.08225,3.07006 -10.35921,4.50424 -27.31498,5.72807 -43.779242,3.15989 z"
           id="path132"
           transform="translate(1.77907, -1.33758)"
           sodipodi:nodetypes="sscssssssssss" />
        <g
           id="command_group1"
           inkscape:label="Ink/Stich Instrucción: Trim thread after sewing this object"
           transform="matrix(1.48851 0 0 1.48851 33.5001 30.4477)">
          <path
             id="command_connector1"
             d="m 38.943216,103.66784 7.676294,32.82831"
             style="fill:none;stroke:#000000;stroke-width:1px;stroke-opacity:0.5"
             inkscape:connection-start="#command_use6966"
             inkscape:connection-end="#path132"
             inkscape:label="conector"
             inkscape:connector-type="polyline"
             inkscape:connector-curvature="0" />
          <use
             id="command_use6966"
             xlink:href="#inkstitch_trim"
             height="100%"
             width="100%"
             x="38.940635547619024"
             y="103.63199921229804"
             inkscape:label="marcador de instrucción" />
        </g>
        <path
           style="fill:#ffffff;stroke:#ffffff;stroke-width:0.257591;stroke-linejoin:bevel;stroke-miterlimit:0"
           d="m 271.66204,329.16239 c -4.38723,-0.60579 -11.17237,-2.72235 -17.19612,-5.36416 -19.55494,-8.57613 -32.10748,-24.56098 -42.72402,-54.40631 -3.30964,-9.3041 -3.90613,-12.33318 -4.01058,-20.36642 -0.0965,-7.42068 0.30002,-10.22078 1.8559,-13.1066 4.15185,-7.70078 8.06813,-11.46161 16.03606,-15.39958 7.68119,-3.79625 8.30154,-3.92128 21.16246,-4.2652 11.90997,-0.31848 9.05491,0.82815 11.28332,1.21631 4.80828,0.83754 5.18835,1.16388 10.05446,1.99387 1.10836,0.35178 8.41905,7.44932 9.14603,6.57337 2.28467,-2.75286 13.06567,10.65177 21.56105,26.80806 14.61544,27.79525 33.78276,53.12323 44.69727,59.06365 l 5.54295,3.01685 -12.0135,4.0598 c -28.62171,9.67231 -47.62714,12.6298 -65.39528,10.17636 z"
           id="path133"
           transform="translate(1.77907, -1.33758)"
           sodipodi:nodetypes="sssssssssssscss" />
        <g
           id="command_group2"
           inkscape:label="Ink/Stich Instrucción: Trim thread after sewing this object"
           transform="matrix(1.48851 0 0 1.48851 33.5001 30.4477)">
          <path
             id="command_connector2"
             d="m 153.10568,94.264035 5.92553,31.932915"
             style="fill:none;stroke:#000000;stroke-width:1px;stroke-opacity:0.5"
             inkscape:connection-start="#command_use9710"
             inkscape:connection-end="#path133"
             inkscape:label="conector"
             inkscape:connector-type="polyline"
             inkscape:connector-curvature="0" />
          <use
             id="command_use9710"
             xlink:href="#inkstitch_trim"
             height="100%"
             width="100%"
             x="153.1030988464922"
             y="94.22818441141257"
             inkscape:label="marcador de instrucción" />
        </g>
        <path
           style="fill:#ffffff;stroke:#ffffff;stroke-width:0.0321989;stroke-linejoin:bevel;stroke-miterlimit:0"
           d="m 126.30664,110.32485 c -1.89364,-3.20178 -3.32523,-5.82813 -5.12598,-9.40399 -4.57932,-9.093417 -6.72004,-15.430735 -7.70361,-22.805491 -0.33835,-2.53695 -0.33557,-8.382068 0.005,-10.419752 1.10113,-6.58911 3.70477,-11.621574 8.31904,-16.079538 3.05877,-2.955154 6.51588,-5.264495 11.32525,-7.565237 3.83443,-1.834341 6.08997,-2.570373 8.88378,-2.898972 1.8754,-0.220577 10.53736,-0.314748 13.40494,-0.145736 4.02897,0.237464 5.81865,0.724933 9.25381,2.520531 3.03217,1.584951 6.74603,4.071596 6.97313,4.668915 0.27113,0.71313 0.0662,0.706354 -1.64928,-0.05453 -2.79764,-1.240879 -4.47482,-1.797293 -7.42473,-2.463195 -2.75977,-0.622981 -4.19101,-0.776382 -7.18913,-0.770538 -3.02274,0.0059 -4.83561,0.192208 -7.65851,0.78709 -10.21015,2.151631 -19.9142,8.173088 -25.14168,15.600642 -2.29372,3.259073 -3.71042,6.945079 -4.3817,11.400395 -0.35523,2.357605 -0.32458,8.020703 0.0587,10.859165 0.95829,7.095796 2.92227,13.340682 6.72975,21.398641 1.60503,3.39679 2.42861,5.55259 2.5667,6.71857 0.0425,0.35848 0.0456,0.65179 0.007,0.65179 -0.0386,0 -0.60223,-0.89944 -1.2524,-1.99876 z"
           id="path134"
           transform="translate(1.77907, -1.33758)" />
        <g
           id="command_group3"
           inkscape:label="Ink/Stich Instrucción: Trim thread after sewing this object"
           transform="matrix(1.48851 0 0 1.48851 33.5001 30.4477)">
          <path
             id="command_connector3"
             d="m 67.221475,-22.877212 4.04258,29.7997919"
             style="fill:none;stroke:#000000;stroke-width:1px;stroke-opacity:0.5"
             inkscape:connection-start="#command_use4424"
             inkscape:connection-end="#path134"
             inkscape:label="conector"
             inkscape:connector-type="polyline"
             inkscape:connector-curvature="0" />
          <use
             id="command_use4424"
             xlink:href="#inkstitch_trim"
             height="100%"
             width="100%"
             x="67.21889393493042"
             y="-22.913059396474903"
             inkscape:label="marcador de instrucción" />
        </g>
        <path
           style="fill:#ffffff;stroke:#ffffff;stroke-width:0.0321989;stroke-linejoin:bevel;stroke-miterlimit:0"
           d="m 197.65667,78.888627 c -0.48818,-0.580173 -0.91764,-1.465682 -1.65124,-3.404758 -0.72504,-1.91647 -0.99542,-2.480076 -1.18976,-2.480076 -0.17616,0 2.10795,-4.436402 3.6102,-7.012034 1.45794,-2.499693 4.49775,-7.084439 6.26285,-9.445876 5.59454,-7.484617 11.55689,-13.462252 17.08421,-17.127989 4.70475,-3.120212 8.39105,-4.713791 12.70424,-5.492023 1.56069,-0.281596 2.05627,-0.306999 5.89797,-0.302326 3.25572,0.004 4.56068,0.05631 5.83244,0.233965 6.18685,0.864261 11.53434,3.078772 16.56755,6.86098 0.75098,0.564327 1.30994,1.046271 1.24214,1.070988 -0.26345,0.09604 -1.58674,-0.309584 -3.78562,-1.160386 -2.80658,-1.085941 -4.78536,-1.718712 -6.72014,-2.148957 -6.71427,-1.49308 -13.10268,-0.906997 -19.49307,1.788325 -4.61265,1.945511 -9.55576,5.159211 -13.78487,8.962056 -5.49495,4.941092 -13.18259,14.914854 -17.66747,22.921347 -2.35793,4.209437 -3.7211,6.405173 -4.29566,6.919281 -0.25495,0.228131 -0.27267,0.222864 -0.61377,-0.182517 z"
           id="path135"
           transform="translate(1.77907, -1.33758)" />
        <g
           id="command_group4"
           inkscape:label="Ink/Stich Instrucción: Trim thread after sewing this object"
           transform="matrix(1.48851 0 0 1.48851 33.5001 30.4477)">
          <path
             id="command_connector4"
             d="m 119.38547,-24.432172 9.44364,28.8243272"
             style="fill:none;stroke:#000000;stroke-width:1px;stroke-opacity:0.5"
             inkscape:connection-start="#command_use3953"
             inkscape:connection-end="#path135"
             inkscape:label="conector"
             inkscape:connector-type="polyline"
             inkscape:connector-curvature="0" />
          <use
             id="command_use3953"
             xlink:href="#inkstitch_trim"
             height="100%"
             width="100%"
             x="119.38288833223258"
             y="-24.468020230629925"
             inkscape:label="marcador de instrucción" />
        </g>
      </g>
      <g
         id="g137"
         transform="matrix(0.671814 0 0 0.671814 -16.0253 -16.8946)"
         style="display:inline">
        <path
           style="display:inline;fill:#f18898"
           d="m 176.98499,172.2634 c -6.86674,-7.00513 -10.34749,-10.73644 -7.73499,-8.2918 2.6125,2.44465 4.75,4.00155 4.75,3.45979 0,-1.33742 -13.47057,-14.62748 -14.14379,-13.95427 -0.29433,0.29433 -1.39488,-0.44497 -2.44567,-1.64288 -1.0508,-1.19792 -1.34804,-1.84912 -0.66054,-1.44712 0.6875,0.402 1.25,0.3328 1.25,-0.15379 0,-1.01282 -4.00044,-4.9571 -5.5,-5.42278 -0.55,-0.1708 -0.86873,-0.70437 -0.70828,-1.18571 0.40441,-1.21323 -2.87756,-4.68982 -3.85627,-4.08495 -0.43849,0.27101 -1.12288,-0.0341 -1.52086,-0.67809 -0.45192,-0.73122 -0.29014,-0.90292 0.4309,-0.45729 0.63498,0.39244 1.15451,0.26352 1.15451,-0.28648 0,-1.09678 -1.92383,-2.55239 -3.5,-2.64817 -0.55,-0.0334 -0.87171,-0.65018 -0.71491,-1.37057 0.35507,-1.63136 -1.72342,-4.25544 -2.8293,-3.57197 -0.44968,0.27792 -1.14322,-0.0216 -1.5412,-0.66552 -0.45192,-0.73122 -0.29014,-0.90292 0.4309,-0.45729 0.68411,0.4228 1.15451,0.0783 1.15451,-0.84549 0,-1.45181 -1.23373,-2.03671 -3.41927,-1.62102 -0.5056,0.0962 -0.338,-0.52554 0.37244,-1.38158 1.06185,-1.27944 1.04748,-1.57749 -0.0807,-1.67484 -0.75484,-0.0651 -1.78611,-0.0397 -2.29171,0.0564 -0.5056,0.0962 -0.37125,-0.48548 0.29856,-1.29255 1.30828,-1.57638 -0.0816,-3.25648 -1.81019,-2.18816 -0.512,0.31644 -1.25653,0.0485 -1.65451,-0.59549 -0.43548,-0.70462 -0.29142,-0.90371 0.3618,-0.5 2.11869,1.30942 2.02272,-0.95014 -0.19652,-4.62728 -1.23812,-2.05147 -2.62223,-3.39347 -3.07582,-2.98223 -0.45358,0.41124 -0.51205,0.20309 -0.12992,-0.46255 0.38213,-0.66564 -0.61907,-3.81564 -2.22488,-7 -7.54271,-14.957294 -9.50945,-30.102459 -5.19656,-40.01679 5.65499,-12.99949 24.94116,-22.783127 40.09946,-20.341954 3.17899,0.511962 7.21729,1.674095 8.97398,2.582519 1.7567,0.908423 2.91213,1.195604 2.56762,0.63818 -0.3445,-0.557424 -0.0995,-1.339121 0.54445,-1.737105 0.65998,-0.407894 0.90485,-0.293262 0.56122,0.262734 -0.69435,1.123492 8.60356,10.686361 9.50947,9.780451 0.32496,-0.32496 0.93043,-0.04137 1.34548,0.630202 0.48223,0.780264 0.33789,0.963469 -0.39986,0.507515 -1.85092,-1.143932 -1.34012,0.472224 1.20422,3.810117 1.2973,1.701915 3.73487,5.794391 5.41682,9.094391 2.8015,5.49656 3.131,5.808109 3.92702,3.713037 0.83041,-2.185612 0.9256,-2.130217 2.1479,1.25 0.70344,1.94533 1.58736,3.531624 1.96426,3.525098 0.3769,-0.0065 2.20236,-2.819026 4.05658,-6.25 4.90404,-9.07422 13.67724,-20.260501 19.80444,-25.251685 12.8732,-10.486435 24.96832,-12.738744 38.32425,-7.136598 3.71587,1.558621 5.67692,1.680902 5.22522,0.325818 -0.15112,-0.453381 0.21632,-0.52082 0.81653,-0.149864 0.60022,0.370956 0.84992,0.915855 0.55489,1.210888 -0.29503,0.295032 1.54381,2.837471 4.08631,5.649864 7.24712,8.016395 9.7764,14.394515 9.76063,24.613442 -0.0274,17.775007 -9.62043,35.70057 -32.67787,61.06222 -15.69259,17.2608 -57.02646,51.52562 -60.55945,50.20238 -1.4897,-0.55795 -1.53207,-0.42492 -0.33382,1.04817 3.47399,4.27079 -0.39629,0.67336 -11.88745,-11.04937 z"
           id="path113" />
        <g
           id="command_group5"
           inkscape:label="Ink/Stich Instrucción: Trim thread after sewing this object"
           transform="matrix(1.48851 0 0 1.48851 33.5001 30.4477)">
          <path
             id="command_connector5"
             d="m 110.46066,-15.702688 1.44477,47.520054"
             style="fill:none;stroke:#000000;stroke-width:1px;stroke-opacity:0.5"
             inkscape:connection-start="#command_use2638"
             inkscape:connection-end="#path113"
             inkscape:label="conector"
             inkscape:connector-type="polyline"
             inkscape:connector-curvature="0" />
          <use
             id="command_use2638"
             xlink:href="#inkstitch_trim"
             height="100%"
             width="100%"
             x="110.45808"
             y="-15.738535"
             inkscape:label="marcador de instrucción" />
        </g>
        <path
           style="display:inline;fill:#f18898"
           d="m 193,186.96411 -2.5,-1.99143 2.13343,-1.73634 C 193.80681,182.28135 199.18616,178.125 204.58753,174 233.042,152.26946 258.942,126.37056 271.17115,107.41918 283.31806,88.595244 286.97756,70.919835 281.50636,57.5 279.28373,52.048295 279.2467,51.728456 281.1011,54 c 6.77258,8.29606 9.23171,20.652877 6.46781,32.5 -5.68492,24.3677 -33.61789,57.88082 -75.0431,90.03438 -9.81239,7.61621 -16.36363,12.47807 -16.76715,12.44338 -0.14226,-0.0122 -1.38366,-0.91837 -2.75866,-2.01365 z"
           id="path112" />
        <g
           id="command_group6"
           inkscape:label="Ink/Stich Instrucción: Trim thread after sewing this object"
           transform="matrix(1.48851 0 0 1.48851 33.5001 30.4477)">
          <path
             id="command_connector6"
             d="M 137.66464,3.7519821 138.45493,60.71645"
             style="fill:none;stroke:#000000;stroke-width:1px;stroke-opacity:0.5"
             inkscape:connection-start="#command_use2607"
             inkscape:connection-end="#path112"
             inkscape:label="conector"
             inkscape:connector-type="polyline"
             inkscape:connector-curvature="0" />
          <use
             id="command_use2607"
             xlink:href="#inkstitch_trim"
             height="100%"
             width="100%"
             x="137.66206"
             y="3.716135"
             inkscape:label="marcador de instrucción" />
        </g>
        <path
           style="display:inline;fill:#f18898"
           d="M 265.71426,229.38093 C 265.32142,228.98808 265,227.52667 265,226.13333 c 0,-1.97037 -0.26667,-2.26666 -1.2,-1.33333 -1.58146,1.58146 -2.34254,1.5146 -4.22857,-0.37143 -2.33183,-2.33183 -2.04032,-7.14498 0.48122,-7.94528 1.63936,-0.52031 1.81605,-0.93657 0.87755,-2.06739 -0.6463,-0.77874 -1.90749,-1.44442 -2.80264,-1.47929 -1.1014,-0.0429 -0.90018,-0.35576 0.62244,-0.96777 1.2375,-0.49742 2.25,-1.29666 2.25,-1.7761 0,-0.47944 1.21921,-1.42722 2.70935,-2.10617 2.32889,-1.06112 2.89058,-0.98661 4,0.53061 0.70986,0.9708 1.29728,2.24157 1.30539,2.82395 0.008,0.58238 0.57061,-0.0306 1.25,-1.36216 1.76532,-3.45993 3.30693,-3.59821 6.33672,-0.56842 2.43131,2.43131 2.52234,2.79423 1.06611,4.25045 -1.45622,1.45622 -1.40327,1.68596 0.62013,2.69061 2.88124,1.4306 3.28189,4.62341 0.94266,7.51223 -1.51261,1.86799 -2.23533,2.10387 -3.8305,1.25016 -1.72894,-0.9253 -1.96214,-0.73023 -1.933,1.61688 0.0291,2.34031 -0.40243,2.70578 -3.5026,2.96671 -1.94466,0.16368 -3.85716,-0.0238 -4.25,-0.41666 z"
           id="path108" />
        <g
           id="command_group7"
           inkscape:label="Ink/Stich Instrucción: Trim thread after sewing this object"
           transform="matrix(1.48851 0 0 1.48851 33.5001 30.4477)">
          <path
             id="command_connector7"
             d="m 152.25368,89.177708 4.89185,30.259922"
             style="fill:none;stroke:#000000;stroke-width:1px;stroke-opacity:0.5"
             inkscape:connection-start="#command_use6968"
             inkscape:connection-end="#path108"
             inkscape:label="conector"
             inkscape:connector-type="polyline"
             inkscape:connector-curvature="0" />
          <use
             id="command_use6968"
             xlink:href="#inkstitch_trim"
             height="100%"
             width="100%"
             x="152.2511"
             y="89.141861"
             inkscape:label="marcador de instrucción" />
        </g>
        <path
           style="display:inline;fill:#f18898"
           d="m 236.25,253.54266 c -3.82259,-1.70089 -4.06162,-2.86077 -1.02749,-4.98596 4.03113,-2.82351 13.77749,-1.51053 13.77749,1.85604 0,3.50289 -7.67658,5.38737 -12.75,3.12992 z"
           id="path100" />
        <g
           id="command_group8"
           inkscape:label="Ink/Stich Instrucción: Trim thread after sewing this object"
           transform="matrix(1.48851 0 0 1.48851 33.5001 30.4477)">
          <path
             id="command_connector8"
             d="m 133.6111,115.98504 5.38197,29.52807"
             style="fill:none;stroke:#000000;stroke-width:1px;stroke-opacity:0.5"
             inkscape:connection-start="#command_use8565"
             inkscape:connection-end="#path100"
             inkscape:label="conector"
             inkscape:connector-type="polyline"
             inkscape:connector-curvature="0" />
          <use
             id="command_use8565"
             xlink:href="#inkstitch_trim"
             height="100%"
             width="100%"
             x="133.60852"
             y="115.94919"
             inkscape:label="marcador de instrucción" />
        </g>
        <path
           style="display:inline;fill:#f18898"
           d="m 146.22783,253.96064 c -3.16638,-1.27175 -3.97548,-3.94078 -1.69918,-5.60525 4.10503,-3.00167 15.23488,-0.5087 13.84929,3.1021 -0.56861,1.48178 -5.57504,3.58612 -8.27716,3.47912 -0.88043,-0.0349 -2.62325,-0.47405 -3.87295,-0.97597 z"
           id="path99" />
        <g
           id="command_group9"
           inkscape:label="Ink/Stich Instrucción: Trim thread after sewing this object"
           transform="matrix(1.48851 0 0 1.48851 33.5001 30.4477)">
          <path
             id="command_connector9"
             d="m 77.349084,115.56305 1.375437,29.94655"
             style="fill:none;stroke:#000000;stroke-width:1px;stroke-opacity:0.5"
             inkscape:connection-start="#command_use7784"
             inkscape:connection-end="#path99"
             inkscape:label="conector"
             inkscape:connector-type="polyline"
             inkscape:connector-curvature="0" />
          <use
             id="command_use7784"
             xlink:href="#inkstitch_trim"
             height="100%"
             width="100%"
             x="77.346504"
             y="115.52721"
             inkscape:label="marcador de instrucción" />
        </g>
        <path
           style="display:inline;fill:#f18898"
           d="m 297,305.74196 c -11.38495,-5.11265 -27.58422,-13.70171 -32.63392,-17.30292 -14.00734,-9.98938 -14.95685,-16.30334 -3.54052,-23.54337 5.2974,-3.35951 8.13795,-3.56576 13.67444,-0.99291 7.81569,3.63201 16.52262,15.71902 22.40104,31.09724 4.968,12.99655 4.96738,12.92823 0.099,10.74196 z"
           id="path94" />
        <g
           id="command_group10"
           inkscape:label="Ink/Stich Instrucción: Trim thread after sewing this object"
           transform="matrix(1.48851 0 0 1.48851 33.5001 30.4477)">
          <path
             id="command_connector10"
             d="m 156.8656,125.74202 4.53068,30.86574"
             style="fill:none;stroke:#000000;stroke-width:1px;stroke-opacity:0.5"
             inkscape:connection-start="#command_use3013"
             inkscape:connection-end="#path94"
             inkscape:label="conector"
             inkscape:connector-type="polyline"
             inkscape:connector-curvature="0" />
          <use
             id="command_use3013"
             xlink:href="#inkstitch_trim"
             height="100%"
             width="100%"
             x="156.86302"
             y="125.70618"
             inkscape:label="marcador de instrucción" />
        </g>
        <path
           style="display:inline;fill:#f18898"
           d="m 91,306.02603 c 0,-1.75873 6.091853,-16.38243 9.80033,-23.52603 4.7035,-9.06031 14.44447,-19.0801 19.46474,-20.0219 4.93389,-0.92561 10.07327,0.97259 14.79529,5.46454 7.06556,6.7213 4.68341,12.42052 -8.99134,21.51147 C 119.9719,293.50748 93.585035,306.9974 91.75,306.99925 91.3375,306.99966 91,306.56171 91,306.02603 Z"
           id="path93" />
        <g
           id="command_group11"
           inkscape:label="Ink/Stich Instrucción: Trim thread after sewing this object"
           transform="matrix(1.48851 0 0 1.48851 33.5001 30.4477)">
          <path
             id="command_connector11"
             d="m 49.822549,127.19085 3.572211,31.71544"
             style="fill:none;stroke:#000000;stroke-width:1px;stroke-opacity:0.5"
             inkscape:connection-start="#command_use3259"
             inkscape:connection-end="#path93"
             inkscape:label="conector"
             inkscape:connector-type="polyline"
             inkscape:connector-curvature="0" />
          <use
             id="command_use3259"
             xlink:href="#inkstitch_trim"
             height="100%"
             width="100%"
             x="49.819969"
             y="127.155"
             inkscape:label="marcador de instrucción" />
        </g>
      </g>
      <path
         style="display:inline;fill:#35292b;stroke-width:0.671815"
         d="m 69.463075,218.73808 -2.855207,-1.43431 v -6.14015 -6.14018 l -8.620099,0.31127 c -13.030132,0.47051 -23.389327,-1.6791 -44.117301,-9.15469 l -7.3899534,-2.66521 4.2306804,-1.19252 c 3.928987,-1.1075 4.671557,-1.65408 10.413117,-7.6648 9.540672,-9.98792 15.68854,-19.06644 23.731565,-35.04424 3.782949,-7.51499 5.24485,-9.69049 9.025664,-13.43137 15.36141,-15.19919 42.443969,-13.96509 52.017169,2.37033 1.5839,2.70273 2.02343,2.98851 5.84327,3.79912 4.81617,1.02207 4.07047,1.36465 4.07047,1.36465 l -3.6081,2.52069 c -3.50462,2.44838 -3.62241,2.63506 -4.10655,6.50873 -1.20369,9.63077 -8.598546,26.98063 -14.761654,34.63387 -4.491406,5.57736 -7.879478,8.60573 -13.334165,11.91853 l -4.324626,2.62649 -0.197863,4.42861 -0.197863,4.42862 3.89284,0.20236 c 2.922485,0.15193 3.892839,0.45357 3.892839,1.2101 0,0.69544 -0.930966,1.11181 -3.004198,1.34362 l -3.004197,0.33591 1.90034,1.23823 c 2.446041,1.59377 1.413121,3.12808 -1.279846,1.90107 -0.951154,-0.43338 -2.848827,-0.77209 -4.217057,-0.75271 -2.456932,0.0348 -2.469004,0.0483 -0.976112,1.08966 1.625542,1.13392 2.047407,2.93258 0.671813,2.86431 -0.461871,-0.0229 -2.124611,-0.68712 -3.694976,-1.47599 z m 3.723482,-10.48985 c 0.173301,-4.96206 0.06782,-5.57591 -0.894708,-5.20656 -0.600153,0.2303 -1.519927,0.41873 -2.043956,0.41873 -0.743745,0 -0.952769,1.1889 -0.952769,5.41913 v 5.41913 l 1.847486,-0.21257 c 1.833246,-0.21094 1.849,-0.25593 2.043947,-5.83786 z m -6.04981,-5.24796 c 2.692614,-0.56623 5.316283,-1.45013 5.830382,-1.96423 0.514092,-0.51409 1.485367,-0.93755 2.158377,-0.94101 1.940911,-0.009 7.729462,-3.62248 11.8736,-7.40999 9.646328,-8.8162 20.025764,-31.13692 20.120174,-43.26793 0.10425,-13.39604 -10.712723,-22.5435 -26.657938,-22.5435 -10.586634,0 -18.505093,3.19739 -25.656237,10.35968 -4.009548,4.01581 -5.454456,6.15409 -9.282708,13.73724 -10.05419,19.91573 -23.436859,37.47429 -31.472942,41.29368 l -3.396754,1.61441 10.342467,3.39832 c 13.099564,4.30424 16.538019,5.23086 22.771024,6.13644 9.575023,1.39115 15.269358,1.2905 23.370555,-0.41311 z"
         id="path2"
         sodipodi:nodetypes="scccsscsssssscsssscccssscsssssssssscsssscsssssscsss" />
      <g
         id="command_group12"
         inkscape:label="Ink/Stich Instrucción: Trim thread after sewing this object"
         transform="translate(6.48052, 3.56058)">
        <path
           id="command_connector12"
           d="m 38.424432,101.91949 7.718808,31.9811"
           style="fill:none;stroke:#000000;stroke-width:1px;stroke-opacity:0.5"
           inkscape:connection-start="#command_use8395"
           inkscape:connection-end="#path2"
           inkscape:label="conector"
           inkscape:connector-type="polyline"
           inkscape:connector-curvature="0" />
        <use
           id="command_use8395"
           xlink:href="#inkstitch_trim"
           height="100%"
           width="100%"
           x="38.421853474011506"
           y="101.88364490845711"
           inkscape:label="marcador de instrucción" />
      </g>
      <path
         d="M 100.43548,95.778457 C 74.222552,69.035634 60.406444,46.58478 60.457018,30.814396 c 0.03211,-10.013649 4.648523,-16.02333 15.670825,-20.400424 8.541073,-3.3917673 17.732873,-2.1310092 25.061367,3.437449 3.96075,3.009528 9.21119,9.295543 11.51531,13.786552 0.90748,1.768792 1.92299,3.047247 2.25668,2.841015 0.3337,-0.206234 1.58629,-2.1069 2.78354,-4.223705 6.75587,-11.944732 16.34448,-20.3913124 25.30762,-22.2934198 7.59636,-1.6120547 16.53369,1.694396 23.81498,8.8105648 15.35428,15.006076 8.40249,37.360694 -20.36672,65.492626 -10.40695,10.176415 -18.37133,16.900865 -32.28594,27.259516 l -2.44333,1.81892 z m 21.45232,2.711018 c 24.03811,-18.655138 39.78019,-35.480177 47.34268,-50.599616 3.41508,-6.827644 4.48426,-10.892699 4.49381,-17.085636 0.0121,-7.519875 -1.94331,-11.920073 -7.86969,-17.713287 C 160.07499,7.4411882 155.11821,5.0718603 148.35411,4.7257519 142.41815,4.4220194 138.86253,5.4355675 133.78925,8.8775357 127.62734,13.058105 120.44834,21.94462 116.28472,30.545525 l -1.52186,3.143756 -1.98775,-3.931005 C 108.6659,21.631806 102.52557,14.93626 96.060328,11.532105 92.816662,9.8242129 91.828599,9.6438215 85.75456,9.6505752 79.644857,9.6573673 78.634555,9.8472434 74.599184,11.747107 62.976959,17.218885 58.964012,26.137105 62.233255,39.22869 c 2.452477,9.820864 12.180724,25.892543 24.654206,40.730289 6.017371,7.157922 24.060729,26.126651 24.828809,26.102181 0.23803,-0.008 4.81522,-3.41485 10.17153,-7.571699 z"
         style="display:inline;fill:#35292b;stroke-width:0.671815"
         id="path1" />
      <g
         id="command_group13"
         inkscape:label="Ink/Stich Instrucción: Trim thread after sewing this object"
         transform="translate(6.48052, 3.56058)">
        <path
           id="command_connector13"
           d="m 114.34667,-22.637518 -1.85198,43.245701"
           style="fill:none;stroke:#000000;stroke-width:1px;stroke-opacity:0.5"
           inkscape:connection-start="#command_use5659"
           inkscape:connection-end="#path1"
           inkscape:label="conector"
           inkscape:connector-type="polyline"
           inkscape:connector-curvature="0" />
        <use
           id="command_use5659"
           xlink:href="#inkstitch_trim"
           height="100%"
           width="100%"
           x="114.34409535647116"
           y="-22.67336416983956"
           inkscape:label="marcador de instrucción" />
      </g>
    </g>
    <path
       d="m 122.26888,141.90246 c 4.34577,-7.1982 7.93878,-10.34485 14.95512,-13.09722 3.14737,-1.23466 5.23738,-1.52071 11.37708,-1.55714 4.34754,-0.0258 7.81596,0.24871 8.21945,0.65052 0.48113,0.47912 -1.35793,0.61257 -5.91773,0.42942 -12.79349,-0.51385 -22.34153,4.19906 -26.76572,13.21157 -1.5984,3.25609 -1.85665,4.57555 -1.79627,9.17735 0.0581,4.42225 0.57231,6.8624 2.90261,13.77219 4.3696,12.95665 10.10049,22.80013 17.28305,29.68569 3.11792,2.98899 10.08016,7.26406 11.83,7.26406 0.69474,0 1.6838,0.42063 2.1979,0.93472 1.58545,1.58546 10.6979,3.20837 17.99371,3.20465 10.72318,-0.005 16.2446,-1.13686 33.96938,-6.96078 l 10.33357,-3.39537 -3.16064,-1.52329 c -3.81294,-1.83767 -5.13907,-3.02343 -11.6299,-10.3989 -6.81452,-7.74329 -13.86353,-18.53019 -19.7557,-30.23163 -4.0775,-8.09761 -5.66978,-10.52817 -9.43659,-14.4046 -4.78479,-4.92401 -5.48798,-6.45417 -1.60497,-3.49245 3.94889,3.01195 6.94463,7.27497 11.7805,16.76393 8.02679,15.75019 15.74952,26.8168 25.0047,35.83153 4.17209,4.06371 5.55101,4.97907 8.96167,5.94896 l 4.03089,1.14627 -7.38997,2.63484 c -21.43096,7.64111 -31.07333,9.64653 -44.11729,9.17551 l -8.6201,-0.31127 v 5.9083 5.90829 l -2.91423,1.70786 c -1.60283,0.93932 -3.26558,1.70786 -3.69498,1.70786 -1.31195,0 -0.86988,-1.78658 0.73083,-2.95355 1.47083,-1.07227 1.43005,-1.09368 -1.51157,-0.79406 -1.66275,0.16935 -3.74836,0.40165 -4.63471,0.51619 -2.2744,0.29391 -2.4592,-1.04471 -0.30222,-2.18929 l 1.81203,-0.96153 -2.9723,-0.33591 c -2.04486,-0.2311 -2.97229,-0.65033 -2.97229,-1.34362 0,-0.75653 0.97035,-1.05817 3.89283,-1.2101 l 3.89285,-0.20236 -0.19786,-4.4266 -0.19787,-4.42658 -4.70256,-2.86119 c -9.26826,-5.63909 -16.48318,-14.60528 -21.94274,-27.26883 -2.92007,-6.77316 -7.4696,-17.46272 -7.49324,-21.78991 -0.0106,-1.94174 0.11936,-3.60165 -0.11075,-3.71754 -2.39892,-1.20818 -2.57128,-1.06256 -5.70921,-2.65904 z m 37.9575,68.5893 c 0,-4.80829 -0.0842,-5.08723 -1.72328,-5.71041 -0.94779,-0.36035 -1.85473,-0.65519 -2.01543,-0.65519 -0.47938,0 -0.33059,10.48668 0.1557,10.97297 0.24632,0.24633 1.15328,0.44787 2.01544,0.44787 1.50333,0 1.56757,-0.20715 1.56757,-5.05524 z"
       style="display:inline;fill:#35292b;stroke-width:0.671815"
       id="path1-9"
       sodipodi:nodetypes="cssssscsssscscsssssssscsscccsssssscssscccssssccssssss" />
    <g
       id="command_group14"
       inkscape:label="Ink/Stich Instrucción: Trim thread after sewing this object"
       transform="translate(4.70145, 4.89816)">
      <path
         id="command_connector14"
         d="m 154.10314,92.886731 9.65872,76.634989"
         style="fill:none;stroke:#000000;stroke-width:1px;stroke-opacity:0.5"
         inkscape:connection-start="#command_use9075"
         inkscape:connection-end="#path1-9"
         inkscape:label="conector"
         inkscape:connector-type="polyline"
         inkscape:connector-curvature="0" />
      <use
         id="command_use9075"
         xlink:href="#inkstitch_trim"
         height="100%"
         width="100%"
         x="154.1005565597568"
         y="92.85088156576678"
         inkscape:label="marcador de instrucción" />
    </g>
    <path
       d="m 80.280517,145.73804 c 0,-1.21331 4.173517,-4.09054 5.92992,-4.08808 1.946501,0.003 6.162731,2.26523 6.162731,3.30702 0,1.39799 -1.521913,1.45989 -2.948241,0.11986 -1.887952,-1.77364 -3.775031,-1.79589 -5.968657,-0.0703 -1.814906,1.42761 -3.175753,1.74107 -3.175753,0.73153 z"
       style="display:inline;fill:#35292b;stroke-width:0.671815"
       id="path1-93" />
    <g
       id="command_group15"
       inkscape:label="Ink/Stich Instrucción: Trim thread after sewing this object"
       transform="translate(4.70145, 4.89816)">
      <path
         id="command_connector15"
         d="m 80.142671,106.84448 1.375172,29.90735"
         style="fill:none;stroke:#000000;stroke-width:1px;stroke-opacity:0.5"
         inkscape:connection-start="#command_use9486"
         inkscape:connection-end="#path1-93"
         inkscape:label="conector"
         inkscape:connector-type="polyline"
         inkscape:connector-curvature="0" />
      <use
         id="command_use9486"
         xlink:href="#inkstitch_trim"
         height="100%"
         width="100%"
         x="80.14009204992504"
         y="106.80863098209613"
         inkscape:label="marcador de instrucción" />
    </g>
    <path
       d="m 135.70057,146.34273 c -0.75276,-1.218 3.41704,-4.72951 5.62998,-4.69526 3.52659,0.0546 5.5966,0.5293 6.38936,2.8552 0.48589,1.42558 -1.49794,1.46541 -3.24159,0.14659 -1.93904,-1.46662 -4.27433,-1.19804 -6.02704,0.69318 -1.71862,1.85442 -2.13028,2.00411 -2.75071,1.00028 z"
       style="display:inline;fill:#35292b;stroke-width:0.671815"
       id="path1-6" />
    <g
       id="command_group16"
       inkscape:label="Ink/Stich Instrucción: Trim thread after sewing this object"
       transform="translate(4.70145, 4.89816)">
      <path
         id="command_connector16"
         d="m 132.2905,107.11539 4.32329,29.63374"
         style="fill:none;stroke:#000000;stroke-width:1px;stroke-opacity:0.5"
         inkscape:connection-start="#command_use2895"
         inkscape:connection-end="#path1-6"
         inkscape:label="conector"
         inkscape:connector-type="polyline"
         inkscape:connector-curvature="0" />
      <use
         id="command_use2895"
         xlink:href="#inkstitch_trim"
         height="100%"
         width="100%"
         x="132.2879252391569"
         y="107.07954786956145"
         inkscape:label="marcador de instrucción" />
    </g>
  </g>
</svg>
