<?xml version="1.0" encoding="UTF-8" standalone="no"?>
<!-- Created with Inkscape (http://www.inkscape.org/) -->

<svg
   version="1.1"
   id="svg1"
   width="51.816002mm"
   height="43.18mm"
   viewBox="0 0 195.84001 163.2"
   sodipodi:docname="pata-gato.svg"
   inkscape:version="1.3.2 (1:1.3.2+202311252150+091e20ef0f)"
   xmlns:inkscape="http://www.inkscape.org/namespaces/inkscape"
   xmlns:sodipodi="http://sodipodi.sourceforge.net/DTD/sodipodi-0.dtd"
   xmlns="http://www.w3.org/2000/svg"
   xmlns:svg="http://www.w3.org/2000/svg"
   xmlns:inkstitch="http://inkstitch.org/namespace">
  <metadata
     id="metadata1">
    <inkstitch:min_stitch_len_mm>0</inkstitch:min_stitch_len_mm>
    <inkstitch:collapse_len_mm>3</inkstitch:collapse_len_mm>
    <inkstitch:inkstitch_svg_version>1</inkstitch:inkstitch_svg_version>
  </metadata>
  <defs
     id="defs1" />
  <sodipodi:namedview
     id="namedview1"
     pagecolor="#ffffff"
     bordercolor="#666666"
     borderopacity="1.0"
     inkscape:showpageshadow="2"
     inkscape:pageopacity="0.0"
     inkscape:pagecheckerboard="0"
     inkscape:deskcolor="#d1d1d1"
     inkscape:zoom="2.1037582"
     inkscape:cx="100.2967"
     inkscape:cy="47.53398"
     inkscape:window-width="1848"
     inkscape:window-height="1016"
     inkscape:window-x="72"
     inkscape:window-y="27"
     inkscape:window-maximized="1"
     inkscape:current-layer="g1"
     inkscape:document-units="mm" />
  <g
     inkscape:groupmode="layer"
     inkscape:label="Image"
     id="g1">
    <path
       style="fill:#000000;stroke-width:2.64964"
       d="m 122.08638,156.28153 c -2.79802,-0.65682 -8.42032,-2.55658 -12.49402,-4.22169 -10.059875,-4.11196 -13.144123,-4.01846 -25.993082,0.788 -8.909875,3.33295 -11.042371,3.81548 -16.862182,3.81548 -9.770736,0 -14.784213,-1.76829 -20.108198,-7.09226 -5.535397,-5.53541 -7.567569,-10.97849 -7.535167,-20.1826 0.03468,-9.85347 3.050637,-15.35487 13.97291,-25.48804 5.432332,-5.039859 9.807326,-9.998324 12.191362,-13.817257 4.796178,-7.682898 13.388608,-15.918727 19.686572,-18.869552 4.276573,-2.003729 5.978792,-2.305774 12.977119,-2.302687 7.111266,0.0032 8.625806,0.283394 12.928236,2.392316 6.56196,3.21646 13.28022,9.536506 18.48795,17.392081 2.40797,3.632301 8.33823,10.421476 13.451,15.399209 11.81574,11.50366 13.21283,14.23808 13.21283,25.86045 0,7.57786 -0.25325,8.99458 -2.38335,13.33233 -5.41082,11.01865 -17.94458,16.18377 -31.53198,12.99422 z M 28.81192,93.186528 C 18.997385,88.727879 13.36846,74.314838 16.813521,62.464243 c 2.354755,-8.100072 10.2107,-15.107619 16.9946,-15.159279 7.87037,-0.05994 16.502775,6.66319 19.572171,15.243281 3.230714,9.031037 1.578563,21.591694 -3.608369,27.43301 -4.060994,4.57333 -14.451077,6.162216 -20.960003,3.205273 z m 122.06742,-0.01245 C 140.6009,88.50523 137.18269,72.705711 143.62142,59.626806 c 7.78456,-15.812706 25.85134,-16.35281 33.5216,-1.002121 6.24952,12.507323 0.68513,30.057496 -11.08978,34.977366 -3.89789,1.628647 -11.09303,1.425709 -15.1739,-0.427977 z M 65.915489,59.068125 c -4.39117,-2.173591 -7.412264,-5.625449 -10.311522,-11.781783 -1.90565,-4.046498 -2.196156,-5.784929 -2.196156,-13.142194 0,-7.577858 0.253252,-8.994576 2.383358,-13.332329 3.595061,-7.32102 10.773158,-12.5424642 17.216333,-12.5233895 6.51184,0.019342 14.873861,6.3263265 18.22795,13.7484245 1.755156,3.883903 2.022883,5.766837 2.022883,14.227003 0,8.917455 -0.192072,10.112923 -2.247752,13.990077 -1.236262,2.33168 -3.149207,5.079689 -4.250989,6.106687 -5.017348,4.676804 -14.402782,5.895907 -20.844105,2.707504 z m 47.692051,0.171962 c -6.38344,-2.964696 -9.5945,-7.616432 -11.44456,-16.579294 -2.741009,-13.279151 2.95788,-27.312716 13.10808,-32.278743 3.87262,-1.8946991 5.44603,-2.2259883 8.55084,-1.8004277 15.79042,2.1643177 23.76947,22.5053947 15.62478,39.8324577 -4.90441,10.433699 -16.35448,15.231016 -25.83914,10.826007 z"
       id="path1"
       sodipodi:nodetypes="ssssssssssssssssssssssssssssssscsssssssssss" />
  </g>
</svg>
