<?xml version="1.0" encoding="UTF-8" standalone="no"?>
<!-- Created with Inkscape (http://www.inkscape.org/) -->

<svg
   version="1.1"
   id="svg1"
   width="76.960457mm"
   height="92.44532mm"
   viewBox="0 0 290.87417 349.39964"
   sodipodi:docname="pool.svg"
   inkscape:version="1.3.2 (1:1.3.2+202404261509+091e20ef0f)"
   xmlns:inkscape="http://www.inkscape.org/namespaces/inkscape"
   xmlns:sodipodi="http://sodipodi.sourceforge.net/DTD/sodipodi-0.dtd"
   xmlns="http://www.w3.org/2000/svg"
   xmlns:svg="http://www.w3.org/2000/svg"
   xmlns:inkstitch="http://inkstitch.org/namespace">
  <metadata
     id="metadata110">
    <inkstitch:min_stitch_len_mm>0</inkstitch:min_stitch_len_mm>
    <inkstitch:collapse_len_mm>3</inkstitch:collapse_len_mm>
    <inkstitch:inkstitch_svg_version>1</inkstitch:inkstitch_svg_version>
  </metadata>
  <defs
     id="defs1">
    <inkscape:path-effect
       effect="powerclip"
       id="path-effect109"
       is_visible="true"
       lpeversion="1"
       inverse="true"
       flatten="false"
       hide_clip="false"
       message="Use fill-rule evenodd on &lt;b&gt;fill and stroke&lt;/b&gt; dialog if no flatten result after convert clip to paths." />
    <clipPath
       clipPathUnits="userSpaceOnUse"
       id="clipPath109">
      <path
         id="path109"
         style="display:none;fill:#000000;stroke-width:0.406882"
         d="m 78.83528,262.72316 c -0.217732,-0.57268 -0.829028,-1.99168 -1.358439,-3.15333 -3.863731,-8.478 -5.842128,-17.88157 -6.22258,-29.57669 -0.394366,-12.12286 0.853912,-21.28694 4.295297,-31.53339 1.420381,-4.22907 2.320756,-6.47901 5.593372,-13.97723 2.029758,-4.65057 -4.549166,4.77126 -8.659884,12.40202 -1.991344,3.69656 -3.888172,8.08155 -5.081559,11.74728 -4.545122,13.96126 -1.163656,33.54262 8.8181,51.06375 0.573704,1.00703 1.312143,2.33448 1.640974,2.9499 0.767733,1.43684 1.514082,1.49633 0.974719,0.0776 z m 11.489283,-29.75922 c -0.652904,-1.96962 -1.392193,-4.49659 -1.642873,-5.61554 -0.250676,-1.11892 -0.658251,-2.94985 -0.905712,-4.06873 -0.708009,-3.20119 -0.958685,-14.51648 -0.43718,-19.73388 0.658724,-6.5902 2.531948,-15.03117 4.108456,-18.51317 0.202643,-0.44757 1.032631,-2.37009 1.844415,-4.27225 0.811787,-1.90218 2.379127,-5.15667 3.482983,-7.23219 1.10385,-2.07552 2.007006,-3.88314 2.007006,-4.01693 0,-0.57982 -1.524769,1.12098 -4.082123,4.5534 -5.612293,7.53268 -8.357534,12.39318 -10.331373,18.29186 -3.647934,10.90159 -1.79231,26.7039 4.771498,40.63364 1.145794,2.43162 2.148226,4.22622 2.227629,3.988 0.0794,-0.2382 -0.389825,-2.0446 -1.042726,-4.01421 z m 12.812757,-23.99877 c -1.51246,-4.74983 -1.91516,-7.87772 -1.90686,-14.81102 0.0121,-10.13943 1.52224,-16.50003 6.06394,-25.54122 1.16406,-2.31728 2.03568,-4.29402 1.93693,-4.39276 -0.16862,-0.16862 -2.17525,2.18384 -3.53266,4.1415 -3.94832,5.69423 -5.52944,8.64858 -6.964987,13.01426 -1.614308,4.90928 -1.295267,13.9269 0.733976,20.74576 1.523031,5.11785 3.985751,10.72197 4.490091,10.21763 0.10595,-0.10595 -0.26325,-1.62432 -0.82043,-3.37415 z m 8.515,-14.04287 c -1.50429,-5.02307 -1.88146,-10.96591 -1.06173,-16.72873 0.71706,-5.0409 1.76723,-8.31159 4.31489,-13.43853 0.98264,-1.97746 1.55604,-3.52584 1.27422,-3.44083 -0.82509,0.24886 -6.2315,8.55353 -7.26476,11.15921 -0.77329,1.95012 -0.97407,3.338 -1.09668,7.58091 -0.18336,6.34465 0.4681,9.63274 3.03166,15.30168 1.22288,2.70423 1.66978,2.46268 0.8024,-0.43371 z m 7.50155,-16.88415 c -0.63707,-2.29419 -0.52626,-8.71884 0.20591,-11.93795 0.35249,-1.54978 1.18544,-3.9419 1.85099,-5.31587 0.66556,-1.37396 1.12304,-2.58517 1.0166,-2.69159 -0.33168,-0.3317 -2.73799,3.2159 -4.05986,5.98545 -2.04455,4.28365 -1.86676,10.08397 0.46045,15.02146 0.79976,1.69678 1.11512,1.06031 0.52591,-1.0615 z m 5.63199,-5.86853 c -0.49412,-3.17477 -0.25898,-8.27227 0.48855,-10.59054 0.24231,-0.75146 0.8887,-2.34986 1.43644,-3.55201 0.54774,-1.20215 0.88363,-2.298 0.74641,-2.43522 -0.36603,-0.36604 -1.62021,1.39479 -3.24196,4.55162 -1.26767,2.46761 -1.42732,3.12844 -1.42531,5.8998 10e-4,1.71652 0.19218,3.85333 0.42429,4.74847 0.50262,1.93839 1.67262,4.75004 1.88727,4.53537 0.0837,-0.0837 -0.0583,-1.50451 -0.31569,-3.15749 z" />
      <path
         id="lpe_path-effect109"
         style="fill:#000000;stroke-width:0.406882"
         class="powerclip"
         d="M 52.488984,132.93008 H 146.52944 V 325.07123 H 52.488984 Z M 78.83528,262.72316 c -0.217732,-0.57268 -0.829028,-1.99168 -1.358439,-3.15333 -3.863731,-8.478 -5.842128,-17.88157 -6.22258,-29.57669 -0.394366,-12.12286 0.853912,-21.28694 4.295297,-31.53339 1.420381,-4.22907 2.320756,-6.47901 5.593372,-13.97723 2.029758,-4.65057 -4.549166,4.77126 -8.659884,12.40202 -1.991344,3.69656 -3.888172,8.08155 -5.081559,11.74728 -4.545122,13.96126 -1.163656,33.54262 8.8181,51.06375 0.573704,1.00703 1.312143,2.33448 1.640974,2.9499 0.767733,1.43684 1.514082,1.49633 0.974719,0.0776 z m 11.489283,-29.75922 c -0.652904,-1.96962 -1.392193,-4.49659 -1.642873,-5.61554 -0.250676,-1.11892 -0.658251,-2.94985 -0.905712,-4.06873 -0.708009,-3.20119 -0.958685,-14.51648 -0.43718,-19.73388 0.658724,-6.5902 2.531948,-15.03117 4.108456,-18.51317 0.202643,-0.44757 1.032631,-2.37009 1.844415,-4.27225 0.811787,-1.90218 2.379127,-5.15667 3.482983,-7.23219 1.10385,-2.07552 2.007006,-3.88314 2.007006,-4.01693 0,-0.57982 -1.524769,1.12098 -4.082123,4.5534 -5.612293,7.53268 -8.357534,12.39318 -10.331373,18.29186 -3.647934,10.90159 -1.79231,26.7039 4.771498,40.63364 1.145794,2.43162 2.148226,4.22622 2.227629,3.988 0.0794,-0.2382 -0.389825,-2.0446 -1.042726,-4.01421 z m 12.812757,-23.99877 c -1.51246,-4.74983 -1.91516,-7.87772 -1.90686,-14.81102 0.0121,-10.13943 1.52224,-16.50003 6.06394,-25.54122 1.16406,-2.31728 2.03568,-4.29402 1.93693,-4.39276 -0.16862,-0.16862 -2.17525,2.18384 -3.53266,4.1415 -3.94832,5.69423 -5.52944,8.64858 -6.964987,13.01426 -1.614308,4.90928 -1.295267,13.9269 0.733976,20.74576 1.523031,5.11785 3.985751,10.72197 4.490091,10.21763 0.10595,-0.10595 -0.26325,-1.62432 -0.82043,-3.37415 z m 8.515,-14.04287 c -1.50429,-5.02307 -1.88146,-10.96591 -1.06173,-16.72873 0.71706,-5.0409 1.76723,-8.31159 4.31489,-13.43853 0.98264,-1.97746 1.55604,-3.52584 1.27422,-3.44083 -0.82509,0.24886 -6.2315,8.55353 -7.26476,11.15921 -0.77329,1.95012 -0.97407,3.338 -1.09668,7.58091 -0.18336,6.34465 0.4681,9.63274 3.03166,15.30168 1.22288,2.70423 1.66978,2.46268 0.8024,-0.43371 z m 7.50155,-16.88415 c -0.63707,-2.29419 -0.52626,-8.71884 0.20591,-11.93795 0.35249,-1.54978 1.18544,-3.9419 1.85099,-5.31587 0.66556,-1.37396 1.12304,-2.58517 1.0166,-2.69159 -0.33168,-0.3317 -2.73799,3.2159 -4.05986,5.98545 -2.04455,4.28365 -1.86676,10.08397 0.46045,15.02146 0.79976,1.69678 1.11512,1.06031 0.52591,-1.0615 z m 5.63199,-5.86853 c -0.49412,-3.17477 -0.25898,-8.27227 0.48855,-10.59054 0.24231,-0.75146 0.8887,-2.34986 1.43644,-3.55201 0.54774,-1.20215 0.88363,-2.298 0.74641,-2.43522 -0.36603,-0.36604 -1.62021,1.39479 -3.24196,4.55162 -1.26767,2.46761 -1.42732,3.12844 -1.42531,5.8998 10e-4,1.71652 0.19218,3.85333 0.42429,4.74847 0.50262,1.93839 1.67262,4.75004 1.88727,4.53537 0.0837,-0.0837 -0.0583,-1.50451 -0.31569,-3.15749 z" />
    </clipPath>
  </defs>
  <sodipodi:namedview
     id="namedview1"
     pagecolor="#ffffff"
     bordercolor="#000000"
     borderopacity="0.25"
     inkscape:showpageshadow="2"
     inkscape:pageopacity="0.0"
     inkscape:pagecheckerboard="0"
     inkscape:deskcolor="#d1d1d1"
     inkscape:zoom="0.70443845"
     inkscape:cx="312.3055"
     inkscape:cy="191.64201"
     inkscape:window-width="1366"
     inkscape:window-height="731"
     inkscape:window-x="0"
     inkscape:window-y="0"
     inkscape:window-maximized="1"
     inkscape:current-layer="g1"
     inkscape:document-units="mm" />
  <g
     inkscape:groupmode="layer"
     inkscape:label="Image"
     id="g1"
     transform="translate(-6.0124461,-14.345421)">
    <path
       style="display:inline;fill:#000000;stroke-width:0.406882"
       d="m 145.41343,56.731966 c -0.11424,-0.184863 0.0687,-3.068643 0.40662,-6.408399 0.33787,-3.339754 0.65142,-10.466613 0.69675,-15.837463 0.0474,-5.605107 0.25388,-10.025185 0.48488,-10.375502 0.53777,-0.815576 0.53367,-8.581125 -0.004,-8.408146 -0.22379,0.07194 -0.4654,0.528422 -0.53691,1.014411 -0.16332,1.109918 -0.88719,1.16691 -0.88719,0.06985 0,-1.469107 1.43317,-2.441296 3.59888,-2.441296 3.42206,0 3.45208,0.10253 2.93797,10.033181 -0.24145,4.663984 -0.41831,11.043332 -0.39303,14.176327 0.0261,3.22417 -0.16036,6.462308 -0.42947,7.461249 -0.4066,1.509339 -0.83119,3.594388 -1.93119,9.483214 -0.15025,0.804412 -0.5119,1.138221 -1.43262,1.322368 -1.65893,0.331789 -2.26305,0.31018 -2.51025,-0.0898 z"
       id="path90" />
    <path
       style="display:inline;fill:#000000;stroke-width:0.406882"
       d="m 144.77168,68.371176 c -1.11513,-0.590878 -2.38789,-2.553011 -1.94399,-2.996913 0.15647,-0.15647 0.51779,-0.09024 0.80293,0.147171 0.41246,0.343425 0.49023,-0.0609 0.3805,-1.97806 -0.0759,-1.325346 -0.30475,-2.306634 -0.5086,-2.180639 -0.66287,0.40967 -0.39139,-0.681426 0.4708,-1.892267 0.8404,-1.180241 0.84707,-1.181737 5.26177,-1.181737 4.41468,0 4.42135,0.0015 5.26176,1.181737 0.87602,1.23025 1.11212,2.480205 0.4685,2.480205 -0.20513,0 -0.46533,-0.228871 -0.5782,-0.508604 -0.11288,-0.279731 -0.21969,0.36111 -0.23734,1.424089 -0.0274,1.650731 -0.15085,1.932692 -0.84589,1.932692 -1.02535,0 -1.05354,0.656815 -0.0511,1.19324 1.05251,0.563288 2.08563,-0.638211 2.08563,-2.425581 0,-1.020253 0.11789,-1.25382 0.4601,-0.9116 0.55899,0.558992 -0.24173,3.623785 -1.32037,5.053775 -0.62714,0.831427 -1.09779,0.937534 -4.69921,1.059464 -2.74869,0.09306 -4.31701,-0.03129 -5.00716,-0.396972 z"
       id="path82" />
    <path
       style="display:inline;fill:#000000;stroke-width:0.406882"
       d="m 144.3549,114.13335 c 0.001,-0.16783 0.26103,-2.04458 0.57714,-4.17055 1.03217,-6.94156 1.57916,-16.240788 1.30437,-22.175088 -0.23142,-4.997921 -0.88938,-14.344342 -1.17439,-16.682183 -0.0928,-0.761525 0.1722,-0.821248 4.12868,-0.930353 l 4.22789,-0.116588 -0.27884,1.947559 c -0.68596,4.791063 -1.04435,11.583738 -1.05804,20.053831 -0.0152,9.431072 -0.20102,11.473412 -1.60511,17.647552 -0.45154,1.98557 -0.73357,3.75158 -0.62671,3.92448 0.10686,0.17289 -0.0943,0.42508 -0.44697,0.56043 -0.91928,0.35276 -5.05088,0.30439 -5.04802,-0.0591 z"
       id="path79" />
    <path
       style="display:inline;fill:#000000;stroke-width:0.406882"
       d="m 142.70432,127.84353 c -0.66001,-0.70653 -1.2,-1.62063 -1.2,-2.03132 0,-0.4107 -0.18309,-0.85988 -0.40688,-0.9982 -0.22379,-0.13829 -0.40689,-1.05378 -0.40689,-2.0344 0,-0.98061 0.1831,-1.89611 0.40689,-2.03442 0.25136,-0.15534 0.41033,0.57423 0.41593,1.90869 0.006,1.46298 0.25082,2.4746 0.75819,3.13449 l 0.74915,0.97434 -0.31595,-1.99155 c -0.17377,-1.09536 -0.2252,-2.81548 -0.1143,-3.82253 0.146,-1.32588 0.0863,-1.66585 -0.21669,-1.23243 -0.75367,1.07837 -0.95439,0.11033 -0.27429,-1.32288 0.36558,-0.77042 1.07669,-1.58848 1.58025,-1.81791 1.21811,-0.555 9.81377,-0.65429 10.80315,-0.12479 1.4332,0.76702 2.88986,3.98304 2.88986,6.38023 0,1.20263 -0.14322,2.18661 -0.31826,2.18661 -0.17505,0 -0.3325,-0.98525 -0.34992,-2.18944 -0.0174,-1.20421 -0.29397,-2.56399 -0.6146,-3.02176 -0.52635,-0.75146 -0.56679,-0.57835 -0.41646,1.78257 0.16501,2.59141 0.15695,2.61486 -0.89809,2.61486 -0.79336,0 -1.06461,0.20734 -1.06461,0.81377 0,0.54251 0.27125,0.81377 0.81377,0.81377 0.44756,0 0.81375,0.20551 0.81375,0.45671 0,0.29688 0.23672,0.26129 0.6765,-0.10173 0.37207,-0.30714 0.59507,-0.37534 0.49555,-0.15155 -1.20527,2.71023 -1.68549,3.03561 -4.49555,3.04608 -1.95818,0.007 -2.77957,-0.3352 -2.50707,-1.04533 0.13588,-0.35411 -0.0379,-0.57666 -0.45041,-0.57666 -0.414,0 -0.62582,0.27318 -0.55214,0.71205 0.10049,0.59901 -0.25513,0.73152 -2.24066,0.83468 -2.196,0.11411 -2.44373,0.0333 -3.56022,-1.16195 z"
       id="path70" />
    <path
       style="display:inline;fill:#000000;stroke-width:0.406882"
       d="m 95.955447,146.6139 c 0.536735,-0.80065 1.18299,-1.82193 1.436128,-2.2695 0.25314,-0.44756 1.612695,-2.73629 3.021245,-5.08602 1.40853,-2.34976 2.95904,-5.00466 3.44556,-5.89981 0.48652,-0.89514 2.68422,-4.74017 4.88377,-8.54454 5.2794,-9.13123 9.60177,-16.65833 10.86462,-18.92003 3.1203,-5.58816 6.7654,-11.955347 8.32337,-14.53912 0.97603,-1.618636 1.77459,-3.007273 1.77459,-3.085866 0,-0.07859 1.30897,-2.416199 2.90885,-5.194677 7.23515,-12.565322 7.37239,-12.864941 6.29999,-13.754956 -0.72783,-0.604049 -0.62451,-0.747643 -5.2378,7.279083 -2.12222,3.692459 -4.86428,8.452984 -6.09349,10.578945 -3.38793,5.85954 -11.87724,20.690761 -13.14649,22.967491 -0.61723,1.10717 -1.67102,2.93814 -2.34178,4.06882 -0.67076,1.13069 -1.53336,2.60507 -1.9169,3.27643 -0.38353,0.67136 -2.4956,4.3333 -4.69349,8.13766 -2.1979,3.80434 -5.40214,9.38881 -7.120554,12.40992 -1.718405,3.02109 -3.863656,6.77459 -4.767224,8.34108 -0.903569,1.56649 -1.562747,2.98166 -1.464843,3.1448 0.307148,0.51182 2.804471,-1.38819 3.824448,-2.90971 z"
       id="path69" />
    <path
       style="display:inline;fill:#000000;stroke-width:0.406882"
       d="m 83.246703,159.50073 c 0.991577,-1.62539 4.983734,-8.52578 7.003087,-12.10476 0.820728,-1.4546 2.188259,-3.83486 3.038953,-5.28946 0.850694,-1.45461 2.223902,-3.83487 3.051574,-5.28947 1.447583,-2.5441 9.541343,-16.57017 14.439703,-25.02328 3.7742,-6.51314 11.60664,-20.109651 13.24304,-22.988862 0.82672,-1.454605 3.10585,-5.391193 5.06472,-8.747974 1.95886,-3.35678 3.86461,-6.652529 4.23498,-7.323884 0.37036,-0.671357 1.85921,-3.234716 3.30855,-5.696356 l 2.63515,-4.475707 0.20519,2.034799 c 0.11285,1.119143 0.63737,2.767017 1.1656,3.661941 0.92126,1.560855 0.95768,1.924811 0.89351,8.933708 -0.0368,4.018612 -0.21639,7.497458 -0.3991,7.730768 -0.18272,0.233311 -0.80172,1.277596 -1.37556,2.320626 -0.57383,1.043031 -2.4547,4.33878 -4.1797,7.323884 -1.72498,2.985107 -4.87688,8.448567 -7.00419,12.141027 -2.12733,3.69245 -4.87767,8.45298 -6.1119,10.57894 -2.43398,4.19256 -4.61378,7.96545 -5.83482,10.09916 -0.42528,0.74316 -2.17508,3.76427 -3.88846,6.71357 -1.71336,2.9493 -3.64838,6.32898 -4.30003,7.5104 -0.91089,1.6514 -1.63433,2.37582 -3.12908,3.13327 -6.126664,3.1046 -18.926394,12.26393 -21.529014,15.40589 -0.983769,1.18762 -1.367236,0.72056 -0.532203,-0.64823 z"
       id="path68" />
    <path
       style="display:inline;fill:#000000;stroke-width:0.406882"
       d="m 213.31908,159.15196 c -2.85051,-2.86352 -11.33061,-9.20291 -15.49889,-11.58637 -5.95681,-3.40614 -7.10937,-4.30566 -8.29814,-6.4763 -0.6128,-1.11892 -2.81349,-4.96396 -4.89042,-8.54453 -2.07694,-3.58056 -6.24999,-10.81289 -9.27345,-16.07186 -7.67296,-13.34627 -12.51517,-21.746108 -15.8996,-27.581194 l -2.89961,-4.999218 v -6.884025 c 0,-6.657326 0.0333,-6.932993 1.00915,-8.371087 0.55503,-0.817883 1.12745,-2.378855 1.27204,-3.46882 0.14459,-1.089968 0.41098,-1.89023 0.592,-1.77836 0.181,0.111867 0.85909,1.161189 1.50687,2.331826 1.02245,1.847703 11.19871,19.507274 14.94268,25.931054 2.86314,4.912475 9.37359,16.258214 11.09025,19.326914 1.00149,1.79029 1.96317,3.43816 2.1371,3.66195 0.17391,0.22378 2.41473,4.06882 4.97958,8.54453 2.56485,4.47571 5.72591,9.96862 7.02458,12.20648 3.16257,5.44975 9.70625,16.81457 11.71381,20.34412 0.89101,1.5665 1.96128,3.33419 2.3784,3.92819 1.6393,2.33453 0.69192,2.07673 -1.88635,-0.5133 z"
       id="path67" />
    <path
       style="display:inline;fill:#000000;stroke-width:0.406882"
       d="m 143.84271,169.06247 c 0.55376,-5.20949 0.89891,-28.58274 0.51521,-34.89017 l -0.19801,-3.25506 5.00182,-0.11442 5.00184,-0.11444 -0.32811,5.60734 c -0.43179,7.37921 -0.41576,16.82596 0.0409,24.08218 0.26155,4.15629 0.24187,5.78301 -0.0677,5.59171 -0.24009,-0.14839 -0.57027,-2.32831 -0.73376,-4.84428 -0.31825,-4.89828 -0.61294,-4.91976 -1.35487,-0.0988 -0.24108,1.5665 -0.63551,3.94676 -0.87651,5.28947 -0.241,1.34271 -0.53862,3.03806 -0.66137,3.76744 -0.12277,0.72937 -0.38607,1.42679 -0.58513,1.54981 -0.19905,0.12303 -0.36192,0.76218 -0.36192,1.42033 v 1.19663 h -2.97192 -2.97192 z"
       id="path62" />
    <path
       style="display:inline;fill:#000000;stroke-width:0.406882"
       d="m 141.52176,190.65874 c -0.61736,-0.78484 -0.72109,-1.17044 -0.37278,-1.38569 0.37015,-0.22879 0.36001,-0.73608 -0.0435,-2.17742 -0.33867,-1.20955 -0.43056,-2.78184 -0.2579,-4.41237 0.14752,-1.39328 0.32218,-3.06287 0.38812,-3.71024 0.23588,-2.31583 1.31812,-2.68836 7.80984,-2.68836 5.72555,0 5.84534,0.0185 7.12224,1.09281 1.39172,1.17108 2.83252,4.04727 2.83252,5.65448 0,1.54472 -0.68324,1.14932 -0.95544,-0.55294 -0.13513,-0.84503 -0.4931,-1.87477 -0.79548,-2.2883 -0.47278,-0.64657 -0.52368,-0.25424 -0.36331,2.8011 l 0.18649,3.55299 -1.27433,-0.27988 c -0.98166,-0.21561 -1.33337,-0.126 -1.53145,0.39019 -0.41162,1.07269 0.51649,1.71743 1.54641,1.07424 0.78617,-0.49097 0.84192,-0.46346 0.63837,0.31495 -0.12268,0.46909 -0.0649,0.95062 0.12831,1.07005 0.41942,0.25921 1.60404,-1.90203 1.61289,-2.94258 0.003,-0.40274 0.16364,-0.98067 0.35602,-1.28429 0.672,-1.06055 0.36925,1.6937 -0.37772,3.43631 -1.42258,3.31872 -1.70086,3.4224 -9.18658,3.4224 h -6.60729 z"
       id="path51" />
    <path
       style="display:inline;fill:#000000;stroke-width:0.406882"
       d="m 142.32599,237.01187 c 0.004,-0.16784 0.28386,-2.13614 0.62111,-4.37399 1.21698,-8.07524 1.16998,-35.00259 -0.0667,-38.22537 -0.21289,-0.55473 0.53696,-0.63191 6.14005,-0.63191 h 6.38254 l -0.22778,1.11893 c -0.64189,3.1534 -1.05754,8.63651 -1.05754,13.95091 0,3.265 -0.27283,8.00496 -0.60629,10.53327 -0.33347,2.52831 -0.48652,4.79072 -0.34014,5.02758 0.16152,0.26136 0.0208,0.33653 -0.35785,0.19121 -0.50423,-0.19349 -0.67368,0.24238 -0.88267,2.27043 -0.23107,2.24225 -0.7202,5.31324 -1.15937,7.27899 -0.0859,0.38514 -0.2838,0.82763 -0.43946,0.98329 -0.15568,0.15567 -0.28304,0.59736 -0.28304,0.98154 0,0.38415 -0.41196,0.8089 -0.91548,0.94383 -1.31689,0.35291 -6.81677,0.31356 -6.80738,-0.0487 z"
       id="path46" />
    <path
       style="display:inline;fill:#000000;stroke-width:0.406882"
       d="m 140.37447,255.92683 c -2.61248,-2.78085 -3.45953,-9.06331 -1.69617,-12.58018 0.48462,-0.96655 1.35298,-2.26087 1.9297,-2.87628 l 1.04856,-1.11892 h 7.37139 7.37138 l 1.25492,1.32235 c 2.25127,2.3723 2.77078,3.8131 2.75082,7.62906 -0.0188,3.5781 -0.61536,5.34252 -2.57972,7.62904 -0.76542,0.89096 -0.99821,0.9155 -8.68628,0.9155 -7.67918,0 -7.92394,-0.0258 -8.7646,-0.92057 z"
       id="path32" />
    <path
       style="display:inline;fill:#000000;stroke-width:0.406882"
       d="m 141.64985,300.2821 c 0.14476,-1.39866 0.43447,-3.8247 0.64382,-5.3912 1.01063,-7.56265 0.87514,-28.02242 -0.22834,-34.48329 l -0.2606,-1.52581 h 7.21465 7.21466 l -0.20145,1.72925 c -0.79337,6.8109 -1.07247,10.28551 -1.29917,16.17359 -0.2316,6.01539 -0.81452,11.30498 -1.83839,16.68217 -1.10682,5.81284 -1.83331,8.78265 -2.21311,9.04691 -0.2363,0.16442 -2.42441,0.30174 -4.86245,0.30517 l -4.43283,0.006 z"
       id="path28" />
    <path
       style="display:inline;fill:#000000;stroke-width:0.406882"
       d="m 163.57089,307.3401 c -0.36067,-0.58108 -1.25539,-1.81167 -1.98826,-2.73468 -1.13975,-1.43541 -1.45057,-2.34779 -2.14852,-6.30668 -1.37477,-7.79794 -1.89904,-18.68378 -1.31537,-27.31219 0.61266,-9.05693 1.16401,-11.79626 2.87469,-14.28265 2.14321,-3.11505 2.6011,-4.60152 2.58785,-8.40104 -0.0134,-3.8192 -0.55161,-5.51118 -2.71837,-8.54454 -1.56547,-2.19155 -1.72432,-2.69683 -2.49356,-7.93144 -1.52231,-10.35928 -1.66462,-25.00257 -0.3335,-34.31604 0.48957,-3.42534 0.81948,-4.50578 1.78125,-5.83347 1.3556,-1.87135 2.43823,-5.22777 2.43823,-7.55915 0,-2.17116 -1.4005,-6.0927 -2.79717,-7.83233 -1.41599,-1.76372 -1.52361,-2.34925 -2.28085,-12.41115 -0.67847,-9.01486 -0.77373,-13.08014 -0.31317,-13.36324 0.51911,-0.31912 8.23964,0.95663 12.30818,2.03384 36.43583,9.64678 61.33051,43.27409 59.65433,80.58007 -0.46762,10.40758 -2.83619,20.77015 -6.60994,28.91866 -0.75366,1.62736 -1.3703,3.03192 -1.3703,3.12124 0,0.33593 -4.06157,7.17831 -5.73017,9.65344 -3.71793,5.51504 -9.21256,11.63371 -14.20707,15.82064 -1.45461,1.21941 -2.73629,2.32324 -2.84819,2.45298 -0.11188,0.12973 -2.12596,1.52973 -4.4757,3.11112 -8.08752,5.44292 -18.36563,9.8981 -26.98751,11.69806 -2.34584,0.48974 -2.37809,0.48376 -3.02688,-0.56145 z"
       id="path27" />
    <path
       style="display:inline;fill:#000000;stroke-width:0.406882"
       d="m 164.98335,318.38836 c 0.17798,-0.83919 0.29154,-2.84381 0.25234,-4.45473 l -0.0713,-2.92892 3.12289,-0.66682 c 12.14392,-2.59305 22.75664,-7.4277 32.82529,-14.95358 4.5139,-3.37396 13.70877,-12.7978 16.88562,-17.30612 10.33705,-14.66947 15.46152,-30.59777 15.46152,-48.05869 0,-11.16872 -2.11004,-22.36648 -5.73527,-30.43638 -0.42617,-0.94865 -0.77485,-1.84171 -0.77485,-1.98458 0,-0.72095 -4.49134,-8.99783 -6.81873,-12.56592 -9.22743,-14.14641 -21.58846,-24.35178 -37.93834,-31.32224 -5.88533,-2.5091 -17.4547,-5.27577 -23.39574,-5.59481 l -2.03441,-0.10925 -0.11464,-5.03333 -0.11464,-5.03333 3.16627,0.29392 c 15.94603,1.48028 33.52141,8.77656 46.90612,19.47274 2.94386,2.35253 10.32824,9.53756 12.82522,12.47899 8.97079,10.56751 16.47808,25.64598 19.24311,38.64994 1.40666,6.6155 1.69275,8.56842 2.13557,14.57822 0.98575,13.37808 -1.39654,28.07676 -6.63881,40.96125 -11.08788,27.25189 -35.31434,47.94432 -63.84997,54.53588 -5.81395,1.34299 -5.73452,1.35076 -5.3373,-0.52224 z"
       id="path26" />
    <path
       style="display:inline;fill:#000000;stroke-width:0.406882"
       d="m 132.14602,319.91002 c -0.55945,-0.17013 -2.39043,-0.61442 -4.06883,-0.98731 -16.01871,-3.55889 -31.323476,-12.00169 -43.160391,-23.8092 -6.936887,-6.91966 -9.624095,-10.29902 -14.574846,-18.32887 -6.078328,-9.85874 -10.193757,-21.21883 -12.086936,-33.36437 -0.918131,-5.89018 -1.036428,-20.23797 -0.21638,-26.24392 1.418209,-10.38687 4.115568,-19.11233 8.867641,-28.68523 5.77949,-11.64257 14.333161,-22.3987 23.86306,-30.00745 1.609456,-1.285 3.017836,-2.44342 3.129729,-2.57425 0.937421,-1.09614 11.420243,-7.47771 15.258093,-9.28858 8.9674,-4.23123 20.69359,-7.5845 29.40982,-8.41015 l 2.96246,-0.28061 -0.11429,5.24155 -0.11428,5.24158 -2.03441,0.3393 c -3.75809,0.6268 -10.96118,2.39407 -13.834,3.39417 -4.0287,1.40248 -4.1285,1.44371 -7.64746,3.15972 -3.35664,1.63684 -4.07473,2.39698 -1.05638,1.11821 2.28127,-0.96648 7.92854,-2.9608 9.5176,-3.36112 0.67136,-0.16913 2.22769,-0.58088 3.45851,-0.91499 2.25683,-0.61263 9.85306,-1.90431 11.19905,-1.90431 0.68016,0 0.70927,0.46 0.45692,7.22215 -0.43228,11.58402 -1.05985,17.10164 -2.08878,18.36447 -2.03227,2.49428 -2.76532,4.2907 -2.96555,7.2673 -0.23584,3.50619 0.37129,6.0071 2.00625,8.26409 1.56695,2.16312 1.87409,3.98043 2.38456,14.1093 0.46758,9.27778 0.0405,20.87559 -1.03442,28.09019 -0.6098,4.09284 -0.56194,3.96823 -2.50389,6.51901 -3.51536,4.61748 -3.44017,11.56797 0.18212,16.83277 2.00497,2.91413 2.27722,5.37973 2.30635,20.88836 0.0215,11.42117 -0.10802,14.81008 -0.74249,19.43023 -0.75882,5.52578 -0.79084,5.62498 -2.54302,7.88144 -0.97598,1.25688 -1.77451,2.53785 -1.77451,2.8466 0,0.77907 -0.82068,0.70732 -5.49292,-0.48028 -5.14493,-1.30774 -8.16678,-2.33347 -12.61336,-4.28142 -1.47265,-0.64514 -3.05162,-1.16967 -3.05162,-1.01374 0,1.02014 16.65107,7.55745 19.24942,7.55745 0.67931,0 0.72072,0.27323 0.47787,3.15335 -0.15022,1.7815 -0.0828,3.94988 0.15509,4.9843 0.48105,2.09218 0.26651,2.4658 -1.16578,2.03026 z"
       id="path19"
       clip-path="url(#clipPath109)"
       inkscape:path-effect="#path-effect109"
       inkscape:original-d="m 132.14602,319.91002 c -0.55945,-0.17013 -2.39043,-0.61442 -4.06883,-0.98731 -16.01871,-3.55889 -31.323476,-12.00169 -43.160391,-23.8092 -6.936887,-6.91966 -9.624095,-10.29902 -14.574846,-18.32887 -6.078328,-9.85874 -10.193757,-21.21883 -12.086936,-33.36437 -0.918131,-5.89018 -1.036428,-20.23797 -0.21638,-26.24392 1.418209,-10.38687 4.115568,-19.11233 8.867641,-28.68523 5.77949,-11.64257 14.333161,-22.3987 23.86306,-30.00745 1.609456,-1.285 3.017836,-2.44342 3.129729,-2.57425 0.937421,-1.09614 11.420243,-7.47771 15.258093,-9.28858 8.9674,-4.23123 20.69359,-7.5845 29.40982,-8.41015 l 2.96246,-0.28061 -0.11429,5.24155 -0.11428,5.24158 -2.03441,0.3393 c -3.75809,0.6268 -10.96118,2.39407 -13.834,3.39417 -4.0287,1.40248 -4.1285,1.44371 -7.64746,3.15972 -3.35664,1.63684 -4.07473,2.39698 -1.05638,1.11821 2.28127,-0.96648 7.92854,-2.9608 9.5176,-3.36112 0.67136,-0.16913 2.22769,-0.58088 3.45851,-0.91499 2.25683,-0.61263 9.85306,-1.90431 11.19905,-1.90431 0.68016,0 0.70927,0.46 0.45692,7.22215 -0.43228,11.58402 -1.05985,17.10164 -2.08878,18.36447 -2.03227,2.49428 -2.76532,4.2907 -2.96555,7.2673 -0.23584,3.50619 0.37129,6.0071 2.00625,8.26409 1.56695,2.16312 1.87409,3.98043 2.38456,14.1093 0.46758,9.27778 0.0405,20.87559 -1.03442,28.09019 -0.6098,4.09284 -0.56194,3.96823 -2.50389,6.51901 -3.51536,4.61748 -3.44017,11.56797 0.18212,16.83277 2.00497,2.91413 2.27722,5.37973 2.30635,20.88836 0.0215,11.42117 -0.10802,14.81008 -0.74249,19.43023 -0.75882,5.52578 -0.79084,5.62498 -2.54302,7.88144 -0.97598,1.25688 -1.77451,2.53785 -1.77451,2.8466 0,0.77907 -0.82068,0.70732 -5.49292,-0.48028 -5.14493,-1.30774 -8.16678,-2.33347 -12.61336,-4.28142 -1.47265,-0.64514 -3.05162,-1.16967 -3.05162,-1.01374 0,1.02014 16.65107,7.55745 19.24942,7.55745 0.67931,0 0.72072,0.27323 0.47787,3.15335 -0.15022,1.7815 -0.0828,3.94988 0.15509,4.9843 0.48105,2.09218 0.26651,2.4658 -1.16578,2.03026 z" />
    <path
       style="display:inline;fill:#000000;stroke-width:0.406882"
       d="m 176.31311,320.78701 c 0.2126,-0.19128 2.07912,-0.93366 4.14783,-1.64972 7.06313,-2.44484 14.45787,-6.02979 19.4843,-9.44593 l 1.68081,-1.14233 38.67573,-0.1155 38.67572,-0.1155 1.24978,-1.19751 c 2.28181,-2.18643 2.37658,-5.1896 0.26445,-8.38122 -0.57983,-0.87621 -1.05425,-1.67544 -1.05425,-1.7761 0,-0.10059 -0.62268,-1.24893 -1.38374,-2.55174 -2.58646,-4.42761 -15.01561,-25.96112 -15.81068,-27.39201 -0.75748,-1.36326 -3.2147,-5.6368 -3.97718,-6.917 -0.19993,-0.33568 -0.89016,-1.5258 -1.53387,-2.64473 -0.6437,-1.11893 -1.86292,-3.22455 -2.70933,-4.67915 -0.84643,-1.45461 -1.88575,-3.25069 -2.3096,-3.9913 -1.15336,-2.0153 -3.67279,-6.39275 -5.73119,-9.95778 l -1.82838,-3.16671 0.20171,-3.85636 c 0.32324,-6.17984 -0.58126,-15.37879 -2.23059,-22.68527 -0.34337,-1.52114 -0.53699,-2.85305 -0.43025,-2.95978 0.10673,-0.10672 1.35755,1.87023 2.77958,4.39325 1.42204,2.52303 3.46217,6.01975 4.53365,7.77052 1.07146,1.75077 1.9481,3.24176 1.9481,3.31334 0,0.0716 1.25244,2.30108 2.78322,4.95445 7.6686,13.29247 10.97874,19.03766 14.55958,25.27015 2.15362,3.74841 4.04978,6.99838 4.21367,7.22216 0.16391,0.22379 0.85035,1.41392 1.52545,2.64474 0.67508,1.23082 2.56258,4.52657 4.19443,7.32389 3.25752,5.58407 14.48458,25.04374 16.31488,28.27833 4.70639,8.31731 2.15533,17.12672 -6.23945,21.54624 -4.46231,2.34923 -1.75174,2.24632 -59.30309,2.25156 -29.40425,0.003 -52.90541,-0.15029 -52.69129,-0.34299 z"
       id="path18" />
    <path
       style="display:inline;fill:#000000;stroke-width:0.406882"
       d="m 14.150096,320.55258 c -2.18845,-0.60893 -4.9978342,-2.00641 -6.8152822,-3.39013 -1.2514616,-0.95282 -1.3223677,-1.14769 -1.3223677,-3.63447 v -2.62766 l 1.0683876,1.26971 c 0.9058924,1.07659 3.6621513,2.86155 4.4186833,2.86155 0.12651,0 -0.835885,-1.0528 -2.1386553,-2.33957 -2.9238273,-2.88791 -3.6208011,-4.76366 -2.7925751,-7.51566 0.5085016,-1.68962 3.2201083,-6.90456 7.5695714,-14.55771 0.953867,-1.67839 2.291277,-4.05865 2.972023,-5.28948 0.680744,-1.23081 2.551525,-4.52656 4.15729,-7.32388 1.605764,-2.79732 3.525291,-6.18461 4.265615,-7.52732 0.740324,-1.34272 2.385447,-4.27228 3.655831,-6.51013 1.270383,-2.23785 3.385581,-5.99135 4.700439,-8.34108 1.31486,-2.34975 3.3922,-6.0117 4.616312,-8.13766 5.37571,-9.3362 12.725624,-22.53531 13.257195,-23.80754 0.318975,-0.76343 0.690224,-2.26476 0.824987,-3.33631 0.244248,-1.94203 0.24271,-1.94516 -0.481337,-0.97999 -0.806837,1.07552 -6.970276,11.73136 -20.738639,35.8546 -5.045165,8.83953 -9.866376,17.26199 -10.713803,18.7166 -2.873318,4.93204 -13.4546383,23.78444 -14.0584851,25.04757 -0.2734637,0.57201 -0.4099478,-0.11671 -0.495506,-2.50041 -0.1157664,-3.22534 -0.085115,-3.34416 1.562203,-6.0557 0.9241569,-1.52119 2.0012233,-3.3365 2.3934811,-4.03399 0.937348,-1.66678 9.697978,-16.88378 12.559623,-21.81576 2.088186,-3.59895 4.301909,-7.45351 6.120148,-10.65648 0.420421,-0.74061 2.100827,-3.63528 3.734234,-6.43259 5.248708,-8.98875 7.428921,-12.75746 8.944592,-15.46153 1.428312,-2.54823 8.467602,-14.7591 10.437854,-18.10627 0.526913,-0.89514 1.72379,-2.98812 2.65973,-4.65106 0.935944,-1.66293 1.764636,-2.83473 1.841542,-2.60402 0.07691,0.23073 -0.343784,2.96454 -0.934866,6.07515 -0.877992,4.62047 -1.112314,7.2568 -1.280231,14.40361 l -0.205536,8.74798 -1.718526,3.0516 c -0.945193,1.6784 -3.117493,5.4647 -4.827339,8.414 -1.709851,2.94931 -3.453384,5.97041 -3.874523,6.71356 -1.204369,2.12526 -5.037807,8.74867 -10.437199,18.03337 -2.732928,4.6995 -5.79785,10.00932 -6.810937,11.7996 -2.224738,3.93146 -2.804346,4.94194 -5.834592,10.17205 -3.687523,6.36457 -4.245036,7.56306 -4.243409,9.1221 0.0018,1.68834 1.170514,3.8147 2.519723,4.58422 0.751994,0.42891 8.514423,0.55612 39.270624,0.64358 l 38.333359,0.10899 3.372093,2.06414 c 4.618672,2.8272 13.152692,6.89171 17.816422,8.48544 2.12596,0.7265 4.14003,1.47921 4.47572,1.6727 0.34527,0.19901 -22.53683,0.34135 -52.691295,0.32777 -41.382886,-0.0187 -53.71103,-0.13793 -55.132579,-0.53349 z"
       id="path17" />
    <path
       style="display:inline;fill:#000000;stroke-width:0.406882"
       d="m 139.25537,323.27096 c -2.6072,-2.74894 -3.85209,-7.60062 -2.89281,-11.27409 0.70726,-2.70841 2.30507,-5.54662 3.77225,-6.7007 1.00112,-0.78749 1.59583,-0.84353 8.95054,-0.84353 h 7.87816 l 1.58006,1.42749 c 2.37792,2.14831 3.48676,4.98971 3.49192,8.94802 0.004,3.57523 -0.75956,5.8211 -2.8036,8.23936 l -1.11774,1.32238 h -8.89876 -8.89878 z"
       id="path3" />
    <path
       style="display:inline;fill:#000000;stroke-width:0.406882"
       d="m 144.39596,363.02859 -1.78751,-0.81102 0.26149,-2.94369 c 0.14382,-1.61905 0.3782,-4.17962 0.52085,-5.69018 0.17251,-1.82673 0.11491,-2.74645 -0.17202,-2.74645 -0.23725,0 -0.99471,-0.47402 -1.68323,-1.05338 l -1.25187,-1.05337 0.001,-4.74471 c 8.2e-4,-2.60957 0.12127,-7.63592 0.26782,-11.16962 l 0.26648,-6.42492 2.88551,0.11824 2.88551,0.11824 0.0402,1.42411 c 0.0222,0.78323 0.0895,1.97337 0.14986,2.64473 l 0.10971,1.22065 0.3106,-1.22065 c 0.17084,-0.67136 0.33226,-1.91943 0.35874,-2.77348 0.0448,-1.44453 0.12619,-1.54387 1.16708,-1.42411 l 1.11892,0.12875 0.20343,4.13693 c 0.1119,2.27529 0.34077,4.27411 0.50862,4.44179 0.16783,0.1677 0.32804,-1.46505 0.35602,-3.6283 0.0654,-5.06021 0.0488,-4.95042 0.75522,-4.95042 0.68063,0 0.65774,-0.20831 0.75185,6.8393 0.0448,3.35417 0.21462,5.12213 0.47648,4.96031 0.23978,-0.1482 0.40688,-2.58116 0.40688,-5.92382 1.2e-4,-3.5103 0.1552,-5.67233 0.40701,-5.67233 0.24371,0 0.40688,1.60706 0.40688,4.00743 0,5.43795 0.44429,10.42082 0.8694,9.75046 0.18633,-0.29381 0.36265,-2.09054 0.3918,-3.99272 0.0452,-2.94549 0.10297,-3.21708 0.38967,-1.83097 0.18515,0.89514 0.34719,3.1686 0.3601,5.05212 0.0129,1.88353 0.11085,3.33719 0.21768,3.23035 0.3981,-0.3981 0.56057,-2.31712 0.61508,-7.26527 0.0378,-3.43436 0.17393,-4.79301 0.41913,-4.18373 0.46253,1.14939 1.01464,15.09649 0.65441,16.53173 -0.15884,0.63294 -0.91384,1.48462 -1.82719,2.06119 l -1.55646,0.98255 0.32957,2.37448 c 0.61053,4.39854 0.52686,8.27923 -0.19402,9.00011 -1.33431,1.33432 -7.84482,1.63487 -10.39089,0.47967 z"
       id="path1" />
    <path
       style="display:none;fill:#000000;stroke-width:0.406882"
       d="m 444.37538,364.77753 -1.78751,-0.81102 0.26149,-2.94369 c 0.14382,-1.61905 0.3782,-4.17962 0.52085,-5.69018 0.17251,-1.82673 0.11491,-2.74645 -0.17202,-2.74645 -0.23725,0 -0.99471,-0.47402 -1.68323,-1.05338 l -1.25187,-1.05337 0.001,-4.74471 c 8.2e-4,-2.60957 0.12127,-7.63592 0.26782,-11.16962 l 0.26648,-6.42492 2.88551,0.11824 2.88551,0.11824 0.0402,1.42411 c 0.0222,0.78323 0.0895,1.97337 0.14986,2.64473 l 0.10971,1.22065 0.3106,-1.22065 c 0.17084,-0.67136 0.33226,-1.91943 0.35874,-2.77348 0.0448,-1.44453 0.12619,-1.54387 1.16708,-1.42411 l 1.11892,0.12875 0.20343,4.13693 c 0.1119,2.27529 0.34077,4.27411 0.50862,4.44179 0.16783,0.1677 0.32804,-1.46505 0.35602,-3.6283 0.0654,-5.06021 0.0488,-4.95042 0.75522,-4.95042 0.68063,0 0.65774,-0.20831 0.75185,6.8393 0.0448,3.35417 0.21462,5.12213 0.47648,4.96031 0.23978,-0.1482 0.40688,-2.58116 0.40688,-5.92382 1.2e-4,-3.5103 0.1552,-5.67233 0.40701,-5.67233 0.24371,0 0.40688,1.60706 0.40688,4.00743 0,5.43795 0.44429,10.42082 0.8694,9.75046 0.18633,-0.29381 0.36265,-2.09054 0.3918,-3.99272 0.0452,-2.94549 0.10297,-3.21708 0.38967,-1.83097 0.18515,0.89514 0.34719,3.1686 0.3601,5.05212 0.0129,1.88353 0.11085,3.33719 0.21768,3.23035 0.3981,-0.3981 0.56057,-2.31712 0.61508,-7.26527 0.0378,-3.43436 0.17393,-4.79301 0.41913,-4.18373 0.46253,1.14939 1.01464,15.09649 0.65441,16.53173 -0.15884,0.63294 -0.91384,1.48462 -1.82719,2.06119 l -1.55646,0.98255 0.32957,2.37448 c 0.61053,4.39854 0.52686,8.27923 -0.19402,9.00011 -1.33431,1.33432 -7.84482,1.63487 -10.39089,0.47967 z m 9.50477,-2.41495 c 0.4489,-0.37255 0.62384,-1.29569 0.62384,-3.29209 0,-3.60239 -0.66745,-3.99081 -1.0306,-0.59976 -0.30825,2.87844 -0.5583,3.24104 -2.52497,3.66152 -0.72474,0.15495 -1.43814,0.4766 -1.58536,0.7148 -0.38075,0.6161 3.72107,0.17616 4.51709,-0.48447 z M 439.23479,325.0199 c -2.6072,-2.74894 -3.85209,-7.60062 -2.89281,-11.27409 0.70726,-2.70841 2.30507,-5.54662 3.77225,-6.7007 1.00112,-0.78749 1.59583,-0.84353 8.95054,-0.84353 h 7.87816 l 1.58006,1.42749 c 2.37792,2.14831 3.48676,4.98971 3.49192,8.94802 0.004,3.57523 -0.75956,5.8211 -2.8036,8.23936 l -1.11774,1.32238 h -8.89876 -8.89878 z m 10.61418,-0.14077 c 0.15158,-0.24526 0.0251,-0.69638 -0.28117,-1.00249 -0.70583,-0.70562 -1.78943,-0.10691 -1.44256,0.79703 0.28597,0.7452 1.31438,0.86779 1.72373,0.20546 z m 5.39536,-0.67716 c 0.10571,-0.74113 -0.0652,-0.91132 -0.91549,-0.91132 -0.74257,0 -1.0455,0.21614 -1.0455,0.74595 0,1.57707 1.73864,1.72371 1.96099,0.16537 z m -9.82679,-0.33255 c 0.32648,-0.85083 -0.75939,-1.89906 -1.6237,-1.56739 -0.37572,0.14416 -0.68258,0.69965 -0.68258,1.23559 0,0.77055 0.21488,0.97367 1.02998,0.97367 0.56649,0 1.14082,-0.28884 1.2763,-0.64187 z m 7.21326,-0.81893 c 0.30548,-0.79609 -0.0233,-1.38737 -0.77156,-1.38737 -0.7322,0 -1.14892,0.69741 -0.86259,1.44357 0.30248,0.78824 1.32358,0.75311 1.63415,-0.0563 z m -13.40271,-1.83251 c -0.7644,-2.15197 -0.86798,-7.86288 -0.18037,-9.94635 0.70036,-2.12214 0.23106,-2.15323 -0.78608,-0.0521 -1.6837,3.47805 -1.47029,8.61695 0.45975,11.0706 1.11014,1.41132 1.26928,1.07462 0.5067,-1.07216 z m 20.74185,0.21678 c 1.51226,-2.88274 0.76082,-11.16436 -1.01303,-11.16436 -0.30076,0 -0.35413,0.25754 -0.14757,0.71205 0.178,0.39162 0.39644,2.55697 0.48542,4.81189 0.12288,3.113 0.006,4.4716 -0.48351,5.64432 -0.77288,1.84976 -0.78369,1.96592 -0.16368,1.75925 0.26491,-0.0883 0.85996,-0.88172 1.32237,-1.76315 z m -10.60829,0.43179 c 0.38345,-0.99925 -0.17979,-1.88411 -1.11442,-1.75076 -0.60083,0.0858 -0.90288,0.46378 -0.99244,1.24216 -0.10957,0.95225 0.0203,1.11893 0.87195,1.11893 0.55039,0 1.1061,-0.27464 1.23491,-0.61033 z m 4.73544,-1.8745 c 0,-0.49117 -0.28612,-0.77023 -0.78974,-0.77023 -1.02583,0 -1.44068,0.69763 -0.84307,1.41773 0.61485,0.74084 1.63281,0.33716 1.63281,-0.6475 z m 4.06453,0.65904 c 0.72664,-0.87555 0.19673,-1.83614 -1.0129,-1.83614 -0.57351,0 -1.14903,0.27697 -1.27895,0.6155 -0.26965,0.70271 0.51704,1.82578 1.27895,1.82578 0.28087,0 0.73667,-0.27231 1.0129,-0.60514 z m -5.8955,-3.26024 c 0,-0.58527 -0.31417,-0.84991 -1.11893,-0.94251 -0.87316,-0.10039 -1.11892,0.041 -1.11892,0.64423 0,1.02515 0.40012,1.37511 1.40734,1.23094 0.51963,-0.0744 0.83051,-0.42351 0.83051,-0.93266 z m -7.52732,-1.0172 c 0,-0.54251 -0.27125,-0.81377 -0.81377,-0.81377 -0.54251,0 -0.81377,0.27126 -0.81377,0.81377 0,0.54251 0.27126,0.81375 0.81377,0.81375 0.54252,0 0.81377,-0.27124 0.81377,-0.81375 z m 12.94004,-0.25338 c 0.13334,-0.93462 -0.75151,-1.49787 -1.75077,-1.11441 -0.63149,0.24233 -0.82835,1.42103 -0.32191,1.92746 0.58009,0.58009 1.9506,0.0425 2.07268,-0.81305 z m -1.34389,-5.44298 c 0,-0.33568 -0.41196,-0.66883 -0.91548,-0.74034 -0.7046,-0.10008 -0.91548,0.0704 -0.91548,0.74034 0,0.66987 0.21088,0.84041 0.91548,0.74034 0.50352,-0.0715 0.91548,-0.40466 0.91548,-0.74034 z m -142.20543,11.62423 c -2.18845,-0.60893 -4.99784,-2.00641 -6.81529,-3.39013 -1.25146,-0.95282 -1.32236,-1.14769 -1.32236,-3.63447 v -2.62766 l 1.06838,1.26971 c 0.9059,1.07659 3.66215,2.86155 4.41869,2.86155 0.12651,0 -0.83589,-1.0528 -2.13866,-2.33957 -2.92383,-2.88791 -3.6208,-4.76366 -2.79257,-7.51566 0.5085,-1.68962 3.2201,-6.90456 7.56957,-14.55771 0.95386,-1.67839 2.29127,-4.05865 2.97202,-5.28948 0.68074,-1.23081 2.55153,-4.52656 4.15729,-7.32388 1.60576,-2.79732 3.52529,-6.18461 4.26562,-7.52732 0.74032,-1.34272 2.38544,-4.27228 3.65583,-6.51013 1.27038,-2.23785 3.38558,-5.99135 4.70044,-8.34108 1.31486,-2.34975 3.3922,-6.0117 4.61631,-8.13766 5.37571,-9.3362 12.72562,-22.53531 13.25719,-23.80754 0.31898,-0.76343 0.69023,-2.26476 0.82499,-3.33631 0.24425,-1.94203 0.24271,-1.94516 -0.48134,-0.97999 -0.80683,1.07552 -6.97027,11.73136 -20.73864,35.8546 -5.04516,8.83953 -9.86637,17.26199 -10.7138,18.7166 -2.87332,4.93204 -13.45464,23.78444 -14.05848,25.04757 -0.27347,0.57201 -0.40995,-0.11671 -0.49551,-2.50041 -0.11577,-3.22534 -0.0851,-3.34416 1.5622,-6.0557 0.92416,-1.52119 2.00123,-3.3365 2.39348,-4.03399 0.93735,-1.66678 9.69798,-16.88378 12.55963,-21.81576 2.08818,-3.59895 4.30191,-7.45351 6.12014,-10.65648 0.42043,-0.74061 2.10083,-3.63528 3.73424,-6.43259 5.24871,-8.98875 7.42892,-12.75746 8.94459,-15.46153 1.42831,-2.54823 8.4676,-14.7591 10.43785,-18.10627 0.52692,-0.89514 1.72379,-2.98812 2.65974,-4.65106 0.93594,-1.66293 1.76463,-2.83473 1.84154,-2.60402 0.0769,0.23073 -0.34379,2.96454 -0.93487,6.07515 -0.87799,4.62047 -1.11231,7.2568 -1.28023,14.40361 l -0.20554,8.74798 -1.71852,3.0516 c -0.9452,1.6784 -3.11749,5.4647 -4.82734,8.414 -1.70985,2.94931 -3.45338,5.97041 -3.87452,6.71356 -1.20437,2.12526 -5.03781,8.74867 -10.4372,18.03337 -2.73293,4.6995 -5.79785,10.00932 -6.81094,11.7996 -2.22474,3.93146 -2.80435,4.94194 -5.83459,10.17205 -3.68753,6.36457 -4.24504,7.56306 -4.24341,9.1221 0.002,1.68834 1.17051,3.8147 2.51972,4.58422 0.752,0.42891 8.51442,0.55612 39.27063,0.64358 l 38.33336,0.10899 3.37209,2.06414 c 4.61867,2.8272 13.15269,6.89171 17.81642,8.48544 2.12596,0.7265 4.14003,1.47921 4.47572,1.6727 0.34527,0.19901 -22.53683,0.34135 -52.69129,0.32777 -41.38289,-0.0187 -53.71104,-0.13793 -55.13258,-0.53349 z m 162.16301,0.23443 c 0.2126,-0.19128 2.07912,-0.93366 4.14783,-1.64972 7.06313,-2.44484 14.45787,-6.02979 19.4843,-9.44593 l 1.68081,-1.14233 38.67573,-0.1155 38.67572,-0.1155 1.24978,-1.19751 c 2.28181,-2.18643 2.37658,-5.1896 0.26445,-8.38122 -0.57983,-0.87621 -1.05425,-1.67544 -1.05425,-1.7761 0,-0.10059 -0.62268,-1.24893 -1.38374,-2.55174 -2.58646,-4.42761 -15.01561,-25.96112 -15.81068,-27.39201 -0.75748,-1.36326 -3.2147,-5.6368 -3.97718,-6.917 -0.19993,-0.33568 -0.89016,-1.5258 -1.53387,-2.64473 -0.6437,-1.11893 -1.86292,-3.22455 -2.70933,-4.67915 -0.84643,-1.45461 -1.88575,-3.25069 -2.3096,-3.9913 -1.15336,-2.0153 -3.67279,-6.39275 -5.73119,-9.95778 l -1.82838,-3.16671 0.20171,-3.85636 c 0.32324,-6.17984 -0.58126,-15.37879 -2.23059,-22.68527 -0.34337,-1.52114 -0.53699,-2.85305 -0.43025,-2.95978 0.10673,-0.10672 1.35755,1.87023 2.77958,4.39325 1.42204,2.52303 3.46217,6.01975 4.53365,7.77052 1.07146,1.75077 1.9481,3.24176 1.9481,3.31334 0,0.0716 1.25244,2.30108 2.78322,4.95445 7.6686,13.29247 10.97874,19.03766 14.55958,25.27015 2.15362,3.74841 4.04978,6.99838 4.21367,7.22216 0.16391,0.22379 0.85035,1.41392 1.52545,2.64474 0.67508,1.23082 2.56258,4.52657 4.19443,7.32389 3.25752,5.58407 14.48458,25.04374 16.31488,28.27833 4.70639,8.31731 2.15533,17.12672 -6.23945,21.54624 -4.46231,2.34923 -1.75174,2.24632 -59.30309,2.25156 -29.40425,0.003 -52.90541,-0.15029 -52.69129,-0.34299 z m -44.16709,-0.87699 c -0.55945,-0.17013 -2.39043,-0.61442 -4.06883,-0.98731 -16.01871,-3.55889 -31.32348,-12.00169 -43.16039,-23.8092 -6.93689,-6.91966 -9.6241,-10.29902 -14.57485,-18.32887 -6.07832,-9.85874 -10.19375,-21.21883 -12.08693,-33.36437 -0.91813,-5.89018 -1.03643,-20.23797 -0.21638,-26.24392 1.41821,-10.38687 4.11557,-19.11233 8.86764,-28.68523 5.77949,-11.64257 14.33316,-22.3987 23.86306,-30.00745 1.60945,-1.285 3.01783,-2.44342 3.12973,-2.57425 0.93742,-1.09614 11.42024,-7.47771 15.25809,-9.28858 8.9674,-4.23123 20.69359,-7.5845 29.40982,-8.41015 l 2.96246,-0.28061 -0.11429,5.24155 -0.11428,5.24158 -2.03441,0.3393 c -3.75809,0.6268 -10.96118,2.39407 -13.834,3.39417 -4.0287,1.40248 -4.1285,1.44371 -7.64746,3.15972 -3.35664,1.63684 -4.07473,2.39698 -1.05638,1.11821 2.28127,-0.96648 7.92854,-2.9608 9.5176,-3.36112 0.67136,-0.16913 2.22769,-0.58088 3.45851,-0.91499 2.25683,-0.61263 9.85306,-1.90431 11.19905,-1.90431 0.68016,0 0.70927,0.46 0.45692,7.22215 -0.43228,11.58402 -1.05985,17.10164 -2.08878,18.36447 -2.03227,2.49428 -2.76532,4.2907 -2.96555,7.2673 -0.23584,3.50619 0.37129,6.0071 2.00625,8.26409 1.56695,2.16312 1.87409,3.98043 2.38456,14.1093 0.46758,9.27778 0.0405,20.87559 -1.03442,28.09019 -0.6098,4.09284 -0.56194,3.96823 -2.50389,6.51901 -3.51536,4.61748 -3.44017,11.56797 0.18212,16.83277 2.00497,2.91413 2.27722,5.37973 2.30635,20.88836 0.0215,11.42117 -0.10802,14.81008 -0.74249,19.43023 -0.75882,5.52578 -0.79084,5.62498 -2.54302,7.88144 -0.97598,1.25688 -1.77451,2.53785 -1.77451,2.8466 0,0.77907 -0.82068,0.70732 -5.49292,-0.48028 -5.14493,-1.30774 -8.16678,-2.33347 -12.61336,-4.28142 -1.47265,-0.64514 -3.05162,-1.16967 -3.05162,-1.01374 0,1.02014 16.65107,7.55745 19.24942,7.55745 0.67931,0 0.72072,0.27323 0.47787,3.15335 -0.15022,1.7815 -0.0828,3.94988 0.15509,4.9843 0.48105,2.09218 0.26651,2.4658 -1.16578,2.03026 z M 378.8147,264.4721 c -0.21773,-0.57268 -0.82903,-1.99168 -1.35844,-3.15333 -3.86373,-8.478 -5.84213,-17.88157 -6.22258,-29.57669 -0.39436,-12.12286 0.85391,-21.28694 4.2953,-31.53339 1.42038,-4.22907 2.32075,-6.47901 5.59337,-13.97723 2.02976,-4.65057 -4.54917,4.77126 -8.65988,12.40202 -1.99135,3.69656 -3.88818,8.08155 -5.08156,11.74728 -4.54513,13.96126 -1.16366,33.54262 8.8181,51.06375 0.5737,1.00703 1.31214,2.33448 1.64097,2.9499 0.76773,1.43684 1.51408,1.49633 0.97472,0.0776 z m 11.48928,-29.75922 c -0.6529,-1.96962 -1.39219,-4.49659 -1.64287,-5.61554 -0.25068,-1.11892 -0.65825,-2.94985 -0.90571,-4.06873 -0.70801,-3.20119 -0.95869,-14.51648 -0.43718,-19.73388 0.65872,-6.5902 2.53195,-15.03117 4.10845,-18.51317 0.20265,-0.44757 1.03263,-2.37009 1.84442,-4.27225 0.81179,-1.90218 2.37913,-5.15667 3.48298,-7.23219 1.10385,-2.07552 2.00701,-3.88314 2.00701,-4.01693 0,-0.57982 -1.52477,1.12098 -4.08213,4.5534 -5.61229,7.53268 -8.35753,12.39318 -10.33137,18.29186 -3.64793,10.90159 -1.79231,26.7039 4.7715,40.63364 1.14579,2.43162 2.14823,4.22622 2.22763,3.988 0.0794,-0.2382 -0.38983,-2.0446 -1.04273,-4.01421 z m 12.81276,-23.99877 c -1.51246,-4.74983 -1.91516,-7.87772 -1.90686,-14.81102 0.0121,-10.13943 1.52224,-16.50003 6.06394,-25.54122 1.16406,-2.31728 2.03568,-4.29402 1.93693,-4.39276 -0.16862,-0.16862 -2.17525,2.18384 -3.53266,4.1415 -3.94832,5.69423 -5.52944,8.64858 -6.96499,13.01426 -1.61431,4.90928 -1.29526,13.9269 0.73398,20.74576 1.52303,5.11785 3.98575,10.72197 4.49009,10.21763 0.10595,-0.10595 -0.26325,-1.62432 -0.82043,-3.37415 z m 8.515,-14.04287 c -1.50429,-5.02307 -1.88146,-10.96591 -1.06173,-16.72873 0.71706,-5.0409 1.76723,-8.31159 4.31489,-13.43853 0.98264,-1.97746 1.55604,-3.52584 1.27422,-3.44083 -0.82509,0.24886 -6.2315,8.55353 -7.26476,11.15921 -0.77329,1.95012 -0.97407,3.338 -1.09668,7.58091 -0.18336,6.34465 0.4681,9.63274 3.03166,15.30168 1.22288,2.70423 1.66978,2.46268 0.8024,-0.43371 z m 7.50155,-16.88415 c -0.63707,-2.29419 -0.52626,-8.71884 0.20591,-11.93795 0.35249,-1.54978 1.18544,-3.9419 1.85099,-5.31587 0.66556,-1.37396 1.12304,-2.58517 1.0166,-2.69159 -0.33168,-0.3317 -2.73799,3.2159 -4.05986,5.98545 -2.04455,4.28365 -1.86676,10.08397 0.46045,15.02146 0.79976,1.69678 1.11512,1.06031 0.52591,-1.0615 z m 5.63199,-5.86853 c -0.49412,-3.17477 -0.25898,-8.27227 0.48855,-10.59054 0.24231,-0.75146 0.8887,-2.34986 1.43644,-3.55201 0.54774,-1.20215 0.88363,-2.298 0.74641,-2.43522 -0.36603,-0.36604 -1.62021,1.39479 -3.24196,4.55162 -1.26767,2.46761 -1.42732,3.12844 -1.42531,5.8998 0.001,1.71652 0.19218,3.85333 0.42429,4.74847 0.50262,1.93839 1.67262,4.75004 1.88727,4.53537 0.0837,-0.0837 -0.0583,-1.50451 -0.31569,-3.15749 z m 40.19749,146.21874 c 0.17798,-0.83919 0.29154,-2.84381 0.25234,-4.45473 l -0.0713,-2.92892 3.12289,-0.66682 c 12.14392,-2.59305 22.75664,-7.4277 32.82529,-14.95358 4.5139,-3.37396 13.70877,-12.7978 16.88562,-17.30612 10.33705,-14.66947 15.46152,-30.59777 15.46152,-48.05869 0,-11.16872 -2.11004,-22.36648 -5.73527,-30.43638 -0.42617,-0.94865 -0.77485,-1.84171 -0.77485,-1.98458 0,-0.72095 -4.49134,-8.99783 -6.81873,-12.56592 -9.22743,-14.14641 -21.58846,-24.35178 -37.93834,-31.32224 -5.88533,-2.5091 -17.4547,-5.27577 -23.39574,-5.59481 l -2.03441,-0.10925 -0.11464,-5.03333 -0.11464,-5.03333 3.16627,0.29392 c 15.94603,1.48028 33.52141,8.77656 46.90612,19.47274 2.94386,2.35253 10.32824,9.53756 12.82522,12.47899 8.97079,10.56751 16.47808,25.64598 19.24311,38.64994 1.40666,6.6155 1.69275,8.56842 2.13557,14.57822 0.98575,13.37808 -1.39654,28.07676 -6.63881,40.96125 -11.08788,27.25189 -35.31434,47.94432 -63.84997,54.53588 -5.81395,1.34299 -5.73452,1.35076 -5.3373,-0.52224 z m -1.41246,-11.04826 c -0.36067,-0.58108 -1.25539,-1.81167 -1.98826,-2.73468 -1.13975,-1.43541 -1.45057,-2.34779 -2.14852,-6.30668 -1.37477,-7.79794 -1.89904,-18.68378 -1.31537,-27.31219 0.61266,-9.05693 1.16401,-11.79626 2.87469,-14.28265 2.14321,-3.11505 2.6011,-4.60152 2.58785,-8.40104 -0.0134,-3.8192 -0.55161,-5.51118 -2.71837,-8.54454 -1.56547,-2.19155 -1.72432,-2.69683 -2.49356,-7.93144 -1.52231,-10.35928 -1.66462,-25.00257 -0.3335,-34.31604 0.48957,-3.42534 0.81948,-4.50578 1.78125,-5.83347 1.3556,-1.87135 2.43823,-5.22777 2.43823,-7.55915 0,-2.17116 -1.4005,-6.0927 -2.79717,-7.83233 -1.41599,-1.76372 -1.52361,-2.34925 -2.28085,-12.41115 -0.67847,-9.01486 -0.77373,-13.08014 -0.31317,-13.36324 0.51911,-0.31912 8.23964,0.95663 12.30818,2.03384 36.43583,9.64678 61.33051,43.27409 59.65433,80.58007 -0.46762,10.40758 -2.83619,20.77015 -6.60994,28.91866 -0.75366,1.62736 -1.3703,3.03192 -1.3703,3.12124 0,0.33593 -4.06157,7.17831 -5.73017,9.65344 -3.71793,5.51504 -9.21256,11.63371 -14.20707,15.82064 -1.45461,1.21941 -2.73629,2.32324 -2.84819,2.45298 -0.11188,0.12973 -2.12596,1.52973 -4.4757,3.11112 -8.08752,5.44292 -18.36563,9.8981 -26.98751,11.69806 -2.34584,0.48974 -2.37809,0.48376 -3.02688,-0.56145 z m -21.92104,-7.058 c 0.14476,-1.39866 0.43447,-3.8247 0.64382,-5.3912 1.01063,-7.56265 0.87514,-28.02242 -0.22834,-34.48329 l -0.2606,-1.52581 h 7.21465 7.21466 l -0.20145,1.72925 c -0.79337,6.8109 -1.07247,10.28551 -1.29917,16.17359 -0.2316,6.01539 -0.81452,11.30498 -1.83839,16.68217 -1.10682,5.81284 -1.83331,8.78265 -2.21311,9.04691 -0.2363,0.16442 -2.42441,0.30174 -4.86245,0.30517 l -4.43283,0.006 z m 3.82956,-31.62286 c -0.10572,-8.04553 -0.13969,-8.35335 -0.92347,-8.35335 -0.691,0 -0.80212,0.24555 -0.73665,1.62754 0.0424,0.89513 0.18804,5.28947 0.32357,9.76518 0.13553,4.4757 0.36161,8.77848 0.50238,9.56172 0.50336,2.80055 0.94819,-3.91912 0.83417,-12.60109 z m 10.56693,32.64007 c -0.10712,-0.8392 -0.0356,-1.69977 0.15893,-1.91235 0.21424,-0.23414 0.3537,-0.13388 0.3537,0.25431 0,0.35245 0.11444,1.213 0.25431,1.91233 0.15127,0.75637 0.0869,1.27151 -0.15893,1.27151 -0.22728,0 -0.50088,-0.68661 -0.60801,-1.5258 z m -2.1038,-3.06769 c -0.14789,-1.18371 -0.0891,-2.60271 0.13077,-3.15335 0.31561,-0.79056 0.40508,-0.33791 0.42546,2.15221 0.0142,1.73433 -0.0447,3.15333 -0.13077,3.15333 -0.0862,0 -0.27756,-0.96847 -0.42546,-2.15219 z m -13.56807,-42.30479 c -2.61248,-2.78085 -3.45953,-9.06331 -1.69617,-12.58018 0.48462,-0.96655 1.35298,-2.26087 1.9297,-2.87628 l 1.04856,-1.11892 h 7.37139 7.37138 l 1.25492,1.32235 c 2.25127,2.3723 2.77078,3.8131 2.75082,7.62906 -0.0188,3.5781 -0.61536,5.34252 -2.57972,7.62904 -0.76542,0.89096 -0.99821,0.9155 -8.68628,0.9155 -7.67918,0 -7.92394,-0.0258 -8.7646,-0.92057 z m 9.67438,-0.50352 c 0,-0.75124 -1.08427,-1.06147 -1.58809,-0.4544 -0.29914,0.36043 -0.29321,0.64819 0.0198,0.96122 0.54455,0.54453 1.56829,0.21368 1.56829,-0.50682 z m 4.69017,0.18562 c 0.14436,-0.2336 0.048,-0.68314 -0.21413,-0.999 -0.37435,-0.45106 -0.63934,-0.47265 -1.23499,-0.10059 -0.56184,0.35088 -0.64538,0.60978 -0.32237,0.99899 0.52589,0.63365 1.41099,0.68395 1.77149,0.1006 z m -8.82536,-0.95531 c 0.1655,-0.85935 -0.60243,-1.49827 -1.42254,-1.18356 -0.57715,0.22147 -0.74111,1.41856 -0.26018,1.8995 0.50474,0.50474 1.53179,0.0678 1.68272,-0.71594 z m 6.57649,-0.90137 c 0,-0.31175 -0.33568,-0.5668 -0.74596,-0.5668 -1.02106,0 -1.36747,0.43174 -0.84829,1.0573 0.52275,0.62988 1.59425,0.30022 1.59425,-0.4905 z m -12.16968,-1.85682 c -0.57504,-1.64951 -0.57322,-7.06596 0.003,-8.1421 0.34841,-0.65103 0.32981,-0.79525 -0.0847,-0.65706 -0.29212,0.0974 -0.86068,1.07981 -1.26348,2.18321 -1.03254,2.82853 -0.67911,5.54197 1.08018,8.29281 0.60019,0.93847 0.78027,-0.19964 0.26531,-1.67686 z m 18.52601,0.98485 c 0.9295,-1.38013 1.05387,-6.53546 0.20614,-8.54453 -0.6794,-1.61019 -1.4117,-1.76288 -0.97559,-0.20343 0.47898,1.71273 0.31128,7.92033 -0.24182,8.95141 -0.69738,1.3 0.10783,1.13802 1.01127,-0.20345 z m -9.40795,-0.29958 c 0,-0.93099 -1.36597,-1.3683 -1.8463,-0.59112 -0.50324,0.81428 0.0406,1.65694 0.9826,1.52254 0.5491,-0.0784 0.8637,-0.41762 0.8637,-0.93142 z m 7.85399,-1.17629 c -0.0783,-0.5491 -0.41761,-0.8637 -0.93141,-0.8637 -0.93098,0 -1.36831,1.36597 -0.59112,1.84629 0.81427,0.50326 1.65694,-0.0406 1.52253,-0.98259 z m -3.58172,0.15351 c 0,-0.5425 -0.27127,-0.81377 -0.81378,-0.81377 -0.5425,0 -0.81375,0.27127 -0.81375,0.81377 0,0.54251 0.27125,0.81376 0.81375,0.81376 0.54251,0 0.81378,-0.27125 0.81378,-0.81376 z m -1.62753,-2.66066 c 0,-0.28962 -0.22888,-0.60642 -0.5086,-0.704 -0.82388,-0.28738 -1.52582,0.14183 -1.52582,0.93299 0,0.40498 0.22888,0.81854 0.5086,0.91904 0.63305,0.22741 1.52582,-0.44431 1.52582,-1.14803 z m -6.71357,-0.5944 c 0,-0.32955 -0.32042,-0.66089 -0.71204,-0.7363 -0.49959,-0.0962 -0.71205,0.12347 -0.71205,0.7363 0,0.61283 0.21246,0.83251 0.71205,0.73631 0.39162,-0.0754 0.71204,-0.40676 0.71204,-0.73631 z m 11.17448,0.22126 c 0.61538,-0.74149 0.21562,-1.44191 -0.82299,-1.44191 -0.49456,0 -0.78975,0.27882 -0.78975,0.74595 0,1.33235 0.79858,1.67697 1.61274,0.69596 z m -0.8052,-5.00212 c -0.0141,-0.68859 -0.74701,-1.40781 -1.16893,-1.14706 -0.75284,0.46527 -0.50723,1.45221 0.36139,1.45221 0.44757,0 0.81096,-0.13732 0.80754,-0.30515 z m -13.41299,-6.51013 c 0.004,-0.16784 0.28386,-2.13614 0.62111,-4.37399 1.21698,-8.07524 1.16998,-35.00259 -0.0667,-38.22537 -0.21289,-0.55473 0.53696,-0.63191 6.14005,-0.63191 h 6.38254 l -0.22778,1.11893 c -0.64189,3.1534 -1.05754,8.63651 -1.05754,13.95091 0,3.265 -0.27283,8.00496 -0.60629,10.53327 -0.33347,2.52831 -0.48652,4.79072 -0.34014,5.02758 0.16152,0.26136 0.0208,0.33653 -0.35785,0.19121 -0.50423,-0.19349 -0.67368,0.24238 -0.88267,2.27043 -0.23107,2.24225 -0.7202,5.31324 -1.15937,7.27899 -0.0859,0.38514 -0.2838,0.82763 -0.43946,0.98329 -0.15568,0.15567 -0.28304,0.59736 -0.28304,0.98154 0,0.38415 -0.41196,0.8089 -0.91548,0.94383 -1.31689,0.35291 -6.81677,0.31356 -6.80738,-0.0487 z m 3.92869,-31.22823 c 0.17916,-7.99158 0.119,-9.47715 -0.41193,-10.17207 -0.47515,-0.62193 -0.73535,-0.70179 -1.10377,-0.33874 -0.36954,0.36414 -0.37594,2.14433 -0.0273,7.62747 0.25007,3.93387 0.47041,8.84684 0.48965,10.91771 0.0285,3.07311 0.10928,3.54084 0.4393,2.54456 0.22238,-0.67135 0.49875,-5.43187 0.61414,-10.57893 z m 9.10944,30.2924 c 0.0242,-1.319 0.0496,-1.34431 0.41928,-0.41929 0.26056,0.65188 0.25184,1.12611 -0.0258,1.40375 -0.2878,0.28779 -0.41121,-0.021 -0.3935,-0.98446 z m -2.01965,-2.31923 c 0.0282,-2.2012 0.13891,-2.84621 0.36633,-2.13614 0.47558,1.48502 0.47558,5.28948 0,5.28948 -0.23975,0 -0.39023,-1.29533 -0.36633,-3.15334 z m 1.45134,-0.77986 c -0.42862,-0.42863 -0.31555,-2.57692 0.13563,-2.57692 0.22379,0 0.40688,0.64084 0.40688,1.42409 0,1.46343 -0.0743,1.62113 -0.54251,1.15283 z m -13.27405,-42.31821 c -0.61736,-0.78484 -0.72109,-1.17044 -0.37278,-1.38569 0.37015,-0.22879 0.36001,-0.73608 -0.0435,-2.17742 -0.33867,-1.20955 -0.43056,-2.78184 -0.2579,-4.41237 0.14752,-1.39328 0.32218,-3.06287 0.38812,-3.71024 0.23588,-2.31583 1.31812,-2.68836 7.80984,-2.68836 5.72555,0 5.84534,0.0185 7.12224,1.09281 1.39172,1.17108 2.83252,4.04727 2.83252,5.65448 0,1.54472 -0.68324,1.14932 -0.95544,-0.55294 -0.13513,-0.84503 -0.4931,-1.87477 -0.79548,-2.2883 -0.47278,-0.64657 -0.52368,-0.25424 -0.36331,2.8011 l 0.18649,3.55299 -1.27433,-0.27988 c -0.98166,-0.21561 -1.33337,-0.126 -1.53145,0.39019 -0.41162,1.07269 0.51649,1.71743 1.54641,1.07424 0.78617,-0.49097 0.84192,-0.46346 0.63837,0.31495 -0.12268,0.46909 -0.0649,0.95062 0.12831,1.07005 0.41942,0.25921 1.60404,-1.90203 1.61289,-2.94258 0.003,-0.40274 0.16364,-0.98067 0.35602,-1.28429 0.672,-1.06055 0.36925,1.6937 -0.37772,3.43631 -1.42258,3.31872 -1.70086,3.4224 -9.18658,3.4224 h -6.60729 z m 7.93868,0.23824 c 0.4193,-0.67845 -0.52374,-1.45645 -1.08504,-0.89515 -0.46952,0.46951 -0.17566,1.33748 0.4528,1.33748 0.19737,0 0.48187,-0.19906 0.63224,-0.44233 z m -3.25284,-1.55303 c -0.15157,-0.24528 -0.63099,-0.44594 -1.06535,-0.44594 -0.89082,0 -1.12184,1.4366 -0.28116,1.74829 0.6756,0.25047 1.69615,-0.73661 1.34651,-1.30235 z m 7.5032,0.74488 c 0,-0.58229 -0.21912,-0.80141 -0.70738,-0.70738 -1.06063,0.20427 -1.17892,1.55097 -0.13622,1.55097 0.58229,0 0.8436,-0.2613 0.8436,-0.84359 z m -2.03443,-0.98738 c 0,-0.33567 -0.27464,-0.61033 -0.61031,-0.61033 -0.33568,0 -0.61033,0.27466 -0.61033,0.61033 0,0.33568 0.27465,0.61032 0.61033,0.61032 0.33567,0 0.61031,-0.27464 0.61031,-0.61032 z m -2.44128,-1.0172 c 0,-0.86302 -1.362,-1.1657 -1.83097,-0.40689 -0.37569,0.60786 0.14703,1.22065 1.04121,1.22065 0.51849,0 0.78976,-0.2795 0.78976,-0.81376 z m 3.52154,-0.62788 c 0.307,-0.80004 -0.0563,-1.16737 -0.8524,-0.86188 -0.35761,0.13722 -0.51916,0.50372 -0.3809,0.86403 0.30846,0.8038 0.92443,0.80274 1.2333,-0.002 z m -1.46139,-2.04788 c 0.44111,-0.5315 0.43221,-0.70463 -0.052,-1.01096 -0.76541,-0.48434 -1.08958,-0.47415 -1.40997,0.0443 -0.32357,0.52353 0.0539,1.60804 0.55977,1.60804 0.20341,0 0.60936,-0.2886 0.90209,-0.64134 z m -5.7221,-1.18962 c 0,-0.33569 -0.27464,-0.61033 -0.61032,-0.61033 -0.33568,0 -0.61033,0.27464 -0.61033,0.61033 0,0.33567 0.27465,0.61032 0.61033,0.61032 0.33568,0 0.61032,-0.27465 0.61032,-0.61032 z m 10.07046,-0.10152 c 0.22247,-0.66817 -1.05239,-1.14512 -1.5992,-0.59831 -0.234,0.234 -0.29617,0.63465 -0.13815,0.89032 0.35951,0.58168 1.51089,0.38816 1.73735,-0.29201 z m -1.11903,-4.37421 c 0,-0.33569 -0.27465,-0.61032 -0.61033,-0.61032 -0.33568,0 -0.61032,0.27463 -0.61032,0.61032 0,0.33568 0.27464,0.61033 0.61032,0.61033 0.33568,0 0.61033,-0.27465 0.61033,-0.61033 z m -10.68186,-10.68067 c 0.55376,-5.20949 0.89891,-28.58274 0.51521,-34.89017 l -0.19801,-3.25506 5.00182,-0.11442 5.00184,-0.11444 -0.32811,5.60734 c -0.43179,7.37921 -0.41576,16.82596 0.0409,24.08218 0.26155,4.15629 0.24187,5.78301 -0.0677,5.59171 -0.24009,-0.14839 -0.57027,-2.32831 -0.73376,-4.84428 -0.31825,-4.89828 -0.61294,-4.91976 -1.35487,-0.0988 -0.24108,1.5665 -0.63551,3.94676 -0.87651,5.28947 -0.241,1.34271 -0.53862,3.03806 -0.66137,3.76744 -0.12277,0.72937 -0.38607,1.42679 -0.58513,1.54981 -0.19905,0.12303 -0.36192,0.76218 -0.36192,1.42033 v 1.19663 h -2.97192 -2.97192 z m 3.0912,-23.90435 c 0.31125,-7.73821 -0.0929,-13.42711 -0.95388,-13.42711 -0.68945,0 -0.71709,2.68373 -0.16336,15.8684 0.3494,8.32008 0.71669,7.51755 1.11724,-2.44129 z m 5.56246,27.5663 c 0.004,-1.13495 0.10728,-1.36947 0.40065,-0.91549 0.51825,0.80192 0.51825,2.4413 0,2.4413 -0.22378,0 -0.40408,-0.68662 -0.40065,-1.52581 z m 1.51958,-0.86463 c -0.46818,-2.10682 -0.39133,-4.7755 0.12271,-4.26146 0.2385,0.2385 0.37356,1.58007 0.30516,3.03128 -0.10629,2.25528 -0.16351,2.41978 -0.42787,1.23018 z m -1.80661,-6.35754 c 0.002,-1.34271 0.0783,-1.84295 0.1688,-1.11164 0.0906,0.73131 0.0886,1.82989 -0.004,2.4413 -0.0928,0.6114 -0.16694,0.013 -0.16466,-1.32966 z m 61.10974,-6.35029 c -2.85051,-2.86352 -11.33061,-9.20291 -15.49889,-11.58637 -5.95681,-3.40614 -7.10937,-4.30566 -8.29814,-6.4763 -0.6128,-1.11892 -2.81349,-4.96396 -4.89042,-8.54453 -2.07694,-3.58056 -6.24999,-10.81289 -9.27345,-16.07186 -7.67296,-13.34627 -12.51517,-21.746113 -15.8996,-27.581193 l -2.89961,-4.99922 v -6.88403 c 0,-6.65732 0.0333,-6.93299 1.00915,-8.37108 0.55503,-0.81789 1.12745,-2.37886 1.27204,-3.46882 0.14459,-1.08997 0.41098,-1.89023 0.592,-1.77836 0.181,0.11186 0.85909,1.16118 1.50687,2.33182 1.02245,1.8477 11.19871,19.50728 14.94268,25.93106 2.86314,4.91247 9.37359,16.258213 11.09025,19.326913 1.00149,1.79029 1.96317,3.43816 2.1371,3.66195 0.17391,0.22378 2.41473,4.06882 4.97958,8.54453 2.56485,4.47571 5.72591,9.96862 7.02458,12.20648 3.16257,5.44975 9.70625,16.81457 11.71381,20.34412 0.89101,1.5665 1.96128,3.33419 2.3784,3.92819 1.6393,2.33453 0.69192,2.07673 -1.88635,-0.5133 z m -130.07238,0.34877 c 0.99158,-1.62539 4.98374,-8.52578 7.00309,-12.10476 0.82073,-1.4546 2.18826,-3.83486 3.03895,-5.28946 0.8507,-1.45461 2.2239,-3.83487 3.05158,-5.28947 1.44758,-2.5441 9.54134,-16.57017 14.4397,-25.02328 3.7742,-6.51314 11.60664,-20.109653 13.24304,-22.988863 0.82672,-1.45461 3.10585,-5.3912 5.06472,-8.74798 1.95886,-3.35678 3.86461,-6.65253 4.23498,-7.32388 0.37036,-0.67136 1.85921,-3.23472 3.30855,-5.69636 l 2.63515,-4.4757 0.20519,2.0348 c 0.11285,1.11914 0.63737,2.76701 1.1656,3.66194 0.92126,1.56085 0.95768,1.92481 0.89351,8.9337 -0.0368,4.01862 -0.21639,7.49746 -0.3991,7.73077 -0.18272,0.23331 -0.80172,1.2776 -1.37556,2.32063 -0.57383,1.04303 -2.4547,4.33878 -4.1797,7.32388 -1.72498,2.98511 -4.87688,8.448573 -7.00419,12.141033 -2.12733,3.69245 -4.87767,8.45298 -6.1119,10.57894 -2.43398,4.19256 -4.61378,7.96545 -5.83482,10.09916 -0.42528,0.74316 -2.17508,3.76427 -3.88846,6.71357 -1.71336,2.9493 -3.64838,6.32898 -4.30003,7.5104 -0.91089,1.6514 -1.63433,2.37582 -3.12908,3.13327 -6.12666,3.1046 -18.92639,12.26393 -21.52901,15.40589 -0.98377,1.18762 -1.36724,0.72056 -0.53221,-0.64823 z m 12.70875,-12.88683 c 0.53673,-0.80065 1.18299,-1.82193 1.43612,-2.2695 0.25315,-0.44756 1.6127,-2.73629 3.02125,-5.08602 1.40853,-2.34976 2.95904,-5.00466 3.44556,-5.89981 0.48652,-0.89514 2.68422,-4.74017 4.88377,-8.54454 5.2794,-9.13123 9.60177,-16.65833 10.86462,-18.92003 3.1203,-5.58816 6.7654,-11.955353 8.32337,-14.539123 0.97603,-1.61864 1.77459,-3.00727 1.77459,-3.08587 0,-0.0786 1.30897,-2.41619 2.90885,-5.19467 7.23515,-12.56532 7.37239,-12.86494 6.29999,-13.75496 -0.72783,-0.60405 -0.62451,-0.74764 -5.2378,7.27908 -2.12222,3.69246 -4.86428,8.45299 -6.09349,10.57895 -3.38793,5.85954 -11.87724,20.690763 -13.14649,22.967493 -0.61723,1.10717 -1.67102,2.93814 -2.34178,4.06882 -0.67076,1.13069 -1.53336,2.60507 -1.9169,3.27643 -0.38353,0.67136 -2.4956,4.3333 -4.69349,8.13766 -2.1979,3.80434 -5.40214,9.38881 -7.12055,12.40992 -1.71841,3.02109 -3.86366,6.77459 -4.76723,8.34108 -0.90357,1.56649 -1.56275,2.98166 -1.46484,3.1448 0.30715,0.51182 2.80447,-1.38819 3.82445,-2.90971 z m 46.74887,-18.77037 c -0.66001,-0.70653 -1.2,-1.62063 -1.2,-2.03132 0,-0.4107 -0.18309,-0.85988 -0.40688,-0.9982 -0.22379,-0.13829 -0.40689,-1.05378 -0.40689,-2.0344 0,-0.98061 0.1831,-1.89611 0.40689,-2.03442 0.25136,-0.15534 0.41033,0.57423 0.41593,1.90869 0.006,1.46298 0.25082,2.4746 0.75819,3.13449 l 0.74915,0.97434 -0.31595,-1.99155 c -0.17377,-1.09536 -0.2252,-2.81548 -0.1143,-3.82253 0.146,-1.32588 0.0863,-1.66585 -0.21669,-1.23243 -0.75367,1.07837 -0.95439,0.11033 -0.27429,-1.32288 0.36558,-0.77042 1.07669,-1.58848 1.58025,-1.81791 1.21811,-0.555 9.81377,-0.65429 10.80315,-0.12479 1.4332,0.76702 2.88986,3.98304 2.88986,6.38023 0,1.20263 -0.14322,2.18661 -0.31826,2.18661 -0.17505,0 -0.3325,-0.98525 -0.34992,-2.18944 -0.0174,-1.20421 -0.29397,-2.56399 -0.6146,-3.02176 -0.52635,-0.75146 -0.56679,-0.57835 -0.41646,1.78257 0.16501,2.59141 0.15695,2.61486 -0.89809,2.61486 -0.79336,0 -1.06461,0.20734 -1.06461,0.81377 0,0.54251 0.27125,0.81377 0.81377,0.81377 0.44756,0 0.81375,0.20551 0.81375,0.45671 0,0.29688 0.23672,0.26129 0.6765,-0.10173 0.37207,-0.30714 0.59507,-0.37534 0.49555,-0.15155 -1.20527,2.71023 -1.68549,3.03561 -4.49555,3.04608 -1.95818,0.007 -2.77957,-0.3352 -2.50707,-1.04533 0.13588,-0.35411 -0.0379,-0.57666 -0.45041,-0.57666 -0.414,0 -0.62582,0.27318 -0.55214,0.71205 0.10049,0.59901 -0.25513,0.73152 -2.24066,0.83468 -2.196,0.11411 -2.44373,0.0333 -3.56022,-1.16195 z m 10.50634,-0.30849 c 0.09,-0.2699 -0.2131,-0.48316 -0.68661,-0.48316 -0.46622,0 -0.84768,-0.18311 -0.84768,-0.40689 0,-0.51435 -1.0937,-0.53455 -1.40801,-0.026 -0.2461,0.39823 1.73752,1.62216 2.39979,1.48071 0.20981,-0.0448 0.45394,-0.2989 0.54251,-0.56465 z m -6.41687,-0.21191 c 0,-0.7653 -0.39155,-1.06537 -1.05699,-0.81002 -0.86546,0.33211 -0.68196,1.35253 0.24323,1.35253 0.44756,0 0.81376,-0.24413 0.81376,-0.54251 z m 2.57318,-1.24867 c 0.25534,-0.66545 -0.0447,-1.057 -0.81002,-1.057 -0.29838,0 -0.54251,0.3662 -0.54251,0.81377 0,0.92519 1.02041,1.10868 1.35253,0.24323 z m 3.12318,-0.85355 c 0,-0.33569 -0.27465,-0.61033 -0.61033,-0.61033 -0.33567,0 -0.61032,0.27464 -0.61032,0.61033 0,0.33567 0.27465,0.61032 0.61032,0.61032 0.33568,0 0.61033,-0.27465 0.61033,-0.61032 z m -1.22065,-1.85049 c 0,-0.18664 -0.19905,-0.46236 -0.44234,-0.61273 -0.56494,-0.34915 -1.36144,0.42478 -1.01465,0.9859 0.28881,0.46728 1.45699,0.16807 1.45699,-0.37317 z m -4.88259,-0.59081 c 0,-0.33569 -0.27465,-0.61033 -0.61032,-0.61033 -0.63538,0 -0.80725,0.48122 -0.33907,0.94939 0.46817,0.46818 0.94939,0.29632 0.94939,-0.33906 z m 8.13766,-0.43089 c 0,-0.32247 -0.27465,-0.58631 -0.61033,-0.58631 -0.61286,0 -0.83642,0.85892 -0.35013,1.3452 0.37971,0.37972 0.96046,-0.0791 0.96046,-0.75889 z m -0.81377,-3.23105 c 0,-0.33568 -0.27465,-0.61033 -0.61033,-0.61033 -0.63538,0 -0.80724,0.48123 -0.33906,0.94939 0.46816,0.46818 0.94939,0.29631 0.94939,-0.33906 z m -9.3559,-4.98432 c 0.001,-0.16783 0.26103,-2.04458 0.57714,-4.17055 1.03217,-6.94156 1.57916,-16.240793 1.30437,-22.175093 -0.23142,-4.99792 -0.88938,-14.34434 -1.17439,-16.68218 -0.0928,-0.76153 0.1722,-0.82125 4.12868,-0.93035 l 4.22789,-0.11659 -0.27884,1.94756 c -0.68596,4.79106 -1.04435,11.58373 -1.05804,20.05383 -0.0152,9.431073 -0.20102,11.473413 -1.60511,17.647553 -0.45154,1.98557 -0.73357,3.75158 -0.62671,3.92448 0.10686,0.17289 -0.0943,0.42508 -0.44697,0.56043 -0.91928,0.35276 -5.05088,0.30439 -5.04802,-0.0591 z m 3.6193,-34.597783 c 0.0348,-7.14153 -0.0456,-8.28507 -0.59743,-8.49684 -1.12624,-0.43218 -1.29058,0.38599 -0.95335,4.74595 0.18174,2.34974 0.47162,7.01872 0.64415,10.3755 0.41628,8.09916 0.85029,4.92784 0.90663,-6.62461 z m 5.33594,33.377133 c 0.005,-0.87191 0.0933,-0.98419 0.40066,-0.5086 0.51445,0.79608 0.51445,1.62754 0,1.62754 -0.22379,0 -0.40408,-0.50352 -0.40066,-1.11894 z M 444.7511,70.120117 c -1.11513,-0.59088 -2.38789,-2.55301 -1.94399,-2.99692 0.15647,-0.15647 0.51779,-0.0902 0.80293,0.14717 0.41246,0.34343 0.49023,-0.0609 0.3805,-1.97806 -0.0759,-1.32534 -0.30475,-2.30663 -0.5086,-2.18064 -0.66287,0.40967 -0.39139,-0.68142 0.4708,-1.89226 0.8404,-1.18024 0.84707,-1.18174 5.26177,-1.18174 4.41468,0 4.42135,0.002 5.26176,1.18174 0.87602,1.23025 1.11212,2.4802 0.4685,2.4802 -0.20513,0 -0.46533,-0.22887 -0.5782,-0.5086 -0.11288,-0.27973 -0.21969,0.36111 -0.23734,1.42409 -0.0274,1.65073 -0.15085,1.93269 -0.84589,1.93269 -1.02535,0 -1.05354,0.65681 -0.0511,1.19324 1.05251,0.56329 2.08563,-0.63821 2.08563,-2.42558 0,-1.02025 0.11789,-1.25382 0.4601,-0.9116 0.55899,0.55899 -0.24173,3.62378 -1.32037,5.05377 -0.62714,0.83143 -1.09779,0.93754 -4.69921,1.05947 -2.74869,0.0931 -4.31701,-0.0313 -5.00716,-0.39697 z m 4.59822,-1.63964 c -0.30343,-1.59408 -0.44336,-1.79022 -0.92406,-1.29524 -0.52829,0.54399 -0.0347,2.61761 0.62307,2.61761 0.40395,0 0.48497,-0.3559 0.30099,-1.32237 z m 3.00973,0.6367 c 0.0792,-0.23725 -0.27251,-0.54023 -0.78131,-0.67329 -0.73319,-0.19173 -0.82105,-0.34598 -0.42352,-0.7435 0.68212,-0.68213 0.63047,-1.1526 -0.12657,-1.1526 -0.3455,0 -0.57437,-0.26264 -0.50861,-0.58364 0.0657,-0.32101 -0.0178,-0.59565 -0.1856,-0.61032 -1.09292,-0.0956 -1.16115,0.0794 -0.36254,0.92945 0.7964,0.84773 0.82751,1.01484 0.27436,1.47391 -0.86053,0.71418 -0.78072,1.23189 0.18989,1.23189 0.44758,0 0.81377,0.19836 0.81377,0.44079 0,0.54094 0.91113,0.2843 1.11013,-0.31269 z m -4.86531,-0.45869 c 0.09,-0.26989 -0.21311,-0.48317 -0.68662,-0.48317 -0.84523,0 -1.09856,0.42726 -0.56794,0.95787 0.37696,0.37697 1.05635,0.1199 1.25456,-0.4747 z m -0.88159,-4.03492 c -0.41359,-0.4136 -0.75487,0.2091 -0.41552,0.75818 0.25636,0.41478 0.3522,0.41511 0.49002,0.002 0.0943,-0.2827 0.0607,-0.62462 -0.0745,-0.75982 z m 6.67119,0.50013 c 0,-0.33568 -0.27465,-0.61032 -0.61033,-0.61032 -0.63538,0 -0.80725,0.48122 -0.33907,0.94939 0.46817,0.46817 0.9494,0.29631 0.9494,-0.33907 z m -0.78326,-2.75663 c -0.0503,-0.48651 -0.60841,-0.39229 -0.78324,0.13224 -0.0895,0.26854 0.057,0.41502 0.32549,0.32551 0.26855,-0.0895 0.47454,-0.2955 0.45775,-0.45775 z m -10.17046,3.12961 c 0.0195,-0.474 0.11594,-0.57041 0.24584,-0.24583 0.11752,0.29372 0.10306,0.64465 -0.0321,0.77986 -0.1352,0.1352 -0.23137,-0.10511 -0.2137,-0.53403 z m 3.06323,-7.01577 c -0.11424,-0.18487 0.0687,-3.06865 0.40662,-6.4084 0.33787,-3.33976 0.65142,-10.46662 0.69675,-15.83747 0.0474,-5.6051 0.25388,-10.02518 0.48488,-10.3755 0.53777,-0.81557 0.53367,-8.58112 -0.004,-8.40814 -0.22379,0.0719 -0.4654,0.52842 -0.53691,1.01441 -0.16332,1.10991 -0.88719,1.16691 -0.88719,0.0699 0,-1.46911 1.43317,-2.4413 3.59888,-2.4413 3.42206,0 3.45208,0.10253 2.93797,10.03318 -0.24145,4.66399 -0.41831,11.04333 -0.39303,14.17633 0.0261,3.22417 -0.16036,6.46231 -0.42947,7.46125 -0.4066,1.50934 -0.83119,3.59439 -1.93119,9.48321 -0.15025,0.80441 -0.5119,1.13822 -1.43262,1.32237 -1.65893,0.33179 -2.26305,0.31018 -2.51025,-0.0898 z"
       id="path1-3" />
  </g>
</svg>
