<?xml version="1.0" encoding="UTF-8" standalone="no"?>
<!-- Created with Inkscape (http://www.inkscape.org/) -->

<svg
   version="1.1"
   id="svg824"
   xml:space="preserve"
   width="48.411999mm"
   height="59.999947mm"
   viewBox="0 0 182.97449 226.77146"
   sodipodi:docname="River-sin-fondo-escudo.svg"
   inkscape:version="1.3.2 (1:1.3.2+202311252150+091e20ef0f)"
   xmlns:inkscape="http://www.inkscape.org/namespaces/inkscape"
   xmlns:sodipodi="http://sodipodi.sourceforge.net/DTD/sodipodi-0.dtd"
   xmlns="http://www.w3.org/2000/svg"
   xmlns:svg="http://www.w3.org/2000/svg"
   xmlns:inkstitch="http://inkstitch.org/namespace"><sodipodi:namedview
     id="namedview1"
     pagecolor="#ffffff"
     bordercolor="#666666"
     borderopacity="1.0"
     inkscape:showpageshadow="2"
     inkscape:pageopacity="0.0"
     inkscape:pagecheckerboard="0"
     inkscape:deskcolor="#d1d1d1"
     inkscape:zoom="2.3314286"
     inkscape:cx="126.10294"
     inkscape:cy="123.95833"
     inkscape:window-width="1848"
     inkscape:window-height="1016"
     inkscape:window-x="72"
     inkscape:window-y="27"
     inkscape:window-maximized="1"
     inkscape:current-layer="svg824"
     inkscape:document-units="mm" /><metadata
     id="metadata1"><inkstitch:min_stitch_len_mm>0</inkstitch:min_stitch_len_mm><inkstitch:collapse_len_mm>3</inkstitch:collapse_len_mm><inkstitch:inkstitch_svg_version>1</inkstitch:inkstitch_svg_version></metadata><defs
     id="defs828" /><g
     id="g830"
     transform="matrix(0.493023 0 0 -0.493023 -236.537 282.618)"><g
       id="g1555"><g
         id="g1548"
         transform="matrix(0.851831 0 0 0.851831 71.7094 84.1188)"><path
           d="m 695.77421,463.78247 c 56.51922,0 104.18103,-37.801 119.16716,-89.48907 l 64.1314,110.52993 -57.56594,56.52463 -1.4221,-0.67314 C 805.41262,533.71233 770.759,522.18579 702.30177,521.43504 L 666.72956,460.3301 c 9.31941,2.23601 19.03765,3.45237 29.04465,3.45237"
           style="fill:#ed192d;fill-opacity:1;fill-rule:nonzero;stroke:none;stroke-width:1.80469"
           id="path1054" /><path
           d="m 695.77421,215.59599 c -56.62751,0 -104.36151,37.94356 -119.25018,89.78503 l -22.8636,-39.27362 c 12.23218,-61.11215 36.92934,-112.26784 72.93106,-150.10132 8.60475,-9.04149 17.15176,-16.568845 25.22954,-22.852769 L 724.8748,219.06099 c -9.33926,-2.24504 -19.07555,-3.465 -29.10059,-3.465"
           style="fill:#ed192d;fill-opacity:1;fill-rule:nonzero;stroke:none;stroke-width:1.80469"
           id="path1058" /></g><path
         d="m 664.83827,130.46578 4.41971,1.79094 c 9.94781,4.03077 35.91109,16.37982 62.08961,43.89116 43.09177,45.28395 67.93745,111.68719 71.85293,192.0275 3.22062,66.07118 20.19537,107.0415 27.34377,121.59041 l 3.74792,7.6265 -60.80751,59.7068 -7.42204,-3.52193 c -12.11999,-5.75101 -41.3946,-15.41133 -101.22439,-15.49742 -59.8344,0.0861 -89.10594,9.74641 -101.22746,15.49588 l -7.42204,3.52194 -60.80289,-59.70527 3.74791,-7.6265 c 7.14686,-14.54737 24.12162,-55.51769 27.3407,-121.59041 3.91701,-80.34184 28.7627,-146.74355 71.85293,-192.0275 26.18313,-27.51287 52.14488,-39.86039 62.09268,-43.89116 z m -8.25371,-6.79021 c -10.48739,4.2506 -37.83885,17.24224 -65.2349,46.03414 -44.60293,46.87044 -70.30487,115.27062 -74.32951,197.8031 -3.1376,64.39093 -19.52664,104.00842 -26.42754,118.0531 l -6.62111,13.47281 69.94515,68.68305 13.11308,-6.22142 c 9.21299,-4.36898 37.14247,-14.53969 97.37503,-14.62578 60.21872,0.0861 88.13744,10.25834 97.3458,14.62732 l 13.11309,6.22141 69.94823,-68.68458 -6.61957,-13.47281 c -6.9009,-14.04621 -23.29148,-53.66986 -26.43063,-118.0531 -4.02308,-82.53248 -29.72503,-150.93266 -74.32796,-197.8031 -27.39758,-28.79497 -54.74905,-41.78354 -65.23644,-46.03414 l -7.80636,-3.16374 z"
         style="fill:#231f20;fill-opacity:1;fill-rule:nonzero;stroke:none;stroke-width:1.53729"
         id="path1078" /></g><g
       id="g1544"
       transform="matrix(0.851831 0 0 0.851831 71.7094 84.1188)"><path
         d="m 771.08547,305.95401 v 82.91098 c 9.29775,-14.13612 14.73889,-31.01717 14.73889,-49.17594 0,-27.38254 -14.73889,-33.73504 -14.73889,-33.73504 m 0,114.30534 c -5.58732,5.22276 -11.70882,9.86803 -18.2851,13.85278 V 409.1533 270.22299 245.26235 c 6.57628,3.98475 12.69778,8.63002 18.2851,13.85279 v 21.83492 c 0,0 35.11923,14.46457 35.11923,58.73899 0,31.78236 -13.5496,60.41193 -35.11923,80.5703"
         style="fill:#231f20;fill-opacity:1;fill-rule:nonzero;stroke:none;stroke-width:1.80469"
         id="path1062" /><path
         d="m 662.10757,423.14504 c 5.81832,2.35512 11.94162,4.0804 18.2851,5.17946 v 20.69797 c -6.27851,-0.87889 -12.38918,-2.27932 -18.2851,-4.17064 -44.47473,-14.27328 -76.76421,-56.0103 -76.76421,-105.16278 0,-49.15429 32.28948,-90.89312 76.76421,-105.16459 5.89592,-1.89312 12.00659,-3.29356 18.2851,-4.17244 v 20.69977 c -6.34348,1.09725 -12.46678,2.82253 -18.2851,5.17765 -33.01135,13.36733 -56.38387,45.71095 -56.38387,83.45961 0,37.74505 23.37252,70.09047 56.38387,83.45599"
         style="fill:#231f20;fill-opacity:1;fill-rule:nonzero;stroke:none;stroke-width:1.80469"
         id="path1066" /><path
         d="m 662.10757,348.83033 h -23.31116 c 2.48867,15.48062 11.08801,28.93276 23.31116,37.73603 z m 0,61.76906 c -26.51628,-12.64184 -44.92951,-39.63275 -44.92951,-70.91161 0,-26.4477 13.19227,-49.79134 33.28927,-64.02672 v 28.4094 c -5.9681,7.54901 -10.11166,16.58689 -11.72145,26.47477 h 23.36169 V 292.8092 268.77617 c 5.75876,-2.74493 11.86222,-4.87085 18.2851,-6.15037 v 21.41262 46.50681 18.2851 46.50682 21.41262 c -6.42288,-1.27952 -12.52634,-3.40545 -18.2851,-6.15038"
         style="fill:#231f20;fill-opacity:1;fill-rule:nonzero;stroke:none;stroke-width:1.80469"
         id="path1070" /><path
         d="m 709.56997,428.5656 c 4.74813,-0.7345 9.3934,-1.7722 13.86902,-3.22136 v -109.7106 c -3.75375,-4.31321 -8.49466,-7.74031 -13.86902,-9.9312 z m 16.13932,-138.08029 c 0.27792,0.16783 0.55765,0.33928 0.83377,0.51253 0.66051,0.41869 1.31562,0.84279 1.95628,1.28674 0.092,0.065 0.18408,0.12994 0.27612,0.19491 0.63344,0.44395 1.25245,0.90415 1.86424,1.37156 6.11067,4.74994 11.08259,11.30457 11.08439,21.41984 v 54.49076 0 55.73057 c 0,17.52172 -13.26806,20.33703 -26.51447,22.86359 -12.23579,2.33527 -23.92475,1.64588 -23.92475,1.64588 V 229.37135 c 1.49067,-0.0596 2.98315,-0.1137 4.49006,-0.1137 4.67414,0 9.27068,0.32485 13.79504,0.89152 v 53.59021 l 21.20689,-48.76267 c 5.93381,1.98877 11.65287,4.44856 17.0922,7.37215 z"
         style="fill:#231f20;fill-opacity:1;fill-rule:nonzero;stroke:none;stroke-width:1.80469"
         id="path1074" /></g></g></svg>
