<?xml version="1.0" encoding="UTF-8" standalone="no"?>
<!-- Created with Inkscape (http://www.inkscape.org/) -->

<svg
   version="1.1"
   id="svg824"
   xml:space="preserve"
   width="68.584mm"
   height="85.000343mm"
   viewBox="0 0 259.21513 321.26115"
   sodipodi:docname="River-con-fondo-escudo.svg"
   inkscape:version="1.3.2 (1:1.3.2+202311252150+091e20ef0f)"
   xmlns:inkscape="http://www.inkscape.org/namespaces/inkscape"
   xmlns:sodipodi="http://sodipodi.sourceforge.net/DTD/sodipodi-0.dtd"
   xmlns:xlink="http://www.w3.org/1999/xlink"
   xmlns="http://www.w3.org/2000/svg"
   xmlns:svg="http://www.w3.org/2000/svg"
   xmlns:inkstitch="http://inkstitch.org/namespace"><sodipodi:namedview
     id="namedview1"
     pagecolor="#ff00c5"
     bordercolor="#666666"
     borderopacity="1.0"
     inkscape:showpageshadow="2"
     inkscape:pageopacity="0.0"
     inkscape:pagecheckerboard="0"
     inkscape:deskcolor="#d1d1d1"
     inkscape:zoom="1.648569"
     inkscape:cx="96.447284"
     inkscape:cy="163.17182"
     inkscape:window-width="1848"
     inkscape:window-height="1016"
     inkscape:window-x="72"
     inkscape:window-y="27"
     inkscape:window-maximized="1"
     inkscape:current-layer="svg824"
     inkscape:document-units="mm" /><metadata
     id="metadata1"><inkstitch:min_stitch_len_mm>0</inkstitch:min_stitch_len_mm><inkstitch:collapse_len_mm>3</inkstitch:collapse_len_mm><inkstitch:inkstitch_svg_version>1</inkstitch:inkstitch_svg_version></metadata><defs
     id="defs828"><symbol
   id="inkstitch_trim">
      <title
   id="inkstitch_title9282">Trim the thread after sewing this object.</title>
      <path
   id="inkstitch_circle13405"
   d="m 9.2465284,-8.6e-6 c 1.8e-6,2.452339 -0.9741847,4.804237 -2.7082493,6.538304 C 4.8042146,8.2723614 2.4523174,9.2465504 -2.1625959e-5,9.2465514 -2.4523623,9.2465534 -4.8042621,8.2723654 -6.5383288,6.5382984 -8.2723956,4.8042314 -9.2465834,2.4523324 -9.2465816,-8.6e-6 c 6e-7,-2.452339 0.9741895,-4.804237 2.708256,-6.538301 1.7340665,-1.734065 4.0859648,-2.708252 6.538303974041,-2.70825 C 5.1067066,-9.2465576 9.2465271,-5.1067366 9.2465284,-8.6e-6 c 0,0 0,0 0,0"
   style="opacity:1;vector-effect:none;fill:#fafafa;fill-opacity:1;fill-rule:evenodd;stroke:#003399;stroke-width:1.06500006;stroke-linecap:round;stroke-linejoin:miter;stroke-miterlimit:4;stroke-dasharray:3.19500017, 3.19500017;stroke-dashoffset:0;stroke-opacity:1"
   inkscape:connector-curvature="0" />
      <path
   style="color:#000000;font-style:normal;font-variant:normal;font-weight:normal;font-stretch:normal;font-size:medium;line-height:normal;font-family:sans-serif;font-variant-ligatures:normal;font-variant-position:normal;font-variant-caps:normal;font-variant-numeric:normal;font-variant-alternates:normal;font-feature-settings:normal;text-indent:0;text-align:start;text-decoration:none;text-decoration-line:none;text-decoration-style:solid;text-decoration-color:#000000;letter-spacing:normal;word-spacing:normal;text-transform:none;writing-mode:lr-tb;direction:ltr;text-orientation:mixed;dominant-baseline:auto;baseline-shift:baseline;text-anchor:start;white-space:normal;shape-padding:0;clip-rule:nonzero;display:inline;overflow:visible;visibility:visible;opacity:1;isolation:auto;mix-blend-mode:normal;color-interpolation:sRGB;color-interpolation-filters:linearRGB;solid-color:#000000;solid-opacity:1;vector-effect:none;fill:#050505;fill-opacity:1;fill-rule:evenodd;stroke:none;stroke-width:1.41421342;stroke-linecap:butt;stroke-linejoin:miter;stroke-miterlimit:4;stroke-dasharray:none;stroke-dashoffset:0;stroke-opacity:1;color-rendering:auto;image-rendering:auto;shape-rendering:auto;text-rendering:auto;enable-background:accumulate"
   d="m -3.0000256,-5.9834096 c -1.30575,0 -2.375,1.06924 -2.375,2.375 0,1.30575 1.06925,2.375 2.375,2.375 0.58687,0 1.11944,-0.22369 1.53516,-0.58007 0,0 0.61717997,1.62109 0.61717997,1.62109 0,0 -2.29881997,6.01758 -2.29881997,6.01758 0.98655,-0.12511 1.23728,-0.26171 1.67382,-0.97461 0,0 1.33007997,-3.18945 1.33007997,-3.18945 0,0 1.23633003,3.25 1.23633003,3.25 0.23227,0.77906 0.84315,0.79218 1.57813,1.07226 0,0 -2.05469003,-6.14258 -2.05469003,-6.14258 0,0 0.73047003,-1.75 0.73047003,-1.75 0.42849,0.41682 1.01136,0.67578 1.65234,0.67578 1.30575,0 2.375,-1.06925 2.375,-2.375 0,-1.30576 -1.06925,-2.375 -2.375,-2.375 -1.06233,0 -1.95701,0.71265 -2.25781003,1.67969 0,0 -0.0117,-0.0156 -0.0117,-0.0156 0,0 -0.80274,2.10156 -0.80274,2.10156 0,0 -0.59179,-1.76562 -0.59179,-1.76562 -0.18242,-1.12808 -1.15864997,-2 -2.33593997,-2 0,0 -2e-5,-3e-5 -2e-5,-3e-5 m 0,1 c 0.76531,0 1.375,0.60968 1.375,1.375 0,0.76531 -0.60969,1.375 -1.375,1.375 -0.76531,0 -1.375,-0.60969 -1.375,-1.375 0,-0.76532 0.60969,-1.375 1.375,-1.375 0,0 0,0 0,0 m 6,0 c 0.76531,0 1.375,0.60968 1.375,1.375 0,0.76531 -0.60969,1.375 -1.375,1.375 -0.76531,0 -1.375,-0.60969 -1.375,-1.375 0,-0.76532 0.60969,-1.375 1.375,-1.375 0,0 0,0 0,0"
   id="inkstitch_path13416"
   inkscape:connector-curvature="0" />
    </symbol>
    </defs><g
     id="g830"
     transform="matrix(0.493023 0 0 -0.493023 -236.537 282.618)"><g
       id="g1555"><g
         id="g1548"
         transform="matrix(1.14482 0 0 1.14482 -55.076 -99.3999)"><path
           d="m 695.77421,463.78247 c 56.51922,0 104.18103,-37.801 119.16716,-89.48907 l 64.1314,110.52993 -57.56594,56.52463 -1.4221,-0.67314 C 805.41262,533.71233 770.759,522.18579 702.30177,521.43504 L 666.72956,460.3301 c 9.31941,2.23601 19.03765,3.45237 29.04465,3.45237"
           style="fill:#ed192d;fill-opacity:1;fill-rule:nonzero;stroke:none;stroke-width:1.80469"
           id="path1054" /><g
           id="command_group1"
           inkscape:label="Ink/Stich Instrucción: Trim thread after sewing this object"
           transform="matrix(1.77172 0 0 -1.77172 467.187 587.546)"><path
             id="command_connector1"
             d="M 154.01103,6.2602366 162.12771,35.5729"
             style="fill:none;stroke:#000000;stroke-width:1px;stroke-opacity:0.5"
             inkscape:connection-start="#command_use7160"
             inkscape:connection-end="#path1054"
             inkscape:label="conector"
             inkscape:connector-type="polyline"
             inkscape:connector-curvature="0" /><use
             id="command_use7160"
             xlink:href="#inkstitch_trim"
             height="100%"
             width="100%"
             x="154.0084605889811"
             y="6.22438965546791"
             inkscape:label="marcador de instrucción" /></g><path
           d="m 695.77421,215.59599 c -56.62751,0 -104.36151,37.94356 -119.25018,89.78503 l -22.8636,-39.27362 c 12.23218,-61.11215 36.92934,-112.26784 72.93106,-150.10132 8.60475,-9.04149 17.15176,-16.568845 25.22954,-22.852769 L 724.8748,219.06099 c -9.33926,-2.24504 -19.07555,-3.465 -29.10059,-3.465"
           style="fill:#ed192d;fill-opacity:1;fill-rule:nonzero;stroke:none;stroke-width:1.80469"
           id="path1058" /><g
           id="command_group2"
           inkscape:label="Ink/Stich Instrucción: Trim thread after sewing this object"
           transform="matrix(1.77172 0 0 -1.77172 467.187 587.546)"><path
             id="command_connector2"
             d="m 80.534891,135.97156 12.805771,64.20251"
             style="fill:none;stroke:#000000;stroke-width:1px;stroke-opacity:0.5"
             inkscape:connection-start="#command_use671"
             inkscape:connection-end="#path1058"
             inkscape:label="conector"
             inkscape:connector-type="polyline"
             inkscape:connector-curvature="0" /><use
             id="command_use671"
             xlink:href="#inkstitch_trim"
             height="100%"
             width="100%"
             x="80.53230694368466"
             y="135.93571152037774"
             inkscape:label="marcador de instrucción" /></g></g><path
         id="path6"
         style="fill:none;stroke:#231f20;stroke-width:2.72595px;stroke-opacity:1"
         d="m 734.10447,-35.212128 -8.96704,4.098597 -8.67363,4.445836 -8.5851,4.88187 -8.47867,5.30461 -8.35393,5.712489 -8.21072,6.1060119 -8.04943,6.4849274 -7.79617,6.7847507 -15.2002,14.796628 -14.1977,15.998179 -13.18625,17.222121 -6.06626,8.884764 -5.80369,9.207031 -6.10264,10.503184 -5.76957,10.783331 -5.43473,11.063008 -5.10083,11.34589 -4.76728,11.63181 -4.43357,11.92018 -4.10031,12.21141 -3.74407,12.42964 -6.55338,25.98135 -5.19702,27.1047 -3.85887,28.32368 -2.53571,29.75893 -2.01894,26.35636 -0.0344,0.36565 -2.74067,24.53 -0.0566,0.42669 -3.50012,22.83935 -0.0864,0.48724 -4.301,21.32972 -0.12432,0.54211 -5.14331,20.00109 -0.16851,0.58482 -6.0268,18.85375 -0.21563,0.60947 -6.95171,17.88686 -0.25979,0.6108 -7.91778,17.10123 -0.0724,0.15323 -2.57828,5.34194 41.2973,40.92625 41.41839,40.63424 3.70416,-1.73247 0.28284,-0.12727 11.0191,-4.76414 0.60774,-0.24069 11.35794,-4.09601 0.6305,-0.20524 11.95438,-3.47967 0.60807,-0.15753 12.80951,-2.91431 0.54763,-0.10939 13.92196,-2.40074 0.46656,-0.0697 15.29312,-1.93788 0.37821,-0.041 16.92214,-1.5268 0.29488,-0.0223 18.80903,-1.16672 0.35885,-0.0161 25.73895,-0.71829 0.58294,-1.6e-4 25.70677,0.70358 0.35815,0.0159 18.72454,1.15008 m -61.20177,-567.899147 -9.18263,4.197136 -0.42654,0.206634 -9.08831,4.658369 -0.40274,0.217533 -8.97682,5.104603 -0.38063,0.227075 -8.84869,5.536134 -0.35942,0.235246 -8.70395,5.951834 -0.34059,0.24288 -8.54258,6.352816 -0.3231,0.250245 -8.36458,6.738814 -0.30712,0.257059 -8.1694,7.1095445 -0.43308,0.3986714 -15.68728,15.2707491 -0.53184,0.5569491 -14.70704,16.5721159 -0.48584,0.58911 -13.59294,17.753279 -0.33621,0.464741 -6.33701,9.281311 -0.21199,0.323074 -6.00827,9.531557 -0.19716,0.325667 -6.29122,10.827736 -0.18019,0.323047 -5.94311,11.107695 -0.1669,0.325372 -5.59473,11.38873 -0.1532,0.325775 -5.24719,11.671415 -0.13962,0.32503 -4.90016,11.956 -0.1262,0.32314 -4.55315,12.24168 -0.11302,0.31961 -4.20695,12.52901 -0.1004,0.31536 -3.86104,12.81795 -0.12794,0.46256 -6.68647,26.50902 -0.13171,0.59361 -5.30797,27.68336 -0.0922,0.56248 -3.93328,28.86968 -0.0585,0.52848 -2.56212,30.06885 -0.007,0.0899 -2.00829,26.21838 -2.69637,24.13354 -3.43001,22.38194 -4.1971,20.81443 -4.99822,19.43684 -5.83563,18.25571 -6.71428,17.27594 -7.74268,16.72301 -5.81386,12.0457 2.07499,12.0794 46.66359,46.24434 0.0379,0.0374 46.66357,45.7801 11.85802,2.02551 10.1955,-4.76849 10.5766,-4.57283 10.73829,-3.87255 11.3342,-3.29915 12.23074,-2.78263 13.4142,-2.31318 14.8703,-1.88431 16.58538,-1.49642 18.48215,-1.14643 25.26792,-0.70513 25.23611,0.69068 18.54558,1.13909 M 706.09712,-14.448426 689.31016,-41.279986 M 685.37697,0.06417 665.52065,-24.582546 m 0.47701,41.51758 -22.07695,-22.6791226 M 647.94843,35.67971 624.27595,14.671435 m 7.30812,41.254863 -25.13002,-19.241013 m 2.31571,55.348938 -27.90678,-14.931373 m 16.38081,38.34626 -28.86706,-12.97793 m 19.03374,37.19391 -29.66474,-11.03343 m 19.27031,43.94908 -30.68898,-7.74079 m 22.80563,42.18374 -31.08396,-5.96001 m 25.57059,40.92029 -31.36046,-4.27263 m 27.32563,48.47259 -31.55773,-2.41738 m 29.12426,30.05265 -31.45446,-3.51431 m 27.89284,31.12055 -31.28495,-4.7944 m 21.95025,50.72708 -30.65291,-7.88245 m 19.09095,44.19913 -29.5005,-11.46535 m 41.10976,67.43384 -22.27884,22.48082 m 48.03831,2.92467 -22.16517,22.59291 m 80.49361,-8.49932 8.84561,30.38896 m 66.1653,-41.73141 1.95947,31.58948 m 53.80477,-32.56267 -0.8659,31.63834"
         inkstitch:satin_column="true" /><path
         id="path7"
         style="fill:none;stroke:#231f20;stroke-width:2.72595px;stroke-opacity:1"
         d="m 786.82169,513.51806 16.88614,1.50036 0.3646,0.0388 15.26258,1.89263 0.44853,0.0655 13.85436,2.32606 0.53215,0.10348 12.66121,2.80118 0.60336,0.1523 11.6826,3.31803 0.64689,0.20643 10.91987,3.87629 0.65137,0.25587 10.37142,4.47627 0.31522,0.14223 5.62906,2.6516 3.58508,-3.42474 52.06942,-51.02178 22.5637,-22.65527 4.56451,-4.83397 -3.37016,-7.00973 -0.0218,-0.0476 -4.51063,-9.50319 -0.17501,-0.38865 -4.23775,-9.9467 -0.21862,-0.55617 -7.67164,-21.27331 -0.21971,-0.68055 -6.62732,-23.19483 -0.15375,-0.60573 -5.61382,-25.21528 -0.0912,-0.45822 -3.05879,-17.32312 -0.0679,-0.43824 -2.39911,-17.96835 -0.0445,-0.38838 -2.05073,-21.36842 -0.0191,-0.23787 -2.00861,-27.44732 -2.20587,-25.11487 -3.19343,-24.04351 -4.20231,-23.16305 -5.2197,-22.33478 -6.24679,-21.55878 -7.28536,-20.83777 -8.33674,-20.17153 -9.42584,-19.60927 -5.99815,-11.138593 -6.25785,-10.642323 -6.53351,-10.159964 -6.8553,-9.744708 -7.22538,-9.396704 -7.64477,-9.116139 -8.11466,-8.900461 -8.58633,-8.698882 -15.75965,-14.4351436 -15.62425,-12.3814164 -7.74132,-5.41573 -7.84386,-5.016856 -16.56192,-9.190474 -13.99786,-6.487709 -5.40525,-2.198686 -7.73479,3.311146 m 51.08362,569.644033 16.70352,1.48413 14.85565,1.84218 13.36338,2.24361 12.09252,2.67538 11.0564,3.14017 10.26984,3.64553 9.89117,4.26903 12.02147,5.66279 11.78331,-1.9155 8.86805,-8.47143 0.0965,-0.0933 52.16318,-51.1137 0.0913,-0.0906 22.70824,-22.80036 0.19572,-0.20173 9.41105,-9.96661 2.11016,-11.19768 -1.84573,-4.56514 -0.27268,-0.61689 -4.42561,-9.20492 -4.40791,-9.28681 -4.03707,-9.47563 -7.44884,-20.65556 -6.44316,-22.55022 -5.4951,-24.68205 -2.97958,-16.8746 -2.3439,-17.55475 -2.02064,-21.05501 -2.0055,-27.40483 -0.0136,-0.1532 -2.23309,-25.42492 -0.0512,-0.46596 -3.25725,-24.524 -0.0777,-0.49424 -4.29418,-23.66941 -0.10738,-0.5176 -5.34286,-22.8617 -0.14012,-0.53527 -6.40353,-22.09979 -0.17446,-0.54574 -7.47672,-21.38506 -0.20881,-0.54778 -8.56192,-20.71638 -0.24152,-0.54097 -9.65913,-20.094588 -0.21971,-0.431437 -6.20698,-11.526405 -0.19463,-0.345531 -6.46514,-10.994843 -0.22079,-0.358729 -6.76607,-10.521623 -0.24481,-0.363903 -7.11035,-10.107267 -0.26524,-0.360651 -7.49799,-9.751253 -0.27965,-0.348192 -7.9287,-9.454669 -0.28755,-0.328866 -8.40274,-9.216426 -0.2878,-0.303344 -8.91985,-9.0367925 -0.38251,-0.368486 -16.23356,-14.8692285 -0.57348,-0.488824 -16.16651,-12.811134 -0.50476,-0.376039 -8.17839,-5.721493 -0.36323,-0.243148 -8.30541,-5.312057 -0.56539,-0.337225 -17.18492,-9.53618 -0.68267,-0.34705 -14.57372,-6.754619 -0.46127,-0.200639 -9.71718,-3.952618 -8.12703,0.07388 -11.78291,5.044085 m 184.53607,562.533815 22.15148,22.60632 m 1.9351,-46.20831 22.15151,22.60632 m -7.179,-87.77273 29.77335,-10.73695 m -37.79232,-14.36352 30.43231,-8.69526 m -36.75178,-16.75047 30.89378,-6.87805 m -38.36493,-35.97193 31.37179,-4.18872 m -35.29194,-38.72351 31.56575,-2.30999 m -35.22779,-38.74056 31.37464,-4.16713 m -34.8622,-20.12031 31.14183,-5.64987 m -35.84322,-18.38739 30.81973,-7.20269 m -36.81694,-16.50472 30.39976,-8.80848 m -37.75563,-14.48094 29.8768,-10.44565 M 889.47743,123.7989 918.72791,111.70989 M 879.32333,101.61826 907.84909,87.906421 M 867.96591,80.52033 895.24895,64.477505 M 854.96492,60.356329 880.85125,42.145553 M 840.32159,41.417975 864.57301,21.080751 M 824.0802,23.748935 846.60552,1.5150923 m -52.70628,-4.306481 19.65731,-24.8057323"
         inkstitch:satin_column="true" /></g><g
       id="g1544"
       transform="matrix(1.14482 0 0 1.14482 -55.076 -99.3999)"><path
         d="m 771.08547,305.95401 v 82.91098 c 9.29775,-14.13612 14.73889,-31.01717 14.73889,-49.17594 0,-27.38254 -14.73889,-33.73504 -14.73889,-33.73504 m 0,114.30534 c -5.58732,5.22276 -11.70882,9.86803 -18.2851,13.85278 V 409.1533 270.22299 245.26235 c 6.57628,3.98475 12.69778,8.63002 18.2851,13.85279 v 21.83492 c 0,0 35.11923,14.46457 35.11923,58.73899 0,31.78236 -13.5496,60.41193 -35.11923,80.5703"
         style="fill:#231f20;fill-opacity:1;fill-rule:nonzero;stroke:none;stroke-width:1.80469"
         id="path1062" /><g
         id="command_group3"
         inkscape:label="Ink/Stich Instrucción: Trim thread after sewing this object"
         transform="matrix(1.77172 0 0 -1.77172 467.187 587.546)"><path
           id="command_connector3"
           d="m 165.02611,56.916813 4.88793,36.046998"
           style="fill:none;stroke:#000000;stroke-width:1px;stroke-opacity:0.5"
           inkscape:connection-start="#command_use6843"
           inkscape:connection-end="#path1062"
           inkscape:label="conector"
           inkscape:connector-type="polyline"
           inkscape:connector-curvature="0" /><use
           id="command_use6843"
           xlink:href="#inkstitch_trim"
           height="100%"
           width="100%"
           x="165.0235302018059"
           y="56.88096675184162"
           inkscape:label="marcador de instrucción" /></g><path
         d="m 662.10757,423.14504 c 5.81832,2.35512 11.94162,4.0804 18.2851,5.17946 v 20.69797 c -6.27851,-0.87889 -12.38918,-2.27932 -18.2851,-4.17064 -44.47473,-14.27328 -76.76421,-56.0103 -76.76421,-105.16278 0,-49.15429 32.28948,-90.89312 76.76421,-105.16459 5.89592,-1.89312 12.00659,-3.29356 18.2851,-4.17244 v 20.69977 c -6.34348,1.09725 -12.46678,2.82253 -18.2851,5.17765 -33.01135,13.36733 -56.38387,45.71095 -56.38387,83.45961 0,37.74505 23.37252,70.09047 56.38387,83.45599"
         style="fill:#231f20;fill-opacity:1;fill-rule:nonzero;stroke:none;stroke-width:1.80469"
         id="path1066" /><g
         id="command_group4"
         inkscape:label="Ink/Stich Instrucción: Trim thread after sewing this object"
         transform="matrix(1.77172 0 0 -1.77172 467.187 587.546)"><path
           id="command_connector4"
           d="m 80.711847,61.305771 5.439881,33.394454"
           style="fill:none;stroke:#000000;stroke-width:1px;stroke-opacity:0.5"
           inkscape:connection-start="#command_use359"
           inkscape:connection-end="#path1066"
           inkscape:label="conector"
           inkscape:connector-type="polyline"
           inkscape:connector-curvature="0" /><use
           id="command_use359"
           xlink:href="#inkstitch_trim"
           height="100%"
           width="100%"
           x="80.70927015447812"
           y="61.269924815433605"
           inkscape:label="marcador de instrucción" /></g><path
         d="m 662.10757,348.83033 h -23.31116 c 2.48867,15.48062 11.08801,28.93276 23.31116,37.73603 z m 0,61.76906 c -26.51628,-12.64184 -44.92951,-39.63275 -44.92951,-70.91161 0,-26.4477 13.19227,-49.79134 33.28927,-64.02672 v 28.4094 c -5.9681,7.54901 -10.11166,16.58689 -11.72145,26.47477 h 23.36169 V 292.8092 268.77617 c 5.75876,-2.74493 11.86222,-4.87085 18.2851,-6.15037 v 21.41262 46.50681 18.2851 46.50682 21.41262 c -6.42288,-1.27952 -12.52634,-3.40545 -18.2851,-6.15038"
         style="fill:#231f20;fill-opacity:1;fill-rule:nonzero;stroke:none;stroke-width:1.80469"
         id="path1070" /><g
         id="command_group5"
         inkscape:label="Ink/Stich Instrucción: Trim thread after sewing this object"
         transform="matrix(1.77172 0 0 -1.77172 467.187 587.546)"><path
           id="command_connector5"
           d="m 96.137239,73.31432 3.218002,33.6833"
           style="fill:none;stroke:#000000;stroke-width:1px;stroke-opacity:0.5"
           inkscape:connection-start="#command_use8130"
           inkscape:connection-end="#path1070"
           inkscape:label="conector"
           inkscape:connector-type="polyline"
           inkscape:connector-curvature="0" /><use
           id="command_use8130"
           xlink:href="#inkstitch_trim"
           height="100%"
           width="100%"
           x="96.13465523364351"
           y="73.27847159251911"
           inkscape:label="marcador de instrucción" /></g><path
         d="m 709.56997,428.5656 c 4.74813,-0.7345 9.3934,-1.7722 13.86902,-3.22136 v -109.7106 c -3.75375,-4.31321 -8.49466,-7.74031 -13.86902,-9.9312 z m 16.13932,-138.08029 c 0.27792,0.16783 0.55765,0.33928 0.83377,0.51253 0.66051,0.41869 1.31562,0.84279 1.95628,1.28674 0.092,0.065 0.18408,0.12994 0.27612,0.19491 0.63344,0.44395 1.25245,0.90415 1.86424,1.37156 6.11067,4.74994 11.08259,11.30457 11.08439,21.41984 v 54.49076 0 55.73057 c 0,17.52172 -13.26806,20.33703 -26.51447,22.86359 -12.23579,2.33527 -23.92475,1.64588 -23.92475,1.64588 V 229.37135 c 1.49067,-0.0596 2.98315,-0.1137 4.49006,-0.1137 4.67414,0 9.27068,0.32485 13.79504,0.89152 v 53.59021 l 21.20689,-48.76267 c 5.93381,1.98877 11.65287,4.44856 17.0922,7.37215 z"
         style="fill:#231f20;fill-opacity:1;fill-rule:nonzero;stroke:none;stroke-width:1.80469"
         id="path1074" /><g
         id="command_group6"
         inkscape:label="Ink/Stich Instrucción: Trim thread after sewing this object"
         transform="matrix(1.77172 0 0 -1.77172 467.187 587.546)"><path
           id="command_connector6"
           d="m 121.4783,48.123757 6.7331,29.459603"
           style="fill:none;stroke:#000000;stroke-width:1px;stroke-opacity:0.5"
           inkscape:connection-start="#command_use2398"
           inkscape:connection-end="#path1074"
           inkscape:label="conector"
           inkscape:connector-type="polyline"
           inkscape:connector-curvature="0" /><use
           id="command_use2398"
           xlink:href="#inkstitch_trim"
           height="100%"
           width="100%"
           x="121.47571687050298"
           y="48.08790837541195"
           inkscape:label="marcador de instrucción" /></g></g></g><path
     style="fill:#ffffff;stroke-width:0.52934;stroke-linejoin:bevel;stroke-miterlimit:0"
     d="M 124.95221,298.85112 C 111.33532,292.87238 98.60294,283.74396 86.40137,271.21226 57.684335,241.71824 41.236371,199.1431 38.050953,146.05839 35.957,111.16284 30.004266,84.072428 19.816039,63.072775 l -2.501448,-5.155916 20.015956,-19.674377 20.015962,-19.674378 5.272135,2.352533 c 15.818625,7.058584 44.148636,10.901222 73.872976,10.020015 27.97384,-0.829312 46.70609,-4.076497 60.76857,-10.534061 l 4.04862,-1.859147 19.95576,19.590367 19.95577,19.590366 -3.08302,6.741964 c -9.57713,20.943286 -15.10721,45.636659 -17.17197,76.677879 -1.48107,22.26588 -3.29054,35.17166 -7.15057,50.99995 -10.20887,41.86218 -30.69974,74.15104 -60.66628,95.59599 -5.49295,3.93091 -13.58005,8.54783 -19.37537,11.06141 -2.44788,1.06171 -4.49488,1.91867 -4.54889,1.90436 -0.054,-0.0143 -1.97643,-0.85068 -4.27203,-1.85861 z m 0.29914,-55.62981 c 11.1644,-19.24462 20.22562,-35.06351 20.13601,-35.1531 -0.0896,-0.0896 -2.23827,0.20302 -4.77483,0.65026 -6.18224,1.09002 -17.36883,1.08324 -23.51695,-0.0143 -15.35429,-2.74082 -30.363606,-11.13739 -40.33462,-22.56414 -5.911394,-6.77443 -12.838959,-18.9992 -14.43528,-25.47327 -0.183128,-0.74269 -0.474733,-1.34481 -0.648003,-1.33805 -0.59819,0.0234 -12.836548,21.58691 -12.836548,22.61754 0,1.64352 3.179865,14.32604 5.385672,21.48011 6.770589,21.95902 17.654086,42.14853 31.252036,57.97436 7.275808,8.46787 18.021193,18.26316 18.981323,17.30303 0.27076,-0.27076 9.6268,-16.23788 20.79119,-35.48249 z m 8.95127,-41.00812 3.01095,-0.3147 0.13009,-14.17265 0.1301,-14.17264 5.50315,12.64594 c 5.12173,11.76946 5.58641,12.64001 6.70429,12.56003 1.6913,-0.12095 8.66172,-3.41615 8.66172,-4.09467 0,-0.30894 -2.73675,-6.50804 -6.08169,-13.77579 l -6.08168,-13.21408 1.61488,-0.99806 c 2.28895,-1.41465 5.07915,-4.64403 6.30723,-7.30002 1.04014,-2.24953 1.04951,-2.5742 1.04951,-36.39699 0,-31.791387 -0.061,-34.285314 -0.89118,-36.43678 -0.98564,-2.554303 -3.33652,-4.8901 -6.12441,-6.085136 -2.99619,-1.28432 -10.29945,-2.624438 -16.18601,-2.970058 l -5.5242,-0.324351 v 62.682345 62.68233 h 2.38317 c 1.31075,0 3.7381,-0.14163 5.39413,-0.31472 z m -13.66977,-6.30497 v -6.12863 l -1.35035,-0.29227 c -16.09833,-3.48429 -29.171581,-13.82934 -36.064447,-28.53834 -1.064755,-2.27212 -2.503243,-6.27578 -3.196641,-8.89705 -1.08576,-4.1045 -1.260733,-5.78817 -1.260733,-12.13152 0,-6.34336 0.174973,-8.02702 1.260733,-12.13152 4.837659,-18.28782 18.420463,-31.927852 36.653448,-36.807867 l 3.95799,-1.05934 v -6.068225 c 0,-6.035188 -0.006,-6.06694 -1.10483,-5.833413 -9.23301,1.962322 -15.69498,4.260165 -21.477306,7.63722 -13.793708,8.055963 -24.269737,21.189985 -28.67419,35.949455 -2.175765,7.29106 -2.497504,9.6503 -2.497504,18.31369 0,8.68348 0.317452,10.99944 2.524042,18.41397 6.348107,21.33079 25.417304,38.53034 47.606748,42.93912 1.85764,0.3691 3.43276,0.69184 3.50028,0.71722 0.0675,0.0254 0.12276,-2.71175 0.12276,-6.0825 z m 42.20709,-3.4351 c 0.77113,-0.39876 3.08031,-2.05868 5.13153,-3.6887 l 3.72948,-2.96367 v -6.34451 c 0,-5.87836 0.071,-6.36705 0.96611,-6.65116 1.39171,-0.44169 6.28391,-4.14896 8.81112,-6.67695 4.31992,-4.32124 8.00727,-11.3184 9.42244,-17.88006 0.88247,-4.09167 0.76011,-14.29976 -0.23353,-19.48552 -2.38328,-12.43816 -7.74365,-22.82351 -16.51702,-32.000629 -4.03244,-4.218001 -11.44521,-10.139268 -12.69323,-10.139268 -0.41424,0 -0.55877,13.781467 -0.55877,53.277757 0,29.30276 0.1215,53.27774 0.2699,53.27774 0.14845,0 0.90084,-0.32625 1.67197,-0.72503 z M 120.53285,139.85765 V 96.33792 l -1.96721,0.314569 c -5.97594,0.955591 -14.73587,5.828811 -20.402999,11.350371 -9.035428,8.80332 -13.513422,19.37997 -13.513422,31.91755 0,11.01319 3.35293,20.16524 10.650301,29.07072 1.906079,2.32611 7.30393,7.02066 8.07246,7.02066 0.27392,0 0.46554,-3.22692 0.46554,-7.84007 v -7.84006 l -1.94802,-3.01396 c -2.00283,-3.09877 -3.623175,-6.90518 -4.387459,-10.30679 l -0.43468,-1.9346 h 6.331319 6.33131 v 17.41462 17.41462 l 1.10484,0.596 c 1.76874,0.95411 7.38717,2.81557 8.59319,2.84702 l 1.10483,0.0288 z m 94.26082,-50.929909 c 9.52699,-16.432891 17.38614,-30.243371 17.46478,-30.68995 0.0913,-0.5185 -5.69514,-6.526998 -16.00985,-16.624184 l -16.15283,-15.812212 -2.61856,1.158055 c -4.23224,1.871697 -13.19122,4.556074 -19.6376,5.884009 -10.81164,2.227168 -30.13236,4.181877 -41.5935,4.208096 l -3.6828,0.0085 -9.99608,17.209527 c -5.49786,9.465237 -9.90858,17.297048 -9.8016,17.404026 0.10698,0.106979 2.0641,-0.156725 4.34915,-0.586012 5.77524,-1.084963 17.95895,-1.072513 24.04173,0.02458 13.42152,2.420708 26.00361,8.856624 35.91769,18.372398 9.03253,8.669645 14.68723,17.771936 18.80201,30.265356 0.30678,0.93147 0.31955,0.93147 0.95332,0 0.3533,-0.51927 8.43716,-14.38921 17.96414,-30.822101 z"
     id="path1" /><g
     id="command_group7"
     inkscape:label="Ink/Stich Instrucción: Trim thread after sewing this object"><path
       id="command_connector7"
       d="M 119.10121,0.89214164 121.02793,30.976202"
       style="fill:none;stroke:#000000;stroke-width:1px;stroke-opacity:0.5"
       inkscape:connection-start="#command_use1144"
       inkscape:connection-end="#path1"
       inkscape:label="conector"
       inkscape:connector-type="polyline"
       inkscape:connector-curvature="0" /><use
       id="command_use1144"
       xlink:href="#inkstitch_trim"
       height="100%"
       width="100%"
       x="119.09862172943359"
       y="0.8562945796225798"
       inkscape:label="marcador de instrucción" /></g><path
     style="fill:#ffffff;stroke:#ffffff;stroke-width:0.100138;stroke-linejoin:bevel;stroke-miterlimit:0;stroke-opacity:1"
     d="m 97.184958,134.20109 c 0.0027,-0.28023 0.255495,-1.42663 0.561852,-2.54758 1.75585,-6.42449 5.84061,-12.86644 10.49682,-16.55423 l 1.5725,-1.24544 v 10.42839 10.42838 h -6.31801 c -4.785237,0 -6.316827,-0.12364 -6.313162,-0.50952 z"
     id="path2" /><g
     id="command_group8"
     inkscape:label="Ink/Stich Instrucción: Trim thread after sewing this object"><path
       id="command_connector8"
       d="m 104.06684,84.459919 -0.50487,35.507111"
       style="fill:none;stroke:#000000;stroke-width:1px;stroke-opacity:0.5"
       inkscape:connection-start="#command_use6074"
       inkscape:connection-end="#path2"
       inkscape:label="conector"
       inkscape:connector-type="polyline"
       inkscape:connector-curvature="0" /><use
       id="command_use6074"
       xlink:href="#inkstitch_trim"
       height="100%"
       width="100%"
       x="104.06425960616423"
       y="84.42407226593036"
       inkscape:label="marcador de instrucción" /></g><path
     style="fill:#ffffff;stroke:#ffffff;stroke-width:0.100138;stroke-linejoin:bevel;stroke-miterlimit:0;stroke-opacity:1"
     d="m 137.12621,124.36292 c 0,-32.556851 0.0384,-34.405801 0.71332,-34.271956 0.39233,0.07782 2.04316,0.44725 3.66852,0.820973 l 2.9552,0.679497 v 30.878916 30.8789 l -1.98018,1.85222 c -1.08908,1.01871 -2.73992,2.23982 -3.66851,2.71355 l -1.68835,0.86133 z"
     id="path3" /><g
     id="command_group9"
     inkscape:label="Ink/Stich Instrucción: Trim thread after sewing this object"><path
       id="command_connector9"
       d="m 129.20838,61.419587 7.9365,43.159923"
       style="fill:none;stroke:#000000;stroke-width:1px;stroke-opacity:0.5"
       inkscape:connection-start="#command_use5309"
       inkscape:connection-end="#path3"
       inkscape:label="conector"
       inkscape:connector-type="polyline"
       inkscape:connector-curvature="0" /><use
       id="command_use5309"
       xlink:href="#inkstitch_trim"
       height="100%"
       width="100%"
       x="129.20579884565404"
       y="61.38373948801144"
       inkscape:label="marcador de instrucción" /></g><path
     style="fill:#ffffff;stroke:#ffffff;stroke-width:0.100138;stroke-linejoin:bevel;stroke-miterlimit:0;stroke-opacity:1"
     d="m 171.78567,135.62774 0.0121,-22.72443 1.41106,2.44568 c 4.0028,6.93775 5.90348,13.82564 6.18633,22.41872 0.22825,6.93475 -0.28988,10.36206 -2.1661,14.32806 -1.06087,2.24247 -4.33552,6.2564 -5.10413,6.2564 -0.19352,0 -0.34629,-10.22599 -0.3395,-22.72443 z"
     id="path4" /><g
     id="command_group10"
     inkscape:label="Ink/Stich Instrucción: Trim thread after sewing this object"><path
       id="command_connector10"
       d="m 169.93982,83.031788 3.53717,32.787502"
       style="fill:none;stroke:#000000;stroke-width:1px;stroke-opacity:0.5"
       inkscape:connection-start="#command_use722"
       inkscape:connection-end="#path4"
       inkscape:label="conector"
       inkscape:connector-type="polyline"
       inkscape:connector-curvature="0" /><use
       id="command_use722"
       xlink:href="#inkstitch_trim"
       height="100%"
       width="100%"
       x="169.93723490751177"
       y="82.99594054510212"
       inkscape:label="marcador de instrucción" /></g></svg>
