<?xml version="1.0" encoding="UTF-8" standalone="no"?>
<!-- Created with Inkscape (http://www.inkscape.org/) -->

<svg
   version="1.1"
   id="svg1"
   width="36.318577mm"
   height="56.038788mm"
   viewBox="0 0 137.26706 211.80014"
   sodipodi:docname="rosa.svg"
   inkscape:version="1.4 (1:1.4+202410161351+e7c3feb100)"
   xmlns:inkscape="http://www.inkscape.org/namespaces/inkscape"
   xmlns:sodipodi="http://sodipodi.sourceforge.net/DTD/sodipodi-0.dtd"
   xmlns="http://www.w3.org/2000/svg"
   xmlns:svg="http://www.w3.org/2000/svg">
  <defs
     id="defs1" />
  <sodipodi:namedview
     id="namedview1"
     pagecolor="#ffffff"
     bordercolor="#000000"
     borderopacity="0.25"
     inkscape:showpageshadow="2"
     inkscape:pageopacity="0.0"
     inkscape:pagecheckerboard="0"
     inkscape:deskcolor="#d1d1d1"
     inkscape:zoom="1.5191747"
     inkscape:cx="21.393194"
     inkscape:cy="82.281516"
     inkscape:window-width="1247"
     inkscape:window-height="758"
     inkscape:window-x="0"
     inkscape:window-y="0"
     inkscape:window-maximized="1"
     inkscape:current-layer="g1"
     inkscape:document-units="mm" />
  <g
     inkscape:groupmode="layer"
     inkscape:label="Image"
     id="g1"
     transform="translate(-7.9789066,-8.3442967)">
    <g
       id="g3"
       transform="matrix(0.45280754,0,0,0.45280754,-39.397909,-1.4975728)">
      <path
         style="fill:#d40f32;fill-opacity:1"
         d="m 127.07895,409.41667 c 0.048,-1.16495 0.28494,-1.4019 0.60416,-0.60417 0.28887,0.72187 0.25335,1.58438 -0.0789,1.91667 -0.33229,0.33229 -0.56864,-0.25834 -0.52522,-1.3125 z M 334.5,236.47234 c -11.56087,-1.63084 -14.5,-2.70361 -14.5,-5.29243 0,-1.79172 17.97381,-24.33785 19.9191,-24.98628 0.52239,-0.17413 8.0997,3.31107 16.83846,7.74489 16.27788,8.25896 22.00647,9.81016 25.15483,6.81148 2.0706,-1.97215 0.38041,2.99447 -2.5825,7.58869 -3.9814,6.17348 -11.30695,8.97067 -24.32454,9.28812 C 349.22741,237.76771 340,237.2482 334.5,236.47234 Z m -59.11454,-15.65767 c -1.47878,-2.39272 4.1699,-14.30336 9.14101,-19.27447 5.22256,-5.22257 10.17528,-7.34151 26.97353,-11.5402 17.19536,-4.29795 21.36177,-6.13759 26.92814,-11.88986 4.28941,-4.43266 6.57186,-4.19073 6.57186,0.69658 0,5.82046 -9.01749,18.41941 -23.20977,32.42797 -9.76068,9.63433 -11.59967,10.26214 -30.12418,10.28399 -8.70867,0.0103 -16.03493,-0.30653 -16.28059,-0.70401 z m -55.3475,-4.86488 c -16.12143,-2.18297 -24.11999,-5.07629 -35.88301,-12.97993 -12.1871,-8.18858 -19.52818,-15.07108 -22.55587,-21.14687 -1.41864,-2.84684 -2.3926,-5.3628 -2.16437,-5.59103 0.22823,-0.22823 6.63629,1.96518 14.24013,4.87424 18.40534,7.0415 23.15186,7.18822 35.08709,1.0846 10.66813,-5.45564 19.16081,-7.41111 30.43104,-7.00686 4.84639,0.17383 8.81059,-0.0214 8.80933,-0.43394 -0.001,-0.4125 -0.87837,-1.62607 -1.94912,-2.69682 -6.54353,-6.54353 -16.83717,-7.19239 -32.55318,-2.05196 -7.47747,2.44574 -12.40968,3.38997 -19.55264,3.74318 -16.80132,0.83079 -28.576,-3.58786 -43.39664,-16.28535 -4.91386,-4.20991 -10.00228,-8.06043 -11.3076,-8.55672 C 134.89928,147.25081 130.62031,147.92859 126,151 c -5.15109,3.42426 -6.24712,3.61003 -8.42857,1.42857 -3.28641,-3.28641 -1.62828,-22.98816 2.71782,-32.29293 C 123.1398,114.03275 131,109.41627 131,113.84496 c 0,3.05717 7.27465,13.31396 13.41496,18.91424 11.05462,10.08238 26.37439,17.29926 44.33,20.8831 4.52296,0.90276 17.34077,1.88013 30.75504,2.3451 12.65,0.43848 24.62558,1.29975 26.6124,1.91393 4.95891,1.53294 11.17983,6.2174 13.72454,10.33484 8.5403,13.81849 5.30628,38.00266 -6.09173,45.55429 -3.80672,2.52211 -4.89052,2.72077 -15.66741,2.87194 -6.36779,0.0893 -14.48572,-0.23135 -18.03984,-0.71261 z M 280,192.86803 c 0,-2.27511 4.21644,-7.862 8.79975,-11.65988 6.81986,-5.65116 12.10595,-8.47048 26.70025,-14.2405 25.79859,-10.19975 35.94386,-17.59333 40.44486,-29.47502 4.40298,-11.62299 3.79667,-37.24079 -1.15413,-48.764279 -1.23544,-2.875593 -4.57121,-7.971254 -7.41283,-11.323691 -2.84162,-3.352438 -5.88913,-7.492591 -6.77224,-9.20034 -1.63185,-3.155641 -2.22373,-10.20975 -0.85566,-10.197731 1.65618,0.01455 6.31943,3.790702 10.38506,8.409505 3.40086,3.863585 6.49726,5.910051 14.82825,9.800251 10.27101,4.796104 10.91692,5.301349 26.28185,20.558228 8.66363,8.602707 16.00087,16.425227 16.30497,17.383377 1.19577,3.76755 -2.40271,7.88816 -9.87222,11.30466 -3.94785,1.80572 -7.90551,4.12783 -8.79479,5.16026 -0.88928,1.03242 -3.75098,6.04667 -6.35932,11.14278 -8.62894,16.85898 -16.90382,21.5585 -49.5238,28.12585 -19.42998,3.91183 -23.97511,5.79993 -37.74568,15.68005 C 284.20772,193.49726 280,195.50991 280,192.86803 Z m -10,-28.73355 c 0,-2.54131 4.00394,-8.79528 8.16748,-12.75723 2.38289,-2.26751 8.38252,-6.82485 13.33252,-10.12742 10.96974,-7.31885 16.39115,-12.69222 20.40636,-20.22551 7.3921,-13.86901 8.81404,-36.179169 3.14831,-49.396782 -2.75701,-6.431845 -9.61256,-13.422534 -20.40101,-20.803175 -16.58322,-11.344981 -20.97282,-16.977637 -15.5095,-19.901513 3.46408,-1.853919 9.43621,-0.400081 17.12817,4.169631 6.01564,3.573827 8.33735,4.370991 14.20911,4.878735 3.86021,0.3338 7.9724,1.136272 9.13821,1.78327 2.63648,1.463187 5.38035,7.07815 5.38035,11.010153 0,10.211037 2.46005,15.426867 14.4804,30.701566 6.59421,8.379512 9.52114,16.216132 9.51586,25.477965 -0.005,8.35083 -1.98541,11.73006 -9.29233,15.85383 -4.78037,2.69788 -5.91777,3.96091 -8.51264,9.45296 -5.58535,11.82141 -12.64217,15.94263 -33.75433,19.71269 -12.17199,2.17358 -21.14836,5.47715 -25.18401,9.26845 C 270.98154,164.42651 270,164.81966 270,164.13448 Z m -11.46848,-12.03516 c -1.06947,-3.36962 -8.11761,-7.91596 -15.97147,-10.30225 -7.97076,-2.4218 -23.77122,-2.97116 -40.62525,-1.41246 -8.28283,0.76601 -10.06512,0.64738 -13.29405,-0.88485 -6.18565,-2.93528 -8.38939,-10.37892 -5.27763,-17.82641 1.99402,-4.77236 10.04876,-11.42122 15.96443,-13.17798 7.93819,-2.35739 16.61012,-1.79706 40.20105,2.59755 35.45028,6.60383 44.82137,5.7173 54.86941,-5.19076 2.48361,-2.69619 5.21008,-4.90216 6.05883,-4.90216 2.49329,0 5.54316,3.77006 5.54316,6.85212 0,5.52631 -3.81903,9.25944 -15.8521,15.49555 -13.87325,7.18978 -22.32054,14.68085 -27.39546,24.29434 -3.05768,5.79221 -3.61159,6.37714 -4.22092,4.45731 z m -98.61295,-23.03851 c -6.49682,-4.31602 -21.48281,-19.34077 -25.40246,-25.46817 -7.42437,-11.606154 -9.0628,-22.225231 -5.54896,-35.964206 3.55067,-13.882985 7.77943,-20.851471 15.53285,-25.596252 3.54192,-2.167512 29.90259,-11.485195 36.78119,-13.001014 2.62965,-0.579489 5.89114,-0.775036 7.24775,-0.434548 l 2.46657,0.61907 -2.46885,1.941997 c -1.35786,1.068098 -4.28734,4.534435 -6.50994,7.70297 -2.2226,3.168536 -8.10887,9.257111 -13.08059,13.530168 -4.97173,4.273057 -10.37068,9.60683 -11.99767,11.85283 -9.01226,12.441054 -7.7158,36.088245 3.14844,57.427035 2.70456,5.3121 4.76727,9.80847 4.58381,9.99193 -0.18346,0.18347 -2.32193,-0.98735 -4.75214,-2.60181 z m 10.41463,-4.52956 c -4.29745,-3.03072 -5.60799,-18.3465 -2.76584,-32.323408 C 168.42941,87.968529 170.72466,80.9 172.66791,76.5 c 1.94326,-4.4 4.19293,-10.7 4.99928,-14 0.99345,-4.06577 2.4923,-7.074148 4.64944,-9.332017 2.6727,-2.797505 20.72192,-16.664165 25.68337,-19.731741 0.825,-0.510083 5.4055,-1.17349 10.17889,-1.474238 7.96027,-0.501537 9.5402,-0.981278 19.08104,-5.793896 12.4777,-6.294033 14.04438,-6.122308 18.61541,2.040452 4.79414,8.561196 5.8827,9.665565 15.98902,16.221222 14.5194,9.41829 20.35587,16.639635 23.6404,29.249817 1.61252,6.190857 2.02292,17.876245 0.65747,18.720139 -0.46078,0.284774 -1.37451,-1.807508 -2.03053,-4.649517 -2.20754,-9.563579 -7.58714,-19.089614 -14.11797,-24.999678 -6.97183,-6.309146 -23.0392,-15.531331 -30.37462,-17.434114 -6.13741,-1.592024 -9.02997,-0.961369 -31.00583,6.760097 -17.40401,6.115092 -20.48427,8.433802 -22.43596,16.889001 -0.6761,2.928989 -2.81246,7.931666 -4.74749,11.11706 -7.41433,12.205307 -12.62044,26.671453 -14.21611,39.502163 -0.60395,4.8563 -1.09352,5.96532 -2.73468,6.19493 -1.09947,0.15382 -2.9741,-0.40797 -4.16584,-1.24843 z m 93.25305,-21.08786 c -0.9357,-0.9357 -1.46277,-2.32278 -1.17128,-3.08241 0.2915,-0.759634 1.02111,-4.201283 1.62134,-7.648112 0.90575,-5.201176 0.81749,-7.073607 -0.519,-11.010136 -0.88569,-2.608746 -1.33786,-5.184074 -1.00481,-5.722953 2.89903,-4.690733 16.48957,7.196911 16.48595,14.420259 -0.004,8.712566 -10.69527,17.760282 -15.4122,13.043352 z m -62.07167,-9.940044 c 4.26473,-5.262583 6.79117,-10.423454 9.40013,-19.20206 2.38531,-8.02602 4.97392,-10.840722 10.93674,-11.891956 2.0067,-0.353778 7.24855,-1.487452 11.64855,-2.519275 4.4,-1.031824 9.39172,-1.879196 11.09272,-1.883049 3.80094,-0.0086 11.18414,3.771292 13.15024,6.732391 1.44451,2.17555 1.42152,2.185853 -3.56093,1.595756 -7.41709,-0.878444 -10.04919,0.102662 -11.85219,4.417864 -1.31631,3.150364 -1.36049,4.721765 -0.30604,10.886098 1.64499,9.616704 1.00651,11.705309 -4.26468,13.950718 -3.55512,1.514398 -7.17072,1.822763 -21.87396,1.865573 l -17.61483,0.05129 z"
         id="path4" />
      <path
         style="fill:#20732f"
         d="m 171.49084,488.77555 c -1.12467,-2.83045 4.00247,-14.49027 11.55407,-26.27555 8.65484,-13.50704 17.08079,-29.96529 28.39103,-55.45571 9.21749,-20.77389 9.21547,-20.76373 5.83357,-29.29429 -1.41026,-3.55726 -1.71788,-3.75 -5.98508,-3.75 -3.91042,0 -4.39791,0.22874 -3.72958,1.75 2.84232,6.46966 0.60487,16.25493 -4.74635,20.75768 -2.76155,2.3237 -3.58694,2.50356 -8.78819,1.91511 -7.72451,-0.87393 -11.64146,1.09954 -18.70268,9.4229 -10.01199,11.80157 -12.25974,12.49463 -16.31763,5.03129 -3.85064,-7.08216 -4.797,-7.87726 -9.37244,-7.87441 -2.95286,0.002 -5.80302,1.01286 -10.01466,3.55242 -3.2379,1.95242 -7.1754,3.80751 -8.75,4.12243 L 128,413.25 l 0.0237,-5.375 c 0.0344,-7.79274 3.30766,-14.77359 15.34373,-32.72349 14.11333,-21.04781 13.43025,-20.48427 25.6114,-21.1292 8.61868,-0.45631 10.18565,-0.82362 12.40089,-2.90688 2.17729,-2.04758 3.14224,-2.28759 6.82794,-1.69834 6.4927,1.03802 14.78509,6.5131 14.79307,9.76717 4.3e-4,0.17366 -4.22817,0.16138 -9.39689,-0.0273 -19.3259,-0.70539 -32.46243,3.44452 -38.26178,12.08713 -2.921,4.35309 -5.25418,12.17714 -4.00409,13.42723 0.62837,0.62837 34.70997,-10.50454 36.11199,-11.79616 C 187.99957,372.3689 184.91874,372 180.14098,372 c -9.87028,0 -9.87343,-1.11248 -0.0116,-4.10791 9.01339,-2.73773 20.9154,-2.34053 28.27518,0.94362 2.69749,1.2037 5.11802,1.97507 5.37894,1.71415 0.26092,-0.26093 -1.15345,-3.9022 -3.14305,-8.09172 -8.73401,-18.39137 -23.31351,-39.79151 -36.73572,-53.92161 C 169.96727,304.39144 167.14646,301 167.63622,301 c 0.48976,0 3.24936,1.58857 6.13244,3.53015 5.83634,3.93041 14.40905,14.26477 31.24897,37.67042 13.82564,19.21614 18.33808,27.85902 17.83668,34.16339 -0.19873,2.49868 -0.0467,4.22648 0.33775,3.83955 1.50136,-1.51089 8.99056,-21.80061 11.8029,-31.9764 7.91579,-28.64148 8.92737,-54.63699 3.02261,-77.67532 -1.12042,-4.37151 -4.56819,-13.0168 -7.66171,-19.21176 -5.01077,-10.03437 -5.56826,-11.76325 -5.10849,-15.84238 0.60024,-5.32529 3.03647,-8.49765 6.52583,-8.49765 1.35477,0 6.19881,0.76893 10.76454,1.70874 7.15497,1.47278 9.72524,1.55071 18.61282,0.56437 5.67133,-0.6294 10.4774,-0.97849 10.68014,-0.77574 1.1157,1.11569 -2.64804,8.24547 -7.43664,14.08747 -9.24435,11.27796 -10.88348,16.26295 -12.40986,37.74137 -3.12991,44.04259 -13.46865,79.37412 -43.50505,148.67379 -12.53698,28.92517 -21.70733,45.20601 -31.82422,56.5 -3.71168,4.14353 -4.59626,4.70461 -5.16409,3.27555 z M 159,342.44592 c -10.73726,-2.30453 -24.46059,-8.25161 -33.75,-14.62576 -4.13162,-2.83501 -4.25,-3.06948 -4.25,-8.41786 0,-3.02589 -0.69114,-6.83814 -1.53588,-8.47168 -1.64106,-3.17347 -7.51268,-7.87967 -12.3103,-9.8669 -2.16488,-0.89673 -2.79655,-1.71394 -2.4245,-3.13665 C 105.34741,295.56349 111.5274,290 113.5348,290 c 0.80586,0 1.46507,-0.1125 1.4649,-0.25 -1.6e-4,-0.1375 -1.59008,-4.69759 -3.53314,-10.13352 -1.94307,-5.43594 -3.37904,-10.03734 -3.19104,-10.22533 0.72507,-0.72508 20.76562,2.75387 29.14665,5.05972 6.83192,1.87965 9.20977,2.17143 10.60335,1.30112 2.27406,-1.42017 8.85938,0.35836 14.22448,3.84168 l 3.75,2.43471 v -2.64302 c 0,-2.59416 0.0926,-2.63073 5.01083,-1.97831 7.57665,1.00508 16.93892,4.17207 22.19806,7.50898 11.55709,7.33294 18.20802,25.73786 13.03956,36.08397 -3.17765,6.36093 -5.30176,5.39596 -12.52082,-5.68818 -9.75564,-14.97879 -16.95849,-20.66675 -29.60575,-23.3791 -3.90217,-0.83687 -6.43206,-0.81789 -10.15902,0.0762 -2.72957,0.65481 -4.96286,1.37968 -4.96286,1.61081 0,0.23113 3.42604,3.89875 7.61343,8.15026 C 168.82927,314.17289 186,336.68287 186,340.29432 c 0,3.73289 -14.31679,4.87377 -27,2.1516 z m 147.84904,-58.12759 c 0.73873,-14.629 -3.10338,-23.62185 -12.59363,-29.47669 -13.52277,-8.34262 -16.06226,-10.98267 -16.95311,-17.62446 -0.64458,-4.80571 1.43759,-7.21718 6.23162,-7.21718 4.8023,0 13.40247,3.44194 20.58586,8.23882 5.02675,3.35674 6.613,5.12009 8.69316,9.66377 4.84738,10.58807 3.75607,27.76931 -2.49313,39.25115 -1.45072,2.66544 -2.91239,4.84626 -3.24817,4.84626 -0.33578,0 -0.43595,-3.45675 -0.2226,-7.68167 z M 143.01478,252.35359 c 0.0696,-13.444 11.71227,-36.05836 21.05006,-40.88712 4.74158,-2.45197 6.91229,-1.79272 12.89869,3.91734 6.48479,6.18543 14.11795,10.39149 20.42817,11.2564 6.44933,0.88398 7.05545,1.47489 5.70623,5.56306 -1.19566,3.62288 -5.88969,8.66916 -10.09793,10.85571 -1.71564,0.89143 -7.36301,1.32125 -18,1.36999 -17.24915,0.079 -20.92971,1.05837 -28.30081,7.53028 L 143,255.20718 Z"
         id="path3" />
    </g>
  </g>
</svg>
