<?xml version="1.0" encoding="UTF-8" standalone="no"?>
<!-- Created with Inkscape (http://www.inkscape.org/) -->

<svg
   version="1.1"
   id="svg1"
   width="58.096001mm"
   height="64.99955mm"
   viewBox="0 0 219.57543 245.66759"
   sodipodi:docname="sirenita.svg"
   inkscape:version="1.3.2 (1:1.3.2+202311252150+091e20ef0f)"
   xmlns:inkscape="http://www.inkscape.org/namespaces/inkscape"
   xmlns:sodipodi="http://sodipodi.sourceforge.net/DTD/sodipodi-0.dtd"
   xmlns="http://www.w3.org/2000/svg"
   xmlns:svg="http://www.w3.org/2000/svg"
   xmlns:inkstitch="http://inkstitch.org/namespace">
  <sodipodi:namedview
     id="namedview1"
     pagecolor="#ff00f4"
     bordercolor="#666666"
     borderopacity="1.0"
     inkscape:showpageshadow="2"
     inkscape:pageopacity="0.0"
     inkscape:pagecheckerboard="0"
     inkscape:deskcolor="#d1d1d1"
     inkscape:zoom="2"
     inkscape:cx="146.5"
     inkscape:cy="122.5"
     inkscape:window-width="1848"
     inkscape:window-height="1016"
     inkscape:window-x="72"
     inkscape:window-y="27"
     inkscape:window-maximized="1"
     inkscape:current-layer="g2"
     inkscape:document-units="mm" />
  <metadata
     id="metadata8">
    <inkstitch:min_stitch_len_mm>0</inkstitch:min_stitch_len_mm>
    <inkstitch:collapse_len_mm>3</inkstitch:collapse_len_mm>
    <inkstitch:inkstitch_svg_version>1</inkstitch:inkstitch_svg_version>
  </metadata>
  <defs
     id="defs1" />
  <g
     inkscape:groupmode="layer"
     inkscape:label="Image"
     id="g1">
    <g
       id="g2"
       transform="matrix(0.273652,0,0,0.273652,1.85528,4.31848)">
      <path
         style="fill:#f7c6bb;stroke-width:1.04475"
         d="m 482.23612,841.85557 c 1.72384,-0.33203 4.54468,-0.33203 6.26852,0 1.72385,0.33202 0.31343,0.60368 -3.13426,0.60368 -3.44769,0 -4.85811,-0.27166 -3.13426,-0.60368 z m 25.0741,0.0605 c 0.95769,-0.38643 2.52482,-0.38643 3.48252,0 0.95768,0.38645 0.17412,0.70262 -1.74126,0.70262 -1.91538,0 -2.69895,-0.31617 -1.74126,-0.70262 z m 12.62412,-1.42202 c 1.00557,-0.4024 2.20704,-0.35291 2.66992,0.10997 0.46289,0.46289 -0.35986,0.79212 -1.82832,0.73164 -1.62277,-0.0669 -1.95285,-0.39692 -0.8416,-0.84161 z m 64.33944,-24.5584 c 0,-0.23974 2.03727,-2.27701 4.52726,-4.52728 l 4.52727,-4.09138 -4.09138,4.52727 c -3.81374,4.22005 -4.96315,5.16757 -4.96315,4.09139 z m 47.7296,-6.13574 c 2.11745,-0.32019 5.25171,-0.31163 6.96502,0.019 1.71331,0.33064 -0.0191,0.59261 -3.84992,0.58215 -3.83076,-0.0104 -5.23256,-0.28098 -3.1151,-0.60117 z m -37.1925,-6.37376 c 0.52312,-1.37381 1.30203,-2.14693 1.73092,-1.71804 0.42889,0.42888 8.8e-4,1.55291 -0.95113,2.49784 -1.37575,1.36552 -1.53575,1.20551 -0.77979,-0.7798 z m -215.4866,-4.81541 c -1.73272,-2.20938 -1.68345,-2.25865 0.52594,-0.52594 1.34076,1.0515 2.43775,2.1485 2.43775,2.43777 0,1.14649 -1.14391,0.40857 -2.96369,-1.91183 z m 144.72695,-2.75082 c 2.50373,-0.31002 6.26484,-0.30362 8.35804,0.0142 2.09319,0.31785 0.0447,0.57151 -4.55222,0.56369 -4.59691,-0.007 -6.30953,-0.26788 -3.80582,-0.57791 z m 22.35021,-1.33503 c 1.00558,-0.40239 2.20704,-0.3529 2.66992,0.10997 0.46289,0.46289 -0.35985,0.79213 -1.82832,0.73165 -1.62276,-0.0669 -1.95284,-0.39693 -0.8416,-0.84162 z m -75.78997,-18.89874 -2.65365,-3.13427 3.13426,2.65366 c 2.94543,2.49379 3.76842,3.61487 2.65365,3.61487 -0.26433,0 -1.67475,-1.41042 -3.13426,-3.13426 z m -119.14731,-4.87553 c -1.73271,-2.20938 -1.68344,-2.25865 0.52594,-0.52592 2.3204,1.81977 3.05832,2.96369 1.91183,2.96369 -0.28927,0 -1.38626,-1.09699 -2.43777,-2.43777 z m 99.30104,-39.3524 c 0,-1.91539 0.31617,-2.69895 0.7026,-1.74126 0.38645,0.9577 0.38645,2.52483 0,3.48251 -0.38643,0.9577 -0.7026,0.17413 -0.7026,-1.74125 z m 205.68368,-0.95158 c 1.00557,-0.4024 2.20704,-0.35291 2.66992,0.10997 0.46289,0.46289 -0.35986,0.79212 -1.82832,0.73163 -1.62276,-0.0669 -1.95284,-0.39692 -0.8416,-0.8416 z m -450.05893,-1.44682 c 2.47291,-0.30773 6.86088,-0.31277 9.75105,-0.0113 2.89015,0.30155 0.86686,0.55333 -4.49621,0.55951 -5.36306,0.006 -7.72774,-0.24055 -5.25484,-0.54828 z m 459.7229,0.0829 c 0.9577,-0.38643 2.52483,-0.38643 3.48252,0 0.95769,0.38645 0.17412,0.70262 -1.74125,0.70262 -1.91539,0 -2.69896,-0.31617 -1.74127,-0.70262 z m 20.89509,-1.47814 c 2.48999,-0.309 6.56453,-0.309 9.05454,0 2.48999,0.30901 0.45272,0.56183 -4.52728,0.56183 -4.97998,0 -7.01726,-0.25282 -4.52726,-0.56183 z m 18.12531,0.0225 c 1.73278,-0.33321 4.24019,-0.32056 5.57202,0.0281 1.33183,0.34867 -0.0859,0.62127 -3.15051,0.60582 -3.06461,-0.0155 -4.15428,-0.30073 -2.42151,-0.63392 z m -73.27733,-4.58681 c 0,-1.91539 0.31617,-2.69895 0.70261,-1.74126 0.38643,0.9577 0.38643,2.52483 0,3.48251 -0.38644,0.9577 -0.70261,0.17413 -0.70261,-1.74125 z m -85.08332,-2.20559 c 0.0669,-1.62278 0.39692,-1.95285 0.84161,-0.84161 0.4024,1.00557 0.35291,2.20704 -0.10998,2.66993 -0.46288,0.46288 -0.79211,-0.35987 -0.73163,-1.82832 z m -418.84048,-24.60978 -2.65366,-3.13426 3.13427,2.65365 c 2.94543,2.49379 3.7684,3.61487 2.65365,3.61487 -0.26433,0 -1.67475,-1.41042 -3.13426,-3.13426 z M 268.3847,684.0361 c 0,-2.68153 0.28667,-3.77852 0.63705,-2.43776 0.35038,1.34077 0.35038,3.53475 0,4.87552 -0.35038,1.34077 -0.63705,0.24378 -0.63705,-2.43776 z m -152.98963,-0.34825 -2.65366,-3.13426 3.13427,2.65365 c 2.94543,2.49379 3.76841,3.61487 2.65365,3.61487 -0.26433,0 -1.67475,-1.41042 -3.13426,-3.13426 z m 83.58032,-1.393 -2.65365,-3.13427 3.13425,2.65366 c 2.94544,2.49379 3.76842,3.61487 2.65367,3.61487 -0.26434,0 -1.67475,-1.41042 -3.13427,-3.13426 z m 434.16356,0.92867 c 0.0669,-1.62278 0.39692,-1.95286 0.8416,-0.84161 0.4024,1.00557 0.35291,2.20704 -0.10997,2.66993 -0.46289,0.46288 -0.79212,-0.35987 -0.73163,-1.82832 z m -325.9633,-6.96503 c 0.0669,-1.62278 0.39693,-1.95286 0.84161,-0.84162 0.40239,1.00558 0.3529,2.20705 -0.10998,2.66994 -0.46288,0.46288 -0.79212,-0.35987 -0.73163,-1.82832 z m -84.70855,-1.54576 c 1.35535,-0.35319 3.23591,-0.32996 4.17902,0.0516 0.94311,0.38158 -0.16582,0.67055 -2.46428,0.64216 -2.29846,-0.0284 -3.07009,-0.34059 -1.71474,-0.69377 z m 409.27884,-1.24026 c 0.0669,-1.62277 0.39692,-1.95285 0.84161,-0.8416 0.4024,1.00558 0.35291,2.20704 -0.10997,2.66992 -0.46289,0.46289 -0.79212,-0.35985 -0.73164,-1.82832 z m -532.343508,-8.5902 -3.377082,-3.83077 3.830764,3.37709 c 3.580426,3.15639 4.469586,4.28445 3.377086,4.28445 -0.24953,0 -1.97337,-1.72384 -3.830768,-3.83077 z m 530.950508,0.23217 c 0.0669,-1.62278 0.39692,-1.95286 0.84161,-0.8416 0.40239,1.00557 0.3529,2.20704 -0.10998,2.66992 -0.46288,0.46289 -0.79212,-0.35986 -0.73163,-1.82832 z m -324.35709,-3.36651 c 0,-2.68154 0.28668,-3.77853 0.63705,-2.43776 0.35038,1.34077 0.35038,3.53475 0,4.87552 -0.35037,1.34077 -0.63705,0.24378 -0.63705,-2.43776 z m -47.86306,-2.43776 c -1.73271,-2.20938 -1.68344,-2.25865 0.52594,-0.52593 1.34077,1.0515 2.43776,2.14849 2.43776,2.43775 0,1.14649 -1.14391,0.40857 -2.9637,-1.91182 z m 319.17596,0.51882 c 0,-0.28926 1.09699,-1.38625 2.43776,-2.43776 2.20939,-1.73272 2.25866,-1.68345 0.52593,0.52593 -1.81977,2.3204 -2.96369,3.05832 -2.96369,1.91183 z m -326.14098,-7.48385 c -1.73272,-2.20938 -1.68345,-2.25865 0.52593,-0.52594 2.3204,1.81979 3.05832,2.9637 1.91183,2.9637 -0.28926,0 -1.38626,-1.09699 -2.43776,-2.43776 z m -36.04047,-2.26719 c 0,-0.28927 1.097,-1.38626 2.43777,-2.43776 2.20938,-1.73272 2.25866,-1.68345 0.52593,0.52594 -1.81977,2.3204 -2.9637,3.05832 -2.9637,1.91182 z m 252.35396,-3.65308 c 0,-1.91538 0.31618,-2.69895 0.70261,-1.74125 0.38645,0.95768 0.38645,2.52481 0,3.48251 -0.38643,0.95769 -0.70261,0.17413 -0.70261,-1.74126 z m 123.75754,-0.52593 c 0,-0.28927 1.09699,-1.38627 2.43777,-2.43777 2.20938,-1.73271 2.25865,-1.68344 0.52593,0.52594 -1.81978,2.3204 -2.9637,3.05832 -2.9637,1.91183 z m -363.22619,-1.82731 c 1.34077,-0.35038 3.53475,-0.35038 4.87552,0 1.34077,0.35038 0.24378,0.63705 -2.43776,0.63705 -2.68154,0 -3.77853,-0.28667 -2.43776,-0.63705 z m 78.03946,-7.3978 c 0,-3.44769 0.27166,-4.85811 0.60369,-3.13426 0.33203,1.72384 0.33203,4.54468 0,6.26852 -0.33203,1.72385 -0.60369,0.31343 -0.60369,-3.13426 z m 161.53243,-2.78601 c 0,-2.68153 0.28667,-3.77852 0.63704,-2.43776 0.35038,1.34076 0.35038,3.53475 0,4.87552 -0.35037,1.34077 -0.63704,0.24378 -0.63704,-2.43776 z m 141.39191,-1.56586 c 0.94493,-0.952 2.06895,-1.38002 2.49784,-0.95112 0.42889,0.42889 -0.34423,1.20779 -1.71805,1.73091 -1.9853,0.75597 -2.14531,0.59596 -0.77979,-0.77979 z m 14.41149,-0.63973 c 0.0669,-1.62278 0.39693,-1.95286 0.84162,-0.84161 0.40239,1.00558 0.3529,2.20705 -0.10997,2.66992 -0.46289,0.46289 -0.79213,-0.35985 -0.73165,-1.82831 z m -416.61863,-8.07139 c 0,-0.28926 1.09699,-1.38625 2.43777,-2.43776 2.20938,-1.73271 2.25865,-1.68344 0.52594,0.52594 -1.81979,2.32039 -2.96371,3.05831 -2.96371,1.91182 z m 170.64318,-26.046 c -6.89538,-1.49186 -12.7473,-3.33617 -13.00427,-4.0985 -0.25698,-0.76233 -0.99358,-1.06075 -1.63687,-0.66317 -1.51894,0.93875 -8.34345,-2.16728 -8.34345,-3.79734 0,-0.68838 -0.54854,-0.9126 -1.21898,-0.49824 -0.67044,0.41435 -3.64799,-1.01127 -6.61677,-3.16806 -5.30069,-3.85088 -9.95784,-8.56494 -8.46153,-8.56494 0.41796,0 -1.12017,-1.88008 -3.41806,-4.17797 l -4.17797,-4.17797 0.35329,-15.3091 c 0.19431,-8.41999 -0.0714,-15.73374 -0.5904,-16.25278 -1.47183,-1.47183 -1.10823,-4.65836 0.53154,-4.65836 0.81137,0 1.02196,0.73338 0.46799,1.62973 -0.65634,1.06197 -0.27545,1.34892 1.09331,0.82368 1.58872,-0.60965 1.95,-0.0185 1.4827,2.42598 -0.91537,4.78846 3.47312,6.4307 19.55224,7.31671 15.11853,0.83307 14.77742,1.02797 11.5933,-6.62408 -0.75233,-1.80797 2.22259,-2.08951 22.07899,-2.08951 21.88669,0 22.96694,0.1289 23.34777,2.78602 0.23917,1.66867 1.65631,2.96453 3.53357,3.23114 1.72384,0.24483 3.13382,0.87168 3.13329,1.39301 -5.3e-4,0.52132 5.171,0.59258 11.49229,0.15833 6.3213,-0.43424 11.96341,-0.55396 12.53803,-0.26603 2.66641,1.33605 -0.33621,24.96688 -3.49777,27.52771 -0.9493,0.76893 -1.92933,2.33606 -2.17784,3.48252 -0.56489,2.606 -13.37858,15.31802 -15.44054,15.31802 -0.8361,0 -1.52019,0.73133 -1.52019,1.62517 0,0.89385 -0.38805,1.23713 -0.86234,0.76284 -0.47428,-0.47429 -1.80881,0.0841 -2.96563,1.24095 -1.1568,1.15681 -2.96273,1.77349 -4.01318,1.37039 -1.05044,-0.4031 -1.90989,-0.14988 -1.90989,0.5627 0,1.25768 -6.09284,3.20794 -14.62656,4.68182 -2.29846,0.39698 -9.82069,-0.49883 -16.71607,-1.99067 z M 67.946273,577.47109 c 0.005,-6.12922 0.249961,-8.46334 0.544228,-5.18694 0.294265,3.2764 0.290125,8.29122 -0.0092,11.14403 -0.299325,2.85283 -0.540088,0.17214 -0.535028,-5.95709 z m 399.425007,-4.2951 c 0.0669,-1.62277 0.39693,-1.95285 0.84161,-0.8416 0.4024,1.00557 0.35291,2.20704 -0.10997,2.66992 -0.46289,0.46289 -0.79212,-0.35985 -0.73164,-1.82832 z m 108.91923,-2.93876 c 1.35535,-0.35319 3.23591,-0.32996 4.17902,0.0516 0.94311,0.38158 -0.16582,0.67055 -2.46427,0.64216 -2.29846,-0.0284 -3.0701,-0.34059 -1.71475,-0.69377 z m 8.35803,0 c 1.35535,-0.35319 3.23591,-0.32996 4.17902,0.0516 0.94311,0.38158 -0.16581,0.67055 -2.46427,0.64216 -2.29846,-0.0284 -3.0701,-0.34059 -1.71475,-0.69377 z m -395.29183,-4.43167 c -6.87194,-1.81202 -13.40811,-5.73065 -12.36736,-7.4146 0.57538,-0.93101 0.32427,-1.15769 -0.62951,-0.56823 -2.52303,1.55933 -7.19066,-7.49643 -7.19651,-13.96211 -0.004,-4.34988 0.75814,-6.31636 3.12906,-8.0743 1.72385,-1.27815 2.3507,-1.94448 1.39301,-1.4807 -0.9577,0.46378 -1.74127,0.46082 -1.74127,-0.006 0,-0.46738 2.3507,-1.85097 5.22378,-3.07463 4.1837,-1.78187 11.1868,-2.26494 35.17339,-2.42623 28.61435,-0.19241 30.47751,-0.3726 41.79017,-4.04147 6.5123,-2.11203 12.62411,-3.91355 13.5818,-4.00337 0.95769,-0.0898 1.74125,-0.54314 1.74125,-1.00738 0,-0.46424 2.3507,-2.0776 5.22377,-3.58526 2.87308,-1.50766 5.5372,-3.09108 5.92028,-3.5187 0.38308,-0.42763 4.92042,-4.67277 10.08299,-9.43365 5.16256,-4.76088 9.35862,-8.98756 9.32457,-9.39264 -0.13053,-1.55293 8.06946,-11.69604 8.93438,-11.05151 0.50114,0.37346 0.61627,0.27963 0.25583,-0.2085 -0.88195,-1.1944 4.34506,-8.77978 8.85284,-12.84718 2.00368,-1.80792 2.70277,-2.85434 1.55354,-2.32537 -1.14923,0.52897 -0.3307,-0.65595 1.81894,-2.63314 2.14965,-1.97719 3.40335,-3.61574 2.78602,-3.64124 -0.61735,-0.0255 0.26132,-1.20137 1.95259,-2.61307 1.69126,-1.41172 2.75524,-2.88652 2.36439,-3.27736 -0.39084,-0.39085 0.97406,-2.0358 3.03311,-3.65545 2.05906,-1.61965 3.22849,-2.94482 2.59875,-2.94482 -0.62974,0 0.63535,-1.85827 2.81132,-4.12948 2.17597,-2.27122 4.58408,-3.7415 5.35137,-3.26729 0.76729,0.47422 0.97431,0.18138 0.46004,-0.65072 -0.51428,-0.83211 0.48586,-2.51826 2.22252,-3.74699 3.57007,-2.52593 20.15037,-7.87336 24.18592,-7.80038 31.0496,0.56156 45.61196,1.6586 49.63551,3.73926 4.0152,2.07635 26.04915,22.82063 24.23937,22.82063 -0.40828,0 0.8011,1.66538 2.6875,3.70084 1.88641,2.03548 3.11418,4.01652 2.72836,4.40233 -0.38581,0.38581 0.54824,1.57681 2.07567,2.64666 1.52744,1.06986 2.77716,2.49781 2.77716,3.17323 0,0.67543 1.85113,3.25478 4.11361,5.73188 2.26249,2.47711 3.86808,4.90113 3.56798,5.38671 -0.30011,0.48557 2.53653,3.59427 6.30363,6.9082 3.76712,3.31394 6.5029,6.58582 6.07953,7.27084 -0.42336,0.68502 0.0604,1.07326 1.07503,0.86274 1.01465,-0.21053 1.67256,0.44738 1.46204,1.46203 -0.21051,1.01463 0.16236,1.50789 0.82862,1.09612 0.66626,-0.41178 3.65935,1.54885 6.65129,4.35693 2.99195,2.80808 5.93291,5.13566 6.53547,5.1724 0.60256,0.0368 1.61292,0.9039 2.24525,1.92703 0.63233,1.02313 1.39304,1.76623 1.69045,1.65134 1.63938,-0.63329 5.26234,1.87907 4.49654,3.11815 -0.49705,0.80425 -0.29686,1.0872 0.44487,0.62879 0.74172,-0.45841 5.69669,1.23271 11.01102,3.75806 5.31434,2.52535 13.11012,5.67303 17.32396,6.99487 4.21385,1.32183 8.60181,2.74334 9.75104,3.1589 1.14923,0.41556 3.65664,0.90428 5.57202,1.08605 15.05869,1.42903 32.03912,4.11089 32.03912,5.06018 0,0.63393 0.95155,0.78746 2.11453,0.34119 2.48767,-0.95462 10.42252,2.042 10.42252,3.93608 0,0.71841 0.5762,0.95011 1.28043,0.51486 1.99343,-1.232 10.95094,7.97847 12.0611,12.40169 0.65187,2.59726 0.49878,3.65725 -0.44404,3.07456 -0.79778,-0.49306 -1.35379,0.1902 -1.24791,1.53349 0.10504,1.33252 -0.59259,2.26605 -1.55028,2.07452 -0.9577,-0.19155 -1.58455,0.12188 -1.393,0.69649 0.19153,0.57462 -0.20853,1.14794 -0.88902,1.27404 -0.6805,0.1261 -1.75869,1.06638 -2.396,2.08951 -1.95597,3.1401 -20.99368,1.89659 -35.34213,-2.30849 -6.87956,-2.01618 -12.83466,-4.09701 -13.23355,-4.62405 -0.3989,-0.52705 -1.35211,-0.96751 -2.11827,-0.97879 -3.98892,-0.0587 -15.93542,-5.25719 -15.11863,-6.57878 0.52615,-0.85134 0.27099,-1.09002 -0.59388,-0.5555 -1.97211,1.21883 -13.06072,-3.20829 -12.06622,-4.81743 0.4179,-0.67618 -0.0648,-0.91297 -1.07271,-0.5262 -1.715,0.6581 -25.20683,-11.81984 -28.26179,-15.01154 -0.95391,-0.99662 -0.7763,-1.10356 0.56348,-0.33927 1.32167,0.75396 1.62943,0.58689 0.9485,-0.51487 -0.55439,-0.89702 -1.61027,-1.25873 -2.34639,-0.80378 -1.51873,0.93863 -13.53133,-5.70818 -16.33321,-9.03749 -1.46492,-1.74068 -1.62491,-1.76174 -0.77736,-0.10228 0.94222,1.84479 0.75038,1.85017 -1.63795,0.046 -1.48784,-1.12397 -2.90532,-2.15994 -3.14996,-2.30214 -0.24464,-0.14221 0.30661,-2.76653 1.22499,-5.83183 2.1483,-7.17036 0.77891,-14.25548 -3.68651,-19.07374 -2.94688,-3.17973 -4.34508,-3.68937 -8.34229,-3.04071 -4.07374,0.66107 -5.48633,0.10553 -9.31376,-3.66294 -4.78368,-4.70999 -11.29174,-5.93244 -14.65812,-2.75335 -1.25855,1.18851 -2.83303,1.29169 -5.31446,0.34825 -5.41661,-2.05939 -8.08546,-1.6409 -13.65973,2.1419 -4.52895,3.07342 -6.59724,3.48251 -17.60696,3.48251 -6.86136,0 -12.47519,-0.5672 -12.47519,-1.26045 0,-0.69325 -2.50741,-0.92414 -5.57202,-0.51309 -3.79936,0.50961 -5.57203,0.2197 -5.57203,-0.91127 0,-0.91224 0.72371,-1.21135 1.60824,-0.66468 1.02768,0.63515 1.22876,0.37994 0.55701,-0.70697 -0.57816,-0.93551 -1.38422,-1.36791 -1.79122,-0.96092 -0.407,0.40701 -2.05084,-0.17814 -3.65298,-1.30032 -3.76065,-2.63406 -11.21941,-2.62299 -13.41282,0.0198 -1.24213,1.49667 -2.40688,1.6872 -4.25801,0.69651 -4.81334,-2.57603 -10.71033,-1.58852 -13.77426,2.30664 -1.58791,2.0187 -2.93659,4.68283 -2.99708,5.92026 -0.061,1.24728 -0.40538,1.52705 -0.77287,0.6278 -0.45357,-1.1099 -1.96655,-1.24823 -4.79132,-0.43811 -2.27062,0.65122 -4.38351,1.06774 -4.6953,0.92562 -0.31178,-0.14213 -2.67057,1.62215 -5.24175,3.92061 -4.01312,3.58746 -4.66866,5.06634 -4.63111,10.44754 0.0255,3.65835 0.85255,6.90202 1.98614,7.78992 1.6075,1.25908 1.38824,1.90953 -1.27177,3.77267 -1.7678,1.23821 -3.73886,1.927 -4.38015,1.53067 -0.64131,-0.39635 -1.16599,-0.1242 -1.16599,0.60475 0,1.77813 -13.84343,12.17501 -15.56499,11.68983 -0.74699,-0.21052 -1.05464,0.10836 -0.68366,0.70862 0.37099,0.60027 -2.47088,3.17278 -6.31526,5.7167 -3.8444,2.54392 -6.51655,3.79217 -5.93813,2.77389 0.5784,-1.01828 -0.33161,-0.4271 -2.02226,1.31373 -1.69066,1.74084 -3.76026,2.74098 -4.59911,2.22253 -0.85451,-0.5281 -1.13206,-0.3065 -0.63117,0.50395 0.81847,1.32432 -6.65106,5.483 -7.8166,4.35191 -0.27913,-0.27087 -1.60449,0.6045 -2.94526,1.94526 -2.33746,2.33746 -4.94666,3.06541 -8.99533,2.50965 -1.03457,-0.14203 -1.49925,0.35955 -1.0326,1.1146 0.74361,1.20318 -5.9583,3.58017 -8.39971,2.97914 -0.50172,-0.12351 -1.30865,0.41691 -1.79321,1.20093 -1.44175,2.3328 -24.84346,8.52837 -34.78387,9.20898 -5.07253,0.34731 -11.10334,0.1356 -13.4018,-0.47046 z m 254.49508,-2.26452 c 0.0284,-2.29846 0.34058,-3.0701 0.69377,-1.71475 0.35318,1.35535 0.32996,3.23591 -0.0516,4.17902 -0.38157,0.94311 -0.67055,-0.16581 -0.64215,-2.46427 z m 157.25784,-0.16468 c 1.84951,-2.38903 3.64291,-4.09388 3.98536,-3.78855 0.34245,0.30532 -1.17078,2.25998 -3.36273,4.34369 l -3.98536,3.78855 z m -148.03956,-1.48341 c 1.00558,-0.4024 2.20704,-0.35291 2.66992,0.10998 0.46289,0.46288 -0.35985,0.79211 -1.82832,0.73163 -1.62276,-0.0669 -1.95285,-0.39692 -0.8416,-0.84161 z M 68.971716,557.85294 c 0.06684,-1.62278 0.396923,-1.95286 0.841607,-0.84162 0.402398,1.00558 0.35291,2.20705 -0.109974,2.66994 -0.462885,0.46287 -0.792119,-0.35987 -0.731633,-1.82832 z M 605.38881,553.0935 c 0,-1.91538 0.31618,-2.69895 0.70261,-1.74126 0.38644,0.95769 0.38644,2.52482 0,3.48252 -0.38643,0.95768 -0.70261,0.17411 -0.70261,-1.74126 z m -6.62083,-12.8853 -2.65366,-3.13426 3.13427,2.65365 c 2.94543,2.49379 3.76841,3.61487 2.65365,3.61487 -0.26432,0 -1.67474,-1.41042 -3.13426,-3.13426 z m -157.93111,-1.74126 c 0,-1.53231 0.60766,-3.7263 1.35034,-4.87553 1.11818,-1.73024 1.35035,-1.61049 1.35035,0.69651 0,1.53231 -0.60765,3.72629 -1.35035,4.87552 -1.11818,1.73025 -1.35034,1.6105 -1.35034,-0.6965 z m 12.2332,1.13792 c 1.00558,-0.4024 2.20704,-0.35291 2.66992,0.10997 0.46289,0.46289 -0.35985,0.79213 -1.82832,0.73164 -1.62276,-0.0669 -1.95285,-0.39692 -0.8416,-0.84161 z m 22.28809,-5.57202 c 1.00557,-0.40239 2.20704,-0.3529 2.66993,0.10997 0.46288,0.46289 -0.35987,0.79213 -1.82832,0.73164 -1.62278,-0.0669 -1.95286,-0.39693 -0.84161,-0.84161 z m 93.24431,-5.543 c 0.95769,-0.38644 2.52482,-0.38644 3.48251,0 0.95769,0.38644 0.17413,0.70262 -1.74125,0.70262 -1.91539,0 -2.69896,-0.31618 -1.74126,-0.70262 z m -15.236,-1.42203 c 1.00558,-0.4024 2.20705,-0.35291 2.66992,0.10997 0.46289,0.46289 -0.35985,0.79213 -1.82832,0.73164 -1.62277,-0.0669 -1.95285,-0.39692 -0.8416,-0.84161 z m -8.09684,-33.17705 c 2.59904,-2.68153 5.03896,-4.87552 5.42203,-4.87552 0.38308,0 -1.42999,2.19399 -4.02903,4.87552 -2.59905,2.68153 -5.03896,4.87552 -5.42204,4.87552 -0.38308,0 1.42998,-2.19399 4.02904,-4.87552 z m 12.93546,-6.96503 c 0.0104,-3.83076 0.28099,-5.23256 0.60118,-3.11511 0.32018,2.11746 0.31163,5.25172 -0.019,6.96503 -0.33064,1.71331 -0.59261,-0.0191 -0.58216,-3.84992 z M 107.8659,474.55925 c 0,-0.28927 1.09699,-1.38626 2.43775,-2.43777 2.20939,-1.73271 2.25866,-1.68344 0.52594,0.52594 -1.81978,2.3204 -2.96369,3.05832 -2.96369,1.91183 z m 472.92536,-5.04609 c 1.38672,-1.53231 2.83473,-2.78601 3.21781,-2.78601 0.38308,0 -0.43809,1.2537 -1.8248,2.78601 -1.38672,1.53231 -2.83473,2.78602 -3.21781,2.78602 -0.38308,0 0.43809,-1.25371 1.8248,-2.78602 z M 81.398791,464.55543 c 0,-1.19445 0.637077,-1.77799 1.415729,-1.29675 0.77865,0.48123 1.055081,1.45851 0.614291,2.17172 -1.19414,1.93216 -2.03002,1.57188 -2.03002,-0.87497 z m 510.536519,-6.18632 c 1.38672,-1.5323 2.83473,-2.786 3.21781,-2.786 0.38307,0 -0.43809,1.2537 -1.82481,2.786 -1.38671,1.53231 -2.83473,2.78602 -3.2178,2.78602 -0.38308,0 0.43808,-1.25371 1.8248,-2.78602 z M 99.507863,432.85913 c 0,-0.23973 2.037267,-2.277 4.527267,-4.52726 l 4.52727,-4.09139 -4.09138,4.52727 c -3.81375,4.22004 -4.963157,5.16756 -4.963157,4.09138 z M 387.85999,422.69504 c -26.29622,-2.9703 -53.33736,-8.51582 -52.00861,-10.66578 0.47934,-0.77559 -0.40574,-0.93294 -2.14415,-0.3812 -1.63508,0.51896 -2.96046,0.33234 -2.96046,-0.41685 0,-0.74605 -1.2537,-1.02861 -2.78601,-0.6279 -1.61931,0.42346 -2.78602,0.0427 -2.78602,-0.90913 0,-0.90073 -0.54949,-1.29808 -1.2211,-0.883 -3.54638,2.19179 -26.04269,-7.82065 -24.32409,-10.82592 0.50477,-0.8827 0.40911,-1.1445 -0.21259,-0.58179 -0.62169,0.56271 -2.02238,-0.0641 -3.11264,-1.39301 -1.18111,-1.43959 -1.55096,-1.57158 -0.91509,-0.3266 0.9164,1.79427 0.73634,1.82118 -1.27437,0.19042 -1.28786,-1.04451 -1.93454,-2.61164 -1.43707,-3.48251 0.49747,-0.87089 0.40815,-1.13534 -0.19849,-0.58769 -1.69265,1.52807 -6.52503,-1.59097 -5.42789,-3.50338 0.52737,-0.91926 0.43909,-1.19986 -0.19618,-0.62357 -1.43451,1.3013 -6.25666,-2.89352 -6.25666,-5.44271 0,-1.0305 -0.66385,-1.87361 -1.47521,-1.87361 -0.81138,0 -1.02795,-0.72371 -0.48128,-1.60825 0.58842,-0.95207 0.38485,-1.23178 -0.49895,-0.68557 -1.54216,0.9531 -14.68502,-16.54428 -14.71075,-19.58475 -0.007,-0.92399 -0.42912,-1.42355 -0.93623,-1.11014 -0.9567,0.59127 -10.77616,-17.90696 -11.45934,-21.58748 -0.21333,-1.14922 -0.91921,-2.47776 -1.56864,-2.95229 -0.64943,-0.47453 -1.27629,-2.51136 -1.39302,-4.52629 -0.11672,-2.01492 -0.75546,-3.66394 -1.41943,-3.66448 -0.66397,-5.3e-4 -0.87937,-1.25469 -0.47867,-2.78699 0.40071,-1.53231 0.25288,-2.78601 -0.32853,-2.78601 -1.30548,0 -2.50443,-15.34044 -3.74599,-47.9293 -0.67771,-17.78887 -0.51701,-24.67691 0.56019,-24.01116 1.05729,0.65343 1.27789,-1.99773 0.7352,-8.83567 -0.50132,-6.3168 -0.26466,-9.76924 0.66968,-9.76924 0.79476,0 1.1196,-1.24433 0.7219,-2.76519 -0.39772,-1.52086 -0.23951,-3.87156 0.35155,-5.22377 0.59107,-1.35222 0.95755,-2.98154 0.8144,-3.62073 -0.48772,-2.17765 4.3596,-17.64343 5.52984,-17.64343 0.64116,0 0.76545,-1.0431 0.27623,-2.31801 -0.59406,-1.54807 -0.35349,-1.98674 0.72426,-1.32067 1.05121,0.64969 1.32717,0.2505 0.79162,-1.14512 -0.90105,-2.3481 5.52039,-5.61286 8.66582,-4.40583 0.96761,0.3713 1.9565,0.13936 2.19754,-0.51544 0.60927,-1.65512 9.80829,-2.26931 12.16583,-0.81228 1.34548,0.83155 1.62001,0.6848 0.89958,-0.48089 -0.79313,-1.28329 1.53035,-1.45394 9.88405,-0.72597 6.0065,0.52345 11.93549,1.47291 13.17552,2.10994 1.24003,0.63702 2.57792,0.8349 2.97308,0.43974 0.39517,-0.39516 11.739,1.52891 25.20851,4.27571 42.66398,8.70035 66.37855,9.32941 86.40146,2.29192 4.20683,-1.47859 8.00442,-2.3327 8.43907,-1.89805 0.43466,0.43465 0.79028,0.16452 0.79028,-0.6003 0,-0.76481 2.97755,-3.33476 6.61677,-5.711 3.63924,-2.37623 9.92134,-7.79708 13.96022,-12.0463 4.03889,-4.24923 7.80001,-7.71929 8.35803,-7.71124 0.83547,0.012 3.45824,10.48696 4.86494,19.42976 0.18078,1.14923 1.14829,2.95389 2.15004,4.01037 1.00176,1.05648 1.49157,2.78032 1.08848,3.83077 -0.4031,1.05044 -0.0887,1.90989 0.6986,1.90989 0.78732,0 1.07717,0.57331 0.64411,1.27403 -0.43307,0.70071 -0.28864,1.48428 0.32096,1.74126 1.01591,0.42825 10.05304,14.48427 10.05304,15.63612 0,0.27528 2.18538,2.88636 4.85637,5.80241 2.67101,2.91606 4.60208,5.55622 4.29127,5.86704 -0.31082,0.31081 1.42165,2.44505 3.84991,4.74274 2.42827,2.2977 3.58472,3.74499 2.5699,3.2162 -1.01482,-0.52881 2.11944,3.02226 6.96504,7.89123 4.84558,4.86899 9.25978,8.67165 9.80933,8.45039 0.54956,-0.22127 1.79734,0.87573 2.77285,2.43776 0.97551,1.56203 2.40642,2.84939 3.17982,2.86079 0.77339,0.0114 3.91358,2.2508 6.9782,4.97645 3.06461,2.72566 4.69159,4.50004 3.61553,3.94307 -1.3294,-0.68809 -1.61955,-0.4675 -0.90526,0.68823 0.57817,0.93551 1.3843,1.36785 1.79139,0.96075 1.2351,-1.23511 6.08553,1.9879 5.18485,3.44523 -0.46149,0.7467 -0.32233,1.18757 0.30924,0.97971 1.97946,-0.65148 11.61494,7.50905 10.67052,9.03714 -0.49398,0.7993 -0.24547,1.04988 0.55225,0.55686 1.80117,-1.1132 5.09978,2.63179 3.95277,4.48768 -0.46153,0.74677 -0.10521,1.81136 0.79181,2.36575 1.08731,0.672 1.25532,0.40017 0.504,-0.81547 -0.79236,-1.28207 -0.58681,-1.48964 0.6923,-0.69911 1.44202,0.89122 1.34221,1.4732 -0.48127,2.80657 -1.2653,0.9252 -2.30054,3.3892 -2.30054,5.47554 0,8.5348 -12.03734,50.68323 -15.26909,53.46429 -1.17891,1.01451 -1.35991,1.44766 -0.40222,0.96255 3.10268,-1.57164 1.84977,0.72975 -2.78601,5.11742 -2.49,2.35673 -3.58699,3.76819 -2.43776,3.13658 1.83714,-1.00966 1.84647,-0.82163 0.0772,1.55679 -4.84876,6.51842 -13.19154,14.35339 -14.4533,13.57357 -0.77409,-0.47841 -0.93943,-0.14254 -0.37746,0.76675 0.5788,0.93654 -0.0639,2.01534 -1.52603,2.56126 -1.38932,0.51875 -3.23673,1.92474 -4.10534,3.12442 -2.12042,2.92862 -15.26277,12.30057 -13.69741,9.76776 0.67697,-1.09537 -0.96785,0.19725 -3.65516,2.87248 -4.51158,4.49129 -28.54733,18.76206 -33.27268,19.75501 -1.13099,0.23767 -2.93566,1.25173 -4.01038,2.25349 -1.07472,1.00175 -2.84605,1.47907 -3.93628,1.0607 -1.09805,-0.42136 -1.60262,-0.14641 -1.13119,0.6164 0.4681,0.75737 0.34394,1.37957 -0.27589,1.38265 -0.61984,0.003 -6.76864,0.90348 -13.66402,2.00088 -14.31654,2.27849 -32.5398,3.52546 -39.70066,2.7166 z m 19.15384,-37.93094 c -0.19155,-0.6428 1.68901,-2.89252 4.17901,-4.99936 4.32359,-3.65828 6.37082,-10.54798 3.13427,-10.54798 -0.76616,0 -1.39302,0.50704 -1.39302,1.12676 0,0.61972 -0.98676,2.34357 -2.1928,3.83076 -1.20605,1.48721 -1.73605,1.82359 -1.17778,0.74753 0.67312,-1.29745 0.46564,-1.61695 -0.61593,-0.9485 -0.89702,0.55438 -1.28975,1.56006 -0.87271,2.23484 0.41703,0.67477 -0.49323,1.89663 -2.02281,2.71523 -3.05682,1.63596 -11.04589,1.46449 -12.11165,-0.25995 -0.37005,-0.59875 -1.22371,-1.08864 -1.89703,-1.08864 -1.73764,0 -1.14568,5.06197 0.62284,5.32601 2.32365,0.34692 13.96321,2.66521 14.34761,2.85767 0.19153,0.0959 0.19153,-0.35157 0,-0.99437 z m -6.43875,-36.10975 c -2.67774,-5.00342 -7.4216,-7.99394 -12.85366,-8.10294 -2.98032,-0.0599 -5.13848,0.17153 -4.79593,0.51408 0.34255,0.34256 -0.28761,1.53325 -1.40035,2.646 -1.95354,1.95353 -2.81043,6.00319 -1.27027,6.00319 0.4141,0 2.52707,-1.31169 4.69549,-2.91488 3.71307,-2.74518 4.19121,-2.78632 8.2133,-0.70641 2.34889,1.21466 4.66087,2.83978 5.13775,3.61138 1.57278,2.5448 3.6774,1.57246 2.27367,-1.05042 z M 278.6357,321.0139 c 1.07957,0.41428 1.96287,0.29957 1.96287,-0.2549 0,-1.05061 15.94338,-7.6237 17.56674,-7.24235 0.51005,0.11981 1.407,-0.55825 1.99324,-1.50682 0.61633,-0.99725 5.16661,-1.97796 10.78852,-2.32522 8.77887,-0.54228 10.02874,-0.28501 12.87651,2.65043 1.73465,1.78805 2.64721,2.31073 2.02791,1.1615 -0.6193,-1.14923 0.54222,-0.56982 2.58115,1.28758 3.63883,3.31484 3.70713,3.32277 3.70713,0.43045 0,-1.62064 -0.63708,-3.34036 -1.41572,-3.82159 -0.77866,-0.48123 -1.04549,-1.47403 -0.59296,-2.20623 0.45252,-0.73219 0.30603,-1.21622 -0.32554,-1.07559 -1.79796,0.4003 -6.07056,-1.76955 -5.45506,-2.77037 0.30402,-0.49434 -1.62762,-1.05886 -4.29254,-1.25451 -6.34156,-0.46555 -10.62081,-2.82327 -9.66152,-5.32314 0.41845,-1.09047 0.0753,-1.98267 -0.76258,-1.98267 -0.9636,0 -1.21253,-1.66366 -0.67739,-4.52727 0.78952,-4.22489 0.70811,-4.34667 -1.21888,-1.82327 -1.1357,1.48721 -2.06491,5.16473 -2.06491,8.17226 0,4.78242 -0.34942,5.37687 -2.78601,4.73968 -1.5323,-0.4007 -2.78601,-0.16039 -2.78601,0.53404 0,0.69443 -0.94028,1.2626 -2.08951,1.2626 -1.14923,0 -2.0895,-0.73133 -2.0895,-1.62518 0,-0.89384 -0.41928,-1.20591 -0.93172,-0.69347 -1.25138,1.25139 -6.16907,-3.29977 -5.22175,-4.83256 0.41022,-0.66375 0.082,-1.20683 -0.72935,-1.20683 -0.81137,0 -1.51765,-1.72384 -1.5695,-3.83077 l -0.0942,-3.83077 -1.56173,3.24661 c -1.18112,2.45538 -1.12679,4.32254 0.22296,7.66153 0.98158,2.42821 1.83125,5.17092 1.88817,6.09491 0.0569,0.92399 0.58255,1.38391 1.16807,1.02204 0.58552,-0.36188 1.45832,-0.0209 1.93955,0.75777 0.48124,0.77865 -0.008,1.41573 -1.08888,1.41573 -3.57541,0 -10.73762,-3.03324 -10.73762,-4.54746 0,-0.8189 -0.38805,-1.10084 -0.86234,-0.62656 -0.47429,0.47428 -1.80262,-0.0779 -2.95185,-1.22718 -1.14923,-1.14923 -2.37909,-1.79991 -2.73303,-1.44597 -1.03866,1.03866 2.44369,6.94352 5.6655,9.60676 2.24691,1.85735 2.37696,2.2455 0.53346,1.59221 -1.37382,-0.48683 -2.43775,-0.19085 -2.43775,0.67817 0,1.67849 -11.43,2.18477 -13.03728,0.57748 -0.53052,-0.53051 -2.22385,-1.15674 -3.76297,-1.39163 -2.43365,-0.3714 -2.59623,-0.0493 -1.24742,2.47094 0.85303,1.59389 3.3926,3.67235 5.6435,4.61878 2.25089,0.94643 3.69413,2.11917 3.20721,2.60609 -0.48691,0.48692 1.44019,0.24321 4.28246,-0.54158 2.84227,-0.78479 6.05105,-1.08794 7.13064,-0.67367 z m 234.99553,-0.67103 c 3.24604,-1.479 7.9573,-7.90295 7.9573,-10.85005 0,-0.81639 -2.29989,0.0764 -5.11085,1.98398 -4.73007,3.2099 -14.39123,4.48917 -14.39123,1.90559 0,-1.33489 3.61476,-4.16479 4.36351,-3.41605 0.34355,0.34355 0.71705,-0.60216 0.83,-2.10159 0.24434,-3.24365 -1.40178,-3.52703 -3.78778,-0.65207 -0.94677,1.14078 -2.37408,1.67079 -3.17181,1.17777 -0.84229,-0.52057 -1.03367,-0.22212 -0.45645,0.71184 0.65007,1.05183 -0.2109,1.60823 -2.48856,1.60823 -4.91135,0 -5.35192,-1.64657 -1.44638,-5.40552 4.87252,-4.68965 4.14001,-6.44073 -1.29036,-3.08459 -2.56399,1.58464 -5.1719,2.41933 -5.79535,1.85487 -0.62345,-0.56446 -0.68262,-0.24272 -0.13149,0.71497 0.70711,1.22873 -0.228,1.74126 -3.17698,1.74126 -4.9573,0 -6.51539,-1.79841 -3.63159,-4.19174 1.1408,-0.94678 2.07417,-2.69421 2.07417,-3.88318 0,-1.70132 -0.6896,-1.51392 -3.23761,0.87981 -1.78068,1.67286 -3.76173,2.5657 -4.40234,1.98408 -0.64062,-0.58162 -0.75442,-0.33962 -0.25292,0.53779 1.11263,1.94659 -2.09916,3.34213 -5.97426,2.59585 -1.56692,-0.30176 -2.84894,-0.0361 -2.84894,0.59024 0,0.6264 -1.72384,1.48528 -3.83077,1.90864 -4.38569,0.88125 -13.10634,6.4453 -13.90152,8.86961 -0.71722,2.18667 3.72636,1.44363 5.15089,-0.86132 0.64855,-1.04936 1.87374,-1.35948 2.88985,-0.73149 1.09049,0.67396 1.4165,0.52798 0.8539,-0.38234 -0.97854,-1.5833 6.98582,-4.97794 8.90141,-3.79403 0.6252,0.3864 1.53679,0.0553 2.02575,-0.73591 0.48896,-0.79115 1.42321,-1.1083 2.0761,-0.70479 0.6529,0.40352 2.96028,0.96413 5.12752,1.24582 6.76855,0.87974 11.61091,2.49653 10.90383,3.64061 -0.37339,0.60415 0.29036,1.47038 1.47498,1.92496 1.46137,0.56078 1.8207,0.27181 1.11761,-0.89879 -0.94054,-1.56593 3.33709,1.20923 5.07057,3.2896 1.10662,1.32808 8.76095,3.80917 12.12325,3.92966 1.68779,0.0605 4.56174,-0.57029 6.38655,-1.40172 z m 10.67414,-38.37089 c -0.76627,-2.01546 -2.56242,-5.30643 -3.99142,-7.31328 -1.429,-2.00686 -2.6671,-4.11897 -2.75132,-4.69359 -0.0842,-0.57461 -0.34652,-0.88804 -0.58291,-0.69651 -0.23638,0.19155 -2.45907,-1.35926 -4.93928,-3.44623 -9.12116,-7.67494 -32.16918,-11.98303 -38.89715,-7.27056 -4.24792,2.97535 -3.87957,4.42451 1.07988,4.24835 2.2967,-0.0816 4.17726,-0.67357 4.17901,-1.31553 0.004,-1.45101 9.76219,0.0966 18.11225,2.87256 7.53106,2.50367 22.33886,12.75473 25.58843,17.7142 3.01034,4.59435 3.9706,4.55101 2.20251,-0.0994 z M 271.54403,267.30723 c 5.80333,-2.62364 9.86275,-3.21815 24.33832,-3.56435 13.56083,-0.32432 17.84045,-0.89577 19.50208,-2.60409 1.86855,-1.92103 1.87335,-2.14566 0.0393,-1.83745 -1.14923,0.19312 -6.36246,-0.14849 -11.58496,-0.75915 -13.37471,-1.56389 -23.2412,-1.67221 -23.24065,-0.25515 2.6e-4,0.66396 -1.2541,0.87914 -2.78747,0.47815 -1.75581,-0.45915 -2.44872,-0.18022 -1.87167,0.75347 0.58712,0.94999 -0.16344,1.20018 -2.08951,0.6965 -1.65317,-0.43231 -2.68237,-0.26276 -2.28712,0.37678 0.39527,0.63955 -0.52182,1.55652 -2.03796,2.03772 -3.04904,0.96773 -13.9999,12.79327 -13.9999,15.11812 0,0.80857 2.03727,-0.50128 4.52726,-2.91078 2.49001,-2.40951 7.66154,-5.79791 11.4923,-7.52977 z m -89.84885,105.39204 c 1.7994,-1.91538 3.58507,-3.48251 3.96815,-3.48251 0.38307,0 -0.77574,1.56713 -2.57515,3.48251 -1.79941,1.91539 -3.58508,3.48252 -3.96815,3.48252 -0.38308,0 0.77574,-1.56713 2.57515,-3.48252 z m 461.30478,-22.98459 c 0,-1.91538 0.31617,-2.69895 0.70261,-1.74125 0.38644,0.95768 0.38644,2.52481 0,3.48251 -0.38644,0.95769 -0.70261,0.17413 -0.70261,-1.74126 z m -449.76232,-4.87552 c 0.0104,-3.83076 0.28098,-5.23256 0.60118,-3.11511 0.32018,2.11746 0.31163,5.25172 -0.019,6.96503 -0.33065,1.71331 -0.59262,-0.0191 -0.58216,-3.84992 z m 347.8252,-11.07103 c 1.00874,-2.65318 3.19353,-12.59657 4.7602,-21.6646 0.40431,-2.34016 13.28419,-7.19438 15.46125,-5.8271 0.76884,0.48287 2.31205,0.89451 3.42935,0.91477 3.15095,0.0571 6.20239,6.62142 5.10694,10.9861 -0.52335,2.08517 -1.49434,3.45575 -2.15774,3.04574 -0.66341,-0.41001 -1.57814,0.22376 -2.03272,1.40838 -0.55768,1.45328 -0.26534,1.8259 0.89879,1.14555 0.94892,-0.55456 0.61453,0.26104 -0.74309,1.81245 -3.62049,4.1373 -15.85047,10.42723 -21.25022,10.92909 -4.36471,0.40566 -4.60141,0.2182 -3.47276,-2.75038 z m -308.87121,-4.23931 c -2.49,-1.08226 -4.52728,-2.34841 -4.52728,-2.8137 0,-0.46528 0.72372,-0.39868 1.60825,0.14799 0.97384,0.60188 1.23099,0.38355 0.65189,-0.55345 -0.52599,-0.85107 -1.7506,-1.24263 -2.72134,-0.87011 -3.22666,1.23818 -7.75321,-9.192 -7.4668,-17.2052 0.14301,-4.00118 0.83609,-7.27486 1.54017,-7.27486 0.70408,0 0.87244,-0.40771 0.37414,-0.90602 -1.41706,-1.41705 5.83402,-7.45201 8.9537,-7.45201 1.62645,0 2.41216,0.62179 1.87794,1.48617 -0.5503,0.8904 0.10516,1.30921 1.63506,1.04475 1.7106,-0.2957 2.64245,0.47829 2.8228,2.34459 0.14809,1.53231 1.24125,8.04105 2.42928,14.46387 1.18802,6.42282 1.82422,12.22121 1.41379,12.8853 -0.41043,0.66409 -0.0824,1.20745 0.72898,1.20745 0.81136,0 1.47521,1.2537 1.47521,2.786 0,3.35915 -4.08201,3.62732 -10.79579,0.70923 z m 412.25295,-8.37075 c 0.0284,-2.29846 0.34059,-3.0701 0.69378,-1.71475 0.35319,1.35535 0.32995,3.23591 -0.0516,4.17902 -0.38159,0.94311 -0.67056,-0.16581 -0.64217,-2.46427 z m 1.44462,-14.62656 c 0,-2.68154 0.28667,-3.77853 0.63705,-2.43776 0.35038,1.34077 0.35038,3.53475 0,4.87551 -0.35038,1.34078 -0.63705,0.24379 -0.63705,-2.43775 z m -0.0516,-35.52164 c 0.0284,-2.29846 0.34059,-3.0701 0.69378,-1.71475 0.35319,1.35535 0.32997,3.23591 -0.0516,4.17902 -0.3816,0.94311 -0.67056,-0.16582 -0.64218,-2.46427 z m -1.55459,-14.04614 c 0.0669,-1.62277 0.39692,-1.95285 0.84161,-0.84161 0.4024,1.00557 0.35291,2.20704 -0.10997,2.66993 -0.46289,0.46288 -0.79212,-0.35987 -0.73164,-1.82832 z M 168.21099,229.9162 c 0,-4.97999 0.25282,-7.01726 0.56182,-4.52727 0.30901,2.49 0.30901,6.56454 0,9.05454 -0.309,2.48999 -0.56182,0.45272 -0.56182,-4.52727 z m -20.90931,-96.81389 c 0.007,-4.59692 0.26788,-6.30953 0.57791,-3.80582 0.31003,2.50372 0.30364,6.26484 -0.0142,8.35804 -0.31784,2.0932 -0.5715,0.0447 -0.56368,-4.55222 z m 431.22239,-18.45732 c -1.73271,-2.20939 -1.68344,-2.25866 0.52594,-0.52593 2.3204,1.81977 3.05831,2.96369 1.91182,2.96369 -0.28927,0 -1.38626,-1.09699 -2.43776,-2.43776 z m -9.67878,-11.14405 -3.37709,-3.830762 3.83077,3.377082 c 2.10692,1.8574 3.83076,3.58124 3.83076,3.83076 0,1.0925 -1.12805,0.20335 -4.28444,-3.37708 z M 542.30593,77.033837 c -1.73272,-2.209384 -1.68345,-2.258656 0.52593,-0.525937 2.3204,1.819781 3.05832,2.963697 1.91183,2.963697 -0.28927,0 -1.38627,-1.096992 -2.43776,-2.43776 z M 272.24054,76.159649 c 0,-0.289265 1.09699,-1.386257 2.43775,-2.437759 2.20939,-1.73272 2.25866,-1.683448 0.52594,0.525936 -1.81978,2.320396 -2.96369,3.058314 -2.96369,1.911823 z M 221.76032,63.163317 c 1.73278,-0.333198 4.24019,-0.320547 5.57203,0.02811 1.33183,0.348659 -0.0859,0.621275 -3.15051,0.605813 -3.0646,-0.01546 -4.15429,-0.300727 -2.42152,-0.633924 z m 63.01727,0.459282 c 0,-0.289266 1.09699,-1.386257 2.43775,-2.43776 2.20939,-1.732719 2.25866,-1.683448 0.52594,0.525937 -1.81978,2.320396 -2.96369,3.058314 -2.96369,1.911823 z m 86.10515,-36.64379 c 1.00557,-0.402399 2.20704,-0.352911 2.66993,0.109974 0.46288,0.462883 -0.35987,0.792119 -1.82832,0.731633 -1.62278,-0.06684 -1.95285,-0.396923 -0.84161,-0.841607 z m 64.07826,0 c 1.00558,-0.402399 2.20704,-0.352911 2.66992,0.109974 0.46289,0.462883 -0.35985,0.792119 -1.82832,0.731633 -1.62277,-0.06684 -1.95285,-0.396923 -0.8416,-0.841607 z m -51.97652,-1.798027 c 2.66045,-1.177997 11.54146,-1.974643 10.33146,-0.926755 -0.31924,0.27646 -3.40126,0.875636 -6.84895,1.331501 -4.18568,0.553447 -5.34282,0.418962 -3.48251,-0.404746 z m 36.65346,-0.987985 c 1.00557,-0.402398 2.20704,-0.352909 2.66992,0.109974 0.46289,0.462885 -0.35986,0.792119 -1.82832,0.731634 -1.62277,-0.06684 -1.95285,-0.396924 -0.8416,-0.841608 z"
         id="path7"
         sodipodi:nodetypes="sssssssssssssscsssssssssssssssscssssssscssssssssssssssssssssssssssssssssssssssssscsssssssscsssscsssssssssssssssssssscssssssssssssssssssssssssssssssssssssssssssssssssssssssssssssssssssscssssssssssssssssssssssssssssssssssssssssscsscssssssssssssssssssssssssssssssssssssssssssssssssssssssssssssssssssssssssssssssssssssssssssssssssssssssssssssssssssssssccssssssscsssssssssssssscssssssssssssssssssssssssssssssssssssssssssssssssssssscsssssssssssssssssssssscssssssssssssssssssssssssssssssssssssssssssssssssssssssssssssssssscsssssssssssssssssssssssssssssssssssssssssssssssssssssssssssssssscssssssssssssssssssssssssssssssssssssssssssssssssssssssssssssssssscssssssssssssssssssssssssssssssssssssssssssssssssssssssssssssssssssssssssssssssssssssssssssscssssssssssssssssssssssssssssssssssss" />
      <path
         style="fill:#c037d8;stroke-width:1.04475"
         d="m 561.808,774.92963 c -1.73271,-2.20938 -1.68344,-2.25865 0.52594,-0.52593 1.34077,1.05151 2.43776,2.1485 2.43776,2.43776 0,1.14649 -1.14391,0.40857 -2.9637,-1.91183 z M 432.81094,542.37712 c 1.35535,-0.35319 3.23591,-0.32997 4.17902,0.0516 0.94311,0.38158 -0.16582,0.67055 -2.46428,0.64217 -2.29846,-0.0284 -3.07009,-0.34059 -1.71474,-0.69378 z m -90.92013,-3.0488 c -4.06841,-0.71878 -4.803,-1.38243 -4.43746,-4.00889 0.32414,-2.32895 -0.7078,-3.77805 -3.96795,-5.57202 -8.2788,-4.55561 -10.97608,-7.4097 -15.29661,-16.18595 -4.81424,-9.77913 -4.66922,-13.9137 0.66378,-18.92379 2.37295,-2.22927 4.57896,-2.88937 8.58842,-2.56985 4.83846,0.38556 5.44501,0.0705 5.87702,-3.05258 0.26494,-1.91539 1.12527,-4.26608 1.91182,-5.22377 1.81576,-2.21084 7.28959,-2.24224 10.78098,-0.0618 2.19539,1.37105 3.17125,1.24316 5.31456,-0.69649 4.5237,-4.0939 14.24654,-1.84477 14.24654,3.29559 0,0.71143 1.30192,1.2935 2.89316,1.2935 1.59125,0 4.72551,1.83234 6.96503,4.07187 4.70703,4.70702 5.30203,10.3492 1.81812,17.24064 -2.16967,4.29175 -11.82334,17.73257 -15.58719,21.70203 -1.00176,1.05647 -1.47189,2.78032 -1.04476,3.83076 0.42714,1.05044 1.15711,2.85018 1.62216,3.99941 0.69884,1.72699 -0.56999,2.05769 -7.31328,1.90613 -4.48735,-0.10082 -10.3528,-0.571 -13.03434,-1.04475 z m 74.87405,0.1502 c -2.99386,-0.39086 -3.83077,-1.24154 -3.83077,-3.89375 0,-2.18141 -1.9553,-5.16011 -5.47399,-8.33903 -7.85403,-7.09565 -14.02808,-17.28961 -14.02808,-23.16175 0,-5.35075 3.38493,-9.4911 7.77122,-9.50554 1.49197,-0.005 3.69608,-1.80136 4.98071,-4.05951 3.63589,-6.39126 8.22002,-8.7826 13.38466,-6.98221 3.0733,1.07136 5.11448,1.07376 7.10523,0.008 5.04315,-2.69901 10.89986,-1.79017 14.01926,2.17551 1.58792,2.01871 2.88712,4.52612 2.88712,5.57203 0,2.55436 2.2876,2.42372 3.28976,-0.18786 1.23049,-3.20662 8.83944,-2.66843 10.6715,0.75481 2.87578,5.37346 1.88125,15.78925 -2.33658,24.47103 -3.08674,6.35358 -5.34938,8.95521 -10.23167,11.76455 -5.14496,2.96049 -6.27801,4.33811 -6.32137,7.6859 -0.0528,4.07737 -0.0562,4.07892 -9.05453,4.13826 -4.95094,0.0326 -10.72554,-0.16569 -12.83247,-0.44078 z m -44.48911,-4.05267 c 1.00558,-0.4024 2.20704,-0.35291 2.66992,0.10997 0.46289,0.46289 -0.35985,0.79212 -1.82832,0.73164 -1.62276,-0.0669 -1.95285,-0.39693 -0.8416,-0.84161 z m -2.96281,-3.044 -3.9205,-0.87994 6.54642,-8.35804 c 7.03552,-8.98247 11.66752,-17.80405 11.70295,-22.28808 0.0121,-1.53231 -0.91441,-4.58151 -2.05892,-6.77601 -1.14451,-2.19449 -2.08093,-4.23176 -2.08093,-4.52727 0,-0.2955 5.32825,-0.53727 11.84055,-0.53727 6.96502,0 11.84055,0.57359 11.84055,1.393 0,0.76615 -1.30192,1.39301 -2.89317,1.39301 -1.59124,0 -4.80249,1.90933 -7.13612,4.24295 -3.81328,3.81328 -4.17805,4.91827 -3.60216,10.91164 0.80532,8.38126 7.74823,18.90325 14.64155,22.18935 l 4.94375,2.35672 -5.41469,0.96447 c -6.61597,1.17846 -29.02746,1.1234 -34.40928,-0.0845 z m -60.74428,-28.85613 c 0.0669,-1.62278 0.39692,-1.95286 0.8416,-0.84161 0.4024,1.00557 0.35292,2.20704 -0.10997,2.66993 -0.46288,0.46288 -0.79213,-0.35987 -0.73163,-1.82832 z m 96.0074,-17.82243 c 0,-0.28926 1.09699,-1.38625 2.43777,-2.43776 2.20938,-1.73271 2.25865,-1.68344 0.52593,0.52594 -1.81978,2.32039 -2.9637,3.05831 -2.9637,1.91182 z m 153.9866,-9.12884 c -0.44079,-0.71322 -0.26883,-1.62592 0.38213,-2.02824 0.65096,-0.40231 1.18356,0.18122 1.18356,1.29675 0,2.34884 -0.43927,2.55407 -1.56569,0.73149 z M 436.4375,447.57332 c -1.73271,-2.20938 -1.68344,-2.25865 0.52594,-0.52594 2.3204,1.81979 3.05832,2.9637 1.91183,2.9637 -0.28927,0 -1.38627,-1.09699 -2.43777,-2.43776 z m 69.56678,-132.24236 c 1.00557,-0.4024 2.20704,-0.35291 2.66993,0.10998 0.46288,0.46288 -0.35987,0.79211 -1.82832,0.73163 -1.62278,-0.0669 -1.95286,-0.39692 -0.84161,-0.84161 z m -287.87101,-7.40645 c 0,-1.91538 0.31618,-2.69895 0.70261,-1.74125 0.38644,0.95768 0.38644,2.52482 0,3.48251 -0.38643,0.9577 -0.70261,0.17413 -0.70261,-1.74126 z m 254.43887,0.44143 c 1.00558,-0.4024 2.20704,-0.35291 2.66993,0.10997 0.46289,0.46289 -0.35985,0.79212 -1.82832,0.73163 -1.62277,-0.0669 -1.95285,-0.39692 -0.84161,-0.8416 z m 173.21383,-8.79946 c 0,-1.91538 0.31617,-2.69895 0.70261,-1.74125 0.38644,0.95768 0.38644,2.52481 0,3.48251 -0.38644,0.95769 -0.70261,0.17413 -0.70261,-1.74126 z M 241.86598,243.14975 c 0.0284,-2.29846 0.34059,-3.07009 0.69377,-1.71474 0.35319,1.35534 0.32996,3.2359 -0.0516,4.17901 -0.38158,0.94311 -0.67055,-0.16581 -0.64216,-2.46427 z m 145.64577,-42.01622 c 0.95769,-0.38643 2.52482,-0.38643 3.48251,0 0.95769,0.38643 0.17412,0.70261 -1.74125,0.70261 -1.91539,0 -2.69896,-0.31618 -1.74126,-0.70261 z m 58.85448,-27.63405 c 1.79941,-1.91539 3.58508,-3.48252 3.96815,-3.48252 0.38308,0 -0.77574,1.56713 -2.57515,3.48252 -1.7994,1.91538 -3.58507,3.48251 -3.96815,3.48251 -0.38307,0 0.77574,-1.56713 2.57515,-3.48251 z"
         id="path6"
         sodipodi:nodetypes="sssssssssssssssssssssssssssssssscsssssssssssssssssccsssssssssscsscsssssssssssssssssssssssssssssssssssssssssssss" />
      <path
         style="fill:#f3bf16;stroke-width:1.04475"
         d="m 568.8302,288.97372 c -1.00605,-1.21222 -2.87362,-9.19769 -4.15016,-17.74548 -4.39984,-29.46193 -9.64114,-34.03615 -39.26074,-34.26398 -12.82932,-0.0986 -13.42212,-1.58448 -3.08987,-7.74456 10.69104,-6.37401 12.91923,-8.2158 15.15656,-12.52825 2.40819,-4.6418 1.85752,-16.20917 -1.5766,-33.1179 -1.20874,-5.95156 -1.82036,-11.19837 -1.35913,-11.65959 1.73463,-1.73464 8.19969,1.13688 13.65406,6.06458 3.10775,2.80767 7.5503,8.90357 9.87233,13.54645 2.32204,4.64287 5.18892,9.53858 6.37087,10.87935 2.45429,2.78408 7.45994,3.15557 11.90806,0.88373 4.45721,-2.27648 16.17572,-13.85919 18.5108,-18.2963 2.35676,-4.47829 5.42872,-4.94576 7.46746,-1.13633 2.33359,4.36036 1.61343,11.35894 -2.08789,20.29016 -4.90111,11.8263 -5.58951,17.47159 -2.79054,22.8842 2.36645,4.5762 9.16738,8.45842 14.81756,8.45842 3.85078,0 11.8452,4.90829 13.03207,8.00122 1.20467,3.13933 -2.72107,5.92884 -8.34381,5.92884 -2.41515,0 -8.03515,-1.25371 -12.48887,-2.78601 -17.2478,-5.93411 -21.12328,-2.73564 -24.86722,20.5232 -1.87362,11.63966 -5.2874,21.76133 -7.87997,23.36361 -0.58618,0.36228 -1.88891,-0.33313 -2.89497,-1.54536 z"
         id="path5" />
      <path
         style="fill:#0dab57;stroke-width:1.04475"
         d="m 496.16618,841.85557 c 1.72384,-0.33203 4.54468,-0.33203 6.26853,0 1.72384,0.33202 0.31342,0.60368 -3.13427,0.60368 -3.44769,0 -4.8581,-0.27166 -3.13426,-0.60368 z M 483.28087,835.806 c -28.87793,-2.31643 -67.096,-13.33702 -79.91192,-23.04348 -15.81598,-11.97863 -62.25719,-60.60815 -69.37943,-72.64858 -4.48064,-7.57471 -12.22763,-30.38773 -16.67807,-49.11289 -4.13757,-17.40881 -6.0268,-55.08631 -3.45008,-68.80637 1.61117,-8.57892 7.57457,-23.07522 10.1464,-24.6647 0.82185,-0.50793 5.65188,1.45834 10.73341,4.36951 9.71992,5.56845 33.62606,12.49336 43.07534,12.47767 2.84238,-0.005 6.94799,-0.93698 9.1236,-2.07169 3.04704,-1.58922 4.62368,-1.70558 6.86398,-0.50661 6.98552,3.73854 29.7093,-1.1987 48.73845,-10.58948 5.17543,-2.55405 9.67627,-4.2127 10.00185,-3.68591 0.32558,0.52681 2.27588,5.31989 4.33401,10.65131 5.3817,13.9409 6.13863,32.62219 2.086,51.48364 -7.8777,36.6638 -10.02746,49.93583 -10.77476,66.52041 -0.72802,16.1563 -0.51404,18.5533 2.36263,26.4671 8.504,23.39483 25.28852,39.1838 49.44466,46.51195 6.407,1.94367 12.91045,2.52723 27.86011,2.49991 23.21522,-0.0424 30.02693,-1.62612 54.27809,-12.61951 14.36701,-6.51275 18.0917,-8.91345 26.03847,-16.78278 5.1003,-5.05059 11.66607,-13.2744 14.5906,-18.2751 4.53054,-7.7469 6.38725,-9.58204 12.54843,-12.40273 10.90262,-4.99137 24.18441,-7.36045 45.77502,-8.1649 10.72615,-0.39964 23.73334,-0.91228 28.90487,-1.13919 5.17153,-0.22692 9.40064,-0.0466 9.39801,0.40078 -0.003,0.44735 -1.89242,5.4457 -4.19955,11.10744 -4.84067,11.87913 -17.29781,30.47983 -25.59888,38.22363 -8.77102,8.18219 -23.58359,17.28888 -32.50343,19.98293 -9.81612,2.96476 -35.91271,3.34854 -44.25829,0.65087 -10.54506,-3.40864 -14.61958,-6.15292 -14.72446,-9.9173 -0.0539,-1.93269 -0.63664,-4.76769 -1.2951,-6.3 -0.94352,-2.19568 -1.21945,-1.60534 -1.30223,2.78601 -0.2236,11.86048 -13.84034,25.68511 -35.61241,36.15611 -17.21562,8.27964 -18.45709,8.52654 -55.72023,11.08173 -3.83076,0.26268 -13.23355,-0.0252 -20.89509,-0.63978 z m 93.26194,-49.96823 c 0.35245,-0.57025 -2.51836,-4.1198 -6.37955,-7.88787 -33.76262,-32.94828 -19.89559,-88.6942 33.26434,-133.72374 8.61923,-7.30098 15.67132,-13.90458 15.67132,-14.67465 0,-0.77008 0.62685,-1.01272 1.393,-0.53921 0.76616,0.47351 1.39729,2.8612 1.40252,5.30599 0.005,2.44477 1.5688,13.22098 3.47458,23.94713 1.90579,10.72614 3.84071,27.65115 4.29982,37.61115 0.77451,16.802 0.571,19.01396 -2.8195,30.64612 -2.00983,6.89538 -5.49422,16.29817 -7.74308,20.89508 -5.33622,10.90781 -21.90644,30.18086 -30.053,34.95507 -6.06024,3.55154 -13.90715,5.72485 -12.51045,3.46493 z m 50.91414,-44.77073 c 0,-0.81137 0.62685,-1.0878 1.393,-0.6143 0.76616,0.47352 1.39301,1.13736 1.39301,1.47523 0,0.33785 -0.62685,0.61428 -1.39301,0.61428 -0.76615,0 -1.393,-0.66385 -1.393,-1.47521 z m 94.72437,-9.66883 c -1.78568,-1.154 -1.73504,-1.35344 0.34826,-1.37167 1.34077,-0.0117 2.43776,0.60551 2.43776,1.37167 0,1.69892 -0.15711,1.69892 -2.78602,0 z m -89.04237,-23.10067 c 0.0669,-1.62278 0.39692,-1.95286 0.8416,-0.84161 0.4024,1.00557 0.35291,2.20704 -0.10997,2.66993 -0.46289,0.46288 -0.79212,-0.35987 -0.73163,-1.82832 z M 123.01126,691.3493 c -1.73271,-2.20939 -1.68344,-2.25866 0.52594,-0.52593 1.34077,1.0515 2.43776,2.14849 2.43776,2.43775 0,1.1465 -1.14391,0.40858 -2.9637,-1.91182 z m 108.57092,-30.55295 c 1.00558,-0.4024 2.20705,-0.35291 2.66993,0.10997 0.46289,0.46289 -0.35985,0.79212 -1.82832,0.73164 -1.62277,-0.0669 -1.95285,-0.39692 -0.84161,-0.84161 z m 74.46989,-10.19247 c 0,-3.44769 0.27166,-4.8581 0.60369,-3.13426 0.33203,1.72384 0.33203,4.54468 0,6.26853 -0.33203,1.72384 -0.60369,0.31342 -0.60369,-3.13427 z m 280.31122,0 c 1.38671,-1.5323 2.83473,-2.786 3.2178,-2.786 0.38308,0 -0.43808,1.2537 -1.8248,2.786 -1.38671,1.53231 -2.83473,2.78602 -3.21781,2.78602 -0.38307,0 0.43809,-1.25371 1.82481,-2.78602 z M 363.07577,608.08301 c -15.94639,-4.38715 -35.18053,-14.46815 -43.70576,-22.90706 -8.73499,-8.64654 -8.65857,-19.5454 0.13703,-19.5454 4.80933,0 7.17097,2.00234 11.63811,9.86755 7.75803,13.65939 22.6459,22.75156 44.68137,27.28734 6.61842,1.36233 12.03347,2.91278 12.03347,3.44543 0,0.98184 -3.70262,1.92215 -12.53705,3.18389 -2.68153,0.38299 -8.19276,-0.2163 -12.24717,-1.33175 z m 30.00799,-0.0549 c -2.17354,-2.22966 -0.7942,-3.07955 7.66154,-4.72066 16.88581,-3.27721 27.70508,-10.55768 36.83161,-24.7846 5.50082,-8.57496 9.44402,-11.47852 16.95697,-12.48623 7.16852,-0.9615 9.65654,2.63558 6.68257,9.66142 -2.40028,5.6705 -15.29112,18.64703 -21.81524,21.96025 -12.75794,6.479 -43.41862,13.34349 -46.31745,10.36982 z m 60.2475,-13.06223 c 0,-0.72093 0.61967,-1.69377 1.37705,-2.16185 0.78963,-0.48803 1.02317,0.0711 0.54746,1.31079 -0.92605,2.41326 -1.92451,2.85481 -1.92451,0.85106 z m -27.86012,-8.96618 c 0,-0.28926 1.097,-1.38625 2.43777,-2.43776 2.20938,-1.73271 2.25865,-1.68344 0.52593,0.52594 -1.81977,2.32039 -2.9637,3.05831 -2.9637,1.91182 z m 18.38065,-29.42369 c 0.0284,-2.29845 0.34058,-3.07009 0.69377,-1.71474 0.35318,1.35535 0.32996,3.23591 -0.0516,4.17902 -0.38157,0.94311 -0.67055,-0.16582 -0.64215,-2.46428 z m -1.66458,-13.23354 c 0,-1.53231 0.56817,-2.78602 1.2626,-2.78602 0.69442,0 0.93474,1.25371 0.53403,2.78602 -0.4007,1.5323 -0.96887,2.786 -1.26259,2.786 -0.29372,0 -0.53404,-1.2537 -0.53404,-2.786 z M 294.52862,498.24034 c 0,-0.28926 1.09699,-1.38625 2.43777,-2.43776 2.20938,-1.73271 2.25865,-1.68344 0.52593,0.52594 -1.81978,2.32039 -2.9637,3.05831 -2.9637,1.91182 z M 130.85048,451.40409 c 1.38672,-1.53231 2.83473,-2.78601 3.21781,-2.78601 0.38307,0 -0.43808,1.2537 -1.82481,2.78601 -1.38671,1.5323 -2.83473,2.78601 -3.2178,2.78601 -0.38308,0 0.43809,-1.25371 1.8248,-2.78601 z M 642.88999,344.72308 c 0.0669,-1.62277 0.39692,-1.95285 0.84161,-0.84161 0.4024,1.00558 0.35291,2.20704 -0.10998,2.66993 -0.46288,0.46288 -0.79213,-0.35986 -0.73163,-1.82832 z M 269.10627,320.93201 c 0.9577,-0.38644 2.52483,-0.38644 3.48251,0 0.9577,0.38644 0.17413,0.70261 -1.74125,0.70261 -1.91539,0 -2.69895,-0.31617 -1.74126,-0.70261 z m 376.91685,-33.20608 c 0.006,-5.36307 0.25796,-7.38636 0.55952,-4.49619 0.30155,2.89015 0.29649,7.27812 -0.0113,9.75103 -0.30773,2.47292 -0.55445,0.10823 -0.54827,-5.25484 z m -404.31873,-4.2951 c 0.0669,-1.62277 0.39692,-1.95285 0.84161,-0.84161 0.4024,1.00558 0.35291,2.20704 -0.10998,2.66993 -0.46288,0.46288 -0.79211,-0.35986 -0.73163,-1.82832 z m 138.14583,-82.33497 c 1.34076,-0.35038 3.53475,-0.35038 4.87551,0 1.34078,0.35037 0.24378,0.63704 -2.43776,0.63704 -2.68154,0 -3.77853,-0.28667 -2.43775,-0.63704 z m 179.27447,-107.345956 -4.80053,-5.223771 5.22377,4.800529 c 2.87307,2.640291 5.22377,4.990988 5.22377,5.223771 0,1.063728 -1.17879,0.06164 -5.64701,-4.800529 z M 171.94413,83.124677 c 0,-0.289265 1.097,-1.386257 2.43777,-2.43776 2.20938,-1.732719 2.25866,-1.683447 0.52593,0.525936 -1.81977,2.320397 -2.9637,3.058316 -2.9637,1.911824 z M 421.03094,25.585803 c 1.00557,-0.402399 2.20704,-0.35291 2.66993,0.109974 0.46288,0.462884 -0.35987,0.79212 -1.82832,0.731634 -1.62277,-0.06684 -1.95285,-0.396924 -0.84161,-0.841608 z m -20.98214,-1.46139 c 3.25615,-0.293276 8.5844,-0.293276 11.84054,0 3.25615,0.293276 0.59203,0.53323 -5.92027,0.53323 -6.51231,0 -9.17643,-0.239954 -5.92027,-0.53323 z"
         id="path4"
         sodipodi:nodetypes="ssssssssssscsssssssssssssssscssssssssssssssssssssssssssssssssssssssssssssssssssssssssssssssssssssssssssssssssssssssssssssssssssssssssssssssssssscsssssssssssssss" />
      <path
         style="fill:#f60203;stroke-width:1.04475"
         d="m 200.50075,723.50319 c -10.10799,-1.23973 -29.4495,-7.18562 -39.00416,-11.99048 C 150.63872,706.05248 136.289,695.39239 126.14886,685.25368 114.12147,673.22798 96.798338,652.86565 91.543044,644.57655 75.531602,619.32194 71.175986,569.51732 82.063529,536.18233 95.275082,495.73178 121.42615,461.06248 161.49659,430.87542 c 6.89538,-5.19462 13.16391,-10.8931 13.93007,-12.66328 0.80829,-1.86759 5.35613,-5.30565 10.83487,-8.19096 10.70195,-5.63605 11.31754,-7.39098 1.42178,-4.05321 -3.67655,1.24008 -13.58001,4.1886 -22.0077,6.55228 -18.11325,5.08014 -42.86604,14.44709 -48.75518,18.44993 -2.29846,1.56226 -7.18166,5.31124 -10.85155,8.33108 -9.943609,8.18226 -9.417659,5.28113 0.68832,-3.7968 9.84806,-8.84625 31.93506,-24.2037 45.84826,-31.87904 20.2913,-11.19387 38.30356,-27.20055 43.73336,-38.86386 2.90839,-6.24727 3.43267,-9.42462 3.4022,-20.6189 -0.0411,-15.10348 -1.40704,-21.62545 -9.62762,-45.96919 -12.96975,-38.40758 -15.3806,-49.59679 -15.38211,-71.39153 -6.3e-4,-9.0023 0.49055,-16.36782 1.09153,-16.36782 0.60096,0 2.12421,1.72385 3.385,3.83077 1.26079,2.10692 5.58295,6.96502 9.60479,10.79579 5.78722,5.51226 6.78603,6.09337 4.78866,2.78602 -1.38808,-2.29846 -3.69452,-5.47313 -5.12543,-7.05481 -1.4309,-1.5817 -2.60164,-3.24147 -2.60164,-3.6884 0,-0.44694 -2.52084,-4.96198 -5.60185,-10.03343 -5.85717,-9.6411 -10.23328,-18.63956 -15.31181,-31.48518 -8.0385,-20.33261 -10.26823,-31.24984 -9.47379,-46.38578 0.85016,-16.1978 7.06377,-29.11158 19.64896,-40.836557 8.53869,-7.955056 10.29287,-9.106507 20.48952,-13.449489 7.00625,-2.984116 9.37655,-3.588085 19.50207,-4.969278 25.7807,-3.516667 56.41044,7.79982 82.18734,30.364994 1.91538,1.67673 7.17535,6.29803 11.68882,10.26954 21.01236,18.48928 39.58233,29.47128 60.74746,35.92509 8.47077,2.58296 13.74218,3.19032 27.86012,3.21001 17.61286,0.0246 26.46551,-1.36998 40.39715,-6.36366 9.58085,-3.43418 27.53116,-12.9785 31.69088,-16.8503 4.98079,-4.63602 4.01733,-0.0749 -2.78601,13.18937 -4.74897,9.25891 -8.74816,14.36664 -20.21362,25.81663 -25.55067,25.51621 -33.20058,28.89874 -65.10797,28.78851 -22.38888,-0.0773 -32.64665,-1.50061 -69.65027,-9.66386 -7.42714,-1.63846 -17.64864,-2.5075 -30.64612,-2.60552 -16.92825,-0.12766 -20.71498,0.27223 -28.6923,3.03002 -15.85718,5.4819 -23.0794,12.86318 -27.14194,27.73968 -2.88574,10.56731 -4.22711,32.60355 -2.19736,36.09869 1.23419,2.12519 1.53834,0.98656 1.57251,-5.887 0.0479,-9.63338 6.41549,-30.90841 11.75964,-39.29059 1.79601,-2.81699 5.28843,-6.29313 7.76094,-7.72474 l 4.49546,-2.60294 -1.01328,3.29944 c -0.55731,1.8147 -1.49801,3.92629 -2.09045,4.69244 -2.16254,2.79665 -6.76244,21.21412 -8.34992,33.43214 -0.89591,6.89537 -1.41531,22.39322 -1.1542,34.43964 l 0.47471,21.90259 -5.01364,-0.8037 c -11.51435,-1.84575 -18.63408,6.70501 -17.70691,21.26593 0.69619,10.93343 5.94413,19.25342 14.19326,22.50173 4.97773,1.96011 5.7729,1.92815 10.10762,-0.40625 2.58767,-1.39356 4.90555,-2.27629 5.15084,-1.96164 0.24528,0.31465 1.88622,4.64664 3.64651,9.62662 8.88692,25.14173 32.63622,54.50292 52.76247,65.23011 11.8056,6.29231 48.62272,18.35023 56.02979,18.35023 4.92934,0 2.83931,2.05668 -5.29555,5.21103 -12.99941,5.04064 -25.04654,17.54416 -45.28985,47.00558 -18.46107,26.86764 -29.07944,36.24977 -49.14298,43.42148 -11.0196,3.93897 -11.27778,3.96181 -44.76922,3.96181 h -33.68569 l -4.40128,4.17902 c -6.78648,6.44375 -10.08894,13.88135 -9.00705,20.28505 1.37,8.10889 8.02051,16.28275 16.43623,20.20106 14.85885,6.91817 43.25204,3.3489 65.03999,-8.17607 5.74615,-3.03948 15.77579,-8.18437 22.28809,-11.43305 13.66336,-6.81603 31.30874,-19.13614 39.25926,-27.41103 l 5.49967,-5.72405 6.88906,7.22276 c 7.56483,7.93129 7.76129,8.73174 7.15897,29.16967 -0.30055,10.19821 -0.303,10.20412 -4.13149,9.95168 -8.60689,-0.56753 -9.78169,2.8e-4 -14.17903,6.85294 -7.29967,11.37554 -18.48803,17.49321 -44.89638,24.54879 -10.22156,2.73093 -21.96683,5.89747 -26.10061,7.03678 -11.58283,3.1923 -27.58861,11.8027 -34.38333,18.49669 -6.93737,6.83452 -13.39989,19.31452 -16.72728,32.30258 -4.89926,19.1237 2.60423,32.78913 23.29204,42.41968 9.016,4.19712 19.01036,4.53457 26.97649,0.91085 6.6552,-3.02738 8.06024,-4.59123 11.21075,-12.47793 1.98798,-4.97653 2.13038,-6.93416 0.82206,-11.30091 -2.53953,-8.47622 -7.67829,-12.62947 -15.62629,-12.62947 -7.32546,0 -11.03307,3.14689 -11.03307,9.36448 0,3.8342 -1.56539,4.04421 -4.65963,0.62512 -4.31449,-4.76746 -2.10551,-14.06738 4.5957,-19.34808 2.68913,-2.1191 10.22545,-2.23623 17.31033,-0.26904 6.88565,1.91187 17.3073,12.24533 21.60168,21.41885 5.61857,12.00221 2.7663,24.86914 -8.29962,37.44069 -10.58857,12.02926 -30.71088,17.93753 -52.14005,15.30925 z M 444.97323,535.15705 c 0,-1.39906 3.19151,-5.92536 7.09225,-10.05847 l 7.09226,-7.51474 7.88255,4.28579 c 4.3354,2.35718 7.88255,5.10737 7.88255,6.11154 0,1.65968 -14.27419,6.58453 -25.71889,8.87347 -3.47665,0.69533 -4.23072,0.39276 -4.23072,-1.69759 z m 55.90646,-27.36426 c -12.81268,-7.3245 -22.78925,-16.13549 -34.66845,-30.6181 -4.399,-5.36307 -8.31302,-10.06446 -8.69782,-10.44754 -0.3848,-0.38307 -3.49749,-4.77104 -6.91707,-9.75104 -3.41958,-4.98 -6.86727,-9.7119 -7.66153,-10.51534 -3.22585,-3.26311 -20.5075,-15.95176 -21.72595,-15.95176 -0.72036,0 -1.30975,-0.47798 -1.30975,-1.06216 0,-0.58418 4.23126,-2.2386 9.40279,-3.67647 33.55865,-9.33053 54.57362,-20.54483 79.62519,-42.49071 8.99834,-7.88279 21.95313,-25.00021 25.66617,-33.91324 1.93124,-4.63586 2.72841,-5.22377 7.08304,-5.22377 5.6753,0 18.16866,-5.19044 24.95808,-10.36898 2.57656,-1.96524 5.81654,-6.08322 7.19995,-9.15105 3.3855,-7.50772 1.19292,-15.58183 -5.30775,-19.54554 -4.61581,-2.81444 -13.35683,-3.64482 -15.66509,-1.48816 -0.72784,0.68004 -2.73377,1.66257 -4.45761,2.18338 -2.98563,0.90204 -3.13426,0.58304 -3.13426,-6.72625 0,-4.22026 0.62685,-8.06061 1.393,-8.53411 5.09815,-3.15084 -3.35643,-15.61871 -19.63436,-28.95457 -22.17198,-18.16464 -29.10168,-24.81855 -40.17476,-38.57591 -12.88699,-16.01099 -17.51507,-23.49943 -24.12454,-39.03445 -7.75547,-18.22861 -7.76022,-18.32157 -1.33125,-26.05663 6.81608,-8.2008 9.31771,-13.06636 14.30694,-27.82648 2.13911,-6.32833 5.44055,-13.56179 7.33651,-16.07437 5.40808,-7.16688 12.29035,-19.449123 11.39813,-20.341344 -0.87103,-0.871018 -3.54007,1.862114 -13.07641,13.390364 -24.54326,29.66974 -76.89761,44.25671 -113.67554,31.67228 -20.53574,-7.02679 -32.89956,-14.29388 -51.31406,-30.1609 -5.99002,-5.16136 -14.45011,-12.091613 -18.80019,-15.400555 -4.35009,-3.308941 -9.0745,-7.064474 -10.4987,-8.345627 -1.4242,-1.281153 -4.40418,-3.081047 -6.62216,-3.999765 -2.21798,-0.918718 -4.03269,-2.163108 -4.03269,-2.765313 0,-3.478147 24.04099,-21.482056 35.06724,-26.261288 3.31454,-1.436657 9.47411,-4.165786 13.68795,-6.06473 12.26395,-5.526678 21.74372,-8.128976 45.27269,-12.427838 12.45154,-2.27496 54.559,-2.25108 64.77476,0.03673 30.19558,6.762289 42.58795,11.346111 67.56076,24.99009 9.60398,5.247165 37.37707,23.235591 43.97128,28.479877 5.05674,4.021548 44.65586,54.235889 52.99868,67.205879 3.34477,5.19986 17.953,34.69069 17.953,36.24318 0,0.386 1.23877,3.35912 2.75283,6.60692 3.10341,6.65714 10.18535,27.76826 13.33431,39.74933 8.03773,30.58173 8.41787,91.15256 0.78094,124.43413 -2.85787,12.4545 -8.85449,26.78304 -23.31313,55.70519 -12.67825,25.36076 -15.82424,30.51744 -23.92661,39.2188 -11.41379,12.25756 -20.1281,20.63601 -20.78254,19.98157 -0.5259,-0.52589 3.67485,-11.6192 7.97102,-21.04992 14.66488,-32.1914 18.04233,-49.04105 15.92883,-79.46698 l -1.15661,-16.6504 -1.65976,20.89508 c -2.04853,25.78933 -4.27668,36.19434 -11.03718,51.5412 -1.0125,2.29846 -3.57119,8.56699 -5.68598,13.93007 -4.69146,11.89747 -20.42234,35.60869 -28.65321,43.18908 -6.636,6.11158 -20.04746,16.7206 -25.95764,20.53359 -5.06945,3.27058 -8.21686,3.05312 -15.42149,-1.06545 z m 74.45944,-214.81373 c 3.61456,-3.61456 7.46235,-13.20892 8.34106,-20.79821 1.11472,-9.6277 3.53423,-20.40681 4.99615,-22.25834 1.32896,-1.68314 4.70665,-1.12709 17.18902,2.82976 14.66027,4.64722 24.30159,1.62084 24.35627,-7.64536 0.028,-4.73892 -2.70898,-7.02075 -15.30173,-12.75726 -12.12848,-5.52503 -13.91389,-7.30145 -14.92654,-14.85133 -0.59583,-4.44225 0.13054,-7.24641 3.60774,-13.92762 2.39457,-4.60103 4.35377,-10.50064 4.35377,-13.11023 0,-5.2712 -4.5114,-12.08548 -8.0012,-12.08548 -2.71034,0 -7.32186,3.97233 -7.32186,6.30701 0,2.40551 -11.59046,12.78875 -17.33183,15.52662 -6.05855,2.88912 -7.24829,2.01272 -14.21868,-10.47394 -7.72073,-13.83084 -21.49544,-24.85845 -26.85696,-21.50086 -2.74686,1.72019 -3.59987,11.68058 -1.50691,17.59579 0.85352,2.41226 1.91572,9.411 2.36044,15.55275 0.761,10.50967 0.60077,11.4138 -2.7228,15.36364 -1.94227,2.30826 -5.31602,5.09968 -7.49722,6.20317 -6.81248,3.44647 -15.80637,9.8267 -15.80637,11.21297 0,0.72934 1.2537,2.57979 2.78601,4.1121 2.31361,2.31361 4.64335,2.786 13.73992,2.786 13.16141,0 24.9258,2.04794 28.06043,4.88474 2.46432,2.23018 5.56184,16.33197 5.56184,25.32091 0,8.10357 3.79783,19.51758 7.3135,21.98005 3.93856,2.75869 5.85845,2.70063 8.82595,-0.26688 z"
         id="path3" />
      <path
         style="fill:#1f0f0d;stroke-width:1.04475"
         d="m 474.22634,840.51484 c -23.68104,-3.74959 -46.7753,-10.59526 -62.68923,-18.58252 -19.61524,-9.84498 -59.38273,-48.04682 -76.37455,-73.36768 -10.93312,-16.2923 -22.02879,-45.41959 -26.01946,-68.30374 -3.04506,-17.46167 -2.77433,-48.82051 0.52096,-60.34353 3.24578,-11.34992 7.62554,-20.05222 11.43485,-22.72038 2.91436,-2.04129 2.90904,-2.06268 -1.28453,-5.16311 -2.31604,-1.71233 -5.66185,-6.00289 -7.4351,-9.53457 -1.77325,-3.53167 -3.34217,-6.64377 -3.48647,-6.91576 -0.1443,-0.272 -2.15949,1.66618 -4.4782,4.30704 -6.55504,7.46578 -18.20519,12.71958 -45.39964,20.47367 -29.47912,8.4055 -44.64505,15.32443 -54.18726,24.72101 -9.48211,9.3374 -13.77293,19.18711 -14.45424,33.18015 -0.5106,10.48699 -0.29359,11.53079 3.68059,17.70355 15.73002,24.43208 51.60358,23.92497 51.69883,-0.73082 0.0275,-7.11042 -2.03094,-10.53946 -7.76485,-12.93525 -5.72871,-2.3936 -11.21773,-1.30411 -13.33188,2.64619 -1.27183,2.37644 -1.02156,3.30187 1.42976,5.28683 4.16836,3.37533 3.75246,4.04906 -2.49947,4.04906 -13.57898,0 -15.6547,-20.56123 -2.74944,-27.23481 13.79824,-7.13533 33.72986,3.22542 43.19603,22.45394 3.87863,7.87862 4.32546,9.95203 3.67963,17.07437 -1.77532,19.57855 -17.17975,35.27775 -39.86427,40.62708 -12.84912,3.03001 -31.73361,1.20915 -50.33224,-4.85308 -33.16569,-10.81036 -45.61551,-20.06961 -75.8255,-56.39333 C 87.797947,649.25491 77.52862,630.12074 72.889717,612.29624 69.231823,598.24115 67.87039,571.11868 70.155879,557.83268 74.173241,534.47895 88.001208,502.1326 101.8808,483.62182 c 10.71647,-14.29223 32.51156,-35.57341 48.73659,-47.5874 7.51587,-5.5652 15.97916,-11.90592 18.8073,-14.09051 2.82815,-2.18458 5.56903,-3.97195 6.09084,-3.97195 2.09163,0 -3.50572,5.0875 -15.41194,14.0081 -38.37917,28.75518 -65.013674,64.31864 -78.040061,104.20227 -10.887543,33.33499 -6.531927,83.13961 9.479515,108.39422 2.027068,3.19726 8.331064,11.34634 14.008876,18.10907 29.65646,35.32319 50.15284,49.81565 82.41179,58.27125 26.08849,6.83823 51.90837,1.74311 64.67709,-12.76293 11.06592,-12.57155 13.91819,-25.43848 8.29962,-37.44069 -4.29438,-9.17352 -14.71603,-19.50698 -21.60168,-21.41885 -7.08488,-1.96719 -14.6212,-1.85006 -17.31033,0.26904 -6.83128,5.3832 -9.04505,15.34447 -4.35365,19.59012 3.42513,3.09971 4.41758,2.9049 4.41758,-0.86716 0,-6.21759 3.70761,-9.36448 11.03307,-9.36448 7.948,0 13.08676,4.15325 15.62629,12.62947 1.30832,4.36675 1.16592,6.32438 -0.82206,11.30091 -3.15051,7.8867 -4.55555,9.45055 -11.21075,12.47793 -7.96613,3.62372 -17.96049,3.28627 -26.97649,-0.91085 -20.68781,-9.63055 -28.1913,-23.29598 -23.29204,-42.41968 3.32739,-12.98806 9.78991,-25.46806 16.72728,-32.30258 6.79472,-6.69399 22.8005,-15.30439 34.38333,-18.49669 4.13378,-1.13931 15.87905,-4.30585 26.10061,-7.03678 26.40835,-7.05558 37.59671,-13.17325 44.89638,-24.54879 4.39734,-6.85266 5.57214,-7.42047 14.17903,-6.85294 3.82849,0.25244 3.83094,0.24653 4.13149,-9.95168 0.60232,-20.43793 0.40586,-21.23838 -7.15897,-29.16967 l -6.88906,-7.22276 -5.49967,5.72405 c -7.95052,8.27489 -25.5959,20.595 -39.25926,27.41103 -6.5123,3.24868 -16.54194,8.39357 -22.28809,11.43305 -21.78795,11.52497 -50.18114,15.09424 -65.03999,8.17607 -8.41572,-3.91831 -15.06623,-12.09217 -16.43623,-20.20106 -1.08189,-6.4037 2.22057,-13.8413 9.00705,-20.28505 l 4.40128,-4.17902 h 33.68569 c 33.49144,0 33.74962,-0.0229 44.76922,-3.96181 20.06354,-7.17171 30.68191,-16.55384 49.14298,-43.42148 20.24331,-29.46142 32.29044,-41.96494 45.28985,-47.00558 8.13486,-3.15435 10.22489,-5.21103 5.29555,-5.21103 -7.42954,0 -44.2341,-12.0632 -56.09945,-18.38736 -16.444,-8.76457 -36.30626,-31.04756 -47.55642,-53.35242 -5.84455,-11.58759 -10.00023,-25.84747 -12.72968,-43.681 -2.2234,-14.52715 -3.49664,-16.91474 -9.02006,-16.91474 -8.70662,0 -14.51088,11.40288 -11.12154,21.84903 2.80255,8.63757 6.44598,12.60748 14.25772,15.53531 l 7.27851,2.72797 -3.74345,1.71924 c -5.51505,2.53288 -13.27469,-0.92934 -18.48045,-8.24567 -5.16212,-7.25501 -6.60751,-20.74802 -2.97503,-27.77248 3.00397,-5.80904 9.55628,-9.11854 16.00627,-8.08461 l 5.01364,0.8037 -0.47471,-21.90259 c -0.65368,-30.15941 3.13717,-55.87972 10.24433,-69.50614 1.12957,-2.16571 2.05763,-4.44323 2.06235,-5.06116 0.019,-2.49406 -8.90538,4.24772 -11.95523,9.03132 -5.34415,8.38218 -11.71175,29.65721 -11.75964,39.29059 -0.0342,6.87356 -0.33832,8.01219 -1.57251,5.887 -2.02975,-3.49514 -0.68838,-25.53138 2.19736,-36.09869 4.06254,-14.8765 11.28476,-22.25778 27.14194,-27.73968 7.97732,-2.75779 11.76405,-3.15768 28.6923,-3.03002 12.99748,0.098 23.21898,0.96706 30.64612,2.60552 37.00362,8.16325 47.26139,9.5865 69.65027,9.66386 31.90739,0.11023 39.5573,-3.2723 65.10797,-28.78851 11.46546,-11.44999 15.46465,-16.55772 20.21362,-25.81663 6.80334,-13.26424 7.7668,-17.82539 2.78601,-13.18937 -4.15972,3.8718 -22.11003,13.41612 -31.69088,16.8503 -13.93164,4.99368 -22.78429,6.38822 -40.39715,6.36366 -14.11794,-0.0197 -19.38935,-0.62705 -27.86012,-3.21001 -21.16513,-6.45381 -39.7351,-17.43581 -60.74746,-35.92509 -4.51347,-3.97151 -9.77344,-8.59281 -11.68882,-10.26954 -32.64251,-28.575359 -71.46227,-38.270128 -101.68941,-25.395716 -10.19665,4.342982 -11.95083,5.494433 -20.48952,13.449489 -12.58519,11.724977 -18.7988,24.638757 -19.64896,40.836557 -0.79444,15.13594 1.43529,26.05317 9.47379,46.38578 5.07853,12.84562 9.45464,21.84408 15.31181,31.48518 3.08101,5.07145 5.60185,9.58649 5.60185,10.03343 0,0.44693 1.17074,2.1067 2.60164,3.6884 1.43091,1.58168 3.73735,4.75635 5.12543,7.05481 1.99737,3.30735 0.99856,2.72624 -4.78866,-2.78602 -4.02184,-3.83077 -8.344,-8.68887 -9.60479,-10.79579 -1.26079,-2.10692 -2.78404,-3.83077 -3.385,-3.83077 -0.60098,0 -1.09216,7.36552 -1.09153,16.36782 0.001,21.79474 2.41236,32.98395 15.38211,71.39153 8.22058,24.34374 9.58652,30.86571 9.62762,45.96919 0.0305,11.19428 -0.49381,14.37163 -3.4022,20.6189 -5.4298,11.66331 -23.44206,27.66999 -43.73336,38.86386 -13.9132,7.67534 -36.0002,23.03279 -45.84826,31.87904 -10.105979,9.07793 -10.631929,11.97906 -0.68832,3.7968 3.66989,-3.01984 8.55309,-6.76882 10.85155,-8.33108 5.88914,-4.00284 30.64193,-13.36979 48.75518,-18.44993 8.42769,-2.36368 18.33115,-5.3122 22.0077,-6.55228 3.67656,-1.24007 6.97871,-1.96061 7.33813,-1.6012 1.73344,1.73346 -17.71317,9.82829 -37.70386,15.69458 -12.25845,3.59727 -25.93852,8.02124 -30.40017,9.83105 -9.5604,3.87807 -24.86114,14.68923 -36.20094,25.57876 l -8.094891,7.77348 6.29562,-11.83153 c 3.462593,-6.50735 8.82384,-14.76662 11.913881,-18.35394 6.81154,-7.9077 23.13564,-19.81138 44.64595,-32.55619 27.83048,-16.48949 42.9703,-30.42111 46.69707,-42.9705 4.02619,-13.55763 2.0717,-26.50363 -9.16809,-60.72735 -3.88871,-11.84063 -8.28963,-26.563 -9.77982,-32.71637 -3.65086,-15.07542 -4.89048,-37.81052 -2.75138,-50.46113 l 1.69431,-10.02004 -4.95222,-8.8554 c -11.49187,-20.54939 -18.92659,-44.54997 -18.9441,-61.15489 -0.0323,-30.60962 24.97214,-59.720975 57.95777,-67.477276 17.21779,-4.048621 40.46427,-1.143339 59.61353,7.450335 6.81861,3.06001 8.39705,3.356544 8.91812,1.675399 0.86692,-2.797052 13.37715,-14.361866 21.87238,-20.219477 3.83981,-2.647623 14.59126,-8.214882 23.8921,-12.37169 44.70443,-19.979652 100.92578,-22.596575 149.11412,-6.940784 22.09722,7.179111 50.44337,23.172291 70.75328,39.919715 15.65498,12.908986 50.13371,51.665178 63.28638,71.137728 5.53014,8.18738 11.39937,20.93595 15.54202,33.75886 1.70852,5.28844 5.17632,14.15747 7.70621,19.70896 6.05518,13.28722 12.74207,32.34432 15.30121,43.60719 5.23058,23.02002 3.46735,99.58302 -2.8686,124.56008 -3.74802,14.77514 -10.70815,30.51484 -22.03844,49.83796 -4.17996,7.12867 -9.39848,16.72232 -11.59671,21.31924 -3.00763,6.28952 -8.13914,12.48799 -20.73437,25.04551 -9.20568,9.17812 -18.80678,20.14804 -21.33578,24.3776 l -4.59821,7.69012 0.53708,-11.4923 c 0.29538,-6.32076 0.34005,-11.49229 0.0992,-11.49229 -0.2408,0 -1.79074,2.66412 -3.44428,5.92027 -4.85071,9.55194 -20.26031,23.65245 -32.41116,29.65771 -5.84947,2.89097 -10.47256,5.4165 -10.27355,5.6123 0.19903,0.19579 7.88409,2.95779 17.07793,6.13777 12.32797,4.26403 21.17542,6.30865 33.70362,7.78878 18.5886,2.19614 21.22811,2.93066 29.66089,8.25404 14.04399,8.86558 14.70341,23.78284 1.35642,30.68484 -14.35857,7.42511 -64.54414,-6.8011 -98.97763,-28.0574 -13.07301,-8.07015 -15.05027,-8.32581 -29.09834,-3.76239 -3.43299,1.11518 -10.17166,2.50071 -14.97481,3.07896 l -8.733,1.05135 0.16159,-3.58175 c 0.10217,-2.26478 0.39206,-2.70497 0.7884,-1.19718 0.72233,2.74796 2.76201,2.50175 19.64854,-2.37177 6.35454,-1.83395 10.74409,-3.84672 10.74409,-4.92654 0,-1.00417 -3.58656,-3.75705 -7.97013,-6.11753 l -7.97015,-4.29179 -5.95992,6.56985 c -3.27795,3.61341 -7.5023,7.12375 -9.38742,7.80075 -2.54146,0.9127 -3.44172,2.26913 -3.48251,5.24709 -0.0512,3.73482 -0.54297,4.09242 -7.02004,5.1046 -6.49705,1.0153 -16.67232,0.38648 -21.07318,-1.30229 -1.05128,-0.40341 -1.91141,-1.77362 -1.91141,-3.04491 0,-2.05981 -2.5533,-2.3167 -23.45466,-2.35974 l -23.45466,-0.0484 1.79178,3.45366 c 0.98548,1.89951 1.41942,4.05614 0.96432,4.79253 -1.01514,1.64251 -23.58128,0.21681 -28.96471,-1.82997 -3.08004,-1.17103 -3.63317,-2.06098 -2.95655,-4.75687 0.70511,-2.80936 -0.97643,-4.99982 -3.83817,-4.99982 -0.1559,0 -0.0983,8.22353 0.12791,18.27451 0.40042,17.78793 0.51882,18.40919 4.44711,23.33285 11.49222,14.40416 25.19678,21.28002 51.81533,25.99681 7.22312,1.27993 26.06795,-4.1063 33.93438,-9.69913 7.14183,-5.07765 14.53691,-13.26404 17.91918,-19.83661 1.2505,-2.43003 2.84458,-9.52141 3.54239,-15.75862 1.77226,-15.84075 3.4196,-16.01806 2.19136,-0.23586 l -1.01322,13.01942 4.30001,-2.22363 c 5.9984,-3.10189 13.56169,-2.85132 16.97541,0.56239 5.22543,5.22544 2.99832,14.17582 -5.75932,23.14571 l -5.59746,5.73313 5.63464,11.05862 c 3.09905,6.08223 6.35914,14.43686 7.24466,18.56584 2.6176,12.20546 0.81885,31.44894 -5.46902,58.50917 -11.86655,51.06843 -12.13931,56.36208 -3.77612,73.28386 9.64188,19.50902 26.33554,32.79893 48.11978,38.30841 11.48451,2.90456 40.6909,2.2411 57.67187,-1.31009 7.58571,-1.58639 14.37026,-3.4624 15.07679,-4.16892 0.7841,-0.7841 -0.58887,-2.44242 -3.524,-4.25643 -21.87988,-13.52246 -32.36372,-46.98444 -23.40184,-74.69317 7.59119,-23.47078 20.71064,-43.76737 39.88911,-61.7109 10.53245,-9.85426 26.08634,-19.88644 27.94706,-18.02572 0.40577,0.40577 -6.35264,6.74367 -15.0187,14.08422 -19.71344,16.6982 -31.54723,31.16234 -41.17674,50.32934 -16.73358,33.30725 -13.57568,62.49529 9.17693,84.8214 l 8.36286,8.20609 7.42276,-4.1601 c 9.22595,-5.17071 26.14263,-24.27148 31.82438,-35.93318 2.23969,-4.59691 5.7164,-13.9997 7.72603,-20.89508 3.35594,-11.51486 3.59098,-13.96846 2.88269,-30.09305 -0.42414,-9.65579 -2.08946,-25.01368 -3.70072,-34.12864 -3.6342,-20.55898 -5.29967,-33.9852 -4.21572,-33.9852 0.45391,0 1.56117,3.6044 2.4606,8.00978 0.89943,4.40538 2.91028,13.96488 4.46855,21.24333 5.25533,24.54691 6.19148,39.64465 3.67043,59.19507 -1.23706,9.59331 -2.8762,19.09147 -3.6425,21.10702 -0.76632,2.01555 -1.2126,3.84533 -0.99175,4.06619 0.22086,0.22085 4.72204,-1.69651 10.00264,-4.26082 5.28059,-2.56431 13.42323,-5.38674 18.09474,-6.27207 10.14324,-1.92231 52.84487,-3.54586 59.51291,-2.26272 8.5681,1.64877 8.85083,2.4036 4.29473,11.46609 -2.26823,4.51171 -5.56009,11.6508 -7.31524,15.86464 -10.88079,26.12302 -33.92548,45.76779 -59.75589,50.93976 -19.73535,3.95158 -42.95053,0.67641 -51.98443,-7.3339 -1.94395,-1.7237 -3.01493,-1.99402 -3.41217,-0.86125 -2.67556,7.62946 -17.6262,21.53991 -29.57767,27.5198 -17.89785,8.95515 -46.9326,14.79063 -72.24122,14.51922 -9.72955,-0.10437 -19.25723,-0.43783 -21.17261,-0.7411 z m 48.75519,-5.3881 c 16.26799,-1.15606 22.38029,-2.77257 36.91466,-9.76269 21.77207,-10.471 35.38881,-24.29563 35.61241,-36.15611 0.0827,-4.39135 0.35871,-4.98169 1.30223,-2.78601 0.65846,1.53231 1.24124,4.36731 1.2951,6.3 0.10488,3.76438 4.1794,6.50866 14.72446,9.9173 8.34558,2.69767 34.44217,2.31389 44.25829,-0.65087 8.91984,-2.69405 23.73241,-11.80074 32.50343,-19.98293 8.30107,-7.7438 20.75821,-26.3445 25.59888,-38.22363 2.30713,-5.66174 4.19692,-10.66009 4.19955,-11.10744 0.003,-0.44734 -4.22648,-0.6277 -9.39801,-0.40078 -5.17153,0.22691 -18.17872,0.73955 -28.90487,1.13919 -21.59061,0.80445 -34.8724,3.17353 -45.77502,8.1649 -6.16118,2.82069 -8.01789,4.65583 -12.54843,12.40273 -2.92453,5.0007 -9.4903,13.22451 -14.5906,18.2751 -7.94677,7.86933 -11.67146,10.27003 -26.03847,16.78278 -24.25116,10.99339 -31.06287,12.57709 -54.27809,12.61951 -14.94966,0.0274 -21.45311,-0.55624 -27.86011,-2.49991 -24.15614,-7.32815 -40.94066,-23.11712 -49.44466,-46.51195 -2.87667,-7.9138 -3.09065,-10.3108 -2.36263,-26.4671 0.7473,-16.58458 2.89706,-29.85661 10.77476,-66.52041 4.05263,-18.86145 3.2957,-37.54274 -2.086,-51.48364 -2.05813,-5.33142 -4.00843,-10.1245 -4.33401,-10.65131 -0.32558,-0.52679 -4.82642,1.13186 -10.00185,3.68591 -19.02915,9.39078 -41.75293,14.32802 -48.73845,10.58948 -2.2403,-1.19897 -3.81694,-1.08261 -6.86398,0.50661 -2.17561,1.13471 -6.28122,2.06696 -9.1236,2.07169 -9.44928,0.0157 -33.35542,-6.90922 -43.07534,-12.47767 -5.08153,-2.91117 -9.91156,-4.87744 -10.73341,-4.36951 -2.57183,1.58948 -8.53523,16.08578 -10.1464,24.6647 -2.57672,13.72006 -0.68749,51.39756 3.45008,68.80637 4.45044,18.72516 12.19743,41.53818 16.67807,49.11289 7.12224,12.04043 53.56345,60.66995 69.37943,72.64858 16.76835,12.69992 71.94311,25.6625 100.80701,23.68326 3.83076,-0.26268 12.29327,-0.85625 18.80557,-1.31904 z M 384.02923,607.9589 c 2.10692,-0.41776 3.83076,-1.19536 3.83076,-1.72803 0,-0.53265 -5.41505,-2.0831 -12.03347,-3.44543 -22.03547,-4.53578 -36.92334,-13.62795 -44.68137,-27.28734 -4.46714,-7.86521 -6.82878,-9.86755 -11.63811,-9.86755 -5.32535,0 -7.38427,3.087 -6.2152,9.31869 1.64421,8.76435 15.09414,19.48347 35.15737,28.01916 15.67442,6.66852 22.37608,7.60851 35.58002,4.9905 z m 39.07948,-4.22792 c 15.60779,-4.91695 19.95949,-7.34699 28.67296,-16.01128 8.93151,-8.8811 12.10581,-15.1958 9.80229,-19.49995 -1.30286,-2.43442 -2.47363,-2.79696 -7.05008,-2.18314 -7.51295,1.00771 -11.45615,3.91127 -16.95697,12.48623 -9.12653,14.22692 -19.9458,21.50739 -36.83161,24.7846 -8.45574,1.64111 -9.83508,2.491 -7.66154,4.72066 1.76777,1.8134 18.00494,-0.51043 30.02495,-4.29712 z M 219.47596,563.69899 c 17.31908,-4.40742 42.58072,-14.68977 54.00144,-21.98043 5.06588,-3.23391 15.922,-10.86574 24.12474,-16.95961 12.63805,-9.38892 14.71075,-11.45967 13.58181,-13.56912 -2.05493,-3.83967 -1.57984,-11.45018 0.9393,-15.04676 2.73735,-3.90813 10.88985,-7.55953 14.3946,-6.44717 1.90548,0.60478 2.8955,-0.2404 4.00299,-3.41735 1.97788,-5.67375 7.3468,-8.09212 13.12387,-5.91152 3.55486,1.34181 4.75838,1.26407 6.62828,-0.42817 3.70044,-3.34886 10.74326,-2.57094 14.96743,1.65323 3.55872,3.55872 4.49396,3.7488 21.45868,4.36139 17.68062,0.63844 17.7523,0.6283 22.2374,-3.14566 3.59158,-3.02211 5.36253,-3.6046 8.77586,-2.88646 5.26098,1.10686 8.41668,1.10169 14.79609,-0.0242 4.2303,-0.74663 5.60697,-0.25751 9.49342,3.37298 3.56842,3.33341 5.38794,4.07779 8.46383,3.46261 5.68346,-1.13669 9.26506,1.40511 11.97367,8.49749 2.0361,5.33147 2.14014,7.22174 0.71006,12.90111 -1.36202,5.40912 -1.32959,6.86256 0.1734,7.76694 54.36533,32.71321 87.37943,46.87794 114.78196,49.24733 11.39553,0.98533 18.65485,-1.50587 21.29904,-7.30922 2.36989,-5.20134 1.99203,-6.96949 -2.60937,-12.21019 -5.5206,-6.28762 -14.2482,-10.24492 -26.73229,-12.12108 -28.44812,-4.27532 -36.50659,-5.84557 -45.23142,-8.81373 -31.2081,-10.61686 -53.76985,-29.39057 -78.27518,-65.13306 -7.95342,-11.60054 -19.72682,-22.69971 -29.21096,-27.53817 -4.91037,-2.50508 -7.36691,-2.9094 -13.23005,-2.17753 -3.96001,0.49432 -13.43513,0.20312 -21.05581,-0.64709 -13.32651,-1.48679 -14.29727,-1.40527 -25.41316,2.13426 -15.11388,4.81256 -18.03532,7.8123 -51.39423,52.77165 -26.85723,36.19672 -49.13006,46.07995 -101.57059,45.07041 -26.62759,-0.51262 -30.371,0.38638 -34.29379,8.23585 -3.2707,6.54463 -1.44757,14.72419 4.63833,20.81008 9.384,9.38401 22.67468,11.02289 44.45065,5.48125 z m 142.76247,-25.23205 c -0.46505,-1.14923 -1.19502,-2.94897 -1.62216,-3.99941 -0.42713,-1.05044 0.0431,-2.77429 1.04476,-3.83076 3.76385,-3.96946 13.41752,-17.41028 15.58719,-21.70202 3.48391,-6.89145 2.88891,-12.53363 -1.81812,-17.24065 -2.23952,-2.23953 -5.37378,-4.07187 -6.96503,-4.07187 -1.59124,0 -2.89316,-0.58207 -2.89316,-1.2935 0,-5.14036 -9.72284,-7.38949 -14.24654,-3.29559 -2.14331,1.93965 -3.11917,2.06754 -5.31456,0.69649 -3.49139,-2.1804 -8.96522,-2.149 -10.78098,0.0618 -0.78655,0.95769 -1.64688,3.30838 -1.91182,5.22377 -0.43201,3.1231 -1.03856,3.43814 -5.87702,3.05258 -4.00946,-0.31952 -6.21547,0.34058 -8.58842,2.56985 -5.333,5.01009 -5.47802,9.14466 -0.66378,18.92379 4.32053,8.77625 7.01781,11.63034 15.29661,16.18595 3.26015,1.79397 4.29209,3.24307 3.96795,5.57202 -0.36554,2.62646 0.36905,3.29011 4.43746,4.00889 2.68154,0.47375 8.54699,0.94389 13.03434,1.04475 6.74329,0.15156 8.01212,-0.17914 7.31328,-1.90613 z m 76.41343,-2.6859 c 0.0434,-3.34779 1.17641,-4.72541 6.32137,-7.6859 14.69478,-8.45559 20.08013,-39.0799 6.87229,-39.0799 -2.42494,0 -4.50969,0.8755 -4.97554,2.08951 -1.00216,2.61158 -3.28976,2.74222 -3.28976,0.18786 0,-1.04592 -1.2992,-3.55333 -2.88712,-5.57203 -3.1194,-3.96568 -8.97611,-4.87452 -14.01926,-2.17551 -1.99075,1.06542 -4.03193,1.06302 -7.10523,-0.008 -5.16464,-1.8004 -9.74877,0.59095 -13.38466,6.98221 -1.28463,2.25815 -3.48874,4.0546 -4.98071,4.05951 -4.38629,0.0144 -7.77122,4.15479 -7.77122,9.50554 0,5.87214 6.17405,16.0661 14.02808,23.16175 3.51869,3.17892 5.47399,6.15762 5.47399,8.33903 0,3.89145 2.0732,4.43074 16.66324,4.33453 8.99831,-0.0593 9.00171,-0.0609 9.05453,-4.13826 z m -34.92964,-3.31466 5.41469,-0.96447 -4.94375,-2.35672 c -6.89332,-3.2861 -13.83623,-13.80809 -14.64155,-22.18935 -0.57589,-5.99337 -0.21112,-7.09836 3.60216,-10.91164 2.33363,-2.33362 5.54488,-4.24295 7.13612,-4.24295 1.59125,0 2.89317,-0.62686 2.89317,-1.39301 0,-0.81941 -4.87553,-1.393 -11.84055,-1.393 -6.5123,0 -11.84055,0.24177 -11.84055,0.53727 0,0.29551 0.93642,2.33278 2.08093,4.52727 1.14451,2.1945 2.07102,5.2437 2.05892,6.77601 -0.0354,4.48403 -4.66743,13.30561 -11.70295,22.28808 l -6.54642,8.35804 3.9205,0.87994 c 5.38182,1.20793 27.79331,1.26299 34.40928,0.0845 z m 112.57896,-23.60814 c 5.91018,-3.81299 19.32164,-14.42201 25.95764,-20.53359 8.23087,-7.58039 23.96175,-31.29161 28.65321,-43.18908 2.11479,-5.36308 4.67348,-11.63161 5.68598,-13.93007 6.7605,-15.34686 8.98865,-25.75187 11.03718,-51.5412 l 1.65976,-20.89508 1.15661,16.6504 c 2.1135,30.42593 -1.26395,47.27558 -15.92883,79.46698 -4.29617,9.43072 -8.49692,20.52403 -7.97102,21.04992 0.65444,0.65444 9.36875,-7.72401 20.78254,-19.98157 8.10237,-8.70136 11.24836,-13.85804 23.92661,-39.2188 14.45864,-28.92215 20.45526,-43.25069 23.31313,-55.70519 7.63693,-33.28157 7.25679,-93.8524 -0.78094,-124.43413 -3.14896,-11.98107 -10.2309,-33.09219 -13.33431,-39.74933 -1.51406,-3.2478 -2.75283,-6.22092 -2.75283,-6.60692 0,-1.55249 -14.60823,-31.04332 -17.953,-36.24318 -8.34282,-12.96999 -47.94194,-63.184326 -52.99868,-67.205874 -6.59421,-5.244286 -34.3673,-23.232712 -43.97128,-28.479877 -24.97281,-13.643978 -37.36518,-18.227801 -67.56076,-24.99009 -10.21576,-2.287815 -52.32322,-2.311695 -64.77476,-0.03673 -23.52897,4.298862 -33.00874,6.90116 -45.27269,12.427838 -4.21384,1.898944 -10.37341,4.628073 -13.68795,6.06473 -11.02625,4.779232 -35.06724,22.783141 -35.06724,26.261288 0,0.602205 1.81471,1.846595 4.03269,2.765313 2.21798,0.918718 5.19796,2.718612 6.62216,3.999765 1.4242,1.281153 6.14861,5.036686 10.4987,8.345627 4.35008,3.308942 12.81017,10.23919 18.80019,15.40055 18.4145,15.86702 30.77832,23.13411 51.31406,30.1609 36.77793,12.58443 89.13228,-2.00254 113.67554,-31.67228 9.53634,-11.528245 12.20538,-14.261377 13.07641,-13.390359 0.89222,0.892221 -5.99005,13.174459 -11.39813,20.341339 -1.89596,2.51258 -5.1974,9.74604 -7.33651,16.07437 -4.98923,14.76012 -7.49086,19.62568 -14.30694,27.82648 -6.42897,7.73506 -6.42422,7.82802 1.33125,26.05663 6.60947,15.53502 11.23755,23.02346 24.12454,39.03445 11.07308,13.75736 18.00278,20.41127 40.17476,38.57591 12.56003,10.28992 21.02736,20.59048 21.02736,25.57989 0,1.54418 -2.99165,-0.5766 -8.73607,-6.193 -4.80483,-4.69777 -16.38056,-14.71396 -25.72383,-22.25819 -17.15488,-13.85175 -33.28282,-31.62147 -43.81195,-48.27196 -6.56689,-10.3847 -13.27993,-27.06224 -14.45321,-35.90686 -0.53088,-4.00197 -1.31182,-7.27631 -1.73543,-7.27631 -0.4236,0 -5.8278,4.92946 -12.00933,10.95434 -19.34824,18.85796 -32.13263,23.16696 -65.56636,22.09925 -17.16499,-0.54817 -25.86854,-1.68015 -48.7552,-6.34108 -35.32434,-7.19392 -49.63882,-8.37821 -63.6336,-5.26466 l -10.40586,2.31509 -3.01555,8.66536 c -6.98826,20.08119 -7.83923,27.3192 -7.73359,65.7786 0.0547,19.91997 0.8089,41.4486 1.67597,47.84139 3.8272,28.21754 29.60088,68.93375 54.33234,85.832 17.82778,12.18119 65.19746,23.38838 99.12708,23.45249 19.45848,0.0368 38.38377,-2.54907 47.96953,-6.55426 25.8593,-10.8047 63.85971,-38.91251 77.3861,-57.24025 7.05998,-9.566 19.51694,-49.21044 19.51694,-62.11291 0,-2.99632 0.62686,-5.44787 1.393,-5.44787 0.76616,0 1.39302,3.48994 1.39302,7.75541 0,7.39454 0.14583,7.71134 3.13426,6.80846 1.72384,-0.52081 3.72977,-1.50334 4.45761,-2.18338 2.30826,-2.15666 11.04928,-1.32628 15.66509,1.48816 3.01153,1.83624 4.99669,4.53423 6.13721,8.34093 3.17933,10.61167 -3.8274,19.99871 -20.39735,27.32673 -4.2258,1.86885 -9.89135,3.39791 -12.59014,3.39791 -4.35463,0 -5.1518,0.58791 -7.08304,5.22377 -3.71304,8.91303 -16.66783,26.03045 -25.66617,33.91324 -25.05157,21.94588 -46.06654,33.16018 -79.62519,42.49071 -5.17153,1.43787 -9.40279,3.09229 -9.40279,3.67647 0,0.58418 0.58939,1.06216 1.30975,1.06216 1.21845,0 18.5001,12.68865 21.72595,15.95176 0.79426,0.80344 4.24195,5.53534 7.66153,10.51534 3.41958,4.98 6.53227,9.36797 6.91707,9.75104 0.3848,0.38308 4.29882,5.08447 8.69782,10.44754 11.8792,14.48261 21.85577,23.2936 34.66845,30.6181 7.20463,4.11857 10.35204,4.33603 15.42149,1.06545 z M 395.31582,383.15613 c -3.11233,-1.25575 -5.40821,-3.91427 -4.32005,-5.00243 0.3458,-0.3458 2.37206,0.27571 4.50279,1.38115 5.12418,2.65846 9.82435,0.9118 15.67356,-5.82455 3.7612,-4.33167 4.50997,-4.72293 4.52726,-2.36573 0.0309,4.20731 -3.92474,9.06082 -9.17112,11.25289 -5.24901,2.19318 -6.9512,2.27799 -11.21244,0.55867 z m -15.81386,-35.31506 c 0,-3.1954 5.39579,-6.94876 9.98948,-6.94876 3.06458,0 5.38343,1.16481 7.715,3.87541 4.25214,4.94342 3.16098,6.10749 -2.168,2.31291 -5.14963,-3.66685 -7.80701,-3.70241 -11.35746,-0.15196 -3.27088,3.27088 -4.17902,3.46915 -4.17902,0.9124 z M 499.2787,319.03701 c -7.9107,-4.59206 -18.47232,-9.29181 -23.19453,-10.32118 -5.61936,-1.22495 -14.96508,1.21347 -21.86555,5.70497 -3.13214,2.03871 -5.13019,2.72306 -4.78067,1.63741 0.89093,-2.76731 13.25243,-9.10836 19.7872,-10.15018 3.66108,-0.58368 7.31594,-2.47501 10.22496,-5.29123 4.6184,-4.47108 6.17873,-3.76625 2.48207,1.1212 -1.12487,1.48719 -2.06515,3.17414 -2.08951,3.74875 -0.092,2.17093 8.87065,0.92779 13.37307,-1.85486 5.12263,-3.16596 6.33566,-1.80596 1.93853,2.17339 -1.51423,1.37036 -2.41752,3.03465 -2.00729,3.69841 1.18902,1.92388 6.65107,1.3998 10.02252,-0.96167 3.67578,-2.57461 4.06591,-1.21215 0.7136,2.49212 -2.05521,2.27097 -2.10303,2.80917 -0.34826,3.91911 3.29365,2.08331 6.20157,1.54598 11.65264,-2.15322 6.5279,-4.42995 6.93309,-4.37302 4.35526,0.61195 -4.41089,8.52974 -11.7504,10.56709 -20.26404,5.62503 z m -238.02965,-1.20889 c -3.79315,-3.79317 -3.93601,-6.35643 -0.24413,-4.3806 2.94415,1.57568 13.86888,1.94774 17.40027,0.59263 1.8454,-0.70816 1.51688,-1.64282 -1.97558,-5.6205 -4.87066,-5.54738 -5.66719,-9.33044 -1.05481,-5.00976 3.51271,3.29055 9.58808,5.90763 13.71419,5.90763 2.70887,0 2.70938,-0.0394 0.0488,-3.83077 -3.21577,-4.5825 -5.01576,-11.49229 -2.99372,-11.49229 0.78075,0 1.41955,0.823 1.41955,1.82889 0,1.00588 1.83908,3.59084 4.08685,5.74434 3.48484,3.33868 4.81862,3.77817 9.05454,2.98351 4.48975,-0.84228 4.96768,-1.36932 4.96768,-5.4781 0,-2.50039 0.88103,-5.75104 1.95785,-7.22367 1.83146,-2.50467 1.91093,-2.4321 1.23111,1.12419 -1.05841,5.53668 2.56415,10.21068 8.68338,11.20369 5.76934,0.93624 14.59476,7.03559 14.59476,10.08662 0,2.74796 -1.35944,2.53579 -4.86726,-0.75964 -3.76121,-3.53348 -14.61757,-5.6005 -21.40504,-4.07545 -2.87256,0.64542 -9.57647,3.21331 -14.89761,5.70643 -12.67352,5.93794 -25.32906,7.08459 -29.72081,2.69285 z m 305.26413,-24.58218 c -3.51567,-2.46247 -7.3135,-13.87648 -7.3135,-21.98005 0,-8.98894 -3.09752,-23.09073 -5.56184,-25.32091 -3.13463,-2.8368 -14.89902,-4.88474 -28.06043,-4.88474 -9.09657,0 -11.42631,-0.47239 -13.73992,-2.786 -1.53231,-1.53231 -2.78601,-3.38276 -2.78601,-4.1121 0,-1.38627 8.99389,-7.7665 15.80637,-11.21297 2.1812,-1.10349 5.55495,-3.89491 7.49722,-6.20317 3.32357,-3.94984 3.4838,-4.85397 2.7228,-15.36364 -0.44472,-6.14175 -1.50692,-13.14049 -2.36044,-15.55275 -2.09296,-5.91521 -1.23995,-15.8756 1.50691,-17.59579 5.36152,-3.35759 19.13623,7.67002 26.85696,21.50086 6.97039,12.48666 8.16013,13.36306 14.21868,10.47394 5.74137,-2.73787 17.33183,-13.12111 17.33183,-15.52662 0,-2.33468 4.61152,-6.30701 7.32186,-6.30701 3.4898,0 8.0012,6.81428 8.0012,12.08548 0,2.60959 -1.9592,8.5092 -4.35377,13.11023 -3.4772,6.68121 -4.20357,9.48537 -3.60774,13.92762 1.01265,7.54988 2.79806,9.3263 14.92654,14.85133 12.59275,5.73651 15.3297,8.01834 15.30173,12.75726 -0.0546,9.2662 -9.696,12.29258 -24.35627,7.64536 -12.48237,-3.95685 -15.86006,-4.5129 -17.18902,-2.82976 -1.46192,1.85153 -3.88143,12.63064 -4.99615,22.25834 -1.28193,11.07186 -7.78133,23.20661 -12.42951,23.20661 -0.92403,0 -3.05591,-0.96368 -4.7375,-2.14152 z m 8.66843,-8.42346 c 1.31485,-2.77086 3.30544,-10.72101 4.42353,-17.66701 3.74394,-23.25884 7.61942,-26.45731 24.86722,-20.5232 4.45372,1.5323 10.07372,2.78601 12.48887,2.78601 5.62274,0 9.54848,-2.78951 8.34381,-5.92884 -1.18687,-3.09293 -9.18129,-8.00122 -13.03207,-8.00122 -5.65018,0 -12.45111,-3.88222 -14.81756,-8.45842 -2.79897,-5.41261 -2.11057,-11.0579 2.79054,-22.8842 3.70132,-8.93122 4.42148,-15.9298 2.08789,-20.29016 -2.03874,-3.80943 -5.1107,-3.34196 -7.46746,1.13633 -2.33508,4.43711 -14.05359,16.01982 -18.5108,18.2963 -4.44812,2.27184 -9.45377,1.90035 -11.90806,-0.88373 -1.18195,-1.34077 -4.04883,-6.23648 -6.37087,-10.87935 -4.55598,-9.10965 -13.34664,-18.10513 -19.1053,-19.55047 -5.05498,-1.26871 -5.55325,-0.1383 -3.59126,8.14748 2.59936,10.97748 4.30334,31.54102 2.916,35.19001 -1.7092,4.49553 -6.26043,8.40311 -16.37602,14.06007 -4.81202,2.69104 -8.44353,5.38728 -8.07001,5.99164 0.37352,0.60437 7.83337,1.45119 16.57748,1.88184 26.16441,1.2886 30.80553,5.95806 34.27094,34.4802 1.52851,12.58049 4.40731,20.41219 6.93006,18.85305 0.63933,-0.39514 2.23821,-2.98548 3.55307,-5.75633 z m -53.32274,-3.44984 c -3.29967,-5.28361 -18.57055,-15.18516 -27.91523,-18.10008 -6.98777,-2.17971 -11.10856,-2.66829 -16.73926,-1.98463 -4.9066,0.59574 -7.17026,0.42272 -6.59738,-0.50422 1.62835,-2.63473 10.77875,-4.72513 16.64753,-3.80314 17.12082,2.68974 28.95506,9.75423 34.47922,20.58248 2.97659,5.83459 3.06467,8.51656 0.12512,3.80959 z m -264.9414,-5.35942 c 0,-0.69583 2.76453,-4.10964 6.14339,-7.58623 8.52179,-8.76828 17.69974,-11.39868 34.904,-10.00348 6.92083,0.56127 14.01665,1.02356 15.76849,1.02733 2.57233,0.005 2.87367,0.38219 1.5662,1.95759 -1.21438,1.46324 -5.31973,1.92149 -16.42808,1.83372 -8.14501,-0.0644 -16.68546,0.33632 -18.97877,0.89037 -5.82602,1.40756 -16.96602,7.13666 -20.23679,10.40743 -1.50614,1.50614 -2.73844,2.16912 -2.73844,1.47327 z m 298.44891,57.1552 c 8.16571,-3.95295 13.51515,-9.80817 14.49879,-15.86958 0.66929,-4.12433 0.18758,-5.61291 -2.77498,-8.57549 -1.97167,-1.97166 -5.02377,-3.57109 -6.78244,-3.55425 -2.80707,0.0268 -14.95761,4.71543 -15.08672,5.82156 -0.30641,2.625 -4.20946,22.05058 -4.88822,24.32876 -0.84122,2.82346 -0.58284,2.94601 4.02166,1.90752 2.70635,-0.61038 7.66171,-2.43671 11.01191,-4.05852 z"
         id="path2"
         sodipodi:nodetypes="ssssssssssssssssssssssssssssssssssssssssssssssssssssssscsssssscssssssssssscsssscsssssssssssssssssssssssssssssscssssssssssssscssssssscsssssssssssssssssscsssssssssssscssssscssssssscsssssssssssscssscsssssssssssssscssssssssssssssssssssssssssssssscssssssssssssssssssssssssssssssssssssssssssssssssssssssssssscssssssssssssssssssssssssssssssssssssssssssssssssssssccsssssssssscsscssssscsssssssssssssssssssssssssssssssssssssssscssssssssssssssssssssssssssssssssssssssssssssssssssssssssssssssssssssssssssssssssssssssssssssssssssssssssssssssssssssssssssssssssssssssscsssssssssssss" />
    </g>
  </g>
</svg>
