<?xml version="1.0" encoding="UTF-8" standalone="no"?>
<!-- Created with Inkscape (http://www.inkscape.org/) -->

<svg
   version="1.1"
   id="svg1"
   width="60mm"
   height="60mm"
   viewBox="0 0 226.77165 226.77165"
   sodipodi:docname="1stitch-sentado.svg"
   inkscape:version="1.3.2 (1:1.3.2+202311252150+091e20ef0f)"
   xmlns:inkscape="http://www.inkscape.org/namespaces/inkscape"
   xmlns:sodipodi="http://sodipodi.sourceforge.net/DTD/sodipodi-0.dtd"
   xmlns="http://www.w3.org/2000/svg"
   xmlns:svg="http://www.w3.org/2000/svg"
   xmlns:inkstitch="http://inkstitch.org/namespace">
  <metadata
     id="metadata104">
    <inkstitch:min_stitch_len_mm>0</inkstitch:min_stitch_len_mm>
    <inkstitch:collapse_len_mm>3</inkstitch:collapse_len_mm>
    <inkstitch:inkstitch_svg_version>1</inkstitch:inkstitch_svg_version>
  </metadata>
  <defs
     id="defs1" />
  <sodipodi:namedview
     id="namedview1"
     pagecolor="#ffffff"
     bordercolor="#666666"
     borderopacity="1.0"
     inkscape:showpageshadow="2"
     inkscape:pageopacity="0.0"
     inkscape:pagecheckerboard="0"
     inkscape:deskcolor="#d1d1d1"
     inkscape:zoom="2.4285714"
     inkscape:cx="141.02941"
     inkscape:cy="116.52941"
     inkscape:window-width="1848"
     inkscape:window-height="1016"
     inkscape:window-x="72"
     inkscape:window-y="27"
     inkscape:window-maximized="1"
     inkscape:current-layer="g1"
     inkscape:document-units="mm" />
  <g
     inkscape:groupmode="layer"
     inkscape:label="Image"
     id="g1">
    <path
       d="m 60.47565,202.84659 c -1.226937,-0.43551 -0.191962,-0.0264 -1.260658,-0.27515 -3.7466,-0.87288 -7.614648,-3.06277 -9.293518,-5.26152 -1.306651,-1.71129 -1.672203,-3.27658 -1.51951,-6.50675 0.149254,-3.15753 0.388607,-4.07173 1.48122,-5.65754 1.33587,-1.9389 1.897561,-2.14424 5.86648,-2.14435 3.269609,-1.2e-4 3.46235,0.0265 4.86361,0.71168 2.26594,1.1054 4.469658,3.46046 5.44656,5.82062 0.797889,1.92771 1.472069,4.57406 1.47987,5.80899 l 0.0042,0.66875 c 0,0 -0.973648,1.00184 -1.794875,2.46504 z"
       style="fill:#000000;fill-opacity:1;stroke-width:0.990799;stroke-linejoin:bevel;stroke-miterlimit:0"
       id="path1-8" />
    <path
       d="m 81.716037,207.5535 c -0.326551,-0.26721 -2.742331,1.08994 -4.459612,2.13146 -3.486992,2.1148 -5.32594,1.84895 -5.32594,-0.76992 0,-0.98019 -0.01474,-0.97913 -2.271398,0.16441 -1.027211,0.52055 -2.208038,0.94643 -2.624054,0.94643 -1.176287,0 -1.64245,-1.24282 -1.150889,-3.06834 0.229682,-0.853 0.91711,-2.96727 0.804291,-3.08008 m 0.154545,0.21467 c -0.242268,-1.26803 2.454932,-1.59688 3.003576,-3.41763 0.610537,-2.02617 0.94854,-0.40823 0.94854,0.70355 0,0.68614 0.159685,0.75209 1.302316,0.53772 1.982728,-0.37191 3.133617,0.0661 3.586348,1.36467 0.536379,1.53869 1.309451,1.17018 1.570602,-0.74857 0.269744,-1.9821 2.531334,-2.86999 1.694112,-1.02765 -0.628017,1.38202 -0.462187,1.70732 0.870316,1.70732 2.356777,0 3.407036,1.99416 2.100465,3.98823 -0.602154,0.919 -3.30833,0.40517 -2.209168,0.40517"
       style="fill:#000000;stroke:none;stroke-width:0.394341"
       id="path1-2" />
    <path
       d="m 134.98855,73.312245 c 0.53703,2.500951 0.37039,5.207131 -0.46353,7.525191 -0.39651,1.102186 -0.18822,2.023823 -0.46612,2.431786 -0.39859,0.585373 0.0378,-0.0076 -0.60246,1.253556 l -3.0073,2.872289 c -3.50097,3.343748 -4.98228,4.410558 -8.19575,5.901997 l -3.9309,1.028107 c -0.20069,-0.106582 -1.39453,-0.477014 -2.65308,-0.823256 -2.94753,-0.81086 -7.08777,-2.430463 -7.72085,-3.020259 -0.27137,-0.25285 -0.86607,-0.651212 -1.32162,-0.885392 -1.12811,-0.57993 -3.57165,-2.230828 -4.54522,-3.07079 -1.13662,-0.980712 -0.8681,-1.280996 -1.04042,-1.745575 m 0.30857,0.652573 c -1.366442,-1.504139 -1.745612,-1.306318 -2.460937,-2.68063 -1.01994,-1.959761 -1.21194,-2.681121 -1.47704,-5.548535 -0.12359,-1.3375 -0.298582,-2.814841 -0.38906,-3.282936 -0.135685,-0.702916 -0.107717,-0.798199 0.159874,-0.5472 0.574979,0.53949 0.81956,0.33789 2.020921,-1.666847 1.416792,-2.364171 4.095952,-5.089928 6.255532,-6.364309 2.83177,-1.671043 4.87846,-2.168164 9.4915,-2.305323 8.1038,-0.240756 12.16003,0.769209 16.25556,4.047798 1.00022,0.800731 1.8497,1.424807 1.88769,1.386785 0.0382,-0.03817 1.95258,7.160731 2.29088,4.767156"
       style="fill:#000000;fill-opacity:1;stroke-width:0.990799;stroke-linejoin:bevel;stroke-miterlimit:0"
       id="path1" />
    <path
       style="fill:#000000;stroke-width:0.039234;stroke-linejoin:bevel;stroke-miterlimit:0"
       d="m 104.6586,209.46995 c -2.43659,-1.53344 -2.89156,-1.83264 -2.88161,-1.89505 0.0209,-0.13131 0.54708,-2.40527 0.559,-2.41597 0.006,-0.006 0.49023,-0.16882 1.07533,-0.36252 0.66905,-0.2215 1.08291,-0.34124 1.11528,-0.32267 0.0283,0.0162 0.79505,0.6185 1.70388,1.33836 l 1.65242,1.30885 0.23741,1.66765 0.23741,1.66766 -0.38009,0.41735 c -0.20905,0.22954 -0.39033,0.41733 -0.40285,0.41731 -0.0125,-2e-5 -1.3248,-0.81946 -2.91618,-1.82097 z"
       id="path3" />
    <path
       style="fill:#000000;stroke-width:0.039234;stroke-linejoin:bevel;stroke-miterlimit:0"
       d="m 110.19195,209.55462 -0.17117,-1.10573 0.62451,-0.95868 0.62452,-0.95868 1.4052,-0.8425 c 0.77286,-0.46337 1.43769,-0.84247 1.4774,-0.84244 0.16367,1.4e-4 2.03832,0.4066 2.0626,0.44721 0.0145,0.0242 0.17927,0.29764 0.36617,0.60756 l 0.33983,0.56349 -1.12572,0.92871 -1.12573,0.92871 -1.93305,1.04819 c -1.06317,0.57651 -2.03212,1.10258 -2.15322,1.16905 l -0.22017,0.12085 z"
       id="path5" />
    <path
       style="fill:#000000;stroke-width:0.0277426;stroke-linejoin:bevel;stroke-miterlimit:0"
       d="m 136.98897,214.68141 -1.73713,-1.7774 -0.99415,-1.9862 -0.99415,-1.98619 0.78827,-0.8127 c 0.76561,-0.78935 0.79012,-0.81179 0.8527,-0.78093 0.14407,0.0711 4.19552,2.81779 4.30181,2.91647 0.009,0.009 0.2039,0.9395 0.43237,2.0685 l 0.4154,2.05274 -0.6478,1.04193 c -0.35629,0.57306 -0.65508,1.04176 -0.66399,1.04155 -0.009,-2e-4 -0.7979,-0.8002 -1.75333,-1.77777 z"
       id="path9" />
    <path
       style="fill:#000000;stroke-width:0.0277426;stroke-linejoin:bevel;stroke-miterlimit:0"
       d="m 144.84708,210.97269 c -1.88032,-1.66901 -3.43503,-3.05055 -3.4549,-3.07009 -0.031,-0.0305 -0.0132,-0.1577 0.12492,-0.89277 0.0886,-0.47149 0.16586,-0.86231 0.17176,-0.8685 0.006,-0.006 0.73881,-0.0226 1.62871,-0.0364 l 1.618,-0.0252 1.25086,0.49742 1.25085,0.49741 0.57525,1.05741 c 0.31639,0.58158 0.83362,1.5362 1.14941,2.12139 l 0.57415,1.06397 -0.10939,0.54448 c -0.0602,0.29947 -0.17524,0.8398 -0.25571,1.20073 l -0.14631,0.65625 -0.0894,0.0293 c -0.0491,0.0161 -0.26489,0.081 -0.47942,0.14425 l -0.39005,0.115 z"
       id="path10" />
    <path
       style="fill:#000000;stroke-width:0.0277426;stroke-linejoin:bevel;stroke-miterlimit:0"
       d="m 151.67096,208.89577 -1.80147,-0.50785 -1.03266,-1.3819 -1.03266,-1.38191 -0.0823,-0.31481 c -0.0453,-0.17315 -0.0978,-0.36834 -0.11663,-0.43377 l -0.0343,-0.11897 0.19257,-0.0559 0.19257,-0.056 2.08908,0.73716 c 1.14899,0.40544 2.17533,0.76788 2.28075,0.80543 l 0.19168,0.0683 0.88344,1.05207 c 0.58172,0.69276 0.87917,1.06631 0.87096,1.09375 -0.007,0.0229 -0.0357,0.17927 -0.0641,0.34743 -0.0284,0.16817 -0.0549,0.30807 -0.059,0.3109 -0.0897,0.0626 -0.61972,0.34779 -0.64342,0.34619 -0.0182,-0.001 -0.84371,-0.23077 -1.83452,-0.51009 z"
       id="path11" />
    <path
       style="fill:#000000;stroke:none;stroke-width:0.394339"
       d="m 136.76835,215.34383 c -0.78397,-1.0292 -1.62406,-1.88098 -1.86688,-1.89284 -0.24282,-0.0118 -1.69084,-0.84381 -3.21781,-1.84879 -4.00897,-2.63851 -5.58734,-3.49649 -7.50839,-4.08146 -2.22967,-0.67893 -2.11022,-0.70127 -3.28179,0.61362 -0.55892,0.6273 -1.66709,1.33554 -2.46257,1.57388 -1.22321,0.36647 -1.55329,0.33653 -2.13967,-0.19414 -0.78096,-0.70675 -1.79465,-0.82057 -2.15243,-0.24169 -0.20963,0.33919 -3.69532,2.26419 -4.09988,2.26419 -0.085,0 -0.25277,-0.49116 -0.37284,-1.09148 -0.33529,-1.67641 0.39146,-3.69945 1.65122,-4.59647 2.00029,-1.42433 1.52483,-2.01125 -2.19005,-2.70354 -3.02625,-0.56395 -3.35334,-0.56529 -3.78566,-0.0155 -0.68899,0.87622 -0.59803,1.13023 0.63264,1.76663 2.35552,1.21809 3.82138,5.13619 2.5315,6.76648 -0.51909,0.65609 -0.70531,0.57639 -3.41017,-1.45946 -2.66074,-2.00263 -2.94119,-2.12551 -4.00482,-1.75473 -1.257139,0.43824 -2.669329,0.0934 -4.828851,-1.17948 -1.636064,-0.96426 -4.673977,-0.72875 -8.405561,0.65164 -2.919548,1.08001 -6.783132,1.41265 -7.699613,0.66291 -0.326557,-0.26715 -1.180349,0.0563 -2.897631,1.09784 -3.486994,2.11479 -5.325941,1.84896 -5.325941,-0.76993 0,-0.98017 -0.01482,-0.97911 -2.271396,0.16439 -1.027211,0.52053 -2.208038,0.94642 -2.624057,0.94642 -1.176287,0 -1.642448,-1.24281 -1.150888,-3.06832 0.229687,-0.853 0.325298,-1.64321 0.21247,-1.75604 -0.112828,-0.11283 -1.103563,-0.0398 -2.201633,0.16223 -2.781364,0.51179 -9.228314,0.0608 -10.927882,-0.76431 -3.155016,-1.53188 -6.544518,-5.87013 -8.720927,-11.16201 -0.85756,-2.08513 -1.20622,-2.51469 -2.51763,-3.10183 -2.02889,-0.90836 -3.49043,-3.07757 -3.49043,-5.18049 0,-1.25349 0.25654,-1.89468 1.17788,-2.94403 0.64783,-0.73784 1.56914,-1.43973 2.04736,-1.55976 0.72573,-0.18214 0.93737,-0.60403 1.28015,-2.55194 0.47739,-2.71283 1.24046,-3.89297 3.290809,-5.0894 1.158162,-0.67583 1.847922,-0.81967 3.182217,-0.66365 3.211363,0.37552 6.603838,0.1822 6.927642,-0.39476 0.511708,-0.91178 2.41453,-1.67512 4.175649,-1.67512 1.520728,0 1.802906,-0.15396 3.032582,-1.65461 2.590559,-3.16144 7.605548,-5.53094 11.73498,-5.5446 l 1.953744,-0.006 0.882461,-2.0392 c 0.979121,-2.26254 5.174113,-9.76031 7.430027,-13.2798 2.733097,-4.26393 2.752242,-4.40306 1.089269,-7.91681 -1.353878,-2.86065 -1.447708,-3.28522 -1.429569,-6.46869 0.01664,-2.92224 0.170328,-3.72595 1.079899,-5.64768 0.583265,-1.2323 1.894762,-3.05317 2.91443,-4.04636 1.019672,-0.9932 1.701169,-1.90022 1.514437,-2.01563 -0.186731,-0.11541 -2.018674,-0.47641 -4.070988,-0.80222 -6.884817,-1.09299 -9.392572,-1.73894 -12.438494,-3.20392 -2.956016,-1.42174 -6.364158,-4.25525 -6.810783,-5.66245 -0.172808,-0.54447 -0.882457,-0.69167 -4.269554,-0.88565 -6.707936,-0.38417 -14.56643,-2.7961 -21.390958,-6.56533 C 30.46356,98.413716 19.62524,87.406866 16.52801,79.12856 14.57339,73.904217 14.31848,72.568186 14.12724,66.545841 c -0.21172,-6.667726 0.37087,-10.322706 2.61323,-16.394446 1.08252,-2.9312 1.32366,-3.306091 1.99627,-3.10355 2.09488,0.630829 6.35693,0.949794 7.73453,0.578847 3.03904,-0.81833 2.9692,-1.952477 -0.37354,-6.066204 -3.82199,-4.703516 -3.65589,-4.163488 -2.12221,-6.899807 2.34433,-4.182625 7.73644,-9.427257 12.96392,-12.609345 1.99263,-1.21296 2.47472,-1.350675 4.24738,-1.213322 2.75103,0.213159 4.243001,1.676127 5.442779,5.336951 0.821524,2.506674 0.8756,3.186031 0.742573,9.328468 -0.07892,3.643697 -0.152719,10.031997 -0.164021,14.196222 l -0.02054,7.57132 1.397413,4.678306 c 0.961609,3.219313 3.534678,9.386862 8.250616,19.776415 3.769259,8.30396 6.962037,15.03068 7.09506,14.94827 0.133023,-0.0824 0.295112,-1.57138 0.360205,-3.3088 0.146849,-3.91973 1.399228,-12.990099 2.213341,-16.030196 0.870122,-3.249223 3.569546,-8.860245 6.083031,-12.644165 1.189399,-1.790582 3.785994,-4.876178 5.770213,-6.856875 3.75684,-3.750184 7.333441,-6.056321 13.952429,-8.996316 3.073818,-1.365318 4.868153,-3.052294 6.934912,-6.519994 1.605559,-2.693891 2.981189,-4.542792 3.379939,-4.542792 0.17407,0 0.43357,0.624153 0.57668,1.387011 l 0.26022,1.38701 1.06881,-1.292369 c 0.58784,-0.710805 1.59577,-2.271908 2.23982,-3.469123 1.18058,-2.194531 1.7047,-2.50182 3.04433,-1.784867 0.8445,0.451956 0.97634,2.202027 0.30991,4.113738 -0.51689,1.482763 -0.35369,1.683806 0.9611,1.183922 0.56229,-0.21378 2.18686,-0.49692 3.61014,-0.6292 4.06316,-0.377632 5.89642,0.384425 3.32778,1.383303 -2.03722,0.792224 -4.44832,2.004849 -4.44555,2.235831 0.002,0.119247 2.51415,0.260066 5.58384,0.312923 6.49983,0.111925 12.62929,1.082963 17.69537,2.803329 1.87391,0.636349 4.28399,1.36777 5.35575,1.62538 1.07176,0.257607 2.7753,0.952535 3.78566,1.544286 3.39011,1.985522 11.49906,10.471015 14.44223,15.112852 3.2002,5.047212 6.03795,12.572562 7.11248,18.861412 0.68341,3.99975 1.12785,4.79809 1.49712,2.68925 1.25789,-7.18348 5.73426,-25.590638 8.63271,-35.498321 l 1.31682,-4.501251 -0.72892,-4.188229 c -2.51493,-14.450445 -2.76396,-26.072349 -0.66329,-30.955475 0.93371,-2.17048 1.45523,-2.387678 5.15603,-2.147379 5.84914,0.379792 11.84014,5.242199 18.85418,15.302415 6.95298,9.972622 10.53584,20.142012 10.51867,29.855473 -0.0121,6.840037 -1.59421,11.779029 -5.05597,15.78359 -1.31796,1.524616 -1.78935,1.808678 -3.32297,2.002432 -4.72732,0.597243 -8.79184,1.444735 -9.18168,1.914472 -0.75923,0.914797 1.29678,3.016839 4.64993,4.754046 0.78079,0.404518 1.41961,0.93005 1.41961,1.167856 0,0.237803 -0.54655,1.299057 -1.21457,2.358341 -5.33141,8.4541 -12.88305,15.42742 -20.57843,19.002504 -3.03731,1.41105 -7.72175,2.79819 -9.44967,2.79819 -0.98558,0 -1.23504,0.20229 -1.64391,1.333 -0.71112,1.96657 -4.28578,5.6169 -7.37358,7.5297 -1.48889,0.92233 -4.43916,2.2761 -6.55616,3.00841 -2.11699,0.7323 -4.50635,1.66678 -5.30969,2.0766 -1.6757,0.85488 -6.17314,4.16258 -6.17314,4.54011 0,0.13887 0.77247,0.66229 1.7166,1.16315 4.4385,2.35461 6.70132,7.5037 5.32875,12.12564 -1.17496,3.95651 -0.59377,11.54764 1.07743,14.07301 0.53671,0.81101 2.54868,2.63929 4.47105,4.06282 5.39505,3.99509 8.67662,8.02243 9.97824,12.24587 l 0.61904,2.00862 h 2.69531 c 3.83183,0 6.19205,1.2305 9.79118,5.10461 3.18219,3.42531 5.85929,4.85799 7.74089,4.14261 1.24679,-0.47402 3.6107,-0.12523 5.44315,0.80313 1.00896,0.51118 1.46483,1.06264 1.79818,2.17532 0.67903,2.26634 0.55822,4.37649 -0.31403,5.48536 -0.69332,0.88142 -0.70767,1.01987 -0.16224,1.56532 0.32911,0.3291 0.71397,0.60108 0.85525,0.6044 0.44082,0.0104 2.86646,2.28483 3.56293,3.34084 1.14506,1.73617 0.85933,2.92467 -1.31858,5.48467 -2.35854,2.77233 -2.50421,2.89071 -3.56628,2.89819 -0.61819,0.004 -0.88759,0.31053 -1.08771,1.23615 -1.05338,4.87217 -6.6284,10.26738 -12.61507,12.2082 -1.50993,0.4895 -2.82261,0.61283 -5.11065,0.48015 -4.2825,-0.24833 -7.09692,-1.49573 -11.76709,-5.21539 -4.13493,-3.29335 -7.20546,-5.09077 -9.38827,-5.4957 l -1.41963,-0.26335 v 1.74569 c 0,1.10233 0.1669,1.74568 0.45287,1.74568 0.24907,0 1.08552,0.43843 1.85878,0.97431 1.59169,1.10304 2.19017,2.63599 1.35514,3.47102 -0.46964,0.46964 -0.79664,0.45091 -2.4637,-0.14118 -1.05721,-0.37548 -2.0207,-0.5842 -2.14108,-0.46382 -0.12039,0.12039 -0.0324,0.70921 0.19539,1.3085 0.60823,1.59977 0.13624,3.50572 -0.99588,4.02155 -0.85936,0.39156 -1.1107,0.26334 -2.91346,-1.4862 -1.79984,-1.74673 -2.164,-1.93294 -4.15007,-2.12218 l -2.17712,-0.20745 0.28429,1.01374 c 0.66871,2.3846 -0.0849,5.74582 -1.2882,5.74582 -0.27397,0 -1.13955,-0.84208 -1.92349,-1.87127 z m -3.26694,-4.34994 c -1.89036,-2.88505 0.98621,-4.77252 4.07693,-2.6751 0.76704,0.52053 1.49452,0.94642 1.61663,0.94642 0.1221,0 0.12143,-0.61974 -0.002,-1.37721 -0.24914,-1.53521 -0.76227,-2.10394 -3.37664,-3.74252 -1.64626,-1.03182 -2.23752,-1.69446 -1.51192,-1.69446 0.53702,0 4.06329,1.97931 4.91834,2.7607 0.59384,0.54267 0.85177,1.20875 0.85177,2.1996 0,1.33782 0.75159,2.61102 1.54131,2.61102 0.49633,0 0.41771,-0.44852 -0.22836,-1.30269 -0.67306,-0.88984 -0.71963,-2.16774 -0.10151,-2.78582 0.57049,-0.57049 2.83811,-0.58684 4.42991,-0.032 0.66633,0.23228 1.29628,0.33756 1.39989,0.23394 0.34841,-0.34841 -0.2836,-2.08849 -1.06203,-2.92405 -0.69962,-0.75095 -1.00814,-0.80457 -3.30323,-0.57409 -2.14346,0.21527 -2.61512,0.15331 -3.07694,-0.40416 -0.50635,-0.61122 -0.44411,-0.63943 0.86859,-0.39363 0.7777,0.14562 2.11203,0.0768 2.96519,-0.15293 1.73636,-0.46755 2.85254,-0.008 4.38559,1.8031 0.76721,0.90667 2.02433,1.00613 2.02433,0.16015 0,-0.5099 -1.89809,-2.31823 -3.50173,-3.33613 -0.7808,-0.4956 -1.41963,-0.98413 -1.41963,-1.08563 0,-0.1015 0.31912,-0.50365 0.70916,-0.89369 0.55316,-0.55315 3.57411,-7.50239 3.64138,-8.37643 0.008,-0.10412 0.12139,-0.35964 0.25193,-0.56784 0.13056,-0.20821 0.5305,-1.82339 0.88877,-3.5893 0.91735,-4.52166 0.62866,-11.04438 -0.70403,-15.90685 -4.1653,-15.19752 -4.80701,-18.02491 -5.03967,-22.20437 -0.2415,-4.33868 -0.0207,-6.10684 0.63102,-5.05237 0.29331,0.47456 0.36377,0.47316 0.53448,-0.0107 0.10815,-0.30648 0.52836,-1.49419 0.93381,-2.63935 0.86548,-2.44451 1.56368,-6.37562 1.55193,-8.73803 -0.009,-1.84922 -1.20883,-4.89034 -1.9291,-4.89034 -0.2531,0 -0.35642,-0.10381 -0.22962,-0.23056 0.32418,-0.32418 -1.88339,-2.28089 -3.76784,-3.33966 -0.86975,-0.48867 -2.42175,-1.10387 -3.44888,-1.36712 -1.81957,-0.46635 -1.92476,-0.44608 -4.09712,0.78933 -2.98566,1.69793 -6.56936,4.60299 -7.65966,6.20918 -0.48799,0.71888 -1.02363,1.91168 -1.19029,2.65066 -0.36574,1.62161 0.19663,4.09589 1.12109,4.9325 0.62581,0.56636 0.68312,0.48166 0.94567,-1.39755 0.24683,-1.76672 0.32554,-1.9016 0.67362,-1.15447 0.28379,0.60919 0.2122,2.39423 -0.25581,6.37728 -0.59841,5.09294 -0.59735,6.88843 0.003,5.3236 0.23786,-0.61985 1.29339,-0.88729 1.29339,-0.3277 0,0.16189 -0.26911,0.67855 -0.59804,1.14814 -0.32892,0.46961 -1.50822,2.68713 -2.62067,4.92785 -2.74266,5.52429 -5.22711,12.35717 -6.42432,17.66862 -0.0469,0.2082 -0.19312,0.6341 -0.32485,0.94641 -1.18727,2.81483 -2.12107,16.92984 -1.58928,24.02295 0.25042,3.34014 0.38017,3.81535 1.26598,4.63628 0.82156,0.76138 0.89425,0.97483 0.43378,1.27362 -0.30425,0.19741 -1.43379,0.32888 -2.51011,0.29214 -2.83338,-0.0967 -3.91084,0.70451 -3.91084,2.90826 0,1.54676 0.0811,1.69482 0.9286,1.69482 2.43505,0 3.53716,1.5304 2.2893,3.17894 -1.30609,1.72549 1.39465,1.93347 3.02392,0.23287 1.31291,-1.37037 2.92363,-1.72726 5.14954,-1.14099 1.79967,0.47401 5.73305,2.85826 7.61391,4.61526 1.34507,1.25648 1.81906,1.13497 0.92074,-0.23605 z m 46.42814,-0.95875 c 5.54915,-2.52071 9.37112,-6.70223 10.98449,-12.01785 0.45938,-1.51357 0.96626,-2.75352 1.12638,-2.75548 0.16013,-0.002 0.18002,0.43921 0.0442,0.98035 -0.39202,1.56195 0.98716,1.01566 2.01424,-0.79782 1.1348,-2.0037 1.18036,-4.98709 0.0972,-6.36413 -0.43489,-0.55288 -1.00428,-0.89074 -1.30602,-0.77495 -0.35384,0.13577 -0.73363,-0.27022 -1.12177,-1.19916 -0.7763,-1.85796 -0.74065,-2.34782 0.19239,-2.64397 0.52613,-0.16698 0.7413,-0.50996 0.66249,-1.05602 -0.0892,-0.61774 -0.49602,-0.88339 -1.72293,-1.12494 -1.89091,-0.37224 -3.41516,-2.07933 -3.76132,-4.21246 -0.27657,-1.70426 -1.02918,-1.75267 -2.01864,-0.12983 -0.66741,1.09463 -0.94314,0.98804 -0.79739,-0.30824 0.0529,-0.47077 -2.32369,-1.67924 -3.30245,-1.67924 -0.38012,0 -0.84961,0.45149 -1.08258,1.04107 -0.41079,1.03958 -0.41144,1.03904 -0.45164,-0.37857 -0.0222,-0.78079 -0.21064,-1.41963 -0.41885,-1.41963 -0.20821,0 -0.37856,0.14822 -0.37856,0.32938 0,0.60288 -3.36552,1.28209 -5.48281,1.10651 l -2.08851,-0.17319 v 1.26148 c 0,1.02371 -0.14785,1.26148 -0.78438,1.26148 -0.72991,0 -0.76631,0.14457 -0.52423,2.08212 0.17925,1.43462 0.12885,2.08211 -0.16204,2.08211 -0.2322,0 -0.42219,-0.34917 -0.42219,-0.77593 0,-0.42676 -0.2599,-1.27854 -0.57756,-1.89283 -0.47241,-0.91353 -0.81844,-1.1169 -1.90035,-1.1169 -1.95091,0 -4.62379,1.86722 -5.78265,4.03964 -0.85208,1.59734 -0.66153,5.05089 0.33789,6.12363 l 0.78433,0.84188 -0.97362,1.95379 c -0.53549,1.07459 -0.97362,2.34623 -0.97362,2.82588 0,0.47965 -0.16711,0.87208 -0.37135,0.87208 -0.72067,0 -0.82606,-1.86536 -0.22265,-3.94101 0.55795,-1.91925 0.55898,-2.22372 0.012,-3.5279 -0.98479,-2.34828 -0.20896,-4.86279 2.38692,-7.73612 1.59847,-1.76932 2.52068,-2.20599 5.35837,-2.53724 1.96807,-0.22973 2.089,-0.30985 2.93342,-1.94316 1.15797,-2.23979 3.34405,-4.16423 4.7304,-4.16423 0.58995,0 1.0632,-0.12776 1.05168,-0.28392 -0.0465,-0.63094 -2.2513,-1.9797 -4.4431,-2.71808 -3.47326,-1.17004 -6.5749,-1.02563 -12.85534,0.5986 -0.46849,0.12115 -0.85178,0.062 -0.85178,-0.13148 0,-0.45155 3.24391,-1.87197 5.04809,-2.21043 1.61128,-0.30228 1.65428,-0.5357 0.52065,-2.826 -1.2319,-2.48884 -3.70346,-5.62588 -5.96514,-7.57132 -3.79517,-3.26451 -4.72311,-4.03449 -6.09968,-5.06132 -1.72779,-1.28882 -2.43521,-2.75483 -3.01061,-6.23903 -0.4983,-3.01733 -0.87249,-3.21787 -2.03317,-1.08969 -0.73235,1.34283 -0.73506,1.46721 -0.11076,5.08508 0.35197,2.03972 1.5146,6.34908 2.58361,9.57636 2.74438,8.28507 3.71826,12.38923 4.17712,17.60331 0.63197,7.1811 -0.0411,11.44511 -2.349,14.88268 -0.60296,0.89808 -1.78083,2.88014 -2.61749,4.40456 l -1.52119,2.77169 1.6192,0.85934 c 0.89056,0.47263 2.8416,1.07751 4.33564,1.34415 3.25793,0.58147 6.4416,2.01909 8.14767,3.67918 2.67875,2.60656 5.36168,4.20425 9.76721,5.81644 3.21863,1.17784 6.00878,0.99686 9.56976,-0.62072 z m -8.79911,-2.92601 c -1.69319,-0.89011 -2.2672,-1.46365 -3.15944,-3.15685 -0.97249,-1.84546 -1.07273,-2.35594 -0.92746,-4.72288 0.51568,-8.40202 9.05997,-15.19718 15.21728,-12.10211 0.81947,0.41192 2.01196,1.40332 2.64996,2.2031 1.06563,1.33583 1.17081,1.72928 1.29264,4.83523 0.12593,3.21034 0.0664,3.51926 -1.17891,6.11717 -1.57517,3.28607 -3.53701,5.34684 -6.31802,6.63665 -3.13416,1.45359 -5.07918,1.50229 -7.57605,0.18969 z m -9.64496,-19.50642 c -0.74561,-1.0645 -0.74137,-1.79183 0.0216,-3.69864 0.72672,-1.81624 2.28292,-3.03131 3.88237,-3.03131 2.49685,0 2.52369,3.67196 0.045,6.15069 -1.65145,1.65145 -3.05385,1.85717 -3.94892,0.57926 z m -74.409689,19.3911 c 4.604674,-1.47997 7.331903,-1.5193 9.862077,-0.1422 2.321613,1.26358 3.451002,1.0352 4.397272,-0.88918 0.44173,-0.89833 1.03665,-1.4893 1.63662,-1.62579 0.72812,-0.16561 0.99269,-0.5224 1.1626,-1.56774 0.35322,-2.17305 -0.11023,-2.87774 -2.08766,-3.17427 -2.469489,-0.37033 -4.899458,-2.44353 -2.864009,-2.44353 0.50716,0 0.828099,-0.337 0.991449,-1.04105 0.13284,-0.57259 0.48818,-1.43574 0.78964,-1.91813 0.71502,-1.14414 1.93425,-5.82353 2.62265,-10.06565 1.39025,-8.56728 0.006,-26.07747 -2.54842,-32.24094 -0.84261,-2.03295 -0.71357,-3.22558 0.21205,-1.95973 0.26619,0.36404 0.59297,0.66189 0.72617,0.66189 0.43528,0 0.24425,-3.12003 -0.52085,-8.50683 -0.91535,-6.44459 -0.97397,-8.69512 -0.21893,-8.40538 0.65911,0.25291 1.39242,-0.5963 2.27206,-2.63119 0.98148,-2.2705 0.92535,-3.92725 -0.17645,-5.20822 -2.03806,-2.36946 -8.095275,-5.52305 -15.373584,-8.00399 -4.87311,-1.66109 -5.050799,-1.74631 -7.601967,-3.64564 -1.934425,-1.44018 -3.880565,-4.37287 -3.880565,-5.84772 0,-0.53395 -0.272264,-0.59458 -1.756384,-0.39116 -0.96601,0.13241 -2.158493,0.24074 -2.649962,0.24074 -0.774608,0 -0.893577,0.18258 -0.893577,1.37134 0,1.17603 -0.08087,1.30422 -0.567849,0.90005 -0.578946,-0.48048 -0.734678,-2.17865 -0.336092,-3.66482 0.296078,-1.10396 1.330959,-1.46302 1.914936,-0.66439 0.645164,0.88232 2.714327,0.77418 6.371041,-0.33296 1.66569,-0.50432 4.56172,-1.38174 6.435621,-1.94982 5.963588,-1.8079 13.966213,-3.915054 17.194692,-4.527474 1.71922,-0.32614 3.24116,-0.66423 3.38207,-0.75132 0.31167,-0.19262 5.0803,-0.93321 9.70851,-1.50779 l 3.4071,-0.42296 v -1.11682 c 0,-0.9893 -0.16506,-1.1511 -1.44566,-1.41717 -3.26861,-0.67912 -9.72204,-3.18786 -9.72204,-3.77941 0,-0.16919 -0.1797,-0.30763 -0.39933,-0.30763 -0.45117,0 -4.51189,-2.6939 -5.4011,-3.58311 -0.83533,-0.83534 -1.39232,-0.71617 -1.39232,0.29787 0,2.17139 -1.270919,4.62162 -3.569464,6.88162 -2.771911,2.72544 -5.681249,4.33159 -10.220547,5.64245 -8.459206,2.442854 -14.586919,1.300954 -16.852774,-3.1405 -0.929289,-1.82155 -1.819191,-6.00949 -2.2287,-10.4884 -0.278156,-3.04227 -0.350845,-3.26865 -0.746355,-2.32444 -0.758047,1.8097 -1.230233,5.57357 -1.436003,11.44659 -0.109426,3.12316 -0.294746,6.104384 -0.411829,6.624904 l -0.212876,0.94642 -0.379705,-1.1357 c -0.398801,-1.192804 -4.385112,-10.652954 -5.583198,-13.249814 -0.384245,-0.83285 -1.668478,-3.6437 -2.853863,-6.24634 -1.18538,-2.602638 -2.632977,-5.689623 -3.21688,-6.859959 -1.48233,-2.971085 -5.139183,-11.664366 -5.434886,-12.920109 -0.134828,-0.572581 -0.497431,-1.041056 -0.805781,-1.041056 -0.456511,0 -0.572187,0.755819 -0.622828,4.069584 -0.18304,11.97755 0.477734,18.94384 2.396879,25.26928 1.189048,3.91906 3.831576,9.796044 4.851235,10.789134 0.320678,0.31232 1.06769,1.24926 1.660036,2.08211 0.917939,1.29063 0.75777,1.19167 -1.084509,-0.67006 -1.188831,-1.20138 -2.356778,-2.14818 -2.595441,-2.10398 -0.238666,0.0442 -1.616279,-0.0546 -3.061371,-0.21956 -4.74602,-0.541764 -12.48254,-3.697384 -19.06442,-7.776134 -1.10354,-0.68386 -2.09258,-1.15722 -2.19788,-1.05192 -0.31408,0.31408 7.42905,7.09774 9.8828,8.65821 1.24926,0.794484 2.48602,1.626614 2.74833,1.849184 1.32399,1.12338 9.467851,5.00787 12.962153,6.18274 4.062171,1.36581 9.639409,2.51018 12.244191,2.51235 1.137268,7.9e-4 1.498309,-0.16415 1.65306,-0.75593 0.226331,-0.86548 0.866822,-1.02788 0.866822,-0.21979 0,0.92732 3.82596,4.77123 5.643748,5.67023 0.956056,0.47282 2.760416,1.24523 4.009684,1.71647 1.249266,0.47124 2.612104,0.99698 3.028526,1.16832 2.146903,0.88336 5.045733,1.61822 9.739919,2.4691 5.216871,0.94562 8.677238,2.29233 11.270487,4.38624 l 0.94642,0.76417 -1.36188,-0.22308 c -0.749019,-0.1227 -2.198859,-0.62687 -3.221852,-1.12038 -5.075276,-2.44839 -6.401412,-1.98413 -8.886997,3.11122 -1.720827,3.52762 -1.909673,6.97684 -0.59843,10.93003 0.713304,2.15049 0.924911,3.39764 0.760614,4.48281 -0.220404,1.45579 -1.764784,4.81405 -2.64262,5.74641 -0.49191,0.52246 -3.973092,6.88204 -4.093417,7.47804 -0.04365,0.21621 -0.628554,1.56698 -1.299786,3.0017 -0.671234,1.43474 -1.117216,2.87756 -0.991075,3.20628 0.126142,0.32872 0.111484,0.47981 -0.03257,0.33575 -0.366357,-0.36636 -2.214028,5.00872 -3.80671,11.07413 -1.577322,6.00693 -2.062163,12.4031 -1.276957,16.84618 0.968797,5.48199 0.989322,5.25519 -0.525103,5.80282 -0.742912,0.26864 -2.564587,0.61813 -4.048175,0.77666 -2.217612,0.23695 -2.823172,0.45181 -3.404337,1.20789 -0.992639,1.29137 -0.89506,2.07109 0.372098,2.97339 1.905153,1.35659 2.706893,1.20493 3.255534,-0.61581 0.61054,-2.02617 1.357919,-2.76291 2.802819,-2.76291 0.633172,0 1.757828,-0.3407 2.499233,-0.75713 0.741405,-0.41642 1.555772,-0.75146 1.809704,-0.74453 0.859817,0.0234 -1.303841,1.48917 -2.788376,1.88891 -1.728729,0.46551 -3.374837,1.9674 -3.374837,3.07919 0,0.68615 0.159701,0.75209 1.302315,0.53774 1.982728,-0.37197 3.133616,0.066 3.586348,1.36468 0.536377,1.53866 1.309452,1.17018 1.5706,-0.74861 0.269759,-1.98208 1.744053,-3.82184 3.721907,-4.64455 1.161786,-0.48326 3.238659,0.16642 3.998093,1.25067 0.862515,1.23141 0.247291,1.57844 -0.798261,0.45027 -0.783371,-0.84526 -1.156235,-0.9751 -2.277781,-0.79309 -1.419717,0.23039 -2.112622,0.86674 -2.949845,2.70908 -0.628016,1.38199 -0.462185,1.7073 0.870316,1.7073 2.356778,0 3.407038,1.99418 2.100465,3.98826 -0.602152,0.91899 -0.594526,0.9331 0.504637,0.9331 0.613809,0 2.706103,-0.51108 4.649542,-1.13571 z M 94.902783,98.853426 c -0.254482,-0.25448 3.880478,-5.05084 4.354348,-5.05084 0.777039,0 0.17252,1.35386 -1.29757,2.90595 -1.721228,1.81724 -2.698619,2.50305 -3.056778,2.14489 z M 60.462999,203.96529 c 0.469801,-0.94212 0.460124,-0.94915 -2.134702,-1.548 -2.707409,-0.62484 -5.858706,-2.3746 -7.648815,-4.247 -1.744029,-1.82421 -2.363517,-3.58118 -2.313755,-6.56215 0.06023,-3.60846 0.647426,-5.60031 2.126854,-7.21465 1.135509,-1.23904 1.429982,-1.35424 3.916572,-1.53216 1.478813,-0.10581 3.453977,-0.0777 4.389256,0.0626 2.215455,0.33223 4.908384,2.14262 6.389705,4.29565 1.332126,1.93617 2.580813,5.56714 2.580813,7.50453 v 1.29126 l 2.176755,-0.012 c 1.244858,-0.007 2.471018,-0.23513 2.864112,-0.53313 0.637764,-0.48349 0.652837,-0.74891 0.208924,-3.67898 -0.419589,-2.76952 -0.633494,-3.30968 -1.739234,-4.39205 -2.837195,-2.77724 -2.663625,-6.52645 0.302143,-6.52645 0.733097,0 1.108657,-0.19235 1.108657,-0.56784 0,-1.43891 -4.383844,-0.008 -4.777213,1.55934 -0.124423,0.49573 -0.378109,0.90134 -0.563749,0.90134 -0.592791,0 -0.363001,-1.17233 0.45495,-2.32104 0.98995,-1.39025 0.706857,-2.39511 -0.58352,-2.07124 -0.505827,0.12696 -1.025358,0.0599 -1.154512,-0.14913 -0.129154,-0.20897 -0.05442,-0.37995 0.16608,-0.37995 0.220499,0 0.40091,-0.58822 0.40091,-1.30717 0,-1.40431 -0.67718,-3.23562 -1.196462,-3.23562 -0.174792,0 -0.319131,-0.21295 -0.320756,-0.47321 -0.0045,-0.71724 -1.833643,-1.45243 -4.189696,-1.68395 -1.974923,-0.19406 -2.199929,-0.1289 -3.501735,1.01411 -0.782543,0.68708 -1.393733,1.57697 -1.396995,2.03404 -0.0031,0.44691 -0.160046,1.0563 -0.348572,1.35421 -0.253628,0.40079 -0.410756,0.17927 -0.60418,-0.85177 -0.212817,-1.1344 -0.426202,-1.39343 -1.147883,-1.39343 -0.487557,0 -1.33672,0.20514 -1.887021,0.45587 -0.850654,0.3876 -1.054645,0.35924 -1.361607,-0.18927 -0.546913,-0.97729 -0.976767,-0.78175 -1.452881,0.66088 -0.527682,1.59889 -2.738247,3.61531 -3.9634,3.61531 -0.496253,0 -1.171742,0.10338 -1.501092,0.22978 -0.86288,0.33112 -0.7366,1.90217 0.20596,2.56236 l 0.804771,0.56369 -0.804771,1.0231 -0.80477,1.0231 v -0.97513 c 0,-1.6056 -0.63818,-1.50456 -1.47994,0.23429 -1.04512,2.15891 -1.0488,4.89253 -0.009,6.35342 0.4306,0.60472 0.99953,1.09949 1.26428,1.09949 0.26476,0 1.12028,1.30962 1.901162,2.91025 2.076525,4.25642 4.043952,6.96194 6.331528,8.70683 4.563581,3.48095 8.272612,4.43487 9.292371,2.38987 z m -1.855458,-27.27432 c -0.984154,-0.98414 -1.12119,-1.35087 -0.934558,-2.50096 0.279331,-1.7213 1.161619,-2.3757 3.223348,-2.39079 1.902617,-0.0139 3.601447,0.8579 4.190377,2.15045 0.612343,1.34395 0.508395,1.93858 -0.518382,2.96536 -0.744699,0.7447 -1.314263,0.92921 -2.868366,0.92921 -1.656428,0 -2.107304,-0.16815 -3.092419,-1.15327 z M 112.45954,201.646 c 0.35104,-0.84746 1.03599,-1.43769 2.41197,-2.07841 1.05693,-0.49216 2.23969,-0.8965 2.62833,-0.89852 0.57742,-0.003 0.66183,-0.19407 0.4617,-1.04476 -0.13472,-0.57258 -0.48974,-2.82978 -0.78896,-5.016 -1.68301,-12.29711 0.67109,-26.22998 6.38675,-37.80013 0.94405,-1.91105 1.97991,-3.85076 2.3019,-4.31046 0.33903,-0.48404 0.58607,-1.63688 0.58695,-2.73907 8e-4,-1.04678 0.25956,-3.49423 0.57492,-5.43879 l 0.5734,-3.53557 -1.19556,-2.42852 c -1.04986,-2.13256 -1.16892,-2.68656 -0.97704,-4.54581 0.13323,-1.29083 0.56021,-2.62199 1.09385,-3.41024 1.81097,-2.675 10.45783,-8.59264 18.08908,-12.37961 2.59659,-1.28853 4.95113,-2.55575 5.23232,-2.81601 0.28118,-0.26027 0.62684,-0.46707 0.76814,-0.45959 0.60645,0.0321 -1.98375,1.78013 -6.70607,4.52554 -4.66898,2.71441 -5.00482,2.98254 -4.24493,3.38922 0.70583,0.37775 1.02849,0.28394 2.23087,-0.64864 1.79233,-1.39015 7.26924,-4.77405 7.8695,-4.86214 0.25104,-0.0368 2.24894,-0.93804 4.43975,-2.00266 7.85634,-3.81774 11.45068,-6.92943 13.98623,-12.10816 0.99829,-2.038944 1.03187,-2.067314 0.83462,-0.70481 -0.18681,1.29038 -0.12641,1.41839 0.66341,1.40614 3.02793,-0.047 8.28428,-2.152474 12.64739,-5.066004 2.93583,-1.96046 9.23194,-7.30179 9.23194,-7.83196 0,-0.22081 -0.12776,-0.33601 -0.28392,-0.25601 -3.18241,1.63038 -8.6736,4.12215 -9.46465,4.29483 -1.96017,0.42788 -3.31236,1.04618 -4.06908,1.86062 -1.51601,1.63163 -4.00005,3.70598 -4.19931,3.50673 -0.11239,-0.1124 0.58041,-1.03065 1.53956,-2.04056 7.49275,-7.88935 9.52308,-22.960373 5.6517,-41.952136 -0.50796,-2.491902 -1.06199,-4.669145 -1.23116,-4.838321 -0.16918,-0.169176 -0.67629,1.017877 -1.12691,2.637899 -0.45063,1.620021 -1.25575,4.393506 -1.78917,6.163302 -0.53342,1.769795 -1.14308,4.069584 -1.35481,5.11064 -0.45153,2.220112 -0.5152,2.46571 -0.83424,3.217811 -0.31983,0.753929 -3.44431,13.77172 -4.21823,17.574755 -0.33576,1.64998 -0.71329,4.33307 -0.83893,5.96241 -0.12566,1.62935 -0.34414,2.96245 -0.48553,2.96245 -0.14138,0 -0.72163,-2.66438 -1.28944,-5.92085 -0.56781,-3.25648 -1.257,-6.45063 -1.53156,-7.098115 l -0.49916,-1.177257 -0.25224,1.135698 c -1.29234,5.818684 -2.3302,8.270094 -4.4239,10.449224 -2.0826,2.16756 -4.42663,3.09652 -8.29131,3.2859 -7.15545,0.35065 -14.91882,-3.01849 -18.39533,-7.98319 l -0.74383,-1.06225 -3.3963,3.34603 c -2.57512,2.53699 -4.08281,3.67989 -6.23555,4.72683 -1.56159,0.75944 -3.13736,1.47253 -3.50174,1.58464 -0.3798,0.11686 -0.66249,0.57533 -0.66249,1.07441 v 0.87056 l 12.20875,-0.007 c 12.72805,-0.007 14.71635,0.15435 23.37645,1.89939 4.23402,0.85316 6.66762,1.12888 8.80166,0.99719 1.2587,-0.0777 1.36037,-0.62554 0.18928,-1.01991 -0.81522,-0.27455 -0.80611,-0.29386 0.21218,-0.45008 0.58517,-0.0898 1.29823,0.0311 1.58458,0.26885 1.15306,0.95697 1.12897,4.165434 -0.0313,4.165434 -0.40064,0 -0.48361,-0.2627 -0.30623,-0.96946 l 0.24332,-0.96947 -2.36127,0.16764 -2.36125,0.16763 -0.62555,1.84783 c -0.75117,2.21889 -3.46907,4.29019 -5.03427,6.44826 -2.07293,2.85811 -7.62942,6.18094 -5.11825,3.8854 2.48972,-2.27597 9.72844,-9.45915 9.72844,-11.36407 0,-0.95165 -0.17556,-1.08228 -1.98747,-1.478814 -9.61702,-2.10462 -17.73437,-2.80003 -29.71919,-2.54602 -15.96083,0.33828 -28.898199,2.57552 -44.574389,7.708224 -6.673009,2.18487 -6.624904,2.15847 -6.624904,3.63633 0,0.98086 0.419979,1.60658 2.242123,3.34048 2.702272,2.57139 7.687812,5.14151 15.305406,7.89016 5.297154,1.91137 8.511344,3.62474 9.531144,5.08072 1.05214,1.50212 0.69027,3.80526 -1.20021,7.63898 l -1.75685,3.56274 0.60097,2.18893 c 0.92421,3.36621 1.52552,9.74966 1.25273,13.29854 -0.21531,2.80122 -0.13072,3.51483 0.70296,5.93024 1.59556,4.62273 2.2157,9.76211 1.98528,16.45287 -0.2626,7.62511 -1.39724,13.42164 -4.02235,20.54877 -0.6698,1.8185 -1.13486,3.44061 -1.03347,3.60467 0.10141,0.16406 0.74204,0.34079 1.42364,0.39273 0.82756,0.063 1.67405,0.52918 2.5479,1.40303 1.36794,1.36794 4.45877,2.7787 6.16181,2.81247 0.76653,0.0152 1.10774,-0.25216 1.48538,-1.16386 z M 138.32789,93.330116 c -1.33472,-1.04009 -3.17422,-2.88178 -3.17422,-3.178 0,-0.27742 2.01062,0.21863 2.26762,0.55947 0.10618,0.14084 0.8319,0.73224 1.61269,1.31424 1.4185,1.05733 1.87843,2.15533 0.90283,2.15533 -0.28424,0 -1.00824,-0.38297 -1.60892,-0.85104 z M 73.06885,177.68553 c 0,-0.50371 0.241124,-1.90914 0.535826,-3.12317 0.294705,-1.21403 0.918929,-3.91088 1.387171,-5.99299 0.468239,-2.08211 1.014572,-3.9986 1.214077,-4.25887 0.262949,-0.34303 0.146837,-0.4732 -0.422125,-0.4732 -1.308047,0 -4.633919,0.80478 -6.082537,1.47182 -1.906691,0.87797 -4.550734,2.79643 -4.56793,3.31439 -0.0078,0.23799 -0.269899,0.53076 -0.582215,0.65061 -0.963155,0.3696 -0.634954,1.39933 0.951711,2.986 0.835755,0.83575 1.615605,1.9656 1.732996,2.51078 0.243946,1.13291 0.924154,2.66978 1.479518,3.34286 0.208211,0.25235 1.272928,0.46529 2.366037,0.4732 1.853865,0.0135 1.987471,-0.0471 1.987471,-0.90143 z M 50.541806,99.197146 C 47.351631,91.445776 45.30525,83.970436 44.712467,77.90282 44.420001,74.909183 44.458788,71.96526 44.869583,65.977991 46.121781,47.727473 46.601669,37.903813 46.383094,34.995381 45.669828,25.504434 43.86304,21.496493 40.29775,21.496493 c -2.06425,0 -8.05099,4.279337 -11.28887,8.069318 -1.77332,2.075685 -5.1536,6.994472 -5.1536,7.499207 0,0.149655 0.84782,1.179772 1.88405,2.289144 2.32055,2.484347 3.88481,5.272237 3.72471,6.638332 -0.24306,2.074064 -4.51665,3.327716 -9.46513,2.776599 -1.95083,-0.217265 -2.17405,-0.167097 -2.37902,0.534681 -4.7584,16.292265 -2.24786,29.813859 7.20219,38.790482 5.69718,5.41176 13.28215,9.11663 22.882852,11.17709 3.218702,0.6908 3.152429,0.69252 2.836874,-0.0742 z m 32.785259,0.11992 c 1.438282,-0.30487 4.421205,-1.49369 7.032927,-2.80292 6.6634,-3.34025 9.208479,-6.39544 9.208479,-11.05412 0,-0.8964 -0.22911,-1.89876 -0.50913,-2.22748 -0.97514,-1.14471 -1.76227,-3.845602 -1.76227,-6.046924 0,-1.218876 -0.255531,-2.940392 -0.567849,-3.825594 -0.74191,-2.102804 -0.697811,-2.868063 0.05999,-1.041057 0.323859,0.780793 0.738098,1.419623 0.920531,1.419623 0.182437,0 0.759288,-0.843812 1.281908,-1.87514 1.212679,-2.393097 4.067809,-5.295814 6.677429,-6.788736 3.21531,-1.839413 6.75264,-2.456689 12.60395,-2.199426 6.49359,0.285503 9.84639,1.375224 13.28427,4.317632 l 1.51426,1.296021 0.47403,-3.337588 c 0.26071,-1.835673 0.53301,-3.865734 0.60511,-4.51124 0.0721,-0.64551 0.22206,-1.326928 0.33324,-1.514263 0.11117,-0.187339 0.32499,-0.912959 0.47514,-1.612494 0.46191,-2.151931 1.9519,-5.102372 3.22734,-6.390695 1.2905,-1.303512 3.71141,-2.184262 4.93576,-1.795668 1.25005,0.396753 0.81873,-0.138879 -0.76066,-0.944629 -1.89322,-0.965843 -2.64059,-0.959246 -4.97243,0.04388 -1.03394,0.444787 -1.96246,0.726129 -2.06339,0.625206 -0.10088,-0.10092 0.24315,-0.610146 0.76461,-1.131601 l 0.94811,-0.948106 -1.41558,-0.61741 c -4.30085,-1.875842 -13.71061,-3.364115 -20.43712,-3.232386 -2.38926,0.04679 -4.27243,-0.06986 -4.29156,-0.26584 -0.0188,-0.192067 1.04533,-0.945452 2.36463,-1.674192 l 2.39874,-1.324981 -1.51427,-0.105008 c -0.83285,-0.05775 -2.45099,0.141224 -3.59587,0.442172 -1.14488,0.300948 -2.13666,0.492121 -2.20395,0.424827 -0.0673,-0.06729 0.14541,-0.911055 0.4727,-1.875022 0.66557,-1.960419 0.7766,-3.619044 0.24225,-3.619044 -0.34751,0 -1.9186,1.985335 -1.9186,2.424479 0,0.124017 -0.29812,0.535999 -0.6625,0.915515 -0.36436,0.379516 -1.28885,1.401644 -2.05442,2.271395 -0.76554,0.869752 -1.47458,1.581365 -1.57562,1.581365 -0.10109,0 -0.30208,-0.700579 -0.44673,-1.556841 l -0.26303,-1.55684 -1.50754,2.78718 c -0.829149,1.532947 -1.774299,3.085301 -2.100319,3.44967 -0.705388,0.788344 -0.25126,0.871061 1.703819,0.310349 0.67531,-0.193676 1.22784,-0.300597 1.22784,-0.237601 0,0.06299 -3.151559,1.682106 -7.003468,3.598025 -3.851909,1.915918 -7.00347,3.602472 -7.00347,3.747893 0,0.145421 0.596241,0.585499 1.32498,0.977951 1.478837,0.796407 1.793015,1.581297 0.473208,1.182178 -2.161935,-0.653783 -4.130643,-0.667396 -5.773659,-0.03992 -2.323279,0.887268 -2.343883,1.155167 -0.0967,1.257308 2.439574,0.110893 5.632044,1.560733 6.74179,3.061751 0.471831,0.638184 1.027459,1.055525 1.234728,0.927428 0.207273,-0.128102 0.271283,-0.06208 0.14225,0.14669 -0.129035,0.208783 0.367102,1.512761 1.102526,2.897737 1.484172,2.795039 1.509959,3.26844 0.05983,1.098511 -3.268444,-4.890811 -8.004589,-7.16522 -11.692988,-5.61524 -4.422991,1.858671 -9.102689,8.007166 -11.481949,15.085734 -1.675954,4.986152 -1.770501,13.932606 -0.196333,18.578226 2.064343,6.0922 6.818154,8.429064 14.03502,6.89926 z m -1.651719,-6.28122 c -3.494996,-0.88158 -6.020843,-2.88667 -7.551937,-5.99497 -1.277704,-2.59388 -1.194742,-7.723987 0.17226,-10.652321 1.993623,-4.270661 4.374538,-5.855461 8.805179,-5.86095 2.686466,-0.0031 3.220938,0.11857 4.732075,1.07928 5.043866,3.206662 8.28809,8.07687 9.039287,13.569711 0.289335,2.11566 0.243954,2.34834 -0.673508,3.45335 -2.809586,3.38395 -5.092978,4.47798 -9.69076,4.64311 -1.873902,0.0673 -4.04857,-0.0394 -4.832596,-0.23721 z M 89.262951,78.4492 c 1.193772,-0.836145 1.15635,-3.124478 -0.07278,-4.450733 -2.41639,-2.607329 -6.009595,-1.058304 -5.097007,2.197312 0.672947,2.400715 3.315204,3.552427 5.16979,2.253421 z M 105.62552,61.306082 c 0,-0.54573 3.69025,-2.357717 6.35176,-3.11884 4.31174,-1.233048 9.48452,-0.766123 11.42733,1.031506 0.48674,0.450355 0.48674,0.512405 0,0.508808 -0.30488,-0.0024 -1.39058,-0.257787 -2.41268,-0.567849 -3.70358,-1.12352 -8.64647,-0.54405 -12.64564,1.48248 -2.0283,1.027823 -2.72077,1.196789 -2.72077,0.663895 z m 2.46069,-4.84691 c 1.5774,-1.246791 4.1266,-2.125668 6.11377,-2.107812 1.09818,0.0098 2.1735,0.127222 2.3896,0.260781 0.85201,0.526573 0.30705,0.760018 -1.48438,0.635857 -1.78549,-0.123753 -5.43258,0.753507 -6.24294,1.50166 -0.1978,0.182618 -0.62369,0.326616 -0.94642,0.319995 -0.4614,-0.0095 -0.42501,-0.139905 0.17037,-0.610481 z m 47.7646,36.398754 c 4.95596,-1.47176 8.83174,-7.67521 8.86742,-14.19288 0.0199,-3.641954 -0.49921,-5.887935 -2.15819,-9.337088 -5.67539,-11.799634 -15.2297,-19.881937 -21.18111,-17.917796 -2.01926,0.666419 -4.11058,2.723057 -5.09673,5.012203 -1.69669,3.938536 -2.34549,11.766499 -1.32538,15.991248 0.79408,3.288634 0.71677,5.966689 -0.23617,8.18186 -0.71074,1.652153 -0.75566,2.073283 -0.36149,3.388913 1.77204,5.91452 14.19028,11.04181 21.49165,8.87354 z m -13.77176,-7.56381 c -5.59935,-1.57142 -5.85903,-2.00256 -4.71093,-7.821537 2.17126,-11.00466 6.88895,-16.406773 13.21809,-15.135701 6.72136,1.349844 9.7177,10.34776 5.93991,17.837337 -1.10592,2.192511 -2.5433,3.536661 -4.90482,4.586691 -2.3977,1.06612 -6.77233,1.31057 -9.54225,0.53321 z m 3.91409,-13.36213 c 1.78837,-1.44863 2.24897,-4.411819 0.89608,-5.764711 -2.55392,-2.553925 -6.48424,2.521561 -4.33204,5.594254 0.71324,1.018307 2.29255,1.096655 3.43596,0.170457 z m 36.73166,19.84217 c 6.56151,-2.81107 11.78375,-5.97154 14.08466,-8.52395 1.21817,-1.35132 2.70043,-3.71128 2.70043,-4.299457 0,-0.26476 -0.74883,-0.878632 -1.66406,-1.364166 -2.05468,-1.090002 -4.01443,-2.961786 -4.01443,-3.834235 0,-1.518794 2.97105,-2.737725 8.32845,-3.416916 2.85244,-0.361621 3.32921,-0.536424 4.19893,-1.539462 1.49917,-1.728998 3.66257,-6.29933 4.38025,-9.253599 0.87659,-3.608511 0.87823,-10.421208 0.003,-14.385507 -1.86859,-8.467862 -8.34493,-20.337008 -15.41822,-28.256888 -5.89407,-6.599512 -14.15267,-10.57633 -16.02608,-7.717149 -0.9849,1.503139 -1.73361,5.42246 -1.7376,9.095855 -0.008,7.867189 1.97938,24.148107 4.48366,36.720898 1.47692,7.414958 1.91317,15.944917 1.16728,22.823519 -0.40357,3.721757 -1.58497,9.481597 -2.22931,10.868847 -1.19691,2.57693 -1.82883,4.35351 -1.54855,4.35351 0.17806,0 1.65908,-0.57208 3.29117,-1.2713 z"
       id="path89"
       sodipodi:nodetypes="sssssssssssssssssssssssssssssssssssssssscsssssssssssssssssssssssscssssssssssscssssssscsssssssscssssssssssssssssssssssscsssssssssssssssscsssssssssscssscsscsssssssssssssssssssssssssssssssssssssssssssssssssssssssccsssssssssssssssssssscssssssssscsssssssssssssssssssssssscsssssssssssssssssssssssssssssssssssssssssssssssssssscssssssssssssscsssssssssssssssssscssssssscsssssssssssssssssssssssssssssssssssssssssssssssscssssssssssssssssssssssssssscccssssssssssssssssscsssscscsssssssssssssssssssssssssssssssscsssscsssscsssssssscccsssssssssssscssssssssssssssssssssssssssssscsssssssssssscsssssssssssscsssssssssscsssscsssssssssscsssssssssssssssssssssscsssssssssssscssssssssssssssssssssssssssssscssssssscssssssscc" />
    <path
       style="fill:#ff679a;fill-opacity:1;stroke-width:0;stroke-linejoin:bevel;stroke-miterlimit:0;stroke:none"
       d="M 44.751044,98.23894 C 24.898186,92.791276 14.723985,80.296936 15.607858,62.449898 c 0.137853,-2.783509 0.695659,-6.953649 1.239571,-9.266983 l 0.988928,-4.206065 4.531959,-0.156967 c 3.735023,-0.129363 4.759731,-0.327045 5.827274,-1.124171 0.712425,-0.53196 1.363682,-1.314977 1.447234,-1.740031 0.209675,-1.066653 -1.443792,-4.101999 -3.677614,-6.751183 -1.027606,-1.218675 -1.76549,-2.482459 -1.639751,-2.808404 0.598998,-1.552751 5.9319,-8.1503 7.949207,-9.834287 6.030335,-5.033942 8.937437,-5.895938 10.956534,-3.248765 2.9299,3.841297 3.406538,12.794829 1.875128,35.224096 -1.269012,18.586205 -0.682605,24.537033 3.586621,36.396842 1.866926,5.18627 2.125151,4.969778 -3.941905,3.30496 z"
       id="path90" />
    <path
       style="fill:#ff679a;fill-opacity:1;stroke-width:0;stroke-linejoin:bevel;stroke-miterlimit:0;stroke:none"
       d="m 179.90057,92.212911 c 0,-0.170454 0.50404,-1.772147 1.12008,-3.559313 3.10372,-9.004077 3.37654,-22.024013 0.76097,-36.316549 -3.0199,-16.50212 -4.5542,-31.857501 -3.75635,-37.593863 0.64286,-4.621952 1.48152,-6.2660556 3.19636,-6.2660556 5.32785,0 13.37636,6.6752516 19.83852,16.4536216 6.42464,9.721596 9.50984,17.613794 9.93643,25.41814 0.32547,5.954712 -0.28671,9.523055 -2.38966,13.929073 -2.14377,4.491527 -2.99624,5.164535 -7.55757,5.966499 -4.60356,0.809386 -7.08849,1.930793 -7.28169,3.286123 -0.13464,0.944466 0.58185,1.694938 4.46871,4.680723 l 1.11333,0.855224 -0.96821,1.561403 c -2.08666,3.365108 -6.09025,6.287456 -13.22326,9.652083 -4.93803,2.329257 -5.25766,2.446771 -5.25766,1.932891 z"
       id="path91" />
    <path
       style="fill:#67bbe0;fill-opacity:1;stroke-width:0;stroke-linejoin:bevel;stroke-miterlimit:0;stroke:none"
       d="m 109.92442,202.4076 c -1.61046,-0.36527 -3.15239,-1.14825 -4.96608,-2.5217 -0.94522,-0.71577 -2.22393,-1.39622 -2.84156,-1.51209 -0.61765,-0.11587 -1.12299,-0.32148 -1.12299,-0.45691 0,-0.13542 0.5162,-1.77284 1.14711,-3.63872 2.77335,-8.20198 3.7637,-14.04419 3.79549,-22.39038 0.0232,-6.08723 -0.44955,-9.83881 -1.72077,-13.65558 -0.57518,-1.72696 -0.74124,-3.26383 -0.94564,-8.75219 -0.17814,-4.78332 -0.44737,-7.61229 -0.95641,-10.04962 l -0.70848,-3.39224 1.52204,-3.23582 c 1.97896,-4.20722 2.28102,-6.68915 0.99948,-8.21218 -1.13864,-1.35319 -4.18019,-2.89816 -10.764449,-5.46781 -8.552861,-3.33795 -13.778128,-6.43375 -15.464387,-9.16217 -1.03117,-1.66847 -0.654036,-2.51331 1.478024,-3.31102 9.090666,-3.40126 22.295642,-6.690279 32.010002,-7.972888 9.86038,-1.301886 25.63471,-1.603727 34.60131,-0.662097 6.36374,0.668285 13.18271,1.988935 13.69052,2.651475 0.6027,0.78633 -0.37705,2.36966 -3.88109,6.2721 -4.32779,4.81986 -5.87492,6.01637 -11.93572,9.23081 -9.79404,5.19441 -16.87257,10.39485 -18.0066,13.22907 -0.93044,2.32542 -0.77956,4.66774 0.45667,7.0895 1.07569,2.10725 1.07594,2.10885 0.70463,4.5465 -0.2043,1.34119 -0.51157,3.82682 -0.68283,5.52365 -0.29326,2.90557 -0.44365,3.34616 -2.58409,7.57036 -6.173,12.18258 -8.49918,26.40355 -6.5173,39.84316 0.35559,2.41128 0.64718,4.42067 0.64801,4.46532 7.8e-4,0.0446 -0.25425,0.0826 -0.56682,0.0844 -1.13393,0.006 -3.9123,1.57753 -4.76391,2.69405 -1.02889,1.34895 -1.33109,1.48634 -2.62416,1.19306 z"
       id="path92" />
    <path
       style="fill:#67bbe0;fill-opacity:1;stroke-width:0;stroke-linejoin:bevel;stroke-miterlimit:0;stroke:none"
       d="m 147.98157,92.67947 c -4.97136,-1.061251 -10.59325,-4.232794 -12.4342,-7.014654 -1.28829,-1.946748 -1.30917,-2.632599 -0.21049,-6.91756 0.39988,-1.559624 0.3994,-2.794696 -0.002,-5.051926 -1.21895,-6.854619 -0.29202,-15.299992 2.07345,-18.891498 1.48057,-2.247944 4.73289,-3.822006 7.01316,-3.394223 5.75265,1.079202 12.97743,8.207428 17.46478,17.231384 l 2.16962,4.363031 v 5.051928 c 0,4.191778 -0.16713,5.413379 -0.9816,7.174842 -1.31102,2.835352 -4.11054,5.86696 -6.36665,6.894471 -1.73925,0.792114 -6.26509,1.079555 -8.72606,0.554205 z m 4.23976,-8.213556 c 6.92301,-3.082604 8.23578,-15.047681 2.22958,-20.321192 -1.40579,-1.234307 -4.08702,-2.387596 -5.5508,-2.387596 -3.26086,0 -7.30545,3.236581 -9.13268,7.308212 -2.30294,5.131603 -3.69855,12.521546 -2.6703,14.139544 0.48872,0.769013 3.5807,2.007961 6.06215,2.429089 2.94584,0.499935 6.28169,0.06996 9.06205,-1.168057 z"
       id="path93" />
    <path
       style="fill:none;stroke:none;stroke-width:0.394339px;stroke-linecap:butt;stroke-linejoin:miter;stroke-opacity:1"
       d="m 93.519337,65.313718 2.935038,6.391636"
       id="path94" />
    <path
       style="fill:#67bbe0;fill-opacity:1;stroke-width:0;stroke-linejoin:bevel;stroke-miterlimit:0;stroke:none"
       d="M 77.259563,99.464743 C 73.48545,98.827861 70.843895,96.521529 69.483645,92.675621 68.054014,88.63355 67.791408,81.815431 68.860332,76.492427 c 1.437971,-7.16076 6.668321,-15.04302 11.58956,-17.46574 2.697488,-1.327969 5.744734,-0.764525 8.73061,1.614316 2.291914,1.825962 3.653048,3.773511 5.517812,7.895044 1.891016,4.179562 2.193064,5.210689 2.47896,8.462684 0.256518,2.917762 0.659703,4.446467 1.557616,5.905759 1.13215,1.839977 0.79968,5.257817 -0.736522,7.571497 -1.7204,2.591114 -6.170372,5.497412 -11.86895,7.751663 -3.098739,1.225814 -6.295015,1.671602 -8.869855,1.237093 z m 12.530348,-6.5683 c 2.124808,-0.483804 3.448877,-1.247457 5.203775,-3.001259 1.914748,-1.913556 2.177279,-2.41701 2.024677,-3.882643 -0.33214,-3.189947 -1.415489,-6.18882 -3.190932,-8.832969 -1.80785,-2.692421 -6.092691,-6.214618 -8.056097,-6.622219 -1.398434,-0.290313 -4.883717,-0.116208 -6.218678,0.310649 -3.469502,1.109383 -6.026041,5.105565 -6.40891,10.017904 -0.137407,1.762974 0.12365,4.113379 0.599074,5.393741 1.260285,3.394056 4.797889,6.288032 8.377332,6.853167 1.47483,0.232854 6.256131,0.0855 7.669759,-0.236371 z"
       id="path95" />
    <path
       style="fill:#587cac;fill-opacity:1;stroke-width:0;stroke-linejoin:bevel;stroke-miterlimit:0;stroke:none"
       d="m 82.361804,205.49945 c -0.155989,-1.61787 -0.544836,-2.15936 -1.664902,-2.31843 -1.613878,-0.22921 -1.797967,-0.87267 -0.789022,-2.7579 0.748646,-1.39885 3.199111,-1.67154 4.382926,-0.48773 0.422717,0.42272 0.992652,0.5437 1.266525,0.26884 0.600294,-0.60245 -2.188636,-2.98592 -3.493857,-2.98592 -1.778361,0 -4.067549,2.07377 -4.825978,4.37183 -0.628159,1.90334 -0.871656,2.12572 -1.364087,1.2458 -0.374627,-0.66942 -1.432222,-1.07113 -2.820025,-1.07113 -3.063083,0 -2.345161,-1.68033 1.404661,-3.28769 2.725288,-1.1682 4.08057,-3.04258 1.639829,-2.26792 -0.853031,0.27074 -1.177332,0.0536 -1.147335,-0.7681 0.02299,-0.63005 -0.209981,-3.44348 -0.51774,-6.25209 -0.372634,-3.40067 -0.307482,-6.65522 0.195033,-9.74251 0.843599,-5.18277 3.752713,-15.34474 4.664697,-16.29447 0.325874,-0.33937 0.5925,-1.08552 0.5925,-1.65811 0,-1.04259 3.730499,-8.79687 6.873381,-14.28713 1.758296,-3.07155 1.759282,-3.09513 0.535742,-12.81667 -0.364966,-2.89979 -0.170371,-3.92505 1.325106,-6.9817 2.126221,-4.34583 3.405285,-4.80544 8.158941,-2.93173 1.925721,0.75906 4.031201,1.24153 4.678831,1.07217 2.76782,-0.7238 3.02541,4.3398 0.36572,7.18942 -1.22227,1.30957 -1.30837,1.94555 -0.92331,6.81976 0.23356,2.95652 0.60874,6.4774 0.83373,7.82416 0.36256,2.1703 0.27654,2.39781 -0.75669,2.00132 -0.99261,-0.3809 -1.09139,-0.21403 -0.66509,1.12359 2.8449,8.92686 4.24308,24.32943 2.97263,32.74695 -0.93798,6.21465 -2.98731,12.64413 -4.34711,13.63844 -0.87728,0.64148 -0.87639,0.80753 0.008,1.54168 0.54525,0.45252 1.81382,1.04137 2.81902,1.30855 2.51179,0.66763 2.56595,2.53624 0.14995,5.17338 -1.65061,1.8017 -2.29381,2.09973 -3.73064,1.72864 -3.936797,-1.01677 -7.191368,-1.03548 -10.944683,-0.0629 -2.182941,0.56567 -4.127485,1.02847 -4.321208,1.02847 -0.193723,0 -0.44381,-0.9499 -0.555752,-2.11088 z"
       id="path96" />
    <path
       style="fill:#587cac;fill-opacity:1;stroke-width:0;stroke-linejoin:bevel;stroke-miterlimit:0;stroke:none"
       d="m 130.86508,209.54954 c -0.77083,-1.24722 -5.46716,-3.23822 -7.63825,-3.23822 -1.19625,0 -2.74234,0.42912 -3.43577,0.9536 -1.89827,1.43578 -2.74561,1.21062 -2.39264,-0.63578 0.26044,-1.36243 -0.0214,-1.74683 -1.71383,-2.33678 -1.11404,-0.38836 -2.02553,-1.09506 -2.02553,-1.57044 0,-1.54005 1.98789,-2.9056 4.2298,-2.9056 2.4884,0 3.32636,-0.79831 1.9965,-1.90199 -1.38027,-1.14552 -1.82516,-8.50168 -1.08764,-17.98379 0.54549,-7.01312 1.11182,-9.88739 3.20296,-16.25561 1.39717,-4.25486 3.74532,-10.13274 5.2181,-13.06196 2.73155,-5.43278 3.24353,-7.08 1.9526,-6.28216 -0.52642,0.32534 -0.59653,-1.17736 -0.25581,-5.48242 0.31361,-3.96226 0.24594,-5.93062 -0.20389,-5.93062 -0.3703,0 -0.78756,0.65762 -0.92724,1.46138 -0.23717,1.36471 -0.30755,1.3327 -1.06384,-0.48386 -1.08239,-2.5998 0.16594,-5.2256 3.93655,-8.28038 4.55089,-3.68691 6.54611,-4.48524 9.086,-3.63547 3.31884,1.11037 6.4239,3.71412 7.4997,6.28887 1.46271,3.50074 0.0208,12.4378 -2.27931,14.12724 -1.47237,1.08148 -0.53316,8.19599 2.84149,21.52424 3.94282,15.57222 3.76239,20.92945 -1.05337,31.27526 l -1.93033,4.14698 2.4425,2.15861 c 1.34337,1.18723 2.12245,2.17077 1.73128,2.18564 -0.39116,0.0148 -1.22385,-0.53943 -1.85043,-1.23178 -0.89254,-0.98625 -1.89854,-1.23237 -4.64594,-1.13663 -4.17962,0.14565 -4.34251,1.33004 -0.22394,1.62822 2.82974,0.20489 4.50878,1.0149 4.50878,2.17519 0,0.33361 -1.01115,0.40972 -2.28038,0.1716 -1.36691,-0.25643 -2.63326,-0.13492 -3.16133,0.30333 -0.66794,0.55434 -1.08666,0.48326 -1.7317,-0.29396 -1.00018,-1.20514 -4.09012,-2.88869 -5.29722,-2.88618 -0.46427,7.9e-4 0.4711,1.14047 2.07861,2.53224 3.21395,2.78256 3.27621,3.69983 0.17162,2.52798 -2.18065,-0.82311 -4.06862,0.0295 -4.06862,1.83731 0,1.04293 -1.03786,1.1932 -1.62948,0.23594 z"
       id="path97" />
    <path
       style="fill:#587cac;fill-opacity:1;stroke-width:0;stroke-linejoin:bevel;stroke-miterlimit:0;stroke:none"
       d="m 171.806,210.96149 c -1.11386,-0.29142 -2.33085,-0.72701 -3.78894,-1.35617 -2.85203,-1.23061 -4.91675,-2.56085 -7.14026,-4.60031 -0.51709,-0.47429 -1.25228,-1.07429 -1.63375,-1.33334 -1.64309,-1.1158 -4.20247,-2.089 -7.12206,-2.70816 -0.78605,-0.16669 -1.8969,-0.45841 -2.46856,-0.64827 -1.03989,-0.34537 -3.04866,-1.33379 -3.04866,-1.50011 0,-0.0485 0.5135,-1.01453 1.14111,-2.14661 1.0382,-1.87271 1.8379,-3.22871 3.2138,-5.44941 1.76349,-2.84629 2.47395,-6.71332 2.19094,-11.92547 -0.34462,-6.34661 -1.17055,-10.32765 -3.86338,-18.62159 -2.14722,-6.61346 -3.48639,-12.1001 -3.48609,-14.28262 1e-4,-0.70569 0.37088,-1.63829 1.03531,-2.60399 0.70039,-1.01797 0.96189,-0.67922 1.42843,1.85042 0.52365,2.83926 1.02264,4.22567 1.88241,5.23012 0.22245,0.25988 1.13823,1.05571 2.03506,1.7685 2.30812,1.83449 5.55746,4.63888 6.56528,5.66627 1.89975,1.93665 3.72582,4.47575 4.71915,6.56186 0.65968,1.3854 0.75403,1.72082 0.55892,1.98704 -0.082,0.11185 -0.67009,0.33155 -1.40403,0.52451 -1.4863,0.39076 -2.49225,0.75844 -3.64162,1.33101 -0.92356,0.46008 -1.30662,0.77057 -1.18783,0.9628 0.12827,0.20753 0.65439,0.14753 2.34397,-0.26734 3.09206,-0.75923 4.31329,-0.92421 6.7911,-0.91743 2.04371,0.005 2.33632,0.0324 3.35603,0.30699 0.61441,0.16547 1.54863,0.47411 2.07602,0.68588 1.76895,0.71027 3.61827,1.92414 3.49711,2.29547 -0.0265,0.0815 -0.35094,0.18936 -0.72831,0.24219 -0.3742,0.0524 -0.99036,0.23317 -1.36926,0.40173 -0.97004,0.43155 -2.56084,2.03652 -3.31978,3.34936 -0.92696,1.60347 -1.08417,1.82265 -1.43915,2.00621 -0.18671,0.0966 -1.05237,0.27964 -1.92367,0.40687 -2.71574,0.39654 -3.77252,0.90849 -5.17731,2.50815 -2.71745,3.09439 -3.37983,5.31474 -2.37218,7.95172 0.4005,1.04812 0.39089,1.6343 -0.055,3.35265 -0.26313,1.01412 -0.35163,1.60866 -0.35037,2.35373 0.002,1.15304 0.15514,1.57098 0.57578,1.57098 0.23851,0 0.2988,-0.0731 0.37888,-0.45927 0.28558,-1.37741 0.51866,-2.03896 1.23536,-3.50652 l 0.78984,-1.61729 -0.56019,-0.67313 c -0.83824,-1.00726 -0.98616,-1.55086 -0.98616,-3.62417 v -1.72841 l 0.44976,-0.90983 c 1.214,-2.45581 4.53047,-4.4877 6.47102,-3.9646 0.79147,0.21335 1.31696,1.1461 1.7118,3.03843 0.1082,0.51853 0.43683,0.80217 0.61167,0.52792 0.14685,-0.23036 0.14106,-0.95237 -0.0196,-2.43488 -0.15162,-1.39975 -0.09,-1.5837 0.53096,-1.5837 0.60382,0 0.76956,-0.29587 0.83799,-1.49601 l 0.0596,-1.04472 0.75867,0.0865 c 2.75377,0.3141 6.06811,-0.18925 6.71852,-1.02032 0.19697,-0.25169 0.32624,-0.33173 0.40636,-0.25161 0.15666,0.15665 0.35055,1.2102 0.35055,1.90475 0,0.30713 0.0409,0.55842 0.0909,0.55842 0.05,0 0.23347,-0.31053 0.40768,-0.69006 0.3931,-0.85643 0.70583,-1.0816 1.39438,-1.00399 0.60466,0.0682 2.02457,0.71995 2.5667,1.17822 0.30883,0.26107 0.37166,0.38449 0.32203,0.63265 -0.0822,0.41088 0.0293,0.8017 0.22857,0.8017 0.0887,0 0.32805,-0.24164 0.53199,-0.537 0.6456,-0.93502 1.01021,-1.30006 1.29856,-1.30006 0.36249,0 0.56779,0.34367 0.78877,1.3204 0.50157,2.21692 1.82255,3.6687 3.76379,4.13647 1.36901,0.32989 1.69569,0.57879 1.69569,1.29196 0,0.36723 -0.19449,0.58228 -0.80371,0.88865 -0.22103,0.11114 -0.43982,0.25946 -0.48622,0.32958 -0.22818,0.34491 0.0318,1.47172 0.60026,2.60159 0.36214,0.71978 0.56167,0.91301 0.94281,0.91301 0.68788,0 1.3616,0.588 1.75644,1.53299 0.44534,1.06586 0.4187,3.02257 -0.0605,4.44679 -0.46089,1.36961 -1.58018,2.74627 -2.23286,2.74627 -0.17938,0 -0.19118,-0.0919 -0.11801,-0.91852 0.0683,-0.77129 0.054,-0.91854 -0.0888,-0.91854 -0.20894,0 -0.51318,0.69385 -1.2428,2.83439 -1.06779,3.13262 -2.28796,5.17497 -4.40054,7.36568 -2.63121,2.72853 -6.62565,5.01086 -9.96426,5.69334 -1.35133,0.27624 -3.35182,0.23267 -4.6262,-0.10077 z m 4.36303,-3.15744 c 3.11776,-0.75556 5.86309,-2.68222 7.61532,-5.34438 0.77544,-1.17813 1.87551,-3.43346 2.20575,-4.52218 0.24428,-0.80532 0.25401,-0.98176 0.19308,-3.50191 -0.073,-3.01765 -0.19423,-3.68015 -0.84897,-4.63792 -0.61647,-0.90174 -2.07637,-2.21828 -2.9954,-2.70122 -1.12385,-0.59056 -2.04335,-0.80718 -3.41418,-0.80435 -1.919,0.004 -3.60458,0.54998 -5.46098,1.76896 -4.15415,2.72776 -6.68136,7.60479 -6.50924,12.56155 0.0413,1.18842 0.0918,1.48038 0.36782,2.12411 0.86734,2.02293 1.82225,3.23782 3.14967,4.00719 2.13703,1.23863 3.71738,1.52994 5.69713,1.05015 z m -12.26539,-19.66049 c 0.70458,-0.33119 1.91752,-1.47333 2.47183,-2.32752 1.19118,-1.83565 1.17999,-4.10123 -0.0238,-4.80984 -0.74028,-0.4358 -2.11549,-0.21708 -3.1619,0.50286 -1.02893,0.70792 -1.96876,2.32785 -2.26041,3.89613 -0.15279,0.82159 -0.0616,1.31306 0.36993,1.99348 0.62832,0.99076 1.53162,1.24913 2.60433,0.74489 z"
       id="path98" />
    <path
       style="fill:#587cac;fill-opacity:1;stroke-width:0;stroke-linejoin:bevel;stroke-miterlimit:0;stroke:none"
       d="m 56.639868,204.5387 c -1.216904,-0.38919 -3.168856,-1.45234 -4.737078,-2.5801 -2.575148,-1.85184 -4.423007,-4.2281 -6.842951,-8.79967 -1.341534,-2.53431 -1.92414,-3.40987 -2.268966,-3.40987 -0.298018,0 -1.166787,-1.01511 -1.499054,-1.75158 -0.419731,-0.93032 -0.378688,-3.41381 0.07688,-4.65157 0.431454,-1.17228 1.118934,-2.24653 1.382255,-2.15991 0.11095,0.0365 0.22844,0.50712 0.274933,1.10127 l 0.08118,1.03753 0.872247,-1.09809 c 0.479738,-0.60395 0.845082,-1.11605 0.811879,-1.13798 -0.892213,-0.58933 -1.294657,-1.01829 -1.453851,-1.54962 -0.314328,-1.04914 0.253998,-1.64343 1.57164,-1.64343 0.868347,0 1.610479,-0.38978 2.694072,-1.415 0.719772,-0.681 1.142682,-1.26078 1.537255,-2.1075 0.299378,-0.64244 0.630052,-1.22104 0.734827,-1.2858 0.112892,-0.0697 0.365514,0.0919 0.620048,0.39678 0.505196,0.60514 0.614227,0.61646 1.828241,0.18977 1.755872,-0.61714 2.360178,-0.39416 2.640297,0.97425 0.181872,0.88845 0.383719,1.19211 0.647114,0.97352 0.121993,-0.1012 0.263037,-0.39824 0.31343,-0.65999 0.05039,-0.26175 0.132885,-0.6902 0.183312,-0.9521 0.116898,-0.60713 1.233746,-1.88038 2.170527,-2.47446 0.838572,-0.5318 1.618883,-0.58106 3.601787,-0.22737 1.717085,0.30628 2.66544,0.75665 3.082789,1.46401 0.187367,0.31756 0.410559,0.57738 0.495985,0.57738 0.08543,0 0.343765,0.41163 0.574091,0.91472 0.545983,1.19258 0.628821,3.04432 0.151806,3.39336 -0.572093,0.41861 -0.207416,0.72556 0.862025,0.72556 1.469013,0 1.554156,0.45646 0.434081,2.3272 -0.552852,0.92337 -0.662462,1.9327 -0.21969,2.02293 0.205995,0.042 0.369808,-0.14034 0.592148,-0.65903 0.416225,-0.97102 1.326283,-1.68324 2.678433,-2.09617 1.258066,-0.3842 1.965404,-0.2861 1.965404,0.2726 0,0.26559 -0.178486,0.34642 -1.097865,0.49722 -1.708843,0.2803 -2.365355,1.15611 -2.183974,2.91351 0.115494,1.11903 0.692626,2.21862 1.9637,3.7414 1.207152,1.44617 1.401049,1.99005 1.829025,5.13027 0.261905,1.92171 0.262402,2.07956 0.0077,2.46817 -0.358199,0.54669 -1.102361,0.74067 -3.319634,0.86536 l -1.826718,0.10276 -0.0056,-0.71493 c -0.02074,-2.61899 -1.512158,-6.78415 -3.148419,-8.79284 -0.914347,-1.12245 -2.427743,-2.27712 -3.920114,-2.99091 -1.410662,-0.6747 -3.283949,-0.9301 -5.753433,-0.78441 -2.930301,0.17288 -3.342556,0.30244 -4.399634,1.38275 -1.540145,1.57399 -2.14197,3.25554 -2.35265,6.57348 -0.260161,4.09728 0.82867,6.58269 3.882442,8.86218 1.693433,1.26407 3.869284,2.31052 5.900085,2.83757 1.901284,0.49345 2.49051,0.70923 2.49051,0.91208 0,0.37835 -0.536948,1.12629 -0.968935,1.34968 -0.627958,0.32472 -1.816939,0.29859 -2.953587,-0.0649 z m 7.116702,-27.02138 c 0.266017,-0.13757 0.752183,-0.54733 1.080371,-0.91059 0.680748,-0.75352 0.783876,-1.52101 0.345391,-2.57046 -0.59222,-1.41737 -1.914192,-2.17158 -3.991797,-2.27737 -1.640745,-0.0835 -2.400972,0.11681 -2.958797,0.77974 -0.482987,0.57401 -0.825581,1.92316 -0.682294,2.68695 0.155185,0.8272 1.63819,2.27005 2.558905,2.48962 0.943051,0.2249 3.051821,0.11052 3.648221,-0.19789 z"
       id="path99" />
    <path
       style="fill:#587cac;fill-opacity:1;stroke-width:0;stroke-linejoin:bevel;stroke-miterlimit:0;stroke:none"
       d="m 69.146418,178.20308 c -0.502235,-0.18737 -1.217705,-1.45554 -1.76314,-3.12517 -0.349368,-1.06945 -1.027605,-2.08031 -2.358315,-3.51486 -1.049168,-1.13104 -1.18908,-1.94804 -0.403193,-2.35444 0.267918,-0.13854 0.487123,-0.35379 0.487123,-0.4783 0,-0.6738 3.525621,-3.07149 5.5532,-3.77662 1.526153,-0.53074 3.774181,-1.01448 4.734397,-1.01875 0.687539,-0.003 0.773844,0.0329 0.673134,0.28064 -0.47988,1.18041 -2.542615,9.77917 -2.989547,12.46229 l -0.27047,1.62374 -1.617699,0.0305 c -0.889736,0.0168 -1.810204,-0.0413 -2.04549,-0.12908 z"
       id="path100" />
    <path
       style="fill:#587cac;fill-opacity:1;stroke-width:0;stroke-linejoin:bevel;stroke-miterlimit:0;stroke:none"
       d="m 102.69873,125.6109 c -0.0552,-0.0893 -0.32247,-0.16238 -0.59397,-0.16238 -0.34937,0 -0.858,-0.27457 -1.74062,-0.93966 -1.47503,-1.11146 -3.470877,-2.11861 -5.535339,-2.79324 -1.816849,-0.59372 -2.660337,-0.79298 -7.230957,-1.70818 -1.964737,-0.39341 -4.339474,-0.94366 -5.277189,-1.2228 -1.981178,-0.58974 -8.26729,-3.04786 -9.597037,-3.75283 -1.873953,-0.99347 -5.340576,-4.41467 -5.638575,-5.56468 -0.180248,-0.69562 -0.676285,-0.66699 -1.018985,0.0588 -0.305598,0.64721 -0.598738,0.79489 -1.606666,0.80941 -2.01856,0.0291 -8.26782,-1.24541 -11.820484,-2.41073 -2.085296,-0.684 -5.253664,-2.04464 -8.748467,-3.75697 -2.861335,-1.40196 -6.565252,-3.7197 -9.145691,-5.722942 -2.78795,-2.164338 -8.066263,-6.876819 -7.894694,-7.048388 0.09496,-0.09496 0.797907,0.273171 3.05903,1.602004 3.950036,2.32138 8.966792,4.630722 12.682022,5.837845 2.491071,0.809379 4.589632,1.235981 6.767399,1.375721 1.979144,0.12699 1.985559,0.13048 4.264341,2.32237 0.782527,0.75269 1.465244,1.32605 1.51715,1.27415 0.08691,-0.087 -0.885064,-1.44068 -2.288001,-3.1867 -1.081871,-1.346443 -3.65843,-7.158384 -4.686335,-10.570952 -0.924024,-3.067708 -1.566675,-6.51405 -1.998383,-10.716756 -0.364287,-3.546347 -0.429037,-17.553369 -0.08394,-18.158889 0.201914,-0.354291 0.234987,-0.361535 0.510808,-0.111922 0.162204,0.146793 0.522579,0.918851 0.800829,1.715689 0.867392,2.483956 3.505784,8.598577 6.01658,13.943758 4.619873,9.835151 8.411507,18.432278 10.334341,23.432032 0.437079,1.13647 0.839928,2.06811 0.895223,2.07027 0.232667,0.009 0.420965,-2.278043 0.79507,-9.657369 0.183948,-3.628377 0.494143,-6.416669 0.876109,-7.875193 0.302652,-1.155659 0.570735,-1.852239 0.673358,-1.749617 0.04485,0.04485 0.224895,1.388489 0.400101,2.985864 0.519585,4.737134 1.317618,8.411502 2.208885,10.170331 0.875442,1.727603 2.510156,3.043862 4.716403,3.797617 1.07566,0.367487 1.629135,0.446067 3.600537,0.511137 2.643103,0.0873 4.380911,-0.10308 7.169451,-0.785077 5.06235,-1.23817 8.447199,-2.959793 11.382512,-5.789448 2.365684,-2.280529 3.648024,-4.494095 3.837324,-6.623994 0.13978,-1.572602 0.39358,-1.63934 1.72067,-0.452465 0.8091,0.723629 3.89177,2.763744 4.77717,3.161546 0.37954,0.170533 0.69009,0.38434 0.69009,0.475132 0,0.385849 4.83258,2.377407 7.66565,3.159101 0.82969,0.228926 1.91042,0.539382 2.40161,0.689901 l 0.89306,0.273668 0.0478,0.993888 0.0478,0.993887 -1.59037,0.194523 c -3.18121,0.389088 -9.48429,1.310771 -10.4772,1.532056 -0.55992,0.124775 -2.25559,0.493624 -3.76814,0.819634 -5.64491,1.216708 -11.625945,2.816858 -20.388355,5.454648 -7.405901,2.22942 -8.939976,2.46362 -10.045322,1.53354 -0.557217,-0.46887 -1.327225,-0.52177 -1.678715,-0.11533 -0.87528,1.01213 -0.794429,4.34207 0.113889,4.69063 0.373727,0.14342 0.418449,0.0453 0.540004,-1.18446 l 0.109824,-1.11113 1.623752,-0.18902 c 0.893065,-0.10391 1.995733,-0.19528 2.450383,-0.20296 l 0.82663,-0.014 0.191728,0.85249 c 0.41072,1.82615 2.104831,4.08337 4.325266,5.76292 1.69848,1.28477 2.626814,1.73105 6.332627,3.04433 6.437298,2.28126 10.39625,4.07501 13.424149,6.08229 1.61741,1.07223 2.82655,2.11925 2.44739,2.11925 -0.10077,0 -0.22833,-0.0731 -0.28352,-0.16238 z M 95.968967,98.522382 c 0.971553,-0.617752 2.964183,-2.779059 3.408643,-3.697201 0.33708,-0.696309 0.34238,-0.759222 0.0854,-1.012896 -0.25628,-0.252961 -0.3664,-0.175454 -1.701133,1.197199 -0.784917,0.807224 -1.767138,1.929556 -2.18272,2.494078 -1.117527,1.518058 -0.976208,1.887388 0.389828,1.01882 z"
       id="path101" />
    <path
       style="fill:#587cac;fill-opacity:1;stroke-width:0;stroke-linejoin:bevel;stroke-miterlimit:0;stroke:none"
       d="m 97.210379,72.985428 c -0.228867,-0.393113 -0.468854,-0.933958 -0.533301,-1.201876 -0.158722,-0.659848 -2.373364,-5.460909 -3.87689,-8.404598 -0.728191,-1.425695 -1.224152,-2.596277 -1.224152,-2.889279 0,-0.34294 -0.07116,-0.478061 -0.234269,-0.444842 -0.12885,0.02623 -0.732028,-0.427235 -1.340396,-1.007726 -1.777958,-1.696481 -3.913418,-2.640684 -6.603874,-2.919928 -0.791988,-0.0822 -1.484022,-0.193505 -1.537861,-0.247345 -0.135077,-0.135073 0.224265,-0.344531 1.272892,-0.74195 1.911676,-0.724508 3.180869,-0.769759 5.640413,-0.201093 0.646299,0.149426 1.228265,0.218515 1.293256,0.153524 0.200218,-0.200218 -0.185383,-0.64732 -1.020487,-1.183263 -0.439102,-0.281799 -0.971543,-0.650218 -1.183209,-0.818704 l -0.384848,-0.306343 1.846223,-0.990061 c 1.015421,-0.544531 4.184424,-2.183283 7.042226,-3.64167 4.893188,-2.497072 5.806448,-3.108397 3.751018,-2.510865 -0.48303,0.140419 -1.10436,0.255314 -1.38071,0.255314 h -0.50246 l 0.5537,-0.771284 c 0.30452,-0.424204 1.1672,-1.879371 1.91705,-3.233707 l 1.36336,-2.462426 0.26036,1.379073 c 0.1432,0.758493 0.30365,1.422371 0.35657,1.475287 0.22591,0.225917 4.12803,-4.015777 4.61773,-5.019599 0.4926,-1.009742 1.53555,-2.172424 1.80137,-2.008147 0.30243,0.186918 0.11753,1.786572 -0.39476,3.415111 -0.52474,1.668167 -0.53345,2.06197 -0.0433,1.959473 0.20094,-0.04202 1.02297,-0.222644 1.82673,-0.401382 1.7973,-0.399683 3.77156,-0.579691 4.26924,-0.38926 0.33522,0.12827 0.23027,0.220845 -1.05544,0.931035 -2.01093,1.110772 -3.03697,1.876532 -2.81364,2.09987 0.11546,0.115466 1.81812,0.217166 4.84141,0.289177 8.1044,0.193041 14.80391,1.259501 19.48179,3.101197 l 1.66609,0.655948 -0.81362,0.860283 c -1.43693,1.519339 -1.11534,1.638946 1.54081,0.573086 1.99909,-0.802193 2.96226,-0.796326 4.57502,0.02788 0.64083,0.327491 1.20366,0.657786 1.25077,0.733988 0.0471,0.0762 -0.30539,0.106126 -0.78328,0.0665 -1.11785,-0.0927 -2.71163,0.422475 -3.80138,1.228757 -1.42406,1.053632 -2.90984,3.488174 -3.68832,6.043537 -0.23126,0.759105 -0.52792,1.709001 -0.65924,2.110876 -0.13132,0.40188 -0.5197,2.689841 -0.86309,5.084362 -0.34337,2.394521 -0.66289,4.39224 -0.71003,4.439388 -0.0471,0.04714 -0.55509,-0.312467 -1.12877,-0.79913 -3.67825,-3.120365 -6.74395,-4.164528 -13.17696,-4.488021 -4.34538,-0.218511 -7.93942,0.111255 -10.3858,0.952933 -3.5353,1.216321 -7.324,4.431466 -9.26377,7.861344 -0.41037,0.725629 -0.88156,1.494823 -1.047078,1.709324 l -0.300944,0.390002 z M 108.30066,60.667689 c 3.25844,-1.500455 5.57995,-2.030782 8.76827,-2.003037 1.71459,0.01491 2.32453,0.09562 3.92887,0.519807 2.72509,0.720518 3.27003,0.661922 2.20201,-0.236758 -1.18025,-0.993112 -3.36161,-1.534347 -6.18396,-1.534347 -3.23465,0 -5.66112,0.589506 -8.95874,2.176521 -2.10015,1.010716 -2.61705,1.387417 -2.46119,1.793603 0.14632,0.381326 0.55988,0.271884 2.70474,-0.715789 z m 0.82867,-4.059391 c 1.53302,-0.808108 3.07576,-1.165262 5.44655,-1.260916 2.40146,-0.0969 2.77082,-0.211121 2.2089,-0.683127 -0.55626,-0.46726 -2.69481,-0.595252 -4.34354,-0.25996 -1.93461,0.393428 -4.95244,1.938999 -4.95244,2.536368 0,0.290506 0.74538,0.139493 1.64053,-0.332365 z"
       id="path102" />
    <path
       style="fill:#587cac;fill-opacity:1;stroke-width:0;stroke-linejoin:bevel;stroke-miterlimit:0;stroke:none"
       d="m 139.71286,120.51075 c -0.30867,-0.22571 -0.30853,-0.23389 0.009,-0.58593 0.17743,-0.19636 2.07624,-1.40107 4.2196,-2.67713 7.66653,-4.56429 9.47105,-5.88065 11.66342,-8.50827 0.64032,-0.76744 1.7312,-2.01362 2.4242,-2.76927 1.63061,-1.77808 2.00213,-2.32906 2.64417,-3.92139 0.29172,-0.72349 0.59212,-1.3735 0.66755,-1.44445 0.0755,-0.071 1.09932,-0.18068 2.27528,-0.24383 l 2.13812,-0.11483 -0.15595,0.69407 c -0.20317,0.90422 -0.0939,1.16146 0.46589,1.09707 0.36839,-0.0423 0.48646,-0.17476 0.66819,-0.74911 0.4656,-1.471493 -0.1662,-3.356613 -1.22695,-3.660827 -0.52683,-0.151098 -1.99903,-0.01296 -1.99607,0.187258 7.8e-4,0.06147 0.3001,0.237226 0.66487,0.390488 1.11865,0.470021 0.75063,0.689423 -1.24804,0.744044 -2.16812,0.05927 -3.37736,-0.09429 -8.67386,-1.101781 -8.12828,-1.546053 -8.89414,-1.603193 -23.26023,-1.735307 l -11.32567,-0.104119 v -0.511668 c 0,-0.281413 0.0914,-0.628945 0.20297,-0.772292 0.11164,-0.143345 1.11633,-0.67499 2.23265,-1.181432 3.69758,-1.677466 4.8256,-2.489103 8.60588,-6.19209 l 2.6792,-2.624408 0.56831,0.835898 c 0.31257,0.459744 1.11633,1.386623 1.78613,2.059737 4.18302,4.203727 11.52303,6.669339 17.86797,6.002104 3.21359,-0.337941 5.30761,-1.239725 7.14475,-3.076877 1.84933,-1.849327 2.98287,-4.272401 4.12364,-8.814786 l 0.68241,-2.71722 0.34571,1.012281 c 0.38801,1.136144 0.92466,3.602165 1.65877,7.622528 0.78775,4.314125 1.11138,5.568339 1.37005,5.309655 0.0956,-0.09555 0.27121,-1.352856 0.66716,-4.7754 0.14464,-1.250289 0.40835,-3.003936 0.58604,-3.897001 0.78301,-3.935729 3.77829,-16.381476 4.27908,-17.780076 0.1439,-0.401874 0.47075,-1.68058 0.72635,-2.841563 0.50346,-2.28683 2.99556,-11.112591 3.68272,-13.042327 0.23285,-0.653917 0.48199,-1.128867 0.55362,-1.055437 0.39754,0.407514 1.87323,7.756552 2.40696,11.986888 0.56416,4.471479 0.71803,7.367142 0.61692,11.609822 -0.16995,7.131969 -1.19616,12.144332 -3.45501,16.875531 -1.11841,2.342526 -2.24137,4.025584 -4.11123,6.161757 -0.81118,0.926733 -1.47489,1.78997 -1.47489,1.9183 0,0.445171 1.27497,-0.463518 3.19271,-2.275483 1.97145,-1.862693 2.72217,-2.320967 4.58236,-2.797222 1.17721,-0.301398 3.79769,-1.418293 7.56102,-3.222654 1.41784,-0.679794 2.61643,-1.197459 2.66352,-1.150363 0.37719,0.377178 -7.11673,6.603543 -10.4462,8.679297 -3.55688,2.217527 -8.85279,4.217015 -11.18808,4.224075 l -0.7931,0.002 0.0813,-1.13662 c 0.0447,-0.625143 0.0187,-1.136623 -0.0577,-1.136623 -0.0765,0 -0.47643,0.675885 -0.88877,1.501973 -2.09512,4.19743 -4.71911,6.92565 -9.35108,9.72251 -1.48455,0.8964 -6.27238,3.28601 -8.81918,4.40167 -1.69396,0.74205 -4.59192,2.48164 -7.62567,4.57753 -0.97909,0.6764 -1.89675,1.22983 -2.03925,1.22983 -0.14249,0 -0.39994,-0.10297 -0.57212,-0.2289 z m 0.73808,-26.784664 c 0,-0.526999 -0.44829,-1.052528 -1.91482,-2.244656 -1.54172,-1.253266 -3.44356,-2.001667 -3.44356,-1.355092 0,0.315405 2.06731,2.371471 3.28787,3.269998 0.69607,0.512416 1.1249,0.713789 1.52006,0.713789 0.47053,0 0.55045,-0.05576 0.55045,-0.384039 z"
       id="path103" />
    <path
       style="fill:#587cac;fill-opacity:1;stroke-width:0;stroke-linejoin:bevel;stroke-miterlimit:0;stroke:none"
       d="m 68.01135,202.0112 c -0.580018,-0.20702 -1.505327,-0.79518 -1.951293,-1.24032 -0.665023,-0.6638 -0.685628,-1.28181 -0.07341,-2.20192 0.650392,-0.97747 1.154713,-1.2092 3.161328,-1.45256 2.389552,-0.2898 3.89507,-0.59155 4.891842,-0.98045 0.714492,-0.27875 0.84077,-0.50236 0.79834,-1.41362 -0.02733,-0.58686 -0.09901,-1.07523 -0.488657,-3.32922 -0.384028,-2.22144 -0.445975,-2.77017 -0.513857,-4.55193 -0.129272,-3.39314 0.31932,-7.60345 1.242895,-11.66528 0.254606,-1.11974 0.920684,-3.61539 1.356213,-5.08143 0.06687,-0.22511 0.121587,-0.41605 0.121587,-0.42431 0,-0.008 0.08433,-0.0151 0.187406,-0.0151 0.158994,0 0.184393,0.0108 0.167531,0.071 -1.312769,4.69164 -2.157925,8.42096 -2.463187,10.86898 -0.221863,1.77926 -0.309644,3.73315 -0.246592,5.48909 0.04829,1.34473 0.08308,1.81423 0.265603,3.58363 0.277504,2.69015 0.411864,4.29265 0.459583,5.48134 0.03518,0.87669 0.06815,1.00039 0.298243,1.11938 0.173225,0.0896 0.551023,0.0583 1.026959,-0.0848 0.471236,-0.14178 0.970824,-0.16292 1.057591,-0.0447 0.266727,0.36318 -0.901819,1.38171 -2.411746,2.10211 -2.087609,0.99603 -2.676118,1.33571 -3.236541,1.86805 -0.306477,0.29113 -0.544413,0.67336 -0.544413,0.87457 0,0.35011 0.433911,0.65867 1.024991,0.72889 0.106049,0.0126 0.19282,0.0351 0.19282,0.05 0,0.0371 -0.827865,0.16549 -1.063676,0.165 -0.380442,-8e-4 -0.478886,-0.11783 -0.478886,-0.56922 0,-0.54615 0.255291,-1.0283 0.871423,-1.64578 0.676758,-0.67824 1.380366,-1.09732 2.424585,-1.44412 0.735573,-0.24429 1.22855,-0.45537 1.736877,-0.74368 1.131943,-0.642 1.629193,-1.19955 1.069827,-1.19955 -0.199315,0 -0.737537,0.21655 -1.617099,0.65064 -1.190026,0.58731 -2.032868,0.85133 -2.717726,0.85133 -0.148137,0 -0.41014,0.0291 -0.58223,0.0646 -1.020763,0.21066 -1.556517,0.85343 -2.13768,2.5647 -0.345247,1.0166 -0.556546,1.3684 -0.930688,1.54952 -0.217076,0.10508 -0.611683,0.10736 -0.897962,0.005 z"
       id="path104" />
  </g>
</svg>
