<?xml version="1.0" encoding="UTF-8" standalone="no"?>
<svg
   version="1.0"
   width="70mm"
   height="70.652176mm"
   viewBox="0 0 198.42521 200.27389"
   preserveAspectRatio="xMidYMid"
   id="svg5"
   sodipodi:docname="1-unicorn.svg"
   inkscape:version="1.3.2 (1:1.3.2+202311252150+091e20ef0f)"
   xml:space="preserve"
   xmlns:inkscape="http://www.inkscape.org/namespaces/inkscape"
   xmlns:sodipodi="http://sodipodi.sourceforge.net/DTD/sodipodi-0.dtd"
   xmlns="http://www.w3.org/2000/svg"
   xmlns:svg="http://www.w3.org/2000/svg"
   xmlns:inkstitch="http://inkstitch.org/namespace"><sodipodi:namedview
     id="namedview5"
     pagecolor="#0bff00"
     bordercolor="#666666"
     borderopacity="1.0"
     inkscape:showpageshadow="2"
     inkscape:pageopacity="0.0"
     inkscape:pagecheckerboard="0"
     inkscape:deskcolor="#d1d1d1"
     inkscape:document-units="pt"
     inkscape:zoom="1.8830769"
     inkscape:cx="106.7402"
     inkscape:cy="133.82353"
     inkscape:window-width="1848"
     inkscape:window-height="1016"
     inkscape:window-x="72"
     inkscape:window-y="27"
     inkscape:window-maximized="1"
     inkscape:current-layer="g5" /><metadata
     id="metadata17"><inkstitch:min_stitch_len_mm>0</inkstitch:min_stitch_len_mm><inkstitch:collapse_len_mm>3</inkstitch:collapse_len_mm><inkstitch:inkstitch_svg_version>1</inkstitch:inkstitch_svg_version></metadata><defs
     id="defs5" /><g
     transform="matrix(0.1 0 0 -0.1 0 325)"
     fill="#000000"
     stroke="none"
     id="g5"><path
       d="m 645.95448,3135.7846 c -0.6798,-62.5429 27.8725,-213.4619 80.2182,-424.8844 l 32.6312,-132.5639 -41.4688,-40.1091 c -73.42,-70.021 -103.3319,-80.2182 -142.0813,-47.5871 l -21.7541,18.355 -8.1578,-19.7146 c -21.0743,-50.3063 -3.3991,-141.4016 38.0697,-193.0675 l 20.3944,-25.833 -14.9559,-13.5963 c -24.4734,-22.4339 -67.3017,-40.7889 -131.2043,-55.7448 -139.3621,-33.9908 -210.7427,-105.3714 -218.9005,-218.2207 -6.1183,-84.9769 27.8724,-171.9932 91.0952,-235.216 69.3412,-69.3411 154.9979,-91.775 246.0931,-63.9026 26.5128,7.478 51.6659,14.2761 57.1045,14.2761 4.7587,0 35.3503,-10.1972 66.6218,-23.1137 31.9514,-12.9165 69.3412,-25.833 83.6173,-27.8724 13.5963,-2.7193 25.1532,-7.478 25.1532,-11.5569 0,-15.6356 -22.4339,-46.9071 -53.0256,-72.0603 -34.6706,-29.232 -63.9026,-75.4595 -79.5384,-128.485 -17.6752,-57.1045 -16.3156,-58.4641 32.6311,-36.0302 87.6962,40.7889 168.5942,40.109 288.2416,-4.0789 188.98862,-69.3412 178.79142,-67.3017 290.96082,-66.6219 98.5732,0 104.0118,0.6798 161.1162,22.4339 32.6311,12.2367 77.4989,33.9907 99.9328,48.2669 104.0118,67.3017 158.397,198.506 137.3227,333.1093 -5.4385,35.3503 -6.1183,58.4641 -1.3596,65.942 14.2761,27.1926 28.5522,99.9328 28.5522,146.8401 0,84.9769 -30.5917,169.2739 -97.8934,269.2068 -18.355,27.1926 -34.6705,59.1439 -36.71,70.0209 -12.2367,79.5384 -85.6567,174.7125 -165.8749,214.1418 -27.1926,13.5963 -31.2715,19.0348 -41.4687,54.3852 -6.1183,21.7541 -21.0743,53.7054 -32.6311,72.0604 -20.3945,29.9119 -23.7936,31.9513 -50.3063,31.9513 -16.3156,0 -38.0697,-3.3991 -49.6265,-6.7982 -16.3156,-6.1183 -26.5128,-4.0788 -60.5036,11.5569 -36.0302,16.9954 -47.587,19.0348 -114.2089,19.0348 h -74.77972 l -22.4338,30.5917 c -12.2367,16.9954 -61.1834,89.0558 -108.7705,159.7566 -87.0163,130.5245 -143.4409,208.7032 -187.6289,258.3297 l -24.4734,27.1926 z m 137.3227,-235.8958 31.9513,-45.5476 -28.5522,-12.9165 c -16.3156,-7.478 -29.9119,-12.2367 -31.2715,-11.5569 -2.7193,2.7193 -42.1486,152.9584 -42.1486,161.796 0,6.7982 5.4386,0 70.021,-91.775 z m 74.7796,-109.4502 c 14.2762,-20.3945 25.1532,-38.0697 25.1532,-40.1091 0,-2.0395 -8.1578,-6.1184 -18.355,-8.8376 -10.1972,-2.0395 -31.2715,-12.9165 -47.587,-23.7935 l -29.2321,-19.7147 -6.7981,28.5523 c -4.0789,15.6357 -10.1973,36.71 -13.5963,46.9072 -6.1184,19.7146 3.399,33.3109 33.9907,45.5476 27.1926,10.877 30.5917,9.5174 56.4246,-28.5522 z m 76.8191,-116.2484 27.8725,-42.1485 -46.2275,-7.478 c -25.1531,-4.0789 -59.1439,-13.5963 -74.0998,-21.0743 -30.5917,-14.9559 -29.9119,-15.6357 -40.1091,31.2715 -5.4385,27.1926 -4.7587,29.2321 15.6358,46.9073 24.4733,21.0742 56.4246,35.3503 75.4594,35.3503 8.8376,0 23.1137,-14.2761 41.4687,-42.8283 z m 369.81942,-114.2089 c 22.4339,-36.7101 29.9119,-90.4155 21.0743,-141.4016 -10.8771,-56.4246 -27.1926,-93.8145 -63.9026,-142.7612 -43.5082,-57.7842 -61.1834,-117.608 -57.7843,-198.506 2.0394,-59.1439 4.0789,-67.9815 31.2715,-121.6869 32.6311,-65.942 34.6706,-87.0163 14.9559,-150.2391 -20.3944,-65.9421 -69.3411,-136.6428 -123.7263,-178.1115 -21.7541,-15.6357 -25.833,-16.3155 -121.0071,-15.6357 -77.49892,0.6798 -104.01172,-2.0395 -123.72632,-10.8771 -29.2321,-12.2366 -30.5917,-10.877 -14.2762,16.3156 10.1973,16.9953 15.6358,19.7145 42.8284,19.7145 72.0604,0 136.64282,35.3504 161.79602,89.7356 29.232,61.8632 26.5128,65.9421 -14.9559,27.1926 -55.0651,-51.6659 -89.05582,-65.942 -160.43642,-65.942 -55.7448,0.6798 -60.5035,2.0394 -146.1602,40.7889 -97.2136,44.188 -121.6869,48.2669 -173.3529,27.8724 -38.7494,-15.6357 -121.0071,-12.2367 -155.6776,5.4385 -103.3319,53.7054 -146.1603,180.8308 -97.2136,286.2022 27.8724,59.1439 52.3458,74.7796 152.9584,99.253 69.3411,16.9954 118.9676,40.7889 159.0767,76.8191 30.5917,27.8724 32.6312,28.5522 50.9862,19.0348 10.877,-5.4385 37.3898,-10.877 58.4641,-12.9165 54.3852,-4.7587 100.6126,12.9165 197.1463,76.8191 43.5082,29.2321 93.13472,57.7843 110.13012,64.5825 24.4733,8.8376 33.9907,17.6752 46.2274,42.1485 38.0696,72.7402 139.3621,167.9143 178.7913,167.9143 7.478,0 19.0349,-9.5174 26.5128,-21.754 z m -493.75552,-19.6156 c 0,-0.7646 54.9903,39.9517 146.6175,49.2601 22.6841,2.3045 63.55332,15.0338 109.69182,23.0557 39.8878,6.935 62.1851,-6.5698 75.6487,-9.1733 38.616,-7.4673 46.8521,-51.5794 29.0432,-62.3206 -40.1581,-24.2206 -73.3647,-91.1675 -94.6386,-106.267 -8.5938,-6.0995 -55.8589,-22.4776 -70.5487,-35.1255 -36.95832,-31.8209 -91.47262,-55.901 -127.51762,-79.6142 -38.0258,-25.0162 -136.6903,-46.0344 -145.1194,-44.2386 -29.5463,6.2951 -122.4645,60.081 -112.6527,75.9299 2.0395,4.0789 -23.4315,46.7342 -13.2343,46.7342 10.1972,0 82.5407,37.2771 90.0187,42.7156 15.6357,11.5569 112.6914,107.2014 112.6914,99.0437 z m 677.70552,-177.6136 c 29.4958,-35.4434 68.3863,-135.7099 10.5536,-216.4948 -39.4293,-87.0164 -74.7783,-93.5337 -99.7049,-131.3487 -1.8707,-2.838 -56.7823,-67.1633 -58.8217,-78.7202 l -7.4481,-32.4475 -26.4894,26.0518 c -8.8376,8.8376 -26.5128,36.71 -39.4293,62.5429 -27.1926,54.3853 -31.2715,102.6521 -12.9165,165.1951 8.1578,29.9119 7.4329,49.5848 48.9016,90.3737 14.1961,39.9629 21.0891,49.2805 35.5887,70.0215 8.9352,11.339 16.3329,67.8047 61.1482,118.7484 10.1972,24.4733 81.8196,-53.5278 88.6178,-73.9222 z m 89.3357,-216.0984 c 72.7402,-99.9328 87.0163,-227.7381 36.71,-329.0305 -63.2228,-129.1649 -212.1023,-208.0234 -390.8937,-208.0234 h -49.6265 l 31.9513,35.3503 c 37.3899,42.1486 81.5778,118.9677 93.1347,163.8355 8.8376,33.9907 12.9165,36.71 39.4293,21.754 34.6705,-19.7146 39.4293,-14.9559 35.3504,36.0302 -4.0789,61.8632 9.5174,87.0164 80.898,151.5988 56.4246,50.9861 82.2576,90.4154 91.775,140.7217 2.7193,12.9165 6.7982,20.3945 8.8376,16.9954 2.7193,-2.7192 12.9165,-16.3155 22.4339,-29.232 z m 49.6265,-440.5202 c 0,-6.1184 -3.3991,-16.3156 -6.7982,-21.0743 -4.0788,-6.7981 -2.7192,-8.1578 3.3991,-4.0789 12.9165,8.1578 3.3991,-48.9467 -19.0348,-114.8886 -16.3156,-48.2669 -22.4339,-57.1045 -62.543,-93.1347 -42.8283,-39.4293 -98.5732,-71.3806 -152.9584,-88.376 -67.9815,-21.754 -189.6684,-5.4385 -312.0351,41.4688 -117.60802,45.5476 -161.11622,57.1044 -221.61972,57.1044 -31.9513,0.6798 -66.6219,-2.0394 -77.4989,-4.7587 -16.9954,-4.7587 -15.6358,-2.0394 15.6357,24.4734 25.1532,21.7541 50.9861,35.3504 91.0952,48.9467 l 55.7449,18.355 152.95842,-4.7587 c 163.8354,-5.4386 221.6197,-0.6799 309.3158,25.1531 65.9421,19.7147 157.7171,67.9814 190.3482,99.9327 30.5917,30.5917 35.3504,33.311 33.9908,15.6358 z"
       id="path1"
       sodipodi:nodetypes="ccccccccccccscsccscccccccccscccccsccsccccccccccsccscccccscccccccscsccccccccssccccccccccccccssssssssssscscsccscccscccccccsccccccccccccccccccccccccc"
       style="fill:#000000;stroke:none;stroke-width:0.679815" /><path
       id="path5"
       style="stroke:#000000;stroke-width:1px;fill:none"
       transform="matrix(7.5 0 0 -7.5 0 3250)"
       d="M82.65429185577456,15.488176210997036 82.80712308124357,19.298373830072848 83.33502919117817,24.254325398427525 83.80031655355167,27.392804897618245 84.20888946677421,30.148731268651346 85.42254591139046,36.993041197409575 88.81749161534296,53.30707066003645 93.46329046105382,72.95224322263141 97.24451543047513,88.31353484245211 93.48134549704893,91.95324405354535 90.29669131495572,94.8755820957533 90.1975986170295,94.96651264717175 87.49621267621826,97.17332504862618 85.36608185897273,98.59506969150917 83.84352938728166,99.29706965369782 82.74008316759456,99.51505289873138 82.56923168212616,99.50988463690118 82.38988228733842,99.47590204912878 81.36140581109593,99.03657426557531 79.9716096667301,98.04006132784077 72.8272203963792,92.01197518361398 69.4702710982552,100.12457693506072 68.48837889432583,103.43524192925135 68.06025451249947,107.22000638681298 68.15641812601443,111.1417943317355 68.71867782869526,115.12779180989637 69.7150962104098,119.09294028454224 71.12996588644312,122.94426083115223 72.96312310313382,126.58353619558748 75.12204775405819,129.74054762807205 75.47274575486881,130.18475907733918 75.38951573070018,130.25290439770248 74.13440236063327,131.08802401988905 72.60524474476235,131.9305090464494 70.84707232031928,132.74394962744995 66.3318208178421,134.3830490510819 60.63550061401247,135.91850288690716 57.156497577520156,136.853961281829 53.77784464536416,137.94870244980376 50.59215924629647,139.18206567951148 47.599427336398776,140.55910159872596 44.80108961653825,142.08503653585734 42.20016137054763,143.76458173621288 39.80159451300915,145.60195015852628 37.612406111610724,147.5988179762764 35.64043214624963,149.75486895528584 33.894068627783255,152.0664436403603 32.38040294026034,154.52668695833458 31.104206287338762,157.12677124113955 30.067172144378006,159.8568683385368 29.2679062933028,162.70790254875055 28.702280592189922,165.67230465761457 28.35955757938264,168.79235174184367 28.29547224945012,173.4854715662301 28.768651150271623,178.19173133513263 29.757286434276423,182.8210710872903 31.23980786788917,187.3316204877262 33.1961624547476,191.6828419082105 35.607483745858126,195.8340426850897 38.45560444607535,199.74422289367885 41.73096776450839,203.38007871338453 45.664467631897026,206.8798810461825 49.80446199926204,209.7272785203983 52.055492525260064,210.96468440138375 54.30248851289436,212.0046726538226 56.60126850001175,212.8771848400221 58.94669332225344,213.57918106375027 61.33327623445558,214.1085432177606 63.75529371210802,214.46353046294172 66.20664216640692,214.64319196372853 68.68150655972647,214.64762089555708 71.17455432605801,214.4772189097143 73.74734165047636,214.1239961447847 78.52927944645347,212.98079760263445 83.33398513215934,211.67046825563267 84.95061369860896,211.33113597009174 86.90328176383963,211.89209404993895 92.52117693166235,214.0223177590813 99.0939185506739,216.4668814010406 102.09241295586158,217.4076048069892 102.09250215449738,217.4076255802789 102.81036730764698,217.57480774235876 102.18053839349172,218.3221248386517 101.21795786237801,219.46426498384463 98.58521141948331,221.90841233279087 96.76466572359368,223.5869608268332 94.9206733602988,225.5964630824417 93.20345155972619,227.78605616350268 91.61980240138152,230.1407424103032 90.17802920291969,232.64599133292128 88.88797319877993,235.2878242749494 87.76044868176632,238.05223455095498 86.8213292849347,240.8830614906063 85.47321990470614,245.67879485961615 85.18550518363669,248.15524526513803 86.29029784817838,251.72389311376025 89.99174425553238,253.03630291721086 92.63522359476308,252.50832701650205 96.76870243313164,250.77126671040588 100.89887321280926,249.0830958056053 105.02662042192563,247.8865398341487  M91.00490814422544,15.153223789002965 91.14667691875643,18.687626169927142 91.22915501188511,19.46192566618923 91.62717080882183,23.198474601572485 92.45851053322578,28.80606873134866 93.62985408860955,35.41175880259041 96.97650838465705,51.49372933996355 101.5875095389462,70.99175677736858 106.50788456952486,90.98086515754788 99.21265450295105,98.03675594645466 95.67100138297049,101.28668735282824 95.49520796200993,101.43029626690786 92.47118732378173,103.90067495137383 89.46051814102728,105.91013030849084 86.43927061271835,107.30313034630218 83.43231683240545,107.89714710126863 81.65936831787384,107.84351536309882 79.94191771266156,107.51809795087122 77.23599418890406,106.36222573442468 76.61803608049682,105.91913683070149 76.42914548750052,107.58899361318701 76.49938187398557,110.45340566826451 76.93212217130474,113.52120819010364 77.71250378959022,116.62665971545778 78.80943411355689,119.61253916884777 80.17627689686617,122.32606380441253 81.85895224594181,124.78665237192796 86.90483833205731,131.17802148714736 81.94655971138303,135.68550229731653 80.36368426929981,136.9814956022975 78.47319763936672,138.23937598011096 76.38095525523765,139.39209095355062 74.03332767968072,140.47825037255004 68.8497791821579,142.35995094891808 62.806848375405046,143.9888334934694 59.53110242247985,144.869638718171 56.57675535463584,145.82689755019624 53.85064075370354,146.8823343204885 51.350972663601226,148.03249840127407 49.07431038346175,149.27396346414264 47.01583862945236,150.60321826378708 45.168605486990856,152.01824984147373 43.52399388838927,153.51838202372363 42.07216785375036,155.10573104471413 40.80293137221675,156.78575635963972 39.707197059739656,158.5667130416654 38.77839371266122,160.45902875886048 38.013027855622,162.4739316614632 37.4106937066972,164.62249745124944 36.973519407810066,166.9136953423855 36.71064242061736,169.3068482581563 36.65852775054987,173.12332843376987 37.03794884972838,176.89706866486733 37.83671356572358,180.6373289127097 39.04219213211084,184.3049795122738 40.640637545252396,187.86015809178951 42.61711625414187,191.26275731491026 44.95539555392465,194.47297710632114 47.63123223549161,197.44332128661546 50.83013236810298,200.2895189538175 54.19633800073796,202.6047214796017 55.82810747473994,203.50171559861627 57.54451148710564,204.29612734617737 59.28573149998825,204.9570151599779 61.052506677746564,205.48581893624973 62.84612376554442,205.88365678223943 64.66790628789198,206.15066953705826 66.51995783359307,206.28640803627147 68.40369344027351,206.28977910444294 70.32024567394198,206.15878109028571 72.20365834952364,205.9002038552153 76.45772055354652,204.88320239736552 81.37441486784067,203.54233174436735 85.26418630139104,202.72586402990828 89.54311823616038,203.95510595006104 95.45942306833766,206.1984822409187 101.0562161295443,208.28006670324137 101.8032814493261,208.55791859895942 104.29418704413841,209.3393951930108 106.21104099335156,209.78580742825406 109.15796886613926,210.66424627521525 111.19083548602688,211.83498083635945 112.86641270686987,214.4451702491332 112.41740380363862,217.3198140625676 111.72985234181313,219.1237218892983 109.88916383404192,222.14388433947704 107.278842137622,225.24113501615537 104.26078858051669,228.0429876672091 102.68633427640631,229.49463917316677 102.1885627609736,230.0370888074225 101.2971266397012,231.00853691755833 99.96794844027382,232.7033438364973 98.71759759861848,234.56245758969678 97.5631707970803,236.56840866707873 96.52062680122008,238.7033757250506 95.60455131823369,240.94936544904502 95.11743502296001,242.4177005042639 98.14672678719074,241.17950419439472 102.69977957807438,239.8596601658513  M85.09745111936961,45.68597928231802 97.37051865061538,43.1319568082886  M90.85141072194615,70.98629492302757 103.05091703908538,68.10128832989017  M86.50105092110113,95.32499265019408 93.47420132873111,105.74259270092244  M67.53036271212736,118.97180265688002 79.68835502694117,115.91657102944248  M60.54714640389575,133.77841335167417 63.8097969672707,145.88239322300885  M32.01094327323563,151.1401437883018 42.6868500541046,157.7110061236854  M26.467117636030544,176.1859423018827 38.940229026800885,174.93186508823052  M38.449473656754066,202.85902129840144 47.76346582353159,194.46850478619712  M56.31167377574056,214.97141822313316 59.9062023205159,202.9618144842431  M88.19914440093356,214.61796008866142 92.6438081844162,202.8963483702942  M90.37613404501542,228.24611014669202 100.77837169994109,235.24215682998485  "
       inkstitch:satin_column="true" /><path
       id="path6"
       style="stroke:#000000;stroke-width:1px;fill:none"
       transform="matrix(7.5 0 0 -7.5 0 3250)"
       d="M104.55065473568642,247.99482929325393 108.70106991325841,247.30259009803154 112.73819831436528,247.11929508534377 117.01400246476464,247.4138786298571 121.62502660041535,248.20729812870283 126.65123408450329,249.52287884689127 132.22007859193434,251.39913632770725 146.8188176992491,256.70373879679624 151.7980837733471,258.3541888547465 155.91548132557492,259.4767444026643 159.64395385406903,260.1521214197844 163.3811798115235,260.46588188795084 172.39973586269159,260.5165548205869 180.38803070603208,260.4558573678459 185.73161521802172,260.08231358807967 188.12221077179356,259.64720117120726 190.41011658446627,259.02749912670373 195.37215267981773,257.24997491587027 199.03716024818667,255.75517001024005 202.8708371900719,253.99271339263845 206.46481457383572,252.16378197111487 209.45741462097308,250.4339452235163 212.27077839079953,248.4477788982064 214.8873471243075,246.26715723753924 217.31674182446187,243.89549467038495 219.55347637059776,241.34726856832748 221.59245267499944,238.63649082259116 223.42886081904484,235.77691273523007 225.05823808098336,232.78206138821093 226.4759136656199,229.66492667030042 227.67749938678412,226.4384788708193 228.6584108635612,223.1154244084511 229.4140553145539,219.70826977172288 229.9396047147407,216.22941564692513 230.23024237502872,212.69154883975438 230.2809518348471,209.10703068544126 230.08665936616674,205.48869958529315 229.6574562079408,201.97105651794874 229.24828073952352,198.85803796012 229.09604937747795,196.6496511334287 229.14231341191552,195.53711408935135 229.25938076565413,195.14908416114218 229.94785692149304,193.57288970043615 230.75144662807344,191.13816596533238 232.05156064668265,185.70711156188764 232.96891825056346,179.7644424138722 233.32213874671785,174.16237182399183 233.1104578696466,169.49748743342946 232.47473760068627,164.8593497639272 231.40779977875633,160.1988121808178 229.90797579849692,155.50141027370464 227.9745929661379,150.7479259040246 225.60669555804003,145.91491690280643 222.80152862639306,140.97511384556302 219.61142649169363,135.9893336031032 217.92035801580911,133.31246545969626 216.5355045842071,130.82698454844726 215.59980874883266,128.8710029695743 215.23409856524205,127.80495163687002 214.8564589860104,125.90532156931165 214.1704359610769,123.48757501951579 212.3354627242785,118.9106445457567 209.85279994027442,114.38276882877068 206.84118984051327,110.0544167765475 203.37679247956265,106.01108108877868 199.52822837209874,102.346908716616 195.4107173928311,99.20614102040956 193.16846677697836,97.79896069306326 191.08451538590649,96.67960797648402 189.19639468771274,95.62084069430583 188.94095660001102,95.42051503197217 188.8978344647707,95.37330720958084 188.33321891039157,94.31694817217087 187.51128781284203,91.77726347762979 186.64563283306455,89.22436941612325 185.44390691132935,86.38153447702116 184.101814820718,83.64931339847199 182.7107305583608,81.21583172885467 180.74207724634815,78.49349988310463 179.66748316132262,77.31677947912674 178.37850770051367,76.29528685239754 176.85466695266112,75.56021686117347 175.2353996224038,75.17327295935594 172.42105083780902,75.03653501191711 168.35582220130172,75.36128102836267 164.93253066376462,76.05608489945634 163.9010797034837,76.32149492330694 163.4407700675014,76.29880702838905 162.1074732804371,75.89364291794509 159.4517981803398,74.74947450747234 156.00471470273465,73.27265218067676 152.44408670010114,72.34074674067068 148.24820523793954,71.95288737686705 142.6042553955229,71.87223437799994 134.72128732820676,71.87223437799994 133.0255342325798,69.55984894681754 118.56770067857651,48.32484672306137 110.57382641810922,36.50368376543137 103.83842428486841,26.9443147697525 98.1336791213448,19.359636097789608 93.25315971525802,13.492356207121373 82.65093437799993,1.7119975281667799 82.65093437799993,15.3207  M103.17574526431359,239.75137070674606 107.82093008674158,238.97660990196846 112.83620168563472,238.74890491465624 118.01239753523535,239.10552137014292 123.39497339958466,240.03170187129714 129.0463659154967,241.5109211531087 134.98172140806565,243.51066367229276 149.5611823007509,248.80826120320376 154.2137162266534,250.3504111452537 157.7629186744251,251.31805559733576 160.74084614593067,251.8574785802155 163.75482018847688,252.11051811204916 172.39146413731058,252.15904517941314 180.06456929396745,252.10074263215412 184.6887847819777,251.77748641192042 186.2781892282061,251.4881988287928 187.90448341553437,251.04770087329604 192.38344732018228,249.44322508412972 195.7120397518133,248.08562998975995 199.2287628099281,246.46888660736153 202.4755854261643,244.8166180288851 204.94698537902693,243.3880547764837 207.17742160920045,241.81342110179358 209.28445287569252,240.05744276246074 211.24825817553813,238.14030532961505 213.06432362940222,236.07133143167255 214.72754732500056,233.86010917740884 216.23273918095518,231.51628726476994 217.57436191901667,229.05033861178907 218.7466863343801,226.4726733296996 219.7443006132159,223.7939211291807 220.56158913643884,221.0251755915489 221.19314468544607,218.17753022827713 221.63359528525928,215.26198435307487 221.87775762497128,212.28985116024563 221.9204481651529,209.27216931455877 221.75654063383328,206.21970041470684 221.36634379205918,203.02174348205125 220.9285192604765,199.69076203988004 220.72675062252202,196.76374886657132 220.8360865880845,194.13448591064866 221.40181923434588,192.2593158388578 222.13354307850693,190.58411029956383 222.70535337192655,188.85163403466763 223.84423935331736,184.09408843811235 224.6518817494365,178.8621575861278 224.95286125328212,174.08862817600814 224.7789421303534,170.25591256657054 224.24526239931376,166.3622502360728 223.3396002212437,162.4061878191822 222.0448242015031,158.35098972629535 220.3422070338621,154.1648740959754 218.21370444195998,149.8204830971936 215.64307137360692,145.29368615443698 212.5587735083064,140.4732663968968 210.73184198419088,137.58133454030374 209.1084954157929,134.66781545155274 207.85179125116733,132.04079703042572 207.14670143475797,129.98544836312996 206.72494101398956,127.8638784306884 206.2501640389231,126.19062498048422 204.7655372757215,122.4875554542433 202.7386000597256,118.79083117122931 200.22121015948676,115.17278322345251 197.30660752043735,111.77111891122131 194.09637162790125,108.714691283384 190.6452826071689,106.08225897959043 188.96513322302164,105.02783930693673 187.06308461409353,104.00619202351598 184.54640531228725,102.59495930569418 183.23804339998895,101.56888496802782 182.02096553522927,100.23649279041916 180.61138108960841,97.59925182782914 179.57791218715798,94.40593652237021 178.82896716693546,92.19723058387676 177.83829308867064,89.85366552297883 176.71618517928198,87.56928660152802 175.6768694416392,85.75116827114535 174.24932275365185,83.77710011689537 173.97740646533185,83.47934168969121 172.55154916219098,83.41006498808288 169.52397779869827,83.65191897163734 166.8062693362354,84.20351510054367 164.75592029651628,84.73110507669307 161.99842993249862,84.59519297161096 159.23012671956292,83.75395708205492 156.1528018196602,82.42812549252767 153.28608529726534,81.19994781932324 150.99171329989883,80.59945325932932 147.80319476206046,80.30471262313294 142.5445446044771,80.22956562200005 130.48631267179326,80.22956562200005 126.19966576742017,74.38415105318245 111.65209932142348,53.017353276938636 103.69577358189078,41.251716234568626 97.0813757151316,31.8640852302475 91.5777208786552,24.54676390221039 91.50362627069033,24.457688587239407 86.93224028474197,18.962043792878625 83.7236095251764,15.396865727555198  M138.77060699487424,256.00232442047854 143.05182422242086,244.22003277263158  M173.95190831287792,262.5941540732608 173.85665880992823,250.05851906913938  M201.15837803541143,257.0795318667894 195.92205220677914,245.68953146113688  M223.59844802313177,239.37937002909678 213.05026376610823,232.6053736972225  M229.87708173756891,226.36691299408065 217.8539542167889,222.8178818525677  M231.89676772987508,217.26123567535015 219.5014165965934,215.38867387209277  M228.62752501515706,147.33182912891112 217.37006647630983,152.8473385949987  M208.40608966809873,108.6828372305498 198.7424038805123,116.66809830475184  M187.3828050100367,85.61265811693205 176.0195010647165,90.90666802159195  M168.95714230709694,73.21725660735412 169.95538565500567,85.71344513196924  M154.8690253900038,70.81570662659772 151.69495277429832,82.94321587023859  M123.06593134965465,51.21918534722749 112.70367662385655,58.274317835143016  "
       inkstitch:satin_column="true" /><path
       d="m 1223.7215,2505.495 c -38.0696,-27.8724 -70.7008,-63.9026 -88.376,-99.253 -18.355,-36.0302 -16.9953,-44.188 7.478,-55.065 34.6706,-14.2761 60.5036,-39.4293 60.5036,-59.1439 v -18.355 l 13.5963,16.9953 c 27.8724,36.0302 42.1485,89.0558 46.2274,165.1951 1.3596,40.1091 0.6798,72.7402 -2.7193,72.7402 -3.399,0 -19.7146,-10.1972 -36.71,-23.1137 z"
       id="path2"
       style="stroke:none;stroke-width:0.679815" /><path
       d="m 816.5123,2176.4645 c -27.19261,-13.5963 -44.8678,-36.71 -51.66595,-65.9421 l -4.75871,-20.3944 14.95594,19.0348 c 19.71463,24.4734 48.26687,38.7495 78.85852,38.7495 21.0743,0 29.9119,-4.7587 52.3458,-28.5523 l 26.5128,-27.8724 -4.7587,23.1137 c -7.478,33.9908 -14.956,46.2275 -39.4293,60.5036 -27.1926,16.9954 -42.1485,16.9954 -72.0604,1.3596 z"
       id="path3"
       style="stroke:none;stroke-width:0.679815" /><path
       d="m 405.22416,2024.1859 c -14.27612,-20.3944 -14.27612,-52.3457 0,-57.7843 16.31556,-6.1183 30.59168,16.9954 28.55223,44.8678 -2.71926,28.5523 -14.27611,33.9908 -28.55223,12.9165 z"
       id="path4"
       style="stroke:none;stroke-width:0.679815" /><path
       style="fill:#d9a7c0;fill-opacity:1;stroke:none;stroke-width:2.89446;stroke-linejoin:bevel;stroke-miterlimit:0;stroke-opacity:1"
       d="m 715.55807,2286.7585 c -22.03422,8.9554 -59.31543,30.8525 -76.8103,45.1146 -6.09244,4.9667 -14.13942,17.9855 -18.43088,29.8185 -11.49823,31.7046 -12.62437,38.2339 -6.59418,38.2339 2.89279,0 22.95757,8.6823 44.58839,19.2941 34.52867,16.9393 45.97516,25.3909 93.78654,69.2485 76.79256,70.4422 95.80306,79.1632 232.51196,106.6641 109.9341,22.1147 101.7352,21.0939 127.3467,15.8556 34.8854,-7.135 54.9194,-17.0248 61.9229,-30.5679 9.9202,-19.1836 7.5522,-25.9954 -17.0762,-49.1182 -12.7004,-11.924 -34.6332,-37.181 -48.7394,-56.1266 -24.5995,-33.0388 -26.9811,-35.065 -58.2771,-49.5811 -17.9462,-8.3242 -41.2449,-21.683 -51.775,-29.6864 -28.5588,-21.7062 -129.7171,-79.6673 -156.896,-89.8973 -25.22289,-9.4939 -60.27279,-19.1975 -88.16308,-24.4079 -13.62385,-2.5452 -20.92139,-1.539 -37.39435,5.1561 z"
       id="path8" /><path
       style="fill:#fdd87d;fill-opacity:1;stroke:none;stroke-width:2.89446;stroke-linejoin:bevel;stroke-miterlimit:0;stroke-opacity:1"
       d="m 1192.4589,1626.8612 c 51.113,59.487 86.7652,118.0741 106.3498,174.7643 13.9411,40.3547 15.4357,41.2021 45.6581,25.8872 10.346,-5.2427 21.4889,-8.5046 24.762,-7.2486 6.5845,2.5267 6.534,2.1252 7.4092,58.9011 0.8584,55.6885 7.2982,67.1947 74.9997,134.0034 67.6287,66.7367 85.8839,93.5428 96.0797,141.0843 2.3301,10.865 5.3862,19.7293 6.7911,19.6983 4.8207,-0.106 35.0295,-43.9897 50.1735,-72.886 8.3324,-15.899 19.8085,-44.3302 25.5026,-63.1805 8.909,-29.4937 10.4059,-41.4817 10.7335,-85.9662 0.3171,-43.0801 -1.0611,-56.669 -8.2723,-81.5572 -20.294,-70.0409 -64.0147,-129.5369 -129.1904,-175.8054 -35.5285,-25.2218 -63.3455,-39.0166 -110.3879,-54.7427 -49.8361,-16.6601 -90.3227,-23.5065 -159.5489,-26.98 l -55.5061,-2.7851 z"
       id="path9" /><path
       style="fill:#333680;fill-opacity:1;stroke:none;stroke-width:2.89446;stroke-linejoin:bevel;stroke-miterlimit:0;stroke-opacity:1"
       d="m 1317.1257,1924.1861 c -46.3598,48.8395 -76.1469,125.032 -70.5203,180.3844 3.0496,29.9997 15.5987,81.2681 23.9599,97.8851 3.2538,6.4667 12.4106,19.5781 20.3485,29.1363 7.9379,9.5584 18.3988,26.7894 23.2466,38.2912 4.8477,11.5019 13.3806,27.8049 18.9617,36.229 5.5812,8.4241 16.5931,32.1002 24.4711,52.6136 7.9366,20.6661 21.779,47.4247 31.0436,60.0097 20.9432,28.4494 24.7884,27.8905 61.3504,-8.9168 59.0541,-59.4504 87.7458,-135.7664 74.6887,-198.6619 -4.6488,-22.3933 -33.6174,-82.0949 -55.1851,-113.7316 -6.4608,-9.4771 -24.825,-31.0159 -40.8093,-47.8641 -53.5577,-56.4521 -91.6924,-107.3325 -91.8372,-122.5318 -0.1595,-16.7587 -5.7451,-17.564 -19.7186,-2.8431 z"
       id="path12" /><path
       style="fill:#28afb3;fill-opacity:1;stroke:none;stroke-width:2.89;stroke-linejoin:bevel;stroke-miterlimit:0;stroke-dasharray:none;stroke-opacity:1"
       d="m 1262.0177,1381.4485 c -62.8141,7.9221 -92.9155,16.6104 -256.3479,73.9913 -72.8577,25.5802 -101.8454,30.4004 -172.96385,28.7615 l -59.45222,-1.37 16.65089,14.5271 c 27.56973,24.0531 56.35508,39.5252 104.72068,56.287 l 45.9494,15.9246 132.1047,-3.7636 c 121.6885,-3.4668 211.9635,-1.6132 250.8074,5.15 103.696,18.0545 210.658,65.8701 274.2197,122.585 30.9034,27.5747 36.2377,27.5288 24.647,-0.2116 -4.845,-11.5956 -4.845,-13.2789 0,-13.2789 3.748,0 5.5483,-4.1894 5.5483,-12.9109 0,-18.0871 -15.9076,-78.6343 -30.7562,-117.0632 -10.7998,-27.9508 -16.0883,-35.8777 -39.0319,-58.5049 -47.0373,-46.3884 -108.6853,-84.49 -165.7028,-102.4124 -30.8293,-9.6906 -87.925,-13.067 -130.3932,-7.711 z"
       id="path13" /><path
       style="fill:#bbdfdd;fill-opacity:1;stroke:none;stroke-width:2.89446;stroke-linejoin:bevel;stroke-miterlimit:0;stroke-opacity:1"
       d="m 1311.9849,1933.7301 c -32.8887,38.1942 -58.5317,97.2141 -62.0666,142.8522 -3.7218,48.0522 13.0865,113.3693 37.5986,146.107 14.1175,18.8553 53.3102,93.1875 84.5313,160.3208 7.7547,16.6746 19.422,36.0636 25.9275,43.0869 l 11.8279,12.7695 12.3638,-7.6153 c 19.894,-12.2534 63.0033,-64.5009 77.5954,-94.0439 36.2872,-73.4664 33.5494,-121.3154 -11.6302,-203.2693 -18.5617,-33.6702 -29.0441,-47.2904 -80.0001,-103.9469 -40.194,-44.6905 -69.7668,-85.6053 -73.2119,-101.2908 -1.3582,-6.1841 -3.9215,-11.2439 -5.6961,-11.2439 -1.7745,0 -9.5324,7.3232 -17.2396,16.2737 z"
       id="path14" /><path
       style="fill:#ffcc00;stroke:none;stroke-width:2.89446;stroke-linejoin:bevel;stroke-miterlimit:0"
       d="m 738.55195,2900.583 c -26.24715,100.1826 -25.43938,94.1015 -9.79107,73.7106 22.44971,-29.2537 79.67093,-110.8666 80.67398,-115.0628 0.68949,-2.8845 -45.93229,-26.6147 -52.28863,-26.6147 -0.43287,0 -8.80051,30.5851 -18.59428,67.9669 z"
       id="path15" /><path
       style="fill:#ffcc00;stroke:none;stroke-width:2.89446;stroke-linejoin:bevel;stroke-miterlimit:0"
       d="m 780.37705,2739.0225 c -5.60899,19.8571 -10.1982,41.16 -10.1982,47.3398 0,13.152 11.34814,23.497 36.17747,32.9794 22.00061,8.4021 27.78515,4.9648 51.97678,-30.8855 22.5965,-33.4867 25.6416,-40.0796 18.5135,-40.0837 -7.7184,-0.01 -50.85731,-21.0883 -69.76496,-34.0971 l -16.50635,-11.3566 z"
       id="path16" /><path
       style="fill:#ffcc00;stroke:none;stroke-width:2.89446;stroke-linejoin:bevel;stroke-miterlimit:0"
       d="m 812.60798,2607.2302 c -7.37952,17.8217 -11.92591,49.5074 -8.12306,56.6131 6.30637,11.7836 31.46668,31.6623 51.67438,40.827 30.0769,13.6407 37.4954,14.5293 48.5703,5.8177 10.0212,-7.8826 55.1884,-72.3211 52.5452,-74.9643 -0.8079,-0.8079 -17.518,-4.2534 -37.1335,-7.6567 -19.6157,-3.4035 -47.1662,-10.5605 -61.2234,-15.9046 -39.05602,-14.848 -41.99675,-15.1484 -46.30992,-4.7322 z"
       id="path17" /><path
       style="fill:#ffffff;fill-opacity:1;stroke:none;stroke-width:0.20463;stroke-linejoin:bevel;stroke-miterlimit:0;stroke-dasharray:none;stroke-opacity:1"
       d="m 114.70588,220.14882 c 0,-0.12934 0.51288,-1.10442 1.13972,-2.16684 1.33282,-2.25897 2.74042,-2.90845 6.30336,-2.90845 9.47719,0 17.6628,-4.93699 21.45519,-12.9403 3.61126,-7.62101 3.03782,-7.95933 -3.70267,-2.18453 -2.56329,2.19605 -6.22146,4.76126 -8.12926,5.70047 -3.30096,1.62506 -3.82089,1.71732 -10.74968,1.90761 -8.38238,0.2302 -8.94279,0.0976 -19.85832,-4.6969 -13.788777,-6.0566 -16.893842,-6.63501 -23.63154,-4.40211 -7.210717,2.38967 -15.557009,2.02801 -21.62198,-0.93691 -6.508271,-3.18163 -12.379939,-10.87613 -14.203726,-18.6132 -1.54869,-6.57002 -0.714964,-13.48301 2.360971,-19.5764 3.354741,-6.6457 6.182782,-8.52124 17.587279,-11.66374 4.205435,-1.15881 8.675945,-2.4719 9.934466,-2.918 4.225716,-1.49784 9.522794,-4.60358 13.358302,-7.83212 4.160967,-3.5025 3.910769,-3.45487 9.578152,-1.8232 3.753325,1.08061 10.161746,1.08616 13.843566,0.012 3.81453,-1.11288 10.03932,-4.43878 18.19745,-9.72289 3.6628,-2.37243 9.00438,-5.53327 11.87017,-7.02407 6.28262,-3.26826 6.60348,-3.53703 8.72936,-7.31237 3.78742,-6.72608 11.3842,-15.036016 17.44636,-19.084169 5.38732,-3.59752 6.50969,-3.569986 9.15849,0.224677 3.31774,4.752995 4.07238,14.680912 1.73027,22.763042 -1.63283,5.63457 -2.59748,7.56651 -7.1698,14.35922 -4.31289,6.4073 -4.85326,7.44659 -6.35055,12.21405 -1.4187,4.51718 -2.02391,15.17679 -1.1705,20.61589 0.37882,2.41436 1.55624,5.72558 3.53052,9.92882 3.89165,8.28532 4.40531,10.862 3.2239,16.17221 -1.9221,8.63948 -6.9074,17.55961 -13.49602,24.14822 -5.60561,5.60561 -5.07211,5.45481 -20.77688,5.87285 -10.66143,0.28379 -14.0359,0.54783 -15.86538,1.24138 -2.51138,0.95208 -2.72122,1.00187 -2.72122,0.64576 z M 56.783352,170.12855 c 2.078025,-2.64178 1.116781,-9.42181 -1.209238,-8.52924 -1.517149,0.58219 -2.996481,3.6595 -2.9986,6.2377 -0.0031,3.79544 2.116766,4.9499 4.207838,2.29154 z m 53.394398,-22.25101 c 4.69013,-1.36346 6.25001,-0.88308 10.35276,3.18823 1.92243,1.9077 3.64736,3.46854 3.83319,3.46854 0.55491,0 -1.10659,-6.38194 -2.09879,-8.06161 -1.14291,-1.93479 -5.27415,-4.63801 -7.68636,-5.02945 -4.17409,-0.67736 -11.07019,4.41779 -12.5175,9.24851 -1.16026,3.87259 -0.78007,4.04241 2.20499,0.98494 2.2578,-2.31259 3.46355,-3.08746 5.91171,-3.79916 z m 54.6849,-23.87836 c 0.6921,-1.46037 1.62398,-4.08905 2.07085,-5.8415 1.48417,-5.82035 2.48452,-18.936932 1.61671,-21.198398 -0.48167,-1.255206 -1.09202,-1.060803 -4.65747,1.483453 -6.88133,4.910415 -14.13784,14.228455 -14.13784,18.154325 0,1.51966 1.30353,3.41928 2.34634,3.41928 1.17539,0 6.23177,3.82534 7.23825,5.47602 0.5678,0.9312 1.04296,2.41001 1.05592,3.28623 l 0.0236,1.59314 1.59266,-1.85866 c 0.87596,-1.02226 2.15891,-3.05351 2.85101,-4.51389 z"
       id="path18"
       transform="matrix(7.5 0 0 -7.5 0 3250)" /></g></svg>
