<?xml version="1.0" encoding="UTF-8" standalone="no"?>
<!-- Created with Inkscape (http://www.inkscape.org/) -->

<svg
   version="1.1"
   id="svg1"
   width="70mm"
   height="35mm"
   viewBox="0 0 264.56691 132.28346"
   sodipodi:docname="ford.svg"
   inkscape:version="1.3.2 (1:1.3.2+202311252150+091e20ef0f)"
   xmlns:inkscape="http://www.inkscape.org/namespaces/inkscape"
   xmlns:sodipodi="http://sodipodi.sourceforge.net/DTD/sodipodi-0.dtd"
   xmlns:xlink="http://www.w3.org/1999/xlink"
   xmlns="http://www.w3.org/2000/svg"
   xmlns:svg="http://www.w3.org/2000/svg"
   xmlns:inkstitch="http://inkstitch.org/namespace">
  <sodipodi:namedview
     id="namedview1"
     pagecolor="#cccccc"
     bordercolor="#666666"
     borderopacity="1.0"
     inkscape:showpageshadow="2"
     inkscape:pageopacity="0.0"
     inkscape:pagecheckerboard="0"
     inkscape:deskcolor="#d1d1d1"
     inkscape:zoom="3.2640001"
     inkscape:cx="160.53921"
     inkscape:cy="53.615194"
     inkscape:window-width="1850"
     inkscape:window-height="1016"
     inkscape:window-x="0"
     inkscape:window-y="0"
     inkscape:window-maximized="1"
     inkscape:current-layer="g1"
     inkscape:document-units="mm" />
  <metadata
     id="metadata7">
    <inkstitch:min_stitch_len_mm>0</inkstitch:min_stitch_len_mm>
    <inkstitch:collapse_len_mm>3</inkstitch:collapse_len_mm>
    <inkstitch:inkstitch_svg_version>1</inkstitch:inkstitch_svg_version>
  </metadata>
  <defs
     id="defs1">
    <symbol
       id="inkstitch_trim">
      <title
         id="inkstitch_title9282">Trim the thread after sewing this object.</title>
      <path
         id="inkstitch_circle13405"
         d="m 9.2465284,-8.6e-6 c 1.8e-6,2.452339 -0.9741847,4.804237 -2.7082493,6.538304 C 4.8042146,8.2723614 2.4523174,9.2465504 -2.1625959e-5,9.2465514 -2.4523623,9.2465534 -4.8042621,8.2723654 -6.5383288,6.5382984 -8.2723956,4.8042314 -9.2465834,2.4523324 -9.2465816,-8.6e-6 c 6e-7,-2.452339 0.9741895,-4.804237 2.708256,-6.538301 1.7340665,-1.734065 4.0859648,-2.708252 6.538303974041,-2.70825 C 5.1067066,-9.2465576 9.2465271,-5.1067366 9.2465284,-8.6e-6 c 0,0 0,0 0,0"
         style="opacity:1;vector-effect:none;fill:#fafafa;fill-opacity:1;fill-rule:evenodd;stroke:#003399;stroke-width:1.065;stroke-linecap:round;stroke-linejoin:miter;stroke-miterlimit:4;stroke-dasharray:3.195, 3.195;stroke-dashoffset:0;stroke-opacity:1"
         inkscape:connector-curvature="0" />
      <path
         style="color:#000000;font-style:normal;font-variant:normal;font-weight:normal;font-stretch:normal;font-size:medium;line-height:normal;font-family:sans-serif;font-variant-ligatures:normal;font-variant-position:normal;font-variant-caps:normal;font-variant-numeric:normal;font-variant-alternates:normal;font-feature-settings:normal;text-indent:0;text-align:start;text-decoration:none;text-decoration-line:none;text-decoration-style:solid;text-decoration-color:#000000;letter-spacing:normal;word-spacing:normal;text-transform:none;writing-mode:lr-tb;direction:ltr;text-orientation:mixed;dominant-baseline:auto;baseline-shift:baseline;text-anchor:start;white-space:normal;shape-padding:0;clip-rule:nonzero;display:inline;overflow:visible;visibility:visible;opacity:1;isolation:auto;mix-blend-mode:normal;color-interpolation:sRGB;color-interpolation-filters:linearRGB;solid-color:#000000;solid-opacity:1;vector-effect:none;fill:#050505;fill-opacity:1;fill-rule:evenodd;stroke:none;stroke-width:1.41421;stroke-linecap:butt;stroke-linejoin:miter;stroke-miterlimit:4;stroke-dasharray:none;stroke-dashoffset:0;stroke-opacity:1;color-rendering:auto;image-rendering:auto;shape-rendering:auto;text-rendering:auto;enable-background:accumulate"
         d="m -3.0000256,-5.9834096 c -1.30575,0 -2.375,1.06924 -2.375,2.375 0,1.30575 1.06925,2.375 2.375,2.375 0.58687,0 1.11944,-0.22369 1.53516,-0.58007 0,0 0.61717997,1.62109 0.61717997,1.62109 0,0 -2.29881997,6.01758 -2.29881997,6.01758 0.98655,-0.12511 1.23728,-0.26171 1.67382,-0.97461 0,0 1.33007997,-3.18945 1.33007997,-3.18945 0,0 1.23633003,3.25 1.23633003,3.25 0.23227,0.77906 0.84315,0.79218 1.57813,1.07226 0,0 -2.05469003,-6.14258 -2.05469003,-6.14258 0,0 0.73047003,-1.75 0.73047003,-1.75 0.42849,0.41682 1.01136,0.67578 1.65234,0.67578 1.30575,0 2.375,-1.06925 2.375,-2.375 0,-1.30576 -1.06925,-2.375 -2.375,-2.375 -1.06233,0 -1.95701,0.71265 -2.25781003,1.67969 0,0 -0.0117,-0.0156 -0.0117,-0.0156 0,0 -0.80274,2.10156 -0.80274,2.10156 0,0 -0.59179,-1.76562 -0.59179,-1.76562 -0.18242,-1.12808 -1.15864997,-2 -2.33593997,-2 0,0 -2e-5,-3e-5 -2e-5,-3e-5 m 0,1 c 0.76531,0 1.375,0.60968 1.375,1.375 0,0.76531 -0.60969,1.375 -1.375,1.375 -0.76531,0 -1.375,-0.60969 -1.375,-1.375 0,-0.76532 0.60969,-1.375 1.375,-1.375 0,0 0,0 0,0 m 6,0 c 0.76531,0 1.375,0.60968 1.375,1.375 0,0.76531 -0.60969,1.375 -1.375,1.375 -0.76531,0 -1.375,-0.60969 -1.375,-1.375 0,-0.76532 0.60969,-1.375 1.375,-1.375 0,0 0,0 0,0"
         id="inkstitch_path13416"
         inkscape:connector-curvature="0" />
    </symbol>
  </defs>
  <g
     inkscape:groupmode="layer"
     inkscape:label="Image"
     id="g1">
    <path
       style="fill:#003078;fill-opacity:1;stroke-width:0.30197"
       d="m 121.28732,115.45124 c -0.97406,-0.0601 -4.2947,-0.26008 -7.3792,-0.44413 C 80.478211,113.0122 54.545358,107.38754 33.770131,97.625679 25.846043,93.902313 21.206358,90.781882 16.933749,86.302331 12.270636,81.413369 10.611734,77.655048 10.653239,72.07353 10.707274,64.80635 14.931188,58.272876 23.477678,52.236904 29.307879,48.119317 42.888432,42.146037 54.57912,38.557226 c 39.338748,-12.076218 98.18195,-13.706581 143.74691,-3.98278 26.46762,5.64833 47.16768,16.073354 54.35331,27.373558 4.15217,6.529726 4.26867,13.02457 0.35736,19.921512 -1.21893,2.149402 -5.59308,6.84652 -8.36461,8.982254 -12.93309,9.96617 -41.27706,18.89719 -71.73047,22.60189 -11.33245,1.37861 -20.26552,1.87825 -35.71527,1.9976 -7.79242,0.0601 -14.96499,0.0601 -15.93903,-2e-5 z"
       id="path9" />
    <path
       id="path2"
       style="fill:none;stroke:#ffffff;stroke-width:1.01065px"
       d="m 141.94863,113.23906 12.66661,-0.3792 0.046,-0.002 8.80882,-0.47009 0.10809,-0.009 11.65449,-1.26779 0.0798,-0.0104 11.29535,-1.69858 0.0817,-0.014 10.79619,-2.09188 0.0866,-0.0188 10.15708,-2.44777 0.0955,-0.0256 9.37764,-2.76637 0.10975,-0.0359 8.45837,-3.047469 0.0961,-0.03753 3.84063,-1.617482 0.0732,-0.0326 3.55831,-1.673782 0.0823,-0.04115 3.25833,-1.72538 0.0935,-0.05288 2.94097,-1.77228 0.16549,-0.111763 2.43976,-1.83838 0.12152,-0.0996 2.74649,-2.445774 0.0883,-0.08389 2.4848,-2.514173 0.12548,-0.140193 1.6544,-2.043379 0.17803,-0.262091 1.23224,-2.190077 0.1127,-0.238051 0.85104,-2.183476 0.084,-0.27781 0.49325,-2.253776 0.0389,-0.273856 0.15872,-2.400975 9.5e-4,-0.229029 -0.14015,-2.419773 -0.0417,-0.297741 -0.47741,-2.131777 -0.10456,-0.324141 -0.90303,-2.114876 -0.11507,-0.225791 -1.41671,-2.369475 -0.0977,-0.147375 -1.18975,-1.622582 -0.10733,-0.133311 -1.42355,-1.613382 -0.10215,-0.107056 -1.64938,-1.599983 -0.0954,-0.08647 -1.86715,-1.582183 -0.12954,-0.100607 -4.35563,-3.094467 -0.15054,-0.09679 -5.13068,-2.972968 -0.1301,-0.06893 -5.84179,-2.817669 -0.11504,-0.05098 -6.48867,-2.628571 -0.10445,-0.03889 -7.07158,-2.405674 -0.0973,-0.03031 -7.59057,-2.149077 -0.0838,-0.02174 -7.03347,-1.660281 -0.0686,-0.01492 -7.3778,-1.465384 -0.0624,-0.01135 -7.67964,-1.269686 -0.0574,-0.0086 -7.93877,-1.073089 -0.0536,-0.0065 -8.15531,-0.875491 -0.0507,-0.0048 -8.32936,-0.677191 -0.0487,-0.0033 -8.46061,-0.477796 -0.0472,-0.0021 -8.54958,-0.277697 -0.0463,-9.61e-4 -8.59565,-0.0767 -0.0462,1.31e-4 -8.59922,0.125298 m 17.36172,78.079222 12.64356,-0.37851 8.73162,-0.46598 11.56051,-1.25755 11.2145,-1.68643 10.71196,-2.07556 10.06591,-2.42579 9.27479,-2.736029 8.35546,-3.010392 3.75616,-1.581903 3.48038,-1.637126 3.17013,-1.678682 2.80925,-1.692907 2.29715,-1.730918 2.64227,-2.352964 2.37571,-2.403785 1.49498,-1.846485 1.0896,-1.93656 0.75025,-1.924869 0.43249,-1.976174 0.142,-2.148165 -0.12478,-2.154734 -0.40711,-1.817843 -0.78599,-1.840765 -1.30607,-2.184431 -1.08675,-1.482107 -1.31787,-1.493622 -1.55001,-1.503586 -1.75543,-1.487498 -4.21569,-2.995049 -4.98941,-2.891108 -5.71874,-2.758314 -6.37863,-2.583999 -6.97053,-2.371297 -7.49984,-2.12339 -6.95715,-1.642263 -7.31225,-1.452364 -7.61971,-1.259779 -7.88324,-1.065583 -8.10317,-0.869893 -8.27973,-0.673158 -8.41274,-0.47509 -8.50278,-0.276177 -8.54926,-0.07629 -8.57607,0.124962 m 46.59966,77.347547 -0.63949,-5.63457 m 11.19908,4.22439 -0.87915,-5.60352 m 11.37801,3.79181 -1.12425,-5.56135 m 11.54312,3.31281 -1.3841,-5.50489 m 11.69264,2.7571 -1.67066,-5.428157 m 9.34369,2.967417 -1.99992,-5.320389 m 9.5216,2.492964 -2.28827,-5.207818 m 18.8259,-4.527563 -3.89644,-4.193846 m 0.17326,-32.057909 -3.40104,4.588394 m -8.4158,-11.260746 -2.55917,5.085545 m -9.99189,-10.00634 -1.90068,5.355146 m -5.79075,-7.696414 -1.60871,5.446069 m -6.16679,-7.418146 -1.35733,5.511293 m -6.47383,-7.151892 -1.15134,5.556042 m -6.7244,-6.922074 -0.96426,5.590079 m -6.94343,-6.71368 -0.792,5.615956 m -7.13878,-6.520987 -0.63118,5.635451 m -7.31614,-6.339705 -0.47924,5.649782 m -7.47984,-6.165985 -0.33348,5.65982 m -7.63335,-5.996827 -0.192,5.666112 m -7.77934,-5.829444 -0.0528,5.668995"
       inkstitch:satin_column="true" />
    <g
       id="command_group1"
       inkscape:label="Ink/Stich Instrucción: Trim thread after sewing this object">
      <path
         id="command_connector1"
         d="M 155.40979,1.8873337 170.2787,33.102908"
         style="fill:none;stroke:#000000;stroke-width:1px;stroke-opacity:0.5"
         inkscape:connection-start="#command_use3219"
         inkscape:connection-end="#path2"
         inkscape:label="conector"
         inkscape:connector-type="polyline"
         inkscape:connector-curvature="0" />
      <use
         id="command_use3219"
         xlink:href="#inkstitch_trim"
         height="100%"
         width="100%"
         x="155.4072087680719"
         y="1.8514867933965833"
         inkscape:label="marcador de instrucción" />
    </g>
    <path
       id="path3"
       style="fill:none;stroke:#ffffff;stroke-width:1.01065px"
       d="m 124.42216,31.38334 -8.5603,0.327997 -0.0478,0.0024 -8.47869,0.531794 -0.0497,0.0037 -8.354478,0.736291 -0.05219,0.0053 -8.187686,0.941691 -0.05548,0.0072 -7.978399,1.148087 -0.0597,0.0095 -7.726313,1.355186 -0.08187,0.01616 -10.809157,2.372474 -0.07992,0.0193 -5.157038,1.360385 -0.05609,0.01569 -5.004437,1.480284 -0.05793,0.01811 -4.861235,1.603183 -0.05936,0.02064 -4.727225,1.729082 -0.06015,0.02313 -4.602714,1.85768 -0.06053,0.02562 -4.487498,1.989378 -0.06952,0.03247 -4.165138,2.046277 -0.121501,0.06514 -3.307453,1.927279 -0.161927,0.105523 -2.855681,2.071578 -0.14309,0.114586 -2.810226,2.479573 -0.133976,0.130395 -2.245078,2.410175 -0.159914,0.196454 -1.787891,2.523973 -0.14229,0.235665 -1.323859,2.607073 -0.113225,0.275334 -0.85268,2.659672 -0.07079,0.30988 -0.374554,2.681571 -0.01621,0.332609 0.110721,2.672872 0.04514,0.336739 0.602943,2.633571 0.104421,0.319761 1.102211,2.563872 0.18358,0.330496 1.70495,2.451473 0.158724,0.198371 2.530767,2.76177 0.125795,0.125069 2.987342,2.706371 0.143989,0.118243 3.075081,2.285075 0.170866,0.113402 4.189959,2.471473 0.12553,0.06795 4.86338,2.406174 0.103768,0.04761 5.464996,2.316175 0.08886,0.0351 5.994498,2.201574 0.07889,0.0271 6.451992,2.06227 0.07246,0.0216 6.837474,1.89828 0.06867,0.0177 7.15105,1.70978 0.0671,0.0148 7.392616,1.49648 0.08314,0.015 10.25994,1.62199 0.07443,0.0103 11.658469,1.38959 0.06139,0.006 12.117501,1.06038 0.0646,0.005 11.63701,0.6343 0.0244,0.001 3.63696,0.15299 0.11418,10e-4 16.27987,-0.25859 m -17.34782,-78.07975 -8.53633,0.327077 -8.42989,0.528734 -8.303573,0.731805 -8.133857,0.935498 -7.920784,1.139796 -7.655428,1.342753 -10.728232,2.354712 -5.089124,1.342471 -4.94741,1.463416 -4.802567,1.583834 -4.667453,1.707219 -4.542354,1.833317 -4.422366,1.960504 -4.068767,1.998934 -3.164216,1.843813 -2.703086,1.960881 -2.671238,2.356938 -2.094711,2.248749 -1.634731,2.307758 -1.193766,2.350878 -0.758408,2.36562 -0.329373,2.358106 0.09675,2.335501 0.527205,2.302757 0.960535,2.234313 1.523684,2.19084 2.384708,2.602378 2.852424,2.584142 2.917811,2.16821 4.039952,2.382989 4.748161,2.34917 5.368402,2.275236 5.910471,2.170716 6.37623,2.038064 6.766859,1.878661 7.083136,1.69355 7.317529,1.48129 10.181091,1.60951 11.590491,1.38149 12.054495,1.05486 11.59249,0.63188 3.56767,0.15008 16.22275,-0.25769 m -28.04327,-78.568373 0.37022,5.65763 m -10.92339,-4.894733 0.51919,5.646397 m -8.437035,-4.85554 0.675634,5.63051 m -8.574334,-4.632751 0.84209,5.608966 m -8.714256,-4.384849 1.021189,5.58038 m -11.439797,-3.511145 1.26678,5.531913 m -9.052661,-3.719324 1.506549,5.474003 m -11.739165,-2.465051 1.848576,5.372599 m -11.869936,-1.711334 2.207055,5.241309 m -21.274875,5.285322 3.876748,4.211293 m -12.763429,10.417546 5.737322,0.768101 m 21.171126,28.307703 2.300503,-5.202647 m 10.300823,9.659455 1.797216,-5.389274 m 8.526204,8.238184 1.373826,-5.50736 m 6.402423,7.27499 1.17253,-5.55178 m 9.285806,7.42711 0.923109,-5.59673 m 9.592605,7.04172 0.699824,-5.62767 m 9.83789,6.74531 0.51554,-5.64672 m 12.67701,6.62471 0.32191,-5.66046 m 23.51409,5.94605 -0.094,-5.66849"
       inkstitch:satin_column="true" />
    <g
       id="command_group2"
       inkscape:label="Ink/Stich Instrucción: Trim thread after sewing this object">
      <path
         id="command_connector2"
         d="M 83.363382,4.7134191 80.713466,35.427799"
         style="fill:none;stroke:#000000;stroke-width:1px;stroke-opacity:0.5"
         inkscape:connection-start="#command_use3708"
         inkscape:connection-end="#path3"
         inkscape:label="conector"
         inkscape:connector-type="polyline"
         inkscape:connector-curvature="0" />
      <use
         id="command_use3708"
         xlink:href="#inkstitch_trim"
         height="100%"
         width="100%"
         x="83.36079918305533"
         y="4.6775724323230925"
         inkscape:label="marcador de instrucción" />
    </g>
    <path
       style="fill:none;stroke:#ffffff;stroke-width:1.88976;stroke-dasharray:none"
       d="M 75.3853 70.9426 C 74.7848 72.0228 74.6877 72.7043 73.8839 73.6431 C 72.742 74.9769 71.8068 75.2787 70.5895 76.5441 C 69.5452 77.6297 68.8372 78.1088 68.2526 79.4971 C 67.7006 80.8077 67.5868 81.6343 67.8579 83.0302 C 68.1417 84.4918 68.6245 85.1881 69.5795 86.3303 C 70.5402 87.4795 71.1793 87.9944 72.537 88.6272 C 73.5531 89.1008 74.1943 89.05 75.3144 89.0033 C 77.226 88.9236 78.2059 88.8322 80.0476 88.314 C 81.3769 87.9399 81.9891 87.547 83.1496 86.7986 C 85.0411 85.5787 85.9742 84.9225 87.645 83.4144 C 89.2653 81.9518 89.96 81.0903 91.3439 79.4022 C 97.892 71.4148 100.944 67.2417 107.468 59.2343 C 109.355 56.9178 110.148 55.5959 112.368 53.5963 C 115.793 50.5128 117.854 49.3914 121.511 46.5881 M 71.8821 70.9617 C 70.5268 71.594 69.7442 71.7218 68.494 72.5424 C 67.2412 73.3647 66.6897 73.9105 65.6894 75.0263 C 64.241 76.6419 63.366 77.3968 62.4001 79.3397 C 61.5425 81.0646 61.2427 82.0833 61.2233 84.0095 C 61.2004 86.2924 61.2883 87.567 62.2968 89.6152 C 63.389 91.8333 64.3559 92.798 66.3018 94.3232 C 68.1877 95.8014 69.3343 96.4644 71.6771 96.9675 C 74.5685 97.5885 76.1911 97.7428 79.0698 97.0653 C 82.273 96.3115 83.8158 95.421 86.4763 93.4846 C 89.574 91.2301 90.674 89.5503 93.2686 86.7313 C 94.8911 84.9684 95.6555 84.0293 97.0025 82.048 C 102.676 73.7036 105.053 69.2238 110.807 60.9346 C 112.474 58.5323 113.448 57.4081 115.531 55.3547 C 118.753 52.1764 120.633 50.8756 124.035 47.8896 M 67.71018380453314, 72.38230287239259 74.66777119546688, 73.80317212760741 M 71.35372797927315, 76.78076714261903 64.92520102072687, 74.78956385738097 M 61.600355077457074, 79.3182105733505 69.05226992254295, 79.5185944266495 M 68.64934970036573, 82.91343464117222 60.43191829963429, 84.12631635882778 M 61.5675945342496, 89.94409119612007 70.30872546575043, 86.00140680387992 M 73.12763184797706, 88.08765833245819 65.71118215202297, 94.8628186675418 M 71.34476536540014, 97.69520428757788 75.6467296345999, 88.2756147124221 M 80.13643049054222, 87.51892385758245 78.9810145094578, 97.86039314241751 M 86.83271181880066, 94.20085007602144 82.79325118119937, 86.0823309239785 M 86.95590922900125, 83.00798985025152 93.95766777099877, 87.13767214974843 M 97.72720661257054, 82.38684221699482 90.61919538742947, 79.06340478300513 M 106.75505953361731, 58.87129195549111 111.5198204663827, 61.29765004450884 M 116.22974601060507, 55.74347988108867 111.66923398939495, 53.207561118911286"
       id="path5"
       inkstitch:satin_column="True" />
    <g
       id="command_group3"
       inkscape:label="Ink/Stich Instrucción: Trim thread after sewing this object">
      <path
         id="command_connector3"
         d="M 88.987901,29.125649 92.46718,72.140398"
         style="fill:none;stroke:#000000;stroke-width:1px;stroke-opacity:0.5"
         inkscape:connection-start="#command_use2598"
         inkscape:connection-end="#path5"
         inkscape:label="conector"
         inkscape:connector-type="polyline"
         inkscape:connector-curvature="0" />
      <use
         id="command_use2598"
         xlink:href="#inkstitch_trim"
         height="100%"
         width="100%"
         x="88.98531941035166"
         y="29.089802089477015"
         inkscape:label="marcador de instrucción" />
    </g>
    <path
       style="fill:none;stroke:#ffffff;stroke-width:0.94488185;stroke-dasharray:none"
       d="M 90.3311 70.8559 C 91.3649 70.4752 91.8891 70.3043 92.9155 69.9041 C 94.8126 69.1644 95.6429 68.4084 97.639 68.0066 C 102.217 67.0852 104.593 67.1664 109.231 66.6202 C 112.66 66.2164 114.386 66.1061 117.806 65.6316 C 119.482 65.3991 120.38 65.45 121.963 64.8537 C 123.209 64.3842 123.842 64.0016 124.741 63.0193 C 125.537 62.1503 125.64 61.4855 126.056 60.3832 C 126.305 59.7229 126.594 59.3265 126.39 58.6507 C 126.094 57.6691 125.743 57.1516 124.904 56.5622 C 124.136 56.0224 123.557 55.8953 122.624 56.0045 C 121.766 56.1051 121.366 56.4618 120.734 57.0507 C 119.946 57.7842 119.645 58.2723 119.158 59.2319 C 118.697 60.1386 118.507 60.6461 118.393 61.6568 C 118.256 62.8808 118.33 63.5188 118.54 64.7325 C 118.661 65.4358 118.725 65.8625 119.21 66.3862 C 119.938 67.1723 120.503 67.3503 121.442 67.8667 C 122.238 68.305 122.695 68.4047 123.53 68.7633 M 90.7877 68.7416 C 91.8507 68.1066 92.2928 67.6071 93.4453 67.1542 C 95.5523 66.3263 96.6602 66.0238 98.8767 65.5631 C 103.114 64.6824 105.247 64.2505 109.552 63.8065 C 112.934 63.4577 114.66 63.8531 118.049 63.5856 C 119.28 63.4884 119.875 63.2499 121.059 62.8985 C 121.938 62.6376 122.456 62.6054 123.192 62.059 C 123.795 61.6114 123.952 61.2013 124.266 60.5188 C 124.501 60.0061 124.646 59.6875 124.535 59.1342 C 124.414 58.5261 124.244 58.1517 123.725 57.8125 C 123.337 57.5592 122.995 57.6717 122.567 57.8487 C 122.077 58.0514 121.877 58.285 121.558 58.7087 C 121.292 59.0622 121.258 59.3072 121.147 59.7354 C 120.957 60.4672 120.849 60.8401 120.809 61.595 C 120.766 62.3914 120.718 62.8186 120.94 63.5845 C 121.144 64.2864 121.429 64.5711 121.847 65.1708 C 122.233 65.7256 122.503 65.9436 122.941 66.4586 C 123.47 67.0809 123.735 67.392 124.264 68.0142 M 93.59660822650493, 66.36865598382062 92.76419477349506, 70.68963301617936 M 97.27756839981461, 68.72026838440645 99.23814560018536, 64.84938661559353 M 109.64301812691596, 63.011644104559934 109.140101873084, 67.41506589544005 M 117.71175454642014, 66.42603310532253 118.14324545357984, 62.791185894677454 M 120.72362827108805, 62.17225553019879 122.29841172891193, 65.5799054698012 M 125.42145024760272, 63.44068575058985 122.51197975239725, 61.63756024941014 M 123.46793598995731, 60.57925974316674 126.85337401004267, 60.322779256833265 M 127.1640680872879, 58.448976257756065 123.76103191271208, 59.33592774224394 M 123.1756865727646, 58.39443036825122 125.45335342723538, 55.98032863174878 M 122.64882139692116, 55.204924514135655 122.54257860307884, 58.648337485864346 M 121.91429720563065, 59.42503842747628 120.37745279436935, 56.33438457252373 M 118.38241700019128, 59.03556311214418 121.92236299980871, 59.931753887855834 M 121.60827847886932, 61.574580017116915 117.59363152113067, 61.6772579828831 M 117.81806615423106, 65.07764478187441 121.66162384576891, 63.239373218125614 M 122.5731961808801, 64.83592446418437 118.48346381911988, 66.72114453581565 M 120.85856059947561, 68.41437589419468 123.52446940052438, 65.91096210580535"
       id="path6"
       inkstitch:satin_column="True" />
    <g
       id="command_group4"
       inkscape:label="Ink/Stich Instrucción: Trim thread after sewing this object">
      <path
         id="command_connector4"
         d="m 100.8749,32.201927 7.85063,31.042868"
         style="fill:none;stroke:#000000;stroke-width:1px;stroke-opacity:0.5"
         inkscape:connection-start="#command_use2082"
         inkscape:connection-end="#path6"
         inkscape:label="conector"
         inkscape:connector-type="polyline"
         inkscape:connector-curvature="0" />
      <use
         id="command_use2082"
         xlink:href="#inkstitch_trim"
         height="100%"
         width="100%"
         x="100.8723207665395"
         y="32.1660791321511"
         inkscape:label="marcador de instrucción" />
    </g>
    <path
       style="fill:none;stroke:#ffffff;stroke-width:0.944882;stroke-dasharray:none"
       d="M 99.2477 52.8411 C 98.8944 53.8969 98.7763 54.4463 98.3645 55.4807 C 97.7713 56.9707 97.6011 57.7937 96.7378 59.1452 C 95.8055 60.6046 95.1583 61.2211 93.9226 62.4345 C 92.5817 63.7512 92.025 64.661 90.3186 65.4484 C 87.9456 66.5434 86.5885 66.9079 83.9775 67.0235 C 81.9256 67.1143 80.4337 67.3777 78.9559 65.9513 C 76.9493 64.0144 76.5055 62.3118 76.2219 59.5374 C 75.9829 57.1992 76.947 56.0753 77.7196 53.8555 C 78.2849 52.231 78.5846 51.3873 79.5529 49.9658 C 80.4488 48.6506 81.0341 48.0456 82.3178 47.1052 C 83.8425 45.9883 84.7854 45.7039 86.4887 44.8849 C 88.0486 44.135 88.8398 43.7724 90.4684 43.1865 C 92.2651 42.5401 93.1619 42.1592 95.0389 41.8088 C 96.5052 41.5351 97.2725 41.6303 98.7641 41.6381 C 100.229 41.6457 100.956 41.8259 102.421 41.8473 C 103.898 41.8689 104.636 41.7387 106.113 41.7454 C 107.685 41.7524 108.471 41.7831 110.04 41.8816 C 111.391 41.9666 112.074 41.9843 113.41 42.2039 C 114.938 42.4549 115.667 42.7546 117.186 43.0557 C 118.804 43.3764 119.619 43.511 121.249 43.758 C 123.16 44.0475 124.132 44.0815 126.039 44.3968 C 127.774 44.6837 128.61 45.0018 130.349 45.2628 C 132.849 45.638 134.113 45.7343 136.629 45.9859 C 139.121 46.2351 140.365 46.4206 142.868 46.5146 C 145.873 46.6273 147.381 46.5997 150.386 46.5022 C 153.543 46.3998 155.117 46.2464 158.267 46.0151 C 161.052 45.8106 162.438 45.6255 165.223 45.4128 C 166.72 45.2985 167.471 45.2837 168.97 45.1976 M 97.3729 52.9949 C 96.8237 53.924 96.6296 54.4411 95.9999 55.3176 C 95.4449 56.0901 95.1461 56.4792 94.4244 57.0987 C 93.4713 57.9168 92.9652 58.3229 91.8425 58.886 C 90.3861 59.6165 89.6404 60.0919 88.0255 60.3083 C 86.758 60.4782 86.0251 60.3608 84.8659 59.8209 C 84.1301 59.4782 83.9008 58.9928 83.5904 58.2429 C 83.241 57.3989 83.3303 56.8929 83.2762 55.9811 C 83.2318 55.2337 83.1599 54.836 83.3452 54.1107 C 83.621 53.0308 83.9228 52.5381 84.4114 51.5364 C 84.7237 50.8961 84.8428 50.5262 85.3417 50.0176 C 86.2239 49.1182 86.7412 48.7267 87.8146 48.067 C 88.8045 47.4586 89.3903 47.3203 90.4618 46.8708 C 91.9232 46.2579 92.6085 45.7988 94.1453 45.4117 C 95.7361 45.011 96.5846 45.0836 98.2168 44.9177 C 99.8062 44.7562 100.6 44.609 102.198 44.5934 C 103.482 44.5809 104.119 44.7457 105.399 44.8477 C 106.799 44.9592 107.504 44.9604 108.898 45.1271 C 110.162 45.2784 110.787 45.4125 112.039 45.642 C 113.483 45.9066 114.21 46.0232 115.638 46.3622 C 117.477 46.7986 118.362 47.1553 120.204 47.5797 C 122.014 47.9968 122.957 48.0275 124.762 48.4647 C 126.48 48.8808 127.302 49.2225 129.001 49.7108 C 131.021 50.2915 132.031 50.5802 134.058 51.1372 C 137.103 51.974 138.582 52.5791 141.679 53.1952 C 144.779 53.812 146.362 54.0091 149.516 54.2124 C 153.28 54.4549 155.229 54.9528 158.945 54.3078 C 161.892 53.7963 163.339 53.0419 165.827 51.3814 C 167.645 50.1685 168.003 48.9298 169.453 47.2954 M 95.20176660013183, 55.26255181651793 99.16258639986818, 55.53577418348207 M 97.3369986261063, 59.675211767429715 93.82517337389372, 56.56868423257029 M 91.43793125162223, 58.19583350432703 94.32711774837777, 63.12467249567298 M 90.64455644475554, 66.17899241478138 87.69958155524448, 59.57772858521864 M 84.9637854938234, 59.0269022432685 83.87958650617664, 67.81745075673152 M 78.54370023870209, 66.63690347230263 84.00256876129794, 57.5572295276974 M 83.99054622421022, 55.62092583938264 75.5075577757898, 59.897529160617395 M 76.92037151462274, 53.81926533115413 84.14433848537728, 54.146898668845914 M 85.17263742100141, 51.78246357646468 78.7917225789986, 49.71967642353537 M 81.74161261966267, 46.55028202607381 85.91786538033735, 50.57255197392624 M 88.12227888020878, 48.80546296657037 86.18105011979124, 44.14645303342967 M 90.46984009447345, 42.386508283600904 90.46037390552657, 47.670834716399135 M 93.95269844061853, 46.18817407060986 95.23151155938147, 41.03235192939018 M 98.89576542329493, 40.849007417623085 98.08508857670508, 45.706795582376955 M 102.13277846068338, 45.39074658041641 102.48626153931662, 41.04996741958362 M 106.29219372831413, 40.96571543288658 105.21992627168586, 45.62732156711345 M 108.63235838632767, 45.881761056100835 110.30545161367232, 41.12698894389919 M 113.70628097793742, 41.46074557480263 111.74298902206255, 46.385144425197396 M 115.29906324855763, 47.086722634665186 117.52528675144234, 42.33112136533484 M 121.4603083232135, 42.98634715223897 119.99319167678648, 48.35141084776106 M 124.52260647040991, 49.228031902658024 126.27823352959007, 43.633548097342 M 130.58081836820375, 44.497141189214304 128.76897163179623, 50.47644781078572 M 133.70067117472723, 51.85298551226885 136.98578882527275, 45.270060487731165 M 143.00852886170486, 45.726948625443576 141.53895113829512, 53.98284937455643 M 149.42632384490307, 55.007334593506904 150.47578615509693, 45.707249406493105 M 158.20194213376257, 45.217776882419734 159.00992786623743, 55.10516411758027 M 165.90767474523912, 52.177355951088565 165.14211525476088, 44.61691604891144"
       id="path8"
       inkstitch:satin_column="True" />
    <g
       id="command_group5"
       inkscape:label="Ink/Stich Instrucción: Trim thread after sewing this object">
      <path
         id="command_connector5"
         d="m 105.03868,11.762325 12.93936,31.447713"
         style="fill:none;stroke:#000000;stroke-width:1px;stroke-opacity:0.5"
         inkscape:connection-start="#command_use347"
         inkscape:connection-end="#path8"
         inkscape:label="conector"
         inkscape:connector-type="polyline"
         inkscape:connector-curvature="0" />
      <use
         id="command_use347"
         xlink:href="#inkstitch_trim"
         height="100%"
         width="100%"
         x="105.03610551581664"
         y="11.726478861728502"
         inkscape:label="marcador de instrucción" />
    </g>
    <path
       style="fill:none;stroke:#ffffff;stroke-width:0.944882;stroke-dasharray:none"
       d="M 101.702 95.2856 C 103.607 93.8045 104.667 93.192 106.465 91.5829 C 109.178 89.156 110.702 88.0642 112.962 85.2115 C 114.107 83.7676 113.815 82.5353 114.846 81.0083 C 115.969 79.3436 116.777 78.6783 118.276 77.3411 C 119.541 76.212 120.301 75.7982 121.722 74.8722 C 122.882 74.1159 123.521 73.8331 124.72 73.1403 M 99.2359 92.8062 C 101.344 90.6184 102.655 89.7461 104.506 87.3369 C 105.694 85.7908 105.85 84.7392 106.759 83.0143 C 107.751 81.1311 107.911 79.9638 109.259 78.3168 C 110.938 76.2659 112.011 75.3915 114.211 73.9129 C 116.005 72.7068 117.07 72.326 119.133 71.6801 C 120.882 71.1328 121.847 71.2458 123.656 70.9562 M 104.17114407126817, 86.61047667776087 106.80051592873181, 92.30931732223911 M 113.71647265277234, 85.47865148375634 106.00490734722766, 82.74717551624364 M 108.53851406526627, 77.96955618932573 115.56641593473374, 81.35549081067425 M 118.8870760139367, 77.85681914330252 113.59903398606332, 73.39718885669745 M 118.62927618893042, 71.05877487456945 122.2257438110696, 75.49351012543053"
       id="path10"
       inkstitch:satin_column="True" />
    <path
       style="fill:none;stroke:#ffffff;stroke-width:0.944882;stroke-dasharray:none"
       d="m 106.079,85.6897 c 0.204,2.458 -0.061,3.7454 0.509,6.145 0.416,1.7521 0.446,3.0371 1.919,4.0729 2.426,1.7055 4.106,2.0561 7.065,2.2438 2.511,0.1593 3.892,-0.2579 6.13,-1.4068 2.494,-1.2799 3.442,-2.4667 5.373,-4.4978 1.624,-1.7083 2.072,-2.8646 3.447,-4.7792 1.213,-1.6892 1.98365,-2.415536 2.44565,-4.443236 0.56,-2.4628 0.48235,-3.601464 -0.0526,-6.070064 -0.452,-2.0857 -1.09,-3.0096 -1.817,-5.0161 m -17.99,13.3999 c -0.042,1.6146 -0.516,2.4741 -0.106,4.0365 0.276,1.0546 0.861,1.4425 1.718,2.1152 0.814,0.6383 1.32,1.0021 2.352,1.0764 1.518,0.1094 2.387,0.0359 3.753,-0.6368 1.326,-0.653 1.7,-1.436 2.688,-2.5353 1.147,-1.2756 1.812,-1.8784 2.633,-3.3845 0.981,-1.8006 1.376,-2.7901 1.822,-4.7915 0.317,-1.4255 0.162,-2.1938 0.059,-3.6507 -0.136,-1.9213 -0.393,-2.8624 -0.655,-4.7707 m -13.62333,16.291442 -7.90755,3.033019 m 2.0138,4.250039 7.51753,-5.344949 m 1.90673,0.767353 -1.91442,7.130475 m 6.48106,-1.392479 -1.16444,-6.389192 m 2.20757,-2.248442 4.81019,3.852954 m 3.58218,-5.026418 -5.8943,-1.96382 m 1.82829,-4.810884 6.50425,2.350861 m -0.0107,-6.441881 -6.47587,0.812218"
       id="path11"
       inkstitch:satin_column="True"
       sodipodi:nodetypes="cccsccccscccccsccccccccccccccccccccc" />
    <path
       style="fill:none;stroke:#ffffff;stroke-width:0.944882;stroke-dasharray:none"
       d="M 132.796 84.2957 C 135.473 81.4775 136.636 79.8904 139.488 77.2503 C 140.306 76.4939 140.869 76.2763 141.904 75.8665 C 142.52 75.6229 142.886 75.7098 143.545 75.6452 C 143.937 75.6067 144.199 75.3935 144.529 75.6091 C 144.906 75.8557 144.951 76.1741 145.031 76.6174 C 145.121 77.1118 145.08 77.3876 144.941 77.8703 C 144.744 78.5522 144.519 78.8483 144.203 79.4842 C 143.463 80.9787 143.116 81.7397 142.301 83.1952 C 141.131 85.2856 140.462 86.2821 139.243 88.3448 C 138.211 90.0911 137.716 90.9764 136.676 92.7177 C 135.436 94.7936 134.796 95.8197 133.543 97.8876 M 130.006 81.9962 C 132.672 79.1147 133.947 77.6186 136.672 74.7924 C 137.847 73.5741 138.396 72.9051 139.75 71.89 C 140.974 70.9728 141.587 70.3668 143.071 69.9957 C 144.734 69.5795 145.708 69.5174 147.357 69.9868 C 148.516 70.3165 149.124 70.8227 149.698 71.8817 C 150.394 73.1665 150.31 74.0181 150.334 75.4791 C 150.369 77.6631 150.383 78.8015 149.842 80.9177 C 149.397 82.6585 148.771 83.396 147.907 84.9716 C 146.725 87.1279 146.085 88.182 144.734 90.2367 C 143.727 91.7687 142.98 92.3686 142.018 93.9293 C 141.051 95.4989 140.763 96.3937 139.926 98.0366 M 136.06924651982078, 74.26636244612445 140.0910034801792, 77.77634355387556 M 142.28507311161536, 76.56994266777942 139.3693968883846, 71.18654533222058 M 143.00399903811143, 69.19848021161187 143.61136096188852, 76.44240078838813 M 144.16915968740332, 76.32374223429102 147.7170403125966, 69.27215076570897 M 150.25949459077404, 71.31191826844007 144.46984540922585, 77.1872617315599 M 144.20932248857906, 78.19456438282056 151.06505751142083, 75.1548596171794 M 150.61759790510854, 81.11481790729104 143.42798209489138, 79.28706909270892 M 141.5385529873265, 82.95349999871762 148.66995701267342, 85.21329700128233 M 145.4900651332644, 90.49737391942642 138.48671486673553, 88.08413108057354 M 135.89580306753308, 92.54077434179611 142.79850693246684, 94.10626565820385"
       id="path12"
       sodipodi:nodetypes="ccccccccccccccccccsccscc"
       inkstitch:satin_column="True" />
    <g
       id="command_group6"
       inkscape:label="Ink/Stich Instrucción: Trim thread after sewing this object">
      <path
         id="command_connector6"
         d="m 140.0941,40.132404 0.26158,31.29559"
         style="fill:none;stroke:#000000;stroke-width:1px;stroke-opacity:0.5"
         inkscape:connection-start="#command_use9857"
         inkscape:connection-end="#path12"
         inkscape:label="conector"
         inkscape:connector-type="polyline"
         inkscape:connector-curvature="0" />
      <use
         id="command_use9857"
         xlink:href="#inkstitch_trim"
         height="100%"
         width="100%"
         x="140.09152954885542"
         y="40.09655594234736"
         inkscape:label="marcador de instrucción" />
    </g>
    <path
       style="fill:none;stroke:#ffffff;stroke-width:0.944882;stroke-dasharray:none"
       d="m 157.168,79.5434 c -0.455,-0.8943 -0.714,-1.326 -1.136,-2.2359 -0.207,-0.4455 -0.022,-0.8832 -0.436,-1.1483 -0.27,-0.1729 -0.44,0.2165 -0.669,0.4401 -0.354,0.3453 -0.456,0.5852 -0.772,0.9656 -0.256,0.3078 -0.503,0.3853 -0.657,0.7545 -0.372,0.8906 -0.517,1.3705 -0.631,2.3288 -0.065,0.544 0.009,0.8397 0.192,1.3562 0.22,0.6212 0.432,0.8932 0.798,1.441 0.335,0.5011 0.416,0.8884 0.948,1.1711 0.671,0.3563 1.112,0.3224 1.871,0.3259 0.727,0.0035 1.116,-0.0377 1.791,-0.3086 1.275,-0.512 1.923,-0.8055 3.025,-1.6257 3.14,-2.3367 4.491,-3.7819 7.539,-6.237 1.401,-1.1282 2.042,-1.7881 3.581,-2.7196 1.976,-1.1963 2.93,-2.0028 5.168,-2.577 1.893,-0.4858 3.036,-0.6344 4.886,-0.0032 1.756,0.5991 2.51,1.4144 3.615,2.9043 1.353,1.8237 2.009,2.9176 2.367,5.16 0.445,2.7929 0.207,4.3 -0.418,7.0583 -0.455,2.0071 -1.51,2.7085 -2.233,4.6355 -0.24,0.64 -0.291,1.0349 -0.145,1.7028 0.083,0.3803 0.32,0.5348 0.67,0.7054 0.568,0.2767 0.907,0.432 1.535,0.3696 0.777,-0.0772 1.111,-0.3771 1.821,-0.7029 0.696,-0.3198 1.053,-0.4777 1.687,-0.9082 1.488,-1.0102 2.277,-1.4748 3.607,-2.6855 2.38,-2.1666 3.387,-3.441 5.645,-5.735 m -39.036,-4.051 c 1.09,-1.3069 2.912,-1.5759 2.725,-3.2673 -0.288,-2.6065 -1.63,-3.7927 -3.684,-5.4229 -1.16,-0.9207 -2.24,-0.7716 -3.679,-0.4205 -1.839,0.4489 -2.609,1.1874 -4.123,2.3245 -1.093,0.821 -1.694,1.2956 -2.316,2.5126 -0.922,1.802 -1.104,2.8538 -1.449,4.8482 -0.22,1.2757 -0.152,1.9579 0.053,3.236 0.209,1.2931 0.307,1.9987 0.973,3.1268 0.615,1.0438 1.052,1.6091 2.138,2.1463 1.33,0.6577 2.159,0.8018 3.64,0.7116 1.496,-0.0911 2.204,-0.5245 3.566,-1.1506 1.146,-0.5274 1.544,-1.1054 2.653,-1.7091 4.031,-2.1951 5.70402,-3.085679 9.48002,-5.694979 1.789,-1.2362 2.58398,-2.296821 4.19698,-3.755821 1.036,-0.9378 1.718,-1.26 3.033,-1.7346 0.809,-0.2921 1.332,-0.413 2.147,-0.1354 1.004,0.3423 1.854,0.5642 2.123,1.5907 0.476,1.8157 -0.251,2.8049 -0.483,4.6675 -0.178,1.4284 0.069,2.2542 -0.541,3.5578 -0.717,1.5305 -1.72746,1.966909 -2.27746,3.564809 -0.673,1.9526 -1.15554,2.876291 -0.62954,4.873491 0.523,1.9854 0.999,3.2567 2.745,4.3374 1.778,1.1008 3.113,0.7697 5.196,0.5782 1.406,-0.1293 2.034,-0.6546 3.26,-1.3557 1.591,-0.9097 2.362,-1.4383 3.739,-2.647 1.416,-1.2424 1.967,-2.0298 3.207,-3.4483 2.021,-2.3135 2.965,-3.5274 4.942,-5.879 m -37.1126,-8.783202 -10.06938,0.772644 m -0.22014,-0.660872 6.38993,-6.022185 m -3.97429,-0.618846 -2.78881,7.279553 m -0.28736,0.993456 -1.53188,-5.97638 m -2.69628,2.735022 3.95118,3.773467 m -0.41042,1.809195 -5.20988,-0.214873 m 0.12604,3.604116 5.2031,-2.401224 m 0.65063,1.223673 -4.7336,4.521789 m 2.33489,2.296624 3.15018,-5.79766 m 1.59125,0.235436 -0.82195,6.364282 m 3.89364,-1.176493 -1.60904,-5.470536 m 3.091,-1.64201 1.10522,5.419832 m 9.78591,-5.827935 -3.6571,-5.696036 m 3.48126,-2.635595 4.47146,4.491831 m 2.69007,-1.532721 -1.65025,-5.737995 m 5.3889,0.01691 -2.09464,5.565558 m 1.81364,1.380771 4.20616,-3.832071 m 2.52147,5.411203 -7.366,2.83708 m -0.57788,3.10845 7.56276,1.562134 M 186.739,91.528749 179.2147,88.6208 m -0.68056,5.277607 8.11098,-1.070909 m 0.44006,0.241665 -5.57652,5.630338 m 5.62666,0.798761 1.05421,-6.280069 m 1.56148,-0.703734 0.90347,5.629053 m 4.22056,-2.917007 -3.91786,-3.350316 m 3.55083,-2.612023 3.62952,2.440586"
       id="path13"
       sodipodi:nodetypes="ccccccccccccccccsccccccccccccccccccccccccccccccccccccccccccccccccccccccccccccccccccccccccccccccccccccccccccc"
       inkstitch:satin_column="True" />
    <g
       id="command_group7"
       inkscape:label="Ink/Stich Instrucción: Trim thread after sewing this object">
      <path
         id="command_connector7"
         d="m 172.61583,40.898548 2.1521,31.819008"
         style="fill:none;stroke:#000000;stroke-width:1px;stroke-opacity:0.5"
         inkscape:connection-start="#command_use5485"
         inkscape:connection-end="#path13"
         inkscape:label="conector"
         inkscape:connector-type="polyline"
         inkscape:connector-curvature="0" />
      <use
         id="command_use5485"
         xlink:href="#inkstitch_trim"
         height="100%"
         width="100%"
         x="172.61324756659582"
         y="40.862699745667854"
         inkscape:label="marcador de instrucción" />
    </g>
    <path
       style="fill:none;stroke:#ffffff;stroke-width:0.944882;stroke-dasharray:none"
       d="M 173.126 80.7495 C 171.596 83.6949 170.195 84.9164 169.302 88.1129 C 168.862 89.687 169.36 90.621 169.942 92.1484 C 170.123 92.625 170.566 92.6492 171.067 92.7483 C 172.273 92.9871 173.019 93.5008 174.132 92.9781 C 176.636 91.802 177.412 90.436 179.598 88.7412 M 161.95 87.3581 C 162.042 89.3161 161.468 90.4268 162.18 92.2531 C 163.032 94.4396 163.886 95.4525 165.69 96.9537 C 166.812 97.8872 167.705 98.0958 169.164 98.0664 C 171.626 98.0169 172.902 97.6971 175.18 96.7629 C 176.855 96.0763 177.375 95.165 178.838 94.0997 M 161.4880375914771, 92.65518650861908 169.99356240852288, 87.71086849138092 M 170.47171520822906, 91.54926353612063 165.15998479177094, 97.55289746387938 M 168.89453572205102, 98.81968370628756 171.33604427794896, 91.99505029371247 M 173.9181774536656, 92.20712425297718 175.39407254633437, 97.53380974702284"
       id="path14"
       inkstitch:satin_column="True" />
    <path
       style="fill:none;stroke:#ffffff;stroke-width:0.944882;stroke-dasharray:none"
       d="M 187.093 76.0734 C 187.927 75.2271 188.498 74.9324 189.178 73.9576 C 193.458 67.8152 195.349 64.5755 199.463 58.3209 M 188.475 86.4156 C 190.795 82.9641 192.004 81.2712 194.274 77.7869 C 199.217 70.1988 201.613 66.3563 206.506 58.7359 M 194.9132528160251, 78.2674903595993 188.53798718397488, 73.47696764040072"
       id="path15"
       inkstitch:satin_column="True" />
  </g>
  <path
     id="path1"
     style="fill:none;stroke:#003078;stroke-width:1.20027px"
     d="m 146.52574,118.21255 9.22491,-0.53212 8.99639,-0.76234 8.75675,-0.99468 8.54014,-1.23126 8.34567,-1.47164 8.17376,-1.71573 8.02418,-1.96367 7.91725,-2.22093 8.67689,-2.90292 8.1706,-3.35474 7.41282,-3.697764 3.40672,-1.977666 3.15901,-2.046057 2.43151,-1.884311 2.60708,-2.344061 2.40569,-2.43684 1.83584,-2.200134 1.28174,-2.019434 1.12649,-2.175558 0.91954,-2.200745 0.63679,-2.121497 0.27633,-2.329418 -0.0288,-2.564492 -0.29318,-2.544118 -0.56805,-2.26622 -1.32809,-2.950402 -1.78191,-2.850271 -2.21057,-2.768029 -2.61268,-2.682209 -2.99294,-2.589509 -3.35393,-2.487463 -3.69644,-2.373624 -4.03782,-2.255609 -6.91942,-3.242041 -7.82267,-3.006967 -8.60944,-2.747389 -9.30111,-2.469688 -9.89555,-2.170823 -10.39124,-1.849359 -10.78712,-1.504244 -11.08224,-1.135055 -9.62614,-0.637155 -10.02892,-0.339824 -10.22283,-0.04952 m 14.95554,86.702136 9.1527,-0.52796 8.84782,-0.74976 8.60015,-0.97689 8.37673,-1.20769 8.17704,-1.44191 8.00159,-1.67959 7.85038,-1.92114 7.70285,-2.16078 8.38091,-2.803896 7.82278,-3.211941 7.08479,-3.53412 3.14629,-1.826478 2.85819,-1.851226 2.09664,-1.624805 2.34212,-2.105829 2.13542,-2.163084 1.46803,-1.759324 0.96806,-1.52521 0.91661,-1.770217 0.72651,-1.738788 0.42185,-1.405384 0.18025,-1.519615 -0.0218,-1.938209 -0.22102,-1.917774 -0.36624,-1.461106 -0.98195,-2.181481 -1.42402,-2.277773 -1.85211,-2.319205 -2.26811,-2.328448 -2.66682,-2.307361 -3.0464,-2.259374 -3.40533,-2.186691 -3.7265,-2.081694 -6.57261,-3.079553 -7.49833,-2.88229 -8.33431,-2.659596 -9.0597,-2.405579 -9.67657,-2.122791 -10.18647,-1.812911 -10.58996,-1.476753 -10.88851,-1.115215 -9.4433,-0.625051 -9.8644,-0.33425 -10.14482,-0.04914 m 28.70537,87.154542 -0.68068,-8.03268 m 16.72907,6.28152 -1.15036,-7.97897 m 11.75186,6.31115 -1.39994,-7.93899 m 17.2274,4.629 -1.91625,-7.83041 m 17.54802,3.43673 -2.55769,-7.644974 m 17.88513,1.647984 -3.59845,-7.213762 m 20.23266,-3.098518 -5.3899,-5.99469 m 1.51097,-35.17642 -4.80224,6.475022 m -9.67994,-14.746113 -3.42034,7.299912 m -11.96125,-13.03738 -2.45077,7.679914 m -15.86315,-12.458241 -1.7274,7.874225 m -8.83923,-9.932545 -1.41253,7.936757 m -9.21769,-9.57973 -1.11338,7.984216 m -9.56517,-9.239929 -0.82137,8.019519 m -9.89228,-8.903556 -0.53241,8.043872"
     inkstitch:satin_column="true" />
  <path
     id="path4"
     style="fill:none;stroke:#003078;stroke-width:1.20027px"
     d="m 131.18685,26.145681 -10.28286,0.232845 -10.20901,0.510631 -9.92751,0.782086 -9.47617,1.047953 -8.848477,1.308793 -9.072594,1.700832 -8.607779,1.944471 -8.133404,2.184953 -7.643679,2.421482 -7.138855,2.654785 -6.618762,2.885624 -6.083251,3.114767 -5.544563,3.351429 -3.614343,2.663921 -3.448508,3.043494 -2.966119,3.121486 -2.158744,2.936429 -1.6159001,3.36088 -1.0057386,3.461474 -0.3732548,3.486517 0.3127168,3.36317 0.8627181,2.851691 1.3407746,2.783569 1.775718,2.72643 2.175605,2.662069 2.547568,2.586319 2.895377,2.494758 3.220044,2.38393 3.520106,2.249854 5.582802,3.091386 5.910851,2.830031 6.283595,2.5848 6.698986,2.35492 7.158151,2.14109 7.6619,1.94394 8.211409,1.76319 8.815071,1.6004 8.821347,1.30317 9.218342,1.05033 9.21626,0.75842 8.82246,0.42737 14.05455,0.12742 12.8936,-0.22217 m -15.10877,-86.698002 -10.2094,0.231181 -10.05878,0.503118 -9.76632,0.769387 -9.293927,1.027798 -8.648612,1.279233 -8.873637,1.663532 -8.4056,1.898801 -7.913757,2.125945 -7.403894,2.345519 -6.876004,2.557037 -6.330015,2.759737 -5.766077,2.952369 -5.171948,3.1262 -3.226009,2.377703 -3.094176,2.730776 -2.570017,2.704636 -1.661483,2.260029 -1.20594,2.508212 -0.749058,2.578055 -0.265531,2.480277 0.212763,2.288192 0.58481,1.933075 1.009598,2.096017 1.428769,2.193726 1.834265,2.244405 2.218473,2.252218 2.578344,2.221591 2.912148,2.155981 3.222063,2.059363 5.295506,2.9323 5.630966,2.696024 6.013915,2.473867 6.446396,2.266128 6.927524,2.07211 7.45577,1.89164 8.030435,1.72433 8.643609,1.56927 8.645495,1.27719 9.045956,1.03069 9.04204,0.74408 8.62639,0.41787 13.87818,0.12583 12.82295,-0.22096 m -29.55052,-87.603268 0.40271,8.051407 m -11.91773,-7.321591 0.63312,8.036573 m -17.937158,-6.15176 1.179554,7.974708 m -18.33962,-4.896055 1.776305,7.863337 m -18.68684,-3.478138 2.43459,7.685058 m -18.891605,-1.607991 3.221737,7.389706 m -13.877478,-1.985925 4.170162,6.899064 m -5.938127,43.039364 4.341441,-6.792586 m 6.134385,12.452757 3.48127,-7.271043 m 10.158789,12.768623 2.673501,-7.60524 m 11.378071,11.69443 1.982507,-7.8139 m 15.054904,11.38928 1.440046,-7.93181 m 15.782807,10.39412 0.912619,-8.00965 m 16.42411,9.41624 0.39004,-8.05204 m 14.04248,8.36646 0.0731,-8.06114"
     inkstitch:satin_column="true" />
</svg>
