<?xml version="1.0" encoding="UTF-8" standalone="no"?>
<!-- Created with Inkscape (http://www.inkscape.org/) -->

<svg
   width="210mm"
   height="297mm"
   viewBox="0 0 210 297"
   version="1.1"
   id="svg1"
   xml:space="preserve"
   inkscape:version="1.3.2 (091e20e, 2023-11-25, custom)"
   sodipodi:docname="logo-hdd.svg"
   xmlns:inkscape="http://www.inkscape.org/namespaces/inkscape"
   xmlns:sodipodi="http://sodipodi.sourceforge.net/DTD/sodipodi-0.dtd"
   xmlns:xlink="http://www.w3.org/1999/xlink"
   xmlns="http://www.w3.org/2000/svg"
   xmlns:svg="http://www.w3.org/2000/svg"
   xmlns:inkstitch="http://inkstitch.org/namespace"><sodipodi:namedview
     id="namedview1"
     pagecolor="#1b2786"
     bordercolor="#000000"
     borderopacity="0.25"
     inkscape:showpageshadow="2"
     inkscape:pageopacity="0.0"
     inkscape:pagecheckerboard="0"
     inkscape:deskcolor="#d1d1d1"
     inkscape:document-units="mm"
     inkscape:zoom="0.76702441"
     inkscape:cx="582.11967"
     inkscape:cy="996.70883"
     inkscape:window-width="1858"
     inkscape:window-height="1057"
     inkscape:window-x="54"
     inkscape:window-y="-8"
     inkscape:window-maximized="1"
     inkscape:current-layer="layer1" /><metadata
     id="metadata2"><inkstitch:min_stitch_len_mm>0</inkstitch:min_stitch_len_mm><inkstitch:collapse_len_mm>3</inkstitch:collapse_len_mm><inkstitch:inkstitch_svg_version>1</inkstitch:inkstitch_svg_version></metadata><defs
     id="defs1"><symbol
   id="inkstitch_trim">
      <title
   id="inkstitch_title9282">Trim the thread after sewing this object.</title>
      <path
   id="inkstitch_circle13405"
   d="m 9.2465284,-8.6e-6 c 1.8e-6,2.452339 -0.9741847,4.804237 -2.7082493,6.538304 C 4.8042146,8.2723614 2.4523174,9.2465504 -2.1625959e-5,9.2465514 -2.4523623,9.2465534 -4.8042621,8.2723654 -6.5383288,6.5382984 -8.2723956,4.8042314 -9.2465834,2.4523324 -9.2465816,-8.6e-6 c 6e-7,-2.452339 0.9741895,-4.804237 2.708256,-6.538301 1.7340665,-1.734065 4.0859648,-2.708252 6.538303974041,-2.70825 C 5.1067066,-9.2465576 9.2465271,-5.1067366 9.2465284,-8.6e-6 c 0,0 0,0 0,0"
   style="opacity:1;vector-effect:none;fill:#fafafa;fill-opacity:1;fill-rule:evenodd;stroke:#003399;stroke-width:1.06500006;stroke-linecap:round;stroke-linejoin:miter;stroke-miterlimit:4;stroke-dasharray:3.19500017, 3.19500017;stroke-dashoffset:0;stroke-opacity:1"
   inkscape:connector-curvature="0" />
      <path
   style="color:#000000;font-style:normal;font-variant:normal;font-weight:normal;font-stretch:normal;font-size:medium;line-height:normal;font-family:sans-serif;font-variant-ligatures:normal;font-variant-position:normal;font-variant-caps:normal;font-variant-numeric:normal;font-variant-alternates:normal;font-feature-settings:normal;text-indent:0;text-align:start;text-decoration:none;text-decoration-line:none;text-decoration-style:solid;text-decoration-color:#000000;letter-spacing:normal;word-spacing:normal;text-transform:none;writing-mode:lr-tb;direction:ltr;text-orientation:mixed;dominant-baseline:auto;baseline-shift:baseline;text-anchor:start;white-space:normal;shape-padding:0;clip-rule:nonzero;display:inline;overflow:visible;visibility:visible;opacity:1;isolation:auto;mix-blend-mode:normal;color-interpolation:sRGB;color-interpolation-filters:linearRGB;solid-color:#000000;solid-opacity:1;vector-effect:none;fill:#050505;fill-opacity:1;fill-rule:evenodd;stroke:none;stroke-width:1.41421342;stroke-linecap:butt;stroke-linejoin:miter;stroke-miterlimit:4;stroke-dasharray:none;stroke-dashoffset:0;stroke-opacity:1;color-rendering:auto;image-rendering:auto;shape-rendering:auto;text-rendering:auto;enable-background:accumulate"
   d="m -3.0000256,-5.9834096 c -1.30575,0 -2.375,1.06924 -2.375,2.375 0,1.30575 1.06925,2.375 2.375,2.375 0.58687,0 1.11944,-0.22369 1.53516,-0.58007 0,0 0.61717997,1.62109 0.61717997,1.62109 0,0 -2.29881997,6.01758 -2.29881997,6.01758 0.98655,-0.12511 1.23728,-0.26171 1.67382,-0.97461 0,0 1.33007997,-3.18945 1.33007997,-3.18945 0,0 1.23633003,3.25 1.23633003,3.25 0.23227,0.77906 0.84315,0.79218 1.57813,1.07226 0,0 -2.05469003,-6.14258 -2.05469003,-6.14258 0,0 0.73047003,-1.75 0.73047003,-1.75 0.42849,0.41682 1.01136,0.67578 1.65234,0.67578 1.30575,0 2.375,-1.06925 2.375,-2.375 0,-1.30576 -1.06925,-2.375 -2.375,-2.375 -1.06233,0 -1.95701,0.71265 -2.25781003,1.67969 0,0 -0.0117,-0.0156 -0.0117,-0.0156 0,0 -0.80274,2.10156 -0.80274,2.10156 0,0 -0.59179,-1.76562 -0.59179,-1.76562 -0.18242,-1.12808 -1.15864997,-2 -2.33593997,-2 0,0 -2e-5,-3e-5 -2e-5,-3e-5 m 0,1 c 0.76531,0 1.375,0.60968 1.375,1.375 0,0.76531 -0.60969,1.375 -1.375,1.375 -0.76531,0 -1.375,-0.60969 -1.375,-1.375 0,-0.76532 0.60969,-1.375 1.375,-1.375 0,0 0,0 0,0 m 6,0 c 0.76531,0 1.375,0.60968 1.375,1.375 0,0.76531 -0.60969,1.375 -1.375,1.375 -0.76531,0 -1.375,-0.60969 -1.375,-1.375 0,-0.76532 0.60969,-1.375 1.375,-1.375 0,0 0,0 0,0"
   id="inkstitch_path13416"
   inkscape:connector-curvature="0" />
    </symbol>
    </defs><g
     inkscape:label="Layer 1"
     inkscape:groupmode="layer"
     id="layer1"><path
       style="fill:#999999;stroke-width:0.435751"
       d="m 138.04962,280.24441 c -0.10914,-0.0635 -0.12345,-0.22646 -0.0268,-0.305 0.0657,-0.0534 0.49988,-0.29386 0.92447,-0.51201 0.46659,-0.23973 0.95109,-0.5969 1.24526,-0.91797 0.73947,-0.80714 1.28255,-2.15709 1.46711,-3.6468 0.1303,-1.05172 0.0649,-4.10618 -0.13703,-6.40435 -0.28679,-3.26336 -0.36496,-6.12589 -0.43759,-16.02426 l -0.0336,-4.58218 0.13818,-0.37403 0.13819,-0.37404 -0.11738,-0.1351 c -0.71355,-0.8213 -2.80367,-2.64393 -3.68573,-3.21404 -0.2957,-0.19111 -0.33949,-0.20449 -0.49592,-0.15141 -0.73984,0.25101 -1.3575,1.3023 -1.66516,2.83416 -0.23413,1.16578 -0.26872,1.66852 -0.25771,3.74574 0.0116,2.18814 0.14663,13.44252 0.19804,16.5066 l 0.0319,1.90255 0.33441,0.34834 c 0.18392,0.1916 0.53935,0.56541 0.78984,0.8307 0.25049,0.26527 0.64215,0.67791 0.87036,0.91694 l 0.41493,0.4346 -1.56955,1.44601 c -2.30648,2.12492 -2.58194,2.37198 -2.64585,2.37311 -0.0319,4.4e-4 -0.32132,-0.27038 -0.64311,-0.60212 -0.3218,-0.33173 -1.32065,-1.35917 -2.21967,-2.28321 -0.89902,-0.92402 -1.63458,-1.70401 -1.63458,-1.73329 0,-0.0293 0.16173,-0.21372 0.35938,-0.40984 l 0.35939,-0.35657 0.0287,-3.1084 c 0.0666,-7.19041 0.0852,-20.81244 0.0339,-24.92065 -0.0876,-7.03263 -0.13058,-14.77448 -0.087,-15.68988 l 0.0402,-0.84466 0.2221,-0.21133 c 0.12215,-0.11624 0.46551,-0.39934 0.76301,-0.62915 0.72922,-0.56327 1.00813,-0.80424 2.12741,-1.83801 1.53391,-1.41674 1.87027,-1.71498 1.93413,-1.71494 0.044,2e-5 0.0601,1.37454 0.0603,5.13152 2.1e-4,5.26747 0.11918,17.27606 0.1801,18.17574 l 0.034,0.50356 0.34768,-0.42317 c 0.19122,-0.23273 0.67356,-0.7608 1.07186,-1.17346 0.39829,-0.41267 1.00003,-1.05176 1.33719,-1.42021 0.33715,-0.36845 0.80263,-0.86526 1.03439,-1.10402 0.23176,-0.23877 0.45781,-0.48614 0.50235,-0.54971 0.13678,-0.19527 1.20279,-1.1331 1.28799,-1.1331 0.0441,0 0.24941,0.15074 0.45625,0.33496 0.20683,0.18422 0.4041,0.32691 0.43835,0.31709 0.0343,-0.01 0.045,-4.3e-4 0.0239,0.0206 -0.0211,0.0211 0.11391,0.16179 0.30003,0.31262 0.18614,0.15084 0.51693,0.41804 0.7351,0.5938 0.21817,0.17575 0.50625,0.41691 0.64019,0.53592 0.13393,0.11901 0.82126,0.68471 1.52739,1.25712 0.70614,0.57241 1.308,1.06917 1.33747,1.10389 0.0357,0.0421 0.0323,0.72121 -0.0106,2.04084 -0.0844,2.61486 -0.17535,9.15518 -0.17618,12.66947 -8.8e-4,3.16239 0.0818,7.30918 0.16169,8.11931 0.0946,0.9597 0.12762,3.22121 0.0556,3.80688 -0.29588,2.40574 -2.40685,5.73188 -6.03229,9.50477 -0.48053,0.50007 -1.01408,0.89811 -1.36218,1.01622 -0.22311,0.0757 -0.58883,0.0777 -0.71551,0.004 z"
       id="path1" /><g
       id="command_group1"
       inkscape:label="Ink/Stitch Command: Trim thread after sewing this object"
       transform="scale(0.264583, 0.264583)"><path
         id="command_connector1"
         d="m 500.8658,805.11055 4.4007,32.33196"
         style="fill:none;stroke:#000000;stroke-width:1px;stroke-opacity:0.5"
         inkscape:connection-start="#command_use269"
         inkscape:connection-end="#path1"
         inkscape:label="connector"
         inkscape:connector-type="polyline"
         inkscape:connector-curvature="0" /><use
         id="command_use269"
         xlink:href="#inkstitch_trim"
         height="100%"
         width="100%"
         x="500.8632284388071"
         y="805.0747036133873"
         inkscape:label="command marker" /></g><path
       style="fill:#999999;stroke-width:0.118173"
       d="m 180.79176,276.5355 c -1.17586,-0.48344 -2.95062,-2.18214 -4.13931,-3.96192 -0.56203,-0.84151 -0.95744,-1.65827 -1.32296,-2.73268 l -0.17798,-0.52318 -0.20484,0.18207 c -0.59916,0.53256 -1.88327,1.21199 -2.11939,1.12138 -0.10644,-0.0408 -0.0775,-0.13885 0.13478,-0.457 0.72775,-1.09053 1.11146,-2.09625 1.27571,-3.34366 0.19672,-1.49395 0.24632,-3.08994 0.15485,-4.98182 -0.0272,-0.56176 -0.0769,-1.61232 -0.11047,-2.33458 -0.12317,-2.64817 -0.14566,-3.11204 -0.16577,-3.41849 -0.0113,-0.17196 -0.0399,-0.7629 -0.0636,-1.3132 -0.0639,-1.48348 -0.1127,-2.10637 -0.17984,-2.29586 -0.20612,-0.58173 -0.55093,-0.96934 -1.09213,-1.22764 -0.33858,-0.1616 -0.42439,-0.24519 -0.36318,-0.35379 0.0172,-0.0306 0.37839,-0.29942 0.80257,-0.59741 1.76408,-1.23928 2.9385,-2.12218 3.40568,-2.5603 0.20194,-0.18939 1.01439,-0.99254 1.80544,-1.78479 1.02084,-1.0224 1.6137,-1.5805 2.04275,-1.92297 0.59006,-0.471 1.3837,-1.02987 1.90727,-1.34309 0.14331,-0.0857 0.26055,-0.16234 0.26055,-0.17024 0,-0.008 -0.16415,-0.14164 -0.36477,-0.29719 -0.20063,-0.15556 -0.46796,-0.36916 -0.59407,-0.47467 -0.12611,-0.10551 -0.45426,-0.37845 -0.72922,-0.60652 -1.33333,-1.10598 -3.06009,-2.73219 -3.95483,-3.72456 -1.45607,-1.61493 -2.48792,-3.13383 -3.38792,-4.98702 -0.84901,-1.74821 -1.48215,-3.79167 -1.66623,-5.37778 -0.0372,-0.32061 -0.0748,-0.62298 -0.0836,-0.67193 -0.0108,-0.0605 -0.13631,-0.16026 -0.39156,-0.31137 -0.292,-0.17287 -0.37561,-0.2428 -0.37561,-0.31418 0,-0.0671 0.20466,-0.26966 0.76082,-0.75298 1.37743,-1.19702 1.99933,-1.72852 2.98787,-2.55352 1.22388,-1.02141 1.21738,-1.01594 2.13162,-1.79454 1.02037,-0.869 0.98983,-0.84906 1.33051,-0.86831 0.34666,-0.0196 0.64914,0.0614 1.09725,0.29391 0.32438,0.16828 0.70114,0.46854 0.78534,0.62585 0.0738,0.13786 -0.0314,0.18242 -0.55256,0.23412 -1.22355,0.12137 -2.04385,0.50818 -2.31668,1.09243 -0.48246,1.03317 0.0294,3.1349 1.44632,5.9384 0.90589,1.79241 1.73453,2.99056 3.48471,5.03859 1.44592,1.692 3.61032,3.85168 5.166,5.15472 0.41905,0.35099 1.29416,1.01744 2.51176,1.91283 0.31925,0.23477 0.469,0.37084 0.469,0.42617 0,0.0621 -0.10602,0.13274 -0.44816,0.2988 l -0.44815,0.21751 -0.0333,0.27098 c -0.063,0.51256 0.011,1.23228 0.23781,2.31373 0.18836,0.89786 0.23006,1.08666 0.88336,3.99908 1.19513,5.32798 1.39789,6.35355 1.62837,8.23661 0.0932,0.76164 0.10511,2.54249 0.0207,3.10582 -0.27448,1.83264 -0.81245,3.12704 -2.10518,5.06521 -0.52129,0.78155 -1.39763,1.99046 -2.1718,2.99597 -0.35951,0.46695 -0.70172,0.92513 -0.76045,1.01817 -0.0587,0.093 -0.18595,0.25503 -0.28268,0.35998 -0.38002,0.41226 -1.77419,2.25872 -2.03269,2.69214 -0.15043,0.25222 -0.42882,0.72122 -0.61865,1.04222 -1.18572,2.00506 -2.5192,4.18513 -2.67902,4.37986 -0.1068,0.13013 -0.13763,0.1433 -0.33351,0.1424 -0.13083,-5.9e-4 -0.31235,-0.0407 -0.46093,-0.10176 z m 3.89864,-7.42508 c 0.36776,-0.19017 0.82181,-0.74708 1.15493,-1.41655 0.46765,-0.93984 0.70683,-1.7542 0.86871,-2.9578 0.10351,-0.76959 0.10291,-2.75985 -0.001,-3.60567 -0.12686,-1.03173 -0.11512,-0.97004 -1.5079,-7.92131 -1.37988,-6.88687 -1.60582,-7.97944 -1.65686,-8.01186 -0.0869,-0.0552 -0.84193,-0.0378 -1.14328,0.0264 -0.69025,0.14687 -1.21842,0.41023 -1.61585,0.80571 -0.66551,0.66225 -1.00492,1.43204 -1.05185,2.38557 -0.0118,0.24075 0.018,1.90101 0.0662,3.68947 0.0483,1.78845 0.10673,3.97399 0.12989,4.85675 0.0232,0.88276 0.0603,2.20534 0.0827,2.93907 0.0223,0.73372 0.0407,1.64253 0.0409,2.01957 l 3.5e-4,0.68553 -0.17552,0.44007 c -0.16323,0.40924 -0.17551,0.46783 -0.17518,0.83612 3.5e-4,0.35696 0.016,0.43718 0.15853,0.81293 0.16897,0.44535 0.58206,1.26405 0.86875,1.7218 0.62316,0.99496 1.20467,1.64597 1.86391,2.08669 0.94405,0.63113 1.65053,0.83623 2.09274,0.60755 z"
       id="path2"
       sodipodi:nodetypes="ssscssssssssssssssssssssssscsssssssssssssssscsssssssssssssscsscssssssssccscssscc" /><g
       id="command_group2"
       inkscape:label="Ink/Stitch Command: Trim thread after sewing this object"
       transform="scale(0.264583, 0.264583)"><path
         id="command_connector2"
         d="m 678.59102,800.97756 1.92965,32.56239"
         style="fill:none;stroke:#000000;stroke-width:1px;stroke-opacity:0.5"
         inkscape:connection-start="#command_use5199"
         inkscape:connection-end="#path2"
         inkscape:label="connector"
         inkscape:connector-type="polyline"
         inkscape:connector-curvature="0" /><use
         id="command_use5199"
         xlink:href="#inkstitch_trim"
         height="100%"
         width="100%"
         x="678.5884674489147"
         y="800.9417270097214"
         inkscape:label="command marker" /></g><path
       style="fill:#999999;stroke-width:0.118173"
       d="m 157.66368,277.3858 c -1.17586,-0.48344 -2.95062,-2.18214 -4.13931,-3.96192 -0.56203,-0.84151 -0.95744,-1.65827 -1.32296,-2.73268 l -0.17798,-0.52318 -0.20484,0.18207 c -0.59916,0.53256 -1.88327,1.21199 -2.11939,1.12138 -0.10644,-0.0408 -0.0775,-0.13885 0.13478,-0.457 0.72775,-1.09053 1.11146,-2.09625 1.27571,-3.34366 0.19672,-1.49395 0.24632,-3.08994 0.15485,-4.98182 -0.0272,-0.56176 -0.0769,-1.61232 -0.11047,-2.33458 -0.12317,-2.64817 -0.14566,-3.11204 -0.16577,-3.41849 -0.0113,-0.17196 -0.0399,-0.7629 -0.0636,-1.3132 -0.0639,-1.48348 -0.1127,-2.10637 -0.17984,-2.29586 -0.20612,-0.58173 -0.55093,-0.96934 -1.09213,-1.22764 -0.33858,-0.1616 -0.42439,-0.24519 -0.36318,-0.35379 0.0172,-0.0306 0.37839,-0.29942 0.80257,-0.59741 1.76408,-1.23928 2.9385,-2.12218 3.40568,-2.5603 0.20194,-0.18939 1.01439,-0.99254 1.80544,-1.78479 1.02084,-1.0224 1.6137,-1.5805 2.04275,-1.92297 0.59006,-0.471 1.3837,-1.02987 1.90727,-1.34309 0.14331,-0.0857 0.26055,-0.16234 0.26055,-0.17024 0,-0.008 -0.16415,-0.14164 -0.36477,-0.29719 -0.20063,-0.15556 -0.46796,-0.36916 -0.59407,-0.47467 -0.12611,-0.10551 -0.45426,-0.37845 -0.72922,-0.60652 -1.33333,-1.10598 -3.06009,-2.73219 -3.95483,-3.72456 -1.45607,-1.61493 -2.48792,-3.13383 -3.38792,-4.98702 -0.84901,-1.74821 -1.48215,-3.79167 -1.66623,-5.37778 -0.0372,-0.32061 -0.0748,-0.62298 -0.0836,-0.67193 -0.0108,-0.0605 -0.13631,-0.16026 -0.39156,-0.31137 -0.292,-0.17287 -0.37561,-0.2428 -0.37561,-0.31418 0,-0.0671 0.20466,-0.26966 0.76082,-0.75298 1.37743,-1.19702 1.99933,-1.72852 2.98787,-2.55352 1.22388,-1.02141 1.21738,-1.01594 2.13162,-1.79454 1.02037,-0.869 0.98983,-0.84906 1.33051,-0.86831 0.34666,-0.0196 0.64914,0.0614 1.09725,0.29391 0.32438,0.16828 0.70114,0.46854 0.78534,0.62585 0.0738,0.13786 -0.0314,0.18242 -0.55256,0.23412 -1.22355,0.12137 -2.04385,0.50818 -2.31668,1.09243 -0.48246,1.03317 0.0294,3.1349 1.44632,5.9384 0.90589,1.79241 1.73453,2.99056 3.48471,5.03859 1.44592,1.692 3.61032,3.85168 5.166,5.15472 0.41905,0.35099 1.29416,1.01744 2.51176,1.91283 0.31925,0.23477 0.469,0.37084 0.469,0.42617 0,0.0621 -0.10602,0.13274 -0.44816,0.2988 l -0.44815,0.21751 -0.0333,0.27098 c -0.063,0.51256 0.011,1.23228 0.23781,2.31373 0.18836,0.89786 0.23006,1.08666 0.88336,3.99908 1.19513,5.32798 1.39789,6.35355 1.62837,8.23661 0.0932,0.76164 0.10511,2.54249 0.0207,3.10582 -0.27448,1.83264 -0.81245,3.12704 -2.10518,5.06521 -0.52129,0.78155 -1.39763,1.99046 -2.1718,2.99597 -0.35951,0.46695 -0.70172,0.92513 -0.76045,1.01817 -0.0587,0.093 -0.18595,0.25503 -0.28268,0.35998 -0.38002,0.41226 -1.77419,2.25872 -2.03269,2.69214 -0.15043,0.25222 -0.42882,0.72122 -0.61865,1.04222 -1.18572,2.00506 -2.5192,4.18513 -2.67902,4.37986 -0.1068,0.13013 -0.13763,0.1433 -0.33351,0.1424 -0.13083,-5.9e-4 -0.31235,-0.0407 -0.46093,-0.10176 z m 3.89864,-7.42508 c 0.36776,-0.19017 0.82181,-0.74708 1.15493,-1.41655 0.46765,-0.93984 0.70683,-1.7542 0.86871,-2.9578 0.10351,-0.76959 0.10291,-2.75985 -0.001,-3.60567 -0.12686,-1.03173 -0.11512,-0.97004 -1.5079,-7.92131 -1.37988,-6.88687 -1.60582,-7.97944 -1.65686,-8.01186 -0.0869,-0.0552 -0.84193,-0.0378 -1.14328,0.0264 -0.69025,0.14687 -1.21842,0.41023 -1.61585,0.80571 -0.66551,0.66225 -1.00492,1.43204 -1.05185,2.38557 -0.0118,0.24075 0.018,1.90101 0.0662,3.68947 0.0483,1.78845 0.10673,3.97399 0.12989,4.85675 0.0232,0.88276 0.0603,2.20534 0.0827,2.93907 0.0223,0.73372 0.0407,1.64253 0.0409,2.01957 l 3.5e-4,0.68553 -0.17552,0.44007 c -0.16323,0.40924 -0.17551,0.46783 -0.17518,0.83612 3.5e-4,0.35696 0.016,0.43718 0.15853,0.81293 0.16897,0.44535 0.58206,1.26405 0.86875,1.7218 0.62316,0.99496 1.20467,1.64597 1.86391,2.08669 0.94405,0.63113 1.65053,0.83623 2.09274,0.60755 z"
       id="path2-7"
       sodipodi:nodetypes="ssscssssssssssssssssssssssscsssssssssssssssscsssssssssssssscsscssssssssccscssscc" /></g></svg>
