<?xml version="1.0" encoding="UTF-8"?>
<svg version="1.1" xmlns="http://www.w3.org/2000/svg" width="250" height="250">
<path d="M0 0 C0.96322174 -0.00902847 1.92644348 -0.01805695 2.91885376 -0.02735901 C4.95091687 -0.0417927 6.98302574 -0.050731 9.01513672 -0.05444336 C12.05911119 -0.06624171 15.1009891 -0.11541334 18.14453125 -0.16601562 C34.30386352 -0.30068837 49.32538198 2.16055372 64.0390625 9.12109375 C64.77068604 9.45761963 65.50230957 9.79414551 66.25610352 10.14086914 C96.72812856 24.56626148 119.91253063 50.65319902 131.40063477 82.24633789 C132.64708172 85.91950983 133.7297603 89.62304913 134.7265625 93.37109375 C134.90300293 94.02658203 135.07944336 94.68207031 135.26123047 95.35742188 C143.57604638 128.0233587 136.09856599 162.75399368 119.28125 191.328125 C115.92517952 196.78779167 112.00328271 201.59804237 107.7265625 206.37109375 C106.70486371 207.62038646 105.68393355 208.8703085 104.6640625 210.12109375 C86.3186868 231.21577643 55.77532378 246.65437758 27.93359375 249.22607422 C12.708568 250.22647967 -2.43086241 250.08173752 -17.2734375 246.37109375 C-17.91861328 246.21012207 -18.56378906 246.04915039 -19.22851562 245.88330078 C-51.54214582 237.53213667 -78.71741409 216.68736271 -96.12744141 188.32666016 C-107.64993238 168.66429272 -112.91141163 146.89241243 -112.7734375 124.24609375 C-112.77200745 123.48373413 -112.77057739 122.72137451 -112.769104 121.93591309 C-112.71024283 109.21192299 -111.45285767 97.47072205 -107.2734375 85.37109375 C-107.04350098 84.68756836 -106.81356445 84.00404297 -106.57666016 83.29980469 C-95.38457768 50.87207246 -72.21622597 25.82497265 -41.76171875 10.44921875 C-28.68702744 4.16967985 -14.51774172 0.08649151 0 0 Z " fill="#040404" transform="translate(112.2734375,-0.37109375)"/>
<path d="M0 0 C0.96322174 -0.00902847 1.92644348 -0.01805695 2.91885376 -0.02735901 C4.95091687 -0.0417927 6.98302574 -0.050731 9.01513672 -0.05444336 C12.05911119 -0.06624171 15.1009891 -0.11541334 18.14453125 -0.16601562 C34.30386352 -0.30068837 49.32538198 2.16055372 64.0390625 9.12109375 C64.77068604 9.45761963 65.50230957 9.79414551 66.25610352 10.14086914 C96.72812856 24.56626148 119.91253063 50.65319902 131.40063477 82.24633789 C132.64708172 85.91950983 133.7297603 89.62304913 134.7265625 93.37109375 C134.90300293 94.02658203 135.07944336 94.68207031 135.26123047 95.35742188 C143.57604638 128.0233587 136.09856599 162.75399368 119.28125 191.328125 C115.92517952 196.78779167 112.00328271 201.59804237 107.7265625 206.37109375 C106.70486371 207.62038646 105.68393355 208.8703085 104.6640625 210.12109375 C86.3186868 231.21577643 55.77532378 246.65437758 27.93359375 249.22607422 C12.708568 250.22647967 -2.43086241 250.08173752 -17.2734375 246.37109375 C-17.91861328 246.21012207 -18.56378906 246.04915039 -19.22851562 245.88330078 C-51.54214582 237.53213667 -78.71741409 216.68736271 -96.12744141 188.32666016 C-107.64993238 168.66429272 -112.91141163 146.89241243 -112.7734375 124.24609375 C-112.77200745 123.48373413 -112.77057739 122.72137451 -112.769104 121.93591309 C-112.71024283 109.21192299 -111.45285767 97.47072205 -107.2734375 85.37109375 C-107.04350098 84.68756836 -106.81356445 84.00404297 -106.57666016 83.29980469 C-95.38457768 50.87207246 -72.21622597 25.82497265 -41.76171875 10.44921875 C-28.68702744 4.16967985 -14.51774172 0.08649151 0 0 Z M-73.2734375 40.37109375 C-74.23830078 41.24314453 -74.23830078 41.24314453 -75.22265625 42.1328125 C-95.0772476 60.50640869 -106.97948208 90.78619145 -108.2734375 117.37109375 C-108.35271484 118.96050781 -108.35271484 118.96050781 -108.43359375 120.58203125 C-109.27233396 154.2045736 -97.41095435 184.35391235 -74.63671875 208.9375 C-52.86492762 231.3570469 -23.80318757 245.18852282 7.63793945 245.66357422 C43.68983654 245.85470731 73.45054247 234.66046321 99.62109375 209.53515625 C115.54048923 193.68934811 125.27764213 172.91613934 130.7265625 151.37109375 C130.91710205 150.63793945 131.1076416 149.90478516 131.30395508 149.14941406 C133.06412658 141.56254912 133.08149892 134.00137828 133.0390625 126.24609375 C133.03723969 125.55789551 133.03541687 124.86969727 133.03353882 124.16064453 C132.98775254 113.9069045 132.54217571 104.27115311 129.7265625 94.37109375 C129.38625 93.14390625 129.0459375 91.91671875 128.6953125 90.65234375 C119.02176945 59.0172435 96.92619399 32.94273855 67.83007812 17.44189453 C51.64231452 9.20146612 34.69703213 5.6074221 16.7265625 4.37109375 C15.13908203 4.26087891 15.13908203 4.26087891 13.51953125 4.1484375 C-19.10869871 3.09885807 -50.35004809 17.99759075 -73.2734375 40.37109375 Z " fill="#F2B1CA" transform="translate(112.2734375,-0.37109375)"/>
<path d="M0 0 C38.94 0 77.88 0 118 0 C118.0825 13.2 118.165 26.4 118.25 40 C118.28641602 44.1353125 118.32283203 48.270625 118.36035156 52.53125 C118.37841797 57.6640625 118.37841797 57.6640625 118.3817749 60.08300781 C118.38783246 61.73734875 118.40171963 63.39167445 118.42230225 65.04589844 C118.73807625 91.81235199 109.93188658 115.87479176 92 136 C91.25105469 136.84433594 90.50210938 137.68867188 89.73046875 138.55859375 C83.04003564 145.67064619 75.3392388 151.00736699 67 156 C65.98421875 156.60972656 64.9684375 157.21945313 63.921875 157.84765625 C60.31107787 159.27170057 58.7006323 159.11726096 55 158 C52.52771535 156.80775276 50.26816052 155.60820952 47.9375 154.1875 C47.28773193 153.79369141 46.63796387 153.39988281 45.96850586 152.99414062 C38.84556908 148.51057979 32.88033727 142.98244093 27 137 C26.23945312 136.23816406 25.47890625 135.47632813 24.6953125 134.69140625 C8.82010652 117.85874621 -0.22993941 93.8539169 -0.11352539 70.83984375 C-0.11364593 70.0558168 -0.11376646 69.27178986 -0.11389065 68.46400452 C-0.11315114 65.95513964 -0.10556729 63.44635139 -0.09765625 60.9375 C-0.09618384 59.37695349 -0.09516497 57.81640648 -0.09460449 56.25585938 C-0.08938621 50.50389866 -0.07542496 44.75194856 -0.0625 39 C-0.041875 26.13 -0.02125 13.26 0 0 Z M2 2 C1.938125 14.045 1.87625 26.09 1.8125 38.5 C1.78518799 42.26986328 1.75787598 46.03972656 1.72973633 49.92382812 C1.71968846 53.3737142 1.71968846 53.3737142 1.71366882 56.8236084 C1.70913334 58.33209915 1.69873526 59.8405807 1.68327332 61.34899902 C1.5490698 75.16070994 2.8449393 88.55127094 7.6875 101.625 C7.94313721 102.32463867 8.19877441 103.02427734 8.4621582 103.74511719 C16.88995025 125.90104142 32.70912696 142.24565415 53 154 C53.82886719 154.61101562 54.65773437 155.22203125 55.51171875 155.8515625 C58.01467408 157.30611767 58.01467408 157.30611767 60.98828125 156.37890625 C82.70252553 146.43710569 99.56667709 127.44386383 108.8125 105.6875 C109.07828857 105.07374512 109.34407715 104.45999023 109.61791992 103.82763672 C115.19303157 89.89423918 116.58587582 76.11725277 116.390625 61.27734375 C116.38471943 59.7458149 116.38065384 58.21427786 116.37841797 56.68273926 C116.35772935 51.10086704 116.30188727 45.51916939 116.25 39.9375 C116.12625 21.1584375 116.12625 21.1584375 116 2 C78.38 2 40.76 2 2 2 Z " fill="#EBACC4" transform="translate(66,56)"/>
<path d="M0 0 C1.79244141 0.01740234 1.79244141 0.01740234 3.62109375 0.03515625 C5.41740234 0.04869141 5.41740234 0.04869141 7.25 0.0625 C8.17683594 0.07410156 9.10367188 0.08570312 10.05859375 0.09765625 C8.07859375 1.08765625 8.07859375 1.08765625 6.05859375 2.09765625 C6.38859375 2.75765625 6.71859375 3.41765625 7.05859375 4.09765625 C7.43359375 6.97265625 7.43359375 6.97265625 7.05859375 10.09765625 C3.5244755 14.06015248 0.23839563 14.69139728 -4.94140625 15.09765625 C-4.94140625 16.41765625 -4.94140625 17.73765625 -4.94140625 19.09765625 C-3.87921875 19.11183594 -2.81703125 19.12601563 -1.72265625 19.140625 C8.15457588 19.41616008 14.30065599 20.33971849 21.49609375 27.53515625 C23.26298251 30.43285381 23.74621317 32.73956505 24.05859375 36.09765625 C17.53366706 30.59912253 17.53366706 30.59912253 14.80859375 27.72265625 C13.09021728 25.7574307 13.09021728 25.7574307 10.05859375 26.09765625 C10.48269531 26.49557373 10.90679687 26.89349121 11.34375 27.3034668 C13.26177564 29.11742374 15.16008769 30.95078891 17.05859375 32.78515625 C17.72632813 33.41099609 18.3940625 34.03683594 19.08203125 34.68164062 C19.71367188 35.29716797 20.3453125 35.91269531 20.99609375 36.546875 C21.58261719 37.10721436 22.16914062 37.66755371 22.7734375 38.24487305 C24.43356896 40.63825026 24.29805514 42.24763806 24.05859375 45.09765625 C20.45265199 42.16258737 17.0553828 39.12843213 13.8046875 35.8046875 C13.23000732 35.21776123 12.65532715 34.63083496 12.06323242 34.02612305 C10.89914494 32.82964131 9.74165364 31.62670428 8.59106445 30.41723633 C7.1353451 28.92168763 5.60156537 27.50301148 4.05859375 26.09765625 C3.06859375 26.09765625 2.07859375 26.09765625 1.05859375 26.09765625 C2.10370117 27.09563232 2.10370117 27.09563232 3.16992188 28.11376953 C5.75691608 30.59196332 8.3238363 33.09012834 10.88525391 35.59472656 C11.99545846 36.67480301 13.11099454 37.74942771 14.23193359 38.81835938 C15.84483196 40.35826943 17.43737295 41.91693892 19.02734375 43.48046875 C19.53044067 43.95259796 20.0335376 44.42472717 20.55187988 44.91116333 C23.12265844 47.47941181 24.02832573 48.77509499 24.37304688 52.44873047 C24.26927734 53.32287598 24.16550781 54.19702148 24.05859375 55.09765625 C17.42209177 49.52182688 11.21662513 43.5799182 5.04980469 37.49389648 C3.80107795 36.26689668 2.54611853 35.04620924 1.28515625 33.83178711 C-0.55248893 32.0610997 -2.36961474 30.27144915 -4.18359375 28.4765625 C-4.74706512 27.94092178 -5.3105365 27.40528107 -5.89108276 26.85340881 C-9.55309508 23.17177794 -10.89719144 20.49949971 -10.94140625 15.09765625 C-9.17499453 12.29576179 -7.91090803 10.58240714 -4.94140625 9.09765625 C-2.60841965 9.05743234 -0.27433959 9.05445378 2.05859375 9.09765625 C2.05859375 7.77765625 2.05859375 6.45765625 2.05859375 5.09765625 C-4.54140625 5.09765625 -11.14140625 5.09765625 -17.94140625 5.09765625 C-17.94140625 4.76765625 -17.94140625 4.43765625 -17.94140625 4.09765625 C-16.94238281 3.89269531 -15.94335938 3.68773438 -14.9140625 3.4765625 C-13.62371094 3.20714844 -12.33335938 2.93773438 -11.00390625 2.66015625 C-9.71613281 2.39332031 -8.42835937 2.12648438 -7.1015625 1.8515625 C-3.73822065 1.04918305 -3.38405631 0.11235247 0 0 Z " fill="#EDEDED" transform="translate(99.94140625,95.90234375)"/>
<path d="M0 0 C2.10388569 -0.05402274 4.20816714 -0.09280256 6.3125 -0.125 C8.07013672 -0.15980469 8.07013672 -0.15980469 9.86328125 -0.1953125 C13 0 13 0 16 2 C18.04869074 2.44429438 20.11454293 2.81294195 22.1875 3.125 C23.81751953 3.37636719 23.81751953 3.37636719 25.48046875 3.6328125 C26.72763672 3.81457031 26.72763672 3.81457031 28 4 C28 4.33 28 4.66 28 5 C18.1 5.495 18.1 5.495 8 6 C8 6.66 8 7.32 8 8 C8.60328125 8.08636719 9.2065625 8.17273438 9.828125 8.26171875 C13.93234061 8.98326633 16.40984346 9.46741971 19.5625 12.3125 C21.18479619 15.34548852 21.44071481 16.6195171 21 20 C19.40234375 22.3046875 19.40234375 22.3046875 16.9375 24.875 C16.47939941 25.35678711 16.02129883 25.83857422 15.54931641 26.33496094 C13.71783853 28.24187597 11.86012302 30.12099461 10 32 C9.08847168 32.92522461 8.17694336 33.85044922 7.23779297 34.80371094 C4.12492621 37.96051253 1.00230148 41.10750199 -2.125 44.25 C-2.6513504 44.77930115 -3.17770081 45.30860229 -3.72000122 45.85394287 C-5.22957383 47.3692399 -6.74293886 48.88062949 -8.2578125 50.390625 C-9.1461377 51.27782227 -10.03446289 52.16501953 -10.94970703 53.07910156 C-13 55 -13 55 -14 55 C-14.47151386 51.02800824 -14.34247051 49.45295764 -11.88867188 46.20751953 C-10.9306309 45.25042143 -9.95622896 44.30950802 -8.96875 43.3828125 C-8.45824097 42.88079315 -7.94773193 42.3787738 -7.42175293 41.86154175 C-5.79474941 40.26801195 -4.14811878 38.69665222 -2.5 37.125 C-1.39056346 36.04567073 -0.28247361 34.96495534 0.82421875 33.8828125 C3.53413951 31.2388952 6.26185458 28.61466291 9 26 C5.12050863 26.55515067 3.39392542 28.2666515 0.70703125 31.03515625 C-0.4850293 32.24848633 -0.4850293 32.24848633 -1.70117188 33.48632812 C-2.52166016 34.33646484 -3.34214844 35.18660156 -4.1875 36.0625 C-5.82476934 37.74288875 -7.46398223 39.42138681 -9.10546875 41.09765625 C-9.82887451 41.84539307 -10.55228027 42.59312988 -11.29760742 43.36352539 C-13 45 -13 45 -14 45 C-14.37471526 40.54021925 -14.37471526 40.54021925 -12.71484375 38.1472168 C-11.83505859 37.30670776 -11.83505859 37.30670776 -10.9375 36.44921875 C-10.30585938 35.83369141 -9.67421875 35.21816406 -9.0234375 34.58398438 C-8.35570312 33.95814453 -7.68796875 33.33230469 -7 32.6875 C-6.33226562 32.04232422 -5.66453125 31.39714844 -4.9765625 30.73242188 C-3.32838797 29.14311073 -1.66970902 27.56662098 0 26 C-3.55972628 26.76144618 -5.14948621 27.78937715 -7.6875 30.4375 C-8.28949219 31.05496094 -8.89148438 31.67242187 -9.51171875 32.30859375 C-11.07826107 33.94393553 -11.07826107 33.94393553 -12 36 C-12.66 36 -13.32 36 -14 36 C-13.75266173 30.92956544 -12.03373502 28.33065966 -8.86328125 24.61328125 C-3.84000041 20.26398358 1.00702053 19.51401834 7.375 19.3125 C8.11105469 19.27833984 8.84710938 19.24417969 9.60546875 19.20898438 C11.40313853 19.12727211 13.20154046 19.06194219 15 19 C15 17.68 15 16.36 15 15 C13.7625 14.9175 12.525 14.835 11.25 14.75 C8.28523201 14.3662623 7.04370996 14.02950422 4.5 12.3125 C2.57219534 9.34046781 2.62171309 7.48023953 3 4 C3.33 3.34 3.66 2.68 4 2 C2.68 1.67 1.36 1.34 0 1 C0 0.67 0 0.34 0 0 Z " fill="#EFEFEF" transform="translate(140,96)"/>
<path d="M0 0 C0.66 0.33 1.32 0.66 2 1 C2.25719817 3.02543556 2.50842122 5.05350224 2.65625 7.08984375 C2.85476212 9.23522156 2.85476212 9.23522156 5 11 C5.33 9.35 5.66 7.7 6 6 C6.99 6.66 7.98 7.32 9 8 C9 9.134375 9 10.26875 9 11.4375 C9.4836513 18.17141428 16.27157498 22.76233408 21 27 C26.38473301 24.65881174 30.42136036 20.58444874 34 16 C34.8489675 13.20647007 34.89645991 10.95089256 35 8 C35.99 7.34 36.98 6.68 38 6 C38.495 8.475 38.495 8.475 39 11 C41.31203927 8.68796073 41.27275091 8.06785625 41.5 4.9375 C41.665 3.638125 41.83 2.33875 42 1 C42.66 0.67 43.32 0.34 44 0 C44.1363128 1.56002428 44.23259126 3.12357176 44.3125 4.6875 C44.37050781 5.55761719 44.42851562 6.42773438 44.48828125 7.32421875 C44 10 44 10 41.51367188 12.14453125 C38.28962409 15.80696937 38.26891659 18.70501457 38.29296875 23.36328125 C38.27784744 24.15526413 38.26272614 24.94724701 38.24714661 25.76322937 C38.2043362 28.27994403 38.19543868 30.79545782 38.1875 33.3125 C38.16435031 35.02412032 38.13898397 36.73571219 38.11132812 38.44726562 C38.0485423 42.63161625 38.01615501 46.81522004 38 51 C39.98 51 41.96 51 44 51 C44 51.99 44 52.98 44 54 C41.03 54 38.06 54 35 54 C35 42.78 35 31.56 35 20 C27.23138674 25.90617178 27.23138674 25.90617178 25 31 C26.32 32.32 27.64 33.64 29 35 C27.55746343 38.36591866 25.66735273 40.51047079 23 43 C19.63408134 41.55746343 17.48952921 39.66735273 15 37 C16.33333333 34.33333333 17.66666667 31.66666667 19 29 C16.03 26.03 13.06 23.06 10 20 C9.67 31.22 9.34 42.44 9 54 C5.7 54 2.4 54 -1 54 C-1 53.01 -1 52.02 -1 51 C1.31 51 3.62 51 6 51 C5.9805582 45.96381253 5.9287785 40.92936727 5.84741211 35.89379883 C5.82425975 34.18198141 5.80984285 32.4700221 5.80444336 30.75805664 C5.79513297 28.29223502 5.75410221 25.82863626 5.70703125 23.36328125 C5.7109639 22.60163162 5.71489655 21.83998199 5.71894836 21.05525208 C5.60758455 16.97121767 5.2257602 15.25645797 2.48632812 12.14453125 C1.66583984 11.43683594 0.84535156 10.72914063 0 10 C-0.48828125 7.32421875 -0.48828125 7.32421875 -0.3125 4.6875 C-0.26738281 3.80449219 -0.22226563 2.92148438 -0.17578125 2.01171875 C-0.11777344 1.34785156 -0.05976562 0.68398437 0 0 Z " fill="#C18DA1" transform="translate(103,134)"/>
<path d="M0 0 C0.99 0.99 0.99 0.99 2 2 C0.97723519 23.47806091 -9.96242179 44.24542875 -24 60 C-24.74894531 60.84433594 -25.49789062 61.68867188 -26.26953125 62.55859375 C-32.95996436 69.67064619 -40.6607612 75.00736699 -49 80 C-50.52367187 80.91458984 -50.52367187 80.91458984 -52.078125 81.84765625 C-55.68892213 83.27170057 -57.2993677 83.11726096 -61 82 C-63.47228465 80.80775276 -65.73183948 79.60820952 -68.0625 78.1875 C-68.71226807 77.79369141 -69.36203613 77.39988281 -70.03149414 76.99414062 C-77.15443092 72.51057979 -83.11966273 66.98244093 -89 61 C-89.76054688 60.23816406 -90.52109375 59.47632813 -91.3046875 58.69140625 C-105.50720831 43.63231317 -115.04584894 21.70507791 -116 1 C-115.01 1 -114.02 1 -113 1 C-112.85304688 1.95777344 -112.70609375 2.91554687 -112.5546875 3.90234375 C-108.21797242 30.35261062 -96.55435063 53.55693072 -74.68457031 69.79296875 C-71.55310472 72.03673192 -68.37763756 74.18567217 -65.125 76.25 C-64.1973584 76.86149902 -64.1973584 76.86149902 -63.25097656 77.48535156 C-60.14183074 79.36698173 -58.5011253 80.09219702 -54.87890625 79.42578125 C-31.48374438 67.83930353 -14.41894083 47.87809506 -5.77880859 23.4375 C-3.32946116 15.77158001 -1.65138489 7.86986303 0 0 Z " fill="#DBA0B6" transform="translate(182,132)"/>
<path d="M0 0 C1.69433662 1.64450319 3.35481081 3.30706126 5 5 C5.45761719 5.46148437 5.91523438 5.92296875 6.38671875 6.3984375 C23.42785455 24.79352655 26.83092514 48.71878132 26.17041016 72.69580078 C25.02706078 94.86498488 12.52470075 114.78712968 -3 130 C-14.29425072 139.82176866 -33.17866262 151.98696434 -49 151 C-46.88177122 148.62895828 -45.27124776 147.52806582 -42.2265625 146.640625 C-41.49042725 146.41576416 -40.75429199 146.19090332 -39.99584961 145.95922852 C-39.21346924 145.72518311 -38.43108887 145.4911377 -37.625 145.25 C-15.11015093 138.10861708 2.53096894 123.88594757 13.6171875 102.9453125 C17.59224545 94.85676174 19.98781432 86.75042798 22 78 C22.19207031 77.23945313 22.38414062 76.47890625 22.58203125 75.6953125 C26.14966512 52.68907537 20.14048475 30.60831805 6.75 11.8125 C5.01711543 9.50083198 3.41901527 7.37466005 1.265625 5.44921875 C0 4 0 4 0 0 Z " fill="#D79DB3" transform="translate(188,62)"/>
<path d="M0 0 C0.71484375 1.7578125 0.71484375 1.7578125 1 4 C-0.37109375 5.8671875 -0.37109375 5.8671875 -2.4375 7.875 C-10.35701671 16.3076903 -15.80459826 26.91643263 -19 38 C-19.29777344 39.00804687 -19.59554687 40.01609375 -19.90234375 41.0546875 C-25.49225643 62.95065884 -21.79861046 86.22567071 -11.37109375 106.10546875 C-7.32857337 112.75546168 -2.35498993 118.38355486 3 124 C3.51691406 124.60328125 4.03382812 125.2065625 4.56640625 125.828125 C15.3698807 137.90093717 31.91768963 144.31384421 47.171875 148.32421875 C49 149 49 149 50 151 C29.49309398 150.2676105 10.47611877 137.10201483 -3.1875 122.75 C-21.21485418 102.20852987 -26.5704329 78.58690068 -25 52 C-23.33527292 32.03996409 -13.57216724 14.42042769 0 0 Z " fill="#D69CB2" transform="translate(61,62)"/>
<path d="M0 0 C1.07121094 0.38542969 2.14242187 0.77085938 3.24609375 1.16796875 C9.74421757 3.67473562 15.39311795 6.87979122 21 11 C19.4609375 11.73046875 19.4609375 11.73046875 17 12 C14.4370962 10.85994969 12.06908905 9.66689012 9.625 8.3125 C-10.38803599 -2.24834168 -33.47021 -4.15962435 -55.11181641 2.38818359 C-61.21256901 4.36497258 -67.19252046 6.56419391 -72.4375 10.3125 C-75.26445102 12.17415067 -76.68549836 12.38994137 -80 12 C-77.21711242 8.64170333 -73.45699609 6.96141901 -69.625 5.0625 C-68.91617676 4.70986084 -68.20735352 4.35722168 -67.47705078 3.99389648 C-47.19071397 -5.83577646 -21.26944162 -8.09134892 0 0 Z " fill="#D49BB1" transform="translate(154,40)"/>
<path d="M0 0 C5 0 5 0 7.8125 2.5 C8.534375 3.325 9.25625 4.15 10 5 C12.23212073 3.99939416 13.80255169 3.22320243 15.4375 1.375 C17 0 17 0 22 0 C22 5.28 22 10.56 22 16 C20.35 16 18.7 16 17 16 C16.67 13.36 16.34 10.72 16 8 C14.68 9.32 13.36 10.64 12 12 C7.125 10.125 7.125 10.125 6 9 C5.67 11.31 5.34 13.62 5 16 C3.35 16 1.7 16 0 16 C0 10.72 0 5.44 0 0 Z " fill="#E2A5BD" transform="translate(139,70)"/>
<path d="M0 0 C0.33 0 0.66 0 1 0 C1.1363128 1.56002428 1.23259126 3.12357176 1.3125 4.6875 C1.37050781 5.55761719 1.42851562 6.42773438 1.48828125 7.32421875 C1 10 1 10 -1.48632812 12.14453125 C-4.71037591 15.80696937 -4.73108341 18.70501457 -4.70703125 23.36328125 C-4.72215256 24.15526413 -4.73727386 24.94724701 -4.75285339 25.76322937 C-4.7956638 28.27994403 -4.80456132 30.79545782 -4.8125 33.3125 C-4.83564969 35.02412032 -4.86101603 36.73571219 -4.88867188 38.44726562 C-4.9514577 42.63161625 -4.98384499 46.81522004 -5 51 C-3.02 51 -1.04 51 1 51 C1 51.99 1 52.98 1 54 C-1.97 54 -4.94 54 -8 54 C-8 42.78 -8 31.56 -8 20 C-10.64 22.31 -13.28 24.62 -16 27 C-17.32 27.33 -18.64 27.66 -20 28 C-19.10698344 26.93513145 -18.2104053 25.87324959 -17.3125 24.8125 C-16.76851562 24.16796875 -16.22453125 23.5234375 -15.6640625 22.859375 C-14 21 -14 21 -11.1875 18.5625 C-8.8798884 15.85929784 -8.68291129 15.16933682 -8.375 11.8125 C-8.25125 10.554375 -8.1275 9.29625 -8 8 C-7.01 7.34 -6.02 6.68 -5 6 C-4.67 7.65 -4.34 9.3 -4 11 C-1.70176341 8.70176341 -1.70309616 8.05119118 -1.4375 4.9375 C-1 1 -1 1 0 0 Z " fill="#C691A5" transform="translate(146,134)"/>
<path d="M0 0 C6 0 6 0 8.375 2 C8.91125 2.66 9.4475 3.32 10 4 C12.46800047 2.84826645 14.04783565 1.95216435 16 0 C17.65 0 19.3 0 21 0 C21 4.95 21 9.9 21 15 C19.68 15 18.36 15 17 15 C16.67 12.36 16.34 9.72 16 7 C15.4225 7.680625 14.845 8.36125 14.25 9.0625 C12 11 12 11 9.875 11 C7.49496645 9.73064878 6.95752008 8.47359354 6 6 C5.34 6 4.68 6 4 6 C4 8.97 4 11.94 4 15 C2.68 15 1.36 15 0 15 C0 10.05 0 5.1 0 0 Z " fill="#EFAFC7" transform="translate(81,71)"/>
<path d="M0 0 C1.98 0 3.96 0 6 0 C8.64 5.28 11.28 10.56 14 16 C9 16 9 16 7.1875 14.5 C6.795625 14.005 6.40375 13.51 6 13 C4.02 13.99 4.02 13.99 2 15 C0.68 14.01 -0.64 13.02 -2 12 C-2.33 13.32 -2.66 14.64 -3 16 C-4.65 16 -6.3 16 -8 16 C-5.36 10.72 -2.72 5.44 0 0 Z " fill="#D99FB5" transform="translate(122,70)"/>
<path d="M0 0 C0.71484375 1.7578125 0.71484375 1.7578125 1 4 C-0.37109375 5.8671875 -0.37109375 5.8671875 -2.4375 7.875 C-10.35803578 16.3087754 -15.80210417 26.91603095 -19 38 C-19.28617188 38.96164063 -19.57234375 39.92328125 -19.8671875 40.9140625 C-22.88065106 52.70961985 -22.74188489 64.89283258 -23 77 C-25.94196918 74.05803082 -25.2891609 71.48654763 -25.32983398 67.45922852 C-25.18055261 40.89765669 -18.50287184 19.65930133 0 0 Z " fill="#E3A6BD" transform="translate(61,62)"/>
<path d="M0 0 C1.69433662 1.64450319 3.35481081 3.30706126 5 5 C5.68642578 5.69222656 5.68642578 5.69222656 6.38671875 6.3984375 C17.78610758 18.7035312 26.18425254 38.07075373 26.09765625 54.95703125 C26.09443359 56.06884766 26.09121094 57.18066406 26.08789062 58.32617188 C26.07951172 59.47666016 26.07113281 60.62714844 26.0625 61.8125 C26.05798828 62.98232422 26.05347656 64.15214844 26.04882812 65.35742188 C26.0370693 68.23833358 26.02063426 71.11914044 26 74 C25.01 74.495 25.01 74.495 24 75 C23.99589111 74.37246826 23.99178223 73.74493652 23.98754883 73.09838867 C23.70081034 47.9135736 19.27234789 26.98668817 3 7 C2.42765625 6.48824219 1.8553125 5.97648437 1.265625 5.44921875 C0 4 0 4 0 0 Z " fill="#DDA1B8" transform="translate(188,62)"/>
<path d="M0 0 C0.66 0 1.32 0 2 0 C2.66 1.65 3.32 3.3 4 5 C4.99 4.01 5.98 3.02 7 2 C7.66 2.33 8.32 2.66 9 3 C8.67 4.65 8.34 6.3 8 8 C9.32 8.33 10.64 8.66 12 9 C11.34 9.66 10.68 10.32 10 11 C11.65 12.32 13.3 13.64 15 15 C13.02 15 11.04 15 9 15 C8.566875 16.175625 8.566875 16.175625 8.125 17.375 C7 20 7 20 5 22 C-0.14585012 22.58098308 -0.14585012 22.58098308 -3 22 C-5.5 19.5 -5.5 19.5 -7 17 C-5.26949157 17 -3.53887953 17.00739765 -1.80859375 17.03515625 C-0.63490234 17.04869141 -0.63490234 17.04869141 0.5625 17.0625 C1.34753906 17.07410156 2.13257812 17.08570312 2.94140625 17.09765625 C5.06503723 17.13595171 5.06503723 17.13595171 7 16 C7.33425735 13.62625139 7.33425735 13.62625139 7 11 C5.46186579 8.97103788 5.46186579 8.97103788 3 8 C-0.05890142 7.75949193 -0.05890142 7.75949193 -3 9 C-3.66 10.010625 -4.32 11.02125 -5 12.0625 C-5.66 13.031875 -6.32 14.00125 -7 15 C-10.25 15.375 -10.25 15.375 -13 15 C-11.35 13.68 -9.7 12.36 -8 11 C-8.66 10.01 -9.32 9.02 -10 8 C-8.68 8 -7.36 8 -6 8 C-6 6.35 -6 4.7 -6 3 C-4.68 3.66 -3.36 4.32 -2 5 C-1.34 3.35 -0.68 1.7 0 0 Z " fill="#E2A6BD" transform="translate(124,95)"/>
<path d="M0 0 C2.375 1.625 2.375 1.625 4 4 C4.5625 7 4.5625 7 4 10 C1.875 12.4375 1.875 12.4375 -1 14 C-4.56090901 14 -6.25697245 13.69349238 -8.875 11.25 C-10.24863504 8.50272993 -10.53062116 7.03212094 -10 4 C-7.16979976 -0.02759265 -4.82432618 -0.80405436 0 0 Z " fill="#E2E2E2" transform="translate(223,162)"/>
<path d="M0 0 C2.5 1.625 2.5 1.625 4 4 C3.93558662 7.15625563 3.49895728 9.16840453 1.875 11.875 C-1.15859527 13.69515716 -3.55964514 13.43004436 -7 13 C-9.66266871 10.76679398 -9.95347082 9.3799883 -10.375 5.9375 C-10 3 -10 3 -8.9375 1.125 C-5.84902396 -0.66830867 -3.48856031 -0.42841969 0 0 Z " fill="#E8E8E8" transform="translate(144,15)"/>
<path d="M0 0 C1.78515625 0.78125 1.78515625 0.78125 3.09765625 2.46875 C4.0378447 5.63120207 3.72319264 7.63212784 2.78515625 10.78125 C1.09765625 12.71875 1.09765625 12.71875 -1.21484375 13.78125 C-4.21484375 13.78125 -4.21484375 13.78125 -7.21484375 12.78125 C-11.21484375 8.67598684 -11.21484375 8.67598684 -11.21484375 5.78125 C-9.38671875 4.23828125 -9.38671875 4.23828125 -6.96484375 2.59375 C-6.1759375 2.04332031 -5.38703125 1.49289063 -4.57421875 0.92578125 C-2.21484375 -0.21875 -2.21484375 -0.21875 0 0 Z " fill="#E1E1E1" transform="translate(213.21484375,57.21875)"/>
<path d="M0 0 C1.32 0.33 2.64 0.66 4 1 C5.25 3.5625 5.25 3.5625 6 6 C6.66 6 7.32 6 8 6 C8.37125 5.0409375 8.37125 5.0409375 8.75 4.0625 C10 2 10 2 14 1 C14 5.29 14 9.58 14 14 C12.68 14.33 11.36 14.66 10 15 C9.67 13.02 9.34 11.04 9 9 C8.01 9.66 7.02 10.32 6 11 C5.34 10.01 4.68 9.02 4 8 C3.67 9.98 3.34 11.96 3 14 C2.01 14 1.02 14 0 14 C0 9.38 0 4.76 0 0 Z " fill="#E0E0E0" transform="translate(110,222)"/>
<path d="M0 0 C0.99 0 1.98 0 3 0 C3.66 1.98 4.32 3.96 5 6 C5.763125 5.505 6.52625 5.01 7.3125 4.5 C10 3 10 3 13 3 C12.68991116 4.60463449 12.37683713 6.20869231 12.0625 7.8125 C11.88847656 8.70582031 11.71445313 9.59914062 11.53515625 10.51953125 C11 13 11 13 10 16 C9.01 16 8.02 16 7 16 C7 14.02 7 12.04 7 10 C6.01 10.33 5.02 10.66 4 11 C3.34 9.68 2.68 8.36 2 7 C1.34 8.98 0.68 10.96 0 13 C-0.99 13 -1.98 13 -3 13 C-2.45144652 8.428721 -1.58255197 4.32564205 0 0 Z " fill="#EBECEB" transform="translate(91,218)"/>
<path d="M0 0 C1 1 1 1 1.09765625 2.84765625 C1.04882812 5.92382812 1.04882812 5.92382812 1 9 C-3.29 9 -7.58 9 -12 9 C-12 6.36 -12 3.72 -12 1 C-7.6146681 -0.4617773 -4.47981638 -1.44935236 0 0 Z " fill="#D0D0D0" transform="translate(26,127)"/>
<path d="M0 0 C1.79232337 0.30871122 3.58384321 0.62209064 5.375 0.9375 C6.87160156 1.19853516 6.87160156 1.19853516 8.3984375 1.46484375 C11 2 11 2 13 3 C12.34 5.31 11.68 7.62 11 10 C7.60598928 10.77577388 4.48397425 11.2824844 1 11 C0.34 10.34 -0.32 9.68 -1 9 C-0.9765625 6.8359375 -0.9765625 6.8359375 -0.625 4.375 C-0.51414063 3.55773437 -0.40328125 2.74046875 -0.2890625 1.8984375 C-0.19367188 1.27195313 -0.09828125 0.64546875 0 0 Z " fill="#CBCBCB" transform="translate(221,145)"/>
<path d="M0 0 C0.99 0 1.98 0 3 0 C3.99 2.31 4.98 4.62 6 7 C6.99 5.68 7.98 4.36 9 3 C9.99 3.33 10.98 3.66 12 4 C10.68 7.96 9.36 11.92 8 16 C6.68 15.67 5.36 15.34 4 15 C3.34 12.69 2.68 10.38 2 8 C1.566875 8.825 1.13375 9.65 0.6875 10.5 C-0.1478125 11.7375 -0.1478125 11.7375 -1 13 C-1.99 13 -2.98 13 -4 13 C-3.52140759 11.39566191 -3.04210442 9.79153584 -2.5625 8.1875 C-2.29566406 7.29417969 -2.02882812 6.40085937 -1.75390625 5.48046875 C-1.19612127 3.64526945 -0.60655425 1.81966274 0 0 Z " fill="#E5E5E5" transform="translate(156,18)"/>
<path d="M0 0 C2.56326494 1.28163247 2.82416059 2.42785129 4 5 C4.37125 5.7425 4.7425 6.485 5.125 7.25 C5.41375 7.8275 5.7025 8.405 6 9 C4.02 10.98 2.04 12.96 0 15 C-3.36591866 13.55746343 -5.51047079 11.66735273 -8 9 C-6.95125002 6.37812506 -6.35068687 5.20628639 -3.875 3.75 C-3.25625 3.5025 -2.6375 3.255 -2 3 C-2 2.34 -2 1.68 -2 1 C-1.34 0.67 -0.68 0.34 0 0 Z " fill="#E8AAC2" transform="translate(126,162)"/>
<path d="M0 0 C4.84659077 0.59104765 8.60748167 1.97944157 13 4 C12.67 4.99 12.34 5.98 12 7 C10.15234375 7.73046875 10.15234375 7.73046875 7.9375 8.1875 C7.20402344 8.34605469 6.47054688 8.50460938 5.71484375 8.66796875 C5.14894531 8.77753906 4.58304688 8.88710937 4 9 C4 9.66 4 10.32 4 11 C6.97 11.495 6.97 11.495 10 12 C10 12.99 10 13.98 10 15 C5.02693484 14.50269348 1.36200187 13.44697666 -3 11 C-2.67 10.01 -2.34 9.02 -2 8 C1.5625 6.3125 1.5625 6.3125 5 5 C2.525 4.01 2.525 4.01 0 3 C0 2.01 0 1.02 0 0 Z " fill="#E4E4E4" transform="translate(21,83)"/>
<path d="M0 0 C3.2441189 1.04275251 4.60194664 2.61240491 6.3125 5.4375 C8 9 8 9 7 12 C3.97580475 11.41196203 0.98241547 10.77321882 -2 10 C-1.01 11.98 -0.02 13.96 1 16 C0.01 16.33 -0.98 16.66 -2 17 C-3.03612271 15.59447701 -4.05344925 14.17508306 -5.0625 12.75 C-5.63097656 11.96109375 -6.19945313 11.1721875 -6.78515625 10.359375 C-8 8 -8 8 -7 4 C-4.03 4.99 -1.06 5.98 2 7 C1.34 5.68 0.68 4.36 0 3 C0 2.01 0 1.02 0 0 Z " fill="#EBEBEB" transform="translate(71,27)"/>
<path d="M0 0 C2.375 0.4375 2.375 0.4375 4.375 2.4375 C4.375 3.7575 4.375 5.0775 4.375 6.4375 C6.355 6.4375 8.335 6.4375 10.375 6.4375 C10.375 7.0975 10.375 7.7575 10.375 8.4375 C7.48265685 9.26388376 5.48757569 9.4375 2.375 9.4375 C3.035 10.7575 3.695 12.0775 4.375 13.4375 C0.375 13.4375 0.375 13.4375 -1.546875 11.6875 C-2.15015625 10.945 -2.7534375 10.2025 -3.375 9.4375 C-3.98859375 8.695 -4.6021875 7.9525 -5.234375 7.1875 C-5.69328125 6.61 -6.1521875 6.0325 -6.625 5.4375 C-3.32922535 0.55487089 -3.32922535 0.55487089 0 0 Z " fill="#DCDCDC" transform="translate(53.625,40.5625)"/>
<path d="M0 0 C2.98828314 0.32305764 4.61321245 0.65189121 6.875 2.6875 C8.43700842 5.89829508 8.07389392 7.63513237 7 11 C4.87568495 13.27605184 3.55893694 13.90218604 0.5 14.4375 C-2.89834723 13.84278924 -4.01241034 12.79734842 -6 10 C-6.25 6.75 -6.25 6.75 -6 4 C-5.01 4 -4.02 4 -3 4 C-2.67 5.65 -2.34 7.3 -2 9 C-0.35 9 1.3 9 3 9 C3 7.35 3 5.7 3 4 C2.01 3.67 1.02 3.34 0 3 C0 2.01 0 1.02 0 0 Z " fill="#DEDEDE" transform="translate(35,173)"/>
<path d="M0 0 C0.22577402 5.4185766 -0.53329887 9.77487721 -2 15 C-2.66 14.67 -3.32 14.34 -4 14 C-4 12.68 -4 11.36 -4 10 C-6.97 9.67 -9.94 9.34 -13 9 C-11.19621628 5.39243256 -10.66968019 4.40387856 -7.625 2.25 C-7.03976563 1.82203125 -6.45453125 1.3940625 -5.8515625 0.953125 C-4 0 -4 0 0 0 Z " fill="#DFDFDF" transform="translate(183,29)"/>
<path d="M0 0 C-2.61600798 3.92401196 -4.21552256 3.75279127 -8.75 4.75 C-16.2686315 6.5383589 -26.4165842 9.4165842 -32 15 C-33.66617115 15.04063832 -35.33388095 15.042721 -37 15 C-34.21716011 11.64176089 -30.45705122 9.96121957 -26.625 8.0625 C-25.56285278 7.53462891 -25.56285278 7.53462891 -24.47924805 6.99609375 C-16.82375529 3.28974738 -8.65352435 -0.37967931 0 0 Z " fill="#D299AF" transform="translate(111,37)"/>
<path d="M0 0 C0.66 0 1.32 0 2 0 C1.731875 1.216875 1.46375 2.43375 1.1875 3.6875 C0.82432666 5.86686693 0.82432666 5.86686693 1 8 C3.27127334 11.02409364 3.27127334 11.02409364 6 13 C4.25 13.6875 4.25 13.6875 2 14 C-0.25 12.5625 -0.25 12.5625 -2 11 C-2.33 12.65 -2.66 14.3 -3 16 C-3.99 16 -4.98 16 -6 16 C-5.47731534 13.23723823 -4.89130413 10.6739124 -4 8 C-4.61875 7.690625 -5.2375 7.38125 -5.875 7.0625 C-7.25 6.375 -8.625 5.6875 -10 5 C-10 4.34 -10 3.68 -10 3 C-7.23723823 3.52268466 -4.6739124 4.10869587 -2 5 C-1.855625 4.360625 -1.71125 3.72125 -1.5625 3.0625 C-1 1 -1 1 0 0 Z " fill="#E6E6E6" transform="translate(156,217)"/>
<path d="M0 0 C3 5.75 3 5.75 3 8 C2.01 8 1.02 8 0 8 C-0.33 6.68 -0.66 5.36 -1 4 C-1.66 4 -2.32 4 -3 4 C-2.67 5.65 -2.34 7.3 -2 9 C-3.32 8.67 -4.64 8.34 -6 8 C-6 7.34 -6 6.68 -6 6 C-6.66 6 -7.32 6 -8 6 C-7.34 7.98 -6.68 9.96 -6 12 C-7.32 12 -8.64 12 -10 12 C-11.31035862 9.84176227 -12.05492809 8.55143494 -11.80078125 6 C-10.74803947 3.3707132 -9.66384126 2.92177289 -7.125 1.75 C-6.42632812 1.41484375 -5.72765625 1.0796875 -5.0078125 0.734375 C-3 0 -3 0 0 0 Z " fill="#E4E4E4" transform="translate(224,73)"/>
<path d="M0 0 C2 3 2 3 2.0625 6 C1 9 1 9 -2.25 10.875 C-5.46765376 11.84029613 -7.69582028 12.30037997 -11 12 C-11 11.01 -11 10.02 -11 9 C-8.03 8.01 -5.06 7.02 -2 6 C-2 5.34 -2 4.68 -2 4 C-5.3 4 -8.6 4 -12 4 C-12 3.01 -12 2.02 -12 1 C-7.97542684 -0.34152439 -4.1944205 -0.27060777 0 0 Z " fill="#E6E6E6" transform="translate(28,144)"/>
<path d="M0 0 C0.90105469 0.01804687 1.80210937 0.03609375 2.73046875 0.0546875 C3.41753906 0.07789062 4.10460937 0.10109375 4.8125 0.125 C4.8125 1.115 4.8125 2.105 4.8125 3.125 C0.3575 3.62 0.3575 3.62 -4.1875 4.125 C-4.1875 5.115 -4.1875 6.105 -4.1875 7.125 C-1.2175 7.455 1.7525 7.785 4.8125 8.125 C4.8125 9.115 4.8125 10.105 4.8125 11.125 C3.20870659 11.17916188 1.60438594 11.21786638 0 11.25 C-0.89332031 11.27320312 -1.78664062 11.29640625 -2.70703125 11.3203125 C-5.1875 11.125 -5.1875 11.125 -8.1875 9.125 C-8.5625 5.625 -8.5625 5.625 -8.1875 2.125 C-4.87379 -0.08414 -3.8428979 -0.09981553 0 0 Z " fill="#ECECEC" transform="translate(231.1875,112.875)"/>
<path d="M0 0 C0.66 0.33 1.32 0.66 2 1 C1.67 1.99 1.34 2.98 1 4 C-1.31 4 -3.62 4 -6 4 C-6 5.65 -6 7.3 -6 9 C-2.80097361 9.08886184 -0.07322544 8.91058531 3 8 C1.125 11.875 1.125 11.875 0 13 C-6.16698656 13.45681382 -6.16698656 13.45681382 -8.9375 11.9375 C-10.6140629 8.88023824 -10.36528977 6.4093712 -10 3 C-7.77076514 -1.06507533 -4.20822494 -0.30605272 0 0 Z " fill="#EEEEEE" transform="translate(113,15)"/>
<path d="M0 0 C0.99 0.33 1.98 0.66 3 1 C2.34 2.65 1.68 4.3 1 6 C2.32 5.34 3.64 4.68 5 4 C6 7 6 7 5 10 C5.66 10 6.32 10 7 10 C7.33 9.01 7.66 8.02 8 7 C8.99 7 9.98 7 11 7 C10.25 9.375 10.25 9.375 9 12 C7.02 12.99 7.02 12.99 5 14 C2.03 11.69 -0.94 9.38 -4 7 C-2 3 -2 3 0 0 Z " fill="#EBEBEB" transform="translate(39,53)"/>
<path d="M0 0 C4.25346932 1.06336733 5.28908318 1.90530185 8.25 4.9375 C8.95640625 5.64777344 9.6628125 6.35804687 10.390625 7.08984375 C12 9 12 9 12 11 C11.0925 10.814375 10.185 10.62875 9.25 10.4375 C6.31685676 10.04265379 4.7355343 10.05308428 2 11 C2 11.99 2 12.98 2 14 C1.34 14 0.68 14 0 14 C0 9.38 0 4.76 0 0 Z " fill="#E6E6E6" transform="translate(86,20)"/>
<path d="M0 0 C0.99 0 1.98 0 3 0 C2.3503125 1.546875 2.3503125 1.546875 1.6875 3.125 C0.62665177 6.76041107 0.62665177 6.76041107 1.98046875 8.80078125 C3.51507454 10.65254345 3.51507454 10.65254345 6 13 C3.23723823 12.47731534 0.6739124 11.89130413 -2 11 C-2.99 12.485 -2.99 12.485 -4 14 C-4.99 14 -5.98 14 -7 14 C-6.649375 13.2575 -6.29875 12.515 -5.9375 11.75 C-4.92506837 8.78020056 -4.81087959 7.83559482 -6 5 C-7.48800372 2.7927642 -7.48800372 2.7927642 -9 1 C-5.62537285 1.54723683 -3.91765 2.0549 -1 4 C-0.67 2.68 -0.34 1.36 0 0 Z " fill="#EEEEEE" transform="translate(138,222)"/>
<path d="M0 0 C0.66 0 1.32 0 2 0 C2.66 1.65 3.32 3.3 4 5 C4.99 4.01 5.98 3.02 7 2 C7.66 2.33 8.32 2.66 9 3 C8.67 4.98 8.34 6.96 8 9 C7.34 8.01 6.68 7.02 6 6 C5.01 6.66 4.02 7.32 3 8 C2.030625 8.0825 1.06125 8.165 0.0625 8.25 C-3.30478453 8.70502389 -3.30478453 8.70502389 -5 12.0625 C-5.66 13.031875 -6.32 14.00125 -7 15 C-10.25 15.375 -10.25 15.375 -13 15 C-11.35 13.68 -9.7 12.36 -8 11 C-8.66 10.01 -9.32 9.02 -10 8 C-8.68 8 -7.36 8 -6 8 C-6 6.35 -6 4.7 -6 3 C-4.68 3.66 -3.36 4.32 -2 5 C-1.34 3.35 -0.68 1.7 0 0 Z " fill="#BC8A9D" transform="translate(124,95)"/>
<path d="M0 0 C0.99 0 1.98 0 3 0 C3.15855469 0.99257812 3.31710938 1.98515625 3.48046875 3.0078125 C4.91060957 11.48373148 6.91447182 19.28290933 10.01171875 27.3046875 C11 30 11 30 11 32 C10.01 32 9.02 32 8 32 C3.84322339 21.32048274 0.96702314 11.45422236 0 0 Z " fill="#D49BB0" transform="translate(66,133)"/>
<path d="M0 0 C1.65 0 3.3 0 5 0 C5 5.28 5 10.56 5 16 C3.35 16 1.7 16 0 16 C0 10.72 0 5.44 0 0 Z " fill="#DBA0B7" transform="translate(106,70)"/>
<path d="M0 0 C3.65242315 1.2962271 6.28238038 2.83398806 9.25 5.3125 C13.57276879 8.78524534 18.07501089 11.47346894 23 14 C22.01 15.485 22.01 15.485 21 17 C5.37754432 7.24950755 5.37754432 7.24950755 0 2 C0 1.34 0 0.68 0 0 Z " fill="#D59CB2" transform="translate(98,196)"/>
<path d="M0 0 C1.9451 2.91765 2.45276317 4.62537285 3 8 C2.01 8.33 1.02 8.66 0 9 C-0.33 7.35 -0.66 5.7 -1 4 C-1.66 4 -2.32 4 -3 4 C-3 5.32 -3 6.64 -3 8 C-3.99 8 -4.98 8 -6 8 C-6 7.01 -6 6.02 -6 5 C-7.98 5.33 -9.96 5.66 -12 6 C-12 5.01 -12 4.02 -12 3 C-8.04 2.01 -4.08 1.02 0 0 Z " fill="#EAEAEA" transform="translate(232,97)"/>
<path d="M0 0 C0.66 0.33 1.32 0.66 2 1 C2.061875 1.598125 2.12375 2.19625 2.1875 2.8125 C3.53262291 6.43398475 6.6442034 7.29159446 10 9 C9.67 9.99 9.34 10.98 9 12 C8.278125 11.690625 7.55625 11.38125 6.8125 11.0625 C4.17505085 10.06613032 1.79060057 9.37710819 -1 9 C-1.99 9.495 -1.99 9.495 -3 10 C-3.66 9.34 -4.32 8.68 -5 8 C-3.35 5.36 -1.7 2.72 0 0 Z " fill="#E4E4E4" transform="translate(30,66)"/>
<path d="M0 0 C2.10388569 -0.05402274 4.20816714 -0.09280256 6.3125 -0.125 C8.07013672 -0.15980469 8.07013672 -0.15980469 9.86328125 -0.1953125 C13 0 13 0 16 2 C18.04869074 2.44429438 20.11454293 2.81294195 22.1875 3.125 C23.81751953 3.37636719 23.81751953 3.37636719 25.48046875 3.6328125 C26.72763672 3.81457031 26.72763672 3.81457031 28 4 C28 4.33 28 4.66 28 5 C21.73 5 15.46 5 9 5 C9 3.68 9 2.36 9 1 C6.36 1.33 3.72 1.66 1 2 C0.67 1.34 0.34 0.68 0 0 Z " fill="#C3C3C3" transform="translate(140,96)"/>
<path d="M0 0 C1.32 0 2.64 0 4 0 C4 4.95 4 9.9 4 15 C2.68 15 1.36 15 0 15 C0 10.05 0 5.1 0 0 Z " fill="#F4B3CC" transform="translate(165,71)"/>
<path d="M0 0 C0.99 0.495 0.99 0.495 2 1 C2.25719817 3.02543556 2.50842122 5.05350224 2.65625 7.08984375 C2.85476212 9.23522156 2.85476212 9.23522156 5 11 C5.33 9.35 5.66 7.7 6 6 C6.99 6.66 7.98 7.32 9 8 C9.40843923 10.71203652 9.13336867 13.2437142 9 16 C6.11104734 15.67900526 4.65877348 14.75959041 2.25 13.0625 C-0.91238887 8.75813737 -0.45170004 5.16945601 0 0 Z " fill="#D39AAF" transform="translate(103,134)"/>
<path d="M0 0 C3.21852831 0.63065757 5.50801069 1.78020695 8.25 3.5625 C8.95640625 4.01753906 9.6628125 4.47257813 10.390625 4.94140625 C11.18726563 5.46541016 11.18726563 5.46541016 12 6 C11.67 6.99 11.34 7.98 11 9 C6 7 6 7 1 5 C0.01 5.99 -0.98 6.98 -2 8 C-2.6875 6.25 -2.6875 6.25 -3 4 C-1.5625 1.75 -1.5625 1.75 0 0 Z " fill="#E7E7E7" transform="translate(207,178)"/>
<path d="M0 0 C3.17483445 4.2331126 3.36878745 4.90588688 3.29296875 9.859375 C3.28330078 10.97441406 3.27363281 12.08945313 3.26367188 13.23828125 C3.23853516 14.39714844 3.21339844 15.55601563 3.1875 16.75 C3.17396484 17.92433594 3.16042969 19.09867188 3.14648438 20.30859375 C3.1111478 23.20619298 3.06180979 26.10286427 3 29 C2.34 29.33 1.68 29.66 1 30 C0.67 20.1 0.34 10.2 0 0 Z " fill="#E9ABC2" transform="translate(211,107)"/>
<path d="M0 0 C0.66 0 1.32 0 2 0 C2 2.97 2 5.94 2 9 C1.01 9 0.02 9 -1 9 C-1 8.01 -1 7.02 -1 6 C-4.3 5.67 -7.6 5.34 -11 5 C-11 4.01 -11 3.02 -11 2 C-7.7 2 -4.4 2 -1 2 C-0.67 1.34 -0.34 0.68 0 0 Z " fill="#ECECEC" transform="translate(234,131)"/>
<path d="M0 0 C1.9375 0.6875 1.9375 0.6875 4 2 C4.62890625 4.58203125 4.62890625 4.58203125 5 7 C3.40233897 7.86627399 1.79660056 8.71766465 0.1875 9.5625 C-0.70582031 10.03816406 -1.59914063 10.51382813 -2.51953125 11.00390625 C-5 12 -5 12 -8 11 C-8 10.34 -8 9.68 -8 9 C-5.03 8.01 -2.06 7.02 1 6 C0.67 4.02 0.34 2.04 0 0 Z " fill="#E8E8E8" transform="translate(30,158)"/>
<path d="M0 0 C4.84659077 0.59104765 8.60748167 1.97944157 13 4 C12.67 4.99 12.34 5.98 12 7 C8.4375 8.1875 8.4375 8.1875 5 9 C5 7.68 5 6.36 5 5 C2.525 4.01 2.525 4.01 0 3 C0 2.01 0 1.02 0 0 Z " fill="#EBEBEB" transform="translate(21,83)"/>
<path d="M0 0 C0.66 0.33 1.32 0.66 2 1 C0.7508258 4.45925163 -0.67527795 7.14693203 -3 10 C-2.01 11.32 -1.02 12.64 0 14 C-4.26826873 14 -4.93882432 13.62386487 -8 11 C-6.63629701 8.00779732 -5.05091917 5.70973471 -2.875 3.25 C-2.33617187 2.63640625 -1.79734375 2.0228125 -1.2421875 1.390625 C-0.62730469 0.70226563 -0.62730469 0.70226563 0 0 Z " fill="#E7E7E7" transform="translate(194,38)"/>
<path d="M0 0 C2.29077148 -0.37231445 2.29077148 -0.37231445 5.12109375 -0.36328125 C6.13880859 -0.36263672 7.15652344 -0.36199219 8.20507812 -0.36132812 C9.27177734 -0.34521484 10.33847656 -0.32910156 11.4375 -0.3125 C12.50033203 -0.31572266 13.56316406 -0.31894531 14.65820312 -0.32226562 C22.59948017 -0.26701322 22.59948017 -0.26701322 26 2 C16.76 2.33 7.52 2.66 -2 3 C-1.34 2.01 -0.68 1.02 0 0 Z " fill="#EBACC4" transform="translate(112,36)"/>
<path d="M0 0 C3.1875 0.3125 3.1875 0.3125 5.5625 1.9375 C7.6006192 4.9162896 7.50902515 6.77572336 7.1875 10.3125 C6.1975 9.9825 5.2075 9.6525 4.1875 9.3125 C3 6.75 3 6.75 2.1875 4.3125 C-0.4525 4.6425 -3.0925 4.9725 -5.8125 5.3125 C-3.42613636 0.38068182 -3.42613636 0.38068182 0 0 Z " fill="#ECECEC" transform="translate(219.8125,161.6875)"/>
<path d="M0 0 C2.73213392 2.48224362 4.54955091 5.25257053 6.5 8.375 C7.0878125 9.31085938 7.675625 10.24671875 8.28125 11.2109375 C9.87415386 13.79578603 11.44485747 16.39229149 13 19 C12.01 19 11.02 19 10 19 C8.02734375 16.734375 8.02734375 16.734375 5.9375 13.75 C5.24527344 12.77546875 4.55304687 11.8009375 3.83984375 10.796875 C1.17054366 6.73908547 0 4.9418536 0 0 Z " fill="#DCA1B7" transform="translate(45,162)"/>
<path d="M0 0 C2 3.75 2 3.75 2 6 C3.65 6 5.3 6 7 6 C7 6.66 7 7.32 7 8 C6.21625 8.0825 5.4325 8.165 4.625 8.25 C1.85250896 8.72806339 1.85250896 8.72806339 0.6875 11.0625 C0.460625 11.701875 0.23375 12.34125 0 13 C-0.37125 12.0409375 -0.37125 12.0409375 -0.75 11.0625 C-1.81562433 8.81258459 -1.81562433 8.81258459 -4.125 8.25 C-4.74375 8.1675 -5.3625 8.085 -6 8 C-6 7.34 -6 6.68 -6 6 C-5.38125 5.938125 -4.7625 5.87625 -4.125 5.8125 C-1.72238859 5.171081 -1.72238859 5.171081 -0.75 2.4375 C-0.5025 1.633125 -0.255 0.82875 0 0 Z " fill="#CA94A8" transform="translate(61,201)"/>
<path d="M0 0 C1.67542976 0.28604898 3.34385343 0.61781233 5 1 C5.625 3.375 5.625 3.375 6 6 C5.34 6.66 4.68 7.32 4 8 C1.06546739 7.63318342 0.13562754 7.13562754 -2 5 C-1.46428571 1.46428571 -1.46428571 1.46428571 0 0 Z " fill="#141514" transform="translate(218,165)"/>
<path d="M0 0 C0.99 0.33 1.98 0.66 3 1 C2.55018927 3.60590351 2.09055778 6.20940531 1.625 8.8125 C1.49867188 9.55048828 1.37234375 10.28847656 1.2421875 11.04882812 C0.59836518 14.60594646 0.03003944 16.95494084 -2 20 C-2.66 19.67 -3.32 19.34 -4 19 C-2.02 9.595 -2.02 9.595 0 0 Z " fill="#C691A5" transform="translate(211,135)"/>
<path d="M0 0 C0.66 0.33 1.32 0.66 2 1 C2 2.65 2 4.3 2 6 C3.65 6 5.3 6 7 6 C7 6.66 7 7.32 7 8 C5.35 8 3.7 8 2 8 C1.67 9.65 1.34 11.3 1 13 C0.6596875 12.0409375 0.6596875 12.0409375 0.3125 11.0625 C-0.85250896 8.72806339 -0.85250896 8.72806339 -3.625 8.25 C-4.40875 8.1675 -5.1925 8.085 -6 8 C-6 7.34 -6 6.68 -6 6 C-4.35 5.67 -2.7 5.34 -1 5 C-0.67 3.35 -0.34 1.7 0 0 Z " fill="#CC96AA" transform="translate(188,201)"/>
<path d="M0 0 C10.17026239 9.87113703 10.17026239 9.87113703 13 16 C12.01 16.33 11.02 16.66 10 17 C9.52949219 16.31292969 9.05898437 15.62585938 8.57421875 14.91796875 C7.95160156 14.01691406 7.32898438 13.11585937 6.6875 12.1875 C6.07261719 11.29417969 5.45773438 10.40085937 4.82421875 9.48046875 C3.14860228 7.03122642 3.14860228 7.03122642 1.26953125 5.42578125 C0 4 0 4 0 0 Z " fill="#D098AE" transform="translate(188,62)"/>
<path d="M0 0 C2 2 2 2 2.046875 3.84765625 C1.31483545 9.30905655 0.30384066 14.64539225 -1 20 C-1.99 19.67 -2.98 19.34 -4 19 C-3.52202924 16.58309124 -3.0426678 14.16647237 -2.5625 11.75 C-2.42779297 11.06808594 -2.29308594 10.38617188 -2.15429688 9.68359375 C-1.50779289 6.43530542 -0.84997305 3.20184022 0 0 Z " fill="#D39BB0" transform="translate(182,132)"/>
<path d="M0 0 C2.5 0.125 2.5 0.125 3.5 1.125 C3.625 3.625 3.625 3.625 3.5 6.125 C2.5 7.125 2.5 7.125 0 7.25 C-2.5 7.125 -2.5 7.125 -3.5 6.125 C-3.625 3.625 -3.625 3.625 -3.5 1.125 C-2.5 0.125 -2.5 0.125 0 0 Z " fill="#0C0D0C" transform="translate(140.5,17.875)"/>
<path d="M0 0 C3.68069887 1.53643852 5.98775204 3.78150945 8.75 6.625 C9.54921875 7.44226563 10.3484375 8.25953125 11.171875 9.1015625 C12.07679687 10.04128906 12.07679687 10.04128906 13 11 C11.26171875 11.73046875 11.26171875 11.73046875 9 12 C6.89453125 10.48828125 6.89453125 10.48828125 4.8125 8.3125 C4.11769531 7.60738281 3.42289063 6.90226563 2.70703125 6.17578125 C1.01873297 4.02387703 0.40380762 2.66995188 0 0 Z " fill="#CB94A9" transform="translate(57,181)"/>
<path d="M0 0 C1.77119803 0.14133499 3.54195287 0.28823208 5.3125 0.4375 C6.29863281 0.51871094 7.28476562 0.59992188 8.30078125 0.68359375 C11 1 11 1 14 2 C13.67 2.99 13.34 3.98 13 5 C8.71 4.34 4.42 3.68 0 3 C0 2.01 0 1.02 0 0 Z " fill="#DDDDDD" transform="translate(15,104)"/>
<path d="M0 0 C0.99 0 1.98 0 3 0 C3 4.62 3 9.24 3 14 C2.01 14 1.02 14 0 14 C0 9.38 0 4.76 0 0 Z " fill="#D4D4D4" transform="translate(124,13)"/>
<path d="M0 0 C1.32 0.66 2.64 1.32 4 2 C4 3.32 4 4.64 4 6 C2.02 6.99 2.02 6.99 0 8 C-0.99 7.01 -1.98 6.02 -3 5 C-1.125 1.125 -1.125 1.125 0 0 Z " fill="#1B1517" transform="translate(124,166)"/>
<path d="M0 0 C0.66 0 1.32 0 2 0 C0.65515286 4.04161955 -1.0505162 6.38678154 -4.125 9.3125 C-4.84945312 10.00988281 -5.57390625 10.70726562 -6.3203125 11.42578125 C-6.87460938 11.94527344 -7.42890625 12.46476563 -8 13 C-8.66 12.34 -9.32 11.68 -10 11 C-8.38150935 9.16053461 -6.75581169 7.32848583 -5.125 5.5 C-4.66480469 4.97535156 -4.20460937 4.45070312 -3.73046875 3.91015625 C-2.52827924 2.56858245 -1.26754054 1.28000815 0 0 Z " fill="#E3A6BD" transform="translate(161,184)"/>
<path d="M0 0 C0.66 0.66 1.32 1.32 2 2 C2 1.34 2 0.68 2 0 C2.99 0 3.98 0 5 0 C5 0.66 5 1.32 5 2 C1.69005287 3.65497356 -1.99123 3.10084335 -5.625 3.0625 C-6.42679687 3.05798828 -7.22859375 3.05347656 -8.0546875 3.04882812 C-10.03649006 3.03703168 -12.01825433 3.01909605 -14 3 C-14 2.67 -14 2.34 -14 2 C-3.87744035 -0.46999277 -3.87744035 -0.46999277 0 0 Z " fill="#C5C6C5" transform="translate(96,98)"/>
<path d="M0 0 C0.99 0.33 1.98 0.66 3 1 C2.67 2.65 2.34 4.3 2 6 C0.02 6 -1.96 6 -4 6 C-3.6875 4.125 -3.6875 4.125 -3 2 C-2.01 1.34 -1.02 0.68 0 0 Z " fill="#131413" transform="translate(211,61)"/>
<path d="M0 0 C0.33 0 0.66 0 1 0 C1.33951619 1.56116819 1.67132544 3.12401338 2 4.6875 C2.185625 5.55761719 2.37125 6.42773438 2.5625 7.32421875 C2.98972047 9.93712964 3.07616201 12.35813038 3 15 C2.34 15 1.68 15 1 15 C-1.32086397 9.675665 -0.91457003 5.56157448 0 0 Z " fill="#D59CB1" transform="translate(38,135)"/>
<path d="M0 0 C0.99 0.66 1.98 1.32 3 2 C2.01 5.96 1.02 9.92 0 14 C-2.12969485 10.80545772 -2.2390304 10.50853075 -1.6875 7 C-1.58824219 6.319375 -1.48898438 5.63875 -1.38671875 4.9375 C-1 3 -1 3 0 0 Z " fill="#C993A8" transform="translate(40,95)"/>
<path d="M0 0 C0.66 0.33 1.32 0.66 2 1 C1.79375 1.5775 1.5875 2.155 1.375 2.75 C0.91338739 5.51967567 1.57055055 6.64561267 3 9 C1.68 9 0.36 9 -1 9 C-2.38111722 6.7252187 -3.05694702 5.49828639 -2.75 2.8125 C-2 1 -2 1 0 0 Z " fill="#E0E0E0" transform="translate(215,76)"/>
<path d="M0 0 C-1 3 -1 3 -2.6875 4.25 C-5.73227042 5.23749311 -7.91911384 4.7002014 -11 4 C-11.33 3.01 -11.66 2.02 -12 1 C-11.0925 1.20625 -10.185 1.4125 -9.25 1.625 C-5.27604837 2.08353288 -3.62657919 0 0 0 Z " fill="#E2A5BC" transform="translate(132,210)"/>
<path d="M0 0 C4.37934119 0.51958285 8.68803391 1.05675742 13 2 C12.34 2.66 11.68 3.32 11 4 C8.1796875 3.9765625 8.1796875 3.9765625 4.875 3.625 C3.77929688 3.51414063 2.68359375 3.40328125 1.5546875 3.2890625 C0.71164063 3.19367187 -0.13140625 3.09828125 -1 3 C-0.67 2.01 -0.34 1.02 0 0 Z " fill="#C48FA3" transform="translate(135,36)"/>
<path d="M0 0 C7.40664557 0.4778481 7.40664557 0.4778481 9.7578125 2.546875 C10.16773437 3.02640625 10.57765625 3.5059375 11 4 C9.56163249 3.88541307 8.12429034 3.75790884 6.6875 3.625 C5.88699219 3.55539063 5.08648437 3.48578125 4.26171875 3.4140625 C2 3 2 3 -1 1 C-0.67 0.67 -0.34 0.34 0 0 Z " fill="#D098AD" transform="translate(100,209)"/>
<path d="M0 0 C0.33 0 0.66 0 1 0 C1.05395478 1.62463842 1.09277195 3.24978541 1.125 4.875 C1.14820313 5.77992188 1.17140625 6.68484375 1.1953125 7.6171875 C1 10 1 10 -1 12 C-1.99 11.67 -2.98 11.34 -4 11 C-3.34 10.34 -2.68 9.68 -2 9 C-1.57862715 7.06008596 -1.57862715 7.06008596 -1.4375 4.9375 C-1 1 -1 1 0 0 Z " fill="#E2A6BD" transform="translate(146,134)"/>
<path d="M0 0 C-2.39763185 2.39763185 -3.33273498 2.34280586 -6.625 2.625 C-7.44226563 2.69976562 -8.25953125 2.77453125 -9.1015625 2.8515625 C-9.72804687 2.90054688 -10.35453125 2.94953125 -11 3 C-7.46647659 -0.87004945 -5.02196482 -1.22155901 0 0 Z " fill="#CF97AC" transform="translate(150,210)"/>
<path d="M0 0 C0.99 0.99 1.98 1.98 3 3 C3.99 2.34 4.98 1.68 6 1 C5.34 2.98 4.68 4.96 4 7 C2.68 6.67 1.36 6.34 0 6 C-0.38218767 4.34385343 -0.71395102 2.67542976 -1 1 C-0.67 0.67 -0.34 0.34 0 0 Z " fill="#EBEBEB" transform="translate(221,149)"/>
<path d="M0 0 C0.99 0 1.98 0 3 0 C6 5.75 6 5.75 6 8 C5.01 8 4.02 8 3 8 C2.67 6.68 2.34 5.36 2 4 C1.34 4 0.68 4 0 4 C0 2.68 0 1.36 0 0 Z " fill="#EAEAEA" transform="translate(221,73)"/>
<path d="M0 0 C1.65 0.33 3.3 0.66 5 1 C4.34 2.98 3.68 4.96 3 7 C1.02 7 -0.96 7 -3 7 C-1.35 5.68 0.3 4.36 2 3 C1.34 2.01 0.68 1.02 0 0 Z " fill="#E5A7BE" transform="translate(114,103)"/>
<path d="M0 0 C1.9375 0.8125 1.9375 0.8125 4 2 C4.33 2.99 4.66 3.98 5 5 C3.02 5.99 3.02 5.99 1 7 C0.34 6.34 -0.32 5.68 -1 5 C-0.625 2.375 -0.625 2.375 0 0 Z " fill="#C892A6" transform="translate(118,98)"/>
<path d="M0 0 C0.66 0.66 1.32 1.32 2 2 C1.9765625 4.1640625 1.9765625 4.1640625 1.625 6.625 C1.51414063 7.44226563 1.40328125 8.25953125 1.2890625 9.1015625 C1.19367188 9.72804687 1.09828125 10.35453125 1 11 C0.01 11 -0.98 11 -2 11 C-1 3.57142857 -1 3.57142857 0 0 Z " fill="#C28EA2" transform="translate(182,132)"/>
<path d="M0 0 C0.66 0 1.32 0 2 0 C4.42857143 6.28571429 4.42857143 6.28571429 3 10 C2.34 9.67 1.68 9.34 1 9 C0.5859375 6.93359375 0.5859375 6.93359375 0.375 4.4375 C0.30023438 3.61121094 0.22546875 2.78492187 0.1484375 1.93359375 C0.09945312 1.29550781 0.05046875 0.65742187 0 0 Z " fill="#CB94A9" transform="translate(209,100)"/>
<path d="M0 0 C0.66 0.99 1.32 1.98 2 3 C4.05925139 3.72382467 4.05925139 3.72382467 6 4 C4.68 5.32 3.36 6.64 2 8 C0.68 6.02 -0.64 4.04 -2 2 C-1.34 1.34 -0.68 0.68 0 0 Z " fill="#E5A7BE" transform="translate(130,100)"/>
<path d="M0 0 C2.31 0.33 4.62 0.66 7 1 C6.67 1.99 6.34 2.98 6 4 C3.69 3.34 1.38 2.68 -1 2 C-0.67 1.34 -0.34 0.68 0 0 Z " fill="#DDDDDD" transform="translate(108,15)"/>
<path d="M0 0 C0.99 0.33 1.98 0.66 3 1 C4.6875 4.5625 4.6875 4.5625 6 8 C5.01 8 4.02 8 3 8 C0 2.25 0 2.25 0 0 Z " fill="#E2A5BC" transform="translate(75,165)"/>
<path d="M0 0 C0.33 0 0.66 0 1 0 C1.33 2.31 1.66 4.62 2 7 C1.01 7 0.02 7 -1 7 C-1.33 7.66 -1.66 8.32 -2 9 C-2.125 5.625 -2.125 5.625 -2 2 C-1.34 1.34 -0.68 0.68 0 0 Z " fill="#B58497" transform="translate(140,140)"/>
<path d="M0 0 C1.98 0.66 3.96 1.32 6 2 C6 2.33 6 2.66 6 3 C4.02 3 2.04 3 0 3 C-0.66 4.32 -1.32 5.64 -2 7 C-2.66 6.34 -3.32 5.68 -4 5 C-3.34 4.67 -2.68 4.34 -2 4 C-0.86649466 1.98330173 -0.86649466 1.98330173 0 0 Z " fill="#C590A4" transform="translate(133,107)"/>
<path d="M0 0 C1.65 1.65 3.3 3.3 5 5 C4.67 5.66 4.34 6.32 4 7 C0.83884224 5.63016497 0.0072908 5.0109362 -2 2 C-1.34 1.34 -0.68 0.68 0 0 Z " fill="#F6F6F6" transform="translate(189,46)"/>
<path d="M0 0 C1.39195915 4.17587745 -0.17676781 6.13474776 -2 10 C-2.33 10 -2.66 10 -3 10 C-2.25 2.25 -2.25 2.25 0 0 Z " fill="#E4A6BE" transform="translate(208,153)"/>
<path d="M0 0 C1.0326802 2.78823655 1.04509293 3.8677274 0.0625 6.75 C-0.288125 7.4925 -0.63875 8.235 -1 9 C-1.66 9 -2.32 9 -3 9 C-2.5020163 5.26512223 -2.12508244 3.18762365 0 0 Z " fill="#E4A7BE" transform="translate(179,150)"/>
<path d="M0 0 C-2.35968744 2.09749995 -3.54616994 2.96905704 -6.75 3.1875 C-7.86375 3.0946875 -7.86375 3.0946875 -9 3 C-5.83583464 -0.30799106 -4.50236011 -1.35070803 0 0 Z " fill="#BE8B9E" transform="translate(83,49)"/>
<path d="M0 0 C0 0.66 0 1.32 0 2 C-2.64 2.99 -5.28 3.98 -8 5 C-8 4.01 -8 3.02 -8 2 C-5.09399739 0.74335022 -3.20395416 0 0 0 Z " fill="#DFA3BA" transform="translate(99,40)"/>
<path d="M0 0 C2.91517292 1.07401108 4.77810176 1.77810176 7 4 C6.01 4.33 5.02 4.66 4 5 C1.3125 3.5625 1.3125 3.5625 -1 2 C-0.67 1.34 -0.34 0.68 0 0 Z " fill="#CF98AD" transform="translate(80,200)"/>
<path d="M0 0 C0.33 1.32 0.66 2.64 1 4 C-0.32 4.99 -1.64 5.98 -3 7 C-3 3 -3 3 -1.5 1.25 C-1.005 0.8375 -0.51 0.425 0 0 Z " fill="#C18DA1" transform="translate(61,62)"/>
<path d="M0 0 C0.99 0.33 1.98 0.66 3 1 C1.9024777 3.99324263 1.32317108 4.84610901 -1.625 6.25 C-2.40875 6.4975 -3.1925 6.745 -4 7 C-2.79618552 4.50638429 -1.54571278 2.31856917 0 0 Z " fill="#E4E4E4" transform="translate(39,53)"/>
</svg>
