<?xml version="1.0" encoding="UTF-8" standalone="no"?>
<!-- Created with Inkscape (http://www.inkscape.org/) -->

<svg
   version="1.1"
   id="svg1"
   width="75.000229mm"
   height="38.250999mm"
   viewBox="0 0 283.46544 144.5707"
   sodipodi:docname="bizarrap-logo.svg"
   inkscape:version="1.3.2 (091e20e, 2023-11-25, custom)"
   xmlns:inkscape="http://www.inkscape.org/namespaces/inkscape"
   xmlns:sodipodi="http://sodipodi.sourceforge.net/DTD/sodipodi-0.dtd"
   xmlns="http://www.w3.org/2000/svg"
   xmlns:svg="http://www.w3.org/2000/svg"
   xmlns:inkstitch="http://inkstitch.org/namespace">
  <sodipodi:namedview
     id="namedview1"
     pagecolor="#ffffff"
     bordercolor="#000000"
     borderopacity="0.25"
     inkscape:showpageshadow="2"
     inkscape:pageopacity="0.0"
     inkscape:pagecheckerboard="0"
     inkscape:deskcolor="#d1d1d1"
     inkscape:zoom="2.6951679"
     inkscape:cx="158.80272"
     inkscape:cy="98.880667"
     inkscape:window-width="1855"
     inkscape:window-height="1057"
     inkscape:window-x="57"
     inkscape:window-y="-8"
     inkscape:window-maximized="1"
     inkscape:current-layer="g2"
     inkscape:document-units="mm" />
  <metadata
     id="metadata194">
    <inkstitch:min_stitch_len_mm>0</inkstitch:min_stitch_len_mm>
    <inkstitch:collapse_len_mm>3</inkstitch:collapse_len_mm>
    <inkstitch:inkstitch_svg_version>1</inkstitch:inkstitch_svg_version>
  </metadata>
  <defs
     id="defs1" />
  <g
     inkscape:groupmode="layer"
     inkscape:label="Image"
     id="g1">
    <g
       id="g2"
       transform="translate(-11.8731, 53.429)">
      <path
         style="fill:none;stroke-width:0.357142;stroke:#000000;stroke-opacity:1"
         d="m 214.20459,70.148437 c -2.97963,-0.358105 -8.14147,-2.355025 -10.89281,-4.214017 -2.46795,-1.667493 -8.44914,-6.984362 -11.70042,-10.400919 -1.71831,-1.805635 -3.28816,-3.181629 -3.48858,-3.057736 -0.20047,0.123856 -0.94347,1.378422 -1.65117,2.787916 -1.61668,3.219771 -2.91046,4.865835 -5.32319,6.77272 -3.86985,3.058451 -3.56653,2.915094 -8.19365,3.872234 -5.18776,1.073102 -9.60035,0.46364 -14.75704,-2.038277 -3.03038,-1.47028 -3.67028,-1.433923 -6.4663,0.367426 -1.65828,1.068389 -4.80808,2.228598 -9.1751,3.379665 -0.80853,0.213105 -4.18352,0.384319 -7.49996,0.380498 -5.45023,-0.0065 -7.9064,-0.225321 -16.2085,-1.445351 -5.18305,-0.761676 -8.6685,-1.113923 -14.10709,-1.425744 -10.097954,-0.578962 -12.662265,-1.169494 -18.872452,-4.345981 -3.268557,-1.67185 -4.657301,-1.697707 -7.773787,-0.144713 -1.03771,0.517105 -2.091384,0.940209 -2.34149,0.940209 -0.250071,0 -1.026996,0.321428 -1.726422,0.714284 -0.69946,0.392854 -1.739492,0.714282 -2.311204,0.714282 -0.571711,0 -1.138816,0.160713 -1.260208,0.357141 -0.121393,0.196428 -0.603533,0.357141 -1.071424,0.357141 -0.467891,0 -0.936853,0.139393 -1.042138,0.309784 -0.105322,0.170358 -0.958531,0.421892 -1.896099,0.558962 -0.937532,0.137071 -2.508168,0.388963 -3.490307,0.559819 -0.982138,0.170857 -2.589274,0.413177 -3.571413,0.538534 -0.982138,0.125356 -2.114633,0.386569 -2.516667,0.580462 C 56.42085,66.48206 52.31876,66.57131 46.331501,66.496096 35.574332,66.360883 34.900978,66.248454 30.061428,63.779429 27.667724,62.558256 24.087203,59.022628 22.790281,56.599461 20.881325,53.032869 20.477256,48.111962 20.98486,34.612199 c 0.388141,-10.322776 0.555391,-12.64448 1.414958,-19.642772 0.46482,-3.784162 0.975567,-9.5471368 1.440172,-16.249929 0.633748,-9.142675 1.21821,-12.909872 2.488133,-16.037573 0.366426,-0.902532 0.761103,-1.881991 0.877031,-2.176633 0.480284,-1.220852 2.991023,-4.31991 4.32166,-5.334441 3.919412,-2.988237 5.220049,-3.551914 10.357097,-4.488552 3.444451,-0.628033 16.941035,-0.727318 20.494448,-0.150785 4.911194,0.796889 10.258634,1.833313 11.29113,2.188455 8.65664,2.977594 15.411075,7.278004 19.702554,12.544123 0.713854,0.876032 0.908254,0.929282 2.499995,0.684819 2.688735,-0.412927 11.027562,-0.29282 14.583012,0.210071 1.76784,0.25007 4.41961,0.611497 5.89282,0.80321 3.38749,0.440784 6.63141,0.986246 9.82139,1.651457 1.37499,0.286749 3.30356,0.653533 4.28569,0.81514 6.07063,0.9987452 11.28078,2.7621303 14.54647,4.9232637 1.19664,0.7918894 1.47368,0.8485677 2.21346,0.4526409 1.06696,-0.5710333 1.24721,-1.436708 1.63875,-7.8708586 0.4466,-7.339039 0.87585,-9.655065 2.34962,-12.677445 0.91487,-1.876135 1.95732,-3.278235 3.65835,-4.920371 3.17584,-3.065904 5.07308,-4.021701 9.78963,-4.931868 0.93303,-0.18005 2.54017,-0.496344 3.57142,-0.702878 10.5732,-2.117556 21.35405,-1.622661 31.69629,1.455015 2.06249,0.613764 4.07141,1.207123 4.46426,1.31858 0.39286,0.111452 0.95536,0.392455 1.25,0.62445 0.29464,0.231992 1.74107,1.168309 3.21427,2.080702 2.59453,1.606849 7.34794,6.110473 9.40903,8.914567 0.54143,0.736605 1.18528,1.339281 1.43078,1.339281 0.2455,0 0.78954,-0.706319 1.20896,-1.569636 0.41943,-0.863283 1.76907,-2.645561 2.99921,-3.96059 1.74884,-1.869492 2.94167,-2.745274 5.46926,-4.015626 5.37947,-2.703599 6.71868,-2.967151 16.2161,-3.191282 5.37777,-0.12691 7.32001,-0.04733 8.74997,0.358523 1.01086,0.286902 2.71028,0.720583 3.77648,0.963735 1.06625,0.24315 4.0548,1.464562 6.6413,2.714199 2.58645,1.249674 4.89034,2.272134 5.11972,2.272134 0.22936,0 1.24371,0.763389 2.2541,1.696421 8.63696,7.975822 9.88642,9.516137 11.37092,14.017796 0.35624,1.080352 0.91756,2.5965597 1.24735,3.3693063 0.52764,1.2364232 0.58053,2.6079529 0.44053,11.4285216 -0.13996,8.8197481 -0.25293,10.3877771 -0.94049,13.0569081 -1.46632,5.692046 -2.59728,8.285035 -5.21938,11.966519 -1.99099,2.795345 -6.61775,7.258397 -9.11139,8.788962 -1.08514,0.666033 -2.29049,1.412922 -2.67856,1.659707 -0.38807,0.246784 -0.94663,0.551712 -1.24127,0.677604 -0.29465,0.125928 -1.24804,0.544033 -2.11867,0.929174 -0.8706,0.385142 -2.39739,0.938568 -3.39284,1.229888 -3.21107,0.939675 -4.48845,3.033522 -4.48845,7.35729 0,7.01804 -4.92323,14.857828 -11.32938,18.040956 -1.52775,0.759104 -3.54167,1.587743 -4.47537,1.841421 -2.1421,0.581962 -8.18044,0.308463 -11.13921,-0.504533 -2.01824,-0.554569 -2.21141,-0.549533 -3.92854,0.102646 -3.89931,1.480994 -7.20313,1.930421 -10.91304,1.484529 z"
         id="path2" />
      <path
         style="display:inline;fill:#323638;stroke-width:0.357142"
         d="m 214.20459,70.148437 c -2.97963,-0.358105 -8.14147,-2.355025 -10.89281,-4.214017 -2.46795,-1.667493 -8.44914,-6.984362 -11.70042,-10.400919 -1.71831,-1.805635 -3.28816,-3.181629 -3.48858,-3.057736 -0.20047,0.123856 -0.94347,1.378422 -1.65117,2.787916 -1.61668,3.219771 -2.91046,4.865835 -5.32319,6.77272 -3.86985,3.058451 -3.56653,2.915094 -8.19365,3.872234 -5.18776,1.073102 -9.60035,0.46364 -14.75704,-2.038277 -3.03038,-1.47028 -3.67028,-1.433923 -6.4663,0.367426 -1.65828,1.068389 -4.80808,2.228598 -9.1751,3.379665 -0.80853,0.213105 -4.18352,0.384319 -7.49996,0.380498 -5.45023,-0.0065 -7.9064,-0.225321 -16.2085,-1.445351 -5.18305,-0.761676 -8.6685,-1.113923 -14.10709,-1.425744 -10.097954,-0.578962 -12.662265,-1.169494 -18.872452,-4.345981 -3.268557,-1.67185 -4.657301,-1.697707 -7.773787,-0.144713 -1.03771,0.517105 -2.091384,0.940209 -2.34149,0.940209 -0.250071,0 -1.026996,0.321428 -1.726422,0.714284 -0.69946,0.392854 -1.739492,0.714282 -2.311204,0.714282 -0.571711,0 -1.138816,0.160713 -1.260208,0.357141 -0.121393,0.196428 -0.603533,0.357141 -1.071424,0.357141 -0.467891,0 -0.936853,0.139393 -1.042138,0.309784 -0.105322,0.170358 -0.958531,0.421892 -1.896099,0.558962 -0.937532,0.137071 -2.508168,0.388963 -3.490307,0.559819 -0.982138,0.170857 -2.589274,0.413177 -3.571413,0.538534 -0.982138,0.125356 -2.114633,0.386569 -2.516667,0.580462 C 56.42085,66.48206 52.31876,66.57131 46.331501,66.496096 35.574332,66.360883 34.900978,66.248454 30.061428,63.779429 27.667724,62.558256 24.087203,59.022628 22.790281,56.599461 20.881325,53.032869 20.477256,48.111962 20.98486,34.612199 c 0.388141,-10.322776 0.555391,-12.64448 1.414958,-19.642772 0.46482,-3.784162 0.975567,-9.5471368 1.440172,-16.249929 0.633748,-9.142675 1.21821,-12.909872 2.488133,-16.037573 0.366426,-0.902532 0.761103,-1.881991 0.877031,-2.176633 0.480284,-1.220852 2.991023,-4.31991 4.32166,-5.334441 3.919412,-2.988237 5.220049,-3.551914 10.357097,-4.488552 3.444451,-0.628033 16.941035,-0.727318 20.494448,-0.150785 4.911194,0.796889 10.258634,1.833313 11.29113,2.188455 8.65664,2.977594 15.411075,7.278004 19.702554,12.544123 0.713854,0.876032 0.908254,0.929282 2.499995,0.684819 2.688735,-0.412927 11.027562,-0.29282 14.583012,0.210071 1.76784,0.25007 4.41961,0.611497 5.89282,0.80321 3.38749,0.440784 6.63141,0.986246 9.82139,1.651457 1.37499,0.286749 3.30356,0.653533 4.28569,0.81514 6.07063,0.9987452 11.28078,2.7621303 14.54647,4.9232637 1.19664,0.7918894 1.47368,0.8485677 2.21346,0.4526409 1.06696,-0.5710333 1.24721,-1.436708 1.63875,-7.8708586 0.4466,-7.339039 0.87585,-9.655065 2.34962,-12.677445 0.91487,-1.876135 1.95732,-3.278235 3.65835,-4.920371 3.17584,-3.065904 5.07308,-4.021701 9.78963,-4.931868 0.93303,-0.18005 2.54017,-0.496344 3.57142,-0.702878 10.5732,-2.117556 21.35405,-1.622661 31.69629,1.455015 2.06249,0.613764 4.07141,1.207123 4.46426,1.31858 0.39286,0.111452 0.95536,0.392455 1.25,0.62445 0.29464,0.231992 1.74107,1.168309 3.21427,2.080702 2.59453,1.606849 7.34794,6.110473 9.40903,8.914567 0.54143,0.736605 1.18528,1.339281 1.43078,1.339281 0.2455,0 0.78954,-0.706319 1.20896,-1.569636 0.41943,-0.863283 1.76907,-2.645561 2.99921,-3.96059 1.74884,-1.869492 2.94167,-2.745274 5.46926,-4.015626 5.37947,-2.703599 6.71868,-2.967151 16.2161,-3.191282 5.37777,-0.12691 7.32001,-0.04733 8.74997,0.358523 1.01086,0.286902 2.71028,0.720583 3.77648,0.963735 1.06625,0.24315 4.0548,1.464562 6.6413,2.714199 2.58645,1.249674 4.89034,2.272134 5.11972,2.272134 0.22936,0 1.24371,0.763389 2.2541,1.696421 8.63696,7.975822 9.88642,9.516137 11.37092,14.017796 0.35624,1.080352 0.91756,2.5965597 1.24735,3.3693063 0.52764,1.2364232 0.58053,2.6079529 0.44053,11.4285216 -0.13996,8.8197481 -0.25293,10.3877771 -0.94049,13.0569081 -1.46632,5.692046 -2.59728,8.285035 -5.21938,11.966519 -1.99099,2.795345 -6.61775,7.258397 -9.11139,8.788962 -1.08514,0.666033 -2.29049,1.412922 -2.67856,1.659707 -0.38807,0.246784 -0.94663,0.551712 -1.24127,0.677604 -0.29465,0.125928 -1.24804,0.544033 -2.11867,0.929174 -0.8706,0.385142 -2.39739,0.938568 -3.39284,1.229888 -3.21107,0.939675 -4.48845,3.033522 -4.48845,7.35729 0,7.01804 -4.92323,14.857828 -11.32938,18.040956 -1.52775,0.759104 -3.54167,1.587743 -4.47537,1.841421 -2.1421,0.581962 -8.18044,0.308463 -11.13921,-0.504533 -2.01824,-0.554569 -2.21141,-0.549533 -3.92854,0.102646 -3.89931,1.480994 -7.20313,1.930421 -10.91304,1.484529 z"
         id="path2-4" />
      <path
         id="path11"
         style="stroke:#000000;stroke-width:1px;fill:none"
         transform="translate(11.8731, -53.429)"
         d="M203.31613738410456,118.95673622394565 201.0091887127256,118.46513847627534 198.5037849187321,117.62207547454639 196.00531531999428,116.52790835227168 194.05683441073205,115.41768008445781 192.0031104852146,113.84422548419714 189.01919150152673,111.28536050705885 185.85479481964376,108.3774845576523 183.0504476145576,105.59348649097723 182.44192057194178,105.00103076986726 180.56095967684996,103.16974643007697 179.11665456313995,102.0069257585511 175.70976120852572,100.50016570790204 174.5997163821126,100.00922835683889 171.5862904558687,104.33349930356408 170.44852506061378,106.43485947095708 169.3938408667605,108.36409192908762 168.51765978247036,109.63958926220832 167.58122661037447,110.67842950044087 166.27266068315154,111.81567113317932 164.30819047758257,113.34471171093685 163.4357675065498,113.88672002350084 162.51554631461582,114.19626923286293 160.19041020564714,114.69682957892898 158.56852986954482,114.97097409261983 157.10530199220554,115.09932465059656 155.70776798940344,115.09955498803247 154.3373592205241,114.97406609088219 152.9532905641872,114.71838952015509 151.60098435596583,114.34413503448496 148.14837946953412,112.9409333897195 145.75509179163672,111.91044098483457 142.72599807997605,111.42804707958204 139.77001818854947,112.2550367488085 137.55279750506153,113.5424024943352 136.31853291650867,114.20613150650613 134.6934016194287,114.87269978040828 129.75301517905794,116.3898888061052 127.59119269604508,116.59887652149452 123.165202984488,116.70163753965684 119.70305629355205,116.64778360411941 116.59707942089406,116.4537061268521 107.57252404158244,115.2951529945047 100.49359156091556,114.39819180403141 93.22621109395361,113.84511298453971 87.07993051233576,113.38265591673033 82.9671062624756,112.73098808983742 81.45698749788015,112.3195266433101 79.94791557848137,111.77587094336155 75.9447421855411,109.90614088731982 73.24312942188554,108.71997833071643 70.13167119251864,108.13651467750742 67.00137706875415,108.61545803727662 64.42778332258513,109.69435807281188 62.09664322453128,110.63043816172886 60.33734442363695,111.35830791758107 59.58235606888914,111.67473178640931 59.09458014653913,111.76711725946973 57.551915816394256,111.96967764028359 56.56447357646843,112.50974197397814 55.30749274858016,112.68381784574473 54.330716447350454,113.23893123459942 53.708236959431076,113.37082713434903 50.35581268293045,113.90849820642819 46.626249242567354,114.47084628075073 44.293692932988165,115.00889322413097 41.63689568218251,115.19511888722819 34.506132690852596,115.20065210381077 28.316067025169858,115.0707533852725 24.82155544637135,114.76242192588833 23.893270180589084,114.55855851986077 23.0282283714931,114.26630953535121 20.508457505219596,113.07903406628883 19.105547240388347,112.15288180701975 17.46557544340949,110.70208302406452 15.981366223326518,109.06721593672492 15.04662931559595,107.69808250674735 14.68921895246362,106.91576014809527 14.3409074183825,105.8097707424936 14.044219269974462,104.32864065581485 13.823961944933998,102.4130089036037 13.63748469714919,96.64887411852331 13.833580326417064,88.20923120541403 14.355281809264469,77.32880124064422 15.226190240368396,68.88299879302292 15.952526885616749,61.792604081518185 16.676507237144264,52.52223678586157 17.145879241753306,46.699959674867245 17.640375575432913,42.624766688617086 18.195870932784388,39.85801872133883 18.894656303271944,37.7336409317443 19.59287577426872,36.00094853569873 19.97875721514282,35.32723428993346 20.84956100272194,34.163313348352496 21.883054323022762,32.980465812528266 22.654241309153022,32.261588404706224 24.720349383260384,30.778259932109254 26.26601389994923,29.936308544744666 28.009623244016225,29.35634002370176 30.70594349132118,28.792532899052738 34.43749752415616,28.46065562914976 40.25210642975249,28.309301091223332 46.089466246424905,28.374971509348338 49.91895605731543,28.654668654654074 56.681168126708656,29.854627948489078 60.452934402361535,30.690318379061306 63.17957335393956,31.70796984327669 65.90545589594949,32.89860524373656 68.42873018231593,34.181666071319775 70.7431928627022,35.548683694132365 72.84349540724425,36.990857863406234 74.7260334420536,38.49920039355893 76.38831774633158,40.06429055910114 77.99550988209185,41.862823972569686 79.00120519958462,42.96070802749931 81.0482261270405,44.09859488138763 83.17081598778961,44.241246669599924 84.46154453696488,44.08113029659731 87.09897267092668,43.889095107028716 90.99605236287296,43.86380999640871  M201.34686261589545,128.19806377605434 198.5096112872744,127.59346152372467 195.0952150812679,126.4445245254536 191.7594846800057,124.9836916477283 188.82056558926797,123.30911991554218 186.0498895147854,121.18637451580285 182.7452084984733,118.35243949294114 179.32720518035626,115.2115154423477 177.44029235091065,113.33829458737173 175.95314021752964,115.50321073779168 174.21397338962555,117.43257049955912 172.27793931684843,119.11512886682068 169.71820952241745,121.10748828906316 167.4892324934502,122.49227997649915 165.0240536853842,123.32153076713706 161.97298979435288,123.978370421071 159.7706701304552,124.35062590738016 157.51969800779446,124.54807534940345 155.27683201059656,124.54844501196753 153.0456407794759,124.3441339091178 150.8309094358128,123.93501047984492 148.55181564403418,123.30426496551505 144.5008205304659,121.65786661028051 143.2907781725074,121.13685132616692 142.1638024949385,121.79119750566478 140.35986708349134,122.76126849349387 137.8797983805713,123.7785002195917 131.61338482094206,125.7029111938948 128.15620730395491,126.03712347850548 123.201397015512,126.15216246034316 119.33474370644795,126.09201639588059 115.69992057910594,125.8648938731479 106.37707595841756,124.6680470054953 99.54060843908444,123.80180819596858 92.51120955899106,123.26684079581489 85.98426948766424,122.77574408326967 80.9798937375244,121.98281191016257 78.60921250211986,121.33687335668989 76.33988442151863,120.51932905663844 72.04565781445889,118.51365911268019 70.43667057811446,117.80722166928356 69.97092880748136,117.71988532249259 69.58102293124585,117.77954196272339 68.01501667741488,118.43604192718813 65.66335677546847,119.38036183827123 63.96965557636306,120.08109208241893 62.31764393111086,120.7734682135907 60.60157317187558,121.0984945251259 59.85720920625352,121.56110810849181 58.33047595470941,121.80172457196383 57.32613242222495,122.26283826926802 55.43676304056892,122.66317286565096 51.808387317069545,123.24510179357182 48.395150757432646,123.75975371924928 45.69450706701184,124.38270677586904 41.97130431781749,124.6436811127718 34.4106673091474,124.64954789618923 27.80113297483014,124.51084661472751 23.38704455362865,124.12137807411168 21.360129819410954,123.67624148013925 19.490771628506945,123.04469046464881 15.868142494780411,121.33776593371117 13.34385275961165,119.67131819298024 10.817424556590522,117.43631697593547 8.546233776673473,114.93458406327508 6.7877706844040455,112.35891749325263 5.8521810475363925,110.31103985190474 5.175892581617493,108.16362925750639 4.702180730025529,105.79875934418513 4.392638055065999,103.1065910963963 4.185115302850813,96.6919258814767 4.39001967358293,87.87316879458598 4.929718190735527,76.6173987593558 5.827047212489529,67.91537753923133 6.54127311438325,60.94319591848181 7.257292762855736,51.774763214138424 7.742920758246693,45.75084032513282 8.30442442456709,41.12343331138293 9.043329067215621,37.44318127866115 10.015343696728047,34.488159068255705 11.07132422573127,31.867651464301293 12.066842784857192,30.129565710066533 13.498438997278082,28.216086651647466 15.086145676977218,26.398934187471745 16.653158690846976,24.93821159529378 19.68585061673961,22.760940067890747 22.485186100050775,21.236091455255337 25.54337675598377,20.21885997629824 29.315656508678824,19.430067100947262 33.895502475843834,19.022744370850244 40.18229357024751,18.859098908776666 46.48713375357509,18.93002849065166 51.09164394268457,19.266331345345925 58.529431873291344,20.586172051510925 63.139865597638455,21.607681620938695 66.72522664606034,22.94583015672327 69.94134410405047,24.350594756263423 72.97726981768407,25.894333928680226 75.8260071372978,27.576916305867634 78.4795045927557,29.398942136593718 80.9285665579464,31.36119960644109 83.16228225366842,33.46430944089886 84.20064663132034,34.626294362931255 86.72482732907334,34.44250489297128 90.93474763712705,34.415190003591285  M193.58823446255656,112.09171530270017 184.36188389863605,122.8506583668351  M160.81605485536147,112.1458148305096 163.79895763991362,126.00159671258193  M105.49944366463963,112.65138413656175 103.71781970240546,126.71218840384483  M62.382290415927194,107.97019671064731 67.66371737861381,121.12264628566794  M36.122605539573364,112.83719235013346 36.13360345359333,127.01041638814048  M17.815258648034508,107.57484234344875 7.143124387521727,116.90146825592333  M16.41723381221012,83.64737017217293 2.2602700832407674,82.96856345277534  M17.944130260994207,65.5310424581188 3.8446874296056555,64.08670439863997  M25.909840826588223,32.83222298217102 17.644032557940903,21.31889096004924  M43.36416573756861,30.706666019096495 43.52360475859918,16.53433453185609  M53.2740673400482,31.649143414630288 55.750430084959625,17.693928327027088  M65.43486259268835,35.30936830721629 71.85899036294447,22.675644272828123  "
         inkstitch:satin_column="true" />
      <path
         id="path12"
         style="stroke:#000000;stroke-width:1px;fill:none"
         transform="translate(11.8731, -53.429)"
         d="M90.80256681321586,43.86110246767967 94.89014037144109,44.00206999581371 98.05286805707674,44.28398470041204 103.80814551895156,45.06842680147906 108.67492108327167,45.79248256381177 113.41809874510459,46.68469068851158 117.67109832145873,47.49368948789647 121.83099342142182,48.33685107272223 125.37869538326966,49.35974306708855 128.3134568376633,50.522678179838486 130.88945798757058,51.94160176364455 133.2974633104812,53.20711868360314 135.87035116688932,53.14131001956218 137.87585928218635,52.29069936906759 140.02115218152832,50.42612979183268 141.0333468316268,47.61431789195042 141.41233661661175,44.6969061900369 141.69254500847498,40.704556536056536 142.02978705507437,36.200249901602106 142.4167468404803,33.30252250087542 142.8982007978837,31.406707351680527 143.5573526488236,29.823675168845465 144.6817234057716,27.95663642299835 146.3185620362447,26.128293837877138 148.03471632145352,24.62232216886972 149.4472936969343,23.72671277830406 151.11033022788686,23.079391158351243 153.77591534782582,22.451857874127136 157.19954907461366,21.77804028254983 160.96904095351886,21.140826819592586 164.66852758844107,20.74435710795851 168.37000476716042,20.574665866734385 172.06755708969965,20.631245911806353 175.75516708029446,20.9136881198092 179.4267242179224,21.421866291773224 183.07636305075397,22.15574894779514 186.77123942816937,23.135020114120593 190.77193010755371,24.31668593627328 191.41360707658217,24.63721641584237 194.28689134805558,26.497168064305406 196.274585227278,27.962009942417136 198.62911961995704,30.04989528499737 200.91534237623435,32.360248233626585 202.7957366794427,34.59781080862624 204.08322014648596,36.071468373336074 208.19882926003316,38.75029138006919 212.00313284914432,35.49701915280809 213.01793272910407,33.81715182874753 214.01208606880917,32.3113703944284 215.5091613786097,30.527015330401888 216.4407688464035,29.595106615245825 217.2687952424387,28.911723848113255 218.23111472616387,28.28330081912442 219.6055791127203,27.544372353396618 222.73487612200248,26.09356322866757 223.82686609303036,25.712836587422778 224.89723843906904,25.44971727764389 228.28589673700583,25.052973658189465 233.80292751522023,24.849804993639037 239.38328703213804,24.830267921859686 240.58596820689206,24.92617322858251 241.40553697463073,25.091612451917015 244.85456965790166,25.971748238192188 247.22765577368978,26.81701726841855 250.95547138556006,28.478859609014055 255.8175684405728,30.636636572253018 256.07642497136345,30.79128015131187 257.10158362294686,31.656239715017563 262.10662361251116,36.38325393956176 264.97596596870585,39.46506946072558 265.6960432218293,40.44029054645327 266.1760549927985,41.26184797778575 267.2112297602762,43.84699748546021 268.37888102691676,47.001144372890735 268.51349501478614,47.4626904045636 268.61305710796205,48.58833506051424 268.5839396034918,56.86728318371186 268.3267247352457,65.44586996916699 268.1168917388764,67.31113339527411 267.78195871873623,68.85689784168665 266.80885888558294,72.28512471774987 265.85838203434787,74.83803931736739 264.76995447601416,76.97521388731636 263.33252173549454,79.17263001206872 261.7050495998797,81.16117652394732 259.50074780071736,83.43481463036447 257.2394468502397,85.47056223510486 255.38230942855392,86.84575908982951 252.98045873746932,88.33403670491002 252.03261207550398,88.85144659627207 250.24269967376262,89.636365467494 246.98753199991054,90.81637334360536 245.50688881973267,91.35906333590954 243.83071674958302,92.30186560316115 242.32269837036566,93.59106279359747 241.11011005107488,95.1803375183461 240.25777269017166,96.94766798699979 239.69981440974644,98.9104331829228 239.4099841456443,102.20728144331565 239.21563164222198,104.51487036341398 238.73093451657647,106.52216092373487 237.93111839448218,108.56503564369326 236.84599978199353,110.55403607063771 235.51977603904922,112.40419416491251 234.00796654354787,114.03745052595804 232.37519978951045,115.38637688843278 230.58940221111487,116.46218538617825 228.54726898732577,117.38365193838547 227.197147764272,117.87360609903708 225.79537005410543,118.05039328837185 223.25776095088833,118.04186575802797 220.49784559545785,117.8066717668507 218.18868777989914,117.37396781302174 216.78479745184603,117.01869339351033 214.95161955241133,116.82214338437244 213.11652615095602,117.13209892689456 211.73340009424885,117.61635700194081 209.21394745384643,118.43541961785442 207.08356397787915,118.86590057365174 205.03293616739236,119.00763378431049 202.61650310039647,118.86159489988385  M91.12823318678414,34.417897532320325 95.47285962855891,34.56773000418629 99.11093194292327,34.89201529958797 105.14145448104844,35.71397319852093 110.24407891672834,36.47311743618823 115.17430125489541,37.40050931148842 119.49250167854127,38.221910512103534 124.08200657857819,39.15214892727778 128.4351046167303,40.40725693291145 132.13835263251806,41.874714242715484 132.26845499152503,40.02104346394347 132.62781294492564,35.22135009839789 133.12365315951968,31.50827749912459 133.9099992021163,28.41189264831948 135.10284735117637,25.547124831154534 137.04727659422838,22.318363577001648 139.65843796375526,19.401706162122863 142.3546836785465,17.035677831130286 145.16370630306568,15.254687221695946 148.30026977211313,14.03380884164875 151.78028465217412,13.214542125872882 155.4994509253863,12.482559717450172 159.67695904648116,11.776373180407418 163.94807241155897,11.318642892041481 168.22579523283957,11.122534133265617 172.50104291030036,11.18795408819365 176.76463291970552,11.514511880190796 181.0072757820776,12.101733708226774 185.22003694924607,12.948851052204859 189.3203605718306,14.035579885879386 194.24826989244627,15.491114063726727 196.10659292341782,16.41938358415763 199.66190865194443,18.720831935694605 202.224014772722,20.608990057582858 205.12868038004294,23.184704715002624 207.40522595973903,25.48527834821408 208.5354386213903,24.138184669598104 210.0778311535965,22.59529338475417 211.6610047575613,21.288676151886747 213.40208527383612,20.151699180875582 215.3776208872797,19.08962764660339 219.18372387799755,17.325036771332435 221.13773390696966,16.643763412577215 223.21356156093094,16.133482722356106 227.56150326299417,15.624426341810533 233.61247248477974,15.401595006360964 239.74291296786194,15.38013207814032 241.90103179310796,15.552226771417494 243.50986302536924,15.87698754808298 247.6138303420983,16.92425176180781 250.74174422631023,18.03838273158145 254.79552861443992,19.845540390985946 260.1728315594272,22.231963427746976 261.5821750286366,23.073919848688178 263.39701637705315,24.605160284982418 268.8151763874888,29.72234606043824 272.2578340312941,33.41993053927442 273.59855677817063,35.23570945354673 274.6875450072015,37.099552022214255 276.02917023972384,40.45000251453979 277.35611897308326,44.03445562710925 277.84390498521384,45.7069095954364 278.0633428920379,48.18786493948576 278.03226039650826,57.02551681628813 277.7596752647543,66.11673003083301 277.4529082611236,68.84366660472588 276.95324128126373,71.14970215831335 275.7955411144171,75.22827528225012 274.52421796565216,78.6429606826326 272.9574455239858,81.71938611268365 270.9638782645054,84.76696998793129 268.7655504001203,87.45302347605269 266.06125219928265,90.24238536963553 263.22555314976034,92.79523776489515 260.6912905714464,94.67184091017026 257.73614126253074,96.50296329508997 256.201387924496,97.34075340372794 253.75390032623739,98.414034532506 250.22346800008947,99.69382665639463 249.47451118026734,99.96833666409047 249.26828325041697,100.08433439683886 249.22570162963436,100.12073720640254 249.20408994892514,100.1490624816539 249.1232273098283,100.3167320130002 249.0337855902536,100.6313668170772 248.82401585435568,103.01751855668434 248.57036835777802,106.02912963658603 247.76446548342355,109.36663907626513 246.5118816055178,112.56596435630674 244.86320021800648,115.58796392936229 242.85522396095078,118.38920583508748 240.51303345645215,120.91954947404196 237.85220021048954,123.11782311156722 234.98579778888512,124.84461461382176 232.10713101267424,126.14354806161452 229.427452235728,127.11599390096292 226.3730299458946,127.50120671162816 222.84003904911168,127.48933424197205 219.22335440454216,127.1811282331493 216.15751222010087,126.60663218697827 215.28211472697302,126.38510039777931 214.75559990575113,126.56944299805919 211.61825254615357,127.58938038214558 208.35043602212107,128.24969942634823 205.07386383260769,128.47616621568952 202.04649689960354,128.29320510011615  M103.82722204055656,47.45946916083096 105.91289180238158,33.44053973557662  M144.85081202651244,33.31482041862118 131.11364345605048,29.826181679461566  M147.8153316820806,27.957594648913712 138.46695832605164,17.30450513544669  M166.45369991794766,23.02720304560936 165.8046214000528,8.868845172492133  M222.33320312764724,28.883516609214286 216.37172439392165,16.025010790380176  M233.2618369939448,27.233536953010876 232.7402511202213,13.069909283448773  M241.6721040145793,27.597539407432688 245.17657265502402,13.864400649894666  M259.7118913439273,37.37074858227086 269.44359827003314,27.06665808916877  M265.5460024447818,46.15292972073857 278.83768619512244,41.232407018160714  M266.2080912096289,57.28691930702852 280.37495292695206,57.71168944239046  M258.252661092977,81.32855095561175 268.4286073258157,91.1941740404468  M234.81016227532473,109.33955058232318 246.32958802663683,117.59686436742673  M223.51550029568324,115.69306328585246 222.3120504370159,129.81510665865537  "
         inkstitch:satin_column="true" />
      <path
         id="path1"
         style="stroke:#ffff00;stroke-width:1px;fill:none"
         transform="translate(11.8731, -53.429)"
         d="M34.25538367900043,103.93877212631978 38.39354911887533,48.93565648798249 42.22867172681181,48.76620369018176 46.21476186981989,48.79641513040363 49.869342869639816,49.169840642450055 52.815854688833625,50.00867869720062 55.23685068462467,50.73481801556517 55.99709397868691,51.10783792752407 57.098957787667366,51.847342945496564 58.62614691652061,53.13950655834399 59.58284250785753,54.09077515544633 59.73358942954609,54.875563275197415 59.80731950079217,55.603176002742615 59.788387879318584,56.546119235432315  M23.48721632099958,103.12862787368022 28.344250881124665,38.570543512017515 42.03112827318819,37.96579630981824 46.80583813018012,38.00198486959637 51.91225713036019,38.52375935754995 55.845545311166376,39.64352130279937 59.193149315375315,40.64758198443484 61.40890602131307,41.734762072475924 63.61544221233263,43.21565705450344 65.9324530834793,45.17609344165593 69.55915749214246,48.782224844553674 70.4288105704539,53.30963672480266 70.61688049920784,55.16562399725727 70.5848121206814,56.76288076456768  M41.09676662663799,48.98964929382079 24.944515589636666,47.77443291486192  M43.47142285864092,51.47535030901743 43.59418672374187,35.277915529293026  M52.01737789746512,52.5882780399873 56.464181870351815,37.01272351256455  M56.00128359613234,54.45492474666942 66.46384535506361,42.0893772112568  "
         inkstitch:satin_column="true" />
      <path
         id="path3"
         style="stroke:#ffff00;stroke-width:1px;fill:none"
         transform="translate(11.8731, -53.429)"
         d="M59.88191810221668,55.6481250930543 59.74607853489153,56.364146218798965 59.66154060259366,56.57083735459965 59.44038315062696,56.89648306888642 58.55678486692367,57.77942047130047 56.910922563421295,59.499222006928065 55.27710410783017,60.81915302959817 53.3347380879644,62.05580235888801 51.50551755876778,62.98454326865249 49.28146740978982,63.464358104875856 46.67187354351294,63.89403376149671 41.49320112867893,64.39129294209351 36.525545376360384,64.50455982071848 31.509974104108313,64.40349579079529  M70.49128189778332,57.6608749069457 70.15272146510847,59.44545378120104 69.22905939740635,61.70376264540037 67.79801684937304,63.810916931113596 66.2750151330765,65.33277952869938 64.23467743657874,67.4647779930719 61.5898958921698,69.60144697040187 58.69146191203554,71.44679764111203 55.14848244123224,73.24565673134751 51.298532590210044,74.07624189512418 48.06672645648707,74.6083662385033 42.13319887132107,75.17810705790649 36.53985462363961,75.30564017928153 31.292425895891686,75.1999042092047  M57.19419693198611,55.472111775545855 72.18655959575838,61.60407933644565  M54.13434912232772,58.2717934139926 64.31353015468338,70.87164412424035  M49.562937347354804,60.64187303823396 52.978869111531466,76.47548837373105  M39.824648333021806,61.72898574389373 40.19387859830271,77.92267690499719  "
         inkstitch:satin_column="true" />
      <path
         id="path4"
         style="stroke:#ffff00;stroke-width:1px;fill:none"
         transform="translate(11.8731, -53.429)"
         d="M56.028637099074196,69.73327937916602 58.35438367289285,71.03644128425066 60.03791354677626,72.35566894660585 61.5160840924168,73.91198490844457 62.58507084179055,75.38347047783274 62.903367389591395,76.22975168526968 63.261295234801544,77.49666382520597 63.77729287013832,80.51483175248042 63.993271972982036,83.7159411182252 64.0494005993705,87.53667441881419 63.59137963037371,88.40293263384088 62.71951076813711,89.75665525823055 60.64700047277029,92.55561914890146 60.00580085332383,93.35805422376318 58.44627788643465,94.17693391250648 53.011778778211216,96.67389429258675 47.745332359814135,98.7549810182395 47.471265803362634,98.83438307521806 43.57699039543354,99.35846199019394 41.038957738471886,99.53990633608771 35.29056036361856,99.53711304959891 29.737681870204398,99.05768581793548 27.458510651782156,98.68574545444605 25.330456258613587,98.18451216602958  M61.30716290092581,60.31272062083397 64.35941632710718,62.02295871574937 67.32208645322373,64.34453105339412 69.83511590758323,66.99041509155546 72.17892915820947,70.21672952216726 73.17123261040864,72.8550483147304 73.80890476519845,75.11213617479397 74.51430712986168,79.23816824751964 74.78652802701797,83.27285888177478 74.83033578970536,86.25489832392354 75.01739567695115,86.83959332660021 74.92689697386237,89.09556772332897 74.10053146335143,91.62944990622385 72.9210203696263,93.86026736615914 71.60748923186289,95.89974474176944 69.2071995272297,99.14138085109855 67.45012928866726,101.34028232523748 65.60740746453533,102.61348655886393 63.21392211356536,103.87026608749352 57.25342122178878,106.60890570741326 51.23986764018587,108.98521898176048 48.64178390021024,109.73793100845788 46.20062269241972,110.00668664609556 46.013234373371844,109.92654760345027 44.68320960456643,110.10553800980605 41.42184226152812,110.3386936639123 34.822639636381446,110.33548695040109 28.401718129795604,109.78111418206451 25.348489348217814,109.28285454555395 22.854743741386415,108.69548783397042  M57.70220380053587,73.95515656125795 67.69300377617418,61.205416161673895  M60.89240968780265,79.66047698629096 76.85865442053938,76.93082617632341  M59.727470000658684,89.26084460775243 72.74518021008768,98.89988944182846  M55.542397944134386,92.54019010061722 62.30508738795789,107.25881761463489  M42.53207951503133,96.72662287976071 43.68712202474521,112.88328841478848  M31.86142615168509,96.53135335646827 30.468107162702427,112.66921649273696  "
         inkstitch:satin_column="true" />
      <path
         id="path5"
         style="fill:none;stroke:#ffff00;stroke-width:1px"
         d="m 87.893308,65.801256 24.250562,2.454428 -11.59587,11.228915 -14.112617,13.666017 -1.702875,1.581768 -1.539323,1.786351 -1.226969,2.057578 -0.701026,2.593977 0.358512,2.87375 1.334691,2.26708 1.528233,1.38774 2.283048,1.42055 43.689716,2.70795 m -41.478698,-56.769816 31.916808,3.230337 3.14965,2.112866 1.44287,1.668035 0.99433,2.185147 0.16445,2.59001 -0.71204,2.334907 -1.16739,1.801952 -1.18722,1.230415 -10.00423,9.687638 -17.531034,16.976254 35.080524,2.174335 M 115.31827,70.766855 125.40789,58.095166 m -16.26535,9.308915 11.26805,11.636283 M 89.616166,86.312533 100.88421,97.948816 M 81.671145,108.78568 92.713578,96.935081"
         inkstitch:satin_column="true"
         transform="translate(11.8731, -53.429)"
         sodipodi:nodetypes="ccccccccccccccccccccccccccccccccc" />
      <path
         style="fill:none;stroke:#ffff00;stroke-width:0.337457;stroke-dasharray:none"
         d="m 142.54933,47.621514 c 0.61857,0.15 0.9425,0.173571 1.54606,0.374999 0.6375,0.212499 1.02036,0.237855 1.54607,0.655711 0.69785,0.554997 1.02678,0.914638 1.42892,1.709992 0.43285,0.856068 0.49419,1.731086 0.73776,2.658938 m -5.86774,5.422813 c 0.64642,-0.09357 0.98,-0.08643 1.61642,-0.234284 0.69857,-0.162143 1.11321,-0.141072 1.70999,-0.53857 0.76644,-0.511069 1.05643,-0.914639 1.59286,-1.663207 0.42213,-0.58964 0.60412,-1.417286 0.9134,-2.073355 m -4.23145,4.560491 0.56888,-10.783928 m 1.54286,0.65575 -0.39852,9.589551 m 1.59409,-1.663128 0.23216,-6.216444"
         id="path194"
         inkstitch:satin_column="True"
         sodipodi:nodetypes="cccscccccccccccc" />
      <path
         style="fill:none;stroke:#ffff00;stroke-width:0.337457;stroke-dasharray:none"
         d="m 101.0905,12.495821 c -0.59968,-0.213313 -0.91942,-0.270335 -1.498855,-0.533248 -0.612042,-0.277435 -0.990208,-0.342345 -1.469769,-0.812443 -0.63656,-0.624351 -0.926433,-1.016153 -1.243962,-1.8489103 -0.341776,-0.896325 -0.312088,-1.772985 -0.458161,-2.7210881 m 6.398277,-4.7853363 c -0.65264,0.026072 -0.98368,-0.015643 -1.63201,0.06546 -0.71161,0.088853 -1.12183,0.024928 -1.756606,0.3584055 -0.81527,0.4288696 -1.145548,0.8002002 -1.756672,1.4891293 -0.481,0.5427048 -0.747784,1.3470262 -1.123417,1.9674986 M 101.23072,1.5780104 99.54703,12.244868 M 98.080461,11.432715 99.470913,1.9361374 M 97.713,3.4250595 96.837687,9.5839468"
         id="path194-2"
         inkstitch:satin_column="True"
         sodipodi:nodetypes="cccscccccccccccc" />
      <path
         style="fill:none;stroke:#ffff00;stroke-width:0.337457;stroke-dasharray:none"
         d="m 177.2948,52.091862 c -0.10669,0.62749 -0.10771,0.952274 -0.26674,1.568372 -0.16773,0.650715 -0.16645,1.034406 -0.54679,1.587861 -0.50521,0.734707 -0.84113,1.08781 -1.60665,1.544208 -0.82394,0.491248 -1.69259,0.613197 -2.6013,0.920603 m -5.81714,-5.477052 c 0.13823,0.638369 0.15426,0.971628 0.34595,1.596251 0.21026,0.685625 0.21803,1.100727 0.656,1.668472 0.56306,0.729088 0.98579,0.990367 1.7698,1.473521 0.61752,0.380185 1.45581,0.504256 2.13177,0.767239 m -4.84329,-3.904582 10.7974,-0.181267 m -0.54705,1.584668 -9.59407,0.268277 m 1.76979,1.474772 6.21757,-0.200038"
         id="path194-7"
         inkstitch:satin_column="True"
         sodipodi:nodetypes="cccscccccccccccc" />
      <path
         style="fill:none;stroke:#ffff00;stroke-width:0.337457;stroke-dasharray:none"
         d="m 246.20528,54.22625 c -0.18264,0.609715 -0.22343,0.931931 -0.45664,1.523936 -0.24614,0.625294 -0.29182,1.00626 -0.737,1.509008 -0.59135,0.66735 -0.96796,0.976684 -1.7836,1.335961 -0.87785,0.386717 -1.75492,0.401435 -2.69437,0.595319 m -5.10313,-6.147823 c 0.0591,0.650487 0.0343,0.983203 0.148,1.626593 0.12479,0.706205 0.0817,1.119134 0.44689,1.736214 0.46957,0.792518 0.85714,1.10357 1.57614,1.679042 0.56635,0.452905 1.38313,0.678637 2.02184,1.022375 m -4.32901,-4.467988 10.73842,1.141562 m -0.73685,1.505805 -9.55482,-0.907936 m 1.57603,1.68029 6.19525,0.562411"
         id="path194-7-8"
         inkstitch:satin_column="True"
         sodipodi:nodetypes="cccscccccccccccc" />
      <path
         style="fill:none;stroke:#ffff00;stroke-width:0.337457;stroke-dasharray:none"
         d="m 224.61637,52.266993 c 0.2914,0.565874 0.48554,0.826237 0.72825,1.414427 0.25654,0.621087 0.48789,0.927164 0.516,1.598129 0.037,0.890878 -0.0196,1.37494 -0.35782,2.199507 -0.36403,0.887536 -0.9855,1.506555 -1.52768,2.297941 m -7.94032,-0.887836 c 0.4938,0.427538 0.70669,0.68443 1.235,1.068878 0.57976,0.422094 0.83518,0.7494 1.52629,0.940503 0.88801,0.245045 1.38294,0.20021 2.30002,0.115925 0.7221,-0.06669 1.46695,-0.470734 2.16545,-0.66623 m -6.21749,-0.214942 8.52622,-6.627221 m 0.51386,1.595726 -7.51162,5.974395 m 2.30075,0.11692 4.8523,-3.892722"
         id="path194-7-1"
         inkstitch:satin_column="True"
         sodipodi:nodetypes="cccscccccccccccc" />
      <path
         id="path6"
         style="stroke:#ffff00;stroke-width:1px;fill:none"
         transform="translate(11.8731, -53.429)"
         d="M164.36568827706412,106.1022506929236 165.32582478787353,40.22669570284322 177.99871823365186,40.040275848197915 187.79235764380644,43.12149174402507 191.28974754384433,47.14874073271697  M154.91791172293586,105.9645493070764 156.01177521212648,30.913904297156783 179.38208176634816,30.570124151802084 193.17544235619357,34.90970825597493 198.42385245615566,40.95325926728303  M167.68352403045364,40.552365964545444 153.51185919926124,40.34581388577469  M166.64575797861585,42.56972988104863 166.43729142097231,28.398093082737564  M181.3847409390656,43.581910237222154 185.6382732376824,30.06206516290552  M188.80117837603999,47.88575324303053 199.50233574450615,38.592531044878676  "
         inkstitch:satin_column="true" />
      <path
         id="path7"
         style="stroke:#ffff00;stroke-width:1px;fill:none"
         transform="translate(11.8731, -53.429)"
         d="M190.13272929975966,44.10592623444909 190.24278799482389,53.57180464163291 183.32141936649495,60.79415170954312 170.6529120574362,64.3970605233007 164.45898851141573,64.639937920749  M199.58087070024033,43.99607376555091 199.7358120051761,57.3221953583671 188.37058063350506,69.18164829045686 172.1514879425638,73.79433947669929 164.8292114885843,74.08146207925098  M187.87856405117455,53.411032197662394 202.05077615189558,53.246253494318154  M182.35112240821863,58.39258675969427 192.58401746346468,68.19904415455512  M171.88270525149514,61.5914407124087 175.7597921706317,75.22400998127215  "
         inkstitch:satin_column="true" />
      <path
         id="path8"
         style="stroke:#ffff00;stroke-width:1px;fill:none"
         transform="translate(11.8731, -53.429)"
         d="M174.2695242552824,69.22294566718767 180.98587191559778,83.7523099835779 193.11200579799683,99.46103525543778 205.59212078612774,112.74645615816772  M182.8462757447176,65.25825433281233 189.11592808440224,78.8212900164221 200.31199420200315,93.32516474456223 212.4788792138723,106.27714384183227  M177.41801467534535,81.66368231273505 190.28314190949973,75.71664531117541  M189.57587105738895,98.74593409674847 200.79518058312885,90.08534279969822  "
         inkstitch:satin_column="true" />
      <path
         id="path9"
         style="stroke:#ffff00;stroke-width:1px;fill:none"
         transform="translate(11.8731, -53.429)"
         d="M233.7210290724658,107.97207209325789 239.27801186797856,44.06676994486127 246.9453634746227,45.29354620192433 253.77632903299673,51.427474458423475 255.2465108128753,63.352282228549626  M224.3077709275342,107.1535279067421 230.74438813202144,33.132430055138734 251.18703652537735,36.40325379807567 262.72127096700336,46.76052554157659 264.62428918712476,62.196117771450375  M241.58032970185914,44.85786806854178 227.46044248446194,43.63005178876571  M242.3638767018598,46.95274834127462 244.60310293242958,32.95758440021168  M248.27829448264364,49.6652492602584 257.74774898424255,39.11972038347617  M251.82937533678745,54.94060840678438 265.89604289816094,53.20636172113031  "
         inkstitch:satin_column="true" />
      <path
         id="path10"
         style="stroke:#ffff00;stroke-width:1px;fill:none"
         transform="translate(11.8731, -53.429)"
         d="M255.6646155543193,60.754234383799655 250.08826358060273,72.54423569965753 240.6196093858341,74.69620256210494 235.10960225841208,74.36226273620058  M264.2061844456807,64.79416561620035 256.6645364193973,80.73936430034247 241.3963906141659,84.20939743789505 234.53799774158793,83.79373726379943  M247.6767914522737,72.11796469173336 260.48914478931243,78.17786154034161  M241.07082931458876,72.1712185622852 244.2119028913479,85.9919423000019  "
         inkstitch:satin_column="true" />
    </g>
  </g>
</svg>
