<?xml version="1.0" encoding="UTF-8" standalone="no"?>
<!-- Generator: Adobe Illustrator 22.0.0, SVG Export Plug-In . SVG Version: 6.00 Build 0)  -->

<svg
   version="1.1"
   id="svg2"
   sodipodi:docname="La_Renga_logo.svg"
   x="0px"
   y="0px"
   width="83.742996mm"
   height="74.999596mm"
   viewBox="0 0 316.50896 283.46303"
   xml:space="preserve"
   inkscape:version="1.3.2 (091e20e, 2023-11-25, custom)"
   xmlns:inkscape="http://www.inkscape.org/namespaces/inkscape"
   xmlns:sodipodi="http://sodipodi.sourceforge.net/DTD/sodipodi-0.dtd"
   xmlns:xlink="http://www.w3.org/1999/xlink"
   xmlns="http://www.w3.org/2000/svg"
   xmlns:svg="http://www.w3.org/2000/svg"
   xmlns:inkstitch="http://inkstitch.org/namespace"><sodipodi:namedview
   bordercolor="#666666"
   borderopacity="1"
   gridtolerance="10"
   guidetolerance="10"
   id="namedview4"
   inkscape:pageopacity="0"
   inkscape:pageshadow="2"
   inkscape:window-height="1057"
   inkscape:window-width="1855"
   objecttolerance="10"
   pagecolor="#6f0000"
   inkscape:showpageshadow="2"
   inkscape:pagecheckerboard="0"
   inkscape:deskcolor="#d1d1d1"
   inkscape:zoom="2.1425328"
   inkscape:cx="184.12787"
   inkscape:cy="110.38337"
   inkscape:window-x="57"
   inkscape:window-y="-8"
   inkscape:window-maximized="1"
   inkscape:current-layer="g12"
   inkscape:document-units="mm">
	</sodipodi:namedview><metadata
   id="metadata3"><inkstitch:min_stitch_len_mm>0</inkstitch:min_stitch_len_mm><inkstitch:collapse_len_mm>3</inkstitch:collapse_len_mm><inkstitch:inkstitch_svg_version>1</inkstitch:inkstitch_svg_version></metadata><defs
   id="defs1"><symbol
   id="inkstitch_trim">
      <title
   id="inkstitch_title9282">Trim the thread after sewing this object.</title>
      <path
   id="inkstitch_circle13405"
   d="m 9.2465284,-8.6e-6 c 1.8e-6,2.452339 -0.9741847,4.804237 -2.7082493,6.538304 C 4.8042146,8.2723614 2.4523174,9.2465504 -2.1625959e-5,9.2465514 -2.4523623,9.2465534 -4.8042621,8.2723654 -6.5383288,6.5382984 -8.2723956,4.8042314 -9.2465834,2.4523324 -9.2465816,-8.6e-6 c 6e-7,-2.452339 0.9741895,-4.804237 2.708256,-6.538301 1.7340665,-1.734065 4.0859648,-2.708252 6.538303974041,-2.70825 C 5.1067066,-9.2465576 9.2465271,-5.1067366 9.2465284,-8.6e-6 c 0,0 0,0 0,0"
   style="opacity:1;vector-effect:none;fill:#fafafa;fill-opacity:1;fill-rule:evenodd;stroke:#003399;stroke-width:1.06500006;stroke-linecap:round;stroke-linejoin:miter;stroke-miterlimit:4;stroke-dasharray:3.19500017, 3.19500017;stroke-dashoffset:0;stroke-opacity:1"
   inkscape:connector-curvature="0" />
      <path
   style="color:#000000;font-style:normal;font-variant:normal;font-weight:normal;font-stretch:normal;font-size:medium;line-height:normal;font-family:sans-serif;font-variant-ligatures:normal;font-variant-position:normal;font-variant-caps:normal;font-variant-numeric:normal;font-variant-alternates:normal;font-feature-settings:normal;text-indent:0;text-align:start;text-decoration:none;text-decoration-line:none;text-decoration-style:solid;text-decoration-color:#000000;letter-spacing:normal;word-spacing:normal;text-transform:none;writing-mode:lr-tb;direction:ltr;text-orientation:mixed;dominant-baseline:auto;baseline-shift:baseline;text-anchor:start;white-space:normal;shape-padding:0;clip-rule:nonzero;display:inline;overflow:visible;visibility:visible;opacity:1;isolation:auto;mix-blend-mode:normal;color-interpolation:sRGB;color-interpolation-filters:linearRGB;solid-color:#000000;solid-opacity:1;vector-effect:none;fill:#050505;fill-opacity:1;fill-rule:evenodd;stroke:none;stroke-width:1.41421342;stroke-linecap:butt;stroke-linejoin:miter;stroke-miterlimit:4;stroke-dasharray:none;stroke-dashoffset:0;stroke-opacity:1;color-rendering:auto;image-rendering:auto;shape-rendering:auto;text-rendering:auto;enable-background:accumulate"
   d="m -3.0000256,-5.9834096 c -1.30575,0 -2.375,1.06924 -2.375,2.375 0,1.30575 1.06925,2.375 2.375,2.375 0.58687,0 1.11944,-0.22369 1.53516,-0.58007 0,0 0.61717997,1.62109 0.61717997,1.62109 0,0 -2.29881997,6.01758 -2.29881997,6.01758 0.98655,-0.12511 1.23728,-0.26171 1.67382,-0.97461 0,0 1.33007997,-3.18945 1.33007997,-3.18945 0,0 1.23633003,3.25 1.23633003,3.25 0.23227,0.77906 0.84315,0.79218 1.57813,1.07226 0,0 -2.05469003,-6.14258 -2.05469003,-6.14258 0,0 0.73047003,-1.75 0.73047003,-1.75 0.42849,0.41682 1.01136,0.67578 1.65234,0.67578 1.30575,0 2.375,-1.06925 2.375,-2.375 0,-1.30576 -1.06925,-2.375 -2.375,-2.375 -1.06233,0 -1.95701,0.71265 -2.25781003,1.67969 0,0 -0.0117,-0.0156 -0.0117,-0.0156 0,0 -0.80274,2.10156 -0.80274,2.10156 0,0 -0.59179,-1.76562 -0.59179,-1.76562 -0.18242,-1.12808 -1.15864997,-2 -2.33593997,-2 0,0 -2e-5,-3e-5 -2e-5,-3e-5 m 0,1 c 0.76531,0 1.375,0.60968 1.375,1.375 0,0.76531 -0.60969,1.375 -1.375,1.375 -0.76531,0 -1.375,-0.60969 -1.375,-1.375 0,-0.76532 0.60969,-1.375 1.375,-1.375 0,0 0,0 0,0 m 6,0 c 0.76531,0 1.375,0.60968 1.375,1.375 0,0.76531 -0.60969,1.375 -1.375,1.375 -0.76531,0 -1.375,-0.60969 -1.375,-1.375 0,-0.76532 0.60969,-1.375 1.375,-1.375 0,0 0,0 0,0"
   id="inkstitch_path13416"
   inkscape:connector-curvature="0" />
    </symbol>
    </defs>
<style
   type="text/css"
   id="style1">
	.st0{fill:#FCF9FA;}
	.st1{fill:#DC3633;}
</style>

<g
   id="g10"
   transform="matrix(1.33333 0 0 -1.33333 0 257.333)"
   inkscape:groupmode="layer"
   inkscape:label="ink_ext_XXXXXX">
	<g
   id="g12"
   transform="scale(0.1, 0.1)">
		
		<path
   id="path4"
   style="display:none;fill:none;stroke:#000000;stroke-width:1px"
   transform="matrix(7.50002,0,0,-7.50002,0,1930)"
   d="m 56.30573,225.01007 26.084221,-8.47737 12.725405,1.76734 12.050994,-7.66877 38.02823,-13.71512 66.42725,76.67763 -0.74259,-100.29538 99.25035,-36.68604 -75.3297,-23.98086 -1.15493,-13.85995 -3.37015,-6.007448 -9.23399,-11.332708 -14.05905,-1.185526 -4.88629,-74.1401979 -61.96465,80.9952939 -11.10397,-2.998087 -0.29937,-16.467795 -7.88254,-13.9915 -13.08666,-6.864313 -7.94283,-0.457204 -17.079949,9.030844 -1.829913,4.539547 -10.592488,1.176982 0.409521,6.756124 -0.421934,0.205322 -0.699384,-1.229214 -6.446258,-2.889727 m -9.448985,153.099187 27.924379,-9.07543 11.578595,1.60806 10.227606,-6.50843 44.33497,-15.98968 55.27075,63.79957 -0.61741,-83.38882 81.84085,-30.25096 -57.3803,-18.26674 -1.47047,-17.64665 -2.11985,-3.778752 -6.51921,-8.000892 -17.71095,-1.493474 -3.89011,-59.025002 -51.79115,67.697306 -22.65143,-6.115913 -0.37563,-20.663005 -5.61966,-9.9749 -9.27634,-4.865687 -3.78717,-0.217996 -12.287251,6.496756 -2.558287,6.346453 -7.635512,0.848418 0.265679,4.383076 -12.568066,6.115878 -3.239016,-5.692786 -3.936542,-1.764673 m 55.843115,138.253313 -4.28025,-11.86793 m 53.4574,24.7107 9.53556,-8.26083 m 0.69449,20.06948 9.53556,-8.26084 m 28.87331,-0.0244 -12.61585,0.0934 m 12.50017,-15.71661 -12.61584,0.0934 m 43.71301,-47.51015 -4.37409,-11.83366 m 26.35595,3.70848 -4.37409,-11.83366 m -3.71621,-25.31849 -3.82705,12.02172 m -21.4979,-36.725902 -11.00303,6.172637 m -14.2433,-40.559241 -12.58887,0.829684 m -23.55722,-17.02928 10.02016,7.665817 m -19.51335,4.742939 10.02015,7.665818 m -33.72422,21.764092 -3.28862,12.180032 m -9.05966,-38.136047 -10.99182,6.192578 m -3.24094,-18.174673 -5.86029,11.172521"
   inkstitch:satin_column="true" /><g
   id="command_group1"
   inkscape:label="Ink/Stitch Command: Trim thread after sewing this object"
   transform="matrix(7.50002 0 0 -7.50002 0 1930)"><path
     id="command_connector1"
     d="M 148.37445,-4.9698645 162.66746,55.490357"
     style="fill:none;stroke:#000000;stroke-width:1px;stroke-opacity:0.5"
     inkscape:connection-start="#command_use5850"
     inkscape:connection-end="#path4"
     inkscape:label="connector"
     inkscape:connector-type="polyline"
     inkscape:connector-curvature="0" /><use
     id="command_use5850"
     xlink:href="#inkstitch_trim"
     height="100%"
     width="100%"
     x="148.37187660038933"
     y="-5.005711524123463"
     inkscape:label="command marker" /></g><path
   id="path5"
   style="display:none;fill:none;stroke:#000000;stroke-width:1px"
   transform="matrix(7.50002,0,0,-7.50002,0,1930)"
   d="m 59.971557,63.806777 -4.965559,1.842889 -10.547215,-0.591545 2.211312,17.560785 5.431981,-1.103322 0.399526,0.626511 -0.174484,15.646731 5.00595,12.301574 0.835124,2.05222 -0.956203,0.0717 -11.727452,0.87955 -0.751808,-0.17988 -2.282626,-0.74952 -4.404657,-1.57305 -8.088815,1.68525 -11.749711,11.47645 -1.683786,3.99894 -9.8225404,5.57504 1.2357101,28.83571 10.5661003,-10.5661 v 7.32429 l 3.986025,10.53453 5.48912,4.80304 1.593525,7.05708 13.746156,16.39885 5.437712,16.31305 2.192156,8.08371 m 11.950945,-150.419247 -5.729099,2.126266 3.770854,5.913216 -0.183516,16.456669 1.418093,3.484806 8.136033,19.9934 -8.669937,0.65024 -16.836208,1.2627 -2.365992,-0.56612 -2.714974,-0.89148 -2.278543,-0.81375 -3.368185,0.70175 -8.777289,8.57315 -2.135214,5.07106 -7.84026,4.44996 0.19629,4.58049 0.585916,-0.58592 10.807184,-0.54039 v 15.82492 l 2.697175,7.12827 5.96788,5.22196 1.748075,7.74152 13.464244,16.06255 6.019288,18.05775 2.254844,8.31489 M 43.558137,74.735893 56.075474,73.159669 m -5.794573,19.552487 12.615404,0.140681 m -9.202733,13.872493 11.68568,-4.75532 m -13.404401,8.5285 0.943553,12.58086 m -8.120775,-12.35721 -3.935871,11.98653 m -8.650373,-13.04962 2.573254,12.35097 m -13.047509,-4.64431 8.815424,9.02533 m -16.885766,0.56443 6.227499,10.97207 M 4.9461702,141.49926 17.55079,140.9591 m 4.462769,10.10013 -8.920993,-8.92099 m 5.265772,22.34368 11.799753,-4.46476 m -3.577723,17.60032 12.306351,-2.77884 m -2.990842,17.29556 9.668659,-8.10465 m -0.691178,25.0026 11.968761,-3.98961"
   inkstitch:satin_column="true" /><g
   id="command_group2"
   inkscape:label="Ink/Stitch Command: Trim thread after sewing this object"
   transform="matrix(7.50002 0 0 -7.50002 0 1930)"><path
     id="command_connector2"
     d="M 22.178098,45.054341 32.944913,111.65408"
     style="fill:none;stroke:#000000;stroke-width:1px;stroke-opacity:0.5"
     inkscape:connection-start="#command_use2143"
     inkscape:connection-end="#path5"
     inkscape:label="connector"
     inkscape:connector-type="polyline"
     inkscape:connector-curvature="0" /><use
     id="command_use2143"
     xlink:href="#inkstitch_trim"
     height="100%"
     width="100%"
     x="22.175518085001908"
     y="45.01849405265242"
     inkscape:label="command marker" /></g><path
   id="path26"
   d="m 542.74608,812.59912 c -3.29935,3.29935 -6.5987,6.59869 -9.76058,9.76056 0.41242,17.73401 0.96231,35.468 1.37473,53.75187 8.38585,25.70742 17.32158,51.41484 26.11984,77.53469 -0.96232,17.32151 -1.92462,34.50565 -3.29935,52.37716 -7.01111,11.2728 -14.02222,22.408 -21.03334,33.5434 5.63638,4.674 11.27277,8.7982 16.35926,13.0599 33.68085,-40.692 33.68085,-40.692 48.5279,-48.528 28.45688,1.3748 56.50133,2.3371 84.54578,3.2994 6.04881,-6.5987 12.6475,-13.05987 19.10873,-19.65864 -7.42353,-26.11979 -14.98454,-52.23965 -22.40807,-77.94706 2.33704,-2.33704 4.26166,-4.67408 6.0488,-6.5987 -6.0488,-38.76733 -6.0488,-38.76733 -21.03334,-78.90939 -5.0865,-5.0865 -9.76057,-10.31046 -14.43464,-14.98454 -28.04446,-2.33704 -56.08891,-4.67408 -83.99589,-6.59869 -8.79826,3.29935 -17.734,6.59869 -26.11983,9.89804"
   style="display:none;stroke-width:1.37473" /><g
   id="command_group3"
   inkscape:label="Ink/Stitch Command: Trim thread after sewing this object"
   transform="matrix(7.50002 0 0 -7.50002 0 1930)"><path
     id="command_connector3"
     d="m 77.775606,87.333332 3.687305,36.057878"
     style="fill:none;stroke:#000000;stroke-width:1px;stroke-opacity:0.5"
     inkscape:connection-start="#command_use3952"
     inkscape:label="connector"
     inkscape:connector-type="polyline"
     inkscape:connector-curvature="0"
     inkscape:connection-end="#path26" /><use
     id="command_use3952"
     xlink:href="#inkstitch_trim"
     height="100%"
     width="100%"
     x="77.77302616575506"
     y="87.29748575986254"
     inkscape:label="command marker" /></g><path
   id="path32"
   d="m 367.05173,839.81725 c -7.42354,1.92462 -14.98454,4.26166 -22.82049,6.59869 0.96231,5.08649 1.92462,10.72288 3.29935,16.35927 25.70741,18.14641 51.82725,36.43029 77.94708,55.12659 0,4.26166 0,8.38585 0,13.05992 4.26166,0 8.38585,0 13.05992,0 -0.96231,-14.98453 -1.92462,-29.83159 -3.29935,-45.22855 -7.01111,-13.60981 -14.02222,-27.08215 -21.44576,-40.69196 -15.39696,-1.37472 -30.79391,-3.29934 -46.74075,-5.22396"
   style="display:none;stroke-width:1.37473" /><g
   id="command_group4"
   inkscape:label="Ink/Stitch Command: Trim thread after sewing this object"
   transform="matrix(7.50002 0 0 -7.50002 0 1930)"><path
     id="command_connector4"
     d="m 42.210683,107.01118 9.693116,31.36181"
     style="fill:none;stroke:#000000;stroke-width:1px;stroke-opacity:0.5"
     inkscape:connection-start="#command_use2245"
     inkscape:label="connector"
     inkscape:connector-type="polyline"
     inkscape:connector-curvature="0"
     inkscape:connection-end="#path32" /><use
     id="command_use2245"
     xlink:href="#inkstitch_trim"
     height="100%"
     width="100%"
     x="42.2081017028516"
     y="106.97533238040333"
     inkscape:label="command marker" /></g><path
   id="path42"
   d="m 1508.4926,1136.6226 c 0,2.337 0,4.6741 0,6.5986 8.9358,2.3371 17.734,4.6741 26.1198,6.5988 1.3748,-5.6364 2.3371,-11.2727 3.2993,-16.3593 -5.6363,-8.9357 -11.2727,-17.3216 -16.3591,-25.7074 -4.6741,-1.3747 -8.7983,-2.337 -13.06,-3.2994 0,10.7229 0,21.4458 0,32.1687"
   style="display:none;stroke-width:1.37473" /><g
   id="command_group5"
   inkscape:label="Ink/Stitch Command: Trim thread after sewing this object"
   transform="matrix(7.50002 0 0 -7.50002 0 1930)"><path
     id="command_connector5"
     d="m 197.96016,74.835881 4.72656,29.662069"
     style="fill:none;stroke:#000000;stroke-width:1px;stroke-opacity:0.5"
     inkscape:connection-start="#command_use3608"
     inkscape:label="connector"
     inkscape:connector-type="polyline"
     inkscape:connector-curvature="0"
     inkscape:connection-end="#path42" /><use
     id="command_use3608"
     xlink:href="#inkstitch_trim"
     height="100%"
     width="100%"
     x="197.9575772638248"
     y="74.8000301298492"
     inkscape:label="command marker" /></g><path
   style="display:none;fill:#000000;fill-opacity:1;stroke:none;stroke-width:9.89332;stroke-dasharray:none"
   d="m 433.28826,318.09136 c -0.73753,2.3395 -0.5762,11.13313 -4.79025,17.13794 -4.60857,6.56697 -5.11997,10.26961 -4.54215,23.70629 0.0142,0.32886 6.34185,-0.59881 14.09301,-0.59881 12.92937,0 14.4963,0.27363 18.97762,3.31919 l 4.88463,3.31918 v 39.03098 39.03097 l 24.86722,52.00086 24.86723,52.00093 v 10.14878 10.14878 l -6.26768,6.53709 c -3.44721,3.59535 -7.84672,6.93333 -9.77667,7.41778 -1.92994,0.4846 -16.63107,11.2502 -32.66916,23.92408 -16.0381,12.67388 -30.1276,23.7212 -31.31,24.5497 -1.1824,0.82851 -6.21872,10.62768 -11.19183,21.77589 l -9.04199,20.26964 7.17673,24.20493 c 3.94721,13.31267 7.3977,24.48411 7.66777,24.8254 0.27006,0.34105 8.75993,1.34809 18.86635,2.23743 l 18.3753,1.61688 21.7952,-15.86394 c 27.26329,-19.84397 27.32338,-19.89917 28.36215,-26.04761 0.47255,-2.79707 1.52691,-5.49825 2.343,-6.0026 0.8161,-0.50443 15.67924,-3.08181 33.02919,-5.72754 l 31.54539,-4.81043 12.57818,-9.33058 12.57817,-9.33059 h 20.41056 c 20.17429,0 20.50259,0.0476 28.3585,4.01206 4.37137,2.20666 8.18006,3.78 8.46377,3.4963 0.86727,-0.86729 -16.65919,-30.65747 -32.20366,-54.7374 -27.98913,-43.35792 -189.38918,-282.61255 -192.17832,-284.8794 -3.00667,-2.44364 -3.79631,-2.05129 -5.26826,2.61757 z"
   id="path2"
   sodipodi:nodetypes="ssssscccccccssssscssscsssscccscsssss" /><g
   id="command_group6"
   inkscape:label="Ink/Stitch Command: Trim thread after sewing this object"
   transform="matrix(7.50002 0 0 -7.50002 0 1930)"><path
     id="command_connector6"
     d="m 58.41197,130.92518 7.591607,32.84586"
     style="fill:none;stroke:#000000;stroke-width:1px;stroke-opacity:0.5"
     inkscape:connection-start="#command_use3195"
     inkscape:label="connector"
     inkscape:connector-type="polyline"
     inkscape:connector-curvature="0"
     inkscape:connection-end="#path2" /><use
     id="command_use3195"
     xlink:href="#inkstitch_trim"
     height="100%"
     width="100%"
     x="58.40938935427797"
     y="130.88932320143792"
     inkscape:label="command marker" /></g><path
   style="display:none;fill:#000000;fill-opacity:1;stroke:none;stroke-width:3.49781;stroke-dasharray:none"
   d="m 690.65327,1317.2462 -12.23968,1.5837 -32.64525,8.4979 c -38.41681,10.0001 -78.50423,20.3154 -94.41987,24.296 -6.23531,1.5595 -11.49608,2.9919 -11.6906,3.183 -0.19456,0.1912 10.69363,5.7314 24.1959,12.3116 l 24.54958,11.9641 1.99968,-1.9626 1.99967,-1.9625 23.54803,5.6275 c 26.83565,6.4131 22.97191,6.0651 38.35545,3.4546 15.22935,-2.5843 27.29331,-5.4768 43.72811,-10.4846 14.16368,-4.3157 16.41352,-4.9444 21.12695,-5.9038 8.0746,-1.6435 7.45382,-1.8358 15.96482,4.9432 4.07402,3.2449 7.77825,6.1668 8.23165,6.493 0.67202,0.4836 2.64301,0.4655 10.6638,-0.098 5.4117,-0.3802 9.89982,-0.7516 9.97361,-0.8254 0.26236,-0.2624 1.11201,-7.6349 1.61987,-14.0556 l 0.51561,-6.5193 -4.15958,-7.1313 -4.1596,-7.1313 -26.50709,-13.9977 c -14.57891,-7.6986 -26.93557,-13.968 -27.45925,-13.9319 -0.5237,0.036 -6.46001,0.7782 -13.19184,1.6493 z"
   id="path3" /><g
   id="command_group7"
   inkscape:label="Ink/Stitch Command: Trim thread after sewing this object"
   transform="matrix(7.50002 0 0 -7.50002 0 1930)"><path
     id="command_connector7"
     d="m 84.763505,42.611702 1.988235,30.07127"
     style="fill:none;stroke:#000000;stroke-width:1px;stroke-opacity:0.5"
     inkscape:connection-start="#command_use5058"
     inkscape:label="connector"
     inkscape:connector-type="polyline"
     inkscape:connector-curvature="0"
     inkscape:connection-end="#path3" /><use
     id="command_use5058"
     xlink:href="#inkstitch_trim"
     height="100%"
     width="100%"
     x="84.76092537752247"
     y="42.575856395515224"
     inkscape:label="command marker" /></g><path
   id="path20"
   style="display:inline;stroke-width:1.37473"
   class="st1"
   d="m 814.80669,1519.9037 c -15.5344,-1.3748 -30.3818,-2.3483 -45.36632,-3.3106 -19.65859,-13.06 -84.12805,-38.763 -106.94851,-55.1222 -5.22396,-11.6852 -10.31131,-22.8141 -14.98539,-34.087 -14.43463,-7.9734 -14.44249,-7.98 -66.26969,-11.2793 3.29935,-32.7185 3.30591,-32.7201 11.27932,-40.6935 15.80937,3.8492 31.75651,7.5675 47.15344,11.2793 51.8272,-6.5988 71.48765,-19.6582 87.8469,-19.6582 5.63638,4.674 11.26121,8.7902 16.34769,13.0518 6.87364,-0.4123 13.89453,-0.9645 20.49322,-1.377 0.96231,-7.0111 1.50653,-14.0241 1.91895,-21.0352 -2.74946,-5.0866 -5.62947,-9.7546 -8.37893,-14.4287 -17.73397,-9.3482 -35.46928,-18.6891 -53.20326,-28.0372 -8.93572,1.3748 -17.32222,2.3336 -25.70807,3.2959 v -13.0664 h -13.06643 c -3.29935,-12.6474 -3.30245,-12.6481 -16.36235,-25.7081 0,-58.2884 0.01,-58.2784 9.77053,-116.7044 11.27276,-1.9245 22.40409,-3.2982 33.67684,-4.6729 1.92463,-5.224 1.9236,-5.2348 -6.04982,-22.9688 -18.28387,-9.3481 -36.01127,-18.6913 -53.74525,-27.627 h -19.11625 c -7.83595,5.224 -15.3988,10.3113 -22.82233,14.9854 -3.29934,-8.3859 -3.30277,-8.3867 3.29591,-14.9854 -14.84704,1.7872 -14.83425,1.7825 -22.80767,9.7559 -2.33703,19.6586 -4.1252,39.3241 -6.04982,58.4328 -13.05991,58.2884 -13.05832,58.2869 -26.11823,83.9943 -2.33703,23.7828 -4.68184,47.7018 -6.60646,71.4846 -7.42352,18.6962 -14.98865,36.8382 -22.41217,55.1222 -7.561,2.7494 -14.56609,5.4986 -21.5772,8.9355 -17.73398,-1.9246 -17.73998,-1.9254 -43.44737,-14.9854 -14.57211,0.8249 -29.00035,1.7916 -43.02257,2.754 3.71177,-51.2774 3.71385,-51.2774 10.31253,-57.8762 2.33704,3.1619 4.66719,6.4565 6.59181,9.7559 5.0865,-0.4125 9.76933,-0.9499 14.4434,-1.3623 7.01111,-9.3481 14.00945,-18.7036 21.02056,-28.0518 v -116.7191 c 26.25727,-77.5347 26.26535,-77.5289 53.75989,-137.3294 -47.15313,-2.7495 -94.30944,-5.6442 -141.05015,-8.3936 -13.05989,4.674 -26.11237,8.8049 -38.75986,13.0665 v 9.7559 c -15.39694,-5.6365 -30.79195,-11.2612 -45.77648,-16.3477 -24.33266,-22.4081 -48.52885,-44.2741 -72.86151,-66.26974 -5.63638,-9.76051 -11.27586,-19.65362 -16.36234,-29.41413 -20.07101,-12.64752 -40.15112,-25.29997 -59.80972,-37.39756 -3.29933,-77.94701 -3.29488,-77.94725 2.75392,-115.75223 14.02221,7.42352 14.02716,7.42625 39.18466,37.80771 10.31044,0.96232 20.48064,1.50653 30.79109,1.91895 2.74946,-29.00673 5.62947,-57.45646 8.37893,-85.9133 6.46121,-17.32149 13.06745,-34.50475 19.11626,-51.8263 13.05991,-17.32155 26.12477,-34.50475 39.18466,-51.8263 6.04881,-26.25727 6.04824,-26.25604 32.16805,-71.48455 26.1198,-26.25727 26.11733,-26.25671 77.94453,-97.19262 25.70739,-58.42588 32.30986,-97.61812 42.07042,-123.3255 h 26.11822 c -1.37472,27.90694 -2.34823,55.94993 -3.31055,83.99435 15.53441,30.244 30.3818,60.6295 45.36632,91.01096 -1.37473,16.35926 -2.33361,32.72103 -3.2959,48.5304 -20.48343,16.35925 -40.9613,32.58355 -61.58219,48.53039 h -16.36234 c -9.76056,19.65859 -9.76365,19.65769 -16.36235,51.8263 4.67409,11.27276 8.80479,22.00182 13.06644,32.72469 14.43464,9.34813 14.43773,9.33452 16.36235,6.03517 13.0599,1.37474 26.11237,2.34825 38.75986,3.31055 16.35924,-12.09758 32.72104,-23.79342 48.53039,-35.4786 1.37474,-4.67406 2.3336,-8.79013 3.29591,-13.05179 21.85814,-3.16187 43.447,-6.45655 64.89273,-9.75588 8.79824,-6.46123 17.7324,-13.06746 26.11823,-19.11626 h 38.75986 c 6.5987,3.16188 13.05956,6.45655 19.65825,9.75588 12.64749,-0.9623 25.71461,-1.92119 38.77451,-3.2959 33.13091,-15.80936 66.67589,-32.17114 100.3567,-48.5304 33.68079,0 67.21787,0.002 100.89868,-0.41015 -0.96231,6.59869 -1.92118,13.05955 -3.29591,19.65825 -16.77166,10.31045 -33.67768,20.62487 -50.44934,31.34773 -4.67407,6.46122 -9.35691,13.46745 -14.44339,20.47857 -16.77168,12.64748 -33.67769,25.16022 -50.44935,37.80771 v 42.07041 c 4.67407,0.41242 9.89891,0.96455 14.98539,1.37696 4.26166,-4.12418 8.37998,-8.39237 12.64164,-13.06644 h 51.84094 c 8.79825,4.67407 18.14705,9.8989 27.49519,14.98539 11.68518,26.66969 23.36636,53.74816 35.46395,80.83028 4.67408,1.37472 9.89891,2.74824 14.98539,4.67286 -16.35924,-51.82721 -16.36234,-51.82699 -16.36234,-77.53437 13.0599,-19.65859 13.06143,-19.66018 42.48057,-42.48057 h 32.16809 c 2.337,2.74944 5.2193,5.64411 7.9687,8.39357 0.5499,54.16418 0.9713,108.87101 1.9336,163.44767 2.3371,7.0111 5.2193,14.02184 7.9688,21.44536 4.674,0.41242 9.8989,0.96454 14.9854,1.37696 4.6741,-4.67406 9.3446,-9.34226 14.0186,-14.42875 9.3481,-21.99562 18.7036,-44.40364 28.0518,-66.81168 25.7074,-25.70739 25.7,-25.70649 38.7599,-51.8263 9.7605,-7.42353 19.6534,-14.98864 29.4141,-22.41217 58.0134,0 58.0155,0.008 77.1242,6.60646 1.3747,2.33704 2.7482,5.21933 4.6729,7.96877 -11.2728,28.45686 -22.4041,56.90656 -33.6769,85.9133 -0.9623,10.72286 -1.9211,21.44518 -3.2959,32.16805 64.8872,-35.46796 64.8853,-35.45585 103.6526,-48.51575 h 45.2345 c 13.0598,13.0599 42.4735,61.58185 61.5822,81.24044 7.0111,-8.79824 14.024,-18.14706 21.0352,-27.49519 13.6098,-0.5499 27.2212,-0.95665 40.6935,-1.91895 84.5457,26.11981 84.5439,26.11011 103.6526,39.17002 h 32.71 c 10.7228,-4.12418 21.4598,-8.37771 32.1827,-13.05179 h 149.4291 c -13.0599,1.92462 -26.1247,4.25478 -39.1847,6.59181 -11.1353,8.79826 -22.4017,18.14701 -34.087,27.49519 -11.1353,35.05552 -22.2723,70.11826 -33.545,105.58616 -1.9247,34.5057 -4.2695,69.1469 -6.6065,103.6526 -20.4834,33.1308 -41.0987,66.6761 -61.5821,100.3567 -36.9801,3.1619 -73.8287,6.4565 -110.2591,9.7559 -48.9403,-32.1687 -48.9379,-32.163 -77.9445,-61.5822 -9.3482,-2.8869 -18.689,-5.6463 -28.0372,-7.9834 -2.7494,-5.2239 -5.0898,-10.3113 -7.4268,-14.9854 1.3747,-15.3969 2.3336,-30.2352 3.2959,-45.2198 23.7828,-1.3747 47.5722,-2.3336 70.9426,-3.2959 9.2107,-5.0864 18.5594,-9.7693 27.4952,-14.4434 8.3858,4.6741 8.3755,4.6794 11.6748,17.7393 h 12.6563 v -6.6065 c 8.7982,2.3371 17.7323,4.6819 26.1182,6.6065 1.3747,-5.6364 2.3337,-11.276 3.2959,-16.3624 -5.6363,-8.9358 -11.2759,-17.3222 -16.3623,-25.708 -4.6741,-1.3747 -8.7902,-2.3336 -13.0518,-3.2959 v 32.168 c -3.8493,-11.2727 -7.5675,-22.4039 -11.2793,-33.6768 -7.9734,-8.3857 -7.9741,-8.3884 -94.3069,-48.5304 -3.162,-7.836 -6.4566,-15.3987 -9.7559,-22.8223 -91.9693,-8.3857 -91.9775,-8.3888 -113.4231,-16.3624 -2.8869,-7.011 -5.6318,-14.0241 -7.9688,-21.0352 -6.4613,6.4612 -13.0529,13.0674 -19.1016,19.1163 -6.5988,29.4191 -6.6099,29.4159 -3.3106,52.2364 37.3927,8.3858 74.7935,16.3577 111.6361,24.3311 5.2239,7.0111 10.3113,14.0242 14.9853,21.0352 0,25.57 -0.01,25.5624 -8.3935,40.547 -5.0866,0.4124 -9.7547,0.9646 -14.4288,1.377 -8.9357,-6.5987 -17.3223,-13.0596 -25.7081,-19.6583 -9.3481,0.9623 -18.7037,1.5211 -28.0518,1.9336 l -14.4287,14.4288 c -3.1618,-6.5988 -6.4566,-13.0597 -9.7559,-19.6583 -12.6475,-2.887 -12.6469,-2.8936 -98.9797,-69.1554 -5.0866,6.0489 -9.7718,11.6927 -14.0333,17.3291 -0.9624,22.4081 -1.5065,44.816 -1.9189,66.8117 -15.9468,2.8869 -31.3464,5.6317 -46.7433,7.9688 l -13.0518,13.0664 c -5.0865,-0.4125 -9.7693,-0.9645 -14.4434,-1.3769 -7.9734,-21.4458 -7.9688,-21.4445 -7.9688,-73.2717 15.3969,-19.6586 30.25,-39.3241 45.2345,-58.4328 -1.3747,-23.9203 -2.3482,-47.70176 -3.3105,-71.48452 h -19.6583 c -3.2994,13.05992 -15.9444,26.1175 -76.1574,125.09792 -14.5721,7.9734 -14.5736,7.9835 -40.69346,7.9835 -9.21066,-5.0865 -18.55947,-9.7693 -27.49518,-14.4434 -0.41242,-41.9292 -0.96454,-83.5812 -1.37696,-125.098 -13.05991,-38.76726 -13.04712,-38.76549 -22.80767,-103.6526 -38.62982,-15.94681 -38.64301,-15.9506 -84.009,-42.07042 -14.02221,0.9623 -27.49382,1.52118 -41.10362,1.9336 -0.41242,13.47232 -0.94988,27.07692 -1.3623,40.13682 7.97342,14.98452 7.97218,14.98328 71.48455,71.48455 -0.9623,11.68518 -1.52118,22.82888 -1.9336,34.10165 -19.1087,11.68517 -37.80288,22.81426 -56.49916,34.08699 -35.46795,0 -55.12289,6.59182 -80.83028,6.59182 l -13.06644,-13.05179 c -6.59869,1.37477 -13.05956,2.33358 -19.65825,3.2959 -7.42352,-26.11976 -14.97399,-52.23713 -22.39752,-77.94452 2.33703,-2.33703 4.11055,-4.6672 6.03517,-6.59182 -6.04879,-38.76729 -6.03603,-38.76929 -21.02055,-78.91132 -5.08649,-5.22396 -9.76932,-10.31132 -14.4434,-14.98539 -27.90695,-2.33704 -55.94992,-4.68184 -83.99435,-6.60646 -8.79826,3.16187 -17.73239,6.47119 -26.11822,9.77053 0,-3.29934 0.002,-3.29934 -26.11823,0 1.37473,19.6586 2.33358,39.30941 3.2959,58.41811 8.79824,27.90695 17.7324,55.94996 26.11823,83.99435 v 39.18467 c -6.59869,19.10863 -6.59834,19.10803 -19.65825,32.16803 -1.37472,6.5986 -2.3336,13.0596 -3.29591,19.6583 4.67408,-2.3371 8.80478,-4.6819 13.06644,-6.6065 5.63638,4.674 11.2612,8.8048 16.3477,13.0664 33.54333,-40.5544 33.54587,-40.557 48.53039,-48.5304 28.45684,1.5123 56.50656,2.3337 84.55099,3.296 -4.67408,2.3371 -8.80479,4.1251 -13.06644,6.0498 1.92462,14.0223 3.29814,27.6312 4.67287,41.1036 27.49453,14.5721 60.21376,40.145 152.18299,93.8967 1.78713,7.0111 3.72294,14.024 5.09767,21.0352 -13.05991,2.337 -26.12703,4.6819 -38.77451,6.6065 v 19.1016 c 8.93572,-1.3747 17.32224,-2.3335 25.70807,-3.2959 15.39694,-8.9357 30.24996,-17.3224 45.23448,-25.7081 h 84.53634 c 26.11982,-13.06 26.12703,-13.0664 38.77451,-13.0664 -16.35925,14.0222 -32.72103,28.0482 -48.53039,42.0704 -13.0599,26.1199 -13.05957,26.1255 -19.65825,64.8927 1.37473,43.4414 2.33359,86.7419 3.29591,129.7708 h 13.06643 c -4.67407,2.337 -8.80479,4.6673 -13.06643,6.5919 -5.0865,1.7871 -9.75469,3.7228 -14.42875,5.0976 -14.84705,27.632 -29.4229,55.1252 -43.85753,82.2073 -15.80936,8.3859 -31.75648,16.7678 -47.15344,24.7412 -1.92462,3.8493 -3.29813,7.5676 -4.67286,11.2794 z m -392.77803,-601.66314 14.23609,-4.32582 -20.41531,-68.0776 -48.89298,-5.57025 -22.27936,5.56856 1.8588,15.48249 z"
   sodipodi:nodetypes="ccccccccccccccccccccccccccccccccccccccccccccccccccccccccccccccccccccccccccccccccccccccccccccccccccccccccccccccccccccccccccccccccccccccccccccccccccccccccccccccccccccccccccccccccccccccccccccccccccccccccccccccccc" /><g
   id="command_group8"
   inkscape:label="Ink/Stitch Command: Trim thread after sewing this object"
   transform="matrix(7.50002 0 0 -7.50002 0 1930)"><path
     id="command_connector8"
     d="m 103.51719,25.009823 7.14973,31.902601"
     style="fill:none;stroke:#000000;stroke-width:1px;stroke-opacity:0.5"
     inkscape:connection-start="#command_use4915"
     inkscape:connection-end="#path20"
     inkscape:label="connector"
     inkscape:connector-type="polyline"
     inkscape:connector-curvature="0" /><use
     id="command_use4915"
     xlink:href="#inkstitch_trim"
     height="100%"
     width="100%"
     x="103.51461360468973"
     y="24.9739756524787"
     inkscape:label="command marker" /></g><path
   id="path18"
   class="st1"
   d="m 633.34065,365.26265 c -5.63637,10.72288 -10.72287,21.44576 -15.94684,32.16864 0,26.11984 0,26.11984 7.97343,40.69196 67.77409,33.13094 135.41071,66.26189 202.63492,98.98042 15.39696,4.26166 30.38149,8.38584 45.22855,12.6475 56.50134,30.38149 112.59024,60.76298 168.54169,91.007 36.8428,8.93574 73.8229,17.32158 110.6656,25.70741 38.7673,17.734 77.5346,35.05558 116.302,52.37715 23.7828,4.26166 47.703,8.38585 70.936,12.6475 91.007,26.11976 91.007,26.11976 149.433,51.82718 49.9025,8.93574 99.3928,17.73399 148.883,26.11983 26.1198,13.05992 26.1198,13.05992 152.7322,51.82726 3.2995,-2.33704 6.5988,-4.67408 9.3482,-6.5987 -30.3814,-19.65862 -60.763,-39.17975 -90.5946,-58.42595 -39.1797,-17.32157 -77.947,-34.50567 -116.7143,-51.82724 -97.1934,-25.70735 -97.1934,-25.70735 -162.0805,-51.82719 -8.9357,-8.93573 -17.734,-17.73399 -26.1199,-26.11984 -51.8272,-13.05991 -103.6545,-26.11983 -155.4818,-38.76733 -51.8271,-25.70742 -51.8271,-25.70742 -174.5904,-103.65449 -13.6098,-5.08651 -27.0821,-9.76058 -40.6919,-14.43465 -6.0488,-8.38585 -12.0976,-16.77168 -17.734,-24.74511 0,-2.74945 0,-6.0488 0,-9.34815 -71.48589,-22.82049 -139.12252,-38.21744 -162.08048,-49.07779 0,-2.74946 0,-6.04881 0,-9.34816 -18.69631,-2.33703 -37.80502,-5.08649 -56.91374,-7.97342 -13.47234,-7.01111 -27.08214,-14.02222 -40.69196,-21.44575 -1.92461,-4.26167 -3.71176,-8.38585 -5.63638,-13.05992 -10.31047,0 -10.31047,0 -26.66972,-15.80937 -19.10873,-0.96232 -38.76734,-1.92462 -58.42595,-3.29936 -4.26166,4.26166 -8.38584,8.38585 -13.05992,13.05992 -6.18628,-0.96231 -12.64749,-1.92462 -19.2462,-3.29935"
   style="stroke-width:1.37473" /><g
   id="command_group9"
   inkscape:label="Ink/Stitch Command: Trim thread after sewing this object"
   transform="matrix(7.50002 0 0 -7.50002 0 1930)"><path
     id="command_connector9"
     d="m 140.81485,140.69223 15.27721,26.66897"
     style="fill:none;stroke:#000000;stroke-width:1px;stroke-opacity:0.5"
     inkscape:connection-start="#command_use7393"
     inkscape:connection-end="#path18"
     inkscape:label="connector"
     inkscape:connector-type="polyline"
     inkscape:connector-curvature="0" /><use
     id="command_use7393"
     xlink:href="#inkstitch_trim"
     height="100%"
     width="100%"
     x="140.81227145504948"
     y="140.65638553311086"
     inkscape:label="command marker" /></g><path
   id="path16"
   class="st0"
   d="m 1016.2024,484.72653 c 5.6364,7.97342 11.6852,16.35927 17.734,24.7451 13.6098,4.67408 27.0822,9.34816 40.6919,14.43465 122.7634,77.94709 122.7634,77.94709 174.5905,103.6545 51.8273,12.6475 103.6545,25.70742 155.4818,38.76734 8.3859,8.38583 17.3216,17.32157 26.1198,26.11983 64.8872,26.11983 64.8872,26.11983 162.0805,51.82718 38.7674,17.32157 77.5347,34.50568 116.7144,51.82725 29.8316,19.10872 60.2131,38.76734 90.5946,58.42595 -2.7494,1.92461 -6.0488,4.26165 -9.3482,6.59869 -126.6125,-38.76734 -126.6125,-38.76734 -152.7322,-51.82725 -49.4902,-8.38584 -98.9805,-17.32158 -148.8831,-26.11983 -58.426,-25.70741 -58.426,-25.70741 -149.4329,-51.82719 -23.3705,-4.26165 -47.1533,-8.38584 -70.9361,-12.64749 -38.7673,-17.32158 -77.5346,-34.50568 -116.3019,-52.37714 -36.8428,-8.38585 -73.8229,-16.77169 -110.6656,-25.70742 -56.08895,-30.38149 -112.04039,-60.76299 -168.54171,-91.007 -14.98454,-4.26166 -29.8316,-8.38585 -45.22855,-12.6475 -67.22421,-32.71853 -134.99831,-65.84947 -202.63494,-98.98043 -7.97342,-14.43464 -7.97342,-14.43464 -7.97342,-40.69195 5.0865,-10.72288 10.31046,-21.44575 15.94685,-32.16864 -183.25126,-56.91374 -183.25126,-56.91374 -197.68591,-56.91374 207.30901,306.42689 207.30901,306.42689 230.26697,348.906 12.6475,-0.96232 25.70742,-1.92462 38.76733,-3.29935 33.13095,-15.80938 66.81179,-32.16864 100.35516,-48.5279 33.68083,0 67.2242,0 100.90503,-0.41242 -0.9623,6.59869 -1.92461,13.05991 -3.29934,19.65861 -16.77168,10.31046 -33.68084,20.48345 -50.45253,31.3438 -4.67407,6.59869 -9.34814,13.47234 -14.43464,20.48345 -16.77168,12.6475 -33.68084,25.15753 -50.45251,37.80503 0,14.02222 0,28.04438 0,42.06661 4.67407,0.41242 9.76056,0.9623 14.98453,1.37472 4.26166,-4.26165 8.38583,-8.38584 12.6475,-13.05992 17.32157,0 34.50567,0 51.82724,0 8.93574,4.67408 18.28389,9.76058 27.49457,14.98454 11.68518,26.66973 23.37038,53.75187 35.46798,80.83402 4.67408,1.37472 9.76058,2.74945 14.98454,4.67407 -16.35926,-51.82725 -16.35926,-51.82725 -16.35926,-77.53467 13.05992,-19.6586 13.05992,-19.6586 42.47909,-42.47903 10.72288,0 21.44577,0 32.16862,0 2.3371,2.74946 5.0865,5.63639 7.9735,8.38585 0.4124,54.16421 0.9623,108.74092 1.9246,163.4551 2.337,7.01112 5.0865,14.02223 7.9734,21.44577 4.6741,0.41241 9.7606,0.9623 14.9845,1.37472 4.6741,-4.67408 9.3482,-9.34815 14.0223,-14.43464 9.3481,-21.99566 18.6963,-44.40372 28.0444,-66.81179 25.7074,-25.70742 25.7074,-25.70742 38.7674,-51.82725 9.7605,-7.42353 19.6586,-14.98454 29.4191,-22.40807 57.8761,0 57.8761,0 77.1223,6.5987 1.3747,2.33703 2.7494,5.08649 4.6741,7.97342 -11.2728,28.45687 -22.4082,56.91375 -33.6809,85.9205 -0.9622,10.72288 -1.9246,21.44576 -3.2993,32.16864 64.8872,-35.46798 64.8872,-35.46798 103.6545,-48.5279 14.9845,0 29.8315,0 45.2285,0 13.0599,13.05992 42.4792,61.58782 61.5879,81.24643 7.011,-8.93573 14.0221,-18.28389 21.0333,-27.49456 13.6098,-0.41242 27.0822,-0.96231 40.6919,-1.92461 84.5458,26.11982 84.5458,26.11982 103.6545,39.17974 10.7229,0 21.4458,0 32.7186,0 10.7228,-4.26166 21.4457,-8.38584 32.1686,-13.05992 49.4902,0 99.3928,0 149.433,0 -13.06,1.92463 -26.1199,4.26167 -39.1798,6.5987 -11.2727,8.93573 -22.4081,18.14647 -34.0933,27.49455 -11.2727,35.05555 -22.408,70.11122 -33.5433,105.57922 -1.9247,34.5056 -4.2617,69.1487 -6.5987,103.6545 -20.4834,33.1309 -41.1044,66.8118 -61.5878,100.3551 4.674,-2.337 9.3481,-5.0864 14.4346,-7.9734 17.734,-25.1575 35.4679,-50.865 53.7519,-76.5723 3.2993,-9.7606 7.0111,-20.0711 10.7228,-30.3816 1.9247,-32.1685 4.2617,-64.4747 6.5987,-97.1932 3.2994,-5.0866 7.0112,-10.3104 10.723,-15.397 153.6946,-46.19091 307.2517,-92.51922 461.3587,-139.12252 -129.7743,-55.1266 -142.4218,-55.1266 -181.6016,-74.23533 -12.6475,0 -19.1087,-6.59869 -181.6016,-64.88716 -12.6475,0 -265.7349,-97.60563 -278.7949,-97.60563 0,-24.7451 0,-49.49021 0,-74.23532 1.9247,-107.91615 4.2617,-216.24473 6.5988,-324.57331 0,-21.44576 0,-43.02899 0,-64.88717 0,-64.47475 0,-129.361919 0,-194.2490775 C 1384.0797,175.4127 1239.8707,342.57964 1096.0741,509.74658 c -21.0333,1.37473 -21.0333,1.37473 -47.1531,-5.08649 -11.1353,-6.87364 -21.8582,-13.33487 -32.7186,-19.93356"
   style="fill:#ffffff;stroke-width:1.37473" />
		
		
		<g
   id="command_group10"
   inkscape:label="Ink/Stitch Command: Trim thread after sewing this object"
   transform="matrix(7.50002 0 0 -7.50002 0 1930)"><path
     id="command_connector10"
     d="m 187.687,103.44606 -8.39064,40.05492"
     style="fill:none;stroke:#000000;stroke-width:1px;stroke-opacity:0.5"
     inkscape:connection-start="#command_use5430"
     inkscape:connection-end="#path16"
     inkscape:label="connector"
     inkscape:connector-type="polyline"
     inkscape:connector-curvature="0" /><use
     id="command_use5430"
     xlink:href="#inkstitch_trim"
     height="100%"
     width="100%"
     x="187.68441184187606"
     y="103.41021361156248"
     inkscape:label="command marker" /></g><path
   id="path22"
   class="st0"
   d="m 452.15149,358.66396 c -1.37473,28.04445 -2.33704,56.08891 -3.29935,83.99589 15.39696,30.38149 30.38149,60.76298 45.36603,91.007 -1.37473,16.35927 -2.33704,32.71852 -3.29934,48.52791 10.31046,-3.71177 10.31046,-3.71177 20.07102,-15.39697 0,-6.04879 0.41242,-12.0976 0.96232,-18.69629 -16.77169,-35.05558 -33.68084,-70.11114 -50.45253,-105.57912 0,-25.70742 0,-51.41484 0,-77.53467 -2.74946,-1.64968 -6.04881,-3.98671 -9.34815,-6.32375"
   style="stroke-width:1.37473;fill:#ffffff;stroke:none" />
		<g
   id="command_group11"
   inkscape:label="Ink/Stitch Command: Trim thread after sewing this object"
   transform="matrix(7.50002 0 0 -7.50002 0 1930)"><path
     id="command_connector11"
     d="m 60.232587,150.23473 3.475166,40.35937"
     style="fill:none;stroke:#000000;stroke-width:1px;stroke-opacity:0.5"
     inkscape:connection-start="#command_use9589"
     inkscape:connection-end="#path22"
     inkscape:label="connector"
     inkscape:connector-type="polyline"
     inkscape:connector-curvature="0" /><use
     id="command_use9589"
     xlink:href="#inkstitch_trim"
     height="100%"
     width="100%"
     x="60.2300089539169"
     y="150.1988904014383"
     inkscape:label="command marker" /></g><path
   id="path24"
   class="st0"
   d="m 426.03166,721.59219 c -4.67408,-16.35927 -9.76057,-33.13095 -14.98454,-49.90264 6.0488,-13.6098 12.0976,-27.08214 18.14641,-40.69195 -5.63639,0 -11.1353,0 -16.35927,0 -9.76056,19.65861 -9.76056,19.65861 -16.35926,51.82725 4.67408,11.27277 8.93573,21.99565 13.05992,32.71853 14.57212,9.21068 14.57212,9.21068 16.49674,6.04881"
   style="stroke-width:1.37473;fill:#ffffff;stroke:none" />
		
		<g
   id="command_group12"
   inkscape:label="Ink/Stitch Command: Trim thread after sewing this object"
   transform="matrix(7.50002 0 0 -7.50002 0 1930)"><path
     id="command_connector12"
     d="m 48.253915,132.43502 5.977345,30.4551"
     style="fill:none;stroke:#000000;stroke-width:1px;stroke-opacity:0.5"
     inkscape:connection-start="#command_use7661"
     inkscape:connection-end="#path24"
     inkscape:label="connector"
     inkscape:connector-type="polyline"
     inkscape:connector-curvature="0" /><use
     id="command_use7661"
     xlink:href="#inkstitch_trim"
     height="100%"
     width="100%"
     x="48.251333392016676"
     y="132.39916576216015"
     inkscape:label="command marker" /></g><path
   id="path28"
   class="st0"
   d="m 536.14738,1039.5668 c 7.01112,-11.2728 14.02223,-22.4081 21.03334,-33.5434 1.37473,-17.73403 2.33703,-35.05565 3.29935,-52.23968 -8.93574,-26.11986 -17.73399,-51.82727 -26.11984,-77.53469 -0.41242,-18.14641 -0.96231,-36.01788 -1.37473,-53.75187 3.29935,-3.29935 6.5987,-6.59869 9.76058,-9.76057 0,-3.29935 0,-3.29935 -26.11984,0 1.37472,19.65861 2.33704,39.17976 3.29934,58.42595 8.93574,28.04445 17.73399,56.0889 26.11984,83.99584 0,13.05995 0,26.1199 0,39.17985 -6.59869,19.10867 -6.59869,19.10867 -19.65861,32.16867 -1.37473,6.5986 -2.33704,13.0599 -3.29935,19.6586 4.67408,-2.4745 8.93574,-4.8116 13.05992,-6.5987"
   style="stroke-width:1.37473;fill:#ffffff;stroke:none" />
		<g
   id="command_group13"
   inkscape:label="Ink/Stitch Command: Trim thread after sewing this object"
   transform="matrix(7.50002 0 0 -7.50002 0 1930)"><path
     id="command_connector13"
     d="m 68.609285,87.908779 2.133086,30.460791"
     style="fill:none;stroke:#000000;stroke-width:1px;stroke-opacity:0.5"
     inkscape:connection-start="#command_use6054"
     inkscape:connection-end="#path28"
     inkscape:label="connector"
     inkscape:connector-type="polyline"
     inkscape:connector-curvature="0" /><use
     id="command_use6054"
     xlink:href="#inkstitch_trim"
     height="100%"
     width="100%"
     x="68.60670187189008"
     y="87.87293392848909"
     inkscape:label="command marker" /></g><path
   id="path30"
   class="st0"
   d="m 704.82652,987.73946 c -6.5987,6.59877 -13.05991,13.05994 -19.10872,19.65864 -4.67407,2.3371 -8.93574,4.2616 -13.05992,6.0488 1.92462,14.0223 3.29935,27.4946 4.67408,41.1044 27.49456,14.4347 60.21309,40.1421 152.1824,93.8939 1.92462,7.0111 3.71177,14.0222 5.08649,21.0334 -13.05991,2.337 -26.11983,4.6741 -38.76733,6.5987 0,6.5986 0,13.0599 0,19.1087 8.93574,-1.3747 17.32157,-2.337 25.70742,-3.2993 15.39695,-8.7983 30.38149,-17.3217 45.22856,-25.7074 28.45687,0 56.50132,0 84.54577,0 26.11984,-13.06 26.11984,-13.06 38.76734,-13.06 -16.35927,14.0222 -32.71853,28.0445 -48.5279,42.0667 -13.05992,26.1199 -13.05992,26.1199 -19.65862,64.8872 1.37473,43.4414 2.33703,86.8828 3.29935,129.7743 4.67407,0 8.93573,0 13.05992,0 -1.92462,-121.3884 -1.92462,-121.3884 2.74945,-136.7854 41.10437,-9.3482 82.20879,-18.6964 123.72549,-28.4569 133.4861,176.9275 267.5221,354.4049 401.5582,531.8823 9.7605,-158.7811 19.6586,-317.5621 29.4191,-476.7557 -49.0778,-32.1686 -49.0778,-32.1686 -77.947,-61.5879 -9.3482,-2.7494 -18.6963,-5.6363 -28.0445,-7.9734 -2.7494,-5.0864 -5.0865,-10.3104 -7.4235,-14.9845 1.3746,-15.397 2.337,-30.3815 3.2993,-45.2285 23.7828,-1.3748 47.5656,-2.3371 70.936,-3.2994 9.3482,-5.0865 18.6962,-9.7606 27.4945,-14.4347 8.3859,4.6741 8.3859,4.6741 11.6852,17.7341 4.2617,0 8.3859,0 12.6475,0 0,-2.3371 0,-4.6741 0,-6.5988 0,-1.9245 0,-4.2616 0,-6.5986 -3.7117,-11.2728 -7.4235,-22.4081 -11.2727,-33.6808 -7.9734,-8.3859 -7.9734,-8.3859 -94.3064,-48.528 -3.2994,-7.9734 -6.5987,-15.3969 -9.7606,-22.8204 -91.9693,-8.3859 -91.9693,-8.3859 -113.415,-16.3594 -2.7495,-7.0111 -5.6364,-14.0222 -7.9734,-21.03327 -6.5988,6.59867 -13.06,13.05987 -19.1087,19.10867 -6.5988,29.4193 -6.5988,29.4193 -3.2995,52.2397 37.3927,8.3859 74.6479,16.3593 111.628,24.3327 5.0865,7.0111 10.3105,14.0222 14.9845,21.0334 0,25.7074 0,25.7074 -8.3858,40.5544 -5.0865,0.4124 -9.7606,0.9623 -14.4347,1.3748 -8.7983,-6.5987 -17.3215,-13.06 -25.7073,-19.6586 -9.3482,0.9623 -18.6964,1.3747 -28.0445,1.9245 -5.0865,5.0865 -9.7606,9.7606 -14.4347,14.4347 -3.2993,-6.5987 -6.5987,-13.0599 -9.7605,-19.6586 -12.6475,-2.7495 -12.6475,-2.7495 -98.9805,-69.1488 -5.0865,6.0488 -9.7606,11.6851 -14.0222,17.3216 -0.9623,22.408 -1.3747,44.816 -1.9246,66.8117 -15.8094,2.7495 -31.3438,5.6364 -46.7407,7.9735 -4.6741,4.6741 -8.9358,8.7983 -13.06,13.0599 -5.0865,-0.4124 -9.7605,-0.9623 -14.4346,-1.3747 -7.9734,-21.4459 -7.9734,-21.4459 -7.9734,-73.2731 15.3969,-19.6586 30.3814,-39.1798 45.2285,-58.4259 -1.3747,-23.7828 -2.337,-47.70311 -3.2994,-71.48591 -6.5986,0 -13.0599,0 -19.6586,0 -3.2993,13.05995 -15.9468,26.1198 -76.1599,125.10031 -14.4347,7.9734 -14.4347,7.9734 -40.69196,7.9734 -9.34815,-5.0865 -18.69631,-9.7606 -27.49457,-14.4347 -0.41241,-42.0666 -0.9623,-83.58345 -1.37472,-125.10019 -13.05992,-38.76739 -13.05992,-38.76739 -22.82049,-103.65456 -38.76733,-15.80937 -38.76733,-15.80937 -83.99589,-42.06668 -14.02222,0.96231 -27.49456,1.37473 -41.10437,1.92463 -0.41242,13.6098 -0.9623,27.08213 -1.37472,40.14205 7.97341,14.98454 7.97341,14.98454 71.48586,71.48586 -0.96232,11.6852 -1.37473,22.82049 -1.92462,34.09326 -19.10872,11.68519 -37.80503,22.82047 -56.50133,34.09322 -35.46799,0 -55.1266,6.59877 -80.83401,6.59877 -4.67408,-4.6741 -8.93573,-8.79829 -13.05992,-13.05995 -6.46122,1.23729 -13.05992,2.19952 -19.52114,3.16185"
   style="fill:#ffffff;stroke-width:1.37473" />
		
		<g
   id="command_group14"
   inkscape:label="Ink/Stitch Command: Trim thread after sewing this object"
   transform="matrix(7.50002 0 0 -7.50002 0 1930)"><path
     id="command_connector14"
     d="M 156.51213,25.032538 145.40048,86.280619"
     style="fill:none;stroke:#000000;stroke-width:1px;stroke-opacity:0.5"
     inkscape:connection-start="#command_use9449"
     inkscape:connection-end="#path30"
     inkscape:label="connector"
     inkscape:connector-type="polyline"
     inkscape:connector-curvature="0" /><use
     id="command_use9449"
     xlink:href="#inkstitch_trim"
     height="100%"
     width="100%"
     x="156.50955224525714"
     y="24.9966901945929"
     inkscape:label="command marker" /></g><path
   id="path34"
   class="st0"
   d="m 789.3723,909.7924 c -4.67408,3.71177 -9.76057,7.42353 -14.98453,11.68519 -1.37474,14.43464 -1.37474,14.43464 6.59869,22.82048 7.01111,0.41242 14.02222,0.96231 21.44576,1.37473 7.42353,-7.97342 7.42353,-7.97342 12.6475,-36.01787 -8.52332,0.13747 -16.90916,0.13747 -25.70742,0.13747"
   style="stroke-width:1.37473;fill:#ffffff;stroke:none" />
		<g
   id="command_group15"
   inkscape:label="Ink/Stitch Command: Trim thread after sewing this object"
   transform="matrix(7.50002 0 0 -7.50002 0 1930)"><path
     id="command_connector15"
     d="m 102.81524,101.48571 2.87923,29.83881"
     style="fill:none;stroke:#000000;stroke-width:1px;stroke-opacity:0.5"
     inkscape:connection-start="#command_use2989"
     inkscape:connection-end="#path34"
     inkscape:label="connector"
     inkscape:connector-type="polyline"
     inkscape:connector-curvature="0" /><use
     id="command_use2989"
     xlink:href="#inkstitch_trim"
     height="100%"
     width="100%"
     x="102.8126568594151"
     y="101.44985782471849"
     inkscape:label="command marker" /></g><path
   id="path36"
   class="st0"
   d="m 1294.5849,955.02101 c -4.6741,3.71176 -9.7606,7.42352 -14.9845,11.68518 0,5.08642 0,10.72285 0,16.35918 21.4457,7.97342 21.4457,7.97342 55.1266,6.59876 -0.4124,-9.34819 -0.9624,-18.69638 -1.3748,-28.04446 -12.6475,-1.92467 -25.7073,-4.26167 -38.7673,-6.59866"
   style="stroke-width:1.37473;fill:#ffffff;stroke:none" />
		<g
   id="command_group16"
   inkscape:label="Ink/Stitch Command: Trim thread after sewing this object"
   transform="matrix(7.50002 0 0 -7.50002 0 1930)"><path
     id="command_connector16"
     d="m 170.44266,96.100323 3.56213,29.217887"
     style="fill:none;stroke:#000000;stroke-width:1px;stroke-opacity:0.5"
     inkscape:connection-start="#command_use3990"
     inkscape:connection-end="#path36"
     inkscape:label="connector"
     inkscape:connector-type="polyline"
     inkscape:connector-curvature="0" /><use
     id="command_use3990"
     xlink:href="#inkstitch_trim"
     height="100%"
     width="100%"
     x="170.44008564157068"
     y="96.06447461277385"
     inkscape:label="command marker" /></g><path
   id="path38"
   class="st0"
   d="m 1482.7851,968.08085 c -4.6739,3.71176 -9.7605,7.42352 -14.9845,11.68519 0.4125,17.73404 0.9624,35.46796 1.9247,53.20206 19.6586,9.7606 19.6586,9.7606 71.4859,19.6586 -0.9624,-17.3215 -1.9247,-34.5057 -3.2995,-51.8273 -4.674,-7.01108 -9.7605,-14.02227 -14.9845,-21.03336 -13.0599,-3.71176 -26.6697,-7.42352 -40.1421,-11.68519"
   style="stroke-width:1.37473;fill:#ffffff;stroke:none" />
		<g
   id="command_group17"
   inkscape:label="Ink/Stitch Command: Trim thread after sewing this object"
   transform="matrix(7.50002 0 0 -7.50002 0 1930)"><path
     id="command_connector17"
     d="m 193.90256,89.093708 5.80463,29.055222"
     style="fill:none;stroke:#000000;stroke-width:1px;stroke-opacity:0.5"
     inkscape:connection-start="#command_use2154"
     inkscape:connection-end="#path38"
     inkscape:label="connector"
     inkscape:connector-type="polyline"
     inkscape:connector-curvature="0" /><use
     id="command_use2154"
     xlink:href="#inkstitch_trim"
     height="100%"
     width="100%"
     x="193.89997622807738"
     y="89.05786288721224"
     inkscape:label="command marker" /></g><path
   id="path40"
   class="st0"
   d="m 510.57744,1386.5482 c 14.02223,-7.9734 14.02223,-7.9734 29.00676,-32.1687 46.19087,-11.6852 92.93162,-23.7828 139.67237,-36.0179 0,-4.674 0,-8.7982 0,-13.0599 -4.67407,0 -8.93572,0 -13.05991,0 -3.29934,-12.6474 -3.29934,-12.6474 -16.35926,-25.7074 0,-58.4259 0,-58.4259 9.76056,-116.7144 11.27277,-1.9246 22.40807,-3.2994 33.68085,-4.674 1.92461,-5.0866 1.92461,-5.0866 -6.04881,-22.9581 -18.28389,-9.3481 -36.01788,-18.6963 -53.75187,-27.632 -6.59869,0 -13.05992,0 -19.10873,0 -7.97341,5.0865 -15.39695,10.3105 -22.82048,14.9846 -3.29935,-8.3858 -3.29935,-8.3858 3.29935,-14.9846 -14.98453,1.9247 -14.98453,1.9247 -22.82048,9.7606 -2.33705,19.6586 -4.26167,39.1798 -6.04881,58.4259 -13.05992,58.426 -13.05992,58.426 -26.11983,83.9959 -2.33704,23.7828 -4.67408,47.7031 -6.5987,71.4859 -7.83596,18.8338 -15.25949,36.9801 -22.68301,55.2641"
   style="stroke-width:1.37473;fill:#ffffff;stroke:none" />
		
		<g
   id="command_group18"
   inkscape:label="Ink/Stitch Command: Trim thread after sewing this object"
   transform="matrix(7.50002 0 0 -7.50002 0 1930)"><path
     id="command_connector18"
     d="m 76.157731,43.639878 3.075185,34.968924"
     style="fill:none;stroke:#000000;stroke-width:1px;stroke-opacity:0.5"
     inkscape:connection-start="#command_use7513"
     inkscape:connection-end="#path40"
     inkscape:label="connector"
     inkscape:connector-type="polyline"
     inkscape:connector-curvature="0" /><use
     id="command_use7513"
     xlink:href="#inkstitch_trim"
     height="100%"
     width="100%"
     x="76.15514921360236"
     y="43.60402987368802"
     inkscape:label="command marker" /></g><path
   id="path44"
   class="st0"
   d="m 724.34766,1208.1085 c -9.76057,19.6586 -9.76057,19.6586 -9.76057,32.7185 9.76057,7.4235 19.65861,14.9845 29.41918,22.4081 8.38584,0.9623 16.77168,1.9246 25.70741,3.2993 0.96232,-5.0865 1.92463,-10.7229 3.29935,-16.3593 -4.67407,-12.0976 -9.76056,-24.3327 -14.98453,-36.8426 -11.27278,-1.5123 -22.40807,-3.2995 -33.68084,-5.224"
   style="stroke-width:1.37473;fill:#ffffff;stroke:none" />
		<g
   id="command_group19"
   inkscape:label="Ink/Stitch Command: Trim thread after sewing this object"
   transform="matrix(7.50002 0 0 -7.50002 0 1930)"><path
     id="command_connector19"
     d="m 93.146287,59.589161 5.472708,29.75518"
     style="fill:none;stroke:#000000;stroke-width:1px;stroke-opacity:0.5"
     inkscape:connection-start="#command_use5652"
     inkscape:connection-end="#path44"
     inkscape:label="connector"
     inkscape:connector-type="polyline"
     inkscape:connector-curvature="0" /><use
     id="command_use5652"
     xlink:href="#inkstitch_trim"
     height="100%"
     width="100%"
     x="93.14370740993144"
     y="59.553313983116595"
     inkscape:label="command marker" /></g><path
   id="path46"
   class="st0"
   d="m 866.7695,1483.6039 c 7.01111,-4.674 14.02222,-9.348 21.03334,-14.0221 12.0976,-24.3327 24.7451,-48.528 37.3926,-73.2731 -5.08649,1.9247 -9.76057,3.7118 -14.43464,5.0865 -14.98455,27.6321 -29.41919,55.1266 -43.9913,82.2087"
   style="stroke-width:1.37473;fill:#ffffff;stroke:none" />
	<g
   id="command_group20"
   inkscape:label="Ink/Stitch Command: Trim thread after sewing this object"
   transform="matrix(7.50002 0 0 -7.50002 0 1930)"><path
     id="command_connector20"
     d="m 111.16082,29.918002 7.52327,32.09386"
     style="fill:none;stroke:#000000;stroke-width:1px;stroke-opacity:0.5"
     inkscape:connection-start="#command_use9899"
     inkscape:connection-end="#path46"
     inkscape:label="connector"
     inkscape:connector-type="polyline"
     inkscape:connector-curvature="0" /><use
     id="command_use9899"
     xlink:href="#inkstitch_trim"
     height="100%"
     width="100%"
     x="111.15823770323016"
     y="29.882154025970717"
     inkscape:label="command marker" /></g><g
   id="g6" /></g>
</g>
</svg>
