<?xml version="1.0" encoding="UTF-8" standalone="no"?>
<!-- Generator: Adobe Illustrator 22.0.0, SVG Export Plug-In . SVG Version: 6.00 Build 0)  -->

<svg
   version="1.1"
   id="svg2"
   sodipodi:docname="La_Renga_2-logo.svg"
   x="0px"
   y="0px"
   width="75.000458mm"
   height="75.047997mm"
   viewBox="0 0 283.46629 283.64596"
   xml:space="preserve"
   inkscape:version="1.3.2 (091e20e, 2023-11-25, custom)"
   xmlns:inkscape="http://www.inkscape.org/namespaces/inkscape"
   xmlns:sodipodi="http://sodipodi.sourceforge.net/DTD/sodipodi-0.dtd"
   xmlns="http://www.w3.org/2000/svg"
   xmlns:svg="http://www.w3.org/2000/svg"
   xmlns:inkstitch="http://inkstitch.org/namespace"><sodipodi:namedview
   bordercolor="#666666"
   borderopacity="1"
   gridtolerance="10"
   guidetolerance="10"
   id="namedview4"
   inkscape:pageopacity="0"
   inkscape:pageshadow="2"
   inkscape:window-height="1057"
   inkscape:window-width="1855"
   objecttolerance="10"
   pagecolor="#6f0000"
   inkscape:showpageshadow="2"
   inkscape:pagecheckerboard="0"
   inkscape:deskcolor="#d1d1d1"
   inkscape:zoom="2.1425329"
   inkscape:cx="172.45943"
   inkscape:cy="73.977861"
   inkscape:window-x="57"
   inkscape:window-y="-8"
   inkscape:window-maximized="1"
   inkscape:current-layer="g8"
   inkscape:document-units="mm"
   showguides="false">
	</sodipodi:namedview><metadata
   id="metadata3"><inkstitch:min_stitch_len_mm>0</inkstitch:min_stitch_len_mm><inkstitch:collapse_len_mm>3</inkstitch:collapse_len_mm><inkstitch:inkstitch_svg_version>1</inkstitch:inkstitch_svg_version></metadata><defs
   id="defs1" />
<style
   type="text/css"
   id="style1">
	.st0{fill:#FCF9FA;}
	.st1{fill:#DC3633;}
</style>

<path
   style="fill:none;fill-opacity:1;stroke:#ffffff;stroke-width:3.77733;stroke-dasharray:none"
   id="path8"
   sodipodi:type="arc"
   sodipodi:cx="140.75912"
   sodipodi:cy="141.25415"
   sodipodi:rx="130.9317"
   sodipodi:ry="130.77617"
   sodipodi:start="0.46158722"
   sodipodi:end="0.46152011"
   sodipodi:open="true"
   sodipodi:arc-type="arc"
   d="M 257.9884,199.4979 A 130.9317,130.77617 0 0 1 82.448068,258.34514 130.9317,130.77617 0 0 1 23.527898,83.014326 130.9317,130.77617 0 0 1 199.06625,24.161204 130.9317,130.77617 0 0 1 257.99231,199.49005" /><g
   id="g10"
   transform="matrix(1.33333 0 0 -1.33333 -1.69879 269.031)"
   inkscape:groupmode="layer"
   inkscape:label="ink_ext_XXXXXX">
	<g
   id="g12"
   transform="scale(0.1, 0.1)">
		
		<g
   id="g9"
   inkscape:label="negro"><path
     style="fill:#000000;fill-opacity:1;stroke:none;stroke-width:4.98948;stroke-dasharray:none"
     d="M 122.44228,266.24755 C 81.164798,259.99577 45.966808,234.17679 27.327765,196.47767 6.254264,153.85464 11.161625,103.58331 40.192888,64.686489 66.532437,29.3961 111.24073,10.311486 155.44964,15.486881 c 45.28181,5.300997 84.43547,34.718681 102.01806,76.650177 14.08172,33.582502 13.00178,71.691352 -2.95377,104.232642 -18.57337,37.88029 -53.97431,63.69708 -95.87522,69.91877 -8.73867,1.29757 -27.49907,1.27636 -36.19643,-0.0409 z m 63.74866,-60.14188 -0.4667,-39.43895 15.71877,-5.5511 c 38.92726,-13.74719 61.35568,-22.3582 60.46407,-23.21414 -0.28647,-0.27502 -12.55057,-4.1195 -27.25354,-8.54329 -14.70298,-4.42379 -27.25249,-8.50395 -27.8878,-9.06703 -0.88092,-0.78076 -1.15511,-2.06213 -1.15511,-5.39809 0,-2.40588 -0.39146,-5.84994 -0.86992,-7.65348 -0.98279,-3.70463 -6.50714,-11.979125 -8.62543,-12.919336 -0.76766,-0.340733 -4.06546,-0.835835 -7.32845,-1.100232 l -5.93271,-0.480719 -0.43855,-3.300331 c -0.2412,-1.815182 -1.11717,-14.661721 -1.94659,-28.547864 -0.82943,-13.886143 -1.67523,-25.237928 -1.87957,-25.226189 -0.30224,0.01736 -46.23005,60.583137 -47.65893,62.84863 -0.27418,0.434713 -2.94127,0.1013 -7.59077,-0.948918 l -7.16806,-1.619103 -0.1855,-8.059237 c -0.15984,-6.944695 -0.36257,-8.236321 -1.46596,-9.339705 -0.70425,-0.704255 -2.15746,-3.017778 -3.22934,-5.141162 -1.69244,-3.352711 -2.47662,-4.141987 -5.95977,-5.998491 -2.206,-1.175786 -4.01092,-2.417404 -4.01092,-2.759151 0,-0.341748 -1.227,-0.621359 -2.726677,-0.621359 -1.930681,0 -4.676536,0.955296 -9.405944,3.272372 -5.640503,2.763453 -6.884569,3.661671 -7.999395,5.775579 -0.917439,1.739626 -1.823499,2.557509 -2.970298,2.681223 -5.890857,0.635488 -6.099647,0.747408 -5.669702,3.039215 0.369333,1.968712 0.206252,2.236058 -2.008161,3.292039 -2.387312,1.138429 -2.426444,1.133762 -4.131816,-0.492773 -2.654836,-2.532099 -4.654761,-3.051484 -7.686733,-1.99626 -1.438693,0.500709 -3.729668,0.914854 -5.091054,0.920319 -2.472051,0.0099 -2.475235,0.01356 -2.465141,2.815222 0.01066,2.958239 1.125487,5.487962 1.745315,3.960398 0.50023,-1.232819 1.515889,-1.001829 2.902294,0.660066 1.038037,1.244304 1.242521,2.627334 1.26092,8.528266 0.01921,6.160261 0.279456,7.773691 2.076163,12.871291 1.129811,3.20549 2.606002,6.91264 3.280424,8.23811 l 1.226221,2.40993 -8.158177,0.47054 c -7.958001,0.45901 -12.924128,-0.18314 -12.924128,-1.67116 0,-0.31286 -1.285618,-0.13076 -2.856929,0.40464 -3.090428,1.05301 -11.961747,8.64453 -12.655251,10.82957 -0.224463,0.70722 -2.172585,2.37495 -4.32916,3.70606 l -3.921044,2.42021 v 7.16691 c 0,4.89475 0.23687,7.16691 0.747144,7.16691 0.41093,0 1.727617,-1.03961 2.925973,-2.31024 2.313286,-2.45279 4.50565,-2.99 5.167157,-1.26614 0.220359,0.57424 0.400653,2.32996 0.400653,3.90158 0,4.29065 2.124998,10.27782 5.144425,14.4944 1.481236,2.06853 2.872385,4.55558 3.091442,5.52679 0.411527,1.82452 2.569793,5.02266 9.077945,13.45177 3.092982,4.00591 4.205923,6.19162 6.105612,11.99085 1.277737,3.90059 2.324815,7.44624 2.326839,7.87921 0.002,0.43298 0.304915,1.87176 0.67309,3.19729 0.792443,2.85301 -0.476152,2.99038 14.678897,-1.58959 9.80939,-2.96447 11.248083,-3.24614 12.676295,-2.48179 2.513195,1.34503 8.013237,0.43062 10.862769,-1.80598 4.033566,-3.16595 5.551084,-3.91374 8.960072,-4.41528 1.81518,-0.26706 3.7469,-0.88447 4.29271,-1.37203 0.54582,-0.48756 4.85275,-1.99772 9.57096,-3.35592 4.71822,-1.35819 8.88086,-2.82598 9.25031,-3.26174 1.39425,-1.64449 5.34415,-3.59483 7.28516,-3.59721 1.84006,-0.002 4.28138,2.62268 27.92992,30.03055 14.25249,16.51816 26.0857,30.03301 26.29601,30.03301 0.21031,0 0.17236,-17.74753 -0.0843,-39.43896 z"
     id="path7"
     transform="matrix(7.50002 0 0 -7.50002 12.7409 2017.74)" /><path
     id="path26"
     d="m 523.26487,901.03827 c -2.96235,2.96235 -5.9247,5.9247 -8.76363,8.76362 0.3703,15.92265 0.86402,31.84529 1.23432,48.26165 7.52931,23.08166 15.55235,46.16336 23.45195,69.61526 -0.86402,15.5523 -1.72804,30.9813 -2.96235,47.0274 -6.295,10.1214 -12.58999,20.1192 -18.88499,30.1172 5.06068,4.1966 10.12136,7.8996 14.68832,11.726 30.24069,-36.5357 30.24069,-36.5357 43.57126,-43.5713 25.55029,1.2343 50.73028,2.0984 75.91026,2.9624 5.43099,-5.9247 11.35569,-11.726 17.15697,-17.6507 -6.66529,-23.452 -13.45402,-46.9039 -20.11931,-69.98558 2.09833,-2.09833 3.82637,-4.19667 5.43097,-5.92471 -5.43097,-34.80763 -5.43097,-34.80763 -18.88499,-70.84958 -4.56696,-4.56696 -8.76362,-9.25734 -12.96028,-13.45401 -25.18,-2.09834 -50.35999,-4.19667 -75.41655,-5.9247 -7.8996,2.96235 -15.92264,5.9247 -23.45195,8.88705"
     style="stroke-width:1.23431"
     transform="translate(-2.71498e-07, -3.04468e-05)" /><path
     id="path32"
     d="m 365.51596,925.47634 c -6.6653,1.72804 -13.45402,3.82637 -20.4896,5.9247 0.86402,4.56695 1.72803,9.62764 2.96235,14.68833 23.08165,16.29293 46.53361,32.7093 69.98556,49.49596 0,3.82637 0,7.52927 0,11.72597 3.82637,0 7.52932,0 11.72598,0 -0.86402,-13.454 -1.72804,-26.78458 -2.96236,-40.6089 -6.29499,-12.2197 -12.58999,-24.31597 -19.25528,-36.53568 -13.82432,-1.2343 -27.64862,-2.96234 -41.96665,-4.69038"
     style="stroke-width:1.23431"
     transform="translate(-2.71498e-07, -3.04468e-05)" /><path
     id="path42"
     d="m 1390.37,1191.9659 c 0,2.0983 0,4.1967 0,5.9247 8.0231,2.0983 15.9227,4.1966 23.4519,5.9247 1.2344,-5.0606 2.0984,-10.1213 2.9623,-14.6883 -5.0606,-8.023 -10.1213,-15.5524 -14.6881,-23.0817 -4.1967,-1.2342 -7.8997,-2.0983 -11.7261,-2.9624 0,9.6277 0,19.2554 0,28.883"
     style="stroke-width:1.23431"
     transform="translate(-2.71498e-07, -3.04468e-05)" /><path
     style="fill:#000000;fill-opacity:1;stroke:none;stroke-width:8.88282;stroke-dasharray:none"
     d="m 424.98708,457.03957 c -0.66219,2.10054 -0.51734,9.99599 -4.30097,15.38747 -4.13785,5.89622 -4.59701,9.22067 -4.07821,21.28493 0.0128,0.29527 5.69409,-0.53765 12.65355,-0.53765 11.60876,0 13.01564,0.24568 17.03924,2.98017 l 4.38571,2.98016 v 35.04435 35.04434 l 22.32728,46.68949 22.32729,46.68955 v 9.11218 9.11219 l -5.6275,5.86939 c -3.09511,3.22812 -7.04525,6.22516 -8.77808,6.66013 -1.73281,0.4351 -14.93237,10.1011 -29.33233,21.48047 -14.39996,11.37937 -27.05036,21.29831 -28.11199,22.04219 -1.06163,0.74389 -5.58354,9.54217 -10.0487,19.5517 l -8.11844,18.1993 6.4437,21.73263 c 3.54404,11.95292 6.6421,21.9833 6.88459,22.28974 0.24247,0.30621 7.86519,1.21039 16.93934,2.00889 l 16.49844,1.45174 19.56904,-14.2436 c 24.47861,-17.81711 24.53257,-17.86667 25.46524,-23.38711 0.42428,-2.51137 1.37095,-4.93665 2.10368,-5.38949 0.73274,-0.45291 14.07776,-2.76703 29.65559,-5.14253 l 28.32334,-4.31909 11.29344,-8.37755 11.29344,-8.37757 h 18.32582 c 18.11369,0 18.40846,0.0427 25.46196,3.60227 3.92488,1.98127 7.34455,3.39391 7.59928,3.13919 0.77869,-0.77871 -14.95762,-27.52612 -28.91437,-49.14652 -25.13032,-38.92934 -170.04496,-253.74648 -172.54922,-255.7818 -2.69956,-2.19404 -3.40855,-1.84177 -4.73016,2.35022 z"
     id="path2"
     sodipodi:nodetypes="ssssscccccccssssscssscsssscccscsssss"
     transform="translate(-2.71498e-07, -3.04468e-05)" /></g><path
   style="fill:#000000;fill-opacity:1;stroke:none;stroke-width:3.14054;stroke-dasharray:none"
   d="m 656.06481,1354.1406 -10.98951,1.422 -29.31087,7.6299 c -34.49291,8.9787 -70.4858,18.2404 -84.77581,21.8144 -5.59844,1.4002 -10.32187,2.6863 -10.49653,2.8579 -0.17468,0.1717 9.60139,5.146 21.72453,11.0541 l 22.04209,10.7421 1.79543,-1.7622 1.79542,-1.762 21.14284,5.0527 c 24.09465,5.758 20.62555,5.4456 34.43782,3.1017 13.67382,-2.3203 24.50557,-4.9174 39.26172,-9.4137 12.717,-3.8749 14.73704,-4.4394 18.96904,-5.3008 7.24986,-1.4756 6.69248,-1.6483 14.33417,4.4383 3.6579,2.9135 6.98378,5.537 7.39087,5.8298 0.60338,0.4342 2.37305,0.418 9.5746,-0.088 4.85895,-0.3414 8.88865,-0.6749 8.9549,-0.7411 0.23556,-0.2356 0.99843,-6.8551 1.45442,-12.62 l 0.46294,-5.8534 -3.73472,-6.4029 -3.73474,-6.4029 -23.79965,-12.568 c -13.08982,-6.9123 -24.18437,-12.5413 -24.65456,-12.5089 -0.47021,0.032 -5.80018,0.6987 -11.84442,1.4808 z"
   id="path3"
   transform="translate(-2.71498e-07, -3.04468e-05)" /><path
   id="path1"
   style="stroke:#ffffff;stroke-width:1px;fill:none"
   transform="matrix(7.50002 0 0 -7.50002 12.741 2017.74)"
   d="M275.30771946293135,140.96556016529848 275.1353004697433,134.14689609939663 274.6162073869305,127.32163475072875 273.76138906219524,120.59431331040999 272.5791157016013,113.97382946262788 271.07782119454157,107.46900893152534 269.26597189237197,101.08858238581047 267.15206684459775,94.84124167913875 264.7447033945541,88.7355620124069 262.0522721875397,82.78006431026539 259.0832987674016,76.98330114988757 255.84644246017632,71.3537621420899 252.34988362933296,65.8997971023196 248.60237653783946,60.62978809066573 244.6122021994421,55.55225420754576 240.3877322562023,50.6754363133505 235.93749012667993,46.007609873320504 231.26966368664927,41.5573677437975 226.39283172383296,37.3328856138269 221.31521044873364,33.34272344797506 216.04529697192652,29.595211129214732 210.59133780775977,26.098758956544813 204.96182196861312,22.861813073381313 199.16501154315415,19.892815445117762 193.20953788345952,17.200498016959784 187.10385844747645,14.79303174393604 180.856483134746,12.679217903628796 174.47598325885787,10.867377003020536 167.97119829114743,9.366090703892894 161.3507185061885,8.183715164083495 154.62343860665175,7.328889043662713 147.7980734182083,6.809898759468808 140.8839,6.635064685231811 133.9697244277453,6.809898813936741 127.14446286200626,7.328889041063121 120.41708505407385,8.183714528243314 113.79660170885265,9.366090703892894 107.29180893152576,10.867378805458301 100.9114092731983,12.67922047241835 94.66404155252371,14.793031743935984 88.55833687799722,17.200507968504454 82.60288854056853,19.892916858140822 76.8061010835807,22.86179981847522 71.17656219224011,26.0987589565449 65.72261770544765,29.595201719768255 60.452583957052894,33.342726401575504 55.37496829160551,37.33298704072081 50.4981205746995,41.55737993903307 45.83039551148778,46.00772637536991 41.380181371075025,50.67542058173194 37.15568561382679,55.5522682761672 33.16553859663571,60.62987027406447 29.417924361237056,65.8997823880344 25.9214368780124,71.3537966315542 22.68460121311449,76.98340263537621 19.715633423059302,82.78005189995403 17.02319660544606,88.73556201240659 14.615829686452884,94.8412504772675 12.501925524162402,101.08869148348376 10.690078805458285,107.46910893152577 9.188784298398787,113.97392946262744 8.00651093780482,120.59441331040998 7.151689041063122,127.32176286200624 6.6326988139367415,134.1470244277453 6.460280537068684,140.9656601652985  M267.7510805370687,141.15663983470154 267.5834995302567,134.52930390060337 267.0933926130695,128.08516524927126 266.28661093780477,121.73588668959 265.1710842983986,115.48917053737212 263.7547788054584,109.35259106847465 262.04562810762803,103.33381761418954 260.0515331554023,97.44055832086126 257.78049660544593,91.68063798759312 255.24032781246007,86.06193568973416 252.4389012325982,80.59229885011197 249.38435753982364,75.27983785791008 246.084316370667,70.1324028976804 242.5470234621606,65.15801190933435 238.78039780055792,60.36494579245425 234.7922677437977,55.76096368664952 230.59090987332004,51.3541901266795 226.18413631335073,47.15283225620249 221.58016827616706,43.1647143861731 216.78698955126634,39.39807655202493 211.81270302807349,35.86078887078526 206.66526219224028,32.56084104345521 201.35277803138686,29.506186926618682 195.88318845684586,26.704784554882238 190.26446211654047,24.164701983040217 184.50454155252365,21.893568256063986 178.61131686525397,19.89958209637119 172.59241674114216,18.19042299697948 166.45580170885265,16.7741092961071 160.20908149381148,15.658484835916497 153.85996139334827,14.851710956337286 147.41572658179166,14.36170124053119 140.8839,14.196535314768198 134.35207557225473,14.361701186063257 127.90793713799381,14.851710958936877 121.55871494592614,15.658485471756691 115.3119982911473,16.774109296107113 109.1753910684742,18.190421194541713 103.15659072680178,19.899579527581636 97.26335844747625,21.89356825606403 91.50346312200278,24.164692031495548 85.88471145943144,26.70488314185917 80.41509891641932,29.50620018152479 75.10263780775985,32.56084104345514 69.95518229455233,35.86079828023176 64.98081604294704,39.39807359842453 60.1876317083945,43.16481295927919 55.583679425300495,47.152820060966945 51.17700448851222,51.35427362463008 46.97561862892499,55.76097941826805 42.98751438617322,60.3649317238328 39.220861403364225,65.1581297259356 35.68347563876289,70.13241761196565 32.383563121987606,75.2798033684458 29.328998786885503,80.59239736462378 26.527566576940693,86.06194810004598 23.987403394553947,91.68063798759341 21.71637031354711,97.44054952273251 19.722274475837594,103.33390851651626 18.01312119454171,109.3526910684742 16.59681570160121,115.48927053737263 15.481289062195193,121.73598668959002 14.674510958936876,128.08523713799383 14.184501186063258,134.52937557225465 14.016919462931327,141.15673983470154  M276.09579138494337,123.97398647277517 264.84765207208477,125.4032500644018  M273.898511776318,111.28728974295882 262.85036546658745,113.83717121757925  M271.79136829276166,103.06384653633097 260.8840389596931,106.16120012218565  M267.6255621747156,90.89013068163058 257.07728584684287,95.04913283679531  M262.32736535568597,79.1717112482128 252.2354651305781,84.34055853385516  M255.9483402093021,68.01127920597318 246.40296476838432,74.13085763162869  M248.5497028909458,57.504331182483256 239.63455123367743,64.51029316808733  M240.1997291768902,47.73959895779773 231.9931539385619,55.56363597672094  M234.20546007735612,41.7453317677836 226.3814230584328,49.951907006111824  M224.4406568521919,33.39535766638821 217.43478262534674,42.310578288080706  M213.93368073259202,25.99672763209311 207.8142299314044,35.542184892364546  M202.7733321516725,19.617705654991678 197.60448486602985,29.70960588009937  M191.05496465656066,14.319589439633146 186.8958086279852,24.86780509659564  M178.88113111014604,10.153807962001832 175.78382375603644,21.061150423390078  M170.65770639852,8.046687333146014 168.1078249238992,19.094833642876438  M157.9710386517918,5.849304959807372 156.5417535473198,17.097441539079455  M145.13041282775288,4.852075754713391 144.84379332364836,16.187034143507375  M136.63740026302224,4.852075423695725 136.92401976712682,16.18703381248971  M123.79678544569421,5.8493087455644295 125.2260490373194,17.097448058423197  M111.1101058642603,8.04668450293039 113.65998733888094,19.09483081266085  M102.8866624521542,10.153827187623088 105.98401603800922,21.061156520691533  M90.7128575601476,14.319620109545225 94.87201358872306,24.867835766507717  M78.99458186215706,19.617751171625443 84.16328722541245,29.709724084969956  M67.83414518152782,25.996775127449947 73.95359598271523,35.5422323877215  M57.32710076570641,33.395429198212064 64.33308666603338,42.310562062070225  M47.56227368970022,41.745462358048115 55.38649578655253,49.95186114161649  M41.56817182427346,47.73963243396661 49.774660940163656,55.56375978509019  M33.21813953583593,57.50446621957163 42.1333601575284,64.5103404464168  M25.81944307290125,68.01139518198283 35.364900333172805,74.13084598317025  M19.440532728666476,79.1717622944416 29.532395723444594,84.34068226968327  M14.142305861692801,90.89021174934454 24.690582189565557,95.0492139045091  M9.976533778632774,103.06393924191639 20.88386311170122,106.1612928277714  M7.8693899289474825,111.2873823543712 18.91753623867792,113.83726382899192  M5.672109570894681,123.9740789504405 16.920248883753448,125.40334254206569  "
   inkstitch:satin_column="true" /><path
   id="path4"
   style="stroke:#ffffff;stroke-width:1px;fill:none"
   transform="matrix(7.50002 0 0 -7.50002 12.741 2017.74)"
   d="M6.460280537068672,141.15673983470154 6.632698813936743,147.9753755722547 7.151689041063114,154.80063713799373 8.0065109378048,161.52798668958997 9.188784298398797,168.1484705373727 10.690078805458262,174.6532910684741 12.501925524162408,181.03370851651624 14.615829686452937,187.28114952273265 17.023196605446035,193.38683798759337 19.71563342305928,199.34234810004594 22.684601213114462,205.1389973646237 25.921436878012397,210.76860336844578 29.417924361237258,216.2226176119659 33.1655385966357,221.4925297259355 37.15568561382682,226.57013172383284 41.38018137107521,231.44697941826828 45.83039551148771,236.11467362463 50.49812057469934,240.56502006096682 55.374968291605676,244.78941295927936 60.45258395705264,248.77967359842432 65.72261770544792,252.52719828023191 71.17656219224025,256.0236410434552 76.80610108358069,259.2606001815248 82.60288854056874,262.2294831418593 88.55833687799722,264.9218920314956 94.66404155252361,267.329368256064 100.91140927319823,269.44317952758166 107.29180893152534,271.2550211945416 113.79660170885242,272.7563092961071 120.41708505407456,273.9386854717568 127.14446286200611,274.7935109589369 133.9697244277452,275.3125011860633 140.8839,275.4873353147682 147.7980734182085,275.3125012405312 154.62343860665172,274.79351095633734 161.3506902498607,273.9386884264089 167.97119849872564,272.7564107083162 174.47598308050047,271.25502158585334 180.8564832867211,269.44328350771553 187.1038583208613,267.32936684459776 193.209537987593,264.9220033945541 199.16503568973462,262.2295721875397 204.96182196861346,259.2605869266185 210.5913378077596,256.0236410434553 216.04529697192652,252.52718887078527 221.31521044873364,248.77967655202497 226.39283172383284,244.7895143861732 231.2696636866491,240.56503225620264 235.93747506266314,236.11480448850784 240.387732250245,231.44706513128 244.61221439640883,226.5701302717009 248.6023765378394,221.49261190933436 252.34988362933285,216.22260289768053 255.8464424601764,210.76863785790997 259.0832987674016,205.13909885011242 262.0522721875397,199.34233568973463 264.7447033945541,193.386837987593 267.15206684459775,187.2811583208613 269.2659718923719,181.03381761418964 271.07782119454157,174.65339106847472 272.5791157016013,168.14857053737205 273.76138906219524,161.52808668959005 274.6162073869305,154.80076524927122 275.1353004697433,147.97550390060337 275.30771946293135,141.15683983470151  M14.016919462931327,140.9656601652985 14.184501186063244,147.5930244277453 14.674510958936878,154.03716286200628 15.481289062195202,160.38641331041003 16.5968157016012,166.63312946262727 18.013121194541753,172.76970893152594 19.722274475837565,178.78849148348368 21.71637031354706,184.68185047726737 23.98740339455395,190.44176201240663 26.52756657694073,196.06045189995407 29.328998786885535,201.5300026353763 32.383563121987606,206.84259663155422 35.683475638762786,211.98998238803418 39.220861403364296,216.9642702740645 42.98751438617319,221.75746827616717 46.97561862892479,226.36142058173172 51.177004488512296,230.76812637536997 55.58367942530066,234.9695799390332 60.18763170839432,238.95758704072065 64.98081604294737,242.7243264015757 69.95518229455206,246.26160171976807 75.10263780776017,249.56155895654504 80.41509891641931,252.61619981847522 85.88471145943123,255.41751685814074 91.50346312200278,257.9577079685044 97.26335844747638,260.22883174393604 103.15659072680177,262.2228204724184 109.17539106847465,263.9319788054584 115.31199829114757,265.3482907038929 121.55871494592543,266.4639145282432 127.90793713799388,267.2706890410631 134.3520755722548,267.76069881393676 140.8839,267.9258646852318 147.4157265817915,267.7606987594688 153.8599613933483,267.2706890436627 160.2091097501393,266.46391157359113 166.45580150127438,265.34838929168376 172.59241691949953,263.93197841414667 178.6113167132789,262.22291649228447 184.50454167913873,260.2288331554023 190.26446201240697,257.95779660544594 195.88316431026587,255.41762781246007 201.35277803138698,252.61621307338126 206.66526219223996,249.56155895654499 211.81270302807349,246.2616111292147 216.78698955126634,242.72432344797505 221.58016827616717,238.9576856138268 226.1841363133509,234.96956774379737 230.59092493733684,230.76819551149214 234.792267749755,226.36153486872 238.78038560359118,221.75746972829913 242.5470234621606,216.96438809066564 246.08431637066712,211.98999710231948 249.38435753982358,206.84256214209006 252.4389012325982,201.53010114988803 255.24032781246007,196.06046431026587 257.78049660544593,190.44176201240697 260.0515331554023,184.68184167913873 262.0456281076281,178.78858238581037 263.7547788054584,172.7698089315253 265.1710842983986,166.63322946262792 266.28661093780477,160.38651331040995 267.0933926130695,154.0372347507288 267.5834995302567,147.59309609939663 267.7510805370687,140.96576016529846  M5.6721096584555815,158.1483217386537 16.920248971314347,156.71905814702848  M7.869390202320673,170.8350188301023 18.91753651205112,168.28513735548162  M9.976534205577044,179.05846226156768 20.88386353864545,175.96110867571252  M14.142306626070928,191.23219018931078 24.690582953943704,187.07318803414628  M19.44053391615359,202.95064002402285 29.53239691093185,197.78172004878144  M25.819444759931343,214.11100744953987 35.36490202020274,207.9915566483522  M33.2181417891383,224.61793664783463 42.13336241083093,217.61206242098964  M41.5681747002478,234.38277058255537 49.77466381613798,226.55864323143177  M47.562276957563085,240.3769407576285 55.386499054415424,232.17054197406017  M57.32710472541903,248.72697391354086 64.333090625746,239.8118410496827  M67.83414985978995,256.12562787171436 73.95360066097784,246.58017061144312  M78.99458727196686,262.50465159906304 84.16329263522177,252.41267868571828  M90.71286369918707,267.8027823110749 94.87201972776322,257.25456665411264  M102.88666930135915,271.9685747573452 105.98402288721331,261.06124542427654  M111.11011314031148,274.075717176362 113.65999461493146,263.02757086663144  M123.79679337027619,276.2730922613858 125.22605696190178,265.0249529485271  M136.63740876958036,277.27032479140394 136.92402827368454,265.93536640260993  M145.13042168151708,277.2703240214074 144.8438021774129,265.9353656326134  M157.97104795455988,276.2730938581028 156.54176285008788,265.0249572788307  M170.65780862911814,274.07575475133245 168.10776120216602,263.02764674425185  M178.8810709397706,271.9686703894897 175.78392639206106,261.06128169803765  M191.0549070043226,267.802886744062 186.8959048491578,257.2546104161893  M202.77332959748153,262.5046956532083 197.60448231183878,252.41279542810062  M213.93367875528912,256.1256736355264 207.8142279541014,246.58021637525505  M224.4406554150694,248.72704346295004 217.43478118822412,239.81182284125762  M234.20545913153543,240.37706913394894 226.38142211261223,232.17049389562064  M240.19971815315841,234.38287807840015 231.99322903726812,226.55875072727667  M248.54970063761522,224.61807168490085 239.6345489803466,217.61210969929706  M255.94833852223684,214.1111234255269 246.402963081319,207.9915449998715  M262.32736416821535,202.95069107026058 252.2354639431077,197.78184378461782  M267.6255614103375,191.23227125702465 257.0772850824647,187.07326910186015  M271.7913678658172,179.0585549671536 260.884038532749,175.96120138129766  M273.89851150294487,170.83511144151444 262.8503651932143,168.28522996689426  M276.0957912973825,158.14841421631846 264.8476519845238,156.7191506246929  "
   inkstitch:satin_column="true" /><g
   id="g8"
   inkscape:label="blanco"
   transform="translate(-2.71498e-07, -3.04468e-05)"><path
     id="path16"
     class="st0"
     d="m 948.36237,606.65461 c 5.06069,7.15902 10.49167,14.68833 15.92264,22.21763 12.2197,4.19667 24.31603,8.39334 36.53559,12.9603 110.2244,69.98557 110.2244,69.98557 156.7579,93.06722 46.5336,11.35568 93.0672,23.08166 139.6008,34.80764 7.5294,7.5293 15.5524,15.55234 23.452,23.45195 58.2596,23.45195 58.2596,23.45195 145.5255,46.53355 34.8077,15.55234 69.6153,30.98126 104.7932,46.53361 26.7846,17.15695 54.063,34.80764 81.3413,52.45832 -2.4686,1.72803 -5.431,3.82636 -8.3934,5.9247 -113.6803,-34.80764 -113.6803,-34.80764 -137.1321,-46.53361 -44.4353,-7.52931 -88.8706,-15.55236 -133.6762,-23.45195 -52.4583,-23.08166 -52.4583,-23.08166 -134.1698,-46.53356 -20.9834,-3.82636 -42.3371,-7.52931 -63.6907,-11.35567 -34.8076,-15.55236 -69.6152,-30.98127 -104.4228,-47.02734 -33.0797,-7.52932 -66.2826,-15.05863 -99.3622,-23.08166 -50.36006,-27.27832 -100.59661,-54.55665 -151.32688,-81.71154 -13.45402,-3.82637 -26.7846,-7.52932 -40.6089,-11.35568 -60.35793,-29.37666 -121.20958,-59.1236 -181.9378,-88.87056 -7.15901,-12.96029 -7.15901,-12.96029 -7.15901,-36.53568 4.56696,-9.62764 9.25735,-19.25528 14.31804,-28.88293 -164.53397,-51.10056 -164.53397,-51.10056 -177.49426,-51.10056 186.13445,275.12842 186.13445,275.12842 206.74748,313.26871 11.35569,-0.86403 23.08167,-1.72804 34.80764,-2.96235 29.74695,-14.19461 59.98763,-28.88294 90.10487,-43.57126 30.24067,0 60.35792,0 90.59859,-0.3703 -0.86401,5.9247 -1.72803,11.72597 -2.96235,17.65068 -15.05862,9.25735 -30.24068,18.39127 -45.2993,28.14234 -4.19666,5.9247 -8.39332,12.09628 -12.96029,18.39127 -15.05862,11.35569 -30.24068,22.58794 -45.29929,33.94362 v 37.76993 c 4.19666,0.37029 8.76362,0.86401 13.45401,1.2343 3.82638,-3.82636 7.5293,-7.52931 11.35569,-11.72597 h 46.5336 c 8.02304,4.19666 16.41637,8.76363 24.68627,13.45401 10.49166,23.94568 20.98333,48.26165 31.84528,72.57763 4.19667,1.23431 8.76363,2.46862 13.45402,4.19666 -14.68833,-46.53361 -14.68833,-46.53361 -14.68833,-69.61527 11.72598,-17.65067 11.72598,-17.65067 38.14024,-38.14022 h 28.88299 c 2.09838,2.46863 4.56696,5.06069 7.15908,7.52932 0.37028,48.63187 0.86401,97.63411 1.72802,146.75978 2.0983,6.295 4.56697,12.59 7.159,19.2553 4.19669,0.37029 8.76365,0.86401 13.45398,1.2343 4.19669,-4.19666 8.39338,-8.39332 12.59006,-12.96028 8.39329,-19.74902 16.78666,-39.86832 25.17995,-59.98763 23.0816,-23.08166 23.0816,-23.08166 34.8077,-46.53361 8.7636,-6.66529 17.6507,-13.45402 26.4142,-20.11931 51.9647,0 51.9647,0 69.245,5.92471 1.2343,2.09833 2.4686,4.56696 4.1967,7.15901 -10.1214,25.55029 -20.1194,51.10058 -30.2407,77.14458 -0.8639,9.62764 -1.728,19.25529 -2.9623,28.88293 58.2596,-31.84528 48.6331,103.80053 83.4407,92.07463 h 40.6089 c 11.7259,11.7259 47.7668,-80.34865 64.9238,-62.698 6.2949,-8.02301 12.5899,-16.41634 18.8849,-24.68624 12.2197,-0.37029 16.4399,129.53104 28.6595,128.66704 75.9102,23.4519 36.5291,10.3249 58.0618,10.6742 h 29.3767 c 9.6276,-3.8264 62.1368,-113.4207 71.7645,-117.6173 h 134.1699 c -11.726,1.728 -23.452,3.8264 -35.178,5.9247 -10.1213,8.023 -20.1193,16.293 -30.611,24.6862 -10.1213,31.475 -20.1192,62.9501 -30.1172,94.7954 -1.7281,30.9811 -3.8264,62.0858 -5.9247,93.0672 -18.3912,29.7469 -36.906,59.9876 -55.2972,90.1048 4.1966,-2.0983 8.3933,-4.5669 12.9603,-7.159 15.9226,-22.5879 31.8452,-45.6696 48.2616,-68.7512 2.9623,-8.7637 6.295,-18.021 9.6276,-27.2784 1.7281,-28.8828 3.8264,-57.8893 5.9247,-87.2659 2.9624,-4.5671 6.2951,-9.2573 9.6278,-13.8243 137.9962,-41.473 275.869,-83.0693 414.2355,-124.91255 -116.5192,-49.49596 -127.8749,-49.49596 -163.0528,-66.65293 -11.3557,0 -17.157,-5.9247 -163.0528,-58.25958 -11.3557,0 -238.5928,-87.63618 -250.3188,-87.63618 v -66.65292 c 1.7281,-96.89359 3.8264,-194.15748 5.9248,-291.42137 V 353.62038 179.21192 c -129.6029,149.7222 -259.0824,299.81469 -388.1916,449.90719 -18.885,1.23432 -18.885,1.23432 -42.33691,-4.56695 -9.99794,-6.17157 -19.62561,-11.97285 -29.37672,-17.89755"
     style="fill:#ffffff;stroke-width:1.23431"
     sodipodi:nodetypes="cccccccccccccccccccccccccccccccccccccccccccccccccccccccccccccccccccccccccccccccccc" /><path
     id="path22"
     class="st0"
     d="m 441.92362,493.46808 c -1.23431,25.17999 -2.09833,50.35999 -2.96235,75.41654 13.82431,27.27833 27.27832,54.55665 40.73234,81.71154 -1.23432,14.68834 -2.09834,29.37665 -2.96235,43.57127 9.25735,-3.33265 9.25735,-3.33265 18.02097,-13.82432 0,-5.43097 0.37029,-10.86195 0.86403,-16.78665 -15.05863,-31.475 -30.24068,-62.94999 -45.29931,-94.79526 0,-23.08167 0,-46.16333 0,-69.61528 -2.46863,-1.48118 -5.43098,-3.5795 -8.39333,-5.67784"
     style="fill:#ffffff;stroke:none;stroke-width:1.23431" /><path
     id="path24"
     class="st0"
     d="m 418.47167,819.32679 c -4.19666,-14.68833 -8.76362,-29.74695 -13.45401,-44.80558 5.43097,-12.21969 10.86195,-24.31596 16.29293,-36.53567 -5.06069,0 -9.99794,0 -14.68833,0 -8.76362,17.65068 -8.76362,17.65068 -14.68833,46.53361 4.19667,10.12137 8.02304,19.74902 11.72598,29.37666 13.08373,8.2699 13.08373,8.2699 14.81176,5.43098"
     style="fill:#ffffff;stroke:none;stroke-width:1.23431" /><path
     id="path28"
     class="st0"
     d="m 517.34017,1104.8234 c 6.295,-10.1213 12.58999,-20.1193 18.88499,-30.1172 1.23431,-15.9227 2.09833,-31.4751 2.96235,-46.9039 -8.02304,-23.452 -15.92264,-46.53366 -23.45195,-69.61533 -0.3703,-16.29293 -0.86402,-32.33901 -1.23432,-48.26165 2.96236,-2.96235 5.92471,-5.9247 8.76363,-8.76362 0,-2.96236 0,-2.96236 -23.45195,0 1.2343,17.65068 2.09833,35.17794 2.96234,52.45832 8.02305,25.17999 15.92264,50.35998 23.45196,75.41648 0,11.726 0,23.452 0,35.178 -5.9247,17.1569 -5.9247,17.1569 -17.65068,28.883 -1.23431,5.9246 -2.09833,11.7259 -2.96235,17.6506 4.19667,-2.2217 8.02304,-4.3201 11.72598,-5.9247"
     style="fill:#ffffff;stroke:none;stroke-width:1.23431" /><path
     id="path30"
     class="st0"
     d="m 668.79041,1058.2898 c -5.92471,5.9247 -11.72597,11.726 -17.15696,17.6507 -4.19666,2.0984 -8.02304,3.8263 -11.72598,5.4309 1.72804,12.5901 2.96236,24.6863 4.19667,36.906 24.68627,12.9603 54.06292,36.042 136.63848,84.3036 1.72804,6.295 3.33265,12.5899 4.56696,18.885 -11.72597,2.0983 -23.45195,4.1967 -34.80764,5.9247 v 17.157 c 8.02305,-1.2343 15.55235,-2.0983 23.08167,-2.9623 13.8243,-7.8997 27.27832,-15.5525 40.60891,-23.0817 h 75.91026 c 23.45198,-11.726 23.45198,-11.726 34.80767,-11.726 -14.68836,12.5899 -29.37669,25.18 -43.57129,37.77 -11.72598,23.452 -11.72598,23.452 -17.65069,58.2596 1.23432,39.0043 2.09833,78.0086 2.96236,116.5191 h 11.72598 c -1.72804,-108.9898 -1.72804,-108.9898 2.46862,-122.8141 36.90593,-8.3934 73.81201,-16.7868 111.08819,-25.5503 119.85178,158.8561 240.19738,318.2059 360.54298,477.5558 8.7636,-142.5632 17.6507,-285.1263 26.4143,-428.0599 -44.065,-28.8828 -44.065,-28.8828 -69.9855,-55.2973 -8.3934,-2.4685 -16.7867,-5.0606 -25.1801,-7.159 -2.4685,-4.5668 -4.5669,-9.2573 -6.6652,-13.4539 1.2342,-13.8244 2.0983,-27.2784 2.9623,-40.6089 21.3536,-1.2344 42.7072,-2.0984 63.6906,-2.9624 8.3934,-4.567 16.7866,-8.7636 24.6862,-12.9603 7.5294,4.1967 7.5294,4.1967 10.4917,15.9227 h 11.3557 v -5.9248 -5.9246 c -3.3326,-10.1214 -6.6653,-20.1193 -10.1214,-30.2407 -7.1589,-7.5293 -7.1589,-7.5293 -84.6739,-43.5713 -2.9624,-7.159 -5.9247,-13.8243 -8.7636,-20.4895 -82.5756,-7.5293 -82.5756,-7.5293 -101.8308,-14.6884 -2.4687,-6.295 -5.0607,-12.59 -7.159,-18.885 -5.9248,5.9247 -11.7261,11.726 -17.157,17.1569 -5.9248,26.4144 -5.9248,26.4144 -2.9624,46.9039 33.5734,7.5294 67.0233,14.6884 100.2263,21.8474 4.5669,6.295 9.2573,12.59 13.4539,18.885 0,23.0817 0,23.0817 -7.5292,36.4122 -4.567,0.3703 -8.7637,0.864 -12.9604,1.2344 -7.8996,-5.9247 -15.5522,-11.7261 -23.0815,-17.6507 -8.3934,0.864 -16.7868,1.2343 -25.1801,1.728 l -12.9603,12.9603 c -2.9623,-5.9247 -5.9247,-11.726 -8.7636,-17.6507 -11.3556,-2.4686 -11.3556,-2.4686 -88.8706,-62.0859 -4.5669,5.431 -8.7636,10.4916 -12.59,15.5524 -0.864,20.1192 -1.2342,40.2384 -1.728,59.9875 -14.1946,2.4687 -28.1423,5.0607 -41.9666,7.1591 -4.1967,4.1967 -8.0231,7.8996 -11.726,11.726 -4.567,-0.3703 -8.7636,-0.8641 -12.9603,-1.2343 -7.159,-19.2554 -7.159,-19.2554 -7.159,-65.789 13.8243,-17.6507 27.2783,-35.178 40.6089,-52.4583 -1.2343,-21.3536 -2.0983,-42.8307 -2.9624,-64.1843 h -17.6507 c -2.9623,11.726 -14.318,23.4519 -68.3809,112.3225 -12.96034,7.159 -12.96034,7.159 -36.53572,7.159 -8.39337,-4.5669 -16.78667,-8.7636 -24.68627,-12.9603 -0.37029,-37.7699 -0.86401,-75.0462 -1.23431,-112.3224 -11.72598,-34.80771 -11.72598,-34.80771 -20.4896,-93.0673 -34.80763,-14.1946 -34.80763,-14.1946 -75.41654,-37.76998 -12.58999,0.86402 -24.68627,1.23431 -36.90597,1.72804 -0.3703,12.2197 -0.86401,24.31596 -1.23431,36.04194 7.15901,13.45402 -94.3566,-14.55029 -37.33132,36.17999 -0.86403,10.4917 -1.23431,20.4896 -1.72804,30.61101 -17.15695,10.4916 -33.94362,20.4895 -50.73028,30.6109 -31.84528,0 52.01965,33.9291 28.93799,33.9291 -4.19666,-4.1967 -8.02303,-7.8997 -11.72597,-11.726 -5.80127,1.1109 -11.72598,1.9748 -17.52725,2.8389"
     style="fill:#ffffff;stroke-width:1.23431"
     sodipodi:nodetypes="ccccccccccccccccccccccccccccccccccccccccccccccccccccccccccccccccccccc" /><path
     id="path40"
     class="st0"
     d="m 494.38194,1416.3641 c 12.59,-7.159 12.59,-7.159 26.04401,-28.883 41.47293,-10.4916 204.72704,-54.1507 246.69368,-65.1361 v -11.726 h -11.72597 c -2.96234,-11.3556 -2.96234,-11.3556 -14.68832,-23.0816 0,-52.4583 -121.28746,-19.6612 -112.52384,-71.9961 10.12136,-1.728 20.1193,-2.9624 30.24068,-4.1966 1.72803,-4.567 1.72803,-4.567 -5.43098,-20.6131 -16.41638,-8.3933 -32.33901,-16.7867 -48.26165,-24.8097 h -17.15697 c -7.159,4.567 -13.8243,9.2574 -20.48959,13.4541 -2.96236,-7.5293 -2.96236,-7.5293 2.96235,-13.4541 -13.45401,1.7281 -13.45401,1.7281 -20.48959,8.7636 -2.09834,17.6507 -3.82638,35.178 -5.43099,52.4583 -11.72597,52.4584 -11.72597,52.4584 -23.45194,75.4166 -2.09834,21.3536 -4.19667,42.8307 -5.92471,64.1843 -7.0356,16.9101 -13.70089,33.2029 -20.36617,49.6194"
     style="fill:#ffffff;stroke:none;stroke-width:1.23431"
     sodipodi:nodetypes="cccccccccccccccccc" /><path
     id="path46"
     class="st0"
     d="m 814.19252,1503.5065 c 6.29499,-4.1966 12.58999,-8.3932 18.88499,-12.5898 10.86195,-21.8474 22.21764,-43.5714 33.57332,-65.789 -4.56696,1.7281 -8.76363,3.3327 -12.96029,4.5669 -13.45402,24.8098 -26.41431,49.496 -39.49802,73.8119"
     style="fill:#ffffff;stroke:none;stroke-width:1.23431" /></g><path
   id="path20"
   style="display:inline;stroke-width:1.23431"
   class="st1"
   d="M 767.53281 1536.0958 C 753.58514 1534.8614 740.26398 1533.9861 726.81006 1533.1221 C 709.15944 1521.3961 651.26417 1498.3279 630.77467 1483.6396 C 626.08429 1473.1479 621.52404 1463.1457 617.32737 1453.0243 C 604.36713 1445.8653 604.35868 1445.8645 557.82527 1442.9022 C 560.78763 1413.5256 560.78841 1413.5279 567.94737 1406.3689 C 582.14193 1409.8249 596.45721 1413.1583 610.28146 1416.491 C 656.81482 1410.5662 674.47524 1398.8396 689.16348 1398.8396 C 694.22416 1403.0362 699.27435 1406.732 703.84125 1410.5584 C 710.01278 1410.1882 716.31507 1409.6983 722.23973 1409.3279 C 723.10375 1403.0329 723.59796 1396.7263 723.96825 1390.4313 C 721.49962 1385.8647 718.90753 1381.6788 716.43894 1377.4821 C 700.51636 1369.0887 684.59282 1360.7093 668.67027 1352.316 C 660.64729 1353.5504 653.11358 1354.411 645.58427 1355.275 L 645.58427 1343.5416 L 633.85085 1343.5416 C 630.8885 1332.186 630.899 1332.1817 619.17308 1320.4556 C 619.17308 1268.1208 619.1693 1268.1331 627.93287 1215.6751 C 638.05419 1213.9472 648.06064 1212.7053 658.18196 1211.471 C 659.91 1206.7806 659.90636 1206.7686 652.74738 1190.8459 C 636.33107 1182.4526 620.41786 1174.069 604.49531 1166.046 L 587.3273 1166.046 C 580.29176 1170.7364 573.49934 1175.3114 566.83409 1179.508 C 563.87174 1171.9787 563.86839 1171.9707 569.79308 1166.046 C 556.46256 1167.6506 556.47352 1167.6468 549.31451 1174.8058 C 547.21618 1192.4565 545.60797 1210.1197 543.87993 1227.2767 C 532.154 1279.6111 532.15365 1279.6053 520.42772 1302.687 C 518.32943 1324.0406 516.22313 1345.5084 514.49509 1366.862 C 507.82985 1383.6482 501.04798 1399.9431 494.38274 1416.3591 C 487.59406 1418.8277 481.29776 1421.3006 475.00281 1424.3865 C 459.08026 1422.6584 459.07544 1422.6506 435.99393 1410.9246 C 422.91025 1411.6652 409.95584 1412.5361 397.3659 1413.4002 C 400.69855 1367.3603 400.69909 1367.3668 406.62374 1361.442 C 408.72208 1364.2809 410.81368 1367.2394 412.54172 1370.2018 C 417.10868 1369.8314 421.30899 1369.3416 425.50562 1368.9713 C 431.80057 1360.5781 438.09255 1352.1839 444.3875 1343.7906 L 444.3875 1238.9954 C 467.96277 1169.3805 467.96806 1169.3767 492.65422 1115.6846 C 450.31748 1113.2159 407.98462 1110.6239 366.01817 1108.1553 C 354.29226 1112.3519 342.56904 1116.0624 331.2134 1119.8887 L 331.2134 1128.6338 C 317.38919 1123.573 303.56371 1118.523 290.10979 1113.9561 C 268.26254 1093.8368 246.53695 1074.2176 224.68971 1054.4686 C 219.62903 1045.705 214.56423 1036.821 209.99729 1028.0574 C 191.97641 1016.7017 173.94657 1005.3304 156.29599 994.46848 C 153.33365 924.48326 153.34064 924.49563 158.77158 890.55222 C 171.36152 897.21746 171.36941 897.21455 193.95721 924.49273 C 203.2145 925.35675 212.34158 925.85096 221.59888 926.22125 C 224.06751 900.17735 226.65957 874.63257 229.1282 849.08239 C 234.92942 833.5302 240.85058 818.09647 246.28156 802.54419 C 258.00749 786.99194 269.74127 771.55824 281.46719 756.006 C 286.89813 732.43073 286.90213 732.43974 310.35398 691.83104 C 333.80578 668.25577 333.79636 668.24567 380.32973 604.55544 C 403.41128 552.09738 409.34457 516.90918 418.10814 493.82763 L 441.56035 493.82763 C 440.32604 518.88408 439.45073 544.07274 438.58671 569.25262 C 452.53435 596.40738 465.87015 623.68362 479.32411 650.9618 C 478.08979 665.65004 477.22912 680.34648 476.36512 694.541 C 457.97395 709.22927 439.58176 723.78761 421.06713 738.10556 L 406.37472 738.10556 C 397.6111 755.75614 397.60697 755.76097 391.6823 784.64376 C 395.87894 794.76508 399.58939 804.401 403.41572 814.0286 C 416.37596 822.42187 416.3801 822.41089 418.10814 819.44853 C 429.83406 820.68286 441.55727 821.55816 452.91291 822.42217 C 467.60117 811.56028 482.28297 801.05336 496.47747 790.56174 C 497.71179 786.36513 498.57244 782.66931 499.43646 778.84297 C 519.06192 776.00406 538.45291 773.04552 557.70809 770.08318 C 565.60764 764.2819 573.63103 758.3461 581.16029 752.91517 L 615.95041 752.91517 C 621.87511 755.75409 627.67716 758.71265 633.60182 761.67495 C 644.95745 760.81098 656.69536 759.95026 668.42124 758.71596 C 698.16803 744.52145 728.28347 729.83965 758.524 715.15141 C 788.76451 715.15141 818.88427 715.15545 849.1248 714.78519 C 848.26078 720.70989 847.40013 726.49728 846.16581 732.42195 C 831.10729 741.67929 815.91661 750.94873 800.85809 760.57632 C 796.66143 766.37755 792.4611 772.66518 787.89419 778.96015 C 772.83561 790.31577 757.65963 801.54507 742.60111 812.90066 L 742.60111 850.67908 C 746.79777 851.04933 751.48147 851.55391 756.04841 851.9242 C 759.87475 848.22126 763.57463 844.38739 767.40097 840.19077 L 813.95382 840.19077 C 821.85337 844.38739 830.24322 849.07112 838.6365 853.63807 C 849.12811 877.5836 859.62038 901.90538 870.48228 926.22125 C 874.67891 927.45556 879.36266 928.68267 883.92957 930.41071 C 869.24134 883.87733 869.23716 883.88272 869.23716 860.80117 C 880.96304 843.15059 880.9676 843.14599 907.38178 822.65655 L 936.26857 822.65655 C 938.36687 825.12512 940.94844 827.71723 943.41702 830.18586 C 943.91075 878.81751 944.29618 927.94691 945.16019 976.94891 C 947.25858 983.24385 949.84001 989.53176 952.30864 996.197 C 956.50524 996.5673 961.20366 997.05722 965.77059 997.42747 C 969.96728 993.23086 974.15703 989.04517 978.35363 984.47822 C 986.74687 964.72931 995.15566 944.61193 1003.549 924.49273 C 1026.6306 901.41117 1026.6131 901.40638 1038.3391 877.95453 C 1047.1026 871.28928 1055.9866 864.50743 1064.7503 857.84218 C 1116.8382 857.84218 1116.8368 857.83553 1133.9937 863.76016 C 1135.228 865.8585 1136.4697 868.45469 1138.1978 870.92326 C 1128.0764 896.47346 1118.0847 922.01825 1107.9633 948.06212 C 1107.0993 957.68971 1106.2387 967.32131 1105.0043 976.94891 C 1163.264 945.10377 1163.2585 945.11027 1198.0661 933.38435 L 1238.6716 933.38435 C 1250.3975 945.11027 1276.8127 988.66856 1293.9696 1006.3191 C 1300.2646 998.4196 1306.5564 990.0297 1312.8515 981.63642 C 1325.0711 981.14269 1337.3036 980.77191 1349.3994 979.9079 C 1425.3096 1003.3598 1425.3043 1003.3529 1442.4612 1015.0789 L 1471.8314 1015.0789 C 1481.459 1011.3759 1491.0905 1007.5567 1500.7182 1003.3601 L 1634.8835 1003.3601 C 1623.1575 1005.0881 1611.4386 1007.1798 1599.7125 1009.2781 C 1589.715 1017.1777 1579.5889 1025.5821 1569.0972 1033.9754 C 1559.0992 1065.4504 1549.1013 1096.9205 1538.98 1128.7657 C 1537.2518 1159.747 1535.1456 1190.8608 1533.0473 1221.8421 C 1514.6565 1251.5885 1496.1553 1281.7048 1477.764 1311.9448 C 1444.5611 1314.7838 1411.479 1317.7422 1378.7696 1320.7046 C 1334.8285 1291.8216 1334.823 1291.8209 1308.7792 1265.4066 C 1300.3858 1262.8146 1292.0062 1260.3419 1283.6132 1258.2435 C 1281.1446 1253.5532 1279.0317 1248.9783 1276.9334 1244.7816 C 1278.1677 1230.9574 1279.0284 1217.6448 1279.8924 1204.1907 C 1301.246 1202.9564 1322.6157 1202.0957 1343.5986 1201.2317 C 1351.8686 1196.6648 1360.2582 1192.4498 1368.2813 1188.2531 C 1375.8106 1192.4498 1375.8073 1192.4647 1378.7696 1204.1907 L 1390.1222 1204.1907 L 1390.1222 1198.258 C 1398.0218 1200.3564 1406.045 1202.4627 1413.5744 1204.1907 C 1414.8087 1199.13 1415.6695 1194.0651 1416.5334 1189.4982 C 1411.4728 1181.4755 1406.4079 1173.9411 1401.841 1166.4123 C 1397.6443 1165.178 1393.9485 1164.3173 1390.1222 1163.4533 L 1390.1222 1192.3401 C 1386.6661 1182.2188 1383.3327 1172.2271 1380.0001 1162.1056 C 1372.8411 1154.5764 1372.8466 1154.5683 1295.3319 1118.5264 C 1292.4928 1111.4908 1289.5345 1104.6985 1286.5721 1098.0332 C 1203.997 1090.504 1203.9764 1090.4999 1184.7213 1083.3408 C 1182.1293 1077.0459 1179.6712 1070.7539 1177.5729 1064.4589 C 1171.7716 1070.2602 1165.8504 1076.1958 1160.4195 1081.6269 C 1154.4947 1108.0411 1154.4836 1108.0271 1157.4459 1128.5167 C 1191.0189 1136.0456 1224.6059 1143.2132 1257.6854 1150.3722 C 1262.3757 1156.6672 1266.9361 1162.9592 1271.1327 1169.2541 C 1271.1327 1192.212 1271.1295 1192.2014 1263.6033 1205.6555 C 1259.0363 1206.0258 1254.8361 1206.5303 1250.6394 1206.9006 C 1242.6164 1200.9759 1235.0974 1195.1739 1227.5681 1189.2492 C 1219.1748 1190.1132 1210.766 1190.6073 1202.3727 1190.9777 L 1189.4235 1203.9416 C 1186.5846 1198.0168 1183.626 1192.2148 1180.6637 1186.2902 C 1169.308 1183.6981 1169.3058 1183.6889 1091.7914 1124.1954 C 1087.2244 1129.6265 1083.0199 1134.6914 1079.1937 1139.752 C 1078.3296 1159.8714 1077.8355 1179.9888 1077.4652 1199.7375 C 1063.1472 1202.3295 1049.3216 1204.8022 1035.4973 1206.9006 L 1023.7785 1218.6341 C 1019.2116 1218.2637 1015.0113 1217.7592 1010.8146 1217.3889 C 1003.656 1198.134 1003.6662 1198.1358 1003.6662 1151.6027 C 1017.4905 1133.952 1030.8178 1116.3034 1044.2718 1099.1465 C 1043.0375 1077.6695 1042.1621 1056.31 1041.2981 1034.9569 L 1023.6467 1034.9569 C 1020.6843 1046.6828 1009.3301 1058.4109 955.26764 1147.2814 C 942.18397 1154.44 942.18624 1154.4445 918.73435 1154.4445 C 910.46443 1149.8775 902.07465 1145.6773 894.05167 1141.4806 C 893.68138 1103.8341 893.17684 1066.432 892.80655 1029.1561 C 881.08062 994.34853 881.09159 994.35362 872.32798 936.09432 C 837.64398 921.77636 837.63514 921.76773 796.903 898.31591 C 784.31306 899.17992 772.22312 899.68878 760.0035 900.05908 C 759.63321 912.15526 759.14332 924.3684 758.77302 936.09432 C 765.93203 949.54828 765.93766 949.53919 822.96263 1000.2693 C 822.09862 1010.7609 821.58976 1020.7778 821.21946 1030.8992 C 804.0626 1041.3908 787.27836 1051.3786 770.4918 1061.4999 C 738.64667 1061.4999 721.00479 1067.4179 697.92327 1067.4179 L 686.18984 1055.6991 C 680.26518 1056.9334 674.46313 1057.7941 668.53843 1058.6581 C 661.87319 1035.2063 655.09133 1011.7493 648.42608 988.66769 C 650.5244 986.56936 652.11801 984.47771 653.84601 982.74971 C 648.41509 947.94223 648.43274 947.95149 634.97878 911.90969 C 630.41187 907.21934 626.1969 902.6444 622.00023 898.44774 C 596.94382 896.34945 571.76975 894.24315 546.5899 892.51511 C 538.6903 895.35403 530.66695 898.3272 523.13769 901.28955 C 523.13769 898.3272 523.13788 898.3272 499.68549 901.28955 C 500.9198 918.94014 501.78045 936.58887 502.64448 953.74573 C 510.54402 978.80214 518.56742 1003.9762 526.09668 1029.1561 L 526.09668 1064.3417 C 520.17202 1081.4986 520.1712 1081.5025 508.44527 1093.2285 C 507.21097 1099.1531 506.3503 1104.9409 505.48628 1110.8652 C 509.68295 1108.7668 513.39334 1106.6753 517.21971 1104.9473 C 522.28035 1109.1439 527.33052 1112.8397 531.89748 1116.666 C 562.01458 1080.2542 562.02276 1080.2605 575.47668 1073.1015 C 601.02685 1074.4593 626.20522 1075.1964 651.38507 1076.0605 C 647.1884 1078.1588 643.478 1079.767 639.65164 1081.4951 C 641.37968 1094.0848 642.62145 1106.2982 643.85576 1118.3946 C 668.54188 1131.4779 697.92154 1154.4354 780.49671 1202.6965 C 782.1013 1208.9914 783.83272 1215.298 785.06703 1221.5931 C 773.3411 1223.6914 761.61788 1225.7977 750.26226 1227.5257 L 750.26226 1244.6644 C 758.28524 1243.4301 765.80431 1242.5695 773.33361 1241.7054 C 787.15783 1233.6824 800.49986 1226.1632 813.95382 1218.6341 L 889.84756 1218.6341 C 913.29941 1206.908 913.31134 1206.9006 924.66698 1206.9006 C 909.97866 1219.4905 895.28232 1232.0744 881.08777 1244.6644 C 869.36185 1268.1164 869.36105 1268.1289 863.43636 1302.936 C 864.67068 1341.9403 865.54597 1380.8161 866.41 1419.45 L 878.12878 1419.45 C 873.93212 1421.5483 870.23635 1423.64 866.41 1425.368 C 861.84307 1426.9726 857.64275 1428.7185 853.4461 1429.9529 C 840.11561 1454.7625 827.03121 1479.4364 814.07101 1503.7519 C 799.87646 1511.2813 785.56119 1518.8147 771.73692 1525.9737 C 770.00888 1529.4298 768.76713 1532.7631 767.53281 1536.0958 z M 727.04443 1308.605 C 727.90846 1304.0381 728.78377 1298.9879 730.01807 1293.9272 C 725.82144 1283.0652 721.2465 1272.0684 716.55613 1260.8363 C 706.43478 1259.4784 696.44301 1257.8767 686.32168 1256.1488 C 677.55808 1273.7994 677.54724 1273.8076 677.54724 1285.5336 C 686.31084 1292.1988 695.2095 1298.9807 703.97309 1305.646 C 711.50237 1306.51 719.02142 1307.3707 727.04443 1308.605 z M 1419.7414 1116.5489 C 1418.8773 1100.9966 1418.0168 1085.5628 1416.7824 1070.0107 C 1412.5858 1063.7157 1408.0255 1057.4238 1403.3351 1051.1288 C 1391.6091 1047.7962 1379.3815 1044.4669 1367.2852 1040.6405 C 1363.0887 1043.9731 1358.5283 1047.3025 1353.8379 1051.1288 C 1354.2083 1067.0515 1354.7025 1082.9749 1355.5665 1098.8974 C 1373.217 1107.6611 1373.208 1107.6619 1419.7414 1116.5489 z M 1213.3444 1060.6356 C 1218.3988 1060.6718 1224.9001 1060.4061 1234.3503 1060.0204 C 1233.9801 1051.6271 1233.4901 1043.233 1233.1199 1034.8397 C 1221.7642 1033.1117 1210.0411 1031.0053 1198.3151 1028.907 C 1194.1184 1032.2396 1189.5434 1035.5837 1184.8531 1039.41 L 1184.8531 1054.0878 C 1198.0911 1059.0096 1202.2249 1060.5561 1213.3444 1060.6356 z M 756.42927 1020.5135 C 763.09452 1013.3545 763.09147 1013.3643 767.78183 988.18429 C 760.12912 988.30772 752.59541 988.30148 744.69584 988.30148 C 740.49922 991.63409 735.93892 994.96344 731.24854 998.78978 C 730.01421 1011.7501 730.00751 1011.7537 737.16653 1019.283 C 743.46149 1019.6533 749.76397 1020.1432 756.42927 1020.5135 z M 414.87083 995.88939 L 427.65895 992.00754 L 409.33371 930.87946 L 365.43223 925.88433 L 345.42242 930.87946 L 347.09235 944.78086 L 414.87083 995.88939 z " /><path
   id="path18"
   class="st1"
   d="m 604.60611,499.39278 c -5.06067,9.62764 -9.62764,19.25529 -14.31803,28.88293 0,23.45196 0,23.45196 7.15902,36.53568 60.85164,29.74695 121.57985,59.4939 181.93778,88.87056 13.82431,3.82637 27.27832,7.52931 40.6089,11.35568 50.73029,27.27832 101.09026,54.55664 151.32687,81.71154 33.07965,8.02304 66.28265,15.55235 99.36225,23.08165 34.8076,15.92265 69.6152,31.475 104.4229,47.02734 21.3536,3.82638 42.8306,7.52932 63.6905,11.35569 81.7116,23.45188 81.7116,23.45188 134.17,46.53355 44.8054,8.02304 89.2408,15.92264 133.676,23.45194 23.452,11.72598 23.452,11.72598 137.1322,46.53362 2.9624,-2.09833 5.9248,-4.19666 8.3933,-5.9247 -27.2782,-17.65069 -54.5566,-35.17793 -81.3412,-52.45832 -35.1779,-15.55235 -69.9855,-30.98126 -104.7931,-46.5336 -87.2661,-23.0816 -87.2661,-23.0816 -145.5256,-46.53356 -8.023,-8.02304 -15.9227,-15.92264 -23.452,-23.45196 -46.5336,-11.72597 -93.0672,-23.45195 -139.6009,-34.80763 -46.5335,-23.08166 -46.5335,-23.08166 -156.7577,-93.06721 -12.21972,-4.56698 -24.31596,-8.76364 -36.53565,-12.9603 -5.43098,-7.52932 -10.86195,-15.05862 -15.92265,-22.21764 0,-2.46862 0,-5.43098 0,-8.39333 -64.18435,-20.4896 -124.91257,-34.31391 -145.5256,-44.06498 0,-2.46863 0,-5.43098 0,-8.39334 -16.78667,-2.09832 -33.94362,-4.56695 -51.10057,-7.15901 -12.09627,-6.295 -24.31597,-12.58999 -36.53568,-19.25528 -1.72803,-3.82639 -3.33264,-7.52932 -5.06068,-11.72598 -9.25736,0 -9.25736,0 -23.94567,-14.1946 -17.15696,-0.86403 -34.80764,-1.72804 -52.45832,-2.96236 -3.82637,3.82637 -7.52931,7.52931 -11.72598,11.72597 -5.55441,-0.86401 -11.35567,-1.72803 -17.28039,-2.96235"
   style="stroke-width:1.23431" />
		
		
		
		
		
		
		
		
		
		
		
		
		
		
		
	<g
   id="g6" /></g>
</g>
</svg>
