<?xml version="1.0" encoding="UTF-8" standalone="no"?>
<!-- Created with Inkscape (http://www.inkscape.org/) -->

<svg
   version="1.1"
   id="svg1"
   width="60mm"
   height="60mm"
   viewBox="0 0 226.77165 226.77165"
   sodipodi:docname="mate.svg"
   inkscape:version="1.3.2 (091e20e, 2023-11-25, custom)"
   xmlns:inkscape="http://www.inkscape.org/namespaces/inkscape"
   xmlns:sodipodi="http://sodipodi.sourceforge.net/DTD/sodipodi-0.dtd"
   xmlns="http://www.w3.org/2000/svg"
   xmlns:svg="http://www.w3.org/2000/svg"
   xmlns:inkstitch="http://inkstitch.org/namespace">
  <sodipodi:namedview
     id="namedview1"
     pagecolor="#ffffff"
     bordercolor="#000000"
     borderopacity="0.25"
     inkscape:showpageshadow="2"
     inkscape:pageopacity="0.0"
     inkscape:pagecheckerboard="0"
     inkscape:deskcolor="#d1d1d1"
     inkscape:zoom="1.5800781"
     inkscape:cx="28.163164"
     inkscape:cy="91.451174"
     inkscape:window-width="1855"
     inkscape:window-height="1057"
     inkscape:window-x="57"
     inkscape:window-y="-8"
     inkscape:window-maximized="1"
     inkscape:current-layer="g1"
     inkscape:document-units="mm" />
  <metadata
     id="metadata9">
    <inkstitch:min_stitch_len_mm>0</inkstitch:min_stitch_len_mm>
    <inkstitch:collapse_len_mm>3</inkstitch:collapse_len_mm>
    <inkstitch:inkstitch_svg_version>1</inkstitch:inkstitch_svg_version>
  </metadata>
  <defs
     id="defs1" />
  <g
     inkscape:groupmode="layer"
     inkscape:label="Image"
     id="g1">
    <path
       id="path1"
       style="fill:none;stroke:#000000;stroke-width:0.41664px"
       d="m 88.178378,213.03751 -6.224141,-0.6008 -5.61101,-0.63373 -2.518521,-0.36141 -2.380831,-0.40071 -2.24183,-0.44139 -2.116377,-0.48547 -2.005004,-0.53302 -1.908411,-0.58433 -1.82717,-0.63968 -1.76169,-0.69965 -1.712307,-0.76479 -1.679004,-0.83571 -1.661252,-0.9126 -1.658526,-0.99585 -1.670276,-1.08536 -1.684325,-1.173 -2.965555,-2.23258 -2.758452,-2.29212 -2.593417,-2.39117 -2.462958,-2.52578 -2.366257,-2.69687 -2.301795,-2.90488 -2.267848,-3.14909 -2.259018,-3.42232 -2.23847,-3.70048 -2.060733,-3.75841 -1.884299,-3.81491 -1.706811,-3.86596 -1.52831,-3.91178 -1.348802,-3.95231 -1.168266,-3.98745 -0.986635,-4.01735 -0.804067,-4.04205 -0.620417,-4.0614 -0.435661,-4.07559 -0.249973,-4.08458 -0.0631,-4.0884 0.124809,-4.08709 0.313864,-4.08063 0.502472,-4.05634 0.568438,-3.15803 0.865262,-3.83268 1.124728,-4.36367 1.341795,-4.74187 1.517008,-4.974998 1.650746,-5.066187 1.742649,-5.016185 1.782033,-4.797142 0.527374,-1.249086 0.584954,-1.166425 0.656687,-1.11649 0.731375,-1.071123 0.809837,-1.029942 0.892371,-0.992232 0.979458,-0.957376 1.07092,-0.924582 1.16658,-0.893039 1.266082,-0.862265 1.36885,-0.831763 1.474573,-0.801311 1.58262,-0.770742 1.692766,-0.740078 1.804623,-0.709404 1.903194,-0.67349 3.68965,-1.136469 4.231482,-1.119365 4.685711,-1.08361 5.036609,-1.026184 5.287556,-0.948893 5.439829,-0.852474 5.494147,-0.737382 5.4359,-0.60234 4.314868,-0.327633 5.183321,-0.234902 5.765787,-0.140416 6.049113,-0.04499 6.03819,0.0506 5.73298,0.14579 5.12797,0.239618 4.25645,0.332779 8.78986,0.893205 5.0653,-4.644514 8.73399,-7.831959 9.523,-8.24507 9.33877,-7.828783 4.27741,-3.48374 3.85515,-3.059916 3.95482,-3.015953 3.41289,-2.411673 3.47326,-2.217088 4.14109,-2.426539 2.05484,-1.143962 0.24439,-0.110923 1.63629,1.769705 M 87.573192,219.30718 l -6.275055,-0.60571 -5.755925,-0.6501 -2.687727,-0.3857 -2.541937,-0.42783 -2.423369,-0.47713 -2.317255,-0.53155 -2.223057,-0.59099 -2.140079,-0.65526 -2.067746,-0.7239 -2.005567,-0.7965 -1.953291,-0.87243 -1.911014,-0.95118 -1.879105,-1.03228 -1.85808,-1.11568 -1.848748,-1.20133 -1.862863,-1.29734 -3.179467,-2.39362 -2.999595,-2.49249 -2.835815,-2.61467 -2.695544,-2.7643 -2.579675,-2.9401 -2.489729,-3.14206 -2.427351,-3.37058 -2.398015,-3.63289 -2.371983,-3.92119 -2.189827,-3.99385 -2.003951,-4.05716 -1.816629,-4.1147 -1.627904,-4.16669 -1.437768,-4.213 -1.246246,-4.25361 -1.053234,-4.28853 -0.8589092,-4.31774 -0.6631665,-4.34124 -0.4659482,-4.35894 -0.2674936,-4.37088 -0.067557,-4.37706 0.1336739,-4.37736 0.3362613,-4.37183 0.5417104,-4.37311 0.6235682,-3.4643 0.9167067,-4.06056 1.166959,-4.52751 1.37928,-4.874346 1.553044,-5.093185 1.688206,-5.181154 1.784707,-5.137245 1.853483,-4.989479 0.661134,-1.565899 0.771625,-1.538651 0.871131,-1.481092 0.970599,-1.421467 1.069541,-1.360238 1.167248,-1.29787 1.263647,-1.23515 1.35859,-1.17295 1.452502,-1.111915 1.54557,-1.052612 1.638374,-0.995536 1.73147,-0.94091 1.825078,-0.888818 1.919751,-0.839321 2.015798,-0.792416 2.128131,-0.753085 3.935024,-1.212047 4.449293,-1.176986 4.862508,-1.124499 5.189983,-1.057432 5.428755,-0.974233 5.577212,-0.873998 5.634887,-0.756272 5.616306,-0.622331 4.51923,-0.343157 5.345168,-0.242234 5.884963,-0.143316 6.152186,-0.04576 6.14169,0.05147 5.85361,0.148857 5.29344,0.247351 4.42783,0.346178 6.0516,0.614948 3.00843,-2.75851 8.8008,-7.891863 9.60235,-8.313784 9.41144,-7.889704 4.34279,-3.536976 3.93402,-3.122519 4.09441,-3.122403 3.6274,-2.563256 3.69928,-2.361367 4.30454,-2.5223102 2.34104,-1.3032969 1.71766,-0.7796066 1.12997,-0.2574177 1.15373,0.018553 0.97125,0.2646831 0.93733,0.4157562 0.81036,0.6092695 0.80233,0.7706321 1.82122,1.9697145 M 57.012654,204.71028 l -4.536479,8.28789 m -1.4896,-12.00415 -5.399561,7.75329 M 27.787812,174.18188 19.5032,178.72433 m -1.697943,-31.57102 -9.2666431,1.84337 M 21.987546,97.140803 12.950147,94.385064 m 61.97985,-33.290192 -1.256798,-9.364247 m 12.302716,8.126564 -0.715362,-9.421093 m 19.361387,8.83796 -0.0703,-9.44795 m 47.32377,-3.479997 -6.18441,-7.142951 m 17.66163,-2.685297 -6.06984,-7.240564"
       inkstitch:satin_column="true" />
    <path
       id="path2"
       style="fill:none;stroke:#000000;stroke-width:0.41664px"
       d="m 194.68952,14.624331 2.28672,2.65538 2.58757,3.150594 3.23211,4.07447 1.88551,2.538912 0.46383,0.715276 0.034,0.06364 -0.40633,0.325882 -1.18126,0.838894 -4.14168,2.761158 -5.55946,3.736219 -5.78064,4.017148 -5.86901,4.204647 -5.28264,3.898054 -0.56231,0.414927 -5.58818,4.266726 -5.79172,4.539983 -4.6236,3.724906 -1.51632,1.277572 -1.86829,1.784973 0.40829,2.530383 0.79756,1.053774 0.95833,0.87391 1.18851,0.900134 1.32599,0.89518 1.49351,1.037058 0.87414,0.702117 0.52156,0.418915 1.37338,1.258615 1.3469,1.394168 1.31624,1.527119 1.28141,1.657006 1.24261,1.783485 1.19992,1.906219 1.15353,2.025166 1.10368,2.14007 1.05042,2.250955 0.99404,2.35767 0.93454,2.460241 0.87208,2.558602 0.80676,2.652784 0.74025,2.748757 0.64545,2.6872 0.53868,2.54967 0.44156,2.48332 0.3559,2.49982 0.28063,2.59991 0.21453,2.78164 0.1567,3.04183 0.10681,3.36996 0.0552,4.35333 -0.0487,4.15592 -0.15584,3.97888 -0.26616,3.81862 -0.3796,3.67561 -0.49639,3.55024 -0.61655,3.44311 -0.74041,3.3545 -0.86837,3.28467 -1.00077,3.23388 -1.13805,3.20193 -1.28052,3.18872 -1.42831,3.19365 -1.58156,3.21644 -1.74014,3.25644 -1.90237,3.3106 -1.33712,2.17506 -1.39761,2.12567 -1.45402,2.07248 -1.50521,2.01392 -1.55107,1.9499 -1.59161,1.88049 -1.62668,1.80579 -1.65622,1.72569 -1.68012,1.64031 -1.69817,1.54965 -1.71042,1.45374 -1.71648,1.35275 -1.71628,1.24667 -1.70963,1.13569 -1.69602,1.02002 -1.64789,0.8851 -2.02037,0.90287 -2.7061,1.02587 -3.21187,1.08646 -3.51654,1.08332 -3.63279,1.02361 -3.5631,0.90933 -3.30311,0.74093 -2.80781,0.51291 -2.11651,0.20684 -3.55223,0.204 -9.48819,0.32606 -9.542165,0.13467 -3.622584,-0.0305 -2.343245,-0.10888 M 199.4624,10.514047 l 2.33472,2.711108 2.66818,3.248745 3.32764,4.194915 2.06456,2.779996 0.71818,1.107523 0.54681,1.024135 0.39273,1.091133 0.13363,1.044099 -0.0357,1.111244 -0.27964,1.25185 -0.71783,1.236624 -0.94209,0.976929 -1.10354,0.885049 -1.40715,0.99932 -4.20929,2.806235 -5.509,3.702302 -5.7032,3.963339 -5.79632,4.152566 -5.7678,4.256051 -5.51528,4.211063 -0.37588,0.294647 -5.35124,4.194706 -3.64946,2.940106 1.66756,1.157917 1.72702,1.38714 0.28606,0.262158 1.37986,1.264548 1.60433,1.660635 1.54224,1.789335 1.47958,1.913264 1.4163,2.03277 1.35225,2.148186 1.28707,2.259642 1.22083,2.367223 1.15319,2.471158 1.08408,2.571264 1.01341,2.667845 0.94097,2.760722 0.86672,2.849946 0.78898,2.929716 0.6858,2.855189 0.57759,2.73382 0.47838,2.69044 0.38629,2.71326 0.30242,2.80174 0.22811,2.95766 0.16403,3.18427 0.11068,3.49209 0.0569,4.49002 -0.0506,4.31912 -0.16297,4.16101 -0.28013,4.01896 -0.40203,3.89282 -0.52879,3.78196 -0.66003,3.68593 -0.79558,3.60447 -0.93509,3.53705 -1.0781,3.48377 -1.2243,3.44456 -1.3733,3.41977 -1.52492,3.40968 -1.67915,3.41489 -1.83597,3.43579 -1.99721,3.47563 -1.4362,2.33623 -1.50245,2.28514 -1.56295,2.22773 -1.61868,2.16573 -1.6698,2.09917 -1.71634,2.02785 -1.75836,1.95197 -1.79606,1.87141 -1.8294,1.78605 -1.8586,1.69606 -1.88385,1.60114 -1.90512,1.50141 -1.9229,1.39674 -1.93723,1.2869 -1.94832,1.17176 -1.98429,1.06578 -2.39585,1.07066 -2.9832,1.13092 -3.40138,1.15056 -3.67166,1.13111 -3.78123,1.06543 -3.72785,0.95138 -3.51578,0.78864 -3.1898,0.58269 -2.5032,0.24463 -3.75054,0.21539 -9.62434,0.33073 -9.676847,0.13657 -3.813271,-0.0321 -2.462863,-0.11443 M 190.11199,36.192974 l 5.39177,7.758706 m -25.16486,6.711318 5.73373,7.509529 m 2.676,44.141693 9.18692,-2.20664 m -6.74564,25.25766 9.44745,-0.11973 m -9.76373,11.86962 9.42534,0.65697 m -12.13844,16.42913 9.1344,2.41487 m -15.24331,13.71686 8.47865,4.16906 m -12.65484,3.52001 8.13904,4.79841 m -11.21058,0.001 7.73451,5.42641 m -13.02864,1.44906 7.21181,6.10397 m -35.04727,11.75729 2.6489,9.06929 m -34.370696,-5.12119 0.133326,9.44728"
       inkstitch:satin_column="true" />
    <path
       id="path3"
       style="fill:none;stroke:#000000;stroke-width:0.41664px"
       d="m 119.68171,70.208573 -4.18205,-0.512196 -4.33961,-0.422998 -4.47706,-0.315825 -4.62931,-0.195233 -4.79634,-0.06123 -4.978172,0.08597 -5.174967,0.246171 -5.386857,0.419336 -3.527132,0.380367 -3.410843,0.273416 -3.470114,0.260021 -3.577482,0.331341 -3.700908,0.487372 -1.949037,0.336371 -1.980331,0.406373 -2.033944,0.490265 -2.091224,0.584679 -2.152362,0.68933 -2.065933,0.748844 -1.894716,0.551089 -1.780485,0.607695 -1.550801,0.615989 -1.377723,0.625647 -2.240408,1.16613 -2.487216,1.331343 -1.015403,0.973487 -0.750382,0.928307 -0.636452,1.202086 -0.318396,1.541188 0.268003,1.672221 0.810218,1.418272 1.0846,1.056836 1.14359,0.749727 1.988214,1.153059 1.137781,0.58937 1.355196,0.611319 1.668163,0.6546 2.107697,0.734807 6.154292,1.885683 3.562663,0.460228 3.437841,0.359481 3.535197,0.289161 3.631138,0.220394 3.725714,0.153061 3.818988,0.08714 3.910773,0.02254 3.947025,-0.04016 6.369307,0.05886 6.322418,-0.04141 6.22936,-0.130471 6.15469,-0.207882 12.08371,-0.598712 11.98596,-0.771171 3.41088,-0.425877 2.96631,-0.498318 2.62457,-0.561243 2.36466,-0.61184 4.06953,-1.260368 4.17585,-1.352655 1.34423,-0.748231 1.04039,-0.791441 0.83724,-0.904533 0.59676,-0.947056 0.36682,-0.857707 0.19192,-0.602649 0.69332,-2.032378 -0.97423,-2.520638 -0.47617,-0.90852 -0.58354,-0.87024 -0.7364,-0.83803 -0.89669,-0.759638 -1.04398,-0.637663 -0.92054,-0.386175 -0.97878,-0.44528 -0.7858,-0.286561 13.6116,-10.480938 m -46.12056,11.817794 -4.10483,-0.502739 -4.17835,-0.407282 -4.3042,-0.303634 -4.44786,-0.187576 -4.609218,-0.05885 -4.788284,0.08269 -4.984879,0.237131 -5.198795,0.404695 -3.519915,0.379584 -3.513295,0.281632 -3.431275,0.257112 -3.401402,0.315034 -3.455631,0.455067 -1.727227,0.298089 -1.777844,0.364826 -1.818891,0.438426 -1.868522,0.522417 -1.927042,0.617168 -2.145629,0.777725 -1.951703,0.567672 -1.497137,0.510984 -1.265769,0.502772 -1.085701,0.49303 -2.058234,1.071311 -0.743906,0.398195 0.920532,0.533861 0.853091,0.441897 1.056565,0.476611 1.409222,0.552989 1.879796,0.655354 5.52979,1.694337 2.958168,0.382134 3.291059,0.34414 3.39844,0.27797 3.503653,0.212661 3.606731,0.14817 3.707861,0.0846 3.806897,0.02196 3.957966,-0.04025 6.380706,0.05897 6.227358,-0.04079 6.143684,-0.128679 6.06477,-0.204841 11.98782,-0.593962 11.7511,-0.756064 3.09145,-0.385988 2.69775,-0.453204 2.35735,-0.504105 2.09122,-0.541086 3.88879,-1.204389 3.55207,-1.150601 0.41433,-0.230623 0.24636,-0.187413 0.0689,-0.0744 0.02,-0.03179 0.0518,-0.121146 0.0953,-0.299218 -0.0199,-0.05143 -0.15146,-0.288986 -0.16525,-0.246438 -0.15904,-0.180989 -0.17074,-0.144636 -0.22094,-0.134954 -0.5672,-0.237951 -0.84243,-0.383251 -0.70451,-0.256912 -1.72531,-0.480886 -1.89311,-0.447005 -7.94342,-2.207891 23.63599,-18.199725 m -48.52444,8.186182 -0.91661,9.403636 m -6.45708,-9.91902 -0.3981,9.439818 m -4.49295,-9.596316 -0.12061,9.447434 m -4.775977,-9.457508 0.163135,9.446796 m -5.059028,-9.31328 0.448942,9.437535 m -5.338657,-9.166082 0.733265,9.419711 m -10.21578,-8.571519 0.754956,9.417994 m -25.580213,17.100791 2.76793,-9.033664 m 17.226738,11.595154 0.387821,-9.440243 m 9.362002,9.625885 -0.09611,-9.447717 m 16.789604,9.422893 -0.197846,-9.446133 m 24.089778,8.534388 -0.46756,-9.436626 m 15.04491,8.382935 -1.17059,-9.375409 m 24.08532,-6.77691 -8.4843,4.157574 m 5.82578,-10.547067 -5.76429,-7.486089"
       inkstitch:satin_column="true" />
    <path
       id="path4"
       style="fill:none;stroke:#000000;stroke-width:0.41664px"
       d="M 132.83373,52.50023 91.766681,90.609378 M 137.17213,57.066754 96.105089,95.175902 m 17.236201,-26.329027 6.50762,6.849787"
       inkstitch:satin_column="true"
       sodipodi:nodetypes="cccccc" />
    <path
       id="path5"
       style="fill:none;stroke:#000000;stroke-width:0.41664px"
       d="m 143.8998,72.445455 -18.08584,15.661992 m 22.20926,-10.90044 -18.08584,15.661992 m 3.88865,-13.782938 6.18512,7.142332"
       inkstitch:satin_column="true" />
    <path
       id="path6"
       style="fill:none;stroke:#000000;stroke-width:0.41664px"
       d="m 98.368152,174.27527 -2.528596,-1.19222 -2.461221,-1.2643 -2.385767,-1.35009 -2.302669,-1.44965 -2.213024,-1.56315 -2.117376,-1.69104 -2.103107,-1.91291 -2.179818,-1.96011 -1.933588,-1.99116 -1.788077,-2.09786 -1.654222,-2.2006 -1.531056,-2.299 -1.41815,-2.39255 -1.315049,-2.48047 -1.320694,-2.77016 -0.476141,-0.77082 -0.252371,-0.5056 -0.201837,-0.51415 -0.141516,-0.4759 -0.210799,-1.2044 -0.05526,-1.25903 0.07281,-1.38475 0.175139,-1.49637 0.416498,-2.7137 1.022184,-1.85376 0.644509,-1.06984 0.686114,-1.02635 0.743861,-0.97739 0.82568,-0.93507 0.935181,-0.90012 0.717621,-0.58114 1.918268,-0.60594 2.379889,-0.62119 1.073414,-0.20127 1.05769,-0.12827 1.013156,-0.0426 0.735752,0.0368 1.838078,0.57614 2.045752,0.80318 1.981826,0.94069 1.922477,1.07599 1.866921,1.20913 1.814467,1.3402 1.764486,1.46888 3.800785,3.53188 4.830768,-4.00624 1.32586,-1.07145 1.33693,-1.01112 1.38408,-0.94564 1.46757,-0.8757 1.59069,-0.8015 1.61528,-0.66342 0.97664,-0.21284 1.18021,-0.30612 1.02897,-0.24756 0.95786,-0.15962 0.99713,-0.0554 1.16286,0.0828 1.44197,0.2838 1.70987,0.53271 0.77038,0.37472 0.82059,0.47761 0.76985,0.52509 0.72256,0.56861 0.67818,0.60807 0.60765,0.61438 1.18065,1.40502 0.99551,1.44021 0.85053,1.46025 0.71699,1.42637 0.3409,0.76341 -0.004,1.40985 -0.16747,1.7878 -0.29375,1.69187 -0.38649,1.63703 -0.92202,3.31433 -0.44349,1.73094 -0.20877,1.06682 -2.10744,3.0993 -2.53056,3.37026 -2.62594,3.19671 -2.63069,2.95517 -1.90241,1.70367 -2.00843,1.65524 -2.02858,1.53467 -2.04848,1.41837 -2.06841,1.30636 -2.08835,1.19859 -2.10836,1.09488 -2.18706,1.02248 m -3.473133,7.41551 -2.696852,-1.18216 -2.703567,-1.27471 -2.669616,-1.37135 -2.62516,-1.48557 -2.569268,-1.61748 -2.50134,-1.7668 -2.420415,-1.93306 -2.239364,-2.03684 -2.325059,-2.09072 -2.224561,-2.2908 -2.045843,-2.40028 -1.878217,-2.49859 -1.722318,-2.58619 -1.578824,-2.66362 -1.448106,-2.73145 -1.231309,-2.58266 -0.446133,-0.72225 -0.504664,-1.01105 -0.402124,-1.02434 -0.321954,-1.08267 -0.344082,-1.96597 -0.08648,-1.97026 0.09935,-1.88946 0.211669,-1.8085 0.603353,-3.93112 1.620729,-2.93927 0.783233,-1.3001 0.875785,-1.31007 0.999694,-1.31355 1.146777,-1.29871 1.313757,-1.26449 1.855297,-1.50247 3.209152,-1.0137 2.747532,-0.71715 1.490337,-0.27945 1.505978,-0.18263 1.550596,-0.0652 1.827916,0.0915 2.81629,0.88276 2.454625,0.96371 2.36931,1.1246 2.28417,1.27843 2.1999,1.42479 2.11728,1.56386 1.90489,1.58576 0.611649,-0.50725 1.43571,-1.16023 1.53864,-1.16367 1.66897,-1.1403 1.82647,-1.08984 2.00791,-1.01172 2.3513,-0.96572 1.39629,-0.3043 1.11456,-0.28909 1.30055,-0.3129 1.5194,-0.25319 1.74086,-0.0967 1.94868,0.13881 2.1563,0.4244 2.48795,0.77512 1.40873,0.68522 1.21785,0.70882 1.13329,0.77299 1.05024,0.82647 0.96946,0.86924 0.92009,0.93028 1.53559,1.82743 1.30268,1.88458 1.07101,1.83879 0.86899,1.72876 0.95093,2.12948 -0.009,3.04712 -0.21717,2.31826 -0.36838,2.12164 -0.45845,1.94183 -0.93803,3.37191 -0.38245,1.49267 -0.42161,2.15448 -2.91565,4.28789 -2.70177,3.59829 -2.79255,3.39953 -2.95087,3.31485 -2.26432,2.02776 -2.20938,1.82087 -2.23882,1.6937 -2.2669,1.56961 -2.29364,1.44862 -2.31878,1.33084 -2.34236,1.21639 -2.3059,1.07804 m -16.076992,-12.51045 -5.450987,7.71721 m 1.275447,-11.06565 -6.357354,6.98947 m 2.228395,-10.83736 -6.778177,6.58216 m 3.315724,-10.64468 -7.552356,5.67719 m 4.552866,-10.18863 -8.127702,4.81757 m 3.716115,-14.86193 -9.435172,-0.4961 m 12.081468,-8.2282 -7.85474,-5.25087 m 14.452616,1.13391 -1.741251,-9.28637 m 11.683224,11.78611 4.614499,-8.24469 m 15.777767,9.11852 -4.84134,-8.11357 m 10.84195,5.5366 -2.37215,-9.14557 m 7.58329,8.94505 2.81036,-9.02056 m 2.0035,11.75669 6.71757,-6.644 m -3.71345,20.0164 9.10254,2.53224 m -15.67,9.38756 7.3008,5.99725 m -16.35826,2.90275 5.70033,7.53491 m -13.37992,-2.67064 4.35435,8.385"
       inkstitch:satin_column="true" />
  </g>
</svg>
