<?xml version="1.0" encoding="UTF-8" standalone="no"?>
<!-- Created with Inkscape (http://www.inkscape.org/) -->

<svg
   version="1.1"
   id="svg1"
   width="335.21945"
   height="334.67004"
   viewBox="0 0 335.21945 334.67004"
   sodipodi:docname="patricio-rey-redondos-logo.svg"
   inkscape:version="1.3.2 (091e20e, 2023-11-25, custom)"
   xmlns:inkscape="http://www.inkscape.org/namespaces/inkscape"
   xmlns:sodipodi="http://sodipodi.sourceforge.net/DTD/sodipodi-0.dtd"
   xmlns="http://www.w3.org/2000/svg"
   xmlns:svg="http://www.w3.org/2000/svg"
   xmlns:inkstitch="http://inkstitch.org/namespace">
  <sodipodi:namedview
     id="namedview1"
     pagecolor="#ff00d6"
     bordercolor="#000000"
     borderopacity="0.25"
     inkscape:showpageshadow="2"
     inkscape:pageopacity="0.0"
     inkscape:pagecheckerboard="0"
     inkscape:deskcolor="#d1d1d1"
     inkscape:zoom="1.9681139"
     inkscape:cx="139.98174"
     inkscape:cy="180.12169"
     inkscape:window-width="1855"
     inkscape:window-height="1057"
     inkscape:window-x="57"
     inkscape:window-y="-8"
     inkscape:window-maximized="1"
     inkscape:current-layer="g2" />
  <metadata
     id="metadata13">
    <inkstitch:min_stitch_len_mm>0</inkstitch:min_stitch_len_mm>
    <inkstitch:collapse_len_mm>3</inkstitch:collapse_len_mm>
    <inkstitch:inkstitch_svg_version>1</inkstitch:inkstitch_svg_version>
  </metadata>
  <defs
     id="defs1" />
  <g
     inkscape:groupmode="layer"
     inkscape:label="Image"
     id="g1"
     transform="translate(15.0522, 15.4706)">
    <g
       id="g2"
       transform="translate(2.15569, -0.718563)">
      <path
         style="fill:none;stroke:#000000;stroke-width:3.91842;stroke-dasharray:none"
         id="path25"
         sodipodi:type="arc"
         sodipodi:cx="149.93895"
         sodipodi:cy="151.0528"
         sodipodi:rx="155.78725"
         sodipodi:ry="155.78725"
         sodipodi:start="0"
         sodipodi:end="1.0846599e-06"
         sodipodi:open="true"
         sodipodi:arc-type="arc"
         d="m 305.7262,151.0528 a 155.78725,155.78725 0 1 0 0,1.6e-4" />
      <path
         style="display:inline;fill:#030303"
         d="M 132.57208,298.97108 C 99.496374,295.18309 69.083055,280.20579 44.429486,255.5645 17.961494,229.1097 3.8362762,198.41445 0.98651961,161.15941 -2.3607739,117.40004 13.1905,75.657784 44.453727,44.486056 70.712904,18.303731 103.77802,3.1852411 139.30053,1.1188862 c 46.04794,-2.6786228 84.38273,11.6181358 116.27218,43.3631008 18.01989,17.938238 28.66033,34.987332 36.45138,58.405733 23.2732,69.95476 -7.7004,146.29368 -73.02409,179.97843 -21.24602,10.95571 -40.4777,15.92114 -64.31522,16.60559 -7.80163,0.22401 -17.75234,-0.001 -22.1127,-0.50066 z M 69.653762,249.50193 c 4.306334,-0.82394 11.950167,-2.8708 16.986294,-4.54859 l 9.156596,-3.05052 -0.427842,-3.70141 c -0.235313,-2.03578 -1.308757,-12.91456 -2.385432,-24.17508 L 91.025788,193.55265 77.886149,180.38591 C 68.600203,171.08082 64.984953,166.82042 65.559512,165.85959 67.078983,163.31857 72.332067,157 72.925128,157 c 0.684675,0 24.417483,25.80236 24.892645,27.06334 0.174774,0.46381 -0.837726,2.54376 -2.25,4.62211 -2.639555,3.88446 -3.102715,7.44333 -1.909019,14.66873 l 0.636744,3.85418 4.102251,-0.638 c 6.705381,-1.04286 33.181631,-10.33656 41.818781,-14.67923 9.91861,-4.98698 16.37789,-11.29055 20.82414,-20.32218 2.92552,-5.94258 3.43156,-8.08898 3.76445,-15.96721 0.31747,-7.51342 0.01,-10.09672 -1.76402,-14.80337 -4.19395,-11.12924 -16.11065,-20.53859 -30.5411,-24.11505 -20.76716,-5.14695 -61.958807,-1.83649 -104.133111,8.3689 -10.313644,2.49571 -13.358675,4.13802 -13.388262,7.22083 -0.01175,1.22482 7.277966,28.43945 16.199382,60.47695 L 47.398763,251 h 7.21265 c 3.966958,0 10.736015,-0.67413 15.042349,-1.49807 z M 270.50485,216.75 c -1.13681,-4.79662 -6.43938,-33.14541 -6.22813,-33.29705 0.1228,-0.0881 2.24828,-1.32954 4.72328,-2.75866 5.87063,-3.38982 12.50699,-10.23718 14.45266,-14.91217 3.51479,-8.44521 1.07851,-20.72284 -6.38531,-32.17875 -9.57087,-14.68993 -23.1016,-22.4993 -50.56735,-29.18535 -18.03294,-4.38979 -47.5,-7.135134 -47.5,-4.425399 0,0.545939 -4.05746,22.438489 -9.01657,48.650099 -4.95911,26.21161 -8.89661,47.7577 -8.75,47.8802 1.18895,0.9934 7.39385,3.56742 12.76657,5.29604 6.2314,2.00488 28.96671,6.62883 29.44931,5.98944 0.12802,-0.16962 2.62189,-9.63068 5.54193,-21.02458 l 5.30916,-20.71618 -7.6502,-9.41466 C 202.44259,151.47491 199,147.03013 199,146.77569 c 0,-0.25444 2.2171,-2.3321 4.92689,-4.61703 l 4.92689,-4.15442 6.39354,9.24788 6.39354,9.24788 -0.76862,20 c -0.42274,11 -0.93032,23.93336 -1.12796,28.74079 l -0.35935,8.7408 4.08581,1.56039 c 6.59863,2.52004 13.01212,3.21565 30.79831,3.3404 L 271.0381,219 Z M 134.7029,105.19352 c 28.20249,-9.573066 48.55579,-26.867575 43.26152,-36.759993 -1.62367,-3.033859 -7.67346,-5.399663 -14.23466,-5.566543 -4.63679,-0.117933 -4.33618,-0.227267 2.65118,-0.964276 4.33452,-0.457194 8.01257,-0.962887 8.17345,-1.123763 0.16087,-0.160876 -0.0284,-1.861734 -0.42071,-3.779685 -0.47923,-2.343202 -1.35626,-3.60648 -2.67344,-3.850831 -4.6411,-0.860975 -6.02185,-5.425221 -2.58274,-8.537571 1.62728,-1.472669 1.94096,-3.659027 2.3536,-16.404987 0.31591,-9.758054 1.00477,-16.176704 2.04742,-19.0774709 l 1.57134,-4.3715999 -4.04589,0.5426668 c -6.78319,0.9098179 -13.41215,8.955438 -16.84963,20.450533 -0.699,2.3375 -1.55936,4.25 -1.91191,4.25 -0.35255,0 -3.25961,-3.143625 -6.46013,-6.985834 -3.20052,-3.842208 -6.151,-6.780723 -6.55663,-6.530033 -0.40562,0.250691 -2.18561,4.292629 -3.95553,8.982086 l -3.21803,8.526285 -3.76935,-4.746252 C 118.02817,16.585821 106.8307,9.8842875 103.14719,14.322649 c -2.45255,2.955136 -4.406598,14.067791 -3.819762,21.722908 0.318141,4.150057 0.871842,8.310167 1.230452,9.24469 0.55793,1.453928 -0.33723,1.321301 -6.202929,-0.919027 -11.0514,-4.22094 -10.044469,-4.748383 -10.535338,5.518551 -0.23816,4.981332 -0.671168,9.295117 -0.962239,9.586188 -0.291071,0.291071 -3.148502,-0.371945 -6.349847,-1.473369 -6.988996,-2.404568 -14.228793,-2.586551 -17.300732,-0.434882 -2.223227,1.557209 -2.189556,1.604863 5.027494,7.115386 3.996141,3.051223 9.405287,7.618382 12.020324,10.149243 4.176658,4.042216 4.683984,4.978048 4.173578,7.698745 -0.78293,4.173379 1.708762,6.488993 4.862863,4.519225 1.932675,-1.206976 2.408719,-1.005375 5.170679,2.189742 l 3.042028,3.519107 6.179523,-5.148062 c 3.398736,-2.831434 9.697886,-7.212802 13.998116,-9.736373 7.84673,-4.604821 22.03159,-10.89064 24.49908,-10.856423 0.72574,0.01006 -2.39844,1.549826 -6.94262,3.421693 -20.7079,8.530137 -35.787504,21.6663 -35.033864,30.518739 0.228542,2.6845 1.093689,4.01915 3.796004,5.85602 3.28195,2.23086 4.18531,2.35178 14.5,1.94084 8.9205,-0.35539 12.73977,-1.02878 20.2029,-3.56207 z m -31.9529,1.68744 c -13.721238,-5.22716 25.83263,-31.6216 56.164,-37.478445 20.62425,-3.982448 20.53403,5.938341 -0.17584,19.33549 C 139.7569,101.01692 111.44222,110.19229 102.75,106.88096 Z m 21.48447,-3.73637 c 6.79999,-1.88558 18.76538,-8.311307 16.73611,-8.98773 -0.61151,-0.203837 -4.66855,1.255204 -9.01564,3.242313 C 124.5064,100.80399 114.4039,104 111.0899,104 c -3.09326,0 0.58855,-1.72172 6.29472,-2.9436 9.88014,-2.115655 29.21725,-11.124228 25.4399,-11.851678 -0.90749,-0.174767 -4.72676,1.2307 -8.48725,3.123261 -6.40999,3.225978 -19.13753,7.709487 -21.69261,7.641608 -2.03081,-0.05395 1.78433,-1.794661 11.70371,-5.339985 9.99571,-3.572605 19.91831,-8.707381 18.03775,-9.334232 -0.58631,-0.195439 -4.04954,0.983268 -7.69605,2.619349 C 127.02115,91.355531 121,93.179791 121,92.062472 c 0,-0.426973 3.78882,-2.241095 8.41959,-4.031385 C 138.65,84.462546 144,81.547171 144,80.085781 c 0,-0.518989 -2.5875,0.368696 -5.75,1.972634 -6.09764,3.092562 -8.85308,3.632357 -9.44697,1.850676 -0.4266,-1.279803 -13.22254,7.067326 -20.05899,13.08501 C 106.13482,99.290831 104,102.03173 104,103.08499 c 0,1.69815 0.76684,1.91501 6.77164,1.91501 3.72441,0 9.78268,-0.83493 13.46283,-1.85541 z M 92.38854,76.570137 C 91.392872,73.975466 92.788423,71.830952 95.245529,72.179863 96.898262,72.414553 97.5,73.167272 97.5,75 c 0,1.832728 -0.601738,2.585447 -2.254471,2.820137 -1.352279,0.192025 -2.495586,-0.308199 -2.856989,-1.25 z M 120.17031,61.25 c -1.31669,-2.560079 -0.34473,-4.25 2.44441,-4.25 2.8742,0 4.13364,2.393356 2.37471,4.512735 -1.65284,1.99155 -3.7176,1.87898 -4.81912,-0.262735 z m 28.21823,-10.679863 c -0.99567,-2.594671 0.39988,-4.739185 2.85699,-4.390274 C 152.89826,46.414553 153.5,47.167272 153.5,49 c 0,1.832728 -0.60174,2.585447 -2.25447,2.820137 -1.35228,0.192025 -2.49559,-0.308199 -2.85699,-1.25 z m 27.68103,-1.15396 c 0.95388,-1.149357 1.02615,-2.040878 0.26345,-3.25 -1.33724,-2.119977 -4.31145,-2.147485 -5.63318,-0.0521 -2.38692,3.78405 2.48388,6.779334 5.36973,3.3021 z"
         id="path2" />
      <path
         id="path14"
         style="fill:none;stroke:#ffffff;stroke-width:1.05042px"
         d="m 133.01824,299.51648 -6.29881,-0.86207 -6.06173,-1.09802 -5.98931,-1.3548 -5.91317,-1.60937 -5.83342,-1.86204 -5.7498,-2.11262 -5.662361,-2.36144 -5.571073,-2.60847 -5.475743,-2.85367 -5.376341,-3.09736 -5.273011,-3.33943 -5.165362,-3.57992 -5.053371,-3.81877 -4.936977,-4.05628 -4.816236,-4.29193 -4.689842,-4.52555 -4.830901,-5.04382 -4.531098,-5.13444 -4.234481,-5.22823 -3.941859,-5.3263 -3.65319,-5.42892 -3.368606,-5.53696 -3.087756,-5.65039 -2.810398,-5.76974 -2.53612,-5.89545 -2.264579,-6.02778 -1.9954599,-6.16677 -1.7281118,-6.31204 -1.4619799,-6.46375 -1.1968648,-6.62168 -0.9325152,-6.78528 -0.6656284,-6.92591 -0.4068557,-8.21123 0.031135,-8.11859 0.4626775,-8.04098 0.8891784,-7.95201 1.3105845,-7.85165 1.7274199,-7.73964 2.1393807,-7.61622 2.5470117,-7.481075 2.950304,-7.3344 3.349485,-7.176012 3.744486,-7.005996 4.135584,-6.824012 4.522722,-6.629985 4.906399,-6.424079 5.286262,-6.20596 5.676167,-5.989767 4.983785,-4.780661 5.145987,-4.5268 5.287374,-4.256959 5.422436,-3.984897 5.551397,-3.710807 5.67408,-3.434419 5.790871,-3.155876 5.901634,-2.87512 6.006633,-2.591892 6.105987,-2.3064545 6.19955,-2.0185098 6.28751,-1.7279459 6.37004,-1.4348656 6.44699,-1.1389124 6.51865,-0.8401171 6.58674,-0.5385008 8.58964,-0.3060579 8.58328,0.098308 m -25.75896,313.647923 -6.63659,-0.90831 -6.73338,-1.21966 -6.65594,-1.5056 -6.5727,-1.78886 -6.483688,-2.06962 -6.388883,-2.34743 -6.288469,-2.62255 -6.182253,-2.89463 -6.070652,-3.16371 -5.953473,-3.42985 -5.831,-3.69283 -5.703202,-3.95267 -5.570309,-4.2094 -5.431964,-4.46296 -5.288956,-4.7132 -5.141533,-4.96141 -5.271355,-5.5037 -4.967966,-5.62947 -4.664536,-5.75925 -4.360466,-5.89189 -4.055589,-6.02693 -3.7501875,-6.16413 -3.4441995,-6.3027 -3.13807504,-6.44246 -2.83201346,-6.58327 -2.5263606,-6.7246 -2.2218505,-6.8664 -1.9189234,-7.00893 -1.617715,-7.15234 -1.318846,-7.29649 -1.022773,-7.44214 -0.732175,-7.61828 -0.44625,-9.00645 0.03449,-8.97343 0.512031,-8.89859 0.984972,-8.80885 1.452944,-8.70441 1.9160509,-8.58485 2.3737597,-8.4506 2.8263631,-8.301549 3.27344828,-8.13774 3.71500692,-7.959114 4.1506802,-7.765994 4.5806089,-7.558326 5.004437,-7.336179 5.422498,-7.099797 5.834103,-6.849125 6.22623,-6.570213 5.504035,-5.279724 5.662822,-4.981433 5.829218,-4.693216 5.988518,-4.400905 6.140709,-4.104731 6.285553,-3.8045345 6.42308,-3.5004034 6.553216,-3.19255617 6.675908,-2.88068833 6.790823,-2.5651367 6.898138,-2.2459642 6.99758,-1.9230973 7.0893,-1.5968734 7.17315,-1.267195 7.24909,-0.934256 7.31497,-0.598044 9.3235,-0.332203 8.95477,0.102518 m -32.26344,308.49605 -4.22062,23.48943 m -12.9422,-27.72675 -7.20246,22.74677 M 90.897285,283.58001 80.850212,305.21216 M 79.003171,277.36661 67.172059,298.0693 m -2.928562,-30.57673 -14.295538,19.07069 m 0.752061,-30.64204 -16.472817,17.20922 m 7.117683,-26.92757 -17.792708,15.82921 m 9.321513,-26.24209 -19.081237,14.23606 M 25.418916,224.68946 5.1319459,237.13187 M 17.330937,209.06452 -4.4928197,218.52886 M 12.614354,196.5793 -9.9947793,203.95453 M 9.122844,183.6597 l -23.182186,5.28588 m 20.8737357,-18.52779 -23.5493107,3.26264 m 22.3798379,-16.63971 -23.7430889,1.18597 m 23.5867665,-10.19414 -23.7722735,-0.092 M 6.2681458,134.87409 -17.355889,132.21111 M 7.4878215,125.95664 -15.957644,122.01142 M 9.2544582,117.13375 -13.942677,111.9144 M 12.854477,104.46993 -9.6400033,96.749362 M 15.979732,96.036245 -6.0627954,87.097626 M 21.495318,84.084023 0.54838084,72.797775 M 25.899479,76.24192 5.5911956,63.834612 M 30.776075,68.683951 11.162983,55.196209 m 27.57059,2.988879 -18.066285,-15.513694 m 24.0333,8.775675 L 27.478291,34.994131 M 51.080616,45.011319 34.658799,27.753018 M 61.200167,36.218204 46.328441,17.596978 M 75.651179,26.083436 63.377822,5.6419461 M 87.3401,19.642066 76.962529,-1.8321988 M 99.573225,14.351584 91.202498,-7.9883836 m 21.047012,18.2631926 -6.27605,-23.021792 m 23.49036,19.579079 -3.02661,-23.674389 m 16.29583,22.5493703 -0.84309,-23.8536053"
         inkstitch:satin_column="true" />
      <path
         id="path15"
         style="fill:none;stroke:#ffffff;stroke-width:1.04939px"
         d="m 156.37107,1.771275 8.37036,0.5081135 7.98111,0.8953658 7.79031,1.2934323 7.60511,1.6908994 7.42588,2.0885141 7.25309,2.4869799 7.08667,2.887266 6.92632,3.289782 6.77171,3.695528 6.6226,4.104967 6.47768,4.518298 6.3367,4.935984 6.19876,5.357855 6.06208,5.782791 6.44838,6.761767 5.76583,6.715647 5.14691,6.756833 4.59995,6.898607 4.12367,7.147663 3.71408,7.507772 3.36468,7.97829 3.0702,8.55645 2.01021,6.56444 1.69968,6.59907 1.39057,6.61686 1.08517,6.62607 0.78373,6.62679 0.48583,6.61886 0.1918,6.60225 -0.0989,6.57682 -0.38578,6.5428 -0.66894,6.49975 -0.94873,6.44766 -1.22489,6.38668 -1.49741,6.31666 -1.7663,6.23774 -2.03162,6.14957 -2.29326,6.05234 -2.55116,5.94616 -2.80539,5.83082 -3.05593,5.70634 -3.30292,5.57288 -3.54602,5.43053 -3.78552,5.27901 -4.02141,5.11875 -4.25351,4.94946 -4.4822,4.77134 -4.70724,4.5844 -4.92883,4.38862 -5.14717,4.18424 -5.36206,3.97088 -5.57371,3.74886 -5.78245,3.51815 -5.98443,3.27656 -7.90397,3.85867 -7.74184,3.29172 -7.66729,2.75512 -7.68794,2.24916 -7.80746,1.77131 -8.02702,1.31708 -8.34467,0.88251 -8.78643,0.46564 -6.17016,0.0874 -6.30578,-0.0668 -5.56931,-0.20223 -4.23594,-0.32502 m 24.61863,-313.559659 8.77203,0.532498 8.79448,0.986614 8.62245,1.431587 8.4486,1.8784456 8.27254,2.3266275 8.09422,2.7753994 7.91334,3.22406565 7.73009,3.67154345 7.54491,4.1174853 7.35864,4.5611871 7.17149,5.002257 6.98461,5.440679 6.79868,5.876384 6.61503,6.31026 6.99354,7.333419 6.33868,7.382883 5.73156,7.524342 5.16367,7.744004 4.63584,8.035463 4.15294,8.394913 3.72076,8.822561 3.34489,9.322043 2.22623,7.269838 1.87897,7.29518 1.53799,7.31841 1.20065,7.33108 0.86731,7.33354 0.53772,7.32565 0.21228,7.30759 -0.10933,7.27956 -0.42697,7.24119 -0.74027,7.19292 -1.04984,7.13482 -1.3553,7.06656 -1.65664,6.98848 -1.95406,6.90079 -2.24756,6.80315 -2.53693,6.69547 -2.82234,6.57821 -3.10387,6.45119 -3.38155,6.31432 -3.65524,6.16736 -3.92487,6.01074 -4.19077,5.84412 -4.45255,5.66755 -4.71034,5.48106 -4.96423,5.28446 -5.21383,5.07776 -5.45931,4.86097 -5.70075,4.63424 -5.93764,4.39714 -6.17008,4.14999 -6.39826,3.89278 -6.62505,3.62733 -8.60594,4.20135 -8.53504,3.62899 -8.53905,3.06839 -8.6103,2.51901 -8.74517,1.98402 -8.94243,1.46729 -9.2039,0.97337 -9.50368,0.50365 -6.67047,0.0946 -6.70317,-0.071 -6.08862,-0.22109 -4.55226,-0.34929 M 174.96066,7.5762504 178.83024,-15.960435 m 5.39477,25.326124 5.12811,-23.292471 m 8.14567,27.045784 7.66581,-22.5776654 M 210.30015,18.21738 220.44402,-3.3506855 M 218.7051,22.470286 230.0338,1.5062947 m 0.4375,28.2319673 13.5359,-19.597573 m -5.91749,25.216886 14.54319,-18.854754 m -3.97752,27.967376 16.34323,-17.301895 m -9.582,24.028904 17.13888,-16.506108 M 261.78415,58.220809 279.75762,42.636902 M 267.67125,65.55876 286.52116,51.058197 m -11.28159,25.840507 20.5368,-11.965288 m -16.09214,20.189812 21.25685,-10.619635 m -17.38243,19.177772 21.85682,-9.308824 m -18.50203,18.159829 22.3313,-8.091996 m -17.30188,25.986656 23.22641,-4.92937 m -20.94442,18.85465 23.57283,-2.81542 m -22.64094,21.44094 23.73602,0.36001 m -25.19253,18.25163 23.48338,3.48958 m -27.30702,14.79577 22.83229,6.52922 m -27.26333,6.9039 22.18487,8.48902 m -29.98721,8.47792 20.90379,11.30531 m -30.80324,4.50647 19.25908,13.947 m -31.09191,0.43769 17.26191,16.37614 m -30.82871,-3.66298 14.92977,18.54713 m -26.2193,-10.16339 13.2038,19.82506 m -29.23128,-10.52487 10.37297,21.45775 m -18.9527,-17.45612 9.25001,21.97018 m -18.00177,-18.52396 7.99271,22.46289 m -21.09709,-18.56631 5.22768,23.27012 m -14.40796,-21.43727 3.82531,23.544 m -13.14616,-22.33555 2.48451,23.72474 m -21.24446,-22.92075 -0.25021,23.85443"
         inkstitch:satin_column="true" />
      <path
         style="display:inline;fill:#ffffff;stroke-width:7.55906"
         d="m 139.58084,95.02994 c 5.5736,-6.997255 3.26883,-10.413433 4.13173,-15.269461 -0.48904,-1.222596 -14.82635,3.685217 -16.16766,4.131737 -2.55064,0.849105 -19.27362,11.746865 -17.60479,12.215569 -3.78809,2.799494 -4.92631,5.220435 -5.38922,7.544905 0.82689,1.14058 1.81086,2.2419 8.26347,1.97605 5.26946,-0.92243 10.53892,-2.19377 15.80838,-3.59281 z"
         id="path4"
         sodipodi:nodetypes="ccsccccc" />
      <path
         d="m 101.58024,107.66799 c -4.140582,-1.80112 -5.689482,-4.8058 -4.832422,-9.374318 1.05984,-5.64942 12.722662,-16.45915 24.246472,-22.47294 23.59942,-12.31552 47.97068,-16.13536 55.41979,-8.68625 3.34217,3.34217 3.4829,4.8057 0.94115,9.78795 -4.15993,8.15413 -18.45379,18.767 -33.76306,25.068318 -15.82068,6.51181 -34.34013,9.01442 -42.01193,5.67724 z m 16.96111,-1.17636 c 27.01635,-6.14473 61.80773,-28.518748 55.73136,-35.840318 -6.7279,-8.10664 -51.08174,7.80435 -68.27121,24.49082 -11.140542,10.814548 -5.91242,15.546378 12.53985,11.349498 z M 90.372368,88.907612 c -3.003,-3.38676 -3.51269,-3.62828 -4.57916,-2.16979 -0.97864,1.33836 -1.60055,1.4268 -3.37088,0.47935 -2.39826,-1.28351 -2.64841,-2.33054 -1.20234,-5.03256 1.17584,-2.19707 -3.37156,-7.0764 -15.21849,-16.32934 -4.2625,-3.32919 -7.75,-6.41444 -7.75,-6.85611 0,-3.21215 9.97541,-3.69618 18,-0.87341 3.025,1.06409 6.0625,1.9494 6.75,1.96735 0.91457,0.0239 1.25,-2.51661 1.25,-9.46735 0,-5.225 0.19634,-9.5 0.43631,-9.5 0.23997,0 3.92254,1.34242 8.18349,2.98317 4.26095,1.64075 7.872972,2.85739 8.026702,2.70366 0.15373,-0.15373 -0.23269,-3.37052 -0.85871,-7.14843 -1.920902,-11.59229 1.64788,-26.5384 6.33676,-26.5384 5.12747,0 14.11334,6.5645 21.12064,15.4294 2.20444,2.78883 4.23752,5.0706 4.51795,5.0706 0.28043,0 1.96201,-3.825 3.73686,-8.5 1.77485,-4.675 3.5261,-8.39844 3.89167,-8.27431 0.36557,0.12413 3.42701,3.42722 6.80318,7.34021 l 6.13851,7.11453 1.83624,-5.98157 c 3.33108,-10.85103 11.47003,-20.1988606 17.58669,-20.1988606 2.19694,0 2.38125,0.2946 1.72053,2.75 -1.91026,7.0989806 -2.39289,11.6302206 -2.43327,22.8450106 -0.0392,10.88697 -0.24804,12.28007 -2.09088,13.94782 -2.99642,2.71172 -2.21202,6.59674 1.70753,8.45717 2.35543,1.11801 3.25446,2.28653 3.53035,4.58858 l 0.37016,3.08859 -11.10556,1.15762 c -25.00923,2.60691 -48.00935,11.88697 -64.406222,25.98653 l -5.54893,4.77149 z m 7.30572,-11.35131 c 2.15237,-2.15237 0.3137,-5.67716 -2.73404,-5.24124 -2.77572,0.39702 -3.4587,3.7773 -1.11016,5.49459 2.21213,1.61755 1.95645,1.6344 3.8442,-0.25335 z m 27.949282,-16.66179 c 1.6661,-2.6457 -1.37052,-5.37718 -4.25921,-3.8312 -2.3841,1.27593 -2.70951,3.06958 -0.88747,4.89162 1.58359,1.58359 3.76462,1.13421 5.14668,-1.06042 z m 28.12413,-11.76876 c 0,-2.98436 -3.455,-3.96408 -5.45995,-1.54826 -1.04659,1.26106 -1.04659,1.83546 0,3.09651 2.00495,2.41582 5.45995,1.4361 5.45995,-1.54825 z m 17.43043,0.41617 c -0.92947,-1.11994 -1.01763,-2.05438 -0.301,-3.19048 1.46605,-2.32416 2.91548,-2.53792 4.75252,-0.70089 1.22412,1.22412 1.36446,2.08051 0.58088,3.54464 -1.25366,2.3425 -3.26126,2.48082 -5.0324,0.34673 z"
         style="fill:#fcfcfc"
         id="path1"
         sodipodi:nodetypes="sssssssssssssssssscssssssssssscssssssscsscssssssssssssssssss" />
      <path
         style="fill:#e31a1f"
         d="m 232.52828,217.93356 c -2.73445,-0.45716 -6.81034,-1.53337 -9.05754,-2.39158 l -4.08581,-1.56039 0.35935,-8.7408 C 219.94192,200.43336 220.4495,187.5 220.87224,176.5 l 0.76862,-20 -6.39354,-9.24788 -6.39354,-9.24788 -4.92689,4.15442 C 201.2171,144.44359 199,146.52125 199,146.77569 c 0,0.25444 3.44259,4.69922 7.6502,9.87729 l 7.6502,9.41466 -5.30916,20.71618 c -2.92004,11.3939 -5.41391,20.85496 -5.54193,21.02458 -0.4826,0.63939 -23.21791,-3.98456 -29.44931,-5.98944 -5.37272,-1.72862 -11.57762,-4.30264 -12.76657,-5.29604 -0.14661,-0.1225 3.79089,-21.66859 8.75,-47.8802 C 174.94254,122.43111 179,100.53856 179,99.992621 c 0,-2.709735 29.46706,0.03561 47.5,4.425399 27.46575,6.68605 40.99648,14.49542 50.56735,29.18535 7.46382,11.45591 9.9001,23.73354 6.38531,32.17875 -1.94567,4.67499 -8.58203,11.52235 -14.45266,14.91217 -2.475,1.42912 -4.60048,2.67051 -4.72328,2.75866 -0.21125,0.15164 5.09132,28.50043 6.22813,33.29705 l 0.53325,2.25 -16.76905,-0.11762 c -9.22298,-0.0647 -19.00632,-0.49166 -21.74077,-0.94882 z"
         id="path17" />
      <path
         style="fill:#e31a1f"
         d="m 31.178009,192.75 c -8.921416,-32.0375 -16.211137,-59.25213 -16.199382,-60.47695 0.02959,-3.08281 3.074618,-4.72512 13.388262,-7.22083 42.174304,-10.20539 83.365951,-13.51585 104.133111,-8.3689 14.43045,3.57646 26.34715,12.98581 30.5411,24.11505 1.77366,4.70665 2.08149,7.28995 1.76402,14.80337 -0.33289,7.87823 -0.83893,10.02463 -3.76445,15.96721 -4.44625,9.03163 -10.90553,15.3352 -20.82414,20.32218 -8.63715,4.34267 -35.1134,13.63637 -41.818781,14.67923 l -4.102251,0.638 -0.636744,-3.85418 c -1.193696,-7.2254 -0.730536,-10.78427 1.909019,-14.66873 1.412274,-2.07835 2.424774,-4.1583 2.25,-4.62211 C 97.342611,182.80236 73.609803,157 72.925128,157 c -0.593061,0 -5.846145,6.31857 -7.365616,8.85959 -0.574559,0.96083 3.040691,5.22123 12.326637,14.52632 l 13.139639,13.16674 1.95759,20.47368 c 1.076675,11.26052 2.150119,22.1393 2.385432,24.17508 l 0.427842,3.70141 -9.156596,3.05052 C 74.817779,248.89194 63.651539,251 54.611413,251 h -7.21265 z"
         id="path3" />
    </g>
  </g>
</svg>
