<?xml version="1.0" encoding="UTF-8" standalone="no"?>
<!-- Created with Inkscape (http://www.inkscape.org/) -->

<svg
   version="1.1"
   id="svg1"
   width="74.999924mm"
   height="74.876999mm"
   viewBox="0 0 283.46428 282.99968"
   sodipodi:docname="patricio-rey-redondos-logo.svg"
   inkscape:version="1.3.2 (091e20e, 2023-11-25, custom)"
   xmlns:inkscape="http://www.inkscape.org/namespaces/inkscape"
   xmlns:sodipodi="http://sodipodi.sourceforge.net/DTD/sodipodi-0.dtd"
   xmlns="http://www.w3.org/2000/svg"
   xmlns:svg="http://www.w3.org/2000/svg"
   xmlns:inkstitch="http://inkstitch.org/namespace">
  <sodipodi:namedview
     id="namedview1"
     pagecolor="#ff00d6"
     bordercolor="#000000"
     borderopacity="0.25"
     inkscape:showpageshadow="2"
     inkscape:pageopacity="0.0"
     inkscape:pagecheckerboard="0"
     inkscape:deskcolor="#d1d1d1"
     inkscape:zoom="0.98405695"
     inkscape:cx="227.121"
     inkscape:cy="207.81318"
     inkscape:window-width="1855"
     inkscape:window-height="1057"
     inkscape:window-x="57"
     inkscape:window-y="-8"
     inkscape:window-maximized="1"
     inkscape:current-layer="g2"
     inkscape:document-units="mm" />
  <metadata
     id="metadata13">
    <inkstitch:min_stitch_len_mm>0</inkstitch:min_stitch_len_mm>
    <inkstitch:collapse_len_mm>3</inkstitch:collapse_len_mm>
    <inkstitch:inkstitch_svg_version>1</inkstitch:inkstitch_svg_version>
  </metadata>
  <defs
     id="defs1" />
  <g
     inkscape:groupmode="layer"
     inkscape:label="Image"
     id="g1"
     transform="translate(15.0522,15.4706)">
    <g
       id="g2"
       transform="translate(2.15569,-0.718563)">
      <path
         style="fill:none;stroke:#000000;stroke-width:3.2453;stroke-dasharray:none"
         id="path25"
         sodipodi:type="arc"
         sodipodi:cx="121.04052"
         sodipodi:cy="121.98375"
         sodipodi:rx="129.02538"
         sodipodi:ry="129.02538"
         sodipodi:start="0"
         sodipodi:end="1.0846599e-06"
         sodipodi:open="true"
         sodipodi:arc-type="arc"
         d="m 250.0659,121.98375 a 129.02538,129.02538 0 1 0 0,1.4e-4" />
      <path
         style="display:inline;fill:#030303;stroke-width:0.828215"
         d="M 106.65702,244.49193 C 79.263212,241.35466 54.074436,228.95023 33.655974,208.54194 11.734778,186.63167 0.03605733,161.2094 -2.3241546,130.3542 -5.0964342,94.112023 7.7833684,59.540449 33.676051,33.723548 55.424302,12.038946 82.809336,-0.48241785 112.22962,-2.1938045 c 38.13761,-2.2184764 69.88707,9.6223175 96.2984,35.9139825 14.92435,14.856723 23.73692,28.977043 30.18959,48.37252 19.27522,57.937602 -6.37759,121.162662 -60.47967,149.060882 -17.59628,9.07369 -33.52425,13.18613 -53.26685,13.75301 -6.46143,0.18553 -14.70276,-8.3e-4 -18.31407,-0.41466 z m -52.109915,-40.9711 c 3.566571,-0.6824 9.89731,-2.37764 14.068308,-3.76722 l 7.583632,-2.52648 -0.354345,-3.06557 c -0.19489,-1.68606 -1.083932,-10.69603 -1.975651,-20.02217 l -1.621306,-16.95661 -10.88245,-10.9049 c -7.690762,-7.70661 -10.684967,-11.23514 -10.209109,-12.03092 1.258449,-2.10451 5.609134,-7.33764 6.100316,-7.33764 0.567058,0 20.222932,21.3699 20.616469,22.41427 0.14475,0.38413 -0.693818,2.10678 -1.863485,3.8281 -2.186119,3.21717 -2.569716,6.16468 -1.581078,12.14887 l 0.527361,3.19209 3.397547,-0.52841 c 5.553499,-0.86371 27.481536,-8.56089 34.634956,-12.15756 8.21474,-4.13029 13.56442,-9.351 17.24687,-16.83114 2.42296,-4.92173 2.84207,-6.69941 3.11777,-13.22429 0.26294,-6.22272 0.008,-8.36225 -1.46099,-12.26037 -3.47349,-9.21741 -13.34308,-17.010376 -25.2946,-19.972455 -17.19968,-4.262783 -51.315232,-1.521009 -86.244634,6.931255 -8.541918,2.06698 -11.0638591,3.42717 -11.0883635,5.9804 -0.00973,1.01441 6.0277225,23.55398 13.4165755,50.08793 l 13.434276,48.24354 h 5.973627 c 3.285495,0 8.891732,-0.55832 12.458304,-1.24072 z M 220.89504,176.39518 c -0.94152,-3.97264 -5.33319,-27.45154 -5.15823,-27.57713 0.10171,-0.073 1.86206,-1.10114 3.91189,-2.28476 4.86215,-2.8075 10.35848,-8.47859 11.96992,-12.35049 2.911,-6.99445 0.89324,-17.16297 -5.28841,-26.65093 -7.92674,-12.166426 -19.1331,-18.634265 -41.88066,-24.171754 -14.93515,-3.635691 -39.34022,-5.909427 -39.34022,-3.665183 0,0.452155 -3.36045,18.583899 -7.46766,40.292757 -4.10721,21.70885 -7.36831,39.55365 -7.24689,39.65511 0.98471,0.82275 6.1237,2.95459 10.57347,4.38626 5.16094,1.66047 23.99067,5.4901 24.39037,4.96055 0.10603,-0.14048 2.17149,-7.97628 4.58991,-17.41288 l 4.39713,-17.15746 -6.33601,-7.79736 c -3.48481,-4.28856 -6.33602,-7.96979 -6.33602,-8.18052 0,-0.21074 1.83624,-1.93149 4.08053,-3.8239 l 4.08053,-3.44075 5.29522,7.65923 5.29523,7.65924 -0.63658,16.5643 c -0.35012,9.11037 -0.77051,19.82198 -0.9342,23.80356 l -0.29761,7.23927 3.38393,1.29234 c 5.46508,2.08713 10.77683,2.66325 25.50763,2.76657 l 13.88838,0.0974 z M 108.42179,84.002397 c 23.35774,-7.928559 40.21465,-22.252136 35.82986,-30.445188 -1.34475,-2.512688 -6.35528,-4.472083 -11.78937,-4.610296 -3.84026,-0.09767 -3.59129,-0.188226 2.19575,-0.798628 3.58992,-0.378655 6.63613,-0.797478 6.76938,-0.930717 0.13323,-0.13324 -0.0235,-1.541917 -0.34844,-3.130393 -0.39691,-1.940676 -1.12328,-2.986942 -2.21419,-3.189317 -3.84383,-0.713073 -4.98738,-4.493251 -2.13906,-7.070947 1.34774,-1.219687 1.60753,-3.030462 1.94929,-13.586861 0.26164,-8.081769 0.83216,-13.3977933 1.6957,-15.8002528 l 1.30141,-3.62062579 -3.35087,0.44944489 c -5.61794,0.7535251 -11.10815,7.4170306 -13.95512,16.9374437 -0.57892,1.935953 -1.29148,3.519915 -1.58347,3.519915 -0.29199,0 -2.69966,-2.603598 -5.35038,-5.785774 -2.65072,-3.182176 -5.09435,-5.615899 -5.4303,-5.408273 -0.33594,0.207626 -1.81016,3.55522 -3.27603,7.4391 l -2.66522,7.0616 -3.12184,-3.930919 C 94.611528,10.616147 85.337612,5.0658347 82.286873,8.7417535 80.255634,11.189242 78.637261,20.392913 79.123288,26.732998 c 0.263489,3.43714 0.722073,6.882607 1.019079,7.656593 0.462086,1.204166 -0.279299,1.094322 -5.13736,-0.761152 -9.152939,-3.495847 -8.318983,-3.932683 -8.725528,4.570548 -0.197248,4.125616 -0.555872,7.698358 -0.796941,7.939428 -0.24107,0.241069 -2.607638,-0.308051 -5.259041,-1.220267 -5.788393,-1.9915 -11.784503,-2.142221 -14.32873,-0.360176 -1.841311,1.289704 -1.813424,1.329172 4.163847,5.893071 3.309665,2.52707 7.789603,6.309661 9.955416,8.405758 3.459172,3.347826 3.879347,4.122896 3.456621,6.376219 -0.648434,3.456456 1.415223,5.374283 4.027498,3.742891 1.600671,-0.999636 1.994937,-0.832667 4.282435,1.813578 l 2.519454,2.914578 5.117975,-4.263704 c 2.814885,-2.345037 8.031938,-5.973753 11.593454,-8.063813 6.498782,-3.813783 18.246903,-9.019794 20.290513,-8.991455 0.60107,0.0083 -1.98643,1.28359 -5.74998,2.833898 -17.150604,7.06479 -29.639762,17.944361 -29.015586,25.276086 0.189282,2.223344 0.90581,3.328722 3.143908,4.850045 2.718162,1.847633 3.466338,1.947781 12.009122,1.607434 7.388094,-0.29434 10.551276,-0.852051 16.732346,-2.950161 z M 81.957914,85.399961 C 70.593775,81.070747 103.35289,59.210468 128.4738,54.35974 c 17.08132,-3.298324 17.00659,4.918225 -0.14564,16.013948 -15.72057,10.169585 -39.171216,17.768767 -46.370246,15.026273 z m 17.793767,-3.094519 c 5.631859,-1.561666 15.541779,-6.883552 13.861099,-7.443775 -0.50646,-0.168821 -3.86656,1.039579 -7.46689,2.685333 -6.168993,2.819921 -14.536038,5.466906 -17.280743,5.466906 -2.561885,0 0.487446,-1.425955 5.213383,-2.437935 8.18288,-1.752218 24.19817,-9.213256 21.06971,-9.815741 -0.75159,-0.144744 -3.91477,1.019285 -7.02927,2.586733 -5.30885,2.671804 -15.849991,6.385115 -17.966147,6.328896 -1.681948,-0.04468 1.477809,-1.486365 9.693191,-4.422657 8.278596,-2.958886 16.496646,-7.211586 14.939136,-7.730753 -0.48559,-0.161866 -3.35389,0.814357 -6.37398,2.169384 -6.35152,2.84973 -11.338327,4.36061 -11.338327,3.435229 0,-0.353625 3.137957,-1.856109 6.973237,-3.338854 7.64476,-2.95552 12.07571,-5.370078 12.07571,-6.580424 0,-0.429835 -2.143,0.30536 -4.76223,1.633766 -5.05016,2.561307 -7.33226,3.008373 -7.82413,1.532758 -0.35331,-1.059953 -10.951108,5.853267 -16.61316,10.837205 -2.160996,1.902187 -3.929086,4.172241 -3.929086,5.044567 0,1.406434 0.635108,1.586041 5.608375,1.586041 3.084613,0 8.102165,-0.691502 11.150122,-1.536679 z M 73.376395,60.296074 c -0.824627,-2.148946 0.331189,-3.925065 2.366202,-3.636092 1.368819,0.194374 1.867187,0.817787 1.867187,2.335681 0,1.517893 -0.498368,2.141306 -1.867187,2.33568 -1.119978,0.159038 -2.066883,-0.255255 -2.366202,-1.035269 z M 96.385681,47.607702 c -1.090503,-2.120296 -0.28551,-3.519914 2.024498,-3.519914 2.380461,0 3.423541,1.982214 1.966771,3.737516 -1.368907,1.649432 -3.078973,1.5562 -3.991269,-0.217602 z m 23.370769,-8.845225 c -0.82463,-2.148946 0.33119,-3.925066 2.3662,-3.636092 1.36882,0.194374 1.86719,0.817787 1.86719,2.33568 0,1.517894 -0.49837,2.141307 -1.86719,2.335681 -1.11998,0.159038 -2.06688,-0.255255 -2.3662,-1.035269 z m 22.92585,-0.955728 c 0.79002,-0.951915 0.84988,-1.690286 0.2182,-2.691699 -1.10753,-1.755797 -3.57081,-1.77858 -4.66549,-0.04315 -1.97688,3.134008 2.05719,5.614748 4.44729,2.734849 z"
         id="path2" />
      <path
         id="path14"
         style="fill:none;stroke:#ffffff;stroke-width:0.869974px"
         d="m 107.02653,244.94364 -5.21677,-0.71398 -5.020415,-0.9094 -4.960438,-1.12206 -4.897378,-1.33291 -4.831327,-1.54217 -4.762072,-1.7497 -4.689654,-1.95578 -4.614048,-2.16038 -4.535094,-2.36345 -4.452768,-2.56528 -4.367188,-2.76577 -4.278032,-2.96494 -4.185279,-3.16276 -4.08888,-3.35948 -3.98888,-3.55464 -3.884199,-3.74813 -4.001026,-4.17737 -3.752724,-4.25242 -3.507062,-4.3301 -3.264708,-4.41132 -3.025628,-4.49632 -2.789931,-4.58579 -2.557326,-4.67974 -2.3276149,-4.77859 -2.1004533,-4.8827 -1.8755589,-4.9923 -1.6526704,-5.10741 -1.4312486,-5.22773 -1.21083405,-5.35338 -0.99126172,-5.48417 -0.77232333,-5.61968 -0.5512836,-5.73614 -0.3369641,-6.80067 0.025787,-6.72394 0.3831965,-6.65966 0.73643118,-6.58598 1.0854461,-6.502852 1.43067552,-6.410088 1.7718678,-6.30787 2.109474,-6.195941 2.4434868,-6.074462 2.774094,-5.943282 3.101241,-5.802473 3.425154,-5.651751 3.745787,-5.491055 4.063555,-5.320521 4.378163,-5.13987 4.701088,-4.960817 4.127647,-3.959416 4.261985,-3.749165 4.379084,-3.525679 4.490944,-3.300352 4.597752,-3.073347 4.699359,-2.844439 4.796088,-2.613744 L 70.52162,8.8390572 75.496405,6.6924127 80.553477,4.7821718 85.688039,3.1104112 90.89545,1.6793 l 5.275765,-1.18837764 5.339495,-0.94326465 5.39885,-0.69579781 5.45523,-0.4459946 7.11408,-0.2534818 7.1088,0.08142 M 105.25371,258.0018 l -5.49653,-0.75227 -5.576688,-1.01014 -5.512551,-1.24696 -5.443611,-1.48156 -5.369889,-1.7141 -5.291371,-1.94417 -5.208206,-2.17204 -5.120236,-2.39738 -5.027807,-2.62023 -4.930757,-2.84065 -4.829324,-3.05846 -4.723479,-3.27366 -4.613415,-3.48629 -4.498835,-3.69629 -4.380394,-3.90355 -4.258297,-4.10911 -4.365816,-4.55825 -4.114546,-4.66241 -3.86324,-4.7699 -3.6114041,-4.87976 -3.3589008,-4.99159 -3.1059625,-5.10523 -2.85253869,-5.21999 -2.59900171,-5.33575 -2.3455168,-5.45236 -2.0923704,-5.56942 -1.8401706,-5.68685 -1.5892814,-5.80491 -1.339817,-5.92367 -1.092288,-6.04307 -0.847076,-6.16369 -0.606399,-6.30958 -0.369591,-7.45928 0.02856,-7.43193 0.424072,-7.36995 0.815769,-7.29562 1.203351,-7.209127 1.586902,-7.110104 1.9659843,-6.998916 2.3408371,-6.87547 2.7111198,-6.739801 3.07682552,-6.591859 3.43765678,-6.431915 3.7937302,-6.259921 4.1447513,-6.075936 4.490996,-5.88016 4.831893,-5.67255 5.156659,-5.441551 4.558525,-4.372748 4.690036,-4.125699 4.827848,-3.886993 4.959782,-3.6448968 5.085829,-3.3996009 5.205791,-3.1509736 5.319693,-2.89908759 5.427473,-2.64412381 5.529089,-2.3858301 5.624264,-2.1244854 5.713143,-1.8601418 5.795502,-1.592739 5.871467,-1.322555 5.940912,-1.04951 6.003799,-0.773765 6.05837,-0.495309 7.72187,-0.275136 7.41648,0.08491 M 100.0163,240.55687 96.520725,260.01118 M 85.801797,237.04746 79.83661,255.88668 m -7.6953,-24.14187 -8.32114,17.91608 m -1.529747,-23.06211 -9.798708,17.14628 m -2.42548,-25.32411 -11.839783,15.79464 m 0.622869,-25.37821 -13.643039,14.25294 m 5.894974,-22.30183 -14.736193,13.11 m 7.72022,-21.7341 -15.8033721,11.79052 M 17.911129,182.97076 1.1091508,193.27575 m 10.1033912,-23.2458 -18.0747691,7.83851 M 7.3061955,159.6895 -11.419034,165.79777 m 15.8335075,-16.80848 -19.1998405,4.37784 m 17.2879467,-15.345 -19.5038987,2.70217 m 18.5353235,-13.78126 -19.6643885,0.98224 m 19.5349199,-8.44294 -19.6885599,-0.0762 M 2.0501689,108.5843 -17.515618,106.37878 M 3.0603229,101.19873 -16.35757,97.931239 M 4.5234784,93.891478 -14.688743,89.568733 M 7.505069,83.403109 -11.125203,77.008816 M 10.093453,76.418202 -8.162505,69.015101 M 14.661546,66.519189 -2.6870278,57.171746 M 18.309139,60.02424 1.4895084,49.748318 M 22.34801,53.764614 6.1041478,42.59386 M 28.938532,45.069296 13.975758,32.220617 M 33.880505,39.488765 19.616735,25.862191 M 39.164541,34.158579 25.563742,19.86499 M 47.545708,26.875987 35.228717,11.453603 M 59.514257,18.482217 49.349275,1.5522628 M 69.1952,13.147376 60.600337,-4.6379382 M 79.326861,8.7657179 72.394097,-9.7365845 M 89.825554,5.3892706 84.627633,-13.677729 M 104.08271,2.5379631 101.57602,-17.069528 m 13.49646,18.6757334 -0.69826,-19.7559204"
         inkstitch:satin_column="true" />
      <path
         id="path15"
         style="fill:none;stroke:#ffffff;stroke-width:0.869121px"
         d="m 126.3677,-1.6534862 6.93246,0.4208274 6.61008,0.74155562 6.45205,1.07124039 6.29867,1.40042869 6.15023,1.7297393 6.00712,2.0597548 5.86929,2.3912778 5.73648,2.7246472 5.60844,3.060693 5.48493,3.399797 5.36492,3.742123 5.24815,4.088057 5.13391,4.437458 5.0207,4.789396 5.34065,5.600198 4.77535,5.562002 4.26275,5.596112 3.80975,5.713532 3.41529,5.919803 3.07605,6.218052 2.78668,6.607742 2.54279,7.086582 1.66489,5.43677 1.4077,5.46545 1.15169,5.480185 0.89875,5.487813 0.6491,5.48841 0.40237,5.48184 0.15885,5.46808 -0.0819,5.44703 -0.31951,5.41884 -0.55402,5.3832 -0.78576,5.34005 -1.01447,5.28954 -1.24018,5.23156 -1.46287,5.16619 -1.68262,5.09317 -1.89931,5.01264 -2.11291,4.9247 -2.32347,4.82917 -2.53097,4.72608 -2.73553,4.61554 -2.93687,4.49765 -3.13522,4.37216 -3.33059,4.23942 -3.52283,4.09922 -3.71222,3.9517 -3.89861,3.79687 -4.08213,3.63472 -4.26297,3.46545 -4.44094,3.28875 -4.61623,3.10486 -4.78911,2.91379 -4.9564,2.71369 -6.54619,3.19581 -6.41191,2.72625 -6.35017,2.28184 -6.36726,1.86279 -6.46626,1.46702 -6.6481,1.09083 -6.91119,0.73091 -7.27705,0.38565 -5.11022,0.0724 -5.22255,-0.0553 -4.61258,-0.16749 -3.50827,-0.26919 m 20.38952,-259.694899 7.26513,0.441023 7.28372,0.817129 7.14125,1.185662 6.99726,1.555757 6.85144,1.9269487 6.70376,2.2986282 6.55395,2.6702205 6.40218,3.04082832 6.24881,3.41016418 6.09453,3.7776449 5.93954,4.1429452 5.78476,4.506054 5.63077,4.866911 5.47867,5.226254 5.79216,6.073649 5.24979,6.114617 4.74697,6.231775 4.27663,6.413702 3.83947,6.655093 3.43953,6.952796 3.08159,7.306979 2.77029,7.720659 1.8438,6.020991 1.55619,6.041979 1.27378,6.061219 0.9944,6.07171 0.71832,6.07375 0.44535,6.06722 0.17581,6.05226 -0.0906,6.02904 -0.35362,5.99726 -0.6131,5.95729 -0.8695,5.90917 -1.12248,5.85263 -1.37205,5.78796 -1.61838,5.71534 -1.86147,5.63448 -2.10112,5.54529 -2.33751,5.44817 -2.57067,5.34298 -2.80065,5.22961 -3.02733,5.1079 -3.25063,4.97819 -3.47086,4.84019 -3.68767,4.69395 -3.90118,4.5395 -4.11145,4.37667 -4.31817,4.20548 -4.52149,4.02593 -4.72145,3.83815 -4.91764,3.64177 -5.11015,3.43709 -5.29914,3.22406 -5.48697,3.00421 -7.12757,3.47962 -7.06885,3.00559 -7.07217,2.54128 -7.13118,2.08629 -7.24289,1.64319 -7.40625,1.21523 -7.62281,0.80616 -7.8711,0.41713 -5.52458,0.0784 -5.55167,-0.0588 -5.04269,-0.18311 -3.77025,-0.28929 M 141.76389,3.1542831 144.96873,-16.339159 m 4.46803,20.9754825 4.24718,-19.2911805 m 6.74637,22.3997317 6.34894,-18.6991677 m 4.25334,22.921722 8.40131,-17.8630011 m -1.4402,21.3853231 9.3826,-17.3626979 M 187.73865,21.5092 198.94929,5.2781904 m -4.90096,20.8850106 12.04489,-15.615796 m -3.29424,23.163008 13.53571,-14.329693 m -7.93596,19.901105 14.19469,-13.670611 m -8.92099,19.487666 14.8859,-12.90683 M 218.54821,51.176283 234.16,39.166696 m -9.34359,21.401502 17.00889,-9.909834 m -13.32775,16.721511 17.60524,-8.795344 m -14.39639,15.883323 18.10215,-7.70971 m -15.32366,15.040248 18.49512,-6.701915 m -14.32968,21.522546 19.23647,-4.08258 m -17.34649,15.615707 19.52338,-2.33177 m -18.75157,17.75771 19.65853,0.29817 m -20.86484,15.11628 19.4493,2.89012 m -22.6161,12.25408 18.91006,5.4076 m -22.57991,5.71792 18.37385,7.03073 m -24.83587,7.02155 17.31284,9.36323 m -25.51171,3.73233 15.95066,11.55111 m -25.75079,0.36251 14.29657,13.56296 m -25.5328,-3.03373 12.36506,15.36101 m -21.71523,-8.41747 10.93559,16.41942 m -24.20979,-8.71686 8.59105,17.77164 m -15.69691,-14.45743 7.661,18.19604 m -14.90934,-15.34183 6.61968,18.60411 m -17.47293,-15.3769 4.32964,19.27267 m -11.93289,-17.75468 3.16818,19.4995 m -10.88785,-18.49864 2.05771,19.64919 m -17.59499,-18.98331 -0.20723,19.7566"
         inkstitch:satin_column="true" />
      <path
         style="display:inline;fill:#ffffff;stroke-width:6.26053"
         d="m 112.46178,75.584765 c 4.61614,-5.795234 2.70729,-8.624564 3.42196,-12.646401 -0.40503,-1.012573 -12.27941,3.052153 -13.3903,3.421968 -2.11248,0.703241 -15.962709,9.728933 -14.580558,10.117121 -3.137354,2.318583 -4.080046,4.323644 -4.463435,6.248805 0.684843,0.944646 1.499782,1.856776 6.843932,1.636595 4.364248,-0.763971 8.728495,-1.816914 13.092741,-2.97562 z"
         id="path4"
         sodipodi:nodetypes="ccsccccc" />
      <path
         d="M 80.989101,86.051791 C 77.559808,84.560076 76.276985,82.071554 76.986816,78.287838 77.864591,73.608902 87.523919,64.656118 97.068114,59.675405 116.61351,49.475504 136.79816,46.311854 142.96763,52.48132 c 2.76804,2.768037 2.88459,3.980155 0.77948,8.10653 -3.44532,6.753375 -15.28372,15.543116 -27.96309,20.761964 -13.10293,5.393181 -28.441017,7.46588 -34.794919,4.701977 z M 95.036552,85.077512 C 117.41191,79.988352 146.22666,61.457849 141.19412,55.394013 135.62197,48.67997 98.887438,61.857695 84.650856,75.677684 75.424089,84.634458 79.7541,88.553432 95.036552,85.077512 Z M 71.70657,70.514159 c -2.48713,-2.804966 -2.909263,-3.004997 -3.79253,-1.797053 -0.810524,1.10845 -1.3256,1.181698 -2.791814,0.397005 -1.986276,-1.063023 -2.193454,-1.930189 -0.995796,-4.168043 0.973848,-1.819647 -2.792378,-5.860783 -12.604186,-13.524209 -3.530268,-2.757286 -6.418669,-5.312537 -6.418669,-5.678335 0,-2.660352 8.261787,-3.061233 14.907875,-0.723371 2.505351,0.881295 5.021055,1.614522 5.590453,1.629389 0.757461,0.01979 1.035269,-2.084295 1.035269,-7.841004 0,-4.327425 0.162612,-7.868045 0.361359,-7.868045 0.198747,0 3.248708,1.111813 6.777691,2.470707 3.528984,1.358894 6.520516,2.366534 6.647838,2.239212 0.127321,-0.127321 -0.192718,-2.791516 -0.711197,-5.920439 -1.59092,-9.600911 1.364799,-21.9795079 5.248201,-21.9795079 4.246649,0 11.688884,5.4368189 17.492436,12.7788649 1.82575,2.309752 3.50958,4.199548 3.74184,4.199548 0.23225,0 1.62496,-3.167923 3.09492,-7.03983 1.46996,-3.871906 2.92037,-6.955716 3.22314,-6.852909 0.30277,0.102806 2.8383,2.838475 5.6345,6.079274 l 5.08401,5.892362 1.5208,-4.954028 c 2.75885,-8.9869885 9.49965,-16.7290046 14.56556,-16.7290046 1.81954,0 1.97219,0.2439922 1.42497,2.277592 -1.5821,5.8794842 -1.98182,9.6323266 -2.01527,18.9205866 -0.0325,9.016755 -0.20543,10.170542 -1.7317,11.551798 -2.48168,2.245888 -1.83203,5.463521 1.41421,7.004357 1.9508,0.925953 2.69539,1.893739 2.92389,3.800332 l 0.30657,2.558018 -9.1978,0.958758 c -20.71302,2.159083 -39.762074,9.84497 -53.342214,21.522441 l -4.595708,3.951821 z m 6.050709,-9.401328 c 1.782626,-1.782626 0.259812,-4.701911 -2.264373,-4.340875 -2.298894,0.328818 -2.864548,3.128417 -0.919452,4.550703 1.83212,1.33968 1.620362,1.353635 3.183825,-0.209828 z M 100.9053,47.313282 c 1.37989,-2.191209 -1.135084,-4.453463 -3.527541,-3.173058 -1.974548,1.056744 -2.244058,2.542273 -0.735016,4.051314 1.311553,1.311553 3.117916,0.93937 4.262557,-0.878256 z m 23.29284,-9.747067 c 0,-2.471692 -2.86149,-3.283112 -4.52202,-1.282293 -0.8668,1.04443 -0.8668,1.520157 0,2.564577 1.66053,2.000819 4.52202,1.1894 4.52202,-1.282284 z m 14.43614,0.344678 c -0.7698,-0.927551 -0.84281,-1.701468 -0.24929,-2.642404 1.21421,-1.924905 2.41465,-2.101944 3.93611,-0.580488 1.01384,1.013835 1.13007,1.723111 0.48109,2.935725 -1.0383,1.940095 -2.70102,2.054653 -4.16791,0.287167 z"
         style="fill:#fcfcfc;stroke-width:0.828215"
         id="path1"
         sodipodi:nodetypes="sssssssssssssssssscssssssssssscssssssscsscssssssssssssssssss" />
      <path
         style="fill:#e31a1f;stroke-width:0.828215"
         d="m 189.44227,177.37542 c -2.26471,-0.37863 -5.64043,-1.26996 -7.50159,-1.98074 l -3.38393,-1.29234 0.29761,-7.23927 c 0.16369,-3.98158 0.58408,-14.69319 0.9342,-23.80356 l 0.63658,-16.5643 -5.29523,-7.65924 -5.29522,-7.65923 -4.08053,3.44075 c -2.24429,1.89241 -4.08053,3.61316 -4.08053,3.8239 0,0.21073 2.85121,3.89196 6.33602,8.18052 l 6.33601,7.79736 -4.39713,17.15746 c -2.41842,9.4366 -4.48388,17.2724 -4.58991,17.41288 -0.3997,0.52955 -19.22943,-3.30008 -24.39037,-4.96055 -4.44977,-1.43167 -9.58876,-3.56351 -10.57347,-4.38626 -0.12142,-0.10146 3.13968,-17.94626 7.24689,-39.65511 4.10721,-21.708858 7.46766,-39.840602 7.46766,-40.292757 0,-2.244244 24.40507,0.02949 39.34022,3.665183 22.74756,5.537489 33.95392,12.005328 41.88066,24.171754 6.18165,9.48796 8.19941,19.65648 5.28841,26.65093 -1.61144,3.8719 -7.10777,9.54299 -11.96992,12.35049 -2.04983,1.18362 -3.81018,2.21176 -3.91189,2.28476 -0.17496,0.12559 4.21671,23.60449 5.15823,27.57713 l 0.44165,1.86348 -13.88838,-0.0974 c -7.63862,-0.0536 -15.74133,-0.4072 -18.00604,-0.78583 z"
         id="path17" />
      <path
         style="fill:#e31a1f;stroke-width:0.828215"
         d="M 22.680898,156.51801 C 15.292045,129.98406 9.2545868,107.44449 9.2643225,106.43008 c 0.024507,-2.55323 2.5464455,-3.91342 11.0883635,-5.9804 34.929402,-8.452264 69.044954,-11.194038 86.244634,-6.931255 11.95152,2.962079 21.82111,10.755045 25.2946,19.972455 1.46898,3.89812 1.72393,6.03765 1.46099,12.26037 -0.2757,6.52488 -0.69481,8.30256 -3.11777,13.22429 -3.68245,7.48014 -9.03213,12.70085 -17.24687,16.83114 -7.15342,3.59667 -29.081457,11.29385 -34.634956,12.15756 l -3.397547,0.52841 -0.527361,-3.19209 c -0.988638,-5.98419 -0.605041,-8.9317 1.581078,-12.14887 1.169667,-1.72132 2.008235,-3.44397 1.863485,-3.8281 -0.393537,-1.04437 -20.049411,-22.41427 -20.616469,-22.41427 -0.491182,0 -4.841867,5.23313 -6.100316,7.33764 -0.475858,0.79578 2.518347,4.32431 10.209109,12.03092 l 10.88245,10.9049 1.621306,16.95661 c 0.891719,9.32614 1.780761,18.33611 1.975651,20.02217 l 0.354345,3.06557 -7.583632,2.52648 c -9.791391,3.26201 -19.039441,5.00794 -26.526612,5.00794 h -5.973627 z"
         id="path3" />
    </g>
  </g>
</svg>
