<?xml version="1.0" encoding="UTF-8" standalone="no"?>
<!-- Created with Inkscape (http://www.inkscape.org/) -->

<svg
   version="1.1"
   id="svg1"
   width="74.999924mm"
   height="74.876999mm"
   viewBox="0 0 283.46428 282.99968"
   sodipodi:docname="redondos-simple.svg"
   inkscape:version="1.3.2 (091e20e, 2023-11-25, custom)"
   xmlns:inkscape="http://www.inkscape.org/namespaces/inkscape"
   xmlns:sodipodi="http://sodipodi.sourceforge.net/DTD/sodipodi-0.dtd"
   xmlns="http://www.w3.org/2000/svg"
   xmlns:svg="http://www.w3.org/2000/svg"
   xmlns:inkstitch="http://inkstitch.org/namespace">
  <sodipodi:namedview
     id="namedview1"
     pagecolor="#ff00d6"
     bordercolor="#000000"
     borderopacity="0.25"
     inkscape:showpageshadow="2"
     inkscape:pageopacity="0.0"
     inkscape:pagecheckerboard="0"
     inkscape:deskcolor="#d1d1d1"
     inkscape:zoom="1.9681139"
     inkscape:cx="139.98174"
     inkscape:cy="180.12169"
     inkscape:window-width="1855"
     inkscape:window-height="1057"
     inkscape:window-x="57"
     inkscape:window-y="-8"
     inkscape:window-maximized="1"
     inkscape:current-layer="g2"
     inkscape:document-units="mm" />
  <metadata
     id="metadata13">
    <inkstitch:min_stitch_len_mm>0</inkstitch:min_stitch_len_mm>
    <inkstitch:collapse_len_mm>3</inkstitch:collapse_len_mm>
    <inkstitch:inkstitch_svg_version>1</inkstitch:inkstitch_svg_version>
  </metadata>
  <defs
     id="defs1" />
  <g
     inkscape:groupmode="layer"
     inkscape:label="Image"
     id="g1"
     transform="translate(15.0522,15.4706)">
    <g
       id="g2"
       transform="translate(2.15569,-0.718563)">
      <path
         style="display:inline;fill:#ffffff;stroke-width:7.55906"
         d="m 112.6515,89.948933 c 5.5736,-6.997255 3.26883,-10.413433 4.13173,-15.269461 -0.48904,-1.222596 -14.82635,3.685217 -16.16766,4.131737 -2.550636,0.849105 -19.273616,11.746865 -17.604786,12.215569 -3.78809,2.799494 -4.92631,5.220435 -5.38922,7.544905 0.82689,1.14058 1.81086,2.241897 8.26347,1.976047 5.26946,-0.922427 10.53892,-2.193767 15.808376,-3.592807 z"
         id="path4"
         sodipodi:nodetypes="ccsccccc" />
      <path
         d="m 74.650904,102.58698 c -4.140582,-1.80112 -5.689482,-4.805797 -4.832422,-9.374315 1.05984,-5.64942 12.722662,-16.45915 24.246472,-22.47294 23.599416,-12.31552 47.970676,-16.13536 55.419786,-8.68625 3.34217,3.34217 3.4829,4.8057 0.94115,9.78795 -4.15993,8.15413 -18.45379,18.767 -33.76306,25.068318 -15.82068,6.511807 -34.340126,9.014417 -42.011926,5.677237 z m 16.96111,-1.17636 c 27.016346,-6.144727 61.807726,-28.518745 55.731356,-35.840315 -6.7279,-8.10664 -51.081736,7.80435 -68.271206,24.49082 -11.140542,10.814545 -5.91242,15.546375 12.53985,11.349495 z M 63.443032,83.826605 c -3.003,-3.38676 -3.51269,-3.62828 -4.57916,-2.16979 -0.97864,1.33836 -1.60055,1.4268 -3.37088,0.47935 -2.39826,-1.28351 -2.64841,-2.33054 -1.20234,-5.03256 1.17584,-2.19707 -3.37156,-7.0764 -15.21849,-16.32934 -4.2625,-3.32919 -7.75,-6.41444 -7.75,-6.85611 0,-3.21215 9.97541,-3.69618 18,-0.87341 3.025,1.06409 6.0625,1.9494 6.75,1.96735 0.91457,0.0239 1.25,-2.51661 1.25,-9.46735 0,-5.225 0.19634,-9.5 0.43631,-9.5 0.23997,0 3.92254,1.34242 8.18349,2.98317 4.26095,1.64075 7.872972,2.85739 8.026702,2.70366 0.15373,-0.15373 -0.23269,-3.37052 -0.85871,-7.14843 -1.920902,-11.59229 1.64788,-26.5383997 6.33676,-26.5383997 5.12747,0 14.11334,6.5644997 21.120636,15.4293997 2.20444,2.78883 4.23752,5.0706 4.51795,5.0706 0.28043,0 1.96201,-3.825 3.73686,-8.5 1.77485,-4.675 3.5261,-8.39844 3.89167,-8.27431 0.36557,0.12413 3.42701,3.42722 6.80318,7.34021 l 6.13851,7.11453 1.83624,-5.98157 c 3.33108,-10.8510297 11.47003,-20.19886034 17.58669,-20.19886034 2.19694,0 2.38125,0.2946 1.72053,2.75000004 -1.91026,7.0989806 -2.39289,11.6302203 -2.43327,22.8450103 -0.0392,10.88697 -0.24804,12.28007 -2.09088,13.94782 -2.99642,2.71172 -2.21202,6.59674 1.70753,8.45717 2.35543,1.11801 3.25446,2.28653 3.53035,4.58858 l 0.37016,3.08859 -11.10556,1.15762 c -25.00923,2.60691 -48.009346,11.88697 -64.406218,25.98653 l -5.54893,4.77149 z m 7.30572,-11.35131 c 2.15237,-2.15237 0.3137,-5.67716 -2.73404,-5.24124 -2.77572,0.39702 -3.4587,3.7773 -1.11016,5.49459 2.21213,1.61755 1.95645,1.6344 3.8442,-0.25335 z m 27.949282,-16.66179 c 1.666096,-2.6457 -1.37052,-5.37718 -4.25921,-3.8312 -2.3841,1.27593 -2.70951,3.06958 -0.88747,4.89162 1.58359,1.58359 3.76462,1.13421 5.14668,-1.06042 z m 28.124126,-11.76876 c 0,-2.98436 -3.455,-3.96408 -5.45995,-1.54826 -1.04659,1.26106 -1.04659,1.83546 0,3.09651 2.00495,2.41582 5.45995,1.4361 5.45995,-1.54825 z m 17.43043,0.41617 c -0.92947,-1.11994 -1.01763,-2.05438 -0.301,-3.19048 1.46605,-2.32416 2.91548,-2.53792 4.75252,-0.70089 1.22412,1.22412 1.36446,2.08051 0.58088,3.54464 -1.25366,2.3425 -3.26126,2.48082 -5.0324,0.34673 z"
         style="fill:#fcfcfc"
         id="path1"
         sodipodi:nodetypes="sssssssssssssssssscssssssssssscssssssscsscssssssssssssssssss" />
      <path
         style="fill:#e31a1f"
         d="m 205.59894,212.85255 c -2.73445,-0.45716 -6.81034,-1.53337 -9.05754,-2.39158 l -4.08581,-1.56039 0.35935,-8.7408 c 0.19764,-4.80743 0.70522,-17.74079 1.12796,-28.74079 l 0.76862,-20 -6.39354,-9.24788 -6.39354,-9.24788 -4.92689,4.15442 c -2.70979,2.28493 -4.92689,4.36259 -4.92689,4.61703 0,0.25444 3.44259,4.69922 7.6502,9.87729 l 7.6502,9.41466 -5.30916,20.71618 c -2.92004,11.3939 -5.41391,20.85496 -5.54193,21.02458 -0.4826,0.63939 -23.21791,-3.98456 -29.44931,-5.98944 -5.37272,-1.72862 -11.57762,-4.30264 -12.76657,-5.29604 -0.14661,-0.1225 3.79089,-21.66859 8.75,-47.8802 4.95911,-26.21161 9.01657,-48.104157 9.01657,-48.650096 0,-2.709735 29.46706,0.03561 47.5,4.425399 27.46575,6.686047 40.99648,14.495417 50.56735,29.185347 7.46382,11.45591 9.9001,23.73354 6.38531,32.17875 -1.94567,4.67499 -8.58203,11.52235 -14.45266,14.91217 -2.475,1.42912 -4.60048,2.67051 -4.72328,2.75866 -0.21125,0.15164 5.09132,28.50043 6.22813,33.29705 l 0.53325,2.25 -16.76905,-0.11762 c -9.22298,-0.0647 -19.00632,-0.49166 -21.74077,-0.94882 z"
         id="path17" />
      <path
         style="fill:#e31a1f"
         d="m 4.2486733,187.66899 c -8.921416,-32.0375 -16.2111373,-59.25213 -16.1993823,-60.47695 0.02959,-3.08281 3.0746183,-4.72512 13.3882623,-7.22083 42.1743037,-10.20539 83.3659507,-13.51585 104.1331067,-8.3689 14.43045,3.57646 26.34715,12.98581 30.5411,24.11505 1.77366,4.70665 2.08149,7.28995 1.76402,14.80337 -0.33289,7.87823 -0.83893,10.02463 -3.76445,15.96721 -4.44625,9.03163 -10.90553,15.3352 -20.82414,20.32218 -8.63715,4.34267 -35.113396,13.63637 -41.818777,14.67923 l -4.102251,0.638 -0.636744,-3.85418 c -1.193696,-7.2254 -0.730536,-10.78427 1.909019,-14.66873 1.412274,-2.07835 2.424774,-4.1583 2.25,-4.62211 -0.475162,-1.26098 -24.20797,-27.06334 -24.892645,-27.06334 -0.593061,0 -5.846145,6.31857 -7.365616,8.85959 -0.574559,0.96083 3.040691,5.22123 12.326637,14.52632 l 13.139639,13.16674 1.95759,20.47368 c 1.076675,11.26052 2.150119,22.1393 2.385432,24.17508 l 0.427842,3.70141 -9.156596,3.05052 c -11.822277,3.9386 -22.988517,6.04666 -32.028643,6.04666 h -7.21265 z"
         id="path3" />
    </g>
  </g>
</svg>
