<?xml version="1.0" encoding="UTF-8" standalone="no"?>
<!-- Generator: Adobe Illustrator 16.0.0, SVG Export Plug-In . SVG Version: 6.00 Build 0)  -->

<svg
   version="1.1"
   id="Layer_1"
   x="0px"
   y="0px"
   width="74.999634mm"
   height="57.955002mm"
   viewBox="0 0 283.46318 219.04253"
   enable-background="new 0 0 612 792"
   xml:space="preserve"
   inkscape:version="1.3.2 (091e20e, 2023-11-25, custom)"
   sodipodi:docname="Superman_S_symbol.svg"
   xmlns:inkscape="http://www.inkscape.org/namespaces/inkscape"
   xmlns:sodipodi="http://sodipodi.sourceforge.net/DTD/sodipodi-0.dtd"
   xmlns:xlink="http://www.w3.org/1999/xlink"
   xmlns="http://www.w3.org/2000/svg"
   xmlns:svg="http://www.w3.org/2000/svg"
   xmlns:rdf="http://www.w3.org/1999/02/22-rdf-syntax-ns#"
   xmlns:cc="http://creativecommons.org/ns#"
   xmlns:dc="http://purl.org/dc/elements/1.1/"
   xmlns:inkstitch="http://inkstitch.org/namespace"><sodipodi:namedview
   pagecolor="#ffffff"
   bordercolor="#666666"
   borderopacity="1"
   objecttolerance="10"
   gridtolerance="10"
   guidetolerance="10"
   inkscape:pageopacity="0"
   inkscape:pageshadow="2"
   inkscape:window-width="1855"
   inkscape:window-height="1057"
   id="namedview11"
   showgrid="false"
   fit-margin-top="0"
   fit-margin-left="0"
   fit-margin-right="0"
   fit-margin-bottom="0"
   inkscape:zoom="1.6856283"
   inkscape:cx="189.54357"
   inkscape:cy="88.097714"
   inkscape:window-x="57"
   inkscape:window-y="-8"
   inkscape:window-maximized="1"
   inkscape:current-layer="Layer_1"
   inkscape:showpageshadow="2"
   inkscape:pagecheckerboard="0"
   inkscape:deskcolor="#d1d1d1"
   inkscape:document-units="mm" /><metadata
   id="metadata15"><rdf:RDF><cc:Work
       rdf:about=""><dc:format>image/svg+xml</dc:format><dc:type
         rdf:resource="http://purl.org/dc/dcmitype/StillImage" /></cc:Work></rdf:RDF><inkstitch:min_stitch_len_mm>0</inkstitch:min_stitch_len_mm><inkstitch:collapse_len_mm>3</inkstitch:collapse_len_mm><inkstitch:inkstitch_svg_version>1</inkstitch:inkstitch_svg_version></metadata><defs
   id="defs13">
	
	
	
<symbol
   id="inkstitch_trim">
      <title
   id="inkstitch_title9282">Trim the thread after sewing this object.</title>
      <path
   id="inkstitch_circle13405"
   d="m 9.2465284,-8.6e-6 c 1.8e-6,2.452339 -0.9741847,4.804237 -2.7082493,6.538304 C 4.8042146,8.2723614 2.4523174,9.2465504 -2.1625959e-5,9.2465514 -2.4523623,9.2465534 -4.8042621,8.2723654 -6.5383288,6.5382984 -8.2723956,4.8042314 -9.2465834,2.4523324 -9.2465816,-8.6e-6 c 6e-7,-2.452339 0.9741895,-4.804237 2.708256,-6.538301 1.7340665,-1.734065 4.0859648,-2.708252 6.538303974041,-2.70825 C 5.1067066,-9.2465576 9.2465271,-5.1067366 9.2465284,-8.6e-6 c 0,0 0,0 0,0"
   style="opacity:1;vector-effect:none;fill:#fafafa;fill-opacity:1;fill-rule:evenodd;stroke:#003399;stroke-width:1.065;stroke-linecap:round;stroke-linejoin:miter;stroke-miterlimit:4;stroke-dasharray:3.195, 3.195;stroke-dashoffset:0;stroke-opacity:1"
   inkscape:connector-curvature="0" />
      <path
   style="color:#000000;font-style:normal;font-variant:normal;font-weight:normal;font-stretch:normal;font-size:medium;line-height:normal;font-family:sans-serif;font-variant-ligatures:normal;font-variant-position:normal;font-variant-caps:normal;font-variant-numeric:normal;font-variant-alternates:normal;font-feature-settings:normal;text-indent:0;text-align:start;text-decoration:none;text-decoration-line:none;text-decoration-style:solid;text-decoration-color:#000000;letter-spacing:normal;word-spacing:normal;text-transform:none;writing-mode:lr-tb;direction:ltr;text-orientation:mixed;dominant-baseline:auto;baseline-shift:baseline;text-anchor:start;white-space:normal;shape-padding:0;clip-rule:nonzero;display:inline;overflow:visible;visibility:visible;opacity:1;isolation:auto;mix-blend-mode:normal;color-interpolation:sRGB;color-interpolation-filters:linearRGB;solid-color:#000000;solid-opacity:1;vector-effect:none;fill:#050505;fill-opacity:1;fill-rule:evenodd;stroke:none;stroke-width:1.41421;stroke-linecap:butt;stroke-linejoin:miter;stroke-miterlimit:4;stroke-dasharray:none;stroke-dashoffset:0;stroke-opacity:1;color-rendering:auto;image-rendering:auto;shape-rendering:auto;text-rendering:auto;enable-background:accumulate"
   d="m -3.0000256,-5.9834096 c -1.30575,0 -2.375,1.06924 -2.375,2.375 0,1.30575 1.06925,2.375 2.375,2.375 0.58687,0 1.11944,-0.22369 1.53516,-0.58007 0,0 0.61717997,1.62109 0.61717997,1.62109 0,0 -2.29881997,6.01758 -2.29881997,6.01758 0.98655,-0.12511 1.23728,-0.26171 1.67382,-0.97461 0,0 1.33007997,-3.18945 1.33007997,-3.18945 0,0 1.23633003,3.25 1.23633003,3.25 0.23227,0.77906 0.84315,0.79218 1.57813,1.07226 0,0 -2.05469003,-6.14258 -2.05469003,-6.14258 0,0 0.73047003,-1.75 0.73047003,-1.75 0.42849,0.41682 1.01136,0.67578 1.65234,0.67578 1.30575,0 2.375,-1.06925 2.375,-2.375 0,-1.30576 -1.06925,-2.375 -2.375,-2.375 -1.06233,0 -1.95701,0.71265 -2.25781003,1.67969 0,0 -0.0117,-0.0156 -0.0117,-0.0156 0,0 -0.80274,2.10156 -0.80274,2.10156 0,0 -0.59179,-1.76562 -0.59179,-1.76562 -0.18242,-1.12808 -1.15864997,-2 -2.33593997,-2 0,0 -2e-5,-3e-5 -2e-5,-3e-5 m 0,1 c 0.76531,0 1.375,0.60968 1.375,1.375 0,0.76531 -0.60969,1.375 -1.375,1.375 -0.76531,0 -1.375,-0.60969 -1.375,-1.375 0,-0.76532 0.60969,-1.375 1.375,-1.375 0,0 0,0 0,0 m 6,0 c 0.76531,0 1.375,0.60968 1.375,1.375 0,0.76531 -0.60969,1.375 -1.375,1.375 -0.76531,0 -1.375,-0.60969 -1.375,-1.375 0,-0.76532 0.60969,-1.375 1.375,-1.375 0,0 0,0 0,0"
   id="inkstitch_path13416"
   inkscape:connector-curvature="0" />
    </symbol>
    </defs>
<polygon
   style="fill:none;fill-rule:evenodd;stroke:#ffff00;stroke-width:1.03849;stroke-dasharray:none;stroke-opacity:1"
   id="polygon7"
   points="393.252,364.146 361.118,330.593 251.231,330.416 217.504,364.146 302.271,466.223 "
   clip-rule="evenodd"
   transform="matrix(1.396686,0,0,1.3608341,-284.04283,-432.83997)" /><path
   style="fill:#fff200;fill-rule:evenodd;stroke-width:1.52704"
   inkscape:connector-curvature="0"
   id="path9"
   d="M 30.165758,63.751616 67.547193,24.978637 95.684861,25.154869 C 62.696992,41.353994 44.234965,64.611807 49.685214,84.649107 Z m 76.488312,88.056204 c 26.41181,7.3501 42.71104,8.56126 66.19999,1.24041 l -33.81973,35.99942 z m -44.802045,-51.57988 27.567927,31.44409 c 4.188068,-16.47152 47.741568,-6.40362 51.562958,7.08539 18.25538,6.10045 49.36436,-4.27986 49.79924,-13.94762 -0.0848,-23.31991 -106.106359,-3.97207 -128.930125,-24.58186 z m 162.837735,-70.2075 -0.73943,33.264688 -40.83878,-0.22887 C 183.6934,41.062935 165.13249,30.491363 133.45226,31.377806 111.14518,31.821027 89.71087,40.676221 89.419952,55.288676 76.282444,97.091518 207.82356,53.408168 219.1198,100.89738 l 36.73875,-38.687112 z m -51.08112,-5.383292 22.78133,0.0277 -4.99265,17.220998 C 187.19865,31.459371 180.13015,27.653515 173.60864,24.637148 Z"
   clip-rule="evenodd"
   sodipodi:nodetypes="cccccccccccccccccccccccccc" /><path
   id="path3"
   style="fill:none;stroke:#ed1c24;stroke-width:1.51522px"
   d="M 143.90264,206.88647 275.97776,62.507926 223.60833,9.229722 64.012421,8.8542 M 132.36776,196.33453 254.43665,62.894344 217.04381,24.852626 63.987881,24.487369 M 259.07692,86.773482 241.77461,70.945593 m 18.7017,-29.783441 -16.72352,16.438262 M 243.40984,23.799528 226.68633,40.237789 M 200.76942,5.2855694 200.73258,28.735324"
   inkstitch:satin_column="true"
   sodipodi:nodetypes="cccccccccccccccc" /><path
   id="path4"
   style="fill:none;stroke:#ed1c24;stroke-width:1.51522px"
   d="M 64.241692,9.130434 9.0499921,62.206118 137.57963,210.27647 M 75.151865,20.327073 30.434764,63.196151 149.47764,200.13577 M 21.322181,44.790994 37.687441,61.585952 M 18.082754,78.829321 35.92977,63.618263"
   inkstitch:satin_column="true"
   sodipodi:nodetypes="cccccccccc" />
<g
   id="command_group1"
   inkscape:label="Ink/Stitch Command: Trim thread after sewing this object"
   transform="matrix(1.5152232,0,0,1.5152232,9.0980791,9.904613)"><path
     id="command_connector1"
     d="m 39.667753,-28.628021 2.52862,36.8458458"
     style="fill:none;stroke:#000000;stroke-width:1px;stroke-opacity:0.5"
     inkscape:connection-start="#command_use139"
     inkscape:connection-end="#path4"
     inkscape:label="connector"
     inkscape:connector-type="polyline"
     inkscape:connector-curvature="0" /><use
     id="command_use139"
     xlink:href="#inkstitch_trim"
     height="100%"
     width="100%"
     x="39.665173"
     y="-28.663868"
     inkscape:label="command marker" /></g><path
   style="fill:none;fill-opacity:1;stroke:#ed1c24;stroke-width:2.8634;stroke-dasharray:none;stroke-opacity:1"
   d="m 197.08243,21.590412 c -1.79856,7.146295 -1.93645,10.955105 -4.49566,17.865724 -3.93806,10.639575 -7.01092,15.506161 -11.68537,25.843602 m 44.04594,-43.372235 c -0.0894,7.371048 -0.0333,11.058489 -0.22426,18.427613 -0.25909,9.980909 -0.53941,14.966743 -0.89852,24.944622 m 2.11022,-24.910783 -34.55929,-0.966692"
   id="path1"
   inkstitch:satin_column="True" /><path
   style="fill:none;fill-opacity:1;stroke:#ed1c24;stroke-width:1.43171;stroke-dasharray:none;stroke-opacity:1"
   d="m 184.25898,61.472388 c -3.36833,-6.419839 -6.22136,-11.642901 -11.01096,-17.08527 -3.69109,-4.193676 -6.87608,-4.921134 -11.99753,-7.150781 -3.80986,-1.658106 -5.95042,-2.118732 -10.09075,-2.462991 -10.45412,-0.869282 -15.77103,-1.489613 -26.21954,-0.556086 -7.64898,0.683364 -11.49143,1.779475 -18.64796,4.564754 -5.3013,2.063276 -7.834452,3.692441 -12.13526,7.415944 -2.554054,2.211313 -3.975637,3.76002 -4.606872,7.078807 -0.843832,4.437475 -0.04836,6.874102 1.12369,11.236422 0.499106,1.857812 1.112926,3.164538 2.921494,3.820326 6.728648,2.440111 10.506088,2.212373 17.528528,3.595618 4.84355,0.953985 7.22124,1.775994 12.13525,2.247227 8.23992,0.790181 12.40102,0.644574 20.67488,0.898976 9.37103,0.288046 14.07792,-0.144402 23.43349,0.457293 7.34883,0.472595 11.12172,0.4773 18.27508,2.224648 9.5868,2.342077 15.12947,2.49678 23.35864,7.945363 6.31695,4.182771 13.67487,7.855818 11.44143,15.095992 -4.1517,13.46077 -14.41884,15.44525 -24.03443,25.73906 -2.60466,2.78845 -3.95927,4.13488 -6.51696,6.96653 -2.95772,3.27272 -4.36687,4.97068 -7.26851,8.29204 -4.32748,4.95326 -5.16539,9.01056 -10.80505,12.39465 -5.71086,3.42668 -9.6065,2.92878 -16.20861,3.81366 -6.50333,0.87171 -9.83348,0.45608 -16.39424,0.55654 -2.11418,0.0324 -3.18575,0.0585 -5.28114,-0.2247 -4.56946,-0.61746 -6.82698,-1.1196 -11.34871,-2.02252 -1.87554,-0.37457 -2.76996,-0.75155 -4.63642,-1.1696 -1.64219,-0.36789 -2.5089,-0.34835 -4.13155,-0.79458 -0.93353,-0.25668 -1.30869,-0.64003 -2.22465,-0.95338 -1.50355,-0.51442 -2.25373,-0.81034 -3.81381,-1.11232 -0.44123,-0.0855 -0.66745,0.0953 -1.11232,0.15894 M 193.15787,40.496886 c -4.06836,-3.686684 -8.09417,-7.359523 -12.75953,-10.252382 -5.01538,-3.109839 -7.88217,-4.385352 -13.66578,-5.561648 -5.66844,-1.152916 -8.67615,-0.202903 -14.46051,-0.158901 -10.93412,0.08314 -16.39771,0.410579 -27.33185,0.476704 -10.56033,0.06391 -15.97542,-1.83513 -26.401044,-0.15172 -8.719343,1.407958 -12.914535,3.535479 -20.674737,7.753096 -6.871826,3.734564 -10.29971,6.074217 -15.506159,11.910392 -6.108612,6.847585 -9.561497,10.587301 -12.359957,19.326487 -2.522691,7.877934 -3.447582,12.965437 -0.449415,20.674878 3.704412,9.525744 7.503221,14.374898 16.180283,19.775908 9.812265,6.1077 16.389842,6.26938 27.866121,7.64065 17.319118,2.06964 26.160278,0.44608 43.596838,0.89898 10.25031,0.26622 15.40585,-0.0164 25.61904,0.89883 6.34575,0.56881 9.54134,1.09671 15.67951,2.8021 4.14261,1.15051 6.21392,2.00403 9.85347,4.2905 1.46371,0.91973 1.84706,1.91251 2.54254,3.49591 0.37427,0.85459 0.39093,1.47901 0.0152,2.33329 -0.83336,1.89418 -1.4243,2.84044 -2.92134,4.26989 -2.50163,2.38996 -3.79715,3.7232 -6.94577,5.15584 -4.579,2.08192 -7.14427,2.52057 -12.07783,3.49592 -6.03209,1.19248 -9.10526,1.90676 -15.25463,1.90676 -5.13296,1.5e-4 -8.07992,0.35062 -12.68967,-1.90661 -2.53375,-1.24066 -1.40158,-4.29413 -3.59562,-6.06754 -3.42349,-2.76741 -5.80663,-3.18212 -9.88803,-4.83174 -2.20934,-0.89292 -3.46879,-0.86474 -5.76677,-1.49553 -3.12363,-0.85746 -4.58597,-1.72462 -7.78627,-2.22465 -4.97552,-0.77745 -7.5561,-1.5734 -12.5536,-0.95352 -3.445764,0.42744 -5.114931,1.48491 -7.945211,3.49592 -2.136463,1.51794 -2.479051,3.05104 -4.131553,5.08508 M 180.94526,29.162786 172.70058,45.468902 m -11.93555,-7.121644 6.45252,-14.775272 m -14.81476,-0.253139 -1.37391,12.659609 M 124.94025,35.429363 V 23.788488 m -26.990455,0.0012 8.931875,16.051497 M 95.087731,46.974595 76.933684,31.825354 M 61.204529,44.140637 90.70388,53.64869 M 91.885795,64.533236 48.786296,63.81888 M 48.41102,84.931775 94.733054,67.915516 m 17.377876,3.309964 -47.368825,33.76788 m 28.104209,7.89022 31.161706,-39.660356 m 20.139,0.658768 -7.16796,40.140628 m 25.68828,0.90924 4.84431,-40.602867 m 18.35036,2.236241 -7.59043,41.157106 m 9.45738,4.14319 21.88693,-37.207763 m 11.77514,15.386093 -31.45352,25.02752 m -0.24761,1.60335 7.92964,-0.16184 m -7.00848,7.96606 -3.35118,-4.53397 m -6.55033,4.9627 2.23793,8.05651 m -10.89727,12.4163 -3.3258,-16.99855 m -15.16112,1.8923 2.18475,18.93455 m -16.64753,0.55912 2.02631,-21.40294 m -3.54149,-6.06125 -3.82003,27.23312 m -11.39372,-2.02973 5.37083,-30.02782 m -5.81642,-1.50342 -4.14129,30.3695 m -3.97431,-0.78344 0.172,-31.82184 m -12.95639,-0.88683 10.96256,31.68865 m -3.60428,-1.20793 -15.513,-26.88921"
   id="path2"
   inkstitch:satin_column="True"
   sodipodi:nodetypes="cccccccccccscsccccccccscccscccccccccccccccscccccccccscsscccccccccccccccccccccccccccccccccccccccccccccccccccccccccccc" /></svg>
