<?xml version="1.0" encoding="UTF-8" standalone="no"?>
<!-- Created with Inkscape (http://www.inkscape.org/) -->

<svg
   version="1.1"
   id="svg1"
   width="120mm"
   height="38.200001mm"
   viewBox="0 0 453.54332 144.37796"
   sodipodi:docname="Taylor_swift_logo.svg"
   inkscape:version="1.3.2 (091e20e, 2023-11-25, custom)"
   xmlns:inkscape="http://www.inkscape.org/namespaces/inkscape"
   xmlns:sodipodi="http://sodipodi.sourceforge.net/DTD/sodipodi-0.dtd"
   xmlns="http://www.w3.org/2000/svg"
   xmlns:svg="http://www.w3.org/2000/svg"
   xmlns:inkstitch="http://inkstitch.org/namespace">
  <sodipodi:namedview
     id="namedview1"
     pagecolor="#ffffff"
     bordercolor="#000000"
     borderopacity="0.25"
     inkscape:showpageshadow="2"
     inkscape:pageopacity="0.0"
     inkscape:pagecheckerboard="0"
     inkscape:deskcolor="#d1d1d1"
     inkscape:zoom="1.3483333"
     inkscape:cx="222.12608"
     inkscape:cy="71.569839"
     inkscape:window-width="1855"
     inkscape:window-height="1057"
     inkscape:window-x="57"
     inkscape:window-y="-8"
     inkscape:window-maximized="1"
     inkscape:current-layer="g1"
     inkscape:document-units="mm"
     showguides="false" />
  <metadata
     id="metadata1">
    <inkstitch:min_stitch_len_mm>0</inkstitch:min_stitch_len_mm>
    <inkstitch:collapse_len_mm>3</inkstitch:collapse_len_mm>
    <inkstitch:inkstitch_svg_version>1</inkstitch:inkstitch_svg_version>
  </metadata>
  <defs
     id="defs1" />
  <g
     inkscape:groupmode="layer"
     inkscape:label="Image"
     id="g1">
    <path
       id="path2"
       style="fill:none;stroke:#000000;stroke-width:1.6429px"
       d="m 9.6417604,35.538535 4.1810926,-0.489478 1.492601,-0.376061 3.905858,-0.984084 7.292526,-2.063197 9.403446,-2.335023 10.114954,-2.278716 9.319568,-1.86639 16.553732,-2.878264 14.374264,-2.149246 12.89247,-1.515609 12.131818,-0.979865 12.45659,-0.560782 1.72523,0.188631 1.00014,0.463142 M 8.9197604,29.371232 l 3.7788016,-0.442379 0.937969,-0.236322 3.980711,-1.002944 7.302747,-2.06609 9.566566,-2.375526 10.253502,-2.309928 9.470053,-1.896528 16.704328,-2.904447 14.543562,-2.174562 13.101635,-1.5402 12.354755,-0.997869 13.04529,-0.587284 3.21238,0.351231 1.92325,0.890612 M 23.459508,34.10313 20.923886,25.140787 m 19.816381,4.654635 -2.047005,-9.086406 m 23.077312,4.896159 -1.595547,-9.17645 m 18.121285,6.452657 -1.377343,-9.211728 m 15.550568,7.283814 -1.087462,-9.250428 m 14.097945,7.94737 -0.74984,-9.283897 m 13.8049,8.484485 -0.41888,-9.3047055"
       inkstitch:satin_column="true" />
    <path
       id="path3"
       style="fill:none;stroke:#000000;stroke-width:1.6429px"
       d="m 57.090626,94.424136 -0.5961,0.595917 L 56.372073,94.488315 55.840939,83.097048 55.687278,68.69387 55.8413,53.211764 l 0.244286,-9.111719 0.293698,-4.760313 0.350923,-1.547879 0.570866,-0.768112 m 4.179588,61.791802 -1.818897,1.818337 -2.26028,1.47807 -2.749967,-0.34669 -2.18125,-1.43558 -1.560235,-1.889923 -0.714581,-3.103342 -0.562388,-12.061586 -0.155533,-14.578721 0.155173,-15.598443 0.248587,-9.272101 0.331264,-5.369207 0.751799,-3.316117 1.352978,-1.820456 m 5.571051,61.381066 -7.182724,5.92972 m 6.652891,-20.798799 -9.313605,0.09935 M 57.272912,65.35649 47.959238,65.26383 m 9.590893,-17.86777 -9.310789,-0.249624"
       inkstitch:satin_column="true" />
    <path
       style="fill:none;stroke:#000000;stroke-width:0.931413;stroke-dasharray:none"
       d="m 76.98865,75.257097 c 0.538545,-0.861707 0.814882,-1.288042 1.346365,-2.154019 0.631696,-1.02961 0.908855,-1.568321 1.561583,-2.584788 0.661764,-1.030598 1.221832,-1.413559 1.723247,-2.5309 0.274531,-0.611986 0.25383,-1.004805 0.161498,-1.669362 -0.02793,-0.201255 -0.254322,-0.168397 -0.43077,-0.269273 -0.276173,-0.157717 -0.394298,-0.289479 -0.700044,-0.376883 -0.75968,-0.217028 -1.152171,-0.450321 -1.938632,-0.377047 -0.88865,0.08296 -1.301841,0.354868 -2.100131,0.75393 -0.636133,0.318068 -0.920356,0.553004 -1.453974,1.023204 -0.742759,0.654699 -1.129007,0.984924 -1.723081,1.77697 -0.578799,0.771675 -0.916908,1.173695 -1.184703,2.100132 -0.263523,0.911485 -0.197643,1.424893 -0.107771,2.369404 0.04206,0.442105 0.19452,0.647141 0.430771,1.023201 0.243808,0.387727 0.379348,0.598184 0.753931,0.861542 0.441943,0.31051 0.7007,0.48778 1.238588,0.538546 0.652236,0.06145 0.973753,-0.137671 1.615473,-0.269272 1.038975,-0.213251 1.542528,-0.395449 2.58479,-0.592434 2.835823,-0.535588 4.262197,-0.758203 7.108044,-1.238424 2.259163,-0.381321 3.397863,-0.518173 5.654235,-0.915429 1.352114,-0.238222 2.038356,-0.322175 3.365663,-0.673264 1.284097,-0.339591 1.886225,-0.641721 3.150113,-1.049984 1.170244,-0.378034 1.733763,-0.651248 2.934725,-0.915427 0.96308,-0.211936 1.46433,-0.285868 2.45024,-0.269274 0.95781,0.01609 1.42161,0.209965 2.3694,0.350103 m -14.593301,2.557846 c -1.119971,-0.517025 -1.84088,-0.516695 -2.800174,-1.292477 -0.584218,-0.4725 -0.767074,-0.923807 -0.861541,-1.669359 -0.109912,-0.86762 0.458865,-1.283111 0.376882,-2.153853 -0.09562,-1.017291 -0.240851,-1.573251 -0.807653,-2.423291 -0.634163,-0.951246 -1.077585,-1.427361 -2.100131,-1.938633 -1.20573,-0.602784 -1.942575,-0.628084 -3.284831,-0.753768 -1.437546,-0.13488 -2.181127,-0.11337 -3.607829,0.107612 -1.652273,0.255966 -2.466828,0.507659 -4.038762,1.076928 -1.177473,0.426498 -1.77155,0.685913 -2.800174,1.400086 -1.316463,0.914279 -1.985128,1.410931 -3.015559,2.638676 -1.018769,1.213946 -1.444117,1.92664 -2.046243,3.392607 -0.554153,1.348499 -0.780875,2.09635 -0.807819,3.55394 -0.01758,0.946972 0.01237,1.610707 0.700044,2.261793 1.070684,1.01351 1.892631,1.274403 3.338719,1.561585 1.669196,0.331374 2.55308,-0.0011 4.254148,-0.0539 1.078406,-0.03335 1.617608,-0.06769 2.6924,-0.161497 1.144613,-0.100045 1.707966,-0.241671 2.854062,-0.323159 2.797051,-0.198628 4.229833,0.05635 7.000434,-0.376884 2.493606,-0.390027 3.678143,-0.90935 6.085004,-1.66936 1.281471,-0.404649 1.862403,-0.773153 3.12317,-1.238588 1.249269,-0.461 1.867003,-0.721239 3.15028,-1.076928 0.897521,-0.2489 1.358685,-0.376061 2.288574,-0.430771 0.55497,-0.03269 0.83788,0.06507 1.37314,0.215386 0.10366,0.02908 0.0969,0.129129 0.1615,0.215385 m -12.731116,-2.36894 -12.66311,2.099233 m 1.550281,-2.670766 10.262591,-1.011805 m 0.380942,-2.103517 -8.924347,0.533936 m 0.187809,-1.475099 7.902531,-1.676294 m -2.341801,-2.464241 -5.749853,4.396947 m -0.07794,0.06943 1.920888,-5.666627 m -4.312259,0.06882 1.157138,5.259736 m -1.423036,0.368501 -4.449898,-4.16586 m -3.009689,1.69759 6.215169,3.193904 m -1.608222,1.457161 -7.737477,-1.692572 m -2.07617,3.708576 8.658848,-0.231933 m -0.132746,2.146806 -9.308791,1.86176 m 0.768526,2.492044 8.902576,-3.561031 m 0.53638,0.500116 -5.88278,4.984025 m 4.85634,0.348336 1.662745,-5.196065 m 1.114103,-0.327906 0.417006,5.421084 m 2.958201,-0.33531 -0.894615,-5.665905 m 7.187656,-1.248619 0.627857,6.547661 m 6.283381,-1.703855 -1.455439,-5.724725 m 3.411338,-0.683883 1.121621,5.180835 m 3.152957,-1.07759 -1.127152,-5.152707 m 3.250237,-0.945347 -0.14993,5.697163 m 1.00064,0.151214 1.97196,-6.053445"
       id="path17"
       inkstitch:satin_column="True" />
    <path
       style="fill:none;stroke:#000000;stroke-width:0.931413;stroke-dasharray:none"
       d="m 102.13633,73.587735 c 0.21555,0.129302 0.44835,0.08855 0.53854,0.32316 0.2581,0.670965 0.0802,1.083334 0.26928,1.776973 0.20109,0.737007 0.12896,1.269474 0.70004,1.776969 0.70284,0.624797 1.27736,0.944179 2.2079,0.807819 1.73771,-0.254652 2.52828,-0.826713 4.0386,-1.723249 1.16943,-0.693963 1.48158,-1.4129 2.58479,-2.207741 0.37639,-0.271242 0.61741,-0.367025 1.07693,-0.430771 0.34731,-0.0483 0.54117,0.01906 0.8617,0.1615 0.10597,0.04716 0.0615,0.162811 0.10762,0.269271 0.16922,0.389042 0.31642,0.560726 0.43077,0.969318 0.0411,0.146547 -0.0542,0.224585 -0.0537,0.376884 0.021,6.526619 0.19928,9.790256 0.10761,16.316384 -0.0376,2.676134 -0.19731,4.010998 -0.43077,6.677275 -0.17595,2.009443 -0.28209,3.014903 -0.59227,5.008083 -0.7025,4.51372 -0.77939,6.83597 -1.93863,11.25441 -1.13262,4.31658 -1.90265,6.44727 -3.76949,10.50066 -1.2951,2.81216 -2.15369,4.1559 -4.09249,6.56966 -1.26273,1.57194 -2.11655,2.21152 -3.82337,3.28483 -1.182404,0.74358 -1.889019,1.23694 -3.284835,1.18471 -1.137386,-0.0426 -1.672316,-0.59523 -2.477014,-1.40009 -0.80486,-0.80487 -0.971451,-1.42276 -1.400087,-2.47702 -0.654205,-1.60939 -1.155621,-2.41458 -1.292476,-4.14653 -0.192055,-2.43414 -0.0019,-3.69211 0.484659,-6.08485 0.833119,-4.09692 1.394829,-6.13248 2.800174,-10.06988 1.101404,-3.08587 1.827736,-4.5824 3.446494,-7.4312 1.623195,-2.85702 2.690915,-4.13307 4.631035,-6.785052 2.1113,-2.886427 3.04546,-4.446368 5.49257,-7.054322 2.16305,-2.305166 3.5863,-3.101648 5.97723,-5.169578 M 103.85957,69.387475 c 1.24926,0.517023 1.90807,0.699551 3.12333,1.292313 0.55843,0.272393 0.73898,0.579289 1.29231,0.861704 0.5098,0.260072 0.78383,0.378199 1.3462,0.48466 0.25761,0.04863 0.392,-0.04419 0.64632,-0.107772 0.26418,-0.06604 0.38855,-0.126496 0.64616,-0.215385 0.36702,-0.126496 0.56023,-0.166097 0.91543,-0.32316 0.76641,-0.338932 1.08284,-0.671293 1.88474,-0.915429 1.1962,-0.364068 1.82905,-0.433729 3.06945,-0.592269 0.61954,-0.07935 0.98164,-0.231978 1.56158,0 0.99298,0.397093 1.64801,0.596541 2.20775,1.507698 0.63038,1.025997 0.56072,1.757913 0.53854,2.961835 -0.12897,6.987293 -0.62381,10.464838 -0.91543,17.447201 -0.1178,2.819561 0.0567,4.237062 -0.10761,7.054322 -0.13767,2.357907 -0.21851,3.546547 -0.64632,5.869457 -0.82326,4.47134 -1.08218,6.76583 -2.47701,11.09308 -1.56717,4.86186 -2.44153,7.31538 -4.90031,11.79297 -1.66952,3.04037 -2.81939,4.44686 -5.33107,6.83894 -2.0722,1.97345 -3.3448,2.80887 -5.9774,3.93099 -1.429986,0.60951 -2.330136,0.42288 -3.877098,0.26927 -1.74674,-0.17349 -2.7177,-0.22821 -4.254149,-1.07709 -1.641101,-0.90657 -2.492785,-1.56274 -3.446329,-3.17707 -1.291984,-2.18752 -1.649645,-3.51368 -1.992357,-6.03111 -0.357824,-2.62734 -0.300981,-4.034 0.269273,-6.62355 0.994453,-4.51685 1.88803,-6.6919 3.607829,-10.98531 1.282454,-3.20121 2.168639,-4.7048 3.8771,-7.70032 1.613337,-2.82859 2.387641,-4.291438 4.415809,-6.838933 2.362832,-2.968243 3.974692,-4.0754 6.515782,-6.892823 3.59895,-3.990464 5.83179,-4.779535 9.36437,-8.828977 m -7.18215,-10.591455 -6.41088,4.80816 m 0.28324,1.795356 7.40603,-5.760248 m 1.2809,0.407016 -7.92155,7.20789 m 2.42993,1.002504 5.91571,-8.512855 m 0.16765,-0.422068 -1.56611,7.418414 m 3.13643,-2.209691 -1.20653,-5.529957 m 2.22644,-0.94421 -0.28463,6.072138 m 0.27738,-0.0065 3.66088,-6.489759 m 1.77024,0.14599 -5.53203,6.467023 m 0.20939,0.725636 7.75187,-5.441222 m 0.74706,3.437624 -8.76134,1.904642 m 0.0788,16.091894 7.79592,-0.324828 m -0.10712,7.147632 -8.12016,-0.238828 m -0.57025,4.803655 8.02213,1.50911 m -2.47427,11.0776 -7.48924,-1.31679 m -3.61615,10.07615 6.05177,3.45816 m -5.5229,7.09574 -4.42962,-4.24112 m -3.03417,2.88923 0.69736,5.67847 m -4.168148,0.27253 0.476959,-4.76958 m -1.784088,-1.11643 -3.639962,4.52536 m -3.825621,-3.67192 6.444755,-2.83571 m -1.181424,-3.58721 -7.366725,-0.16741 m 0.279948,-6.76362 7.560721,0.98618 m 2.726867,-9.77659 -6.606377,-2.48812 m 3.928178,-7.81817 6.073547,2.99277 m 4.63723,-6.797754 -6.301306,-3.021176 m 6.570226,-6.994553 5.16928,3.063277"
       id="path18"
       inkstitch:satin_column="True"
       sodipodi:nodetypes="ccccscccccccssccccssccccscccccsccsccccccccccsscscccccccccccccccccccccccccccccccccccccccccccccccccccccccccccccccc" />
    <path
       style="fill:none;stroke:#000000;stroke-width:0.931413;stroke-dasharray:none"
       d="m 121.44149,75.660922 c 0.75377,0.258431 1.09204,0.729123 1.88475,0.646157 1.18141,-0.123557 1.79619,-0.417463 2.74628,-1.130815 2.46272,-1.849093 3.37733,-3.152578 5.68102,-5.19652 1.13262,-1.004803 1.95802,-1.244175 2.90795,-2.423125 1.49275,-1.852546 1.95605,-2.98878 3.12317,-5.061805 1.91465,-3.400656 3.0177,-5.038635 4.57731,-8.615906 1.89524,-4.347302 2.64245,-6.61468 4.03876,-11.146972 1.40716,-4.568273 2.0188,-6.891346 2.96168,-11.577578 0.50387,-2.504615 0.48318,-3.80465 0.64615,-6.35428 0.0742,-1.160879 0.0696,-1.751012 -0.054,-2.907784 -0.0507,-0.474143 -0.14966,-0.711709 -0.37687,-1.130813 -0.46708,-0.861378 -0.57979,-1.436067 -1.3462,-2.046409 -0.49601,-0.39479 -0.96686,-0.488272 -1.56175,-0.269108 -1.16072,0.42765 -1.6421,0.916579 -2.53091,1.776971 -1.15529,1.118492 -1.72457,1.732119 -2.5309,3.123333 -2.26558,3.90881 -3.40428,5.888515 -5.11569,10.069718 -1.7032,4.160995 -2.33851,6.345243 -3.39245,10.716038 -1.14806,4.761149 -1.51771,7.199553 -2.10012,12.0624 -0.41041,3.425136 -0.70744,5.182062 -0.37705,8.615908 0.49353,5.130147 0.97769,7.707542 2.42329,12.654505 0.518,1.773028 1.30611,2.459927 2.42313,3.930988 1.0692,1.407973 1.72636,2.021436 3.01555,3.231109 0.80749,0.757379 1.22939,1.151186 2.20791,1.669195 0.87895,0.465437 1.39237,0.56746 2.3694,0.75393 1.4042,0.268123 2.12691,0.293753 3.5541,0.377049 1.16105,0.06769 1.74545,-0.04371 2.90779,0 0.56337,0.02102 0.85317,0.0248 1.4001,0.161498 0.32711,0.08183 0.45229,0.226065 0.75392,0.376882 m -30.55949,-5.54646 c 0.98,-1.324677 1.25568,-2.176689 2.45007,-3.311775 1.00973,-0.959295 1.6715,-1.306606 2.96184,-1.830859 2.52794,-1.026981 4.3381,-0.375075 6.51577,-2.019297 2.33638,-1.764157 2.49887,-3.611115 4.14638,-6.031119 1.47583,-2.167984 2.3004,-3.197102 3.66171,-5.438851 2.23829,-3.685701 3.39869,-5.514917 5.33109,-9.369837 2.16519,-4.318879 3.33083,-6.470105 4.90029,-11.039034 1.58705,-4.619695 2.03838,-7.050378 2.96184,-11.847016 0.52343,-2.719177 0.56385,-4.124686 0.64567,-6.892659 0.0476,-1.598551 0.003,-2.419348 -0.32267,-3.984875 -0.21867,-1.049491 -0.22096,-1.765799 -1.02305,-2.477015 -1.41289,-1.252717 -2.38056,-1.650631 -4.20024,-2.154017 -1.3081,-0.361769 -2.11296,-0.398407 -3.39262,0.0539 -1.70108,0.60114 -2.35775,1.353427 -3.76949,2.477013 -1.76515,1.405015 -2.78702,2.022749 -4.14638,3.823378 -2.78703,3.69178 -4.09987,5.648321 -6.13873,9.800608 -2.11803,4.313128 -2.98697,6.605151 -4.20025,11.254418 -1.36181,5.218371 -1.72194,7.929663 -2.20791,13.300827 -0.35717,3.947417 -0.39315,5.976574 0.10777,9.908382 0.64665,5.075439 1.10634,7.646427 2.74629,12.493009 0.80272,2.372689 1.63535,3.446165 3.28483,5.331075 1.268,1.449373 2.23123,1.854351 3.8771,2.85406 1.27688,0.775619 1.98069,1.073314 3.39244,1.561586 1.46646,0.507165 2.23731,0.671292 3.7695,0.915429 1.45034,0.231321 2.19312,0.258265 3.66188,0.269272 1.38119,0.01051 2.07713,-0.03286 3.44634,-0.215385 0.58077,-0.07738 0.89768,-0.129302 1.40007,-0.430771 0.39266,-0.235593 0.45231,-0.517024 0.75395,-0.861542 M 123.6818,80.416725 123.21284,74.99769 m 2.57976,-1.105588 1.01749,4.668489 m 6.54853,-2.026932 -1.91765,-7.83045 m 2.12334,-1.870285 4.72524,3.116658 m 3.77594,-5.652422 -5.49209,-2.312456 m 4.48705,-8.289184 6.42628,0.905111 m 4.90083,-11.042859 -7.28892,-1.005364 m 2.95364,-11.503456 7.3051,0.587766 m 0.64962,-7.043435 -7.31198,0.252138 m -0.005,-2.598211 6.94663,-1.948444 m -1.20467,-2.86541 -5.93739,4.071351 m -0.68536,-1.5452 1.76161,-5.181209 m -4.28929,0.07222 1.86281,4.82138 m -1.96574,1.356147 -4.2317,-3.279569 m -4.38046,4.301108 6.3153,1.623933 m -5.11614,10.071378 -7.33764,-1.896247 m -4.23192,11.420364 8.20869,1.026091 m -2.09579,11.775806 -8.32507,0.785383 m 0.17587,10.219613 7.70407,-2.700398 m 2.42702,12.665557 -7.38854,2.516975 m 3.48251,5.702553 6.13154,-4.659975 m 2.97186,3.176503 -5.18252,4.391955 m 3.59281,1.752854 3.59725,-4.666695 m 1.84407,0.510069 -1.14656,5.315886 m 3.70144,0.277168 0.9595,-5.224027 m 2.64124,-0.02129 0.11237,5.051232 m 1.40953,-0.43104 -0.13112,-4.458401"
       id="path19"
       inkstitch:satin_column="True" />
    <path
       style="fill:none;stroke:#000000;stroke-width:0.931413;stroke-dasharray:none"
       d="m 146.8315,70.464402 c -0.32316,0.366205 -0.66423,0.448678 -0.80782,0.915428 -0.30575,0.993632 -0.26927,1.54532 -0.26927,2.584789 0,0.361112 0.0709,0.560068 0.26927,0.861707 0.35208,0.53493 0.57519,0.786624 1.07693,1.184701 0.15296,0.121083 0.29524,0.0077 0.48465,0.05373 0.60954,0.148355 0.88406,0.365713 1.50787,0.430771 0.83575,0.0874 1.28427,0.147698 2.10012,-0.05373 1.04885,-0.259252 1.77517,-0.255637 2.47702,-1.077092 0.49009,-0.573375 0.0323,-1.130814 0.054,-1.884744 m -7.64659,-5.223302 c -1.48634,0.926109 -2.40293,1.156444 -3.71561,2.315518 -1.11751,0.986565 -1.76432,1.556491 -2.26163,2.96167 -0.41714,1.178459 -0.40005,1.98102 0.10759,3.123335 0.51341,1.155293 1.1377,1.629108 2.26163,2.20774 1.14937,0.591777 1.88737,0.504867 3.17721,0.592434 1.26948,0.08608 1.92615,0.07163 3.17707,-0.161663 1.31251,-0.244628 1.91956,-0.574689 3.17705,-1.023038 1.22085,-0.435208 1.82051,-0.683451 3.01573,-1.184703 0.80831,-0.33926 1.19604,-0.549223 1.99284,-0.915429 m -15.93101,-5.883487 6.2287,1.373979 m -0.24219,2.401503 -8.27526,-0.630494 m 0.16456,3.617794 8.32309,-2.620232 m 0.94223,0.8898 -6.86888,4.233144 m 3.64394,1.043939 3.24277,-5.674827 m 0.98149,0.263659 -0.52085,5.416755 m 3.83343,-1.12893 -1.86877,-4.235884 m 2.19844,-0.910208 2.96455,3.794625"
       id="path20"
       inkstitch:satin_column="True" />
    <path
       style="fill:none;stroke:#000000;stroke-width:0.931413;stroke-dasharray:none"
       d="m 146.77761,70.464402 c 0.66768,0.08625 1.01811,0.0447 1.66937,0.215386 0.67309,0.176612 0.97949,0.363576 1.61547,0.64632 0.52819,0.234606 0.78596,0.367519 1.29231,0.646155 0.78664,0.43258 1.15021,0.701687 1.93864,1.130815 0.91378,0.497309 1.47024,0.577974 2.31634,1.184701 0.85267,0.612971 0.86579,1.572921 1.88441,1.830857 0.96438,0.244138 1.42111,-0.45147 2.36907,-0.75393 1.07776,-0.343696 1.58705,-0.621019 2.69273,-0.861541 2.56293,-0.558096 3.87233,-0.706286 6.46156,-1.130815 1.35211,-0.221792 2.04049,-0.262042 3.39261,-0.484656 0.34994,-0.05768 0.51423,-0.142609 0.86087,-0.215387 0.57996,-0.121242 0.8724,-0.162484 1.454,-0.269273 0.47478,-0.08707 0.70973,-0.14079 1.18453,-0.215385 0.6243,-0.09776 0.93482,-0.151475 1.5624,-0.215386 0.42879,-0.04386 0.64566,-0.02513 1.07611,-0.05388 0.54051,-0.03599 0.8083,-0.07394 1.34719,-0.107612 0.4945,-0.03104 0.74259,-0.03236 1.23874,-0.0539 m -34.57173,-3.607992 c 0.86154,-0.301474 1.26897,-0.530002 2.15402,-0.753767 0.99561,-0.251858 1.51016,-0.318559 2.5309,-0.430935 1.33011,-0.146384 2.03031,-0.496487 3.33855,-0.215386 1.39369,0.299503 2.04263,0.752781 3.17788,1.615473 1.0564,0.803219 1.25025,1.55682 2.20643,2.477179 0.20207,0.194191 0.3828,0.178419 0.64731,0.269272 0.48958,0.167905 0.73273,0.261222 1.23874,0.376882 0.53068,0.121735 0.80011,0.211115 1.34555,0.215386 2.26229,0.01741 3.40247,0.06079 5.6549,-0.161499 1.25188,-0.123876 1.8844,-0.272393 3.06894,-0.700041 0.40251,-0.145235 0.6966,-0.287181 0.80832,-0.700044 0.47151,-1.762677 0.14292,-2.754665 0.59145,-4.523421 0.31379,-1.233825 0.66208,-1.801779 1.29297,-2.907784 0.3483,-0.611162 0.51752,-1.000204 1.13032,-1.346365 0.46987,-0.265165 1.0186,-0.482194 1.34555,-0.05373 1.36853,1.791592 0.96438,3.390635 2.47749,5.061804 0.57831,0.638925 1.29297,0.03236 2.15385,0.05389 m -32.90185,-0.3407 -0.48398,5.904685 m 1.37834,0.604635 1.87369,-6.898558 m 3.68557,-0.06479 -4.61377,7.458938 m 1.72817,0.969203 6.27315,-6.651022 m 2.33727,2.618383 -6.42435,5.076017 m 2.22049,2.131274 4.51429,-7.238437 m 1.14378,0.323165 -3.19394,6.215163 m 2.99769,-0.749926 1.23728,-5.361507 m 5.24315,-0.190122 0.39247,4.449367 m 3.57992,-0.514941 -1.09044,-4.604173 m 0.83711,-0.706647 1.08555,5.102028 m 1.44602,-0.267592 -1.93131,-9.359445 m 1.38041,-2.922938 1.64755,12.082052 m 1.59479,-0.220349 -2.14464,-13.202986 m 1.37849,-0.05869 1.81089,13.212645 m 1.2457,-0.09782 -0.47897,-8.062819"
       id="path21"
       inkstitch:satin_column="True" />
    <path
       style="fill:none;stroke:#000000;stroke-width:0.811078;stroke-dasharray:none"
       d="m 179.591,71.769322 c 0.29186,0.106149 0.58513,-0.0094 0.72964,0.265386 0.43348,0.825487 0.47067,1.33022 0.59657,2.254708 0.0372,0.274399 -0.18026,0.386849 -0.19885,0.663108 -0.0887,1.297172 -0.32763,1.976016 -0.0673,3.249439 0.36052,1.751834 0.35336,2.888917 1.59231,4.177934 0.97713,1.016479 1.97717,1.123492 3.38207,0.994733 1.9471,-0.178545 2.74542,-1.034505 4.57522,-1.724222 m -8.75274,-15.252613 c 0.9285,0 1.39203,-0.02689 2.32052,0 0.90274,0.02618 1.95571,-0.719904 2.25472,0.132627 0.83405,2.378174 -0.0372,3.780356 0,6.30002 0.0157,1.088727 -0.0172,1.640529 0.13305,2.718954 0.14305,1.025922 0.0214,1.658126 0.59657,2.519951 0.32619,0.488568 0.80975,0.399439 1.39203,0.464248 0.87127,0.09671 1.31334,-0.03978 2.1889,-0.06624 m -5.96777,-13.045848 -4.64299,7.589468 m 0.56492,2.234475 6.36472,-9.671051 m 0.43347,6.830986 -7.4306,2.972234 m -0.0347,3.321294 7.5663,-3.646401 m 0.39313,2.226039 -6.16415,5.892214 m 3.68097,1.219103 3.57694,-6.871473"
       id="path28"
       inkstitch:satin_column="True" />
    <path
       style="fill:none;stroke:#000000;stroke-width:0.931413;stroke-dasharray:none"
       d="m 245.36513,96.240985 c -1.63306,-0.05766 -2.45615,0.01956 -4.08098,-0.144248 -1.09418,-0.110072 -1.60842,-0.365548 -2.69273,-0.53838 -0.4058,-0.06456 -0.65717,-0.237237 -1.02354,-0.0539 -0.33679,0.168562 -0.48467,0.430935 -0.48467,0.807655 0,0.221792 0.30231,0.142607 0.48467,0.269272 0.31544,0.218999 0.42551,0.39512 0.75409,0.592433 0.53724,0.322175 0.80338,0.508809 1.39977,0.700043 1.09418,0.350762 1.66098,0.497144 2.79952,0.646157 1.6692,0.218341 2.51693,0.301472 4.20091,0.269271 1.71027,-0.03269 2.56622,-0.154104 4.25349,-0.430768 0.9496,-0.155586 1.42441,-0.285704 2.3165,-0.646322 1.03504,-0.418941 1.65934,-0.530168 2.47751,-1.292313 0.83459,-0.778574 1.15332,-1.33782 1.50654,-2.423291 0.31381,-0.963236 0.35816,-1.548933 0.10839,-2.5309 -0.34994,-1.372157 -0.7163,-2.040657 -1.56241,-3.177056 -0.99066,-1.3324 -1.63142,-1.914647 -2.96051,-2.907949 -3.44683,-2.573289 -5.23597,-3.789371 -8.93908,-5.977231 -10.45219,-6.175203 -16.73959,-7.607819 -26.43112,-14.918927 -5.20638,-3.928031 -7.36844,-6.843866 -10.2041,-12.717758 -2.0027,-4.148017 -2.13743,-6.869332 -1.44741,-11.42331 0.82147,-5.419463 2.05857,-8.159343 5.10288,-12.717757 3.38439,-5.069689 5.67626,-7.381425 10.66083,-10.890023 5.55962,-3.912981 8.76165,-5.550353 15.307,-7.3870762 6.42048,-1.8014002 9.96259,-2.2424556 16.59665,-1.5649201 6.88871,0.7035594 10.42755,1.7880928 16.58517,4.9541593 4.72501,2.429353 6.88707,4.429923 10.01681,8.723665 2.60073,3.569384 2.99667,6.010746 3.87727,10.33899 0.73766,3.63083 0.23329,5.559275 0.10679,9.262227 -0.046,1.373143 -0.19714,2.061357 -0.53887,3.392443 -0.24315,0.955187 -0.35979,1.474018 -0.9151,2.288572 -0.59966,0.880929 -1.02682,1.262248 -1.9107,1.857802 -0.76231,0.512752 -1.27654,0.517023 -2.12757,0.861542 m -31.86586,41.447139 c -2.37564,-0.974738 -3.49611,-1.649315 -5.94075,-2.436925 -2.22779,-0.718281 -3.36304,-1.337657 -5.70419,-1.315478 -1.40797,0.01331 -2.22614,0.413355 -3.22995,1.400086 -1.45562,1.428346 -1.91892,2.454342 -2.63852,4.36176 -0.70479,1.861743 -1.4129,2.987629 -0.86253,4.900304 0.51423,1.786006 1.67742,2.319627 3.2316,3.338717 1.76942,1.16006 2.89481,1.31417 4.89917,1.99236 2.26722,0.76724 3.39261,1.27539 5.76331,1.61547 2.17357,0.31215 3.31704,0.30772 5.49224,0 2.28201,-0.32283 3.3959,-0.73093 5.54647,-1.56158 1.66262,-0.64255 2.57772,-0.93909 3.92985,-2.10013 1.59362,-1.367069 2.15385,-2.324394 3.28581,-4.092655 0.75902,-1.18651 1.10238,-1.854023 1.39976,-3.230944 0.3598,-1.665417 0.44194,-2.565239 0.21521,-4.253985 -0.27599,-2.067601 -0.47808,-3.164078 -1.45397,-5.008079 -1.23547,-2.338353 -1.96821,-3.56462 -3.98405,-5.277188 -3.36139,-2.855047 -5.45939,-3.746818 -9.26272,-5.977396 -10.11046,-5.929422 -15.82779,-7.812852 -25.51273,-14.415373 -3.80992,-2.597604 -5.65982,-4.357982 -7.92047,-8.377031 -1.99612,-3.548352 -2.6993,-5.843169 -2.36086,-9.900167 0.3943,-4.725499 1.41125,-7.220912 4.1122,-11.11855 2.82745,-4.079671 5.04209,-5.658342 9.29066,-8.224732 4.80878,-2.904333 7.54422,-4.015925 13.02333,-5.254678 5.49225,-1.241957 8.45441,-1.47898 14.05344,-0.8668 5.1883,0.567296 7.7956,1.493405 12.49268,3.769491 3.79183,1.8371 5.49225,3.304876 8.4002,6.354115 2.47421,2.594646 3.42053,4.249712 4.84658,7.53898 1.34883,3.111012 1.37184,4.905725 1.99285,8.239023 0.14786,0.794676 0.12315,1.237275 -0.0806,2.019299 -0.22507,0.857435 -0.49122,1.245982 -0.96931,1.992357 -0.39102,0.611162 -0.84283,0.733888 -1.18455,1.373306 -0.39429,0.735531 -0.37294,1.195381 -0.61936,1.992356 m -36.27502,38.775453 0.65619,10.246809 M 239.0963,96.77151 234.58507,85.94455 m -3.55988,1.597831 7.37687,8.977532 m -0.11237,0.312997 -10.27556,-4.433976 m -0.95743,5.596233 11.81345,-1.588943 m 0.58228,0.098 -8.99316,5.323956 m 5.34501,2.44381 4.60351,-7.519097 m 2.17049,0.454011 -0.38244,8.872746 m 5.77099,-0.0176 -1.46663,-8.568255 m 3.90925,-0.321233 3.44874,7.218298 m 4.35941,-2.42734 -5.92103,-5.109943 m 2.16793,-0.596695 7.34708,0.91839 m 1.40884,-3.455053 -7.25689,0.337526 m 0.20421,-2.094342 7.17171,-2.933874 m -1.63295,-5.317268 -6.92139,5.383297 m -2.61908,-2.599143 5.21298,-8.370128 m -9.30593,-6.003414 -4.80222,8.422379 m -26.5899,-15.026225 6.03852,-7.704339 m -7.44037,-7.591854 -9.28257,1.793218 m -1.46976,-11.724326 8.41435,0.332143 m 4.02727,-10.702517 -7.25418,-2.763502 m 11.09281,-11.467268 5.02108,6.583226 m 12.44869,-5.004503 -1.58897,-9.2158846 m 17.06605,-1.5606478 -1.89369,9.9054204 m 11.86347,3.458004 7.24542,-8.097819 m 10.30077,9.087337 -9.43045,5.00099 m 4.70937,7.128144 8.73533,-1.379262 m 0.12381,9.483729 -6.88255,-0.08713 m 0.003,1.573545 6.25694,2.351904 m -0.94608,2.363066 -6.24952,-2.797008 m -1.05828,1.151395 5.26975,3.725186"
       id="path23"
       inkstitch:satin_column="True" />
    <path
       style="fill:none;stroke:#000000;stroke-width:0.931413;stroke-dasharray:none"
       d="m 262.98532,67.98739 c 0.68839,1.593949 0.74588,2.548807 1.72177,3.984873 1.2519,1.840387 2.00764,2.734458 3.77047,4.092487 1.48027,1.140507 2.34445,1.822807 4.19929,2.046408 1.9222,0.23132 2.90137,-0.364726 4.73979,-0.969317 1.46383,-0.481701 2.11771,-0.94073 3.44683,-1.723247 1.09088,-0.643199 1.45726,-1.250583 2.58428,-1.830859 0.34502,-0.177598 0.59144,-0.08805 0.96932,0 0.92824,0.2167 1.49505,0.186635 2.26065,0.753931 1.44577,1.069206 1.53612,2.389941 3.1248,3.230946 1.50162,0.795332 2.59745,1.216573 4.19928,0.646157 1.89427,-0.674908 2.23929,-2.024065 3.66205,-3.446332 0.90523,-0.905735 1.22561,-1.486668 2.15386,-2.369403 0.84281,-0.802233 1.18453,-1.39105 2.26227,-1.830856 1.12212,-0.458536 1.81706,-0.513738 3.01474,-0.323161 0.80338,0.127813 1.10239,0.552839 1.72342,1.077091 0.76888,0.648456 0.94795,1.18963 1.72341,1.830856 0.48959,0.405472 0.85431,0.426665 1.39975,0.753931 0.53231,0.319546 0.79024,0.496159 1.29298,0.861542 0.44521,0.324475 0.54708,0.707766 1.0761,0.861542 0.87075,0.252516 1.37676,-0.08641 2.26228,0.107772 0.9069,0.198957 1.26012,0.611327 2.15386,0.861542 1.26833,0.355361 1.91728,0.535095 3.23161,0.646156 2.13577,0.180719 3.21353,0.117798 5.35752,0.08083 2.47422,-0.04272 3.71954,-0.01971 6.17898,-0.28028 2.06349,-0.218179 3.07551,-0.481866 5.10287,-0.913786 1.26504,-0.269273 1.99777,-0.200434 3.12316,-0.83772 3.27762,-1.857309 5.05689,-2.712934 7.76769,-5.330746 2.69436,-2.60286 3.5536,-4.373588 5.5596,-7.539309 1.84334,-2.912877 2.61716,-4.473148 4.03498,-7.615539 1.69384,-3.753553 2.47586,-5.673622 3.73269,-9.59541 1.39647,-4.362416 1.98299,-6.590857 2.89316,-11.080598 0.54052,-2.672192 0.73439,-4.05125 0.72288,-6.777657 -0.003,-1.182237 -0.11663,-1.864866 -0.76066,-2.855867 -0.45509,-0.698402 -0.96768,-0.935309 -1.78914,-1.066086 -1.28309,-0.204213 -1.98298,-0.07064 -3.23817,0.266481 -1.22232,0.32891 -1.76776,0.718772 -2.85537,1.370843 -1.20589,0.724193 -1.83841,1.083006 -2.85538,2.056101 -1.81541,1.73754 -2.58429,2.748257 -4.18778,4.683441 -1.49175,1.799149 -2.29348,2.670219 -3.54211,4.645489 -1.24367,1.969518 -1.84828,2.99683 -2.66478,5.178448 -0.85431,2.279701 -1.11062,3.496603 -1.4852,5.901985 -0.70974,4.555459 -1.14347,6.851587 -1.21904,11.461261 -0.046,2.856197 0.93318,4.226055 0.91346,7.082417 -0.0263,3.769325 -1.1451,5.59969 -1.02683,9.367044 0.2481,7.908634 1.16647,11.811365 1.94193,19.685992 0.45837,4.66044 0.68181,6.991397 1.14182,11.651667 0.0428,0.42683 0.30064,0.68 0.11331,1.06609 -0.11982,0.25021 -0.44359,0.2535 -0.6851,0.11435 -0.42223,-0.2443 -0.49123,-0.54626 -0.76067,-0.95206 -2.52351,-3.78477 -3.80332,-5.66722 -6.22169,-9.520001 -0.82474,-1.314821 -1.3784,-1.925161 -1.88442,-3.392441 -0.1528,-0.444736 0.0165,-0.774796 0.32366,-1.130816 0.18236,-0.212592 0.42222,-0.01344 0.69986,-0.0539 14.16681,-2.064315 21.27239,-2.956578 35.41126,-5.208022 0.68839,-0.10942 0.95948,-0.411219 1.60021,-0.685421 M 266.21529,66.587301 c 1.12046,1.680039 1.57555,2.595468 2.80116,4.20026 0.59144,0.774633 0.91838,1.17271 1.72176,1.723249 0.85925,0.587832 1.33733,0.950915 2.37072,1.076925 0.83953,0.102519 1.33897,-0.07245 2.04542,-0.538544 1.37511,-0.90623 1.88606,-1.602823 3.01639,-2.800174 1.02846,-1.091385 1.00051,-2.294158 2.36907,-2.907784 1.41619,-0.634657 2.45944,-0.522446 3.87726,0.107611 1.86963,0.831312 2.28199,2.056922 3.87728,3.33872 1.03501,0.831148 1.41124,1.592307 2.69272,1.938632 0.59967,0.161991 0.86088,-0.413849 1.29133,-0.861706 0.66373,-0.689365 0.77708,-1.213452 1.39975,-1.938467 0.97424,-1.1318 1.1599,-2.250622 2.58594,-2.692565 1.93699,-0.600482 3.10016,0.841664 5.06181,0.323162 2.06935,-0.209676 3.27722,0.636654 4.30771,-2.800174 0.97095,-0.790404 1.18453,-1.460875 2.04541,-2.369403 0.73439,-0.773812 1.05803,-1.22939 1.93864,-1.83086 0.90687,-0.619376 1.94849,-2.147444 2.47751,-1.184701 1.28966,2.348868 0.0674,4.039586 0.53885,6.677274 0.26616,1.489134 0.54217,2.240765 1.29297,3.554105 0.48302,0.846264 0.98575,1.083993 1.72178,1.723248 0.90524,0.78531 1.34719,1.208032 2.37072,1.830858 0.97095,0.591282 1.48025,0.912635 2.58428,1.184701 1.89921,0.467735 2.89153,0.567955 4.84659,0.646157 2.29515,0.09183 3.45832,0.046 5.74033,-0.22245 1.85813,-0.218343 2.78145,-0.4426 4.56893,-0.990018 1.21246,-0.371133 1.84334,-0.585696 2.89481,-1.294611 3.08045,-2.077294 4.76772,-2.998637 7.38652,-5.635342 1.94684,-1.960155 2.45449,-3.347756 3.88383,-5.711737 1.55913,-2.577232 2.47586,-3.822884 3.57989,-6.625359 1.48355,-3.766697 1.78421,-5.805711 2.85538,-9.709755 1.19769,-4.367509 1.81541,-6.549622 2.81759,-10.966253 0.46165,-2.031621 0.66538,-3.064353 0.83789,-5.140334 0.0279,-0.346817 -0.21029,-0.478085 -0.34337,-0.799768 -0.0492,-0.120258 -0.004,-0.232307 -0.1133,-0.304595 -0.19714,-0.131111 -0.33679,-0.173655 -0.57173,-0.152298 -0.45672,0.04156 -0.69493,0.09973 -1.10404,0.304597 -0.94138,0.470857 -1.47533,0.653548 -2.24584,1.370842 -1.67413,1.558134 -2.4808,2.40259 -3.80827,4.264664 -1.03667,1.453317 -1.38662,2.305329 -2.05692,3.960066 -0.75246,1.862402 -1.00875,2.845683 -1.4852,4.797623 -0.50108,2.06103 -0.68508,3.112328 -0.95123,5.216728 -0.57173,4.525722 -0.8264,6.796222 -1.14183,11.346915 -0.2185,3.131056 0.0904,4.718106 -0.19056,7.843905 -0.23823,2.631118 -1.2322,3.872664 -1.10404,6.51134 0.40908,8.484145 1.59853,12.642184 2.43643,21.094786 0.54873,5.532166 0.78531,8.306219 1.02845,13.860069 0.10678,2.46584 1.47533,4.31395 -0.15278,6.16863 -1.40633,1.6025 -3.34169,0.84397 -5.33124,0.0761 -1.78749,-0.69035 -2.17357,-1.91366 -3.3499,-3.42694 -3.54376,-4.5553 -5.31974,-6.8483 -8.42647,-11.7123 -1.10076,-1.723412 -1.91071,-2.644426 -2.04543,-4.684919 -0.0806,-1.223639 0.69495,-1.771384 1.56076,-2.638511 1.07776,-1.077257 1.67742,-1.834145 3.17739,-2.100132 14.18652,-2.516114 21.38903,-3.130398 35.70041,-4.794829 0.66046,-0.07673 0.95946,0.274202 1.59855,0.457058 m -100.81219,-14.911913 -6.8425,1.881691 m 4.3311,4.852903 3.67294,-5.771757 m 1.78836,0.877429 -0.68001,7.140169 m 5.49907,-1.127344 -3.53312,-6.393266 m 3.04416,-2.815511 3.90674,7.500934 m 2.53232,-1.805029 -4.01722,-8.629626 m 4.43183,-0.01511 v 8.767492 m 1.71781,0.636083 2.70321,-5.947101 m 2.4607,1.858365 -1.80886,7.399921 m 4.85635,0.637966 -2.41119,-8.891255 m 0.90937,-1.685288 5.65432,6.876888 m 2.06383,-2.301533 -5.04325,-7.335669 m 5.48766,0.131071 1.39144,5.565741 m 2.56855,-0.290127 0.79499,-8.108754 m 2.04412,-2.369586 -1.11377,11.555537 m 1.73734,1.83217 1.30087,-15.219876 m 2.55772,-1.175272 -2.53919,17.139624 m 1.27673,0.859174 1.81663,-11.31905 m 1.42419,3.582214 -2.29562,8.570279 m 2.29029,0.11502 1.69989,-6.969446 m 2.51941,1.877133 -2.21537,5.907653 m 3.40736,0.698578 1.21639,-5.473929 m 4.63673,0.61706 -0.28531,4.966778 m 6.42898,-0.289552 -0.65201,-4.890237 m 4.30345,-0.92587 1.71675,4.838109 m 3.14793,-0.847086 -1.99641,-5.276265 m 7.29949,-5.598671 2.55219,5.507343 m 6.22076,-8.228404 -5.55054,-2.30144 m 3.48379,-6.2335 6.19844,0.527528 m 3.73055,-9.583909 -7.07218,-0.664902 m 2.81493,-10.9314 7.15393,0.48094 m 0.67041,-7.24558 -6.93359,2.092023 m -0.0871,-0.329446 6.00335,-5.088551 m -2.15036,-1.363266 -3.60648,6.4443 m 0.1909,0.0096 -0.58307,-6.349217 m -3.54763,1.646125 3.7183,4.732368 m -1.99823,1.113903 -4.82418,-3.533216 m -4.30084,4.866539 5.42959,2.748304 m -1.93801,3.613884 -7.15094,-1.370597 m -2.68405,5.313187 8.36864,0.720476 m -0.9477,5.064046 -8.91018,0.270006 m -1.21758,11.484348 8.98454,-0.430396 m -0.19382,8.020675 -7.87344,-0.684649 m -0.91128,10.033325 7.56368,-3.503765 m 2.53913,21.421345 -8.26305,1.441871 m 1.15323,11.144336 8.12697,1.78125 m -0.59234,6.89484 -6.98034,-8.33624 m 0.0237,-0.18547 0.91672,8.89757 m -4.08265,-3.56352 3.13622,-6.14943 m -5.5934,-8.826322 -6.59572,2.569765 m -2.13229,-5.063745 6.92927,-0.519693 m 0.23862,-0.559286 -5.52178,-2.131197 m 4.16629,-2.919655 1.06636,5.816527 m 35.31628,-5.194021 -0.58713,-5.431148"
       id="path24"
       inkstitch:satin_column="True"
       sodipodi:nodetypes="ccccccscccccccsccccccccsccccccccccscccccccccccccccccccccccccccccccccccccscsccccscccscccccccsccccccccccccccsccccccccccccccccccccccccccccccccccccccccccccccccccccccccccccccccccccccccccccccccccccccccccccccccccccccccccccccccc" />
    <path
       style="fill:none;stroke:#000000;stroke-width:0.931413;stroke-dasharray:none"
       d="m 315.97243,35.031457 c 1.07774,0.387728 1.5509,0.894565 2.69273,0.969318 1.24695,0.08164 1.86797,-0.24463 3.06895,-0.592269 1.26504,-0.366041 1.84169,-0.710886 3.06895,-1.184702 m -9.85417,-1.777135 c 0.51751,-0.990674 0.65881,-1.556986 1.29297,-2.477013 0.66701,-0.967509 1.05311,-1.435246 1.93863,-2.207741 1.15332,-1.005789 1.87456,-1.324842 3.12317,-2.207905 m -5.55187,3.196096 3.40322,8.470276 m 3.13342,-0.620036 -4.66202,-10.030374 m 6.77478,8.765917 -4.66203,-10.030374"
       id="path25"
       inkstitch:satin_column="True"
       sodipodi:nodetypes="cscccccccccccc" />
    <path
       style="fill:none;stroke:#000000;stroke-width:0.931413;stroke-dasharray:none"
       d="m 321.21495,53.289761 c 0.12168,0.63975 0,1.023861 0.30393,1.599373 0.27272,0.51423 0.52409,0.780544 1.06626,0.990016 1.64126,0.632685 2.53007,0.779724 4.26498,1.066083 2.82416,0.46593 4.24857,0.681643 7.10886,0.810775 6.593,0.297696 9.89853,0.30361 16.4981,0.255473 21.1426,-0.154268 31.70978,-0.761652 52.85238,-0.761652 7.37831,0 11.05842,0.419105 18.42851,0.761652 6.72114,0.312153 10.08089,0.48088 16.79545,0.875342 1.08103,0.06342 1.61171,0.216535 2.69273,0.269273 0.68838,0.03353 1.03668,0.01609 1.7234,-0.05389 0.3746,-0.03811 0.54876,-0.129302 0.91512,-0.215387 M 322.73792,51.614488 c 0.73109,-0.03056 1.0991,-0.142435 1.82692,-0.07623 0.62595,0.05684 0.91837,0.215549 1.52296,0.380825 1.40469,0.383128 2.08157,0.679836 3.50433,0.990017 1.87949,0.41007 2.82417,0.661107 4.7431,0.808147 6.43853,0.493531 9.66687,0.73126 16.12185,0.791061 21.14095,0.195834 31.71142,-0.287509 52.85238,-0.152298 7.43581,0.04749 11.15863,0.165276 18.58131,0.609191 7.03822,0.420913 10.54746,0.806668 17.5594,1.55222 0.86088,0.09168 1.27161,0.281923 2.09964,0.538546 0.70317,0.217849 1.06788,0.311332 1.7234,0.646155 0.36802,0.188115 0.48467,0.387727 0.80668,0.646156 m -118.63051,-7.782517 -4.81441,5.295849 m 1.07944,1.001911 5.24478,-5.928892 m 3.37078,0.887205 -4.21859,6.210659 m 7.72475,1.032139 0.62123,-6.655987 m 16.00048,0.785341 v 6.131766 m 52.8513,-0.761546 V 53.04168 m 18.64735,0.610876 -0.28355,5.67156 m 16.38728,0.78872 1.86281,-4.821377 m 1.82629,0.465452 -0.72279,4.698214 m 1.62749,-0.07223 0.91418,-3.961423"
       id="path26"
       inkstitch:satin_column="True" />
    <path
       style="fill:none;stroke:#000000;stroke-width:0.931413;stroke-dasharray:none"
       d="m 375.07279,36.862479 c -0.25958,0.269108 -0.40581,0.387563 -0.64731,0.673101 -0.27766,0.329403 -0.43702,0.484329 -0.64566,0.861541 -0.25794,0.469379 -0.32201,0.736845 -0.51094,1.238589 -1.92057,5.105339 -3.02952,7.606011 -4.7628,12.778381 -1.05802,3.160299 -1.54927,4.767064 -2.20807,8.034318 -0.5323,2.644753 -0.69823,4.004425 -0.76231,6.701589 -0.0428,1.868151 -0.007,2.845517 0.49617,4.645488 0.50107,1.798164 0.93479,2.679093 1.97969,4.226549 1.03667,1.536283 1.66919,2.287257 3.16097,3.388827 1.30447,0.964059 2.1407,1.204088 3.69325,1.675438 1.38498,0.420586 2.13249,0.484824 3.57824,0.533125 1.31598,0.0437 1.98136,-0.06687 3.27597,-0.30476 1.53283,-0.281759 2.29023,-0.494187 3.76884,-0.990018 0.98246,-0.329402 1.52461,-0.454427 2.36085,-1.066083 0.84446,-0.617569 1.15497,-1.082677 1.75134,-1.941918 0.31708,-0.455413 0.3861,-0.750974 0.49452,-1.294611 0.10852,-0.537889 0.023,-0.822441 0.0395,-1.370845 M 376.04217,36.88926 c 0.48464,0.32316 0.84937,0.350595 1.21081,0.807818 0.32366,0.40892 0.37459,0.718281 0.40417,1.238588 0.0362,0.652399 -0.0674,0.985745 -0.24152,1.615472 -1.41619,5.117004 -2.30008,7.625398 -3.73105,12.738623 -0.8083,2.892506 -1.36853,4.310828 -1.8647,7.27283 -0.43701,2.604995 -0.3598,3.94791 -0.45671,6.587407 -0.0559,1.476647 -0.19059,2.239778 0.0755,3.693424 0.25793,1.417008 0.57994,2.097172 1.21739,3.388991 0.51424,1.04177 0.80503,1.58968 1.63798,2.398812 0.75574,0.733231 1.28147,0.951408 2.24587,1.370842 0.9118,0.395942 1.41947,0.486467 2.40028,0.647308 0.88716,0.145562 1.35047,0.194355 2.24586,0.114181 1.1599,-0.103835 1.75134,-0.202735 2.85537,-0.57124 0.7886,-0.262864 1.10896,-0.574195 1.82857,-0.989851 0.75737,-0.437672 1.13196,-0.664065 1.8647,-1.14248 0.36472,-0.238057 0.54707,-0.362425 0.87732,-0.647306 0.3417,-0.295559 0.47972,-0.479729 0.79844,-0.799604 m -10.84504,-36.841021 -5.45148,-0.31151 m -0.63582,0.755762 6.4808,0.900114 m -0.26073,1.718026 -6.71324,-1.482145 m -4.7744,12.842593 7.77036,1.314107 m -1.84766,7.080788 -8.1493,-0.168606 m -0.76183,6.728794 h 8.45448 m 0.0563,3.465607 -7.99582,1.407715 m 2.04797,4.471178 7.09837,-2.734611 m 1.39255,1.997427 -5.08573,4.527508 m 4.04781,1.956398 2.93017,-5.394118 m 1.98756,0.505796 -0.92715,5.56292 m 3.75956,-0.314524 -1.07075,-5.124258 m 2.38663,-0.372192 2.92294,4.307474 m 2.53448,-1.207004 -3.8034,-3.949641 m 1.68732,-0.929771 4.0461,2.72492 m 0.62083,-1.529955 -3.91697,-1.606952"
       id="path27"
       inkstitch:satin_column="True" />
  </g>
</svg>
